<?xml version="1.0" encoding="utf-8"?>
<!-- Generator: Adobe Illustrator 17.0.2, SVG Export Plug-In . SVG Version: 6.00 Build 0)  -->
<!DOCTYPE svg PUBLIC "-//W3C//DTD SVG 1.1//EN" "http://www.w3.org/Graphics/SVG/1.1/DTD/svg11.dtd">
<svg version="1.1" id="Layer_1" xmlns="http://www.w3.org/2000/svg" xmlns:xlink="http://www.w3.org/1999/xlink" x="0px" y="0px"
	 width="1280px" height="800px" viewBox="0 0 1280 800" enable-background="new 0 0 1280 800" xml:space="preserve">
<g>
	<path fill="#787878" d="M321.761,285.399l-31.295,42.755c0,0,162.646,0,171.021,0c8.815,0,8.375,3.085,4.408,8.816
		c-4.408,5.73-11.46,15.868-15.868,21.598c-2.204,3.085-6.171,8.375,7.052,8.375c14.105,0,69.642,0,69.642,0
		s11.46-15.427,20.716-28.21c12.782-17.19,1.322-53.334-44.518-53.334C461.486,285.399,321.761,285.399,321.761,285.399"/>
	<path fill="#787878" d="M278.124,424.243l63.031-85.51c0,0,69.642,0,78.017,0c8.815,0,8.375,3.085,4.408,8.815
		c-4.408,5.73-11.46,15.868-15.868,21.598c-2.204,3.085-6.171,8.375,7.052,8.375c14.105,0,104.464,0,104.464,0
		c-8.815,11.901-37.025,46.281-87.714,46.281C390.522,424.243,278.124,424.243,278.124,424.243"/>
	<path fill="#787878" d="M638.237,377.52l-33.94,46.281h-89.918l33.94-46.281H638.237"/>
	<polyline fill="#787878" points="776.199,367.383 556.253,367.383 616.198,285.399 706.557,285.399 671.736,332.121 
		711.846,332.121 746.667,285.399 836.585,285.399 776.199,367.383 	"/>
	<path fill="#787878" d="M768.706,377.52l-33.94,46.281h-89.918l33.94-46.281H768.706"/>
	<polyline fill="#787878" points="149.418,396.033 282.091,396.033 275.039,405.73 149.418,405.73 149.418,396.033 	"/>
	<polyline fill="#787878" points="149.418,377.52 295.755,377.52 288.262,387.658 149.418,387.658 149.418,377.52 	"/>
	<polyline fill="#787878" points="149.418,414.546 268.427,414.546 261.375,424.243 149.418,424.243 149.418,414.546 	"/>
	<polyline fill="#787878" points="1130.582,405.73 998.35,405.73 1005.402,396.033 1130.582,396.033 1130.582,405.73 	"/>
	<polyline fill="#787878" points="1130.582,424.243 984.686,424.243 992.179,414.546 1130.582,414.546 1130.582,424.243 	"/>
	<polyline fill="#787878" points="1019.066,377.52 1130.582,377.52 1130.582,387.658 1011.573,387.658 1019.066,377.52 	"/>
	<path fill="#787878" d="M961.325,285.399l-60.386,81.984h-95.207l60.386-81.984H961.325"/>
	<path fill="#787878" d="M797.797,377.52c0,0-6.612,8.816-9.697,13.223c-11.46,15.427-1.322,33.058,35.703,33.058
		c42.755,0,144.574,0,144.574,0l33.94-46.281H797.797"/>
	<rect x="149.418" y="463.472" fill="#787878" width="312.95" height="1.763"/>
	<rect x="817.632" y="463.472" fill="#787878" width="312.95" height="1.763"/>
	<rect x="149.418" y="511.957" fill="#787878" width="312.95" height="1.763"/>
	<rect x="817.632" y="511.957" fill="#787878" width="312.95" height="1.763"/>
	<rect x="149.418" y="487.714" fill="#787878" width="312.95" height="1.763"/>
	<rect x="817.632" y="487.714" fill="#787878" width="312.95" height="1.763"/>
	<polyline fill="#787878" points="478.676,514.161 508.208,514.161 513.057,507.549 491.018,507.549 503.36,490.8 523.635,490.8 
		528.043,484.629 508.208,484.629 519.228,469.642 540.826,469.642 545.674,463.472 516.142,463.472 478.676,514.161 	"/>
	<polyline fill="#787878" points="515.261,514.161 524.076,514.161 554.93,492.563 554.49,514.161 564.187,514.161 564.187,487.273 
		599.889,463.472 591.074,463.472 562.864,482.866 563.305,463.472 554.049,463.472 554.049,487.714 515.261,514.161 	"/>
	<path fill="#787878" d="M571.239,514.161h7.493l14.986-20.276h7.493c9.697,0,21.598-3.967,29.973-15.427
		c8.375-11.46,2.204-14.986-8.375-14.986h-13.664L571.239,514.161 M611.35,469.642h6.612c4.849,0,9.697,2.204,5.289,8.815
		c-4.849,6.612-12.342,8.815-17.19,8.815h-7.493L611.35,469.642z"/>
	<path fill="#787878" d="M654.986,469.642h7.052c7.052,0,8.375,3.085,4.849,7.493c-3.526,4.849-10.138,7.934-17.19,7.934h-6.612
		L654.986,469.642 M614.435,514.161h7.493l16.749-22.479h4.408c3.967,0,6.612,0,5.289,4.849l-4.849,17.631h8.815l4.849-20.276
		c0.441-3.085,0.441-4.408-1.322-5.289l0,0c7.052-0.882,14.986-5.289,19.394-11.46c8.815-12.342,0-13.664-10.138-13.664h-13.223
		L614.435,514.161z"/>
	<polyline fill="#787878" points="659.835,514.161 689.367,514.161 694.215,507.549 672.177,507.549 684.518,490.8 704.794,490.8 
		709.202,484.629 689.367,484.629 700.386,469.642 721.984,469.642 726.833,463.472 697.301,463.472 659.835,514.161 	"/>
	<path fill="#787878" d="M763.417,464.353c-2.645-1.322-6.612-1.763-9.697-1.763c-9.697,0-20.276,4.849-26.887,13.664
		c-11.46,15.868,13.223,12.782,4.849,23.802c-4.408,5.73-12.342,8.375-16.309,8.375c-3.967,0-7.493-1.322-9.256-2.645l-5.73,6.612
		c2.645,0.882,5.73,2.204,9.256,2.204c10.579,0,22.48-4.408,30.413-14.986c12.342-16.749-11.901-14.546-4.849-24.243
		c3.967-5.289,10.138-6.612,14.105-6.612c3.967,0,5.73,0.441,8.375,2.204L763.417,464.353"/>
	<path fill="#787878" d="M800.883,464.353c-2.645-1.322-6.612-1.763-9.697-1.763c-9.697,0-20.276,4.849-26.887,13.664
		c-11.46,15.868,13.223,12.782,4.849,23.802c-4.408,5.73-12.342,8.375-16.309,8.375c-3.967,0-7.493-1.322-9.256-2.645l-5.73,6.612
		c2.645,0.882,5.73,2.204,9.256,2.204c10.579,0,22.48-4.408,30.413-14.986c12.342-16.749-11.901-14.546-4.849-24.243
		c3.967-5.289,10.138-6.612,14.105-6.612s5.73,0.441,8.375,2.204L800.883,464.353"/>
</g>
</svg>
