<?xml version="1.0" encoding="utf-8"?>
<!-- Generator: Adobe Illustrator 17.0.2, SVG Export Plug-In . SVG Version: 6.00 Build 0)  -->
<!DOCTYPE svg PUBLIC "-//W3C//DTD SVG 1.1//EN" "http://www.w3.org/Graphics/SVG/1.1/DTD/svg11.dtd">
<svg version="1.1" id="Layer_1" xmlns="http://www.w3.org/2000/svg" xmlns:xlink="http://www.w3.org/1999/xlink" x="0px" y="0px"
	 width="1280px" height="800px" viewBox="0 0 1280 800" enable-background="new 0 0 1280 800" xml:space="preserve">
<g>
	<path fill="#787878" d="M139.011,457.273h3.878c5.071,0,8.949,4.176,8.949,8.949v53.395c0,5.071-4.176,8.949-8.949,8.949h-3.878
		c-5.071,0-8.949-4.176-8.949-8.949v-53.395C130.062,461.151,134.238,457.273,139.011,457.273"/>
	<path fill="#787878" d="M97.548,343.324h3.878c5.071,0,8.949,4.176,8.949,8.949v53.395c0,5.071-4.176,8.949-8.949,8.949h-3.878
		c-5.071,0-8.949-4.176-8.949-8.949v-53.395C88.599,347.5,92.775,343.324,97.548,343.324"/>
	<path fill="#787878" d="M351.1,340.937c0-2.685-0.597-5.369-1.491-7.756c-0.895-2.386-2.386-4.474-4.176-6.264
		c-1.79-1.79-3.878-2.983-6.264-4.176c-2.386-0.895-5.071-1.491-7.756-1.491c-2.983,0-5.668,0.597-8.054,1.491
		c-2.386,0.895-4.474,2.386-6.264,4.176c-1.79,1.79-3.281,3.878-4.474,6.264c-1.193,2.386-2.088,5.071-2.685,7.756H351.1z
		 M308.742,353.466v6.264c0,5.668,0.597,11.037,2.088,16.406s3.58,10.142,6.562,14.318c2.983,4.176,6.861,7.756,11.335,10.142
		c4.474,2.685,10.142,3.878,16.406,3.878c3.58,0,6.861-0.298,10.142-0.895s6.562-1.193,10.142-2.088v12.23
		c-3.878,1.193-7.756,2.088-11.634,2.386c-3.878,0.298-8.054,0.597-11.932,0.597c-8.949,0-16.406-1.491-22.671-4.176
		c-6.264-2.983-11.634-6.861-15.511-11.932c-4.176-5.071-6.861-11.037-8.949-18.196c-1.79-6.861-2.983-14.617-2.983-22.969
		c0-6.563,0.597-13.125,2.088-19.091c1.491-5.966,3.58-11.335,6.861-16.108c2.983-4.474,7.159-8.352,12.23-11.037
		c5.071-2.685,11.335-4.176,19.091-4.176c5.966,0,11.335,0.895,15.81,2.983c4.474,2.088,8.352,4.773,11.335,8.054
		c2.983,3.58,5.071,7.457,6.563,12.23c1.491,4.773,2.088,9.844,2.088,15.81v5.071h-59.063V353.466z M440.589,325.128
		c-6.562,0-12.23,1.491-16.705,4.176c-4.474,2.685-8.054,6.264-10.739,10.739c-2.685,4.474-4.773,9.545-5.668,15.213
		c-1.193,5.668-1.79,11.335-1.79,16.705v42.358h-14.617V311.704h14.617v19.986h0.298c6.562-14.915,17.898-22.372,34.304-22.372
		v15.81H440.589z M507.407,343.025c0-2.983-0.298-5.668-0.895-8.352c-0.597-2.685-1.79-4.773-3.281-6.861s-3.281-3.58-5.668-4.474
		c-2.386-1.193-5.071-1.79-8.352-1.79c-4.773,0-8.651,1.193-11.634,3.281c-2.983,2.386-5.668,5.071-7.457,8.651
		c-1.79,3.58-3.281,7.457-3.878,11.634c-0.895,4.176-1.193,8.352-1.193,11.932c0,6.562,0.895,12.827,2.386,18.494
		c1.491,5.668,3.878,10.739,7.159,14.915c3.281,4.176,7.457,7.457,12.528,9.844c5.071,2.386,11.335,3.58,18.793,3.58
		c2.685,0,5.668,0,8.352-0.298c2.685-0.298,5.668-0.895,8.352-1.79v11.634c-3.58,0.895-7.159,1.79-10.44,2.088
		c-3.58,0.298-7.159,0.597-10.739,0.597c-8.949,0-16.705-1.193-23.267-3.878c-6.562-2.685-12.23-6.264-16.406-11.335
		c-4.474-4.773-7.756-10.739-9.844-17.599c-2.088-6.861-3.281-14.617-3.281-23.267c0-7.159,0.597-13.722,2.088-19.986
		c1.491-6.264,3.878-11.634,6.861-16.406c3.281-4.773,7.457-8.352,13.125-11.037c5.369-2.685,11.932-4.176,19.986-4.176
		c5.369,0,10.44,0.597,14.617,2.088c4.474,1.491,8.054,3.58,11.037,6.264c2.983,2.685,5.369,6.264,6.861,10.44
		c1.491,4.176,2.386,9.247,2.386,14.617h-18.196V343.025z M598.388,414.318l-39.972-54.887h-0.298v54.887h-14.617v-148.85h14.617
		v89.489h0.298l35.497-43.253h17.898l-36.989,45.639l41.762,56.975H598.388z M733.516,374.943c0,7.756-1.491,14.318-4.474,19.688
		s-6.861,9.545-11.634,12.827c-4.773,3.281-10.44,5.668-16.705,7.159c-6.264,1.491-12.827,2.088-19.688,2.088
		c-5.966,0-11.634-0.298-17.301-1.193c-5.668-0.895-11.335-2.088-17.003-3.281v-17.301c5.668,2.386,11.634,4.176,17.898,5.668
		c5.966,1.491,12.23,2.088,18.494,2.088c3.878,0,8.054-0.597,11.932-1.491s7.159-2.386,10.142-4.474
		c2.983-2.088,5.369-4.773,7.159-7.756c1.79-3.281,2.685-7.159,2.685-11.634c0-4.176-0.597-7.756-2.088-10.739
		c-1.491-2.983-3.281-5.668-5.668-7.756c-2.386-2.088-5.071-4.176-8.054-5.966c-2.983-1.79-5.966-3.58-9.247-5.369l-13.125-7.457
		c-4.176-2.386-8.054-4.474-11.932-6.861c-3.878-2.386-7.159-4.773-10.142-7.756s-5.369-6.264-7.159-10.142
		c-1.79-3.878-2.685-8.352-2.685-14.02c0-6.861,1.491-12.827,4.176-17.599c2.685-4.773,6.264-8.651,10.739-11.932
		c4.474-2.983,9.545-5.369,15.213-6.563c5.668-1.491,11.634-2.088,17.898-2.088c5.369,0,10.44,0.298,15.511,1.193
		c5.071,0.895,10.142,1.79,15.511,2.685v16.705c-5.071-2.088-10.142-3.58-15.81-4.773c-5.668-1.193-11.037-1.79-16.705-1.79
		c-3.58,0-7.159,0.298-10.44,1.193c-3.281,0.895-6.264,2.088-8.949,4.176c-2.685,1.79-4.773,4.176-6.264,7.159
		c-1.491,2.983-2.386,6.264-2.386,10.44c0,3.281,0.895,6.264,2.386,8.949c1.492,2.685,3.58,5.071,6.264,7.159
		c2.386,2.088,5.071,3.878,8.054,5.668c2.983,1.79,5.668,3.281,8.352,4.474l14.02,7.457c4.474,2.386,8.352,4.773,12.23,7.159
		c3.878,2.386,7.159,5.369,10.142,8.352c2.983,3.281,5.071,6.861,6.861,10.739C732.621,364.503,733.516,369.275,733.516,374.943z
		 M806.3,340.937c0-2.685-0.597-5.369-1.491-7.756c-0.895-2.386-2.386-4.474-4.176-6.264c-1.79-1.79-3.878-2.983-6.264-4.176
		c-2.386-0.895-5.071-1.491-7.756-1.491c-2.983,0-5.668,0.597-8.054,1.491c-2.386,0.895-4.474,2.386-6.264,4.176
		c-1.79,1.79-3.281,3.878-4.474,6.264c-1.193,2.386-2.088,5.071-2.685,7.756H806.3z M763.942,353.466v6.264
		c0,5.668,0.597,11.037,2.088,16.406c1.492,5.369,3.58,10.142,6.563,14.318c2.983,4.176,6.861,7.756,11.335,10.142
		c4.474,2.685,10.142,3.878,16.406,3.878c3.58,0,6.861-0.298,10.142-0.895s6.562-1.193,10.142-2.088v12.23
		c-3.878,1.193-7.756,2.088-11.634,2.386c-3.878,0.298-8.054,0.597-11.932,0.597c-8.949,0-16.406-1.491-22.671-4.176
		c-6.264-2.983-11.634-6.861-15.511-11.932c-4.176-5.071-6.861-11.037-8.949-18.196c-1.79-6.861-2.983-14.617-2.983-22.969
		c0-6.563,0.597-13.125,2.088-19.091c1.492-5.966,3.58-11.335,6.861-16.108c2.983-4.474,7.159-8.352,12.23-11.037
		c5.071-2.685,11.335-4.176,19.091-4.176c5.966,0,11.335,0.895,15.81,2.983c4.474,2.088,8.352,4.773,11.335,8.054
		c2.983,3.58,5.071,7.457,6.562,12.23c1.492,4.773,2.088,9.844,2.088,15.81v5.071h-59.063V353.466z M895.491,325.128
		c-6.563,0-12.23,1.491-16.705,4.176c-4.474,2.685-8.054,6.264-10.739,10.739c-2.685,4.474-4.773,9.545-5.668,15.213
		c-1.193,5.668-1.79,11.335-1.79,16.705v42.358h-14.617V311.704h14.617v19.986h0.298c6.563-14.915,17.898-22.372,34.304-22.372
		v15.81H895.491z M970.363,363.011c0-2.685,0-5.668-0.298-8.949c-0.298-3.281-0.895-6.264-1.492-9.247
		c-0.597-2.983-1.79-5.966-2.983-8.651c-1.193-2.685-2.685-5.369-4.773-7.457c-1.79-2.088-4.176-3.878-6.861-5.071
		c-2.685-1.193-5.668-1.79-9.247-1.79s-6.563,0.597-9.247,2.088c-2.685,1.193-4.773,2.983-6.563,5.071
		c-1.79,2.088-3.281,4.474-4.474,7.457s-2.088,5.966-2.685,8.949c-0.597,2.983-1.193,6.264-1.492,9.247
		c-0.298,2.983-0.298,5.966-0.298,8.651s0,5.668,0.298,8.651c0.298,2.983,0.597,6.264,1.492,9.247
		c0.597,2.983,1.491,5.966,2.685,8.949c1.193,2.983,2.685,5.369,4.474,7.457s4.176,3.878,6.563,5.071
		c2.685,1.193,5.668,2.088,9.247,2.088s6.563-0.597,9.247-1.79c2.685-1.193,4.773-2.983,6.861-5.071
		c1.79-2.088,3.58-4.773,4.773-7.457c1.193-2.685,2.088-5.668,2.983-8.651c0.597-2.983,1.193-6.264,1.492-9.247
		C970.065,368.679,970.363,365.994,970.363,363.011z M987.068,363.31c0,6.861-0.597,13.722-2.088,19.986
		c-1.491,6.563-3.878,12.23-7.159,17.003c-3.281,5.071-7.756,8.949-13.125,11.932c-5.369,2.983-12.23,4.474-19.986,4.474
		c-8.054,0-14.616-1.491-19.986-4.474c-5.369-2.983-9.844-6.861-13.125-11.932c-3.281-5.071-5.668-10.739-6.861-17.003
		c-1.491-6.563-2.088-13.125-2.088-19.986c0-6.861,0.597-13.722,2.088-20.284c1.491-6.562,3.58-12.23,6.861-17.301
		c3.281-5.071,7.457-8.949,13.125-11.932c5.369-2.983,11.932-4.474,19.986-4.474c8.054,0,14.617,1.491,19.986,4.474
		c5.369,2.983,9.546,7.159,13.125,11.932c3.281,5.071,5.668,10.739,7.159,17.301C986.471,349.588,987.068,356.15,987.068,363.31z
		 M1069.398,414.318v-56.975c0-1.79,0-4.176,0-6.563c0-2.386,0-4.773-0.298-7.457c-0.298-2.386-0.597-4.773-1.193-7.159
		c-0.597-2.386-1.193-4.474-2.386-6.264c-1.193-1.79-2.685-3.281-4.474-4.474c-1.79-1.193-4.176-1.79-6.861-1.79
		c-3.281,0-6.563,0.895-9.247,2.386c-2.685,1.491-5.071,3.878-7.457,6.562c-2.088,2.685-3.878,5.668-5.668,9.247
		c-1.492,3.281-2.983,6.861-3.878,10.44c-0.895,3.58-1.79,7.159-2.386,10.44c-0.597,3.58-0.597,6.562-0.597,9.247v42.358h-14.617
		V311.704h14.616v23.565h0.298c1.193-3.878,2.685-7.457,4.773-10.739c1.79-3.281,4.176-5.966,6.563-8.352
		c2.685-2.386,5.668-4.176,8.949-5.369c3.281-1.193,7.457-1.79,11.932-1.79s8.352,0.895,11.634,2.685
		c3.281,1.79,5.966,4.176,8.352,7.159c2.088,2.983,3.878,6.264,4.773,10.142c1.193,3.878,1.491,7.756,1.491,11.932v73.381H1069.398
		L1069.398,414.318z M1174.696,363.011c0-2.685,0-5.668-0.298-8.949c-0.298-3.281-0.895-6.264-1.491-9.247
		c-0.597-2.983-1.79-5.966-2.983-8.651c-1.193-2.685-2.685-5.369-4.773-7.457c-1.79-2.088-4.176-3.878-6.861-5.071
		c-2.685-1.193-5.668-1.79-9.247-1.79s-6.562,0.597-9.247,2.088c-2.685,1.193-4.773,2.983-6.562,5.071
		c-1.79,2.088-3.281,4.474-4.474,7.457s-2.088,5.966-2.685,8.949s-1.193,6.264-1.491,9.247s-0.298,5.966-0.298,8.651
		s0,5.668,0.298,8.651c0.298,2.983,0.597,6.264,1.491,9.247c0.597,2.983,1.492,5.966,2.685,8.949
		c1.193,2.983,2.685,5.369,4.474,7.457s4.176,3.878,6.562,5.071c2.685,1.193,5.668,2.088,9.247,2.088s6.563-0.597,9.247-1.79
		c2.685-1.193,4.773-2.983,6.861-5.071c1.79-2.088,3.58-4.773,4.773-7.457c1.193-2.685,2.088-5.668,2.983-8.651
		c0.597-2.983,1.193-6.264,1.491-9.247C1174.398,368.679,1174.696,365.994,1174.696,363.011z M1191.401,363.31
		c0,6.861-0.597,13.722-2.088,19.986c-1.491,6.563-3.878,12.23-7.159,17.003c-3.281,5.071-7.756,8.949-13.125,11.932
		c-5.369,2.983-12.23,4.474-19.986,4.474c-8.054,0-14.616-1.491-19.986-4.474c-5.369-2.983-9.844-6.861-13.125-11.932
		c-3.281-5.071-5.668-10.739-6.861-17.003c-1.491-6.563-2.088-13.125-2.088-19.986c0-6.861,0.597-13.722,2.088-20.284
		c1.491-6.562,3.58-12.23,6.861-17.301s7.457-8.949,13.125-11.932c5.369-2.983,11.932-4.474,19.986-4.474
		c8.054,0,14.617,1.491,19.986,4.474c5.369,2.983,9.546,7.159,13.125,11.932c3.281,5.071,5.668,10.739,7.159,17.301
		C1190.804,349.588,1191.401,356.15,1191.401,363.31z M173.614,520.213v-54.887h6.264v50.114h19.688v5.071h-25.952V520.213z
		 M206.128,520.213V482.33h5.369v38.182h-5.369V520.213z M205.233,472.486v-7.159h7.159v7.159H205.233z M238.941,520.213h-5.369
		l-14.318-38.182h5.966l11.335,30.128h0.298l9.844-30.128h5.966L238.941,520.213z M259.225,520.213V482.33h5.369v38.182h-5.369
		V520.213z M258.33,472.486v-7.159h7.159v7.159H258.33z M299.793,520.213v-21.179c0-0.597,0-1.491,0-2.386s0-1.79,0-2.685
		s-0.298-1.79-0.298-2.685c-0.298-0.895-0.597-1.491-0.895-2.386c-0.298-0.597-0.895-1.193-1.491-1.491
		c-0.895-0.298-1.79-0.597-2.685-0.597c-1.193,0-2.386,0.298-3.58,0.895c-0.895,0.597-1.79,1.491-2.685,2.386
		s-1.491,2.088-2.088,3.281c-0.597,1.193-1.193,2.685-1.491,3.878c-0.298,1.193-0.597,2.685-0.895,3.878
		c-0.298,1.193-0.298,2.386-0.298,3.281v15.81h-5.369V482.33h5.369v8.651h0.298c0.597-1.491,0.895-2.685,1.79-3.878
		c0.597-1.193,1.491-2.088,2.386-2.983s2.088-1.491,3.281-2.088c1.193-0.597,2.685-0.597,4.474-0.597
		c1.79,0,2.983,0.298,4.474,0.895c1.193,0.597,2.386,1.491,2.983,2.685c0.895,1.193,1.491,2.386,1.79,3.878
		c0.298,1.491,0.597,2.983,0.597,4.474v27.145h-5.668V520.213z M338.273,500.526c0-1.193,0-2.685-0.597-4.474
		c-0.298-1.79-0.895-3.281-1.491-4.773s-1.491-2.685-2.685-3.878c-1.193-0.895-2.685-1.491-4.176-1.491
		c-1.193,0-2.088,0.298-2.983,0.895c-0.895,0.597-1.491,1.193-2.088,2.088c-0.597,0.895-1.193,1.79-1.491,2.983
		c-0.298,1.193-0.597,2.386-0.895,3.281c-0.298,1.193-0.298,2.386-0.298,3.281c0,1.193,0,2.088,0,2.983s0,1.79,0,2.685
		s0.298,2.088,0.298,2.983c0.298,0.895,0.597,2.088,0.895,2.983c0.298,0.895,0.895,1.79,1.491,2.685
		c0.597,0.895,1.193,1.492,2.088,1.79c0.895,0.597,1.79,0.597,2.983,0.597c1.193,0,2.088-0.298,2.983-0.895
		c0.895-0.597,1.79-1.193,2.386-2.088c0.597-0.895,1.193-1.79,1.79-2.685c0.597-1.193,0.895-2.088,1.193-3.281
		c0.298-1.193,0.597-2.386,0.597-3.281C338.273,502.614,338.273,501.421,338.273,500.526z M343.941,520.512
		c0,5.369-1.193,9.545-3.878,12.23s-6.562,4.176-12.23,4.176c-1.79,0-3.58,0-5.369-0.298c-1.491-0.298-3.281-0.597-5.071-0.895
		v-5.369c1.491,0.597,2.983,1.193,4.773,1.79c1.491,0.298,3.281,0.597,4.773,0.597c2.088,0,3.878-0.298,5.369-0.895
		c1.491-0.597,2.685-1.492,3.58-2.386c0.895-1.193,1.491-2.386,1.79-3.878c0.298-1.491,0.597-3.281,0.597-5.369v-6.861h-0.298
		c-0.597,2.386-2.088,4.176-3.878,5.369c-1.79,1.193-3.878,1.79-6.264,1.79c-1.79,0-3.281-0.298-4.474-0.895
		c-1.193-0.597-2.386-1.193-3.281-2.088c-0.895-0.895-1.79-2.088-2.386-3.281c-0.597-1.193-1.193-2.685-1.491-3.878
		c-0.298-1.491-0.597-2.685-0.895-4.176c-0.298-1.491-0.298-2.983-0.298-4.474c0-1.491,0-2.685,0.298-4.474
		c0.298-1.491,0.298-2.983,0.895-4.474c0.298-1.491,0.895-2.983,1.491-4.176c0.597-1.491,1.491-2.685,2.386-3.58
		c0.895-0.895,2.088-1.79,3.281-2.386c1.193-0.597,2.983-0.895,4.474-0.895c1.193,0,2.088,0.298,3.281,0.597
		c1.193,0.298,2.088,0.895,2.983,1.491s1.491,1.193,2.386,2.088c0.597,0.895,1.193,1.79,1.491,2.983h0.298v-6.264h5.369v37.884
		H343.941z M397.336,509.773c0,2.088-0.298,3.878-1.193,5.369c-0.895,1.491-1.79,2.685-2.983,3.58
		c-1.193,0.895-2.685,1.492-4.474,2.088c-1.79,0.298-3.58,0.597-5.369,0.597c-1.79,0-3.58,0-5.369-0.298s-3.58-0.597-5.071-1.193
		v-5.071c1.491,0.597,3.281,0.895,4.773,1.492c1.491,0.298,3.281,0.597,5.071,0.597c0.895,0,2.088,0,3.281-0.298
		s2.088-0.597,2.983-0.895c0.895-0.597,1.491-1.193,2.088-1.79c0.597-0.895,0.895-1.79,0.895-2.983c0-0.895-0.298-1.79-0.597-2.386
		c-0.597-0.597-0.895-1.193-1.79-1.79c-0.597-0.597-1.491-0.895-2.088-1.491c-0.895-0.298-1.491-0.895-2.386-1.193l-3.58-2.386
		c-1.193-0.597-2.088-1.193-3.281-1.79c-1.193-0.597-2.088-1.193-2.685-2.088c-0.895-0.895-1.491-1.79-1.79-2.685
		c-0.597-0.895-0.597-2.386-0.597-3.878c0-1.79,0.298-3.58,1.193-4.773c0.895-1.193,1.79-2.386,2.983-2.983
		c1.193-0.895,2.685-1.491,4.176-1.79c1.491-0.298,3.281-0.597,4.773-0.597s2.983,0,4.474,0.298
		c1.491,0.298,2.983,0.597,4.474,0.895v5.071c-1.491-0.597-2.983-0.895-4.474-1.193c-1.491-0.298-2.983-0.597-4.474-0.597
		c-0.895,0-1.491,0-2.386,0.298c-0.895,0.298-1.79,0.597-2.386,0.895c-0.895,0.298-1.491,0.895-2.088,1.491
		c-0.597,0.597-0.895,1.491-0.895,2.386s0.298,1.491,0.895,2.088s1.193,1.193,1.79,1.491c0.597,0.597,1.491,0.895,2.386,1.193
		c0.895,0.298,1.491,0.597,2.088,1.193l3.281,1.79c1.193,0.597,2.386,1.491,3.281,2.088c1.193,0.597,2.088,1.491,2.685,2.088
		c0.895,0.895,1.491,1.79,2.088,2.685C397.038,506.79,397.336,508.282,397.336,509.773z M425.077,493.963
		c0-1.193,0-2.088-0.298-2.983c-0.298-0.895-0.597-1.79-1.193-2.386c-0.597-0.597-1.193-1.193-2.088-1.79
		c-0.895-0.298-1.79-0.597-2.983-0.597c-1.79,0-3.281,0.298-4.474,1.193c-1.193,0.895-2.088,1.79-2.685,3.281
		c-0.597,1.193-1.193,2.685-1.491,4.176c-0.298,1.491-0.298,2.983-0.298,4.474c0,2.386,0.298,4.773,0.895,6.861
		s1.491,3.878,2.685,5.369c1.193,1.491,2.685,2.685,4.773,3.58c1.79,0.895,4.176,1.492,6.861,1.492c0.895,0,2.088,0,2.983-0.298
		c0.895,0,2.088-0.298,2.983-0.597v4.474c-1.193,0.298-2.685,0.597-3.878,0.895c-1.193,0.298-2.685,0.298-3.878,0.298
		c-3.281,0-6.264-0.597-8.651-1.492s-4.474-2.386-6.264-4.176c-1.491-1.79-2.983-3.878-3.58-6.562
		c-0.895-2.685-1.193-5.369-1.193-8.651c0-2.685,0.298-5.071,0.895-7.457c0.597-2.386,1.491-4.176,2.685-5.966
		c1.193-1.79,2.685-2.983,4.773-4.176c2.088-0.895,4.474-1.491,7.457-1.491c2.088,0,3.878,0.298,5.369,0.895
		c1.491,0.597,2.983,1.193,4.176,2.386c1.193,0.895,2.088,2.386,2.685,3.878c0.597,1.491,0.895,3.281,0.895,5.369L425.077,493.963
		L425.077,493.963z M440.291,520.213V482.33h5.369v38.182h-5.369V520.213z M439.396,472.486v-7.159h7.159v7.159H439.396z
		 M478.174,493.068c0-0.895-0.298-2.088-0.597-2.983c-0.298-0.895-0.895-1.491-1.491-2.386c-0.597-0.597-1.491-1.193-2.386-1.491
		c-0.895-0.298-1.79-0.597-2.983-0.597s-2.088,0.298-2.983,0.597c-0.895,0.298-1.79,0.895-2.386,1.491s-1.193,1.491-1.79,2.386
		c-0.298,0.895-0.895,1.79-0.895,2.983H478.174z M462.663,497.841v2.386c0,2.088,0.298,4.176,0.895,6.264s1.491,3.878,2.386,5.369
		c1.193,1.491,2.386,2.685,4.176,3.878c1.79,0.895,3.58,1.491,5.966,1.491c1.193,0,2.685,0,3.878-0.298
		c1.193-0.298,2.386-0.298,3.878-0.895v4.474c-1.491,0.298-2.983,0.895-4.176,0.895c-1.491,0.298-2.983,0.298-4.474,0.298
		c-3.281,0-5.966-0.597-8.352-1.491c-2.386-1.193-4.176-2.386-5.668-4.474c-1.491-1.79-2.685-4.176-3.281-6.861
		c-0.597-2.685-1.193-5.369-1.193-8.352c0-2.386,0.298-4.773,0.895-7.159c0.597-2.386,1.193-4.176,2.386-5.966
		c1.193-1.79,2.685-2.983,4.474-4.176c1.79-0.895,4.176-1.491,7.159-1.491c2.088,0,4.176,0.298,5.966,1.193
		c1.79,0.597,2.983,1.79,4.176,2.983c1.193,1.193,1.79,2.685,2.386,4.474c0.597,1.79,0.895,3.58,0.895,5.668v1.79H462.663z
		 M516.058,520.213v-21.179c0-0.597,0-1.491,0-2.386s0-1.79,0-2.685s-0.298-1.79-0.298-2.685c-0.298-0.895-0.597-1.491-0.895-2.386
		c-0.298-0.597-0.895-1.193-1.491-1.491c-0.597-0.298-1.492-0.597-2.685-0.597c-1.193,0-2.386,0.298-3.58,0.895
		c-0.895,0.597-1.79,1.491-2.685,2.386c-0.895,0.895-1.491,2.088-2.088,3.281c-0.597,1.193-1.193,2.685-1.491,3.878
		c-0.298,1.193-0.597,2.685-0.895,3.878s-0.298,2.386-0.298,3.281v15.81h-5.369V482.33h5.369v8.651h0.298
		c0.597-1.491,0.895-2.685,1.79-3.878c0.597-1.193,1.491-2.088,2.386-2.983s2.088-1.491,3.281-2.088
		c1.193-0.597,2.685-0.597,4.474-0.597c1.79,0,2.983,0.298,4.474,0.895c1.193,0.597,2.386,1.491,2.983,2.685
		c0.895,1.193,1.491,2.386,1.79,3.878s0.597,2.983,0.597,4.474v27.145h-5.668V520.213z M553.345,493.963
		c0-1.193,0-2.088-0.298-2.983c-0.298-0.895-0.597-1.79-1.193-2.386c-0.597-0.597-1.193-1.193-2.088-1.79
		c-0.895-0.298-1.79-0.597-2.983-0.597c-1.79,0-3.281,0.298-4.474,1.193s-2.088,1.79-2.685,3.281
		c-0.597,1.193-1.193,2.685-1.492,4.176c-0.298,1.491-0.298,2.983-0.298,4.474c0,2.386,0.298,4.773,0.895,6.861
		c0.597,2.088,1.491,3.878,2.685,5.369c1.193,1.491,2.685,2.685,4.773,3.58c1.79,0.895,4.176,1.492,6.861,1.492
		c0.895,0,2.088,0,2.983-0.298c0.895,0,2.088-0.298,2.983-0.597v4.474c-1.193,0.298-2.685,0.597-3.878,0.895
		c-1.193,0.298-2.685,0.298-3.878,0.298c-3.281,0-6.264-0.597-8.651-1.492c-2.386-0.895-4.474-2.386-6.264-4.176
		c-1.491-1.79-2.983-3.878-3.58-6.562c-0.895-2.685-1.193-5.369-1.193-8.651c0-2.685,0.298-5.071,0.895-7.457
		c0.597-2.386,1.492-4.176,2.685-5.966c1.193-1.79,2.685-2.983,4.773-4.176c2.088-0.895,4.474-1.491,7.457-1.491
		c2.088,0,3.878,0.298,5.369,0.895c1.491,0.597,2.983,1.193,4.176,2.386c1.193,0.895,2.088,2.386,2.685,3.878
		c0.597,1.491,0.895,3.281,0.895,5.369L553.345,493.963L553.345,493.963z M587.351,493.068c0-0.895-0.298-2.088-0.597-2.983
		c-0.298-0.895-0.895-1.491-1.492-2.386c-0.597-0.597-1.491-1.193-2.386-1.491c-0.895-0.298-1.79-0.597-2.983-0.597
		s-2.088,0.298-2.983,0.597c-0.895,0.298-1.79,0.895-2.386,1.491c-0.597,0.597-1.193,1.491-1.79,2.386
		c-0.298,0.895-0.895,1.79-0.895,2.983H587.351z M571.541,497.841v2.386c0,2.088,0.298,4.176,0.895,6.264
		c0.597,2.088,1.491,3.878,2.386,5.369c1.193,1.491,2.386,2.685,4.176,3.878c1.79,0.895,3.58,1.491,5.966,1.491
		c1.193,0,2.685,0,3.878-0.298c1.193-0.298,2.386-0.298,3.878-0.895v4.474c-1.492,0.298-2.983,0.895-4.176,0.895
		c-1.492,0.298-2.983,0.298-4.474,0.298c-3.281,0-5.966-0.597-8.352-1.491c-2.386-1.193-4.176-2.386-5.668-4.474
		c-1.491-1.79-2.685-4.176-3.281-6.861c-0.597-2.685-1.193-5.369-1.193-8.352c0-2.386,0.298-4.773,0.895-7.159
		c0.597-2.386,1.193-4.176,2.386-5.966s2.685-2.983,4.474-4.176c1.79-0.895,4.176-1.491,7.159-1.491
		c2.088,0,4.176,0.298,5.966,1.193c1.79,0.597,2.983,1.79,4.176,2.983s1.79,2.685,2.386,4.474c0.597,1.79,0.895,3.58,0.895,5.668
		v1.79H571.541z M606.74,530.057h-5.369l0.895-17.898h7.159L606.74,530.057z M644.922,486.804v23.565
		c0,2.088,0.597,3.58,1.491,4.773s2.685,1.79,4.773,1.79c0.895,0,1.492,0,1.79-0.298c0.597,0,1.193-0.298,1.79-0.597v4.773
		c-0.895,0-1.491,0.298-2.386,0.298s-1.492,0-2.386,0c-1.79,0-3.281-0.298-4.773-0.597c-1.193-0.298-2.386-0.895-3.281-1.79
		c-0.895-0.895-1.491-1.79-2.088-2.983c-0.298-1.193-0.597-2.685-0.597-4.773v-24.162h-6.264v-4.474h6.264v-8.949l5.369-3.58v12.23
		h10.142v4.773H644.922z M681.612,487.103c-2.386,0-4.474,0.597-6.264,1.491c-1.491,0.895-2.983,2.386-3.878,3.878
		c-0.895,1.79-1.79,3.58-2.088,5.668s-0.597,4.176-0.597,6.264v15.81h-5.369V482.33h5.369v7.457h0.298
		c2.386-5.369,6.562-8.352,12.827-8.352v5.668H681.612z M703.985,503.211c-1.193,0-2.685,0-3.878,0.298
		c-1.491,0.298-2.685,0.597-4.176,1.491c-1.193,0.597-2.386,1.491-3.281,2.386s-1.193,2.386-1.193,3.878s0.597,2.983,1.492,3.878
		s2.386,1.492,3.878,1.492c0.895,0,1.79,0,2.685-0.597c0.895-0.298,1.79-0.597,2.386-1.193c0.895-0.597,1.492-1.193,2.088-1.79
		c0.597-0.597,1.193-1.491,1.492-2.386c0.298-0.597,0.597-1.491,0.895-1.79c0.298-0.597,0.298-1.193,0.298-1.79
		s0.298-1.193,0.298-1.79s0-1.193,0-2.088L703.985,503.211L703.985,503.211z M707.266,520.213v-5.071h-0.298
		c-0.597,0.895-1.193,1.79-2.088,2.685c-0.895,0.597-1.79,1.491-2.983,1.79c-1.193,0.597-2.088,0.895-3.281,1.193
		c-1.193,0.298-2.386,0.298-3.281,0.298c-1.492,0-2.983-0.298-4.474-0.895c-1.193-0.597-2.386-1.193-3.281-2.088
		c-0.895-0.895-1.492-2.088-2.088-3.281c-0.597-1.193-0.597-2.685-0.597-4.474c0-1.491,0.298-2.685,0.895-3.878
		c0.597-1.193,1.491-2.088,2.386-2.983s2.088-1.491,3.281-2.386c1.193-0.597,2.685-1.193,3.878-1.491
		c1.492-0.298,2.685-0.597,4.176-0.895c1.491-0.298,2.685-0.298,3.878-0.298c0.597,0,1.193,0,1.79,0c0.597,0,1.193,0,1.79-0.298
		v-0.895c0-1.491,0-2.685,0-4.176s-0.298-2.685-0.597-3.878c-0.298-1.193-1.193-2.088-2.088-2.685
		c-0.895-0.597-2.386-0.895-4.176-0.895c-1.193,0-2.088,0-2.983,0.298c-0.895,0.298-1.79,0.597-2.386,0.895
		c-0.597,0.597-1.193,1.193-1.492,1.79c-0.298,0.895-0.597,1.79-0.895,2.983h-5.966c0-1.79,0.298-3.58,1.193-4.773
		c0.895-1.491,1.79-2.386,2.983-3.281s2.685-1.491,4.474-1.79c1.492-0.298,3.281-0.597,5.071-0.597c4.176,0,7.457,0.895,9.545,2.983
		s3.281,5.071,3.281,9.247v26.847L707.266,520.213L707.266,520.213z M746.939,520.213v-21.179c0-0.597,0-1.491,0-2.386
		s0-1.79,0-2.685s-0.298-1.79-0.298-2.685c-0.298-0.895-0.597-1.491-0.895-2.386c-0.298-0.597-0.895-1.193-1.492-1.491
		c-0.597-0.298-1.491-0.597-2.685-0.597s-2.386,0.298-3.58,0.895c-0.895,0.597-1.79,1.491-2.685,2.386s-1.491,2.088-2.088,3.281
		c-0.597,1.193-1.193,2.685-1.491,3.878c-0.298,1.193-0.597,2.685-0.895,3.878s-0.298,2.386-0.298,3.281v15.81h-5.369V482.33h5.369
		v8.651h0.298c0.597-1.491,0.895-2.685,1.79-3.878c0.597-1.193,1.491-2.088,2.386-2.983c0.895-0.895,2.088-1.491,3.281-2.088
		c1.193-0.597,2.685-0.597,4.474-0.597s2.983,0.298,4.474,0.895c1.193,0.597,2.386,1.491,2.983,2.685
		c0.895,1.193,1.492,2.386,1.79,3.878c0.298,1.491,0.597,2.983,0.597,4.474v27.145h-5.668V520.213z M786.016,509.773
		c0,2.088-0.298,3.878-1.193,5.369c-0.895,1.491-1.79,2.685-2.983,3.58c-1.193,0.895-2.685,1.492-4.474,2.088
		c-1.79,0.298-3.58,0.597-5.369,0.597s-3.58,0-5.369-0.298s-3.58-0.597-5.071-1.193v-5.071c1.491,0.597,3.281,0.895,4.773,1.492
		c1.491,0.298,3.281,0.597,5.071,0.597c0.895,0,2.088,0,3.281-0.298c1.193-0.298,2.088-0.597,2.983-0.895
		c0.895-0.597,1.491-1.193,2.088-1.79c0.597-0.895,0.895-1.79,0.895-2.983c0-0.895-0.298-1.79-0.597-2.386
		c-0.597-0.597-0.895-1.193-1.79-1.79c-0.597-0.597-1.491-0.895-2.088-1.491c-0.895-0.298-1.491-0.895-2.386-1.193l-3.58-1.79
		c-1.193-0.597-2.088-1.193-3.281-1.79c-1.193-0.597-2.088-1.193-2.685-2.088c-0.895-0.895-1.492-1.79-1.79-2.685
		c-0.597-0.895-0.597-2.386-0.597-3.878c0-1.79,0.298-3.58,1.193-4.773c0.895-1.193,1.79-2.386,2.983-2.983
		c1.193-0.895,2.685-1.491,4.176-1.79c1.491-0.298,3.281-0.597,4.773-0.597c1.491,0,2.983,0,4.474,0.298
		c1.492,0.298,2.983,0.597,4.474,0.895v5.071c-1.491-0.597-2.983-0.895-4.474-1.193c-1.491-0.298-2.983-0.597-4.474-0.597
		c-0.895,0-1.492,0-2.386,0.298c-0.895,0.298-1.79,0.597-2.386,0.895c-0.895,0.298-1.492,0.895-2.088,1.491
		s-0.895,1.491-0.895,2.386s0.298,1.491,0.895,2.088c0.597,0.597,1.193,1.193,1.79,1.491c0.597,0.597,1.491,0.895,2.386,1.193
		c0.895,0.298,1.492,0.597,2.088,1.193l3.281,1.79c1.193,0.597,2.386,1.491,3.281,2.088c1.193,0.597,2.088,1.491,2.685,2.088
		c0.895,0.895,1.491,1.79,2.088,2.685C785.718,506.79,786.016,508.282,786.016,509.773z M815.547,470.696
		c-0.895-0.298-1.79-0.597-2.685-0.895c-0.895-0.298-1.79-0.298-2.685-0.298c-2.088,0-3.878,0.298-4.773,1.193
		c-1.193,0.597-1.79,1.79-2.386,2.983c-0.597,1.193-0.597,2.685-0.597,4.176s0,2.983,0,4.773h11.037v4.176h-11.037v33.409h-5.369
		v-33.409h-6.264v-4.474h6.264v-5.369c0-3.878,1.193-6.861,3.281-8.949c2.088-2.088,5.369-2.983,9.247-2.983
		c2.088,0,4.176,0.298,6.563,0.597v5.071H815.547z M841.499,501.421c0-0.895,0-2.088-0.298-3.281c0-1.193-0.298-2.386-0.597-3.58
		c-0.298-1.193-0.597-2.088-1.193-3.281c-0.298-0.895-0.895-2.088-1.79-2.685c-0.597-0.895-1.492-1.491-2.386-1.79
		c-0.895-0.597-2.088-0.597-3.281-0.597s-2.386,0.298-3.58,0.597c-0.895,0.597-1.79,1.193-2.386,1.79
		c-0.597,0.895-1.193,1.79-1.79,2.685c-0.298,1.193-0.895,2.088-0.895,3.281c-0.298,1.193-0.298,2.386-0.597,3.58
		c0,1.193,0,2.386,0,3.281c0,0.895,0,2.088,0,3.281c0,1.193,0.298,2.386,0.597,3.281c0.298,1.193,0.597,2.088,0.895,3.281
		c0.298,1.193,0.895,2.088,1.79,2.685c0.597,0.895,1.491,1.491,2.386,1.79c0.895,0.597,2.088,0.597,3.58,0.597
		c1.193,0,2.386-0.298,3.58-0.597c0.895-0.597,1.79-1.193,2.386-1.79c0.597-0.895,1.193-1.79,1.79-2.685
		c0.298-0.895,0.895-2.088,1.193-3.281c0.298-1.193,0.298-2.386,0.597-3.58C841.499,503.509,841.499,502.316,841.499,501.421z
		 M847.763,501.421c0,2.685-0.298,5.071-0.895,7.457c-0.597,2.386-1.492,4.474-2.685,6.264c-1.193,1.79-2.685,3.281-4.773,4.474
		s-4.474,1.492-7.457,1.492s-5.369-0.597-7.457-1.79s-3.58-2.685-4.773-4.474c-1.193-1.79-2.088-3.878-2.685-6.264
		s-0.895-4.773-0.895-7.457s0.298-5.071,0.895-7.457s1.491-4.474,2.685-6.264c1.193-1.79,2.685-3.281,4.773-4.474
		s4.474-1.79,7.457-1.79s5.369,0.597,7.457,1.79c2.088,1.193,3.58,2.685,4.773,4.474c1.193,1.79,2.088,3.878,2.685,6.264
		C847.465,496.35,847.763,498.736,847.763,501.421z M876.102,487.103c-2.386,0-4.474,0.597-6.264,1.491
		c-1.492,0.895-2.983,2.386-3.878,3.878c-0.895,1.79-1.79,3.58-2.088,5.668s-0.597,4.176-0.597,6.264v15.81h-5.369V482.33h5.369
		v7.457h0.298c2.386-5.369,6.563-8.352,12.827-8.352v5.668H876.102z M923.829,520.213v-21.179c0-0.597,0-1.491,0-2.386
		s0-1.79,0-2.685s-0.298-1.79-0.298-2.685c-0.298-0.895-0.597-1.491-0.895-2.386c-0.298-0.597-0.895-1.193-1.491-1.491
		c-0.597-0.298-1.492-0.597-2.685-0.597c-1.193,0-2.088,0.298-3.281,0.895c-0.895,0.597-1.79,1.491-2.386,2.386
		c-0.597,0.895-1.193,2.088-1.79,3.58c-0.597,1.193-0.895,2.685-1.193,3.878c-0.298,1.193-0.597,2.685-0.597,3.878
		c0,1.193-0.298,2.386-0.298,3.281v15.81h-5.369v-21.179c0-0.597,0-1.491,0-2.386s0-1.79,0-2.685s-0.298-1.79-0.298-2.685
		c-0.298-0.895-0.597-1.491-0.895-2.386c-0.298-0.597-0.895-1.193-1.491-1.491c-0.597-0.298-1.492-0.597-2.685-0.597
		c-1.193,0-2.088,0.298-2.983,0.895c-0.895,0.597-1.79,1.491-2.386,2.386c-0.597,0.895-1.193,2.088-1.79,3.58
		c-0.597,1.193-0.895,2.685-1.193,3.878c-0.298,1.193-0.597,2.685-0.597,3.878c0,1.193-0.298,2.386-0.298,3.281v15.81h-5.369v-38.48
		h5.369v8.651l0,0c0.298-1.491,0.895-2.685,1.492-3.878c0.597-1.193,1.193-2.088,2.088-2.983s1.79-1.491,2.983-2.088
		s2.386-0.597,4.176-0.597c2.983,0,5.071,0.597,6.861,2.088c1.79,1.491,2.685,3.58,2.685,6.562h0.298
		c0.298-1.193,0.895-2.386,1.491-3.281c0.597-1.193,1.492-2.088,2.386-2.685c0.895-0.895,2.088-1.491,2.983-1.79
		c1.193-0.597,2.386-0.597,3.58-0.597c1.79,0,2.983,0.298,4.474,0.895c1.193,0.597,2.386,1.491,2.983,2.685
		c0.895,1.193,1.492,2.386,1.79,3.878c0.298,1.491,0.597,2.983,0.597,4.474v27.145h-5.966V520.213z M942.323,520.213V482.33h5.369
		v38.182h-5.369V520.213z M941.428,472.486v-7.159h7.159v7.159H941.428z M982.593,520.213v-21.179c0-0.597,0-1.491,0-2.386
		s0-1.79,0-2.685s-0.298-1.79-0.298-2.685c-0.298-0.895-0.597-1.491-0.895-2.386c-0.298-0.597-0.895-1.193-1.492-1.491
		c-0.597-0.298-1.491-0.597-2.685-0.597s-2.386,0.298-3.58,0.895c-0.895,0.597-1.79,1.491-2.685,2.386
		c-0.895,0.895-1.492,2.088-2.088,3.281c-0.597,1.193-1.193,2.685-1.491,3.878c-0.298,1.193-0.597,2.685-0.895,3.878
		c-0.298,1.193-0.298,2.386-0.298,3.281v15.81h-5.369V482.33h5.369v8.651h0.298c0.597-1.491,0.895-2.685,1.79-3.878
		c0.597-1.193,1.492-2.088,2.386-2.983s2.088-1.491,3.281-2.088c1.193-0.597,2.685-0.597,4.474-0.597s2.983,0.298,4.474,0.895
		c1.193,0.597,2.386,1.491,2.983,2.685c0.895,1.193,1.491,2.386,1.79,3.878s0.597,2.983,0.597,4.474v27.145h-5.668V520.213z
		 M1021.074,500.526c0-1.193,0-2.685-0.597-4.474c-0.298-1.79-0.895-3.281-1.491-4.773s-1.492-2.685-2.685-3.878
		c-1.193-0.895-2.685-1.491-4.176-1.491c-1.193,0-2.088,0.298-2.983,0.895c-0.895,0.597-1.492,1.193-2.088,2.088
		c-0.597,0.895-1.193,1.79-1.491,2.983c-0.298,1.193-0.597,2.386-0.895,3.281c-0.298,1.193-0.298,2.386-0.298,3.281
		c0,1.193,0,2.088,0,2.983s0,1.79,0,2.685s0.298,2.088,0.298,2.983c0.298,0.895,0.597,2.088,0.895,2.983
		c0.298,0.895,0.895,1.79,1.491,2.685c0.597,0.895,1.193,1.492,2.088,1.79c0.895,0.597,1.79,0.597,2.983,0.597
		s2.088-0.298,2.983-0.895c0.895-0.597,1.79-1.193,2.386-2.088c0.597-0.895,1.193-1.79,1.79-2.685
		c0.597-1.193,0.895-2.088,1.193-3.281c0.298-1.193,0.597-2.386,0.597-3.281C1021.074,502.614,1021.074,501.421,1021.074,500.526z
		 M1026.443,520.512c0,5.369-1.193,9.545-3.878,12.23c-2.685,2.685-6.563,4.176-12.23,4.176c-1.79,0-3.58,0-5.369-0.298
		c-1.491-0.298-3.281-0.597-5.071-0.895v-5.369c1.491,0.597,2.983,1.193,4.773,1.79c1.492,0.298,3.281,0.597,4.773,0.597
		c2.088,0,3.878-0.298,5.369-0.895c1.491-0.597,2.685-1.492,3.58-2.386c0.895-1.193,1.491-2.386,1.79-3.878
		c0.298-1.491,0.597-3.281,0.597-5.369v-6.861h-0.298c-0.597,2.386-2.088,4.176-3.878,5.369c-1.79,1.193-3.878,1.79-6.264,1.79
		c-1.79,0-3.281-0.298-4.474-0.895c-1.193-0.597-2.386-1.193-3.281-2.088c-0.895-0.895-1.79-2.088-2.386-3.281
		c-0.597-1.193-1.193-2.685-1.492-3.878c-0.298-1.491-0.597-2.685-0.895-4.176c-0.298-1.491-0.298-2.983-0.298-4.474
		c0-1.491,0-2.685,0.298-4.474c0.298-1.491,0.298-2.983,0.895-4.474c0.298-1.491,0.895-2.983,1.492-4.176
		c0.597-1.491,1.491-2.685,2.386-3.58c0.895-0.895,2.088-1.79,3.281-2.386s2.983-0.895,4.474-0.895c1.193,0,2.088,0.298,3.281,0.597
		c1.193,0.298,2.088,0.895,2.983,1.491c0.895,0.597,1.491,1.193,2.386,2.088c0.597,0.895,1.193,1.79,1.492,2.983h0.298v-6.264h5.369
		v37.884H1026.443z M1059.852,520.213v-54.887h5.369v55.185h-5.369V520.213z M1079.241,520.213V482.33h5.369v38.182h-5.369V520.213z
		 M1078.346,472.486v-7.159h7.159v7.159H1078.346z M1112.054,520.213h-5.369l-14.318-38.182h5.966l11.335,30.128h0.298l9.844-30.128
		h5.966L1112.054,520.213z M1151.429,493.068c0-0.895-0.298-2.088-0.597-2.983c-0.298-0.895-0.895-1.491-1.492-2.386
		c-0.597-0.597-1.491-1.193-2.386-1.491c-0.895-0.298-1.79-0.597-2.983-0.597s-2.088,0.298-2.983,0.597
		c-0.895,0.298-1.79,0.895-2.386,1.491c-0.597,0.597-1.193,1.491-1.79,2.386c-0.298,0.895-0.895,1.79-0.895,2.983H1151.429z
		 M1135.619,497.841v2.386c0,2.088,0.298,4.176,0.895,6.264c0.597,2.088,1.491,3.878,2.386,5.369
		c1.193,1.491,2.386,2.685,4.176,3.878c1.79,0.895,3.58,1.491,5.966,1.491c1.193,0,2.685,0,3.878-0.298
		c1.193-0.298,2.386-0.298,3.878-0.895v4.474c-1.492,0.298-2.983,0.895-4.176,0.895c-1.491,0.298-2.983,0.298-4.474,0.298
		c-3.281,0-5.966-0.597-8.352-1.491c-2.386-1.193-4.176-2.386-5.668-4.474c-1.491-1.79-2.685-4.176-3.281-6.861
		c-0.597-2.685-1.193-5.369-1.193-8.352c0-2.386,0.298-4.773,0.895-7.159c0.597-2.386,1.193-4.176,2.386-5.966
		c1.193-1.79,2.685-2.983,4.474-4.176c1.79-0.895,4.176-1.491,7.159-1.491c2.088,0,4.176,0.298,5.966,1.193
		c1.79,0.597,2.983,1.79,4.176,2.983c1.193,1.193,1.79,2.685,2.386,4.474c0.597,1.79,0.895,3.58,0.895,5.668v1.79H1135.619z
		 M1188.418,509.773c0,2.088-0.298,3.878-1.193,5.369c-0.895,1.491-1.79,2.685-2.983,3.58c-1.193,0.895-2.685,1.492-4.474,2.088
		c-1.79,0.298-3.58,0.597-5.369,0.597c-1.79,0-3.58,0-5.369-0.298s-3.58-0.597-5.071-1.193v-5.071
		c1.491,0.597,3.281,0.895,4.773,1.492c1.491,0.298,3.281,0.597,5.071,0.597c0.895,0,2.088,0,3.281-0.298
		c1.193-0.298,2.088-0.597,2.983-0.895c0.895-0.597,1.491-1.193,2.088-1.79c0.597-0.895,0.895-1.79,0.895-2.983
		c0-0.895-0.298-1.79-0.597-2.386c-0.597-0.597-0.895-1.193-1.79-1.79c-0.597-0.597-1.491-0.895-2.088-1.491
		c-0.895-0.298-1.492-0.895-2.386-1.193l-3.58-1.79c-1.193-0.597-2.088-1.193-3.281-1.79c-1.193-0.597-2.088-1.193-2.685-2.088
		c-0.895-0.895-1.491-1.79-1.79-2.685c-0.597-0.895-0.597-2.386-0.597-3.878c0-1.79,0.298-3.58,1.193-4.773
		c0.895-1.193,1.79-2.386,2.983-2.983c1.193-0.895,2.685-1.491,4.176-1.79c1.491-0.298,3.281-0.597,4.773-0.597
		c1.492,0,2.983,0,4.474,0.298c1.491,0.298,2.983,0.597,4.474,0.895v5.071c-1.491-0.597-2.983-0.895-4.474-1.193
		c-1.491-0.298-2.983-0.597-4.474-0.597c-0.895,0-1.491,0-2.386,0.298c-0.895,0.298-1.79,0.597-2.386,0.895
		c-0.895,0.298-1.491,0.895-2.088,1.491s-0.895,1.491-0.895,2.386s0.298,1.491,0.895,2.088c0.597,0.597,1.193,1.193,1.79,1.491
		c0.597,0.597,1.491,0.895,2.386,1.193c0.895,0.298,1.491,0.597,2.088,1.193l3.281,1.79c1.193,0.597,2.386,1.491,3.281,2.088
		c1.193,0.597,2.088,1.491,2.685,2.088c0.895,0.895,1.491,1.79,2.088,2.685C1188.12,506.79,1188.418,508.282,1188.418,509.773z
		 M252.066,414.318V283.366h-0.298l-43.85,130.952h-16.705l-43.85-130.952h-0.298v130.952h-15.213v-148.85h25.355l42.358,126.776
		h0.298l42.358-126.776h25.057v148.85H252.066z"/>
</g>
</svg>
