<?xml version="1.0" encoding="utf-8"?>
<!-- Generator: Adobe Illustrator 17.0.2, SVG Export Plug-In . SVG Version: 6.00 Build 0)  -->
<!DOCTYPE svg PUBLIC "-//W3C//DTD SVG 1.1//EN" "http://www.w3.org/Graphics/SVG/1.1/DTD/svg11.dtd">
<svg version="1.1" id="Layer_1" xmlns="http://www.w3.org/2000/svg" xmlns:xlink="http://www.w3.org/1999/xlink" x="0px" y="0px"
	 width="1280px" height="800px" viewBox="0 0 1280 800" enable-background="new 0 0 1280 800" xml:space="preserve">
<g>
	<path fill="#787878" d="M373.686,464.952c0,1.498,0,2.569,0,3.639c-1.713,0.428-63.791,0.642-66.788,0.214c0-1.07,0-2.355,0-3.853
		c0.856,0,1.713,0,2.569,0c4.067-0.214,8.134-0.214,11.988-0.642c1.927-0.214,4.067-0.856,5.78-1.712
		c2.569-1.07,4.067-3.425,4.709-5.994c0.428-1.927,0.856-3.853,0.856-5.78c0-14.556,0-29.113,0-43.883c0-0.428,0-0.856,0-1.07
		c-1.713-0.428-89.051-0.642-92.476-0.214c0,0.642,0,1.284,0,1.927c0,12.844,0,25.474,0,38.104c0,2.569,0.214,5.138,0.428,7.706
		c0.856,6.422,4.281,9.847,10.489,10.917c2.141,0.428,4.281,0.428,6.422,0.642c0.642,0,1.284,0,2.141,0c0,1.284,0,2.569,0,3.639
		c-1.713,0.428-56.299,0.642-59.082,0c0-1.07,0-2.355,0-3.639c1.927,0,4.067,0,5.994-0.214s3.853-0.428,5.566-0.856
		c4.709-1.284,7.278-4.281,7.92-9.205c0.214-1.712,0.428-3.639,0.428-5.352c0-31.682,0-63.363,0-95.259
		c0-2.569-0.214-5.138-1.284-7.492c-1.07-2.569-2.997-4.281-5.566-5.138c-2.569-0.642-5.138-1.07-7.492-1.712
		c-0.856-0.214-1.498-0.214-2.355-0.214c0-1.284,0-2.569,0-3.853c18.624,0,37.033,0,55.871,0c0,1.284,0,2.569,0,3.853
		c-1.713,0-3.639,0-5.352,0.214c-1.713,0.214-3.639,0.428-5.352,0.856c-4.281,1.07-6.636,4.067-7.706,8.134
		c-0.856,3.425-0.856,6.85-0.856,10.275c0,12.202,0,24.403,0,36.605c0,0.428,0,0.856,0,1.07c1.713,0.428,89.907,0.642,92.476,0
		c0-0.642,0-1.499,0-2.141c0-13.7,0-27.186,0-40.886c0-1.712-0.214-3.425-0.642-4.923c-1.07-5.352-4.709-7.92-9.847-8.777
		c-3.211-0.428-6.422-0.428-9.847-0.642c-0.856,0-1.713,0-2.783,0c0-1.499,0-2.569,0-3.853c20.122,0,40.244,0,60.58,0
		c0,1.284,0,2.569,0,3.639c-2.141,0.214-4.281,0.428-6.422,0.856c-1.498,0.214-2.783,0.642-4.281,1.07
		c-2.997,1.07-4.924,3.211-5.994,6.208c-1.07,3.425-1.284,6.636-1.284,10.061c0,29.541,0,58.868,0,88.409
		c0,3.211,0.214,6.422,0.856,9.419c1.07,4.709,4.067,7.706,8.563,8.563c2.569,0.642,5.352,0.642,8.134,0.856
		C371.117,464.952,372.187,464.952,373.686,464.952z"/>
	<path fill="#787878" d="M427.63,411.008c0,0.856,0,1.712,0,2.355c0,11.988,0,24.189,0,36.391c0,2.355,0.428,4.495,0.856,6.85
		c1.498,4.923,5.352,7.278,10.275,7.706c3.425,0.428,6.85,0.428,10.275,0.642c1.713,0,3.425,0,5.138,0c0,1.284,0,2.569,0,3.639
		c-1.498,0.428-60.152,0.856-65.29,0.214c0-1.284,0-2.569,0-3.853c2.569,0,5.138,0,7.706-0.214c1.284,0,2.783-0.214,4.067-0.642
		c4.923-1.284,6.422-3.853,7.064-8.563c0.214-1.498,0.214-2.783,0.214-4.281c0-32.966,0-65.932,0-98.898
		c0-1.712-0.214-3.639-0.428-5.352c-0.642-4.495-3.425-6.636-7.492-7.064c-1.07-0.214-2.355-0.214-3.425-0.214
		c-3.853,0-7.706,0-11.56,0c0-1.498,0-2.783,0-4.281c2.569,0,4.923-0.214,7.278-0.214c4.709-0.214,9.419-0.428,14.128-0.856
		c1.713,0,3.425,0,5.138-0.214c5.78-0.214,11.345-0.428,17.125-0.428c6.208,0,12.63-0.428,18.838-0.214
		c9.419,0.214,18.838,1.07,28.043,4.067c6.636,1.927,12.844,4.923,18.196,9.419c6.636,5.994,10.275,13.058,10.917,22.049
		c0.428,6.422-0.428,12.416-3.211,18.196c-3.425,7.706-9.419,13.058-16.483,17.125c-2.569,1.499-5.138,2.569-7.92,3.853
		c1.927,2.569,3.639,5.138,5.566,7.706c7.492,10.275,14.985,20.764,22.691,30.825c3.639,4.923,7.92,9.419,11.988,13.914
		c3.211,3.425,7.278,5.352,11.774,6.636c0.642,0.214,1.284,0.428,2.141,0.642c0,1.07,0,2.355,0,3.425
		c-0.214,0-0.642,0.214-0.856,0.214c-8.134,0.428-15.841-0.642-23.333-4.281c-4.709-2.141-8.777-5.138-12.63-8.563
		c-8.349-7.492-14.771-16.269-21.192-25.26c-3.639-5.138-7.064-10.275-10.917-15.413c-1.284-1.712-2.783-3.211-4.067-4.923
		c-0.856-1.07-1.713-1.07-2.783-1.07c-2.569,0.214-5.138,0.428-7.706,0.428c-6.422,0-12.844-0.214-19.052-1.498
		C428.486,411.008,428.272,411.222,427.63,411.008z M427.844,406.727c12.202,2.783,23.975,2.355,34.893-3.211
		c8.991-4.281,15.199-11.345,18.196-20.978c1.927-6.208,2.355-12.416,1.284-18.838c-0.642-4.281-1.927-8.134-4.067-11.774
		c-3.853-6.422-9.847-10.061-16.911-11.988c-6.85-1.927-13.7-2.141-20.764-2.355c-2.141,0-4.281,0-6.422,0.214
		c-2.141,0.214-4.281,0.428-6.422,0.642C427.844,361.345,427.844,383.822,427.844,406.727z"/>
	<path fill="#787878" d="M962.793,339.724c0-1.498,0-2.569,0-3.639c1.713-0.428,110.458-0.642,113.455,0
		c0.642,9.633,1.284,19.48,1.927,29.113c-1.284,0.642-2.569,0.214-4.281,0.214c-0.214-1.284-0.642-2.569-0.856-3.639
		c-0.856-3.639-1.713-7.278-3.639-10.703c-2.569-4.923-6.636-7.492-12.202-7.492c-16.055,0-32.11,0-48.165,0
		c-0.856,0-1.498,0-2.355,0c0,17.553,0,34.893,0,52.446c0.856,0,1.712,0,2.355,0c13.272,0,26.544,0,40.03,0
		c0.856,0,1.927,0,2.997-0.214c4.067-0.642,7.064-2.569,8.563-6.422c0.856-2.355,1.284-4.709,1.927-7.064
		c0.214-0.856,0.214-1.712,0.428-2.569c1.498,0,2.783,0,4.281,0c0,13.7,0,27.186,0,40.886c-0.642,0-1.284,0-1.927,0.214
		c-0.642,0-1.284,0-2.355,0c-0.428-1.712-0.642-3.425-1.07-5.138c-0.642-1.927-1.284-4.067-1.927-5.994
		c-1.284-3.211-3.853-4.923-7.278-5.566c-1.498-0.214-3.211-0.428-4.709-0.428c-13.058,0-26.116,0-39.174,0c-0.428,0-1.07,0-1.712,0
		c0,0.856-0.214,1.284-0.214,1.927c0,14.77,0,29.755,0,44.526c0,1.498,0.214,2.783,0.642,4.281c0.856,3.853,3.639,5.994,8.134,6.422
		c1.284,0,2.569,0.214,3.639,0.214c12.63,0,25.26,0,37.89,0c4.281,0,8.563-0.428,12.416-2.355c2.783-1.284,5.138-3.425,6.85-5.994
		c2.355-3.425,4.067-7.064,5.352-11.131c0.642-1.498,1.07-3.211,1.713-4.709c1.284,0,2.569,0,4.281,0
		c-1.284,10.703-2.569,21.192-3.639,31.682c-41.957,0-83.485,0-125.442,0c0-1.284,0-2.569,0-3.853c0.856,0,1.712,0,2.355,0
		c4.281-0.214,8.563-0.214,12.844-0.428c1.712,0,3.639-0.642,5.352-1.07c4.709-1.499,7.064-4.709,7.706-9.419
		c0.428-2.355,0.428-4.923,0.428-7.278c0-29.755,0-59.296,0-89.051c0-2.141-0.214-4.281-0.428-6.636
		c-0.856-6.636-4.281-9.847-10.703-10.703c-2.569-0.428-5.138-0.428-7.706-0.428C966.218,339.724,964.506,339.724,962.793,339.724z"
		/>
	<path fill="#787878" d="M181.455,339.51c0.642,10.489,1.498,20.55,2.141,31.039c-1.713,0-2.997,0-4.281,0
		c-1.498-2.783-2.783-5.566-4.495-8.349c-6.208-9.847-15.199-16.483-26.116-20.55c-6.636-2.569-13.486-3.639-20.55-3.853
		c-10.703-0.428-21.192,0.856-31.039,5.138c-17.981,7.706-29.113,21.192-34.036,40.244c-1.713,7.064-2.141,14.128-1.713,21.406
		c1.07,15.199,6.422,28.685,16.483,40.03c10.489,11.774,23.547,19.052,39.174,21.621c4.924,0.856,9.847,1.07,14.771,0.856
		c14.342-0.642,27.186-4.709,38.532-13.914c5.566-4.495,10.275-9.847,14.128-16.055c0.856-1.499,1.713-2.141,3.425-1.927
		c0.642,0,1.284,0,2.355,0c-3.639,11.345-8.777,21.621-14.985,31.254c-2.141,0-4.281,0-6.208,0c-5.994,0-11.56,1.499-17.339,2.569
		c-7.278,1.498-14.556,2.783-22.049,2.997c-4.067,0-8.134,0.428-12.202,0.214c-18.624-0.856-35.963-5.352-51.162-16.269
		c-14.556-10.489-23.547-24.403-26.33-42.385c-2.141-14.128,0-27.614,6.422-40.244c5.138-10.703,13.058-19.052,22.905-25.688
		c10.061-6.85,21.192-11.131,33.18-13.486c5.994-1.07,11.774-1.712,17.981-1.927c12.63-0.428,25.046,0.856,37.461,4.281
		c3.853,1.07,7.706,2.355,11.56,3.425c1.927,0.428,3.853,0.642,5.78,0.856c0.856,0,1.927-0.214,2.569-0.642
		C178.458,339.082,179.743,339.296,181.455,339.51z"/>
	<path fill="#787878" d="M729.89,332.018c1.713,0,2.997,0,4.281,0c1.07,2.569,3.425,2.997,5.78,3.211
		c3.853,0,7.92,0.214,11.774,0.214c33.608,0,67.216,0,100.825,0c1.927,0,3.853-0.214,5.994-0.428c1.284,0,2.569-0.428,3.425-1.713
		c0.856-1.498,2.141-1.712,3.425-1.498c0.428,0,1.07,0,1.927,0c1.284,11.56,2.569,23.119,3.853,34.679c-1.498,0-2.783,0-4.281,0
		c-0.428-2.141-0.856-4.281-1.498-6.636c-0.856-3.425-1.927-6.85-3.639-10.061c-2.569-4.709-6.208-6.85-11.56-6.85
		c-10.917,0-21.835,0-32.538,0c-2.141,0-4.281,0-6.636,0c-0.856,0-1.498,0-2.355,0c0,0.856,0,1.499,0,2.141
		c0,34.465,0,68.929,0,103.393c0,2.355,0.214,4.495,0.856,6.85c0.856,4.495,4.067,7.278,8.563,8.349
		c2.783,0.642,5.78,0.856,8.563,0.856c3.211,0.214,6.208,0,9.419,0c0,1.498,0,2.569,0,3.853c-24.617,0-49.449,0-74.067,0
		c0-1.284,0-2.569,0-3.853c0.642,0,1.284,0,1.927-0.214c3.639,0,7.492,0,11.131-0.214c2.355-0.214,4.709-0.642,6.85-1.498
		c4.495-1.498,6.422-5.352,7.064-9.847c0.214-1.07,0.214-2.355,0.214-3.425c0-34.679,0-69.357,0-104.036c0-0.856,0-1.712,0-2.569
		c-0.856,0-1.713,0-2.569,0c-13.058,0-26.116,0-38.96,0c-5.566,0-9.419,2.569-11.988,7.492c-2.355,4.709-3.425,9.633-4.495,14.771
		c0,0.428-0.214,0.856-0.214,1.498c-1.284,0-2.569,0-4.281,0c0.214-5.78,1.07-11.56,1.712-17.339
		C728.606,343.791,729.248,338.012,729.89,332.018z"/>
	<path fill="#787878" d="M706.129,335.657c0.642,4.495,1.284,8.777,1.927,13.272c0.642,4.281,1.284,8.777,1.927,13.486
		c-1.284,0-2.569,0-4.067,0c-0.214-0.428-0.642-1.284-1.07-1.927c-6.422-12.202-16.269-19.694-29.755-22.263
		c-7.278-1.498-14.556-0.856-21.407,2.141c-6.85,2.997-11.345,7.92-12.202,15.413c-0.642,4.923,0.856,9.419,3.853,13.272
		c2.355,3.425,5.352,5.994,8.563,8.563c6.636,5.138,13.914,9.205,21.193,13.272c7.706,4.495,15.627,8.777,22.905,14.128
		c5.566,4.067,10.489,8.563,14.342,14.342c8.134,12.202,5.994,28.043-3.639,38.318c-7.064,7.492-15.841,11.56-25.688,13.7
		c-5.352,1.07-11.131,1.712-16.483,1.284c-5.138-0.428-10.061-1.284-14.985-2.355c-4.495-0.856-8.991-2.141-13.486-3.211
		c-1.713-0.428-3.211-0.214-4.495,0.642c-2.569,1.498-2.569,1.498-5.78,1.284c-1.712-10.703-3.211-21.407-4.923-32.324
		c1.713,0,2.997,0,4.281,0c1.284,2.783,2.141,5.78,3.425,8.563c6.636,12.416,17.125,19.266,30.825,21.192
		c6.85,0.856,13.486,0.214,19.908-1.927c5.138-1.713,10.061-4.495,13.486-8.991c6.636-8.349,6.85-19.694-1.498-28.899
		c-4.923-5.138-10.489-9.205-16.483-12.844c-7.278-4.281-14.556-8.563-21.835-12.844c-6.85-4.067-13.486-8.349-19.266-13.7
		c-5.566-5.138-10.061-11.131-11.345-18.838c-1.498-8.134,0.428-15.413,5.78-21.835c5.138-6.422,12.202-10.061,19.908-12.202
		c4.281-1.284,8.563-1.712,13.058-2.141c9.419-0.642,18.624,0.856,27.4,3.853c2.569,0.856,5.138,1.498,7.706,1.498
		c0.856,0,1.713-0.214,2.569-0.642C702.704,335.443,702.704,335.443,706.129,335.657z"/>
	<path fill="#787878" d="M1229.305,335.657c1.284,9.205,2.569,17.981,4.067,26.972c-1.499,0-2.783,0-3.853,0
		c-1.499-2.569-2.783-5.138-4.495-7.492c-7.278-10.275-17.339-16.269-29.969-17.339c-6.85-0.642-13.486,0-19.694,3.425
		c-3.853,2.141-7.064,5.138-8.991,9.205c-2.569,5.78-1.927,11.345,1.07,16.911c2.569,4.709,6.85,8.134,11.131,11.345
		c6.636,4.923,13.7,8.777,20.978,12.844c7.492,4.281,14.984,8.349,21.835,13.486c5.566,4.067,10.489,8.563,14.342,14.342
		c7.064,10.703,6.85,24.617-0.856,35.107c-3.425,4.923-8.134,8.563-13.272,11.56c-7.064,3.853-14.771,5.78-22.905,6.636
		c-8.777,0.856-17.339-0.642-25.902-2.569c-3.853-0.856-7.706-1.712-11.56-2.783c-1.713-0.428-3.425-0.428-4.709,0.856
		c-1.713,1.712-3.425,1.284-5.78,1.07c-1.713-10.703-3.211-21.407-4.923-32.324c1.07,0,1.713,0,2.569,0c0.642,0,1.284,0,1.712,0
		c1.713,3.639,2.997,7.278,4.923,10.489c6.85,11.345,17.125,17.553,30.183,19.266c7.492,0.856,14.771,0,21.62-2.783
		c5.566-2.355,10.275-5.566,13.272-11.131c4.281-7.706,4.067-15.413-1.07-22.691c-3.211-4.495-7.278-8.134-11.988-11.131
		c-6.636-4.281-13.486-8.563-20.336-12.63c-7.278-4.281-14.556-8.349-21.193-13.272c-5.78-4.281-11.131-8.991-14.771-15.413
		c-6.208-10.703-4.495-23.761,4.067-32.538c6.208-6.208,13.7-9.633,22.263-11.345c3.853-0.856,7.706-1.284,11.774-1.284
		c7.706,0,15.413,0.856,22.691,3.425c2.783,0.856,5.566,1.498,8.349,1.927c1.713,0.428,3.639,0,5.138-1.284
		C1226.094,335.015,1227.806,335.657,1229.305,335.657z"/>
	<path fill="#787878" d="M946.524,335.657c0,1.284,0,2.569,0,4.067c-0.856,0-1.713,0-2.569,0c-2.141,0.214-4.281,0.214-6.636,0.642
		c-6.208,1.07-9.419,4.281-10.275,10.703c-0.214,1.927-0.428,4.067-0.428,5.994c0,30.611,0,61.223,0,91.62
		c0,2.355,0.428,4.709,0.856,6.85c0.856,4.067,3.425,6.636,7.492,7.706c3.211,0.856,6.422,1.284,9.633,1.284c0.642,0,1.07,0,1.927,0
		c0,1.499,0,2.569,0,3.853c-1.499,0.428-54.159,0.642-57.155,0c0-1.07,0-2.355,0-3.639c1.712-0.214,3.425-0.428,5.352-0.642
		c1.284-0.214,2.355-0.428,3.639-0.642c4.924-1.284,7.492-4.495,8.134-9.419c0.428-2.569,0.642-4.923,0.642-7.492
		c0-30.611,0-61.437,0-92.048c0-1.712-0.214-3.425-0.428-5.138c-0.856-5.138-3.853-8.134-8.777-9.205
		c-2.569-0.642-5.352-0.856-8.349-1.284c0-1.07,0-2.355,0-3.639C908.207,335.657,927.258,335.657,946.524,335.657z"/>
	<path fill="#787878" d="M544.296,339.296c0-1.07,0-2.141,0-3.425c19.052,0,38.104,0,57.155,0c0,1.284,0,2.569,0,4.067
		c-0.856,0-1.713,0-2.569,0c-2.569,0.214-5.352,0.428-8.134,1.07c-4.495,1.07-7.278,3.853-8.134,8.563
		c-0.428,2.569-0.856,5.138-0.856,7.706c0,30.611,0,61.009,0,91.406c0,2.355,0.428,4.923,0.856,7.278
		c0.856,4.067,3.425,6.636,7.278,7.92c3.211,1.07,6.636,1.284,9.847,1.498c0.642,0,1.07,0,1.927,0c0,1.284,0,2.569,0,3.853
		c-19.052,0-38.104,0-57.155,0c0-1.284,0-2.569,0-3.853c1.927-0.214,3.853-0.428,5.566-0.642c1.498-0.214,2.997-0.642,4.495-1.07
		c3.425-1.07,5.994-3.425,6.636-7.064c0.642-2.569,0.856-5.138,0.856-7.92c0-31.468,0-62.935,0-94.189
		c0-1.712-0.214-3.425-0.642-4.923c-0.856-4.281-3.425-7.064-7.492-8.134C550.718,340.366,547.507,339.938,544.296,339.296z"/>
	<path fill="#787878" d="M1105.147,376.543c-0.214-0.428-0.428-0.856-0.642-1.07c-0.428-0.856-0.642-1.712-1.07-2.569
		c0.642-0.428,1.284-0.856,1.927-1.284c4.067-2.355,7.706-4.923,10.917-8.563c3.211-3.425,5.352-7.278,5.138-12.202
		c0-0.642,0-1.284-0.214-1.712c-0.428-1.284-1.284-2.141-2.783-2.141c-0.856,0-1.927,0-2.997,0.214
		c-2.141,0.428-4.281,0.428-6.208-0.214c-3.853-1.07-6.422-3.639-7.064-7.706c-0.642-3.853,0.856-6.85,4.067-9.419
		c5.994-4.495,15.627-3.425,20.55,2.355c4.495,5.352,5.566,11.345,4.067,18.196c-1.712,8.134-6.422,14.342-12.844,19.48
		C1114.137,372.69,1109.856,375.045,1105.147,376.543z"/>
</g>
</svg>
