<?xml version="1.0" encoding="utf-8"?>
<!-- Generator: Adobe Illustrator 17.0.2, SVG Export Plug-In . SVG Version: 6.00 Build 0)  -->
<!DOCTYPE svg PUBLIC "-//W3C//DTD SVG 1.1//EN" "http://www.w3.org/Graphics/SVG/1.1/DTD/svg11.dtd">
<svg version="1.1" id="Layer_1" xmlns="http://www.w3.org/2000/svg" xmlns:xlink="http://www.w3.org/1999/xlink" x="0px" y="0px"
	 width="1280px" height="800px" viewBox="0 0 1280 800" enable-background="new 0 0 1280 800" xml:space="preserve">
<g>
	<path fill="#6E7273" d="M579.394,355.066c-6.167,3.795-23.721,12.335-37.716,10.437c-0.237,0-15.418-1.66-16.367-8.539
		c-1.186-8.065,8.065-10.674,13.758-11.86c11.86-2.372,36.055,2.135,46.018,6.405l-0.712,0.474L579.394,355.066L579.394,355.066z
		 M702.978,331.82c5.456-9.488,15.656-25.381,29.651-31.786c4.032-1.898,8.539-0.712,9.963,3.084
		c1.186,3.084,1.66,6.405-4.507,12.809C734.289,319.485,718.396,330.871,702.978,331.82L702.978,331.82z M701.318,334.667
		c11.86,0.474,46.492-12.335,46.018-30.125c-1.898-9.488-13.046-8.065-19.451-6.167c-16.604,4.981-31.074,23.483-38.19,35.106
		c-5.219,8.539-12.572,14.707-22.06,18.028c-14.707,5.456-30.125,5.93-44.12,3.558c-9.014-1.423-12.098-2.372-27.753-6.167
		c17.079-13.758,27.99-33.683,40.088-51.474c20.874-2.609,61.911-13.521,84.92-55.506c7.591-13.995,10.2-33.683-8.302-36.767
		c-10.911-1.898-20.162,2.846-30.6,9.963c-29.651,20.637-45.069,50.999-60.25,81.124c-6.642,0.949-14.47,0.474-19.451-0.474
		c-3.084-0.712-13.046-2.135-27.279-11.149c-13.758-8.777-26.093-30.6-19.451-57.167l-3.795,1.423
		c-4.27,12.097-1.66,28.939,5.456,41.748c6.642,11.86,14.944,18.265,29.651,23.958c4.27,1.66,10.674,4.507,28.939,4.981l4.507-0.237
		l-2.135,4.27c-4.981,9.488-9.488,18.265-15.656,27.516c-0.712,0.949-1.66,2.846-2.609,3.795c-3.558,4.744-6.405,7.828-10.2,12.335
		c-19.214-5.219-42.46-8.539-56.455-3.084c0,0-9.488,2.846-9.963,10.674c-0.474,10.437,16.367,12.809,16.367,12.809
		c17.316,2.846,33.209-3.321,50.288-14.47c16.367,5.693,36.292,18.502,56.455,15.656c4.507-0.712,9.725-1.66,13.995-3.795
		c3.558-1.898,7.116-3.558,10.437-6.167c5.93-4.744,13.521-12.809,17.553-19.214c-2.372,7.116-2.135,12.097-0.712,16.842
		c1.186,4.507,5.219,8.777,10.911,10.2c21.111,4.744,37.716-11.386,49.813-27.99l-2.135,0.237
		c-7.353,9.963-25.144,29.888-44.12,25.144C689.932,358.624,696.811,343.68,701.318,334.667L701.318,334.667z M637.272,294.816
		l1.66-3.084c14.944-27.041,27.279-55.506,51.474-75.669c10.437-8.539,35.581-13.995,30.6,12.097
		c-8.065,29.414-45.544,60.962-79.464,66.18L637.272,294.816L637.272,294.816z"/>
	<polygon fill="#6E7273" points="458.182,407.014 411.452,407.014 411.452,458.013 454.149,458.013 459.13,452.795 459.13,476.278 
		453.912,470.823 411.452,470.823 411.452,536.766 460.791,536.766 468.856,529.412 465.772,549.575 382.276,549.575 
		390.104,543.17 390.104,401.796 382.513,394.442 464.823,394.442 464.823,412.233 	"/>
	<polygon fill="#6E7273" points="635.137,549.575 628.733,543.17 628.733,401.796 635.137,394.442 600.505,394.442 607.384,401.796 
		607.384,543.17 600.505,549.575 	"/>
	<path fill="#6E7273" d="M594.101,549.575h-24.669l-55.981-86.106h20.4c14.944,0,25.855-13.046,25.855-28.465
		s-9.014-27.279-23.958-27.279H510.13v135.207l7.591,6.405h-35.818l6.642-6.405V401.796l-6.642-7.591h57.404
		c25.618,0,44.595,17.553,43.646,42.46c-0.949,21.349-12.809,35.581-38.19,38.902L594.101,549.575L594.101,549.575z"/>
	<polygon fill="#6E7273" points="232.125,388.275 289.054,510.199 341.239,389.224 368.281,543.17 376.108,549.575 338.393,549.575 
		347.407,542.459 330.565,451.846 284.073,555.268 235.208,450.186 220.264,543.17 226.194,549.575 200.339,549.575 
		206.269,543.645 	"/>
	<polygon fill="#6E7273" points="919.072,407.251 872.343,407.251 872.343,458.251 915.04,458.251 920.021,452.795 920.021,476.278 
		914.565,471.06 872.343,471.06 872.343,536.766 921.682,536.766 929.747,529.887 926.663,549.575 843.167,549.575 850.994,543.408 
		850.994,402.033 843.404,394.442 925.477,394.442 925.477,412.47 	"/>
	<path fill="#6E7273" d="M696.573,549.575l-43.883-0.237l6.642-6.405V401.559l-6.642-7.591h49.339c0,0,28.939-0.712,50.525,15.181
		c25.618,18.976,26.093,60.487,26.093,60.487s2.609,31.786-17.79,56.929c-19.451,23.721-60.487,22.772-60.487,22.772
		L696.573,549.575L696.573,549.575z M696.811,536.766c0-0.949,61.199,8.302,61.199-65.943c0-65.469-56.692-64.283-56.692-64.283
		h-20.637v130.226H696.811L696.811,536.766z"/>
	<polygon fill="#6E7273" points="824.664,549.575 818.26,543.17 818.26,401.796 824.664,394.442 790.032,394.442 796.911,401.796 
		796.911,543.17 790.032,549.575 	"/>
	<polygon fill="#6E7273" points="962.244,542.459 969.834,549.575 941.37,549.575 949.198,542.459 949.435,542.459 949.435,390.647 
		1060.921,507.115 1060.921,401.796 1054.042,394.442 1079.661,394.442 1073.73,401.796 1073.73,552.184 962.244,433.344 	"/>
</g>
</svg>
