<?xml version="1.0" encoding="utf-8"?>
<!-- Generator: Adobe Illustrator 17.0.2, SVG Export Plug-In . SVG Version: 6.00 Build 0)  -->
<!DOCTYPE svg PUBLIC "-//W3C//DTD SVG 1.1//EN" "http://www.w3.org/Graphics/SVG/1.1/DTD/svg11.dtd">
<svg version="1.1" id="Layer_1" xmlns="http://www.w3.org/2000/svg" xmlns:xlink="http://www.w3.org/1999/xlink" x="0px" y="0px"
	 width="1280px" height="800px" viewBox="0 0 1280 800" enable-background="new 0 0 1280 800" xml:space="preserve">
<g>
	<g>
		<path fill="#777777" d="M233.456,427.193c3.517-1.682,4.74-5.964,4.74-9.48v-86.547c0-3.67-1.529-7.646-4.74-9.48h41.133
			c18.349,0,36.393,7.493,36.393,28.441c0,11.162-9.633,19.878-20.031,21.866c14.832-0.306,29.512,8.869,29.512,25.536
			c0,23.854-24.771,29.818-42.203,29.818h-44.803V427.193z M266.944,331.012c-1.988,0-3.211,0-6.728,0.459v37.004h4.281
			c12.692,0,24.771-3.976,24.771-18.655S279.329,331.012,266.944,331.012L266.944,331.012z M269.39,377.803
			c-2.905,0-5.658,0-9.48,0.306v38.839c4.434,0.917,9.48,1.223,14.068,1.223c10.704,0,21.255-4.74,21.255-20.796
			C295.538,381.32,282.846,377.803,269.39,377.803L269.39,377.803z M361.136,331.012c-1.682,0-3.517,0.306-5.505,0.459v36.393
			c1.682,0.306,3.211,0.306,4.893,0.306c11.927,0,20.643-6.422,20.643-19.267C381.474,335.599,372.911,331.012,361.136,331.012
			L361.136,331.012z M414.502,427.957c-3.976,0-8.41,0.306-12.386-0.917c-7.187-1.988-17.126-18.349-21.102-24.466
			c-6.269-10.398-11.468-24.466-25.23-24.466v40.215c0,3.517,1.529,7.951,4.893,9.48h-31.5c3.517-1.682,4.893-5.658,4.893-9.48
			v-86.7c0-3.67-1.529-7.646-4.893-9.48h38.228c16.667,0,37.157,6.422,37.157,26.301c0.306,16.667-13.609,25.23-29.053,25.23
			c21.866,0.306,34.711,51.531,59.023,51.837C428.111,427.193,421.23,427.957,414.502,427.957L414.502,427.957z M436.063,427.193
			c2.752-1.223,5.505-4.74,5.505-9.48v-86.547c0-4.74-2.752-8.104-5.505-9.48h32.417c-2.752,1.223-5.505,4.74-5.505,9.48v86.7
			c0,4.74,2.752,8.104,5.505,9.48h-32.417V427.193z M506.401,427.193c3.517-1.529,5.199-5.658,5.199-9.48v-83.795h-23.242
			c-5.505,0-11.621,0.765-16.361,3.517l7.187-15.597h77.373c6.269,0,12.692-0.306,18.808-1.529
			c-2.905,7.951-11.621,13.915-16.82,13.915c-6.269-0.306-16.361-0.459-25.077-0.459v84.254c0,3.67,1.682,7.951,5.199,9.48h-32.264
			V427.193L506.401,427.193z M579.034,427.193c2.752-1.223,5.505-4.74,5.505-9.48v-86.547c0-4.74-2.752-8.104-5.505-9.48h32.417
			c-2.752,1.223-5.505,4.74-5.505,9.48v86.7c0,4.74,2.752,8.104,5.505,9.48h-32.417L579.034,427.193L579.034,427.193z
			 M674.756,403.339c0-20.031-47.402-24.466-47.402-56.73c0-19.878,18.808-26.301,35.475-26.301c7.493,0,18.043,0.917,24.772,4.281
			l1.223,19.573c-4.281-8.716-14.679-14.832-24.313-14.832c-7.646,0-15.597,3.67-15.597,12.386
			c0,20.796,48.014,25.995,48.014,56.271c0,22.019-19.267,31.194-38.686,31.194c-10.092,0-24.007-1.988-32.417-7.951
			c-0.459-3.517-0.765-7.187-0.765-10.857c0-4.281,0.459-8.716,0.917-12.844c5.505,12.08,16.361,21.866,30.276,21.866
			C667.11,419.394,674.756,414.807,674.756,403.339L674.756,403.339z M776.135,427.193c2.294-0.917,4.74-4.74,4.74-9.48v-39.145
			c-5.658-0.765-13.609-0.917-22.325-0.917c-8.869,0-16.82,0.306-22.784,0.917v39.451c0,4.74,2.294,8.104,4.74,9.48h-31.194
			c2.294-0.917,4.74-4.74,4.74-9.48v-86.7c0-4.74-2.447-8.41-4.74-9.48h31.194c-2.294,1.223-4.74,4.74-4.74,9.48v35.475
			c5.658,0.765,13.609,0.917,22.784,0.917c8.869,0,16.667-0.459,22.325-0.917v-35.475c0-4.74-2.447-8.41-4.74-9.48h31.194
			c-2.294,1.223-4.74,4.74-4.74,9.48v86.7c0,4.74,2.294,8.104,4.74,9.48h-31.194V427.193z"/>
	</g>
	<g>
		<path fill="#777777" d="M283.305,568.482c0.917-0.917,1.988-1.682,1.988-3.67c0-0.765-0.306-1.682-0.917-3.67
			c0,0-8.716-23.548-9.633-26.301c-6.422-0.765-13.456-0.765-19.878-0.765c-6.269,0-12.692,0.306-18.808,0.765
			c-0.917,2.294-10.092,25.842-10.092,25.842c-1.223,3.211-1.682,4.281-1.682,4.893c0,1.529,1.223,2.294,2.447,2.905h-21.713
			c3.211-1.529,5.964-4.74,7.187-8.104l35.016-89.911c0.306-0.459,0.306-0.765,0.306-1.223c0-2.447-1.682-4.74-3.976-5.963h27.218
			l35.475,97.098c1.529,3.976,4.434,6.728,7.187,8.104L283.305,568.482L283.305,568.482z M255.781,483.158l-16.056,41.133
			c4.74,0.459,9.633,0.765,14.679,0.765c5.505,0,10.857,0,16.361-0.765L255.781,483.158L255.781,483.158z M318.78,568.482
			c2.752-1.223,5.505-4.74,5.505-9.48v-86.547c0-4.74-2.752-8.104-5.505-9.48h32.417c-2.752,1.223-5.505,4.74-5.505,9.48v86.547
			c0,4.74,2.752,8.104,5.505,9.48H318.78L318.78,568.482z M400.587,472.301c-1.682,0-3.517,0.306-5.505,0.459v36.393
			c1.682,0.306,3.211,0.306,4.893,0.306c11.927,0,20.643-6.422,20.643-19.267C420.924,477.041,412.209,472.301,400.587,472.301
			L400.587,472.301z M456.4,569.246c-3.976,0-8.41,0.306-12.386-0.917c-7.187-1.988-17.126-18.349-21.102-24.466
			c-6.269-10.398-14.068-24.466-27.83-24.466v40.215c0,3.517,1.529,7.951,4.893,9.48h-31.347c3.517-1.682,4.893-5.658,4.893-9.48
			v-86.7c0-3.67-1.529-7.646-4.893-9.48h38.228c16.667,0,37.157,6.422,37.157,26.301c0,16.667-15.138,25.23-26.453,25.23
			c22.784,1.223,36.393,51.837,59.023,51.837C470.009,568.482,463.281,569.246,456.4,569.246L456.4,569.246z M588.056,473.219
			l-31.958,95.263c-2.752,0-5.199-0.917-6.728-1.988c-3.211-2.905-8.104-15.903-9.939-20.643l-14.374-36.698l-20.796,59.023h-9.939
			l-35.934-95.416c-1.529-3.976-4.281-7.951-8.104-9.939h31.194c-1.223,0.917-2.294,2.294-2.294,4.434
			c0,0.917,0.459,2.447,0.917,3.67l23.242,63.152l24.771-71.103l27.218,68.657l20.796-61.929c0.459-1.682,0.765-2.294,0.765-3.517
			s-0.459-1.988-1.682-3.211h20.643C592.031,465.114,589.279,469.549,588.056,473.219L588.056,473.219z M626.436,483.158
			l-16.056,41.133c4.74,0.459,9.633,0.765,14.679,0.765c5.505,0,10.857,0,16.361-0.765L626.436,483.158L626.436,483.158z
			 M653.96,568.482c0.917-0.917,1.988-1.682,1.988-3.67c0-0.765-0.459-1.682-0.917-3.67c0,0-8.716-23.548-9.633-26.301
			c-6.422-0.765-13.456-0.765-19.878-0.765c-6.269,0-12.692,0.306-18.808,0.765c-0.917,2.294-10.092,25.842-10.092,25.842
			c-1.223,3.211-1.682,4.281-1.682,4.893c0,1.529,1.223,2.294,2.447,2.905h-21.255c3.211-1.529,5.964-4.74,7.187-8.104
			l35.016-89.911c0.306-0.459,0.306-0.765,0.306-1.223c0-2.447-1.682-4.74-3.976-5.963h27.218l35.475,97.098
			c1.529,3.976,4.434,6.728,7.187,8.104L653.96,568.482L653.96,568.482z M749.07,474.289l-25.077,43.885v41.133
			c0,3.517,1.529,7.951,4.74,9.48h-31.041c3.211-1.682,4.434-6.269,4.434-9.48v-41.439l-21.56-34.711
			c-1.988-3.211-11.162-18.349-22.019-18.349c2.905-1.223,12.08-2.905,18.349-2.905c10.092,0,15.444,0.917,21.56,10.704
			l20.031,31.805c1.682-3.211,17.585-30.735,17.585-30.735c1.988-3.517,3.211-5.658,3.211-6.881c0-1.529-0.765-2.447-2.294-3.517
			h22.325C755.034,465.114,751.364,470.008,749.07,474.289L749.07,474.289z M807.635,544.628c0-20.031-47.402-24.466-47.402-56.73
			c0-19.878,18.808-26.301,35.475-26.301c7.493,0,18.043,0.917,24.771,4.281l1.223,19.573c-4.281-8.716-14.679-14.832-24.313-14.832
			c-7.646,0-15.597,3.67-15.597,12.386c0,20.796,48.014,25.995,48.014,56.271c0,22.019-19.114,31.194-38.686,31.194
			c-10.092,0-24.007-1.988-32.417-7.951c-0.459-3.517-0.765-7.187-0.765-10.857c0-4.281,0.459-8.716,0.917-12.844
			c5.505,12.08,16.361,21.866,30.276,21.866C799.684,560.683,807.635,556.096,807.635,544.628L807.635,544.628z"/>
	</g>
	<path fill="#777777" d="M1114.985,274.435c-2.447-9.175-7.646-20.643-14.374-31.5c-7.187-11.621-15.597-22.631-23.548-29.512
		c-15.444-13.456-35.628-15.444-51.072-19.573c-15.444-4.129-83.336-4.893-118.811-3.517
		c-35.628,1.529-338.391,13.456-426.314,16.82c41.133,13.456,103.367,28.747,173.247,35.628
		c62.999,6.269,158.874,5.658,241.14,5.199c8.869,0,17.891-0.306,26.453-0.306c80.125-0.765,115.294-2.447,148.782,1.529
		c2.905,0.306,6.269,0.765,9.175,1.223C1093.272,252.875,1105.351,261.285,1114.985,274.435L1114.985,274.435L1114.985,274.435z"/>
	<path fill="#777777" d="M1064.983,253.792c-9.48,6.881-23.548,14.679-35.628,20.643c-5.964,2.905-11.468,5.505-15.444,6.881
		c-16.667,6.881-70.186,25.23-118.811,41.439c30.735,7.951,67.739,17.585,114.224,26.453c31.499-11.927,91.288-37.616,102.45-58.718
		c0.917-1.988,1.682-3.67,2.294-5.505C1101.834,261.591,1085.32,255.321,1064.983,253.792z"/>
</g>
</svg>
