<?xml version="1.0" encoding="utf-8"?>
<!-- Generator: Adobe Illustrator 17.0.2, SVG Export Plug-In . SVG Version: 6.00 Build 0)  -->
<!DOCTYPE svg PUBLIC "-//W3C//DTD SVG 1.1//EN" "http://www.w3.org/Graphics/SVG/1.1/DTD/svg11.dtd">
<svg version="1.1" id="Layer_1" xmlns="http://www.w3.org/2000/svg" xmlns:xlink="http://www.w3.org/1999/xlink" x="0px" y="0px"
	 width="1280px" height="800px" viewBox="0 0 1280 800" enable-background="new 0 0 1280 800" xml:space="preserve">
<g>
	<path fill="none" d="M611.08,574.884c-14.861,0-26.953,12.092-26.953,26.953s12.092,26.953,26.953,26.953
		c14.861,0,26.953-12.093,26.953-26.953S625.795,574.884,611.08,574.884z"/>
	<path fill="none" d="M489.135,574.884c-14.861,0-26.953,12.092-26.953,26.953s12.092,26.953,26.953,26.953
		s26.953-12.093,26.953-26.953S503.996,574.884,489.135,574.884z"/>
	<path fill="none" d="M1022.662,572.553c-12.092,0-21.271,6.993-23.602,17.629h46.767
		C1043.496,579.109,1034.172,572.553,1022.662,572.553z"/>
	<polygon fill="#6E7273" points="260.106,619.903 236.067,551.719 206.345,551.719 242.914,651.373 275.404,651.373 
		311.973,551.719 283.271,551.719 	"/>
	<path fill="#6E7273" d="M515.068,559.586c-8.304-5.973-18.066-9.761-29.139-9.761c-27.39,0-49.536,23.165-49.536,51.43
		c0,28.264,22.291,51.43,49.536,51.43c10.636,0,20.834-3.642,29.139-9.761v8.305h25.496V510.779h-25.496V559.586z M489.135,628.645
		c-14.861,0-26.953-12.092-26.953-26.953c0-14.861,12.092-26.953,26.953-26.953s26.953,12.092,26.953,26.953
		C516.088,616.552,503.996,628.645,489.135,628.645z"/>
	<path fill="#6E7273" d="M637.013,560.023c-8.305-5.973-18.066-9.761-29.139-9.761c-27.39,0-49.536,23.165-49.536,51.43
		s22.291,51.43,49.536,51.43c10.636,0,20.834-3.642,29.139-9.761v8.305h25.496V551.573h-25.496V560.023z M611.08,628.645
		c-14.861,0-26.953-12.092-26.953-26.953c0-14.861,12.092-26.953,26.953-26.953c14.861,0,26.953,12.092,26.953,26.953
		C638.033,616.552,625.795,628.645,611.08,628.645z"/>
	<path fill="#6E7273" d="M716.707,551.719c0,0,0-3.205,0-5.973c0-6.556,0-14.424,10.198-14.424c2.768,0,5.099,0.437,5.099,0.437
		v-23.165c0,0-4.225,0-6.993,0c-23.602,0.874-33.801,8.742-33.801,32.489v10.636h-11.655v22.728h11.655v76.489h25.933v-76.052
		h15.298v-23.165h-0.437L716.707,551.719L716.707,551.719z"/>
	<path fill="#6E7273" d="M916.015,549.825c-11.073,0-21.854,4.225-29.139,10.636v-8.742H861.38v99.217h26.37v-48.661v-6.556
		c-0.874-17.629,13.404-21.854,20.834-21.854c7.867,0,18.066,4.225,18.066,18.94v5.099v53.323h26.37v-55.655V584.5
		C953.166,564.686,939.617,549.825,916.015,549.825z"/>
	<path fill="#6E7273" d="M1073.654,601.254c0-26.37-20.834-51.43-50.118-51.43c-29.721,0-52.886,23.165-52.886,51.43
		c0,28.264,21.854,51.43,52.886,51.43c25.933,0,43.125-17.629,47.787-32.927h-27.827c-4.225,6.993-10.636,11.073-20.834,11.073
		c-12.967,0-23.165-9.324-24.622-21.854h75.032C1073.217,609.268,1073.654,606.936,1073.654,601.254z M999.06,590.182
		c2.331-10.636,11.655-17.629,23.602-17.629c11.655,0,20.834,6.556,23.165,17.629H999.06z"/>
	<path fill="#6E7273" d="M387.587,553.176c-9.324,1.894-16.755,10.636-16.755,20.397c0,0,0,0.437,0,0.874
		c14.861,3.205,22.728,13.404,22.728,26.37c0,14.861-12.092,26.953-27.39,26.953s-28.701-12.529-28.701-31.032
		c0-22.728,19.523-43.562,46.767-44.436c0.437,0,1.457,0,1.894,0c-5.973-2.331-12.53-3.642-19.523-3.642
		c-29.721,0-53.324,23.165-53.324,51.867c0,28.701,24.039,51.867,53.324,51.867c29.721,0,53.324-23.165,53.324-51.867
		C420.514,579.546,407.11,561.043,387.587,553.176z"/>
	<path fill="#6E7273" d="M791.302,549.825c-29.721,0-53.761,23.165-53.761,51.867c0,21.271,13.404,39.92,32.927,47.787
		c9.324-1.894,16.755-10.636,16.755-20.397v-0.437c-14.861-3.205-22.728-13.404-22.728-26.37c0-14.861,12.092-26.953,27.39-26.953
		c14.861,0,28.702,12.53,28.702,31.033c0,22.728-19.523,43.562-46.767,44.436c-0.437,0-1.457,0-1.894,0
		c5.973,2.331,12.53,3.642,19.523,3.642c29.721,0,53.324-23.165,53.324-51.867C845.062,572.99,821.023,549.825,791.302,549.825z"/>
	<path fill="#6E7273" d="M638.761,457.601c94.117,0,170.169-74.158,170.169-165.944c0.437-69.058-42.688-127.918-104.316-152.977
		c-30.158,6.556-52.886,33.364-52.886,65.853c0,0.874,0,1.457,0,2.331c47.787,10.199,71.389,42.688,71.389,85.23
		c0,47.787-38.9,86.687-86.25,86.687c-47.787,0-91.786-39.92-91.786-99.217c0-72.264,61.628-140.011,149.189-142.342
		c1.457,0,4.225,0,6.556,0c-18.94-7.43-39.92-11.655-62.065-11.655c-94.117,0-170.169,74.158-170.169,165.944
		S545.227,457.601,638.761,457.601z"/>
</g>
</svg>
