<?xml version="1.0" encoding="utf-8"?>
<!-- Generator: Adobe Illustrator 17.0.2, SVG Export Plug-In . SVG Version: 6.00 Build 0)  -->
<!DOCTYPE svg PUBLIC "-//W3C//DTD SVG 1.1//EN" "http://www.w3.org/Graphics/SVG/1.1/DTD/svg11.dtd">
<svg version="1.1" id="Layer_1" xmlns="http://www.w3.org/2000/svg" xmlns:xlink="http://www.w3.org/1999/xlink" x="0px" y="0px"
	 width="1280px" height="800px" viewBox="0 0 1280 800" enable-background="new 0 0 1280 800" xml:space="preserve">
<g>
	<polygon fill="#6E7273" points="141.691,266.791 109.909,266.791 109.909,257.766 184.067,257.766 184.067,266.791 
		152.285,266.791 152.285,381.362 141.691,381.362 	"/>
	<path fill="#6E7273" d="M190.737,257.766h10.202v45.122h0.392c2.747-9.417,11.379-14.91,22.365-14.91
		c13.733,0,23.542,7.063,23.542,24.327v68.665h-10.202v-65.526c0-12.556-5.101-18.834-15.695-18.834
		c-12.163,0-20.011,9.417-20.011,23.542v61.21h-10.202V257.766H190.737z"/>
	<path fill="#6E7273" d="M317.08,351.15c-1.569,19.226-12.163,32.174-29.428,32.174c-19.226,0-30.605-13.341-30.605-47.869
		c0-31.39,11.379-47.477,31.39-47.477c20.403,0,29.428,13.733,29.428,44.338v3.924h-49.831v4.316
		c0,26.289,9.417,34.529,19.226,34.529c10.986,0,17.657-7.847,19.226-23.542h10.594V351.15z M306.878,327.608
		c-0.392-22.757-6.67-30.997-19.226-30.997s-19.226,8.24-19.226,30.997H306.878z"/>
	<path fill="#6E7273" d="M404.186,323.292c0-13.733-3.139-19.226-10.594-19.226c-9.417,0-10.594,11.771-10.594,30.605
		c0,20.796,1.177,30.605,10.594,30.605c8.24,0,10.202-5.493,10.594-21.973h25.896c0,28.643-11.379,40.022-36.883,40.022
		c-34.921,0-37.667-24.719-37.667-52.185c0-25.896,7.455-45.515,37.667-45.515c29.035,0,36.883,15.302,36.883,37.275h-25.896
		V323.292z"/>
	<path fill="#6E7273" d="M435.968,335.063c0-27.858,6.278-49.046,38.452-49.046c34.136,0,38.452,20.796,38.452,48.654
		c0,27.858-6.278,49.046-38.452,49.046C440.284,383.717,435.968,362.921,435.968,335.063 M474.42,304.066
		c-8.24,0-10.594,8.24-10.594,30.605c0,22.757,2.354,30.605,10.594,30.605c8.632,0,10.202-7.847,10.202-30.605
		C485.014,311.913,483.052,304.066,474.42,304.066"/>
	<path fill="#6E7273" d="M549.362,335.063c0-27.858,6.278-49.046,38.452-49.046c34.136,0,38.452,20.796,38.452,48.654
		c0,27.858-6.278,49.046-38.452,49.046C553.679,383.717,549.362,362.921,549.362,335.063 M587.815,304.066
		c-8.24,0-10.594,8.24-10.594,30.605c0,22.757,2.354,30.605,10.594,30.605c8.632,0,10.202-7.847,10.202-30.605
		C598.016,311.913,596.447,304.066,587.815,304.066"/>
	<path fill="#6E7273" d="M631.368,288.371h26.681v11.379h0.392c1.962-6.278,7.847-13.733,20.011-13.733
		c18.834,0,28.643,13.341,28.643,48.261c0,28.643-3.924,49.831-27.073,49.831c-7.847,0-16.087-2.747-20.796-12.556h0v40.414h-27.858
		V288.371z M669.035,363.313c10.202,0,10.594-10.986,10.594-27.858c0-14.91-0.392-29.035-10.986-29.035
		c-8.24,0-9.809,9.809-9.809,27.858C658.833,350.758,659.618,363.313,669.035,363.313"/>
	<path fill="#6E7273" d="M740.446,339.379v5.493c0,14.518,1.962,21.58,10.202,21.58c7.063,0,9.417-5.493,10.202-16.872h25.896
		c-0.392,23.15-12.948,34.136-36.098,34.136c-34.921,0-37.667-24.719-37.667-52.185c0-26.289,7.455-45.515,37.667-45.515
		c34.529,0,36.883,21.973,36.883,53.362C787.531,339.379,740.446,339.379,740.446,339.379z M760.457,323.292
		c0-12.948-1.569-20.011-9.417-20.011c-9.025,0-10.594,7.455-10.594,20.011H760.457z"/>
	<path fill="#6E7273" d="M792.631,288.371h26.681v12.948h0.392c3.531-8.24,10.594-15.302,22.365-15.302c1.177,0,2.747,0,4.316,0.392
		v25.896c-2.747-0.392-5.101-0.785-7.847-0.785c-10.986,0-18.441,4.708-18.441,16.872v52.577h-27.466V288.371z"/>
	<path fill="#6E7273" d="M936.239,307.597H924.86v-19.226h11.379v-30.997h27.858v30.997h12.948v19.226h-12.948v46.692
		c0,6.67,2.354,8.632,9.025,8.632c1.177,0,2.747,0,3.924-0.392v18.441c-5.493,0.785-10.594,1.177-16.087,1.177
		c-19.226,0-24.719-3.531-24.719-25.112V307.597z"/>
	<path fill="#6E7273" d="M984.5,257.374h27.858v21.188H984.5V257.374z M984.5,288.371h27.858v92.992H984.5V288.371z"/>
	<polygon fill="#6E7273" points="1018.244,288.371 1046.887,288.371 1057.873,357.036 1058.266,357.036 1069.252,288.371 
		1097.11,288.371 1073.96,381.362 1041.001,381.362 	"/>
	<path fill="#6E7273" d="M1123.007,339.379v5.493c0,14.518,1.962,21.58,10.202,21.58c7.063,0,9.417-5.493,10.202-16.872h25.896
		c-0.392,23.15-12.948,34.136-36.098,34.136c-34.921,0-37.667-24.719-37.667-52.185c0-26.289,7.455-45.515,37.667-45.515
		c34.528,0,36.883,21.973,36.883,53.362C1170.091,339.379,1123.007,339.379,1123.007,339.379z M1143.017,323.292
		c0-12.948-1.569-20.011-9.417-20.011c-9.025,0-10.594,7.455-10.594,20.011H1143.017z"/>
	<rect x="516.796" y="323.292" fill="#6E7273" width="27.858" height="22.757"/>
	<path fill="#6E7273" d="M919.759,361.352v-47.869c0-19.618-10.202-27.466-32.959-27.466c-11.379,0-19.226,1.569-25.896,5.886
		c-5.886,3.924-9.417,10.202-10.202,20.403h24.719c0.785-5.101,3.531-8.24,9.809-8.24c6.278,0,8.632,3.531,8.632,9.417
		c0,7.063-1.569,8.24-9.809,10.594c-7.847,1.962-18.049,3.924-24.719,7.455c-6.67,3.924-11.379,12.948-11.379,23.542
		c0,20.011,9.025,28.251,24.719,28.251c9.417,0,18.049-4.708,21.973-12.948h0.392c0,3.531,0.392,7.455,1.569,10.594h26.681
		C919.759,377.046,919.759,368.414,919.759,361.352 M893.863,351.935c0,9.417-5.493,12.556-10.986,12.556
		c-5.101,0-8.24-4.316-8.24-11.771c0-5.101,1.569-8.24,4.316-10.202c2.747-1.962,6.278-2.354,15.302-6.67
		C894.255,339.379,893.863,344.087,893.863,351.935"/>
	<g>
		<path fill="#6E7273" d="M136.198,455.913h-12.556v-8.632h12.948v-10.986c0-12.556,2.747-22.365,20.403-22.365
			c3.139,0,4.708,0,6.67,0.392v8.632c-1.569-0.392-3.139-0.392-5.101-0.392c-7.847,0-11.379,3.139-11.379,13.733v10.986h16.48v8.632
			h-16.872v83.967h-10.594V455.913z"/>
		<path fill="#6E7273" d="M202.508,445.319c20.403,0,32.174,16.087,32.174,48.261c0,32.567-11.379,48.654-32.174,48.654
			c-20.403,0-32.174-16.087-32.174-48.654C170.334,461.406,182.105,445.319,202.508,445.319 M202.508,533.602
			c11.771,0,20.796-10.202,20.796-40.022c0-29.428-9.025-39.629-20.796-39.629c-11.771,0-20.796,10.202-20.796,39.629
			C181.712,523.4,190.737,533.602,202.508,533.602"/>
		<path fill="#6E7273" d="M277.058,445.319c20.403,0,32.174,16.087,32.174,48.261c0,32.567-11.379,48.654-32.174,48.654
			c-20.403,0-32.174-16.087-32.174-48.654C244.884,461.406,256.263,445.319,277.058,445.319 M277.058,533.602
			c11.771,0,20.796-10.202,20.796-40.022c0-29.428-9.025-39.629-20.796-39.629c-11.771,0-20.796,10.202-20.796,39.629
			C256.263,523.4,265.287,533.602,277.058,533.602"/>
		<path fill="#6E7273" d="M373.189,524.97L373.189,524.97c-3.139,10.594-12.163,17.657-23.15,17.657
			c-20.403,0-29.82-16.479-29.82-48.654s9.417-48.261,29.82-48.261c11.379,0,19.226,6.278,21.58,16.087h0.392v-46.3h10.594v124.773
			h-9.417L373.189,524.97L373.189,524.97z M352.001,533.602c10.594,0,20.403-5.493,20.403-40.022
			c0-34.136-9.809-39.629-20.403-39.629c-10.594,0-20.403,5.493-20.403,39.629C331.598,528.109,341.407,533.602,352.001,533.602"/>
	</g>
</g>
</svg>
