<?xml version="1.0" encoding="utf-8"?>
<!-- Generator: Adobe Illustrator 17.0.2, SVG Export Plug-In . SVG Version: 6.00 Build 0)  -->
<!DOCTYPE svg PUBLIC "-//W3C//DTD SVG 1.1//EN" "http://www.w3.org/Graphics/SVG/1.1/DTD/svg11.dtd">
<svg version="1.1" id="Layer_1" xmlns="http://www.w3.org/2000/svg" xmlns:xlink="http://www.w3.org/1999/xlink" x="0px" y="0px"
	 width="1280px" height="800px" viewBox="0 0 1280 800" enable-background="new 0 0 1280 800" xml:space="preserve">
<g>
	<path fill="#6E7273" d="M300.434,475.586h97.737c0.913,0,0.913,0.457,0,0.913c-10.961,5.024-26.946,21.009-26.946,21.009
		c-10.961,10.961-19.639,17.812-38.364,17.812h-93.626c-0.457,0-0.457-0.913,0-0.913c10.504-5.481,25.576-21.922,25.576-21.922
		C271.204,485.177,284.449,475.586,300.434,475.586L300.434,475.586z"/>
	<path fill="#6E7273" d="M942.572,475.586h98.193c0.457,0,0.457,0.457,0,0.913c-11.418,5.024-26.946,21.009-26.946,21.009
		c-11.418,10.961-20.095,17.812-38.364,17.812h-93.626c-0.457,0-0.457-0.913,0-0.913c10.504-5.481,25.576-21.922,25.576-21.922
		C914.256,485.177,926.587,475.586,942.572,475.586L942.572,475.586z"/>
	<path fill="#6E7273" d="M460.74,475.586h97.737c0.913,0,0.913,0.457,0,0.913c-10.961,5.024-26.946,21.009-26.946,21.009
		c-10.961,10.961-19.639,17.812-38.364,17.812h-92.713c-1.37,0-1.37-0.913-0.457-0.913c10.504-5.481,25.576-21.922,25.576-21.922
		C431.967,485.177,444.755,475.586,460.74,475.586L460.74,475.586z"/>
	<path fill="#6E7273" d="M621.503,475.586h97.737c0.913,0,0.913,0.457,0,0.913c-10.961,5.024-26.946,21.009-26.946,21.009
		c-10.961,10.961-19.639,17.812-37.907,17.812H560.76c-0.457,0-0.457-0.913-0.457-0.913c10.961-5.481,25.576-21.922,25.576-21.922
		C592.273,485.177,605.518,475.586,621.503,475.586L621.503,475.586z"/>
	<path fill="#6E7273" d="M782.266,475.586h98.193c0.457,0,0.457,0.457-0.457,0.913c-10.961,5.024-26.946,21.009-26.946,21.009
		c-10.961,10.961-19.639,17.812-37.907,17.812h-93.626c-0.457,0-0.457-0.913,0-0.913c10.504-5.481,25.576-21.922,25.576-21.922
		C753.036,485.177,766.281,475.586,782.266,475.586L782.266,475.586z"/>
	<path fill="#6E7273" d="M809.212,284.68c-61.656,0-102.76,31.97-102.76,80.382c0,44.758,37.907,74.444,93.626,74.444
		c18.269,0,34.253-2.284,52.979-7.307v-36.994c-13.245,15.072-29.23,20.552-46.128,20.552c-33.34,0-56.176-21.922-56.176-53.892
		c0-31.513,23.292-54.349,56.632-54.349c17.812,0,31.97,6.851,43.388,18.725V288.79C838.898,286.507,823.827,284.68,809.212,284.68
		L809.212,284.68z"/>
	<path fill="#6E7273" d="M348.388,311.169c22.836,0,50.238,4.567,61.656,14.158v-35.624H247.911v35.624
		c11.418-9.591,36.08-13.701,62.113-13.701v97.28c0,14.158-0.913,18.269-6.851,25.576h52.065
		c-5.937-7.307-6.851-11.418-6.851-25.576V311.169L348.388,311.169z"/>
	<path fill="#6E7273" d="M514.175,345.879c-9.134,3.654-26.489,4.11-34.71,4.11h-13.701v-38.364h18.269
		c16.442,0,44.758,3.654,55.262,13.245v-35.167H421.006c5.937,6.851,6.851,11.418,6.851,25.119v93.626
		c0,14.158-1.37,18.269-6.394,25.576h125.596v-35.167c-17.355,13.245-50.238,13.245-63.483,13.245h-18.269v-40.647h13.245
		c9.134,0,25.576,0.913,35.624,4.567V345.879L514.175,345.879z"/>
	<path fill="#6E7273" d="M689.553,294.271c-18.725-5.937-43.388-9.591-62.113-9.591c-34.253,0-67.594,10.961-67.594,47.498
		c0,63.026,102.76,29.686,102.76,68.507c0,12.788-18.269,17.812-33.34,17.812c-26.489,0-44.758-4.567-67.594-19.639v31.97
		c17.355,5.937,40.648,9.134,65.767,9.134c35.624,0,68.507-10.504,68.507-47.498c0-66.223-102.304-36.537-102.304-68.507
		c0-13.245,16.442-17.812,31.057-17.812c24.206,0,50.238,7.307,64.397,21.922v-33.797H689.553z"/>
	<path fill="#6E7273" d="M953.533,286.964c-55.262,0-94.996,31.97-94.996,77.185c0,44.758,35.624,73.531,87.232,73.531
		c56.176,0,94.996-31.056,94.996-76.728C1041.222,316.65,1005.599,286.964,953.533,286.964L953.533,286.964z M949.423,416.213
		c-29.686,0-48.412-24.206-48.412-53.892s18.725-53.892,48.412-53.892c29.23,0,48.412,24.206,48.412,53.892
		C998.291,392.008,978.652,416.213,949.423,416.213L949.423,416.213z"/>
</g>
</svg>
