<?xml version="1.0" encoding="UTF-8"?>
<svg width="37.5" height="37.1" xmlns="http://www.w3.org/2000/svg">
 <g>
  <title>Layer 1</title>
  <g id="svg_5">
   <path id="svg_6" d="m16.299999,1.5c-1.199999,-0.4 -1.999999,-0.6 -2.599999,-0.7c-0.599999,-0.1 -1.099999,0.2 -1.4,0.8c-0.7,1.4 -2.3,5 -2.8,6.3c-1.1,3.2 -0.4,6.9 -0.4,8.7c-0.1,1.799999 -0.1,3.199999 -1.5,6.299999c-1.2,2.6 -1.7,3.800001 -4.1,3.5s-3.2,-0.4 -2.5,0.5c0.7,0.9 2.5,2.1 4.9,3c2.4,0.9 4.2,1 5.3,0.800001s0.5,-0.6 -1.5,-2c-2.1,-1.400002 -1.7,-2.6 -0.9,-5.300001c0.9,-3.299999 1.8,-4.4 3,-5.799999c1.099999,-1.4 4.099999,-3.700001 5.3,-6.900001c0.5,-1.3 1.6,-5.1 2,-6.7c0.199999,-0.6 -0.1,-1.2 -0.6,-1.5c-0.4,-0.3 -1.1,-0.6 -2.200001,-1z" stroke-miterlimit="10" stroke-linejoin="round" stroke-linecap="round" stroke-width="1.5" stroke="#010202" fill="none"/>
   <path id="svg_7" d="m23,6.6c1.200001,-0.4 2,-0.5 2.6,-0.5c0.6,0 1.1,0.3 1.299999,0.8c0.6,1.6 2,5.2 2.300001,6.6c0.9,3.299999 -0.1,6.9 -0.200001,8.700001c0,1.799999 0,3.199999 1.1,6.4c1,2.699999 1.4,3.9 3.9,3.800001c2.5,-0.100002 3.099998,-0.100002 2.400002,0.699997c-0.700001,0.800003 -2.700001,2 -5.100002,2.700001s-4.299999,0.600002 -5.299999,0.299999s-0.5,-0.599998 1.700001,-1.899998c2.199999,-1.200001 1.799999,-2.5 1.199999,-5.300001c-0.699999,-3.299999 -1.5,-4.5 -2.5,-6c-1,-1.5 -3.799999,-4 -4.799999,-7.2c-0.4,-1.3 -1.200001,-5.2 -1.6,-6.8c-0.1,-0.599999 0.1,-1.099999 0.700001,-1.4c0.4,-0.2 1.099998,-0.5 2.299999,-0.9z" stroke-miterlimit="10" stroke-linejoin="round" stroke-linecap="round" stroke-width="1.5" stroke="#010202" fill="none"/>
   <path id="svg_8" d="m21.6,15.8c0,0 4.6,4.599999 8,2.099999" stroke-miterlimit="10" stroke-linejoin="round" stroke-linecap="round" stroke-width="1.5" stroke="#010202" fill="none"/>
   <path id="svg_9" d="m9,10.2c0,0 1.5,-1.599999 4.8,-1.599999s4.499999,-2 4.499999,-2" stroke-miterlimit="10" stroke-linejoin="round" stroke-linecap="round" stroke-width="1.5" stroke="#010202" fill="none"/>
  </g>
 </g>
</svg>