<?xml version="1.0" encoding="utf-8"?>
<!-- Generator: Adobe Illustrator 18.0.0, SVG Export Plug-In . SVG Version: 6.00 Build 0)  -->
<!DOCTYPE svg PUBLIC "-//W3C//DTD SVG 1.1//EN" "http://www.w3.org/Graphics/SVG/1.1/DTD/svg11.dtd">
<svg version="1.1" id="Layer_1" xmlns="http://www.w3.org/2000/svg" xmlns:xlink="http://www.w3.org/1999/xlink" x="0px" y="0px"
	 width="26.2px" height="31.4px" viewBox="0 0 26.2 31.4" enable-background="new 0 0 26.2 31.4" xml:space="preserve">
<g>
	<path fill="none" stroke="#010202" stroke-width="1.5" stroke-linecap="round" stroke-linejoin="round" stroke-miterlimit="10" d="
		M13.1,17.5c4.1,0,7.3-3.1,7.3-7.7s0-9,0-9h-7.3H5.8c0,0,0,4.4,0,9S9,17.5,13.1,17.5z"/>
	<path fill="none" stroke="#010202" stroke-width="1.5" stroke-linecap="round" stroke-linejoin="round" stroke-miterlimit="10" d="
		M20.4,0.8h4.9c0,0,1.1,7.6-5,9.7"/>
	<path fill="none" stroke="#010202" stroke-width="1.5" stroke-linecap="round" stroke-linejoin="round" stroke-miterlimit="10" d="
		M5.8,0.8H0.8c0,0-1.1,7.6,5,9.7"/>
	
		<line fill="none" stroke="#010202" stroke-width="1.5" stroke-linecap="round" stroke-linejoin="round" stroke-miterlimit="10" x1="13.2" y1="17.5" x2="13.2" y2="23.4"/>
	
		<polyline fill="none" stroke="#010202" stroke-width="1.5" stroke-linecap="round" stroke-linejoin="round" stroke-miterlimit="10" points="
		8.3,27 8.3,23.4 18.2,23.4 18.2,27 	"/>
	
		<rect x="4.7" y="27" fill="none" stroke="#010202" stroke-width="1.5" stroke-linecap="round" stroke-linejoin="round" stroke-miterlimit="10" width="17.1" height="3.7"/>
</g>
</svg>
