<?xml version="1.0" encoding="utf-8"?>
<!-- Generator: Adobe Illustrator 18.0.0, SVG Export Plug-In . SVG Version: 6.00 Build 0)  -->
<!DOCTYPE svg PUBLIC "-//W3C//DTD SVG 1.1//EN" "http://www.w3.org/Graphics/SVG/1.1/DTD/svg11.dtd">
<svg version="1.1" id="Layer_1" xmlns="http://www.w3.org/2000/svg" xmlns:xlink="http://www.w3.org/1999/xlink" x="0px" y="0px"
	 width="22.8px" height="33.8px" viewBox="0 0 22.8 33.8" enable-background="new 0 0 22.8 33.8" xml:space="preserve">
<g>
	<path fill="none" stroke="#010202" stroke-width="1.5" stroke-linecap="round" stroke-linejoin="round" stroke-miterlimit="10" d="
		M11.4,28c0,0-4.2-4.1-6.3-6.4s-1-6.4,2.3-6.4c3,0,4.1,3.2,4.1,3.2"/>
	<path fill="none" stroke="#010202" stroke-width="1.5" stroke-linecap="round" stroke-linejoin="round" stroke-miterlimit="10" d="
		M11.4,28c0,0,4.2-4.1,6.3-6.4c2.1-2.3,1-6.4-2.3-6.4c-3,0-4.1,3.2-4.1,3.2"/>
	<path fill="none" stroke="#010202" stroke-width="1.5" stroke-linecap="round" stroke-linejoin="round" stroke-miterlimit="10" d="
		M11.4,33C4,33,0.8,27.1,0.8,21.2c0-3.8,0-11.5,0-11.5s4.5-0.3,4.5,3.6"/>
	<path fill="none" stroke="#010202" stroke-width="1.5" stroke-linecap="round" stroke-linejoin="round" stroke-miterlimit="10" d="
		M11.4,33C18.8,33,22,27.1,22,21.2c0-3.8,0-10.7,0-10.7c0-2.7-0.6-4.3-2.1-4.3S18,7.4,18,7.4"/>
	<path fill="none" stroke="#010202" stroke-width="1.5" stroke-linecap="round" stroke-linejoin="round" stroke-miterlimit="10" d="
		M18,16.5c0,0,0-7.8,0-10.3s-1.3-3-2.1-3c-1.1,0-2.1,1.1-2.1,2.3"/>
	<path fill="none" stroke="#010202" stroke-width="1.5" stroke-linecap="round" stroke-linejoin="round" stroke-miterlimit="10" d="
		M5.2,16c0-1.2,0-10.4,0-10.6c0-1.5,1.1-2.2,1.9-2.2s2.2,0.3,2.2,2"/>
	<path fill="none" stroke="#010202" stroke-width="1.5" stroke-linecap="round" stroke-linejoin="round" stroke-miterlimit="10" d="
		M9.4,15.7c0,0,0-9.8,0-11.9s0.9-3,2.5-3c1.2,0,2,0.8,2,2.9s0,11.8,0,11.8"/>
</g>
</svg>
