<?xml version="1.0" encoding="utf-8"?>
<!-- Generator: Adobe Illustrator 18.0.0, SVG Export Plug-In . SVG Version: 6.00 Build 0)  -->
<!DOCTYPE svg PUBLIC "-//W3C//DTD SVG 1.1//EN" "http://www.w3.org/Graphics/SVG/1.1/DTD/svg11.dtd">
<svg version="1.1" id="Layer_1" xmlns="http://www.w3.org/2000/svg" xmlns:xlink="http://www.w3.org/1999/xlink" x="0px" y="0px"
	 width="35px" height="33.4px" viewBox="0 0 35 33.4" enable-background="new 0 0 35 33.4" xml:space="preserve">
<g>
	<g>
		<g>
			
				<circle fill="none" stroke="#010202" stroke-width="1.5" stroke-linecap="round" stroke-linejoin="round" stroke-miterlimit="10" cx="12.5" cy="15.2" r="2.9"/>
			
				<path fill="none" stroke="#010202" stroke-width="1.5" stroke-linecap="round" stroke-linejoin="round" stroke-miterlimit="10" d="
				M7.7,32.7v-10c0-1.5,1.1-2.6,2.3-2.6s2.6,0,2.6,0s1.4,0,2.5,0c1,0,2.4,1,2.5,2.4l0,0v10.3"/>
		</g>
		<g>
			
				<circle fill="none" stroke="#010202" stroke-width="1.5" stroke-linecap="round" stroke-linejoin="round" stroke-miterlimit="10" cx="22.4" cy="15.2" r="2.9"/>
			
				<path fill="none" stroke="#010202" stroke-width="1.5" stroke-linecap="round" stroke-linejoin="round" stroke-miterlimit="10" d="
				M17.5,32.7V22.4l0,0c0.1-0.7,0.4-1.3,0.8-1.7c0.4-0.4,1-0.7,1.5-0.7c1.1,0,2.6,0,2.6,0s1.4,0,2.5,0s2.5,1.1,2.5,2.6v10"/>
		</g>
		<g>
			
				<circle fill="none" stroke="#010202" stroke-width="1.5" stroke-linecap="round" stroke-linejoin="round" stroke-miterlimit="10" cx="4.6" cy="11.9" r="2.3"/>
			
				<path fill="none" stroke="#010202" stroke-width="1.5" stroke-linecap="round" stroke-linejoin="round" stroke-miterlimit="10" d="
				M0.8,26v-7.8c0-1.2,1.1-2,1.9-2s1.9,0,1.9,0s1.2,0,2.1,0c0.4,0,0.8,0.2,1.2,0.5C8.2,17,8.4,17.5,8.5,18v2.7"/>
		</g>
		<g>
			
				<circle fill="none" stroke="#010202" stroke-width="1.5" stroke-linecap="round" stroke-linejoin="round" stroke-miterlimit="10" cx="30.3" cy="11.9" r="2.3"/>
			
				<path fill="none" stroke="#010202" stroke-width="1.5" stroke-linecap="round" stroke-linejoin="round" stroke-miterlimit="10" d="
				M34.2,26v-7.8c0-1.2-1.1-2-1.9-2c-0.8,0-1.9,0-1.9,0s-1.2,0-2.1,0c-0.4,0-0.8,0.2-1.2,0.5c-0.3,0.3-0.5,0.8-0.6,1.3v2.7"/>
		</g>
	</g>
	<path fill="none" stroke="#010202" stroke-width="1.5" stroke-linecap="round" stroke-linejoin="round" stroke-miterlimit="10" d="
		M17.5,2.1C19.1-0.6,23,1,23,4.5s-5.5,5.9-5.5,5.9S12,7.9,12,4.5S15.8-0.6,17.5,2.1z"/>
</g>
</svg>
