<?xml version="1.0" encoding="utf-8"?>
<!-- Generator: Adobe Illustrator 18.0.0, SVG Export Plug-In . SVG Version: 6.00 Build 0)  -->
<!DOCTYPE svg PUBLIC "-//W3C//DTD SVG 1.1//EN" "http://www.w3.org/Graphics/SVG/1.1/DTD/svg11.dtd">
<svg version="1.1" id="Layer_1" xmlns="http://www.w3.org/2000/svg" xmlns:xlink="http://www.w3.org/1999/xlink" x="0px" y="0px"
	 width="33.5px" height="35.9px" viewBox="0 0 33.5 35.9" enable-background="new 0 0 33.5 35.9" xml:space="preserve">
<g>
	<g>
		
			<polyline fill="none" stroke="#010202" stroke-width="1.5" stroke-linecap="round" stroke-linejoin="round" stroke-miterlimit="10" points="
			16.1,11.7 15.1,23.8 13.3,23.8 11.5,23.8 10.5,11.7 		"/>
		
			<circle fill="none" stroke="#010202" stroke-width="1.5" stroke-linecap="round" stroke-linejoin="round" stroke-miterlimit="10" cx="13.3" cy="6.5" r="5.8"/>
		
			<line fill="none" stroke="#010202" stroke-width="1.5" stroke-linecap="round" stroke-linejoin="round" stroke-miterlimit="10" x1="7.6" y1="5.7" x2="14.6" y2="12.1"/>
		
			<line fill="none" stroke="#010202" stroke-width="1.5" stroke-linecap="round" stroke-linejoin="round" stroke-miterlimit="10" x1="9" y1="2.6" x2="17.6" y2="10.4"/>
		
			<line fill="none" stroke="#010202" stroke-width="1.5" stroke-linecap="round" stroke-linejoin="round" stroke-miterlimit="10" x1="11.9" y1="0.9" x2="19" y2="7.3"/>
		
			<line fill="none" stroke="#010202" stroke-width="1.5" stroke-linecap="round" stroke-linejoin="round" stroke-miterlimit="10" x1="19" y1="5.7" x2="11.9" y2="12.1"/>
		
			<line fill="none" stroke="#010202" stroke-width="1.5" stroke-linecap="round" stroke-linejoin="round" stroke-miterlimit="10" x1="17.6" y1="2.6" x2="9" y2="10.4"/>
		
			<line fill="none" stroke="#010202" stroke-width="1.5" stroke-linecap="round" stroke-linejoin="round" stroke-miterlimit="10" x1="14.6" y1="0.9" x2="7.6" y2="7.3"/>
	</g>
	<path fill="none" stroke="#010202" stroke-width="1.5" stroke-linecap="round" stroke-linejoin="round" stroke-miterlimit="10" d="
		M13.3,24.6c0,0,0,1.6,0,3.1s-1,1.5-2.2,1.5s-4.8,0-6.8,0s-3.5,1-3.5,2.9s1,3.1,3.4,3.1s25,0,26.9,0c2.3,0,2.4-3.1,0-3.1
		c-2.5,0-11.9,0-13.1,0c-1.9,0-1.9-2.6,0.2-2.6s7.1,0,8.6,0s2.4-0.4,2.4-2.1s-1.1-2.2-2.4-2.2s-8.8,0-8.8,0"/>
</g>
</svg>
