<?xml version="1.0" encoding="utf-8"?>
<!-- Generator: Adobe Illustrator 19.2.0, SVG Export Plug-In . SVG Version: 6.00 Build 0)  -->
<svg version="1.1" id="Layer_2_1_" xmlns="http://www.w3.org/2000/svg" xmlns:xlink="http://www.w3.org/1999/xlink" x="0px" y="0px"
	 viewBox="0 0 40 40" style="enable-background:new 0 0 40 40;" xml:space="preserve">
<style type="text/css">
	.st0{fill:#FFFFFF;}
</style>
<g>
	<path class="st0" d="M37.8,37.8L37.8,37.8c-0.6,0.6-1.7,0.6-2.3,0L2.2,4.5c-0.6-0.6-0.6-1.7,0-2.3l0,0c0.6-0.6,1.7-0.6,2.3,0
		l33.2,33.2C38.4,36.1,38.4,37.1,37.8,37.8z"/>
	<path class="st0" d="M37.8,2.2L37.8,2.2c0.6,0.6,0.6,1.7,0,2.3L4.5,37.8c-0.6,0.6-1.7,0.6-2.3,0l0,0c-0.6-0.6-0.6-1.7,0-2.3
		L35.5,2.2C36.1,1.6,37.1,1.6,37.8,2.2z"/>
</g>
</svg>
