<?xml version="1.0" encoding="utf-8"?>
<!-- Generator: Adobe Illustrator 18.0.0, SVG Export Plug-In . SVG Version: 6.00 Build 0)  -->
<!DOCTYPE svg PUBLIC "-//W3C//DTD SVG 1.1//EN" "http://www.w3.org/Graphics/SVG/1.1/DTD/svg11.dtd">
<svg version="1.1" id="Layer_1" xmlns="http://www.w3.org/2000/svg" xmlns:xlink="http://www.w3.org/1999/xlink" x="0px" y="0px"
	 width="80.6px" height="91.2px" viewBox="0 0 80.6 91.2" enable-background="new 0 0 80.6 91.2" xml:space="preserve">
<g>
	<g>
		<g>
			<path fill="none" stroke="#010202" stroke-width="1.5" stroke-linecap="round" stroke-miterlimit="10" d="M28.1,31.2
				c0,0,2.9,3.2,3.4,7.3s-4.1,3.5-3.5,8c0.6,4.5,3.5,4.4,5.6,4.2c2.1-0.3,2.6-1.1,2.3-4l-3.1-2.2"/>
			<path fill="none" stroke="#010202" stroke-width="1.5" stroke-linecap="round" stroke-miterlimit="10" d="M39.5,29.7
				c0,0-2,3.8-1.5,7.9s4.8,2.4,5.4,6.9s-2.3,5.2-4.4,5.4c-2.1,0.3-2.8-0.4-3.2-3.3l2.5-2.9"/>
			<path fill="none" stroke="#010202" stroke-width="1.5" stroke-linecap="round" stroke-miterlimit="10" d="M32.4,50.8
				c0,0,1.4,2.7,4.2,2.3c2.8-0.4,3.5-3.3,3.5-3.3"/>
			<path fill="none" stroke="#010202" stroke-width="1.5" stroke-linecap="round" stroke-miterlimit="10" d="M29.7,50
				c-2.8,0.3-6.7-0.8-7.4-6.4s2.7-8.2,2.7-8.2c-0.6-4.6,1.5-11.3,7.9-12.1c6.3-0.8,10,5.1,10.6,9.7c0,0,3.9,1.7,4.6,7.3
				c0.7,5.5-2.8,7.7-5.5,8"/>
			<path fill="none" stroke="#010202" stroke-width="1.5" stroke-linecap="round" stroke-miterlimit="10" d="M42.2,28.9
				c0,0,0.6-3.1,3.7-6.9c3.1-3.8,5-7,4.3-13c-0.7-6.1-0.5-7.3-2-8.1c-1.5-0.8-3.5,2.1-5.7,5.3s-4.4,5.3-6.1,10.4s-2.1,6.8-2.1,6.8"
				/>
			<path fill="none" stroke="#010202" stroke-width="1.5" stroke-linecap="round" stroke-miterlimit="10" d="M44.4,3.4
				c0,0-2.7,6.1-3.6,10.9c-0.9,4.8-0.5,7.7,0.5,7.9c1.9,0.5,4.3-2.6,3.8-6.9"/>
			<path fill="none" stroke="#010202" stroke-width="1.5" stroke-linecap="round" stroke-miterlimit="10" d="M42.4,29.4
				c0,0-3,4.6-1.6,6.2c1.3,1.5,3.1,0.2,2.7-2.2"/>
			<path fill="none" stroke="#010202" stroke-width="1.5" stroke-linecap="round" stroke-miterlimit="10" d="M25.3,31
				c0,0-1.3-2.8-5.3-5.7s-6.6-5.5-7.4-11.6s-1.3-7.2,0-8.3s3.9,1.2,6.8,3.7s5.6,4.1,8.5,8.6s3.7,6,3.7,6"/>
			<path fill="none" stroke="#010202" stroke-width="1.5" stroke-linecap="round" stroke-miterlimit="10" d="M16.9,6.9
				c0,0,4.1,5.3,6.2,9.7s2.4,7.4,1.5,7.8c-1.7,0.9-4.8-1.4-5.4-5.7"/>
			<path fill="none" stroke="#010202" stroke-width="1.5" stroke-linecap="round" stroke-miterlimit="10" d="M25.2,31.5
				c0,0,4,3.7,3.1,5.6s-3,1-3.2-1.4"/>
		</g>
		<g>
			<path fill="none" stroke="#010202" stroke-width="1.5" stroke-linecap="round" stroke-miterlimit="10" d="M21.4,65.3
				c-5.2,0.7-8.5,0-8.7-1.9c-0.4-3.5,10.6-6,24.3-7.7s25-2.1,25.5,1.4c0.2,1.9-2.6,3.4-8,4"/>
			<path fill="none" stroke="#010202" stroke-width="1.5" stroke-linecap="round" stroke-miterlimit="10" d="M21.7,89.4
				c-0.2-1.7,8.3-3.4,19-4.7s19.3-1.9,19.5-0.2c0.2,1.7-8.3,3.4-19,4.7C30.6,90.6,21.9,91.1,21.7,89.4z"/>
			<path fill="none" stroke="#010202" stroke-width="1.5" stroke-linecap="round" stroke-miterlimit="10" d="M21.5,63.2"/>
			<path fill="none" stroke="#010202" stroke-width="1.5" stroke-linecap="round" stroke-miterlimit="10" d="M53.9,59.1"/>
			<path fill="none" stroke="#010202" stroke-width="1.5" stroke-linecap="round" stroke-miterlimit="10" d="M21.5,63.2
				c-0.2-1.7,7-3.2,15.9-4.3c8.9-1.1,16.1-1.5,16.5,0.2"/>
			
				<line fill="none" stroke="#010202" stroke-width="1.5" stroke-linecap="round" stroke-miterlimit="10" x1="21.7" y1="89.4" x2="21.5" y2="63.2"/>
			
				<line fill="none" stroke="#010202" stroke-width="1.5" stroke-linecap="round" stroke-miterlimit="10" x1="60.2" y1="84.5" x2="53.9" y2="59.1"/>
			
				<line fill="none" stroke="#010202" stroke-width="1.5" stroke-linecap="round" stroke-miterlimit="10" x1="29.4" y1="86.4" x2="28.2" y2="60.4"/>
			
				<line fill="none" stroke="#010202" stroke-width="1.5" stroke-linecap="round" stroke-miterlimit="10" x1="25.4" y1="87.2" x2="24.6" y2="61.2"/>
		</g>
		
			<path display="none" fill="none" stroke="#010202" stroke-width="1.5" stroke-linecap="round" stroke-linejoin="round" stroke-miterlimit="10" d="
			M5,83.9c-1.3-2.3-0.2-7.9,2-8.2c1.4-0.3,2.2-0.2,3.3-0.5c2.6-0.9,4.5-3.3,5.2-6c0.2-0.9,0.3-1.7,0.2-2.5c-0.1-1.5-1.9-2.3-3.1-1.4
			l-0.2,0.1c-0.5,0.4-0.8,1-0.8,1.7c0.1,2.5-1.7,4.5-4.2,4.5c-1.6,0-3-0.9-3.7-2.3c-1.2-2.6,0.3-5.4,2.9-6c1-0.2,2,0,2.8,0.4
			c0.6,0.3,1.4,0.3,2-0.2l0.1-0.1c1.2-0.9,1-2.7-0.3-3.3c-1.8-1-4-1.2-6.1-0.6c-2.7,0.8-4.7,2.9-5.5,5.5c-1-1.9-2.8-6-0.7-9.1
			c0.6-1,0.3-2.3-0.7-2.9c-0.9-0.5-2.1-0.3-2.7,0.5c-0.9,1.2-1.9,3.2-1.6,5.8c0.5,4.5,2.7,7.4,2.7,7.4s-2.9-0.1-4-2.9
			c-0.5-1.2-0.6-2.4-0.6-3.4c0-1.1-0.9-2-2-1.9c-1,0.1-1.8,0.9-1.8,1.9c0,3,1.2,8.8,7.7,10.4c0,0-2,2.4-5.9-0.2
			c-0.8-0.5-1.9,0.4-1.9,1.4c0,0.6,0.3,1.2,0.8,1.5c1,0.6,2.8,1.9,6.2,1.2c1.3-0.2,3.4,0.4,3.8,2.3c0,0,0.5,5.6,1.7,7.8"/>
	</g>
	<path display="none" fill="none" stroke="#010202" stroke-width="1.5" stroke-linecap="round" stroke-miterlimit="10" d="M21,58.5
		c0,0-4.1-10.1,1.3-16.2"/>
	<path display="none" fill="none" stroke="#010202" stroke-width="1.5" stroke-linecap="round" stroke-miterlimit="10" d="
		M48.2,39.9c0,0,5.4,1.8,4.7,13.9"/>
	<g>
		
			<path fill="none" stroke="#010202" stroke-width="1.5" stroke-linecap="round" stroke-linejoin="round" stroke-miterlimit="10" d="
			M61,29c-4.8,0-6.8,2-6.8,6.8c0-4.8-2-6.8-6.8-6.8c4.8,0,6.8-2,6.8-6.8C54.2,27,56.1,29,61,29z"/>
	</g>
	<g>
		
			<path fill="none" stroke="#010202" stroke-width="1.5" stroke-linecap="round" stroke-linejoin="round" stroke-miterlimit="10" d="
			M16.3,40.9c-3.2,0-4.5,1.3-4.5,4.5c0-3.2-1.3-4.5-4.5-4.5c3.2,0,4.5-1.3,4.5-4.5C11.8,39.6,13.1,40.9,16.3,40.9z"/>
	</g>
	<g>
		<polyline fill="none" stroke="#010202" stroke-width="1.5" stroke-linecap="round" stroke-miterlimit="10" points="3.3,19.8 
			3.3,22.4 3.3,25 		"/>
		<polyline fill="none" stroke="#010202" stroke-width="1.5" stroke-linecap="round" stroke-miterlimit="10" points="0.8,22.4 
			3.3,22.4 5.9,22.4 		"/>
	</g>
	<g>
		
			<polygon fill="none" stroke="#010202" stroke-width="1.5" stroke-linecap="round" stroke-linejoin="round" stroke-miterlimit="10" points="
			79.8,65.1 78.6,66.2 77.4,67.2 66.9,54.8 56.5,42.4 57.7,41.3 58.9,40.3 69.4,52.7 		"/>
		
			<polyline fill="none" stroke="#010202" stroke-width="1.5" stroke-linecap="round" stroke-linejoin="round" stroke-miterlimit="10" points="
			60,46.5 61.2,45.5 62.4,44.5 		"/>
	</g>
</g>
<path fill="none" stroke="#010202" stroke-width="1.5" stroke-linecap="round" stroke-miterlimit="10" d="M21,58.5
	c0,0-4.1-9.4,1.3-15.5"/>
<path fill="none" stroke="#010202" stroke-width="1.5" stroke-linecap="round" stroke-miterlimit="10" d="M48.3,40.5
	c0,0,5.4,1.8,4.7,13.9"/>
</svg>
