<?xml version="1.0" encoding="utf-8"?>
<!-- Generator: Adobe Illustrator 19.2.0, SVG Export Plug-In . SVG Version: 6.00 Build 0)  -->
<svg version="1.1" xmlns="http://www.w3.org/2000/svg" xmlns:xlink="http://www.w3.org/1999/xlink" x="0px" y="0px"
	 viewBox="0 0 200 302.9" style="enable-background:new 0 0 200 302.9;" xml:space="preserve">
<style type="text/css">
	.st0{fill:#1E2D33;}
	.st1{clip-path:url(#SVGID_2_);}
	.st2{clip-path:url(#SVGID_4_);fill:#E63A2F;}
	.st3{fill:none;stroke:#1E2D33;stroke-miterlimit:10;}
	.st4{fill:#132A32;}
</style>
<g id="Layer_1">
</g>
<g id="Layer_2">
	<rect x="-1537.8" y="610.6" style="fill:none;" width="221.3" height="226.2"/>
	<text transform="matrix(1 0 0 1 -1488.7961 627.9839)"><tspan x="0" y="0" class="st0" style="font-family:'Lato-Light'; font-size:23.8003px;">reduction in </tspan><tspan x="-26.3" y="28" class="st0" style="font-family:'Lato-Light'; font-size:23.8003px;">complaints about </tspan><tspan x="6.2" y="56" class="st0" style="font-family:'Lato-Light'; font-size:23.8003px;">cabin crew</tspan></text>
	<g>
		<defs>
			<path id="SVGID_1_" d="M-1416.4,411.4l-10.8,8.8l-10.8-8.8c-1.2-1-2.9-0.8-3.9,0.4c-1,1.2-0.8,3,0.4,4l14.3,11.7l14.3-11.7
				c0.7-0.6,1-1.4,1-2.2c0-0.6-0.2-1.3-0.6-1.8C-1413.4,410.6-1415.2,410.4-1416.4,411.4"/>
		</defs>
		<use xlink:href="#SVGID_1_"  style="overflow:visible;fill-rule:evenodd;clip-rule:evenodd;fill:#E63A2F;"/>
		<clipPath id="SVGID_2_">
			<use xlink:href="#SVGID_1_"  style="overflow:visible;"/>
		</clipPath>
		<g class="st1">
			<defs>
				<rect id="SVGID_3_" x="-1464.7" y="-524.4" width="3351" height="1024"/>
			</defs>
			<use xlink:href="#SVGID_3_"  style="overflow:visible;fill:#E63A2F;"/>
			<clipPath id="SVGID_4_">
				<use xlink:href="#SVGID_3_"  style="overflow:visible;"/>
			</clipPath>
			<rect x="-1447.4" y="405.8" class="st2" width="40.6" height="26.8"/>
		</g>
	</g>
	<text transform="matrix(1 0 0 1 -1489.2404 512.9984)"><tspan x="0" y="0" class="st0" style="font-family:'Lato-Heavy'; font-size:82.7683px;">20</tspan><tspan x="96" y="0" class="st0" style="font-family:'Lato-Heavy'; font-size:42.562px;">%</tspan></text>
	<circle class="st3" cx="-1427.1" cy="480.3" r="86.3"/>
	<g>
		<g>
			<path class="st4" d="M48.8,56.5c1-0.2,1.9-0.3,2.8-0.4c0.9-0.1,1.7-0.1,2.6-0.1c2.4,0,4.6,0.4,6.4,1.1c1.9,0.7,3.4,1.7,4.7,3
				c1.3,1.3,2.2,2.8,2.8,4.5s1,3.6,1,5.5c0,2.5-0.4,4.7-1.3,6.7c-0.9,2-2.1,3.8-3.6,5.2c-1.5,1.5-3.4,2.6-5.5,3.4
				c-2.1,0.8-4.5,1.2-7,1.2c-1.5,0-2.9-0.2-4.2-0.5c-1.3-0.3-2.6-0.7-3.7-1.2c-1.2-0.5-2.2-1.1-3.2-1.8s-1.9-1.4-2.7-2.1l2.7-3.7
				c0.6-0.8,1.3-1.2,2.2-1.2c0.6,0,1.1,0.2,1.7,0.5c0.6,0.3,1.2,0.7,1.9,1.1c0.7,0.4,1.5,0.8,2.4,1.1c0.9,0.3,2.1,0.5,3.4,0.5
				c1.4,0,2.6-0.2,3.6-0.7c1-0.5,1.9-1.1,2.5-1.9c0.7-0.8,1.2-1.7,1.5-2.8c0.3-1.1,0.5-2.3,0.5-3.5c0-2.4-0.7-4.2-2.1-5.6
				s-3.4-2-6-2c-2.1,0-4.3,0.4-6.5,1.2l-5.4-1.5L44.2,40h23.2v3.7c0,0.6-0.1,1.2-0.3,1.7s-0.5,0.9-0.9,1.3c-0.4,0.4-0.9,0.7-1.6,0.9
				c-0.6,0.2-1.4,0.3-2.4,0.3H50.3L48.8,56.5z"/>
			<path class="st4" d="M73.7,83.3c0-0.4,0.1-0.8,0.2-1.2c0.2-0.4,0.4-0.7,0.7-1s0.6-0.5,1-0.7c0.4-0.2,0.8-0.2,1.2-0.2
				c0.4,0,0.8,0.1,1.2,0.2c0.4,0.2,0.7,0.4,1,0.7c0.3,0.3,0.5,0.6,0.7,1c0.2,0.4,0.2,0.8,0.2,1.2c0,0.4-0.1,0.8-0.2,1.2
				c-0.2,0.4-0.4,0.7-0.7,1c-0.3,0.3-0.6,0.5-1,0.6c-0.4,0.2-0.8,0.2-1.2,0.2c-0.4,0-0.9-0.1-1.2-0.2c-0.4-0.2-0.7-0.4-1-0.6
				s-0.5-0.6-0.7-1C73.8,84.2,73.7,83.8,73.7,83.3z"/>
			<path class="st4" d="M102.4,58.3v2.3c0,0.7-0.1,1.2-0.2,1.6c-0.1,0.4-0.3,0.8-0.4,1L91.7,84.4c-0.3,0.5-0.6,0.9-1,1.2
				s-1,0.5-1.8,0.5H85l10.4-20.6c0.3-0.5,0.5-0.9,0.8-1.3c0.3-0.4,0.6-0.8,0.9-1.1H84.3c-0.3,0-0.6-0.1-0.8-0.4
				c-0.2-0.2-0.4-0.5-0.4-0.8v-3.5H102.4z"/>
		</g>
		<g>
			<path class="st4" d="M137.5,106.1l-1.4,1.7c0.8-0.4,1.7-0.6,2.6-0.8c0.9-0.2,1.9-0.3,3-0.3c1.7,0,3.4,0.3,5,0.9
				c1.6,0.6,3.1,1.4,4.4,2.6c1.3,1.1,2.3,2.6,3.1,4.3s1.2,3.8,1.2,6.1c0,2.1-0.4,4.2-1.2,6.1s-1.9,3.6-3.4,5
				c-1.5,1.4-3.2,2.5-5.2,3.4c-2,0.8-4.3,1.2-6.8,1.2c-2.5,0-4.8-0.4-6.8-1.2c-2-0.8-3.7-1.9-5.1-3.4c-1.4-1.4-2.5-3.2-3.2-5.2
				c-0.7-2-1.1-4.2-1.1-6.6c0-2.2,0.4-4.5,1.3-6.8c0.9-2.3,2.2-4.6,4-7.1l10.7-14.4c0.4-0.6,1-1,1.9-1.4c0.8-0.4,1.8-0.6,2.8-0.6
				h7.8L137.5,106.1z M138.6,129.1c1.1,0,2.2-0.2,3.2-0.6c1-0.4,1.8-1,2.5-1.7c0.7-0.7,1.3-1.6,1.7-2.5c0.4-1,0.6-2,0.6-3.2
				c0-1.3-0.2-2.4-0.6-3.4s-0.9-1.8-1.6-2.5c-0.7-0.7-1.5-1.2-2.5-1.6s-2.1-0.5-3.2-0.5c-1.1,0-2.2,0.2-3.1,0.6
				c-0.9,0.4-1.7,0.9-2.4,1.7s-1.2,1.6-1.6,2.5s-0.6,2-0.6,3.2c0,1.2,0.2,2.3,0.5,3.3c0.3,1,0.8,1.8,1.4,2.5
				c0.6,0.7,1.4,1.2,2.4,1.6C136.2,128.9,137.3,129.1,138.6,129.1z"/>
		</g>
		<g>
			<path class="st4" d="M100,173.5c-47.8,0-86.8-38.9-86.8-86.8S52.2,0,100,0s86.8,38.9,86.8,86.8S147.8,173.5,100,173.5z M100,1
				C52.7,1,14.2,39.5,14.2,86.8s38.5,85.8,85.8,85.8s85.8-38.5,85.8-85.8S147.3,1,100,1z"/>
		</g>
		<g>
			<path class="st4" d="M59.5,142.4c-0.5,0-1-0.2-1.4-0.6c-0.8-0.8-0.8-2,0-2.8l90-90c0.8-0.8,2-0.8,2.8,0c0.8,0.8,0.8,2,0,2.8
				l-90,90C60.5,142.2,60,142.4,59.5,142.4z"/>
		</g>
		<g>
			<path class="st4" d="M51.2,200.8c-0.1,0.1-0.2,0.2-0.3,0.2c-0.1,0-0.2-0.1-0.4-0.2s-0.4-0.3-0.7-0.5c-0.3-0.2-0.6-0.3-1-0.5
				s-0.9-0.2-1.5-0.2c-0.6,0-1.1,0.1-1.6,0.3c-0.5,0.2-0.9,0.4-1.2,0.7c-0.3,0.3-0.6,0.7-0.7,1s-0.2,0.8-0.2,1.2
				c0,0.6,0.1,1,0.4,1.4c0.2,0.4,0.6,0.7,1,1c0.4,0.3,0.8,0.5,1.4,0.7c0.5,0.2,1,0.4,1.6,0.5c0.5,0.2,1,0.4,1.6,0.6s1,0.5,1.4,0.8
				c0.4,0.3,0.7,0.7,1,1.2c0.2,0.5,0.4,1,0.4,1.7c0,0.7-0.1,1.4-0.4,2c-0.2,0.6-0.6,1.2-1.1,1.6c-0.5,0.5-1,0.8-1.7,1.1
				c-0.7,0.3-1.4,0.4-2.3,0.4c-1.1,0-2.1-0.2-2.9-0.6s-1.5-0.9-2.1-1.6l0.3-0.5c0.1-0.1,0.2-0.2,0.3-0.2c0.1,0,0.2,0,0.3,0.1
				c0.1,0.1,0.2,0.2,0.4,0.4s0.3,0.3,0.6,0.5c0.2,0.2,0.5,0.3,0.8,0.5s0.6,0.3,1,0.4c0.4,0.1,0.8,0.1,1.3,0.1c0.7,0,1.3-0.1,1.8-0.3
				c0.5-0.2,1-0.5,1.3-0.8c0.4-0.3,0.6-0.8,0.8-1.2c0.2-0.5,0.3-1,0.3-1.5c0-0.6-0.1-1.1-0.4-1.5c-0.2-0.4-0.6-0.7-1-1
				c-0.4-0.3-0.8-0.5-1.4-0.6c-0.5-0.2-1-0.3-1.6-0.5c-0.5-0.2-1-0.4-1.6-0.6c-0.5-0.2-1-0.5-1.4-0.8c-0.4-0.3-0.7-0.7-1-1.2
				c-0.2-0.5-0.4-1.1-0.4-1.8c0-0.6,0.1-1.1,0.3-1.6c0.2-0.5,0.5-1,0.9-1.4c0.4-0.4,0.9-0.7,1.5-1s1.3-0.4,2.1-0.4
				c0.9,0,1.7,0.1,2.4,0.4c0.7,0.3,1.3,0.7,1.9,1.3L51.2,200.8z"/>
			<path class="st4" d="M54.7,205.4c0.6-0.6,1.3-1.1,2-1.4c0.7-0.3,1.5-0.5,2.3-0.5c0.6,0,1.2,0.1,1.7,0.3s0.9,0.5,1.2,0.9
				s0.5,0.8,0.7,1.4s0.2,1.1,0.2,1.8v7.7h-0.5c-0.2,0-0.4-0.1-0.4-0.3l-0.2-1.5c-0.3,0.3-0.6,0.6-1,0.9s-0.7,0.5-1,0.6
				c-0.3,0.2-0.7,0.3-1.1,0.4c-0.4,0.1-0.8,0.1-1.3,0.1c-0.4,0-0.8-0.1-1.2-0.2c-0.4-0.1-0.7-0.3-1-0.5c-0.3-0.2-0.5-0.6-0.7-0.9
				s-0.3-0.8-0.3-1.4c0-0.5,0.1-1,0.4-1.4c0.3-0.4,0.7-0.8,1.3-1.1s1.4-0.6,2.4-0.8s2.1-0.3,3.4-0.3v-1.2c0-1.1-0.2-1.9-0.7-2.5
				c-0.5-0.6-1.2-0.9-2.1-0.9c-0.6,0-1.1,0.1-1.5,0.2c-0.4,0.2-0.7,0.3-1,0.5c-0.3,0.2-0.5,0.4-0.7,0.5c-0.2,0.2-0.3,0.2-0.4,0.2
				c-0.1,0-0.2,0-0.2-0.1c-0.1,0-0.1-0.1-0.1-0.2L54.7,205.4z M61.7,209.9c-1.1,0-2.1,0.1-2.9,0.3c-0.8,0.1-1.5,0.3-2,0.6
				c-0.5,0.2-0.9,0.5-1.2,0.9c-0.3,0.3-0.4,0.7-0.4,1.1c0,0.4,0.1,0.7,0.2,1c0.1,0.3,0.3,0.5,0.5,0.7s0.5,0.3,0.8,0.4
				c0.3,0.1,0.6,0.1,0.9,0.1c0.5,0,0.9,0,1.3-0.1c0.4-0.1,0.7-0.2,1.1-0.4c0.3-0.2,0.6-0.4,0.9-0.6c0.3-0.2,0.6-0.5,0.8-0.8V209.9z"
				/>
			<path class="st4" d="M76.3,215.6h-1.1V205h-6.9v8c0,0.3,0,0.6,0.1,0.8s0.2,0.4,0.3,0.6c0.1,0.2,0.3,0.3,0.5,0.3s0.4,0.1,0.6,0.1
				c0.3,0,0.5,0,0.7-0.1c0.2-0.1,0.4-0.2,0.5-0.3c0.2-0.1,0.3-0.2,0.4-0.3c0.1-0.1,0.2-0.1,0.2-0.1c0.1,0,0.1,0,0.2,0.1l0.3,0.5
				c-0.3,0.3-0.7,0.6-1.1,0.8c-0.5,0.2-0.9,0.3-1.4,0.3c-0.8,0-1.4-0.2-1.9-0.7s-0.7-1.1-0.7-2.1V205h-1.7c-0.1,0-0.2,0-0.2-0.1
				c-0.1,0-0.1-0.1-0.1-0.2v-0.4l2-0.1l0.3-4.2c0-0.1,0-0.1,0.1-0.2c0-0.1,0.1-0.1,0.2-0.1h0.5v4.5h8V215.6z M76.8,199.5
				c0,0.1,0,0.3-0.1,0.4s-0.1,0.2-0.2,0.3c-0.1,0.1-0.2,0.2-0.3,0.2c-0.1,0.1-0.3,0.1-0.4,0.1c-0.1,0-0.3,0-0.4-0.1
				c-0.1-0.1-0.2-0.1-0.3-0.2c-0.1-0.1-0.2-0.2-0.2-0.3c-0.1-0.1-0.1-0.3-0.1-0.4c0-0.1,0-0.3,0.1-0.4c0.1-0.1,0.1-0.2,0.2-0.3
				c0.1-0.1,0.2-0.2,0.3-0.2c0.1-0.1,0.3-0.1,0.4-0.1c0.1,0,0.3,0,0.4,0.1c0.1,0.1,0.2,0.1,0.3,0.2c0.1,0.1,0.2,0.2,0.2,0.3
				S76.8,199.4,76.8,199.5z"/>
			<path class="st4" d="M86.8,205.2c-0.1,0.1-0.2,0.2-0.3,0.2c-0.1,0-0.2,0-0.3-0.1c-0.1-0.1-0.3-0.2-0.5-0.3s-0.5-0.2-0.8-0.3
				c-0.3-0.1-0.7-0.1-1.2-0.1c-0.4,0-0.8,0.1-1.2,0.2c-0.4,0.1-0.7,0.3-0.9,0.5c-0.2,0.2-0.4,0.4-0.6,0.7c-0.1,0.3-0.2,0.6-0.2,0.9
				c0,0.4,0.1,0.7,0.3,0.9s0.4,0.5,0.7,0.6c0.3,0.2,0.7,0.3,1.1,0.5c0.4,0.1,0.8,0.3,1.2,0.4c0.4,0.1,0.8,0.3,1.2,0.4
				c0.4,0.2,0.7,0.3,1.1,0.6c0.3,0.2,0.6,0.5,0.7,0.8s0.3,0.7,0.3,1.2c0,0.5-0.1,1-0.3,1.4s-0.5,0.8-0.8,1.2s-0.8,0.6-1.3,0.8
				s-1.1,0.3-1.8,0.3c-0.8,0-1.6-0.1-2.2-0.4c-0.6-0.3-1.1-0.6-1.6-1l0.3-0.4c0-0.1,0.1-0.1,0.1-0.1c0.1,0,0.1,0,0.2,0
				c0.1,0,0.2,0.1,0.4,0.2c0.1,0.1,0.3,0.3,0.6,0.4s0.5,0.3,0.9,0.4c0.4,0.1,0.8,0.2,1.3,0.2c0.5,0,0.9-0.1,1.3-0.2
				c0.4-0.1,0.7-0.3,1-0.6s0.4-0.5,0.6-0.8s0.2-0.7,0.2-1c0-0.4-0.1-0.7-0.3-1c-0.2-0.3-0.4-0.5-0.8-0.7c-0.3-0.2-0.7-0.3-1.1-0.5
				s-0.8-0.3-1.2-0.4c-0.4-0.1-0.8-0.3-1.2-0.4c-0.4-0.2-0.7-0.3-1.1-0.6c-0.3-0.2-0.6-0.5-0.7-0.8c-0.2-0.3-0.3-0.7-0.3-1.2
				c0-0.4,0.1-0.8,0.3-1.2c0.2-0.4,0.4-0.7,0.8-1c0.3-0.3,0.7-0.5,1.2-0.7c0.5-0.2,1-0.3,1.6-0.3c0.7,0,1.4,0.1,1.9,0.3
				c0.6,0.2,1.1,0.5,1.5,1L86.8,205.2z"/>
			<path class="st4" d="M91.1,215.6V205l-1.7-0.1c-0.2,0-0.3-0.1-0.3-0.3v-0.5h2v-1.5c0-0.7,0.1-1.3,0.3-1.8
				c0.2-0.5,0.4-0.9,0.7-1.3s0.7-0.6,1.1-0.8c0.4-0.2,0.9-0.3,1.5-0.3c0.2,0,0.5,0,0.7,0.1c0.2,0,0.5,0.1,0.7,0.2l0,0.5
				c0,0.1,0,0.1-0.1,0.1c-0.1,0-0.1,0-0.2,0s-0.2,0-0.4,0c-0.2,0-0.3,0-0.5,0c-0.4,0-0.7,0.1-1.1,0.2s-0.6,0.3-0.9,0.6
				c-0.2,0.3-0.4,0.6-0.6,1c-0.1,0.4-0.2,0.9-0.2,1.5v1.5h3.8v0.8h-3.8v10.6H91.1z"/>
			<path class="st4" d="M98.1,205.4c0.6-0.6,1.3-1.1,2-1.4c0.7-0.3,1.5-0.5,2.3-0.5c0.6,0,1.2,0.1,1.7,0.3s0.9,0.5,1.2,0.9
				s0.5,0.8,0.7,1.4s0.2,1.1,0.2,1.8v7.7h-0.5c-0.2,0-0.4-0.1-0.4-0.3l-0.2-1.5c-0.3,0.3-0.6,0.6-1,0.9s-0.7,0.5-1,0.6
				c-0.3,0.2-0.7,0.3-1.1,0.4c-0.4,0.1-0.8,0.1-1.3,0.1c-0.4,0-0.8-0.1-1.2-0.2c-0.4-0.1-0.7-0.3-1-0.5c-0.3-0.2-0.5-0.6-0.7-0.9
				s-0.3-0.8-0.3-1.4c0-0.5,0.1-1,0.4-1.4c0.3-0.4,0.7-0.8,1.3-1.1s1.4-0.6,2.4-0.8s2.1-0.3,3.4-0.3v-1.2c0-1.1-0.2-1.9-0.7-2.5
				c-0.5-0.6-1.2-0.9-2.1-0.9c-0.6,0-1.1,0.1-1.5,0.2c-0.4,0.2-0.7,0.3-1,0.5c-0.3,0.2-0.5,0.4-0.7,0.5c-0.2,0.2-0.3,0.2-0.4,0.2
				c-0.1,0-0.2,0-0.2-0.1c-0.1,0-0.1-0.1-0.1-0.2L98.1,205.4z M105.1,209.9c-1.1,0-2.1,0.1-2.9,0.3c-0.8,0.1-1.5,0.3-2,0.6
				c-0.5,0.2-0.9,0.5-1.2,0.9c-0.3,0.3-0.4,0.7-0.4,1.1c0,0.4,0.1,0.7,0.2,1c0.1,0.3,0.3,0.5,0.5,0.7s0.5,0.3,0.8,0.4
				c0.3,0.1,0.6,0.1,0.9,0.1c0.5,0,0.9,0,1.3-0.1c0.4-0.1,0.7-0.2,1.1-0.4c0.3-0.2,0.6-0.4,0.9-0.6c0.3-0.2,0.6-0.5,0.8-0.8V209.9z"
				/>
			<path class="st4" d="M117.9,205.3c0,0-0.1,0.1-0.1,0.1c0,0-0.1,0-0.1,0c-0.1,0-0.2-0.1-0.3-0.2s-0.3-0.2-0.5-0.4
				c-0.2-0.1-0.5-0.2-0.9-0.4s-0.8-0.2-1.3-0.2c-0.7,0-1.3,0.1-1.8,0.4c-0.5,0.2-1,0.6-1.3,1c-0.4,0.5-0.6,1-0.8,1.6
				c-0.2,0.6-0.3,1.4-0.3,2.2c0,0.8,0.1,1.6,0.3,2.2s0.5,1.2,0.8,1.6s0.8,0.8,1.3,1c0.5,0.2,1.1,0.3,1.7,0.3c0.6,0,1-0.1,1.4-0.2
				s0.7-0.3,1-0.4c0.2-0.2,0.4-0.3,0.6-0.4c0.1-0.1,0.3-0.2,0.4-0.2s0.2,0,0.2,0.1l0.3,0.4c-0.2,0.2-0.4,0.5-0.7,0.7
				s-0.6,0.4-0.9,0.5c-0.3,0.2-0.7,0.3-1.1,0.4c-0.4,0.1-0.8,0.1-1.3,0.1c-0.8,0-1.4-0.1-2.1-0.4c-0.6-0.3-1.2-0.7-1.6-1.2
				s-0.8-1.2-1-1.9c-0.2-0.8-0.4-1.6-0.4-2.6c0-0.9,0.1-1.7,0.4-2.5c0.2-0.7,0.6-1.4,1-1.9c0.5-0.5,1-1,1.7-1.3
				c0.7-0.3,1.4-0.4,2.3-0.4c0.8,0,1.5,0.1,2,0.4c0.6,0.2,1.1,0.6,1.6,1L117.9,205.3z"/>
			<path class="st4" d="M131,215.6h-1.1V205H123v8c0,0.3,0,0.6,0.1,0.8s0.2,0.4,0.3,0.6c0.1,0.2,0.3,0.3,0.5,0.3s0.4,0.1,0.6,0.1
				c0.3,0,0.5,0,0.7-0.1c0.2-0.1,0.4-0.2,0.5-0.3c0.2-0.1,0.3-0.2,0.4-0.3c0.1-0.1,0.2-0.1,0.2-0.1c0.1,0,0.1,0,0.2,0.1l0.3,0.5
				c-0.3,0.3-0.7,0.6-1.1,0.8c-0.5,0.2-0.9,0.3-1.4,0.3c-0.8,0-1.4-0.2-1.9-0.7s-0.7-1.1-0.7-2.1V205h-1.7c-0.1,0-0.2,0-0.2-0.1
				c-0.1,0-0.1-0.1-0.1-0.2v-0.4l2-0.1l0.3-4.2c0-0.1,0-0.1,0.1-0.2c0-0.1,0.1-0.1,0.2-0.1h0.5v4.5h8V215.6z M131.5,199.5
				c0,0.1,0,0.3-0.1,0.4s-0.1,0.2-0.2,0.3c-0.1,0.1-0.2,0.2-0.3,0.2c-0.1,0.1-0.3,0.1-0.4,0.1c-0.1,0-0.3,0-0.4-0.1
				c-0.1-0.1-0.2-0.1-0.3-0.2c-0.1-0.1-0.2-0.2-0.2-0.3c-0.1-0.1-0.1-0.3-0.1-0.4c0-0.1,0-0.3,0.1-0.4c0.1-0.1,0.1-0.2,0.2-0.3
				c0.1-0.1,0.2-0.2,0.3-0.2c0.1-0.1,0.3-0.1,0.4-0.1c0.1,0,0.3,0,0.4,0.1c0.1,0.1,0.2,0.1,0.3,0.2c0.1,0.1,0.2,0.2,0.2,0.3
				S131.5,199.4,131.5,199.5z"/>
			<path class="st4" d="M139.7,203.6c0.8,0,1.6,0.1,2.3,0.4c0.7,0.3,1.2,0.7,1.7,1.2c0.5,0.5,0.8,1.2,1.1,1.9
				c0.2,0.8,0.4,1.6,0.4,2.5c0,0.9-0.1,1.8-0.4,2.5s-0.6,1.4-1.1,1.9s-1,0.9-1.7,1.2s-1.4,0.4-2.3,0.4c-0.8,0-1.6-0.1-2.3-0.4
				s-1.2-0.7-1.7-1.2c-0.5-0.5-0.8-1.2-1.1-1.9c-0.2-0.7-0.4-1.6-0.4-2.5c0-0.9,0.1-1.8,0.4-2.5c0.2-0.7,0.6-1.4,1.1-1.9
				c0.5-0.5,1-0.9,1.7-1.2C138.1,203.7,138.9,203.6,139.7,203.6z M139.7,214.9c0.7,0,1.3-0.1,1.9-0.4c0.5-0.2,1-0.6,1.3-1
				s0.6-1,0.8-1.6c0.2-0.6,0.3-1.4,0.3-2.1c0-0.8-0.1-1.5-0.3-2.1c-0.2-0.6-0.4-1.2-0.8-1.6s-0.8-0.8-1.3-1.1
				c-0.5-0.2-1.1-0.4-1.9-0.4s-1.3,0.1-1.9,0.4c-0.5,0.2-1,0.6-1.3,1.1s-0.6,1-0.8,1.6c-0.2,0.6-0.3,1.4-0.3,2.1
				c0,0.8,0.1,1.5,0.3,2.1c0.2,0.6,0.4,1.2,0.8,1.6s0.8,0.8,1.3,1C138.4,214.7,139,214.9,139.7,214.9z"/>
			<path class="st4" d="M149.4,205.8c0.5-0.7,1.2-1.2,1.9-1.6c0.7-0.4,1.5-0.6,2.4-0.6c0.7,0,1.2,0.1,1.7,0.3
				c0.5,0.2,0.9,0.5,1.2,0.9s0.6,0.9,0.7,1.4c0.2,0.5,0.2,1.2,0.2,1.9v7.6h-1.1V208c0-1.1-0.3-2-0.8-2.6s-1.3-0.9-2.3-0.9
				c-0.8,0-1.5,0.2-2.2,0.6c-0.7,0.4-1.3,0.9-1.8,1.6v8.9h-1.1v-11.8h0.6c0.2,0,0.3,0.1,0.3,0.3L149.4,205.8z"/>
			<path class="st4" d="M31.6,233.2c-0.1,0.1-0.2,0.2-0.3,0.2c-0.1,0-0.2,0-0.3-0.1c-0.1-0.1-0.3-0.2-0.5-0.3s-0.5-0.2-0.8-0.3
				c-0.3-0.1-0.7-0.1-1.2-0.1c-0.4,0-0.8,0.1-1.2,0.2c-0.4,0.1-0.7,0.3-0.9,0.5c-0.2,0.2-0.4,0.4-0.6,0.7c-0.1,0.3-0.2,0.6-0.2,0.9
				c0,0.4,0.1,0.7,0.3,0.9s0.4,0.5,0.7,0.6c0.3,0.2,0.7,0.3,1.1,0.5c0.4,0.1,0.8,0.3,1.2,0.4c0.4,0.1,0.8,0.3,1.2,0.4
				c0.4,0.2,0.7,0.3,1.1,0.6c0.3,0.2,0.6,0.5,0.7,0.8s0.3,0.7,0.3,1.2c0,0.5-0.1,1-0.3,1.4s-0.5,0.8-0.8,1.2s-0.8,0.6-1.3,0.8
				s-1.1,0.3-1.8,0.3c-0.8,0-1.6-0.1-2.2-0.4c-0.6-0.3-1.1-0.6-1.6-1l0.3-0.4c0-0.1,0.1-0.1,0.1-0.1c0.1,0,0.1,0,0.2,0
				c0.1,0,0.2,0.1,0.4,0.2c0.1,0.1,0.3,0.3,0.6,0.4s0.5,0.3,0.9,0.4c0.4,0.1,0.8,0.2,1.3,0.2c0.5,0,0.9-0.1,1.3-0.2
				c0.4-0.1,0.7-0.3,1-0.6s0.4-0.5,0.6-0.8s0.2-0.7,0.2-1c0-0.4-0.1-0.7-0.3-1c-0.2-0.3-0.4-0.5-0.8-0.7c-0.3-0.2-0.7-0.3-1.1-0.5
				s-0.8-0.3-1.2-0.4c-0.4-0.1-0.8-0.3-1.2-0.4c-0.4-0.2-0.7-0.3-1.1-0.6c-0.3-0.2-0.6-0.5-0.7-0.8c-0.2-0.3-0.3-0.7-0.3-1.2
				c0-0.4,0.1-0.8,0.3-1.2c0.2-0.4,0.4-0.7,0.8-1c0.3-0.3,0.7-0.5,1.2-0.7c0.5-0.2,1-0.3,1.6-0.3c0.7,0,1.4,0.1,1.9,0.3
				c0.6,0.2,1.1,0.5,1.5,1L31.6,233.2z"/>
			<path class="st4" d="M43.2,233.3c0,0-0.1,0.1-0.1,0.1c0,0-0.1,0-0.1,0c-0.1,0-0.2-0.1-0.3-0.2s-0.3-0.2-0.5-0.4
				c-0.2-0.1-0.5-0.2-0.9-0.4s-0.8-0.2-1.3-0.2c-0.7,0-1.3,0.1-1.8,0.4c-0.5,0.2-1,0.6-1.3,1c-0.4,0.5-0.6,1-0.8,1.6
				c-0.2,0.6-0.3,1.4-0.3,2.2c0,0.8,0.1,1.6,0.3,2.2s0.5,1.2,0.8,1.6s0.8,0.8,1.3,1c0.5,0.2,1.1,0.3,1.7,0.3c0.6,0,1-0.1,1.4-0.2
				s0.7-0.3,1-0.4c0.2-0.2,0.4-0.3,0.6-0.4c0.1-0.1,0.3-0.2,0.4-0.2s0.2,0,0.2,0.1l0.3,0.4c-0.2,0.2-0.4,0.5-0.7,0.7
				s-0.6,0.4-0.9,0.5c-0.3,0.2-0.7,0.3-1.1,0.4c-0.4,0.1-0.8,0.1-1.3,0.1c-0.8,0-1.4-0.1-2.1-0.4c-0.6-0.3-1.2-0.7-1.6-1.2
				s-0.8-1.2-1-1.9c-0.2-0.8-0.4-1.6-0.4-2.6c0-0.9,0.1-1.7,0.4-2.5c0.2-0.7,0.6-1.4,1-1.9c0.5-0.5,1-1,1.7-1.3
				c0.7-0.3,1.4-0.4,2.3-0.4c0.8,0,1.5,0.1,2,0.4c0.6,0.2,1.1,0.6,1.6,1L43.2,233.3z"/>
			<path class="st4" d="M50.9,231.6c0.8,0,1.6,0.1,2.3,0.4c0.7,0.3,1.2,0.7,1.7,1.2c0.5,0.5,0.8,1.2,1.1,1.9
				c0.2,0.8,0.4,1.6,0.4,2.5c0,0.9-0.1,1.8-0.4,2.5s-0.6,1.4-1.1,1.9s-1,0.9-1.7,1.2s-1.4,0.4-2.3,0.4c-0.8,0-1.6-0.1-2.3-0.4
				s-1.2-0.7-1.7-1.2c-0.5-0.5-0.8-1.2-1.1-1.9c-0.2-0.7-0.4-1.6-0.4-2.5c0-0.9,0.1-1.8,0.4-2.5c0.2-0.7,0.6-1.4,1.1-1.9
				c0.5-0.5,1-0.9,1.7-1.2C49.3,231.7,50.1,231.6,50.9,231.6z M50.9,242.9c0.7,0,1.3-0.1,1.9-0.4c0.5-0.2,1-0.6,1.3-1s0.6-1,0.8-1.6
				c0.2-0.6,0.3-1.4,0.3-2.1c0-0.8-0.1-1.5-0.3-2.1c-0.2-0.6-0.4-1.2-0.8-1.6s-0.8-0.8-1.3-1.1c-0.5-0.2-1.1-0.4-1.9-0.4
				s-1.3,0.1-1.9,0.4c-0.5,0.2-1,0.6-1.3,1.1s-0.6,1-0.8,1.6c-0.2,0.6-0.3,1.4-0.3,2.1c0,0.8,0.1,1.5,0.3,2.1
				c0.2,0.6,0.4,1.2,0.8,1.6s0.8,0.8,1.3,1C49.6,242.7,50.2,242.9,50.9,242.9z"/>
			<path class="st4" d="M60.6,234.6c0.2-0.5,0.4-0.9,0.6-1.3s0.5-0.7,0.8-1c0.3-0.3,0.6-0.5,1-0.6c0.4-0.1,0.8-0.2,1.3-0.2
				c0.2,0,0.5,0,0.7,0.1c0.2,0,0.4,0.1,0.6,0.2l-0.1,0.8c0,0.1-0.1,0.2-0.2,0.2c-0.1,0-0.2,0-0.4-0.1s-0.5-0.1-0.8-0.1
				c-0.5,0-0.9,0.1-1.2,0.2s-0.7,0.3-1,0.6c-0.3,0.3-0.5,0.6-0.7,1c-0.2,0.4-0.4,0.9-0.6,1.4v7.7h-1.1v-11.8h0.6
				c0.1,0,0.2,0,0.3,0.1c0.1,0.1,0.1,0.2,0.1,0.3L60.6,234.6z"/>
			<path class="st4" d="M67.7,237.2v0.2c0,0.9,0.1,1.7,0.3,2.3c0.2,0.7,0.5,1.2,0.9,1.7s0.8,0.8,1.4,1c0.5,0.2,1.1,0.3,1.8,0.3
				c0.6,0,1.1-0.1,1.5-0.2c0.4-0.1,0.8-0.3,1.1-0.4c0.3-0.2,0.5-0.3,0.7-0.4c0.2-0.1,0.3-0.2,0.4-0.2c0.1,0,0.2,0,0.2,0.1l0.3,0.4
				c-0.2,0.2-0.4,0.5-0.8,0.7s-0.7,0.4-1,0.5c-0.4,0.1-0.8,0.3-1.2,0.4c-0.4,0.1-0.9,0.1-1.3,0.1c-0.8,0-1.5-0.1-2.2-0.4
				c-0.7-0.3-1.2-0.7-1.7-1.2c-0.5-0.5-0.8-1.2-1.1-2s-0.4-1.7-0.4-2.7c0-0.8,0.1-1.6,0.4-2.4c0.2-0.7,0.6-1.3,1-1.9
				c0.5-0.5,1-0.9,1.7-1.2c0.7-0.3,1.4-0.4,2.3-0.4c0.7,0,1.3,0.1,1.9,0.3c0.6,0.2,1.1,0.6,1.5,1c0.4,0.4,0.8,1,1,1.6
				c0.2,0.6,0.4,1.4,0.4,2.2c0,0.2,0,0.3-0.1,0.4c0,0.1-0.1,0.1-0.2,0.1H67.7z M75.6,236.5c0-0.6-0.1-1.2-0.3-1.7
				c-0.2-0.5-0.4-0.9-0.8-1.3c-0.3-0.3-0.7-0.6-1.2-0.8s-0.9-0.3-1.5-0.3c-0.6,0-1.2,0.1-1.6,0.3c-0.5,0.2-0.9,0.5-1.3,0.8
				c-0.4,0.4-0.6,0.8-0.9,1.3c-0.2,0.5-0.4,1.1-0.4,1.7H75.6z"/>
			<path class="st4" d="M86.2,233.2c-0.1,0.1-0.2,0.2-0.3,0.2c-0.1,0-0.2,0-0.3-0.1c-0.1-0.1-0.3-0.2-0.5-0.3s-0.5-0.2-0.8-0.3
				c-0.3-0.1-0.7-0.1-1.2-0.1c-0.4,0-0.8,0.1-1.2,0.2c-0.4,0.1-0.7,0.3-0.9,0.5c-0.2,0.2-0.4,0.4-0.6,0.7c-0.1,0.3-0.2,0.6-0.2,0.9
				c0,0.4,0.1,0.7,0.3,0.9s0.4,0.5,0.7,0.6c0.3,0.2,0.7,0.3,1.1,0.5c0.4,0.1,0.8,0.3,1.2,0.4c0.4,0.1,0.8,0.3,1.2,0.4
				c0.4,0.2,0.7,0.3,1.1,0.6c0.3,0.2,0.6,0.5,0.7,0.8s0.3,0.7,0.3,1.2c0,0.5-0.1,1-0.3,1.4s-0.5,0.8-0.8,1.2s-0.8,0.6-1.3,0.8
				s-1.1,0.3-1.8,0.3c-0.8,0-1.6-0.1-2.2-0.4c-0.6-0.3-1.1-0.6-1.6-1l0.3-0.4c0-0.1,0.1-0.1,0.1-0.1c0.1,0,0.1,0,0.2,0
				c0.1,0,0.2,0.1,0.4,0.2c0.1,0.1,0.3,0.3,0.6,0.4s0.5,0.3,0.9,0.4c0.4,0.1,0.8,0.2,1.3,0.2c0.5,0,0.9-0.1,1.3-0.2
				c0.4-0.1,0.7-0.3,1-0.6s0.4-0.5,0.6-0.8s0.2-0.7,0.2-1c0-0.4-0.1-0.7-0.3-1c-0.2-0.3-0.4-0.5-0.8-0.7c-0.3-0.2-0.7-0.3-1.1-0.5
				s-0.8-0.3-1.2-0.4c-0.4-0.1-0.8-0.3-1.2-0.4c-0.4-0.2-0.7-0.3-1.1-0.6c-0.3-0.2-0.6-0.5-0.7-0.8c-0.2-0.3-0.3-0.7-0.3-1.2
				c0-0.4,0.1-0.8,0.3-1.2c0.2-0.4,0.4-0.7,0.8-1c0.3-0.3,0.7-0.5,1.2-0.7c0.5-0.2,1-0.3,1.6-0.3c0.7,0,1.4,0.1,1.9,0.3
				c0.6,0.2,1.1,0.5,1.5,1L86.2,233.2z"/>
			<path class="st4" d="M95.9,233.4c0.6-0.6,1.3-1.1,2-1.4c0.7-0.3,1.5-0.5,2.3-0.5c0.6,0,1.2,0.1,1.7,0.3s0.9,0.5,1.2,0.9
				s0.5,0.8,0.7,1.4s0.2,1.1,0.2,1.8v7.7h-0.5c-0.2,0-0.4-0.1-0.4-0.3l-0.2-1.5c-0.3,0.3-0.6,0.6-1,0.9s-0.7,0.5-1,0.6
				c-0.3,0.2-0.7,0.3-1.1,0.4c-0.4,0.1-0.8,0.1-1.3,0.1c-0.4,0-0.8-0.1-1.2-0.2c-0.4-0.1-0.7-0.3-1-0.5c-0.3-0.2-0.5-0.6-0.7-0.9
				s-0.3-0.8-0.3-1.4c0-0.5,0.1-1,0.4-1.4c0.3-0.4,0.7-0.8,1.3-1.1s1.4-0.6,2.4-0.8s2.1-0.3,3.4-0.3v-1.2c0-1.1-0.2-1.9-0.7-2.5
				c-0.5-0.6-1.2-0.9-2.1-0.9c-0.6,0-1.1,0.1-1.5,0.2c-0.4,0.2-0.7,0.3-1,0.5c-0.3,0.2-0.5,0.4-0.7,0.5c-0.2,0.2-0.3,0.2-0.4,0.2
				c-0.1,0-0.2,0-0.2-0.1c-0.1,0-0.1-0.1-0.1-0.2L95.9,233.4z M102.9,237.9c-1.1,0-2.1,0.1-2.9,0.3c-0.8,0.1-1.5,0.3-2,0.6
				c-0.5,0.2-0.9,0.5-1.2,0.9c-0.3,0.3-0.4,0.7-0.4,1.1c0,0.4,0.1,0.7,0.2,1c0.1,0.3,0.3,0.5,0.5,0.7s0.5,0.3,0.8,0.4
				c0.3,0.1,0.6,0.1,0.9,0.1c0.5,0,0.9,0,1.3-0.1c0.4-0.1,0.7-0.2,1.1-0.4c0.3-0.2,0.6-0.4,0.9-0.6c0.3-0.2,0.6-0.5,0.8-0.8V237.9z"
				/>
			<path class="st4" d="M110.9,243.8c-0.8,0-1.4-0.2-1.9-0.7s-0.7-1.1-0.7-2.1V233h-1.7c-0.1,0-0.2,0-0.2-0.1
				c-0.1,0-0.1-0.1-0.1-0.2v-0.4l2-0.1l0.3-4.2c0-0.1,0-0.1,0.1-0.2c0-0.1,0.1-0.1,0.2-0.1h0.5v4.5h6.4l0.3-4.2c0-0.1,0-0.1,0.1-0.2
				c0-0.1,0.1-0.1,0.2-0.1h0.5v4.5h3.7v0.8H117v8c0,0.3,0,0.6,0.1,0.8c0.1,0.2,0.2,0.4,0.3,0.6c0.1,0.2,0.3,0.3,0.5,0.3
				s0.4,0.1,0.6,0.1c0.3,0,0.5,0,0.7-0.1c0.2-0.1,0.4-0.2,0.5-0.3c0.2-0.1,0.3-0.2,0.4-0.3c0.1-0.1,0.2-0.1,0.2-0.1
				c0.1,0,0.1,0,0.2,0.1l0.3,0.5c-0.3,0.3-0.7,0.6-1.1,0.8c-0.5,0.2-0.9,0.3-1.4,0.3c-0.8,0-1.4-0.2-1.9-0.7
				c-0.4-0.4-0.7-1.1-0.7-2.1V233h-6.4v8c0,0.3,0,0.6,0.1,0.8s0.2,0.4,0.3,0.6c0.1,0.2,0.3,0.3,0.5,0.3s0.4,0.1,0.6,0.1
				c0.3,0,0.5,0,0.7-0.1c0.2-0.1,0.4-0.2,0.5-0.3c0.2-0.1,0.3-0.2,0.4-0.3c0.1-0.1,0.2-0.1,0.2-0.1c0.1,0,0.1,0,0.2,0.1l0.3,0.5
				c-0.3,0.3-0.7,0.6-1.1,0.8C111.9,243.7,111.4,243.8,110.9,243.8z"/>
			<path class="st4" d="M123,233.4c0.6-0.6,1.3-1.1,2-1.4c0.7-0.3,1.5-0.5,2.3-0.5c0.6,0,1.2,0.1,1.7,0.3s0.9,0.5,1.2,0.9
				s0.5,0.8,0.7,1.4s0.2,1.1,0.2,1.8v7.7h-0.5c-0.2,0-0.4-0.1-0.4-0.3l-0.2-1.5c-0.3,0.3-0.6,0.6-1,0.9s-0.7,0.5-1,0.6
				c-0.3,0.2-0.7,0.3-1.1,0.4c-0.4,0.1-0.8,0.1-1.3,0.1c-0.4,0-0.8-0.1-1.2-0.2c-0.4-0.1-0.7-0.3-1-0.5c-0.3-0.2-0.5-0.6-0.7-0.9
				s-0.3-0.8-0.3-1.4c0-0.5,0.1-1,0.4-1.4c0.3-0.4,0.7-0.8,1.3-1.1s1.4-0.6,2.4-0.8s2.1-0.3,3.4-0.3v-1.2c0-1.1-0.2-1.9-0.7-2.5
				c-0.5-0.6-1.2-0.9-2.1-0.9c-0.6,0-1.1,0.1-1.5,0.2c-0.4,0.2-0.7,0.3-1,0.5c-0.3,0.2-0.5,0.4-0.7,0.5c-0.2,0.2-0.3,0.2-0.4,0.2
				c-0.1,0-0.2,0-0.2-0.1c-0.1,0-0.1-0.1-0.1-0.2L123,233.4z M130,237.9c-1.1,0-2.1,0.1-2.9,0.3c-0.8,0.1-1.5,0.3-2,0.6
				c-0.5,0.2-0.9,0.5-1.2,0.9c-0.3,0.3-0.4,0.7-0.4,1.1c0,0.4,0.1,0.7,0.2,1c0.1,0.3,0.3,0.5,0.5,0.7s0.5,0.3,0.8,0.4
				c0.3,0.1,0.6,0.1,0.9,0.1c0.5,0,0.9,0,1.3-0.1c0.4-0.1,0.7-0.2,1.1-0.4c0.3-0.2,0.6-0.4,0.9-0.6c0.3-0.2,0.6-0.5,0.8-0.8V237.9z"
				/>
			<path class="st4" d="M136.6,227.7c0,0.1,0,0.3-0.1,0.4s-0.1,0.2-0.2,0.3c-0.1,0.1-0.2,0.2-0.3,0.2s-0.3,0.1-0.4,0.1
				c-0.1,0-0.3,0-0.4-0.1s-0.2-0.1-0.3-0.2c-0.1-0.1-0.2-0.2-0.2-0.3c-0.1-0.1-0.1-0.3-0.1-0.4c0-0.1,0-0.3,0.1-0.4
				c0.1-0.1,0.1-0.2,0.2-0.3s0.2-0.2,0.3-0.2c0.1-0.1,0.3-0.1,0.4-0.1c0.1,0,0.3,0,0.4,0.1c0.1,0.1,0.2,0.1,0.3,0.2
				c0.1,0.1,0.2,0.2,0.2,0.3S136.6,227.5,136.6,227.7z M136.1,231.7v11.8H135v-11.8H136.1z"/>
			<path class="st4" d="M141.2,233.8c0.5-0.7,1.2-1.2,1.9-1.6c0.7-0.4,1.5-0.6,2.4-0.6c0.7,0,1.2,0.1,1.7,0.3
				c0.5,0.2,0.9,0.5,1.2,0.9s0.6,0.9,0.7,1.4c0.2,0.5,0.2,1.2,0.2,1.9v7.6h-1.1V236c0-1.1-0.3-2-0.8-2.6s-1.3-0.9-2.3-0.9
				c-0.8,0-1.5,0.2-2.2,0.6c-0.7,0.4-1.3,0.9-1.8,1.6v8.9h-1.1v-11.8h0.6c0.2,0,0.3,0.1,0.3,0.3L141.2,233.8z"/>
			<path class="st4" d="M153.6,237.2v0.2c0,0.9,0.1,1.7,0.3,2.3c0.2,0.7,0.5,1.2,0.9,1.7s0.8,0.8,1.4,1c0.5,0.2,1.1,0.3,1.8,0.3
				c0.6,0,1.1-0.1,1.5-0.2c0.4-0.1,0.8-0.3,1.1-0.4c0.3-0.2,0.5-0.3,0.7-0.4c0.2-0.1,0.3-0.2,0.4-0.2c0.1,0,0.2,0,0.2,0.1l0.3,0.4
				c-0.2,0.2-0.4,0.5-0.8,0.7s-0.7,0.4-1,0.5c-0.4,0.1-0.8,0.3-1.2,0.4c-0.4,0.1-0.9,0.1-1.3,0.1c-0.8,0-1.5-0.1-2.2-0.4
				c-0.7-0.3-1.2-0.7-1.7-1.2c-0.5-0.5-0.8-1.2-1.1-2s-0.4-1.7-0.4-2.7c0-0.8,0.1-1.6,0.4-2.4c0.2-0.7,0.6-1.3,1-1.9
				c0.5-0.5,1-0.9,1.7-1.2c0.7-0.3,1.4-0.4,2.3-0.4c0.7,0,1.3,0.1,1.9,0.3c0.6,0.2,1.1,0.6,1.5,1c0.4,0.4,0.8,1,1,1.6
				c0.2,0.6,0.4,1.4,0.4,2.2c0,0.2,0,0.3-0.1,0.4c0,0.1-0.1,0.1-0.2,0.1H153.6z M161.5,236.5c0-0.6-0.1-1.2-0.3-1.7
				c-0.2-0.5-0.4-0.9-0.8-1.3c-0.3-0.3-0.7-0.6-1.2-0.8s-0.9-0.3-1.5-0.3c-0.6,0-1.2,0.1-1.6,0.3c-0.5,0.2-0.9,0.5-1.3,0.8
				c-0.4,0.4-0.6,0.8-0.9,1.3c-0.2,0.5-0.4,1.1-0.4,1.7H161.5z"/>
			<path class="st4" d="M174.9,226.3v17.3h-0.6c-0.2,0-0.3-0.1-0.4-0.3l-0.1-1.9c-0.5,0.7-1.1,1.3-1.8,1.7s-1.5,0.6-2.4,0.6
				c-1.5,0-2.6-0.5-3.4-1.5c-0.8-1-1.2-2.5-1.2-4.5c0-0.9,0.1-1.7,0.3-2.4c0.2-0.8,0.6-1.4,1-2c0.4-0.6,1-1,1.6-1.3s1.4-0.5,2.2-0.5
				c0.8,0,1.5,0.1,2.1,0.4c0.6,0.3,1.1,0.7,1.5,1.3v-7H174.9z M173.7,234.3c-0.5-0.7-1-1.2-1.5-1.4c-0.6-0.3-1.2-0.4-1.9-0.4
				c-0.7,0-1.3,0.1-1.8,0.4s-1,0.6-1.3,1.1s-0.6,1-0.8,1.7c-0.2,0.6-0.3,1.4-0.3,2.1c0,1.8,0.3,3.1,1,3.9s1.6,1.2,2.8,1.2
				c0.8,0,1.5-0.2,2.1-0.6s1.2-1,1.7-1.7V234.3z"/>
		</g>
	</g>
</g>
</svg>
