<?xml version="1.0" encoding="utf-8"?>
<!-- Generator: Adobe Illustrator 19.2.0, SVG Export Plug-In . SVG Version: 6.00 Build 0)  -->
<svg version="1.1" xmlns="http://www.w3.org/2000/svg" xmlns:xlink="http://www.w3.org/1999/xlink" x="0px" y="0px"
	 viewBox="0 0 200 302.9" style="enable-background:new 0 0 200 302.9;" xml:space="preserve">
<style type="text/css">
	.st0{fill:#1E2D33;}
	.st1{clip-path:url(#SVGID_2_);}
	.st2{clip-path:url(#SVGID_4_);fill:#E63A2F;}
	.st3{fill:none;stroke:#1E2D33;stroke-miterlimit:10;}
	.st4{fill:#132A32;}
</style>
<g id="Layer_1">
</g>
<g id="Layer_2">
	<rect x="-1537.8" y="610.6" style="fill:none;" width="221.3" height="226.2"/>
	<text transform="matrix(1 0 0 1 -1488.7961 627.9839)"><tspan x="0" y="0" class="st0" style="font-family:'Lato-Light'; font-size:23.8003px;">reduction in </tspan><tspan x="-26.3" y="28" class="st0" style="font-family:'Lato-Light'; font-size:23.8003px;">complaints about </tspan><tspan x="6.2" y="56" class="st0" style="font-family:'Lato-Light'; font-size:23.8003px;">cabin crew</tspan></text>
	<g>
		<defs>
			<path id="SVGID_1_" d="M-1416.4,411.4l-10.8,8.8l-10.8-8.8c-1.2-1-2.9-0.8-3.9,0.4c-1,1.2-0.8,3,0.4,4l14.3,11.7l14.3-11.7
				c0.7-0.6,1-1.4,1-2.2c0-0.6-0.2-1.3-0.6-1.8C-1413.4,410.6-1415.2,410.4-1416.4,411.4"/>
		</defs>
		<use xlink:href="#SVGID_1_"  style="overflow:visible;fill-rule:evenodd;clip-rule:evenodd;fill:#E63A2F;"/>
		<clipPath id="SVGID_2_">
			<use xlink:href="#SVGID_1_"  style="overflow:visible;"/>
		</clipPath>
		<g class="st1">
			<defs>
				<rect id="SVGID_3_" x="-1464.7" y="-524.4" width="3351" height="1024"/>
			</defs>
			<use xlink:href="#SVGID_3_"  style="overflow:visible;fill:#E63A2F;"/>
			<clipPath id="SVGID_4_">
				<use xlink:href="#SVGID_3_"  style="overflow:visible;"/>
			</clipPath>
			<rect x="-1447.4" y="405.8" class="st2" width="40.6" height="26.8"/>
		</g>
	</g>
	<text transform="matrix(1 0 0 1 -1489.2404 512.9984)"><tspan x="0" y="0" class="st0" style="font-family:'Lato-Heavy'; font-size:82.7683px;">20</tspan><tspan x="96" y="0" class="st0" style="font-family:'Lato-Heavy'; font-size:42.562px;">%</tspan></text>
	<circle class="st3" cx="-1427.1" cy="480.3" r="86.3"/>
	<g>
		<g>
			<path class="st4" d="M125.4,97.8v9.3c0,0.9-0.3,1.6-0.9,2.2c-0.6,0.6-1.4,0.9-2.4,0.9h-6.7v20.6h-14.3v-20.6H65.3
				c-1,0-2-0.3-2.8-1c-0.9-0.6-1.4-1.5-1.6-2.5l-1.7-8.2l40.6-54.4h15.6v53.6H125.4z M101.1,97.8V72c0-1.4,0-2.8,0.1-4.3
				c0.1-1.5,0.2-3.1,0.4-4.8L76.6,97.8H101.1z"/>
		</g>
		<g>
			<path class="st4" d="M100.1,173.5c-47.8,0-86.8-38.9-86.8-86.8S52.3,0,100.1,0s86.8,38.9,86.8,86.8S148,173.5,100.1,173.5z
				 M100.1,1C52.8,1,14.3,39.5,14.3,86.8s38.5,85.8,85.8,85.8s85.8-38.5,85.8-85.8S147.4,1,100.1,1z"/>
		</g>
		<g>
			<path class="st4" d="M22,204.3v0.4c0,0.2-0.1,0.3-0.3,0.3l-1.8,0.1c0.2,0.3,0.4,0.6,0.5,1c0.1,0.4,0.2,0.8,0.2,1.2
				c0,0.6-0.1,1.1-0.3,1.6c-0.2,0.5-0.5,0.9-0.9,1.2c-0.4,0.3-0.8,0.6-1.3,0.8c-0.5,0.2-1.1,0.3-1.7,0.3c-0.7,0-1.3-0.1-1.8-0.3
				c-0.3,0.2-0.6,0.4-0.8,0.7s-0.3,0.5-0.3,0.8c0,0.3,0.1,0.6,0.4,0.8c0.2,0.2,0.6,0.3,1,0.4c0.4,0.1,0.8,0.1,1.3,0.2
				c0.5,0,1,0,1.5,0.1c0.5,0,1,0.1,1.5,0.1c0.5,0.1,1,0.2,1.3,0.4c0.4,0.2,0.7,0.4,1,0.7s0.4,0.7,0.4,1.3c0,0.5-0.1,1-0.4,1.4
				s-0.6,0.9-1.1,1.2c-0.5,0.3-1,0.6-1.7,0.8c-0.7,0.2-1.4,0.3-2.2,0.3c-0.8,0-1.6-0.1-2.2-0.3c-0.6-0.2-1.2-0.4-1.6-0.7
				c-0.4-0.3-0.7-0.6-1-1s-0.3-0.8-0.3-1.2c0-0.6,0.2-1.2,0.6-1.6c0.4-0.4,1-0.8,1.7-1.1c-0.4-0.1-0.7-0.3-1-0.6s-0.4-0.6-0.4-1.1
				c0-0.2,0-0.3,0.1-0.5c0.1-0.2,0.2-0.4,0.3-0.5s0.3-0.3,0.5-0.5c0.2-0.2,0.4-0.3,0.6-0.4c-0.6-0.3-1-0.8-1.3-1.3
				c-0.3-0.5-0.5-1.2-0.5-1.9c0-0.6,0.1-1.1,0.3-1.6c0.2-0.5,0.5-0.9,0.9-1.2c0.4-0.3,0.8-0.6,1.3-0.8c0.5-0.2,1.1-0.3,1.7-0.3
				c0.5,0,1,0.1,1.4,0.2s0.8,0.3,1.2,0.5H22z M20.7,216.4c0-0.4-0.1-0.7-0.3-0.9c-0.2-0.2-0.5-0.4-0.8-0.5c-0.3-0.1-0.7-0.2-1.1-0.3
				c-0.4-0.1-0.9-0.1-1.3-0.1c-0.5,0-0.9,0-1.4-0.1c-0.5,0-0.9-0.1-1.3-0.1c-0.3,0.1-0.6,0.3-0.8,0.4c-0.3,0.2-0.5,0.3-0.7,0.5
				s-0.3,0.4-0.4,0.6c-0.1,0.2-0.2,0.5-0.2,0.8c0,0.3,0.1,0.7,0.3,1c0.2,0.3,0.4,0.6,0.8,0.8c0.3,0.2,0.8,0.4,1.3,0.5
				s1.1,0.2,1.7,0.2c0.6,0,1.2-0.1,1.7-0.2s1-0.3,1.4-0.6s0.7-0.5,0.9-0.9C20.6,217.2,20.7,216.8,20.7,216.4z M16.3,210.4
				c0.5,0,1-0.1,1.4-0.2c0.4-0.1,0.7-0.4,1-0.6c0.3-0.3,0.5-0.6,0.6-0.9s0.2-0.8,0.2-1.2s-0.1-0.9-0.2-1.2s-0.4-0.7-0.6-0.9
				s-0.6-0.5-1-0.6c-0.4-0.1-0.8-0.2-1.3-0.2c-0.5,0-0.9,0.1-1.3,0.2c-0.4,0.1-0.7,0.3-1,0.6s-0.5,0.6-0.6,0.9
				c-0.1,0.4-0.2,0.8-0.2,1.2s0.1,0.8,0.2,1.2c0.1,0.4,0.4,0.7,0.6,0.9c0.3,0.3,0.6,0.5,1,0.6S15.8,210.4,16.3,210.4z"/>
			<path class="st4" d="M25.8,198.3v17.3h-1.1v-17.3H25.8z"/>
			<path class="st4" d="M34.5,203.6c0.8,0,1.6,0.1,2.3,0.4c0.7,0.3,1.2,0.7,1.7,1.2c0.5,0.5,0.8,1.2,1.1,1.9
				c0.2,0.8,0.4,1.6,0.4,2.5c0,0.9-0.1,1.8-0.4,2.5s-0.6,1.4-1.1,1.9s-1,0.9-1.7,1.2c-0.7,0.3-1.4,0.4-2.3,0.4s-1.6-0.1-2.3-0.4
				c-0.7-0.3-1.2-0.7-1.7-1.2s-0.8-1.2-1.1-1.9s-0.4-1.6-0.4-2.5c0-0.9,0.1-1.8,0.4-2.5c0.2-0.7,0.6-1.4,1.1-1.9
				c0.5-0.5,1-0.9,1.7-1.2C32.9,203.7,33.7,203.6,34.5,203.6z M34.5,214.9c0.7,0,1.3-0.1,1.9-0.4c0.5-0.2,1-0.6,1.3-1
				c0.4-0.5,0.6-1,0.8-1.6c0.2-0.6,0.3-1.4,0.3-2.1c0-0.8-0.1-1.5-0.3-2.1c-0.2-0.6-0.4-1.2-0.8-1.6c-0.4-0.5-0.8-0.8-1.3-1.1
				c-0.5-0.2-1.1-0.4-1.9-0.4s-1.3,0.1-1.9,0.4s-1,0.6-1.3,1.1c-0.4,0.5-0.6,1-0.8,1.6s-0.3,1.4-0.3,2.1c0,0.8,0.1,1.5,0.3,2.1
				s0.4,1.2,0.8,1.6c0.4,0.5,0.8,0.8,1.3,1S33.8,214.9,34.5,214.9z"/>
			<path class="st4" d="M44.3,205.8c0.5-0.7,1.1-1.2,1.8-1.6c0.7-0.4,1.5-0.6,2.4-0.6c0.7,0,1.4,0.1,1.9,0.4c0.6,0.3,1,0.6,1.4,1.1
				c0.4,0.5,0.7,1.1,0.9,1.8c0.2,0.7,0.3,1.5,0.3,2.4c0,1-0.1,1.8-0.3,2.6c-0.2,0.8-0.6,1.5-1,2c-0.4,0.6-1,1-1.6,1.3
				c-0.6,0.3-1.4,0.5-2.2,0.5c-0.8,0-1.6-0.2-2.1-0.5s-1.1-0.8-1.5-1.4l-0.1,1.5c0,0.2-0.1,0.3-0.3,0.3h-0.7v-17.3h1.1V205.8z
				 M44.3,213c0.5,0.7,1,1.2,1.5,1.4c0.6,0.3,1.2,0.4,1.9,0.4c0.7,0,1.3-0.1,1.9-0.4c0.5-0.3,1-0.6,1.3-1.1c0.4-0.5,0.6-1,0.8-1.7
				c0.2-0.7,0.3-1.4,0.3-2.3c0-1.6-0.3-2.9-1-3.7c-0.7-0.8-1.6-1.2-2.7-1.2c-0.8,0-1.6,0.2-2.2,0.6c-0.6,0.4-1.2,1-1.7,1.7V213z"/>
			<path class="st4" d="M55.9,205.4c0.6-0.6,1.3-1.1,2-1.4s1.5-0.5,2.3-0.5c0.6,0,1.2,0.1,1.7,0.3c0.5,0.2,0.9,0.5,1.2,0.9
				s0.5,0.8,0.7,1.4c0.2,0.5,0.2,1.1,0.2,1.8v7.7h-0.5c-0.2,0-0.4-0.1-0.4-0.3l-0.2-1.5c-0.3,0.3-0.6,0.6-1,0.9s-0.7,0.5-1,0.6
				c-0.3,0.2-0.7,0.3-1.1,0.4c-0.4,0.1-0.8,0.1-1.3,0.1c-0.4,0-0.8-0.1-1.2-0.2c-0.4-0.1-0.7-0.3-1-0.5c-0.3-0.2-0.5-0.6-0.7-0.9
				s-0.3-0.8-0.3-1.4c0-0.5,0.1-1,0.4-1.4c0.3-0.4,0.7-0.8,1.3-1.1c0.6-0.3,1.4-0.6,2.3-0.8s2.1-0.3,3.4-0.3v-1.2
				c0-1.1-0.2-1.9-0.7-2.5c-0.5-0.6-1.2-0.9-2.1-0.9c-0.6,0-1.1,0.1-1.5,0.2c-0.4,0.2-0.7,0.3-1,0.5c-0.3,0.2-0.5,0.4-0.7,0.5
				c-0.2,0.2-0.3,0.2-0.4,0.2c-0.1,0-0.2,0-0.2-0.1c-0.1,0-0.1-0.1-0.1-0.2L55.9,205.4z M62.9,209.9c-1.1,0-2.1,0.1-2.9,0.3
				c-0.8,0.1-1.5,0.3-2,0.6c-0.5,0.2-0.9,0.5-1.2,0.9s-0.4,0.7-0.4,1.1c0,0.4,0.1,0.7,0.2,1c0.1,0.3,0.3,0.5,0.5,0.7
				c0.2,0.2,0.5,0.3,0.8,0.4c0.3,0.1,0.6,0.1,0.9,0.1c0.5,0,0.9,0,1.3-0.1c0.4-0.1,0.7-0.2,1.1-0.4c0.3-0.2,0.6-0.4,0.9-0.6
				s0.6-0.5,0.8-0.8V209.9z"/>
			<path class="st4" d="M69,198.3v17.3h-1.1v-17.3H69z"/>
			<path class="st4" d="M80.5,206.6c0.2-0.5,0.4-0.9,0.6-1.3c0.2-0.4,0.5-0.7,0.8-1c0.3-0.3,0.6-0.5,1-0.6c0.4-0.1,0.8-0.2,1.3-0.2
				c0.2,0,0.5,0,0.7,0.1c0.2,0,0.4,0.1,0.6,0.2l-0.1,0.8c0,0.1-0.1,0.2-0.2,0.2c-0.1,0-0.2,0-0.4-0.1s-0.5-0.1-0.8-0.1
				c-0.5,0-0.9,0.1-1.2,0.2c-0.4,0.1-0.7,0.3-1,0.6c-0.3,0.3-0.5,0.6-0.7,1c-0.2,0.4-0.4,0.9-0.6,1.4v7.7h-1.1v-11.8h0.6
				c0.1,0,0.2,0,0.3,0.1s0.1,0.2,0.1,0.3L80.5,206.6z"/>
			<path class="st4" d="M87.6,209.2v0.2c0,0.9,0.1,1.7,0.3,2.3c0.2,0.7,0.5,1.2,0.9,1.7s0.8,0.8,1.4,1c0.5,0.2,1.1,0.3,1.8,0.3
				c0.6,0,1.1-0.1,1.5-0.2c0.4-0.1,0.8-0.3,1.1-0.4c0.3-0.2,0.5-0.3,0.7-0.4c0.2-0.1,0.3-0.2,0.4-0.2c0.1,0,0.2,0,0.2,0.1l0.3,0.4
				c-0.2,0.2-0.4,0.5-0.8,0.7s-0.7,0.4-1,0.5c-0.4,0.1-0.8,0.3-1.2,0.4c-0.4,0.1-0.9,0.1-1.3,0.1c-0.8,0-1.5-0.1-2.2-0.4
				c-0.7-0.3-1.2-0.7-1.7-1.2c-0.5-0.5-0.8-1.2-1.1-2s-0.4-1.7-0.4-2.7c0-0.8,0.1-1.6,0.4-2.4c0.2-0.7,0.6-1.3,1-1.9
				c0.5-0.5,1-0.9,1.7-1.2c0.7-0.3,1.4-0.4,2.3-0.4c0.7,0,1.3,0.1,1.9,0.3s1.1,0.6,1.5,1c0.4,0.4,0.8,1,1,1.6
				c0.2,0.6,0.4,1.4,0.4,2.2c0,0.2,0,0.3-0.1,0.4s-0.1,0.1-0.2,0.1H87.6z M95.5,208.5c0-0.6-0.1-1.2-0.3-1.7s-0.4-0.9-0.8-1.3
				c-0.3-0.3-0.7-0.6-1.2-0.8s-0.9-0.3-1.5-0.3c-0.6,0-1.2,0.1-1.6,0.3c-0.5,0.2-0.9,0.5-1.3,0.8c-0.4,0.4-0.6,0.8-0.9,1.3
				c-0.2,0.5-0.4,1.1-0.4,1.7H95.5z"/>
			<path class="st4" d="M109.2,204.3v0.4c0,0.2-0.1,0.3-0.3,0.3l-1.8,0.1c0.2,0.3,0.4,0.6,0.5,1c0.1,0.4,0.2,0.8,0.2,1.2
				c0,0.6-0.1,1.1-0.3,1.6c-0.2,0.5-0.5,0.9-0.9,1.2c-0.4,0.3-0.8,0.6-1.3,0.8c-0.5,0.2-1.1,0.3-1.7,0.3c-0.7,0-1.3-0.1-1.8-0.3
				c-0.3,0.2-0.6,0.4-0.8,0.7s-0.3,0.5-0.3,0.8c0,0.3,0.1,0.6,0.4,0.8c0.2,0.2,0.6,0.3,1,0.4c0.4,0.1,0.8,0.1,1.3,0.2
				c0.5,0,1,0,1.5,0.1c0.5,0,1,0.1,1.5,0.1c0.5,0.1,1,0.2,1.3,0.4c0.4,0.2,0.7,0.4,1,0.7s0.4,0.7,0.4,1.3c0,0.5-0.1,1-0.4,1.4
				s-0.6,0.9-1.1,1.2c-0.5,0.3-1,0.6-1.7,0.8c-0.7,0.2-1.4,0.3-2.2,0.3c-0.8,0-1.6-0.1-2.2-0.3c-0.6-0.2-1.2-0.4-1.6-0.7
				c-0.4-0.3-0.7-0.6-1-1s-0.3-0.8-0.3-1.2c0-0.6,0.2-1.2,0.6-1.6c0.4-0.4,1-0.8,1.7-1.1c-0.4-0.1-0.7-0.3-1-0.6s-0.4-0.6-0.4-1.1
				c0-0.2,0-0.3,0.1-0.5c0.1-0.2,0.2-0.4,0.3-0.5s0.3-0.3,0.5-0.5c0.2-0.2,0.4-0.3,0.6-0.4c-0.6-0.3-1-0.8-1.3-1.3
				c-0.3-0.5-0.5-1.2-0.5-1.9c0-0.6,0.1-1.1,0.3-1.6c0.2-0.5,0.5-0.9,0.9-1.2c0.4-0.3,0.8-0.6,1.3-0.8c0.5-0.2,1.1-0.3,1.7-0.3
				c0.5,0,1,0.1,1.4,0.2s0.8,0.3,1.2,0.5H109.2z M107.9,216.4c0-0.4-0.1-0.7-0.3-0.9c-0.2-0.2-0.5-0.4-0.8-0.5
				c-0.3-0.1-0.7-0.2-1.1-0.3c-0.4-0.1-0.9-0.1-1.3-0.1c-0.5,0-0.9,0-1.4-0.1c-0.5,0-0.9-0.1-1.3-0.1c-0.3,0.1-0.6,0.3-0.8,0.4
				c-0.3,0.2-0.5,0.3-0.7,0.5s-0.3,0.4-0.4,0.6c-0.1,0.2-0.2,0.5-0.2,0.8c0,0.3,0.1,0.7,0.3,1c0.2,0.3,0.4,0.6,0.8,0.8
				c0.3,0.2,0.8,0.4,1.3,0.5s1.1,0.2,1.7,0.2c0.6,0,1.2-0.1,1.7-0.2s1-0.3,1.4-0.6s0.7-0.5,0.9-0.9
				C107.8,217.2,107.9,216.8,107.9,216.4z M103.5,210.4c0.5,0,1-0.1,1.4-0.2c0.4-0.1,0.7-0.4,1-0.6c0.3-0.3,0.5-0.6,0.6-0.9
				s0.2-0.8,0.2-1.2s-0.1-0.9-0.2-1.2s-0.4-0.7-0.6-0.9s-0.6-0.5-1-0.6c-0.4-0.1-0.8-0.2-1.3-0.2c-0.5,0-0.9,0.1-1.3,0.2
				c-0.4,0.1-0.7,0.3-1,0.6s-0.5,0.6-0.6,0.9c-0.1,0.4-0.2,0.8-0.2,1.2s0.1,0.8,0.2,1.2c0.1,0.4,0.4,0.7,0.6,0.9
				c0.3,0.3,0.6,0.5,1,0.6S103,210.4,103.5,210.4z"/>
			<path class="st4" d="M113.5,199.7c0,0.1,0,0.3-0.1,0.4s-0.1,0.2-0.2,0.3c-0.1,0.1-0.2,0.2-0.3,0.2s-0.3,0.1-0.4,0.1
				c-0.1,0-0.3,0-0.4-0.1s-0.2-0.1-0.3-0.2c-0.1-0.1-0.2-0.2-0.2-0.3c-0.1-0.1-0.1-0.3-0.1-0.4c0-0.1,0-0.3,0.1-0.4
				c0.1-0.1,0.1-0.2,0.2-0.3c0.1-0.1,0.2-0.2,0.3-0.2c0.1-0.1,0.3-0.1,0.4-0.1c0.1,0,0.3,0,0.4,0.1c0.1,0.1,0.2,0.1,0.3,0.2
				s0.2,0.2,0.2,0.3S113.5,199.5,113.5,199.7z M113,203.7v11.8h-1.1v-11.8H113z"/>
			<path class="st4" d="M121.8,203.6c0.8,0,1.6,0.1,2.3,0.4c0.7,0.3,1.2,0.7,1.7,1.2c0.5,0.5,0.8,1.2,1.1,1.9
				c0.2,0.8,0.4,1.6,0.4,2.5c0,0.9-0.1,1.8-0.4,2.5s-0.6,1.4-1.1,1.9s-1,0.9-1.7,1.2c-0.7,0.3-1.4,0.4-2.3,0.4
				c-0.8,0-1.6-0.1-2.3-0.4c-0.7-0.3-1.2-0.7-1.7-1.2c-0.5-0.5-0.8-1.2-1.1-1.9c-0.2-0.7-0.4-1.6-0.4-2.5c0-0.9,0.1-1.8,0.4-2.5
				c0.2-0.7,0.6-1.4,1.1-1.9c0.5-0.5,1-0.9,1.7-1.2C120.2,203.7,120.9,203.6,121.8,203.6z M121.8,214.9c0.7,0,1.3-0.1,1.9-0.4
				s1-0.6,1.3-1c0.4-0.5,0.6-1,0.8-1.6s0.3-1.4,0.3-2.1c0-0.8-0.1-1.5-0.3-2.1s-0.4-1.2-0.8-1.6c-0.4-0.5-0.8-0.8-1.3-1.1
				s-1.1-0.4-1.9-0.4s-1.3,0.1-1.8,0.4c-0.5,0.2-1,0.6-1.3,1.1c-0.4,0.5-0.6,1-0.8,1.6c-0.2,0.6-0.3,1.4-0.3,2.1
				c0,0.8,0.1,1.5,0.3,2.1c0.2,0.6,0.4,1.2,0.8,1.6c0.4,0.5,0.8,0.8,1.3,1C120.4,214.7,121.1,214.9,121.8,214.9z"/>
			<path class="st4" d="M131.4,205.8c0.5-0.7,1.2-1.2,1.9-1.6c0.7-0.4,1.5-0.6,2.4-0.6c0.7,0,1.2,0.1,1.7,0.3
				c0.5,0.2,0.9,0.5,1.2,0.9s0.6,0.9,0.7,1.4c0.2,0.5,0.2,1.2,0.2,1.9v7.6h-1.1V208c0-1.1-0.3-2-0.8-2.6s-1.3-0.9-2.3-0.9
				c-0.8,0-1.5,0.2-2.2,0.6c-0.7,0.4-1.3,0.9-1.8,1.6v8.9h-1.1v-11.8h0.6c0.2,0,0.3,0.1,0.3,0.3L131.4,205.8z"/>
			<path class="st4" d="M150,205.2c-0.1,0.1-0.2,0.2-0.3,0.2c-0.1,0-0.2,0-0.3-0.1c-0.1-0.1-0.3-0.2-0.5-0.3
				c-0.2-0.1-0.5-0.2-0.8-0.3c-0.3-0.1-0.7-0.1-1.2-0.1c-0.4,0-0.8,0.1-1.2,0.2c-0.4,0.1-0.7,0.3-0.9,0.5c-0.2,0.2-0.4,0.4-0.6,0.7
				c-0.1,0.3-0.2,0.6-0.2,0.9c0,0.4,0.1,0.7,0.3,0.9s0.4,0.5,0.7,0.6c0.3,0.2,0.7,0.3,1.1,0.5s0.8,0.3,1.2,0.4
				c0.4,0.1,0.8,0.3,1.2,0.4s0.7,0.3,1.1,0.6c0.3,0.2,0.6,0.5,0.7,0.8s0.3,0.7,0.3,1.2c0,0.5-0.1,1-0.3,1.4s-0.5,0.8-0.8,1.2
				c-0.4,0.3-0.8,0.6-1.3,0.8s-1.1,0.3-1.8,0.3c-0.8,0-1.6-0.1-2.2-0.4s-1.1-0.6-1.6-1l0.3-0.4c0-0.1,0.1-0.1,0.1-0.1
				c0.1,0,0.1,0,0.2,0c0.1,0,0.2,0.1,0.4,0.2c0.1,0.1,0.3,0.3,0.6,0.4s0.5,0.3,0.9,0.4c0.4,0.1,0.8,0.2,1.3,0.2
				c0.5,0,0.9-0.1,1.3-0.2s0.7-0.3,1-0.6s0.4-0.5,0.6-0.8s0.2-0.7,0.2-1c0-0.4-0.1-0.7-0.3-1c-0.2-0.3-0.4-0.5-0.8-0.7
				c-0.3-0.2-0.7-0.3-1.1-0.5s-0.8-0.3-1.2-0.4c-0.4-0.1-0.8-0.3-1.2-0.4c-0.4-0.2-0.7-0.3-1.1-0.6c-0.3-0.2-0.6-0.5-0.7-0.8
				c-0.2-0.3-0.3-0.7-0.3-1.2c0-0.4,0.1-0.8,0.3-1.2c0.2-0.4,0.4-0.7,0.8-1c0.3-0.3,0.7-0.5,1.2-0.7c0.5-0.2,1-0.3,1.6-0.3
				c0.7,0,1.4,0.1,1.9,0.3c0.6,0.2,1.1,0.5,1.5,1L150,205.2z"/>
			<path class="st4" d="M159.7,205.4c0.6-0.6,1.3-1.1,2-1.4c0.7-0.3,1.5-0.5,2.3-0.5c0.6,0,1.2,0.1,1.7,0.3c0.5,0.2,0.9,0.5,1.2,0.9
				s0.5,0.8,0.7,1.4c0.2,0.5,0.2,1.1,0.2,1.8v7.7h-0.5c-0.2,0-0.4-0.1-0.4-0.3l-0.2-1.5c-0.3,0.3-0.6,0.6-1,0.9s-0.7,0.5-1,0.6
				c-0.3,0.2-0.7,0.3-1.1,0.4s-0.8,0.1-1.3,0.1c-0.4,0-0.8-0.1-1.2-0.2c-0.4-0.1-0.7-0.3-1-0.5s-0.5-0.6-0.7-0.9s-0.3-0.8-0.3-1.4
				c0-0.5,0.1-1,0.4-1.4c0.3-0.4,0.7-0.8,1.3-1.1c0.6-0.3,1.4-0.6,2.4-0.8s2.1-0.3,3.4-0.3v-1.2c0-1.1-0.2-1.9-0.7-2.5
				c-0.5-0.6-1.2-0.9-2.1-0.9c-0.6,0-1.1,0.1-1.5,0.2c-0.4,0.2-0.7,0.3-1,0.5s-0.5,0.4-0.7,0.5c-0.2,0.2-0.3,0.2-0.4,0.2
				c-0.1,0-0.2,0-0.2-0.1c-0.1,0-0.1-0.1-0.1-0.2L159.7,205.4z M166.6,209.9c-1.1,0-2.1,0.1-2.9,0.3s-1.5,0.3-2,0.6
				s-0.9,0.5-1.2,0.9c-0.3,0.3-0.4,0.7-0.4,1.1c0,0.4,0.1,0.7,0.2,1c0.1,0.3,0.3,0.5,0.5,0.7c0.2,0.2,0.5,0.3,0.8,0.4
				c0.3,0.1,0.6,0.1,0.9,0.1c0.5,0,0.9,0,1.3-0.1c0.4-0.1,0.7-0.2,1.1-0.4c0.3-0.2,0.6-0.4,0.9-0.6c0.3-0.2,0.6-0.5,0.8-0.8V209.9z"
				/>
			<path class="st4" d="M172.6,206.6c0.2-0.5,0.4-0.9,0.6-1.3c0.2-0.4,0.5-0.7,0.8-1s0.6-0.5,1-0.6c0.4-0.1,0.8-0.2,1.3-0.2
				c0.2,0,0.5,0,0.7,0.1c0.2,0,0.4,0.1,0.6,0.2l-0.1,0.8c0,0.1-0.1,0.2-0.2,0.2c-0.1,0-0.2,0-0.4-0.1s-0.5-0.1-0.8-0.1
				c-0.5,0-0.9,0.1-1.2,0.2c-0.4,0.1-0.7,0.3-1,0.6c-0.3,0.3-0.5,0.6-0.7,1c-0.2,0.4-0.4,0.9-0.6,1.4v7.7h-1.1v-11.8h0.6
				c0.1,0,0.2,0,0.3,0.1c0.1,0.1,0.1,0.2,0.1,0.3L172.6,206.6z"/>
			<path class="st4" d="M179.7,209.2v0.2c0,0.9,0.1,1.7,0.3,2.3c0.2,0.7,0.5,1.2,0.9,1.7s0.8,0.8,1.4,1c0.5,0.2,1.1,0.3,1.8,0.3
				c0.6,0,1.1-0.1,1.5-0.2c0.4-0.1,0.8-0.3,1.1-0.4c0.3-0.2,0.5-0.3,0.7-0.4s0.3-0.2,0.4-0.2c0.1,0,0.2,0,0.2,0.1l0.3,0.4
				c-0.2,0.2-0.4,0.5-0.8,0.7s-0.7,0.4-1,0.5c-0.4,0.1-0.8,0.3-1.2,0.4c-0.4,0.1-0.9,0.1-1.3,0.1c-0.8,0-1.5-0.1-2.2-0.4
				s-1.2-0.7-1.7-1.2c-0.5-0.5-0.8-1.2-1.1-2s-0.4-1.7-0.4-2.7c0-0.8,0.1-1.6,0.4-2.4c0.2-0.7,0.6-1.3,1-1.9c0.5-0.5,1-0.9,1.7-1.2
				c0.7-0.3,1.4-0.4,2.3-0.4c0.7,0,1.3,0.1,1.9,0.3c0.6,0.2,1.1,0.6,1.5,1c0.4,0.4,0.8,1,1,1.6s0.4,1.4,0.4,2.2c0,0.2,0,0.3-0.1,0.4
				c0,0.1-0.1,0.1-0.2,0.1H179.7z M187.6,208.5c0-0.6-0.1-1.2-0.3-1.7c-0.2-0.5-0.4-0.9-0.8-1.3c-0.3-0.3-0.7-0.6-1.2-0.8
				s-0.9-0.3-1.5-0.3c-0.6,0-1.2,0.1-1.6,0.3c-0.5,0.2-0.9,0.5-1.3,0.8c-0.4,0.4-0.6,0.8-0.9,1.3s-0.4,1.1-0.4,1.7H187.6z"/>
			<path class="st4" d="M31.6,234.6c0.2-0.5,0.4-0.9,0.6-1.3c0.2-0.4,0.5-0.7,0.8-1s0.6-0.5,1-0.6c0.4-0.1,0.8-0.2,1.3-0.2
				c0.2,0,0.5,0,0.7,0.1c0.2,0,0.4,0.1,0.6,0.2l-0.1,0.8c0,0.1-0.1,0.2-0.2,0.2c-0.1,0-0.2,0-0.4-0.1s-0.5-0.1-0.8-0.1
				c-0.5,0-0.9,0.1-1.2,0.2c-0.4,0.1-0.7,0.3-1,0.6c-0.3,0.3-0.5,0.6-0.7,1c-0.2,0.4-0.4,0.9-0.6,1.4v7.7h-1.1v-11.8h0.6
				c0.1,0,0.2,0,0.3,0.1c0.1,0.1,0.1,0.2,0.1,0.3L31.6,234.6z"/>
			<path class="st4" d="M42.9,231.6c0.8,0,1.6,0.1,2.3,0.4c0.7,0.3,1.2,0.7,1.7,1.2c0.5,0.5,0.8,1.2,1.1,1.9
				c0.2,0.8,0.4,1.6,0.4,2.5c0,0.9-0.1,1.8-0.4,2.5s-0.6,1.4-1.1,1.9s-1,0.9-1.7,1.2c-0.7,0.3-1.4,0.4-2.3,0.4
				c-0.8,0-1.6-0.1-2.3-0.4c-0.7-0.3-1.2-0.7-1.7-1.2c-0.5-0.5-0.8-1.2-1.1-1.9c-0.2-0.7-0.4-1.6-0.4-2.5c0-0.9,0.1-1.8,0.4-2.5
				c0.2-0.7,0.6-1.4,1.1-1.9c0.5-0.5,1-0.9,1.7-1.2C41.3,231.7,42.1,231.6,42.9,231.6z M42.9,242.9c0.7,0,1.3-0.1,1.9-0.4
				s1-0.6,1.3-1c0.4-0.5,0.6-1,0.8-1.6s0.3-1.4,0.3-2.1c0-0.8-0.1-1.5-0.3-2.1s-0.4-1.2-0.8-1.6c-0.4-0.5-0.8-0.8-1.3-1.1
				s-1.1-0.4-1.9-0.4s-1.3,0.1-1.8,0.4c-0.5,0.2-1,0.6-1.3,1.1c-0.4,0.5-0.6,1-0.8,1.6c-0.2,0.6-0.3,1.4-0.3,2.1
				c0,0.8,0.1,1.5,0.3,2.1c0.2,0.6,0.4,1.2,0.8,1.6c0.4,0.5,0.8,0.8,1.3,1C41.6,242.7,42.2,242.9,42.9,242.9z"/>
			<path class="st4" d="M52.8,226.3v17.3h-1.1v-17.3H52.8z"/>
			<path class="st4" d="M58,226.3v17.3h-1.1v-17.3H58z"/>
			<path class="st4" d="M63.8,227.7c0,0.1,0,0.3-0.1,0.4s-0.1,0.2-0.2,0.3c-0.1,0.1-0.2,0.2-0.3,0.2s-0.3,0.1-0.4,0.1
				c-0.1,0-0.3,0-0.4-0.1s-0.2-0.1-0.3-0.2c-0.1-0.1-0.2-0.2-0.2-0.3c-0.1-0.1-0.1-0.3-0.1-0.4c0-0.1,0-0.3,0.1-0.4
				c0.1-0.1,0.1-0.2,0.2-0.3c0.1-0.1,0.2-0.2,0.3-0.2c0.1-0.1,0.3-0.1,0.4-0.1c0.1,0,0.3,0,0.4,0.1c0.1,0.1,0.2,0.1,0.3,0.2
				s0.2,0.2,0.2,0.3S63.8,227.5,63.8,227.7z M63.3,231.7v11.8h-1.1v-11.8H63.3z"/>
			<path class="st4" d="M68.4,233.8c0.5-0.7,1.2-1.2,1.9-1.6c0.7-0.4,1.5-0.6,2.4-0.6c0.7,0,1.2,0.1,1.7,0.3
				c0.5,0.2,0.9,0.5,1.2,0.9s0.6,0.9,0.7,1.4c0.2,0.5,0.2,1.2,0.2,1.9v7.6h-1.1V236c0-1.1-0.3-2-0.8-2.6s-1.3-0.9-2.3-0.9
				c-0.8,0-1.5,0.2-2.2,0.6c-0.7,0.4-1.3,0.9-1.8,1.6v8.9h-1.1v-11.8h0.6c0.2,0,0.3,0.1,0.3,0.3L68.4,233.8z"/>
			<path class="st4" d="M89.9,232.3v0.4c0,0.2-0.1,0.3-0.3,0.3l-1.8,0.1c0.2,0.3,0.4,0.6,0.5,1c0.1,0.4,0.2,0.8,0.2,1.2
				c0,0.6-0.1,1.1-0.3,1.6c-0.2,0.5-0.5,0.9-0.9,1.2c-0.4,0.3-0.8,0.6-1.3,0.8c-0.5,0.2-1.1,0.3-1.7,0.3c-0.7,0-1.3-0.1-1.8-0.3
				c-0.3,0.2-0.6,0.4-0.8,0.7s-0.3,0.5-0.3,0.8c0,0.3,0.1,0.6,0.4,0.8c0.2,0.2,0.6,0.3,1,0.4c0.4,0.1,0.8,0.1,1.3,0.2
				c0.5,0,1,0,1.5,0.1c0.5,0,1,0.1,1.5,0.1c0.5,0.1,1,0.2,1.3,0.4c0.4,0.2,0.7,0.4,1,0.7s0.4,0.7,0.4,1.3c0,0.5-0.1,1-0.4,1.4
				s-0.6,0.9-1.1,1.2c-0.5,0.3-1,0.6-1.7,0.8c-0.7,0.2-1.4,0.3-2.2,0.3c-0.8,0-1.6-0.1-2.2-0.3c-0.6-0.2-1.2-0.4-1.6-0.7
				c-0.4-0.3-0.7-0.6-1-1s-0.3-0.8-0.3-1.2c0-0.6,0.2-1.2,0.6-1.6c0.4-0.4,1-0.8,1.7-1.1c-0.4-0.1-0.7-0.3-1-0.6s-0.4-0.6-0.4-1.1
				c0-0.2,0-0.3,0.1-0.5c0.1-0.2,0.2-0.4,0.3-0.5s0.3-0.3,0.5-0.5c0.2-0.2,0.4-0.3,0.6-0.4c-0.6-0.3-1-0.8-1.3-1.3
				c-0.3-0.5-0.5-1.2-0.5-1.9c0-0.6,0.1-1.1,0.3-1.6c0.2-0.5,0.5-0.9,0.9-1.2c0.4-0.3,0.8-0.6,1.3-0.8c0.5-0.2,1.1-0.3,1.7-0.3
				c0.5,0,1,0.1,1.4,0.2s0.8,0.3,1.2,0.5H89.9z M88.7,244.4c0-0.4-0.1-0.7-0.3-0.9c-0.2-0.2-0.5-0.4-0.8-0.5
				c-0.3-0.1-0.7-0.2-1.1-0.3c-0.4-0.1-0.9-0.1-1.3-0.1c-0.5,0-0.9,0-1.4-0.1c-0.5,0-0.9-0.1-1.3-0.1c-0.3,0.1-0.6,0.3-0.8,0.4
				c-0.3,0.2-0.5,0.3-0.7,0.5s-0.3,0.4-0.4,0.6c-0.1,0.2-0.2,0.5-0.2,0.8c0,0.3,0.1,0.7,0.3,1c0.2,0.3,0.4,0.6,0.8,0.8
				c0.3,0.2,0.8,0.4,1.3,0.5s1.1,0.2,1.7,0.2c0.6,0,1.2-0.1,1.7-0.2s1-0.3,1.4-0.6s0.7-0.5,0.9-0.9
				C88.6,245.2,88.7,244.8,88.7,244.4z M84.3,238.4c0.5,0,1-0.1,1.4-0.2c0.4-0.1,0.7-0.4,1-0.6c0.3-0.3,0.5-0.6,0.6-0.9
				s0.2-0.8,0.2-1.2s-0.1-0.9-0.2-1.2s-0.4-0.7-0.6-0.9s-0.6-0.5-1-0.6c-0.4-0.1-0.8-0.2-1.3-0.2c-0.5,0-0.9,0.1-1.3,0.2
				c-0.4,0.1-0.7,0.3-1,0.6s-0.5,0.6-0.6,0.9c-0.1,0.4-0.2,0.8-0.2,1.2s0.1,0.8,0.2,1.2c0.1,0.4,0.4,0.7,0.6,0.9
				c0.3,0.3,0.6,0.5,1,0.6S83.8,238.4,84.3,238.4z"/>
			<path class="st4" d="M103.7,231.6c0.8,0,1.6,0.1,2.3,0.4c0.7,0.3,1.2,0.7,1.7,1.2c0.5,0.5,0.8,1.2,1.1,1.9
				c0.2,0.8,0.4,1.6,0.4,2.5c0,0.9-0.1,1.8-0.4,2.5s-0.6,1.4-1.1,1.9s-1,0.9-1.7,1.2c-0.7,0.3-1.4,0.4-2.3,0.4s-1.6-0.1-2.3-0.4
				c-0.7-0.3-1.2-0.7-1.7-1.2s-0.8-1.2-1.1-1.9s-0.4-1.6-0.4-2.5c0-0.9,0.1-1.8,0.4-2.5c0.2-0.7,0.6-1.4,1.1-1.9
				c0.5-0.5,1-0.9,1.7-1.2C102.1,231.7,102.9,231.6,103.7,231.6z M103.7,242.9c0.7,0,1.3-0.1,1.9-0.4c0.5-0.2,1-0.6,1.3-1
				c0.4-0.5,0.6-1,0.8-1.6c0.2-0.6,0.3-1.4,0.3-2.1c0-0.8-0.1-1.5-0.3-2.1c-0.2-0.6-0.4-1.2-0.8-1.6c-0.4-0.5-0.8-0.8-1.3-1.1
				c-0.5-0.2-1.1-0.4-1.9-0.4s-1.3,0.1-1.9,0.4s-1,0.6-1.3,1.1c-0.4,0.5-0.6,1-0.8,1.6s-0.3,1.4-0.3,2.1c0,0.8,0.1,1.5,0.3,2.1
				s0.4,1.2,0.8,1.6c0.4,0.5,0.8,0.8,1.3,1S103,242.9,103.7,242.9z"/>
			<path class="st4" d="M121.5,231.7v11.8h-0.6c-0.2,0-0.3-0.1-0.3-0.3l-0.1-1.8c-0.5,0.7-1.2,1.2-1.9,1.6c-0.7,0.4-1.5,0.6-2.4,0.6
				c-0.7,0-1.2-0.1-1.7-0.3c-0.5-0.2-0.9-0.5-1.2-0.9c-0.3-0.4-0.6-0.9-0.7-1.4c-0.2-0.5-0.2-1.2-0.2-1.9v-7.6h1.1v7.6
				c0,1.1,0.3,2,0.8,2.6s1.3,0.9,2.3,0.9c0.8,0,1.5-0.2,2.2-0.6c0.7-0.4,1.3-0.9,1.8-1.6v-8.9H121.5z"/>
			<path class="st4" d="M128.6,243.8c-0.8,0-1.4-0.2-1.9-0.7s-0.7-1.1-0.7-2.1V233h-1.7c-0.1,0-0.2,0-0.2-0.1
				c-0.1,0-0.1-0.1-0.1-0.2v-0.4l2-0.1l0.3-4.2c0-0.1,0-0.1,0.1-0.2c0-0.1,0.1-0.1,0.2-0.1h0.5v4.5h3.7v0.8h-3.7v8
				c0,0.3,0,0.6,0.1,0.8c0.1,0.2,0.2,0.4,0.3,0.6s0.3,0.3,0.5,0.3s0.4,0.1,0.6,0.1c0.3,0,0.5,0,0.7-0.1c0.2-0.1,0.4-0.2,0.5-0.3
				c0.2-0.1,0.3-0.2,0.4-0.3c0.1-0.1,0.2-0.1,0.2-0.1c0.1,0,0.1,0,0.2,0.1l0.3,0.5c-0.3,0.3-0.7,0.6-1.1,0.8
				C129.6,243.7,129.1,243.8,128.6,243.8z"/>
			<path class="st4" d="M143.2,243.8c-0.8,0-1.4-0.2-1.9-0.7s-0.7-1.1-0.7-2.1V233H139c-0.1,0-0.2,0-0.2-0.1c-0.1,0-0.1-0.1-0.1-0.2
				v-0.4l2-0.1l0.3-4.2c0-0.1,0-0.1,0.1-0.2c0-0.1,0.1-0.1,0.2-0.1h0.5v4.5h3.7v0.8h-3.7v8c0,0.3,0,0.6,0.1,0.8
				c0.1,0.2,0.2,0.4,0.3,0.6s0.3,0.3,0.5,0.3s0.4,0.1,0.6,0.1c0.3,0,0.5,0,0.7-0.1c0.2-0.1,0.4-0.2,0.5-0.3c0.2-0.1,0.3-0.2,0.4-0.3
				c0.1-0.1,0.2-0.1,0.2-0.1c0.1,0,0.1,0,0.2,0.1l0.3,0.5c-0.3,0.3-0.7,0.6-1.1,0.8C144.2,243.7,143.7,243.8,143.2,243.8z"/>
			<path class="st4" d="M149.3,233.7c0.5-0.7,1.2-1.2,1.9-1.6s1.5-0.6,2.4-0.6c0.7,0,1.2,0.1,1.7,0.3c0.5,0.2,0.9,0.5,1.2,0.9
				s0.6,0.9,0.7,1.4c0.2,0.5,0.2,1.2,0.2,1.9v7.6h-1.1V236c0-1.1-0.3-2-0.8-2.6s-1.3-0.9-2.3-0.9c-0.8,0-1.5,0.2-2.2,0.6
				c-0.7,0.4-1.3,0.9-1.8,1.6v8.9h-1.1v-17.3h1.1V233.7z"/>
			<path class="st4" d="M161.6,237.2v0.2c0,0.9,0.1,1.7,0.3,2.3c0.2,0.7,0.5,1.2,0.9,1.7s0.8,0.8,1.4,1c0.5,0.2,1.1,0.3,1.8,0.3
				c0.6,0,1.1-0.1,1.5-0.2c0.4-0.1,0.8-0.3,1.1-0.4c0.3-0.2,0.5-0.3,0.7-0.4s0.3-0.2,0.4-0.2c0.1,0,0.2,0,0.2,0.1l0.3,0.4
				c-0.2,0.2-0.4,0.5-0.8,0.7s-0.7,0.4-1,0.5c-0.4,0.1-0.8,0.3-1.2,0.4c-0.4,0.1-0.9,0.1-1.3,0.1c-0.8,0-1.5-0.1-2.2-0.4
				s-1.2-0.7-1.7-1.2c-0.5-0.5-0.8-1.2-1.1-2s-0.4-1.7-0.4-2.7c0-0.8,0.1-1.6,0.4-2.4c0.2-0.7,0.6-1.3,1-1.9c0.5-0.5,1-0.9,1.7-1.2
				c0.7-0.3,1.4-0.4,2.3-0.4c0.7,0,1.3,0.1,1.9,0.3c0.6,0.2,1.1,0.6,1.5,1c0.4,0.4,0.8,1,1,1.6s0.4,1.4,0.4,2.2c0,0.2,0,0.3-0.1,0.4
				c0,0.1-0.1,0.1-0.2,0.1H161.6z M169.5,236.5c0-0.6-0.1-1.2-0.3-1.7c-0.2-0.5-0.4-0.9-0.8-1.3c-0.3-0.3-0.7-0.6-1.2-0.8
				s-0.9-0.3-1.5-0.3c-0.6,0-1.2,0.1-1.6,0.3c-0.5,0.2-0.9,0.5-1.3,0.8c-0.4,0.4-0.6,0.8-0.9,1.3s-0.4,1.1-0.4,1.7H169.5z"/>
			<path class="st4" d="M60.6,261.9c0.5-0.7,1.1-1.3,1.8-1.7c0.7-0.4,1.5-0.6,2.4-0.6c1.5,0,2.6,0.5,3.4,1.5c0.8,1,1.2,2.5,1.2,4.5
				c0,0.9-0.1,1.7-0.3,2.4c-0.2,0.8-0.6,1.4-1,2c-0.4,0.6-1,1-1.6,1.3s-1.4,0.5-2.2,0.5c-0.8,0-1.5-0.1-2.1-0.4
				c-0.6-0.3-1.1-0.7-1.5-1.3v5.8h-1.1v-16h0.6c0.2,0,0.3,0.1,0.3,0.3L60.6,261.9z M60.6,269c0.2,0.3,0.5,0.6,0.7,0.9
				c0.2,0.2,0.5,0.4,0.8,0.6c0.3,0.1,0.6,0.3,0.9,0.3s0.6,0.1,1,0.1c0.7,0,1.3-0.1,1.8-0.4s1-0.6,1.3-1.1c0.4-0.5,0.6-1,0.8-1.7
				s0.3-1.4,0.3-2.1c0-1.8-0.3-3.1-1-3.9s-1.6-1.2-2.8-1.2c-0.8,0-1.5,0.2-2.1,0.6s-1.2,1-1.7,1.7V269z"/>
			<path class="st4" d="M73.7,262.6c0.2-0.5,0.4-0.9,0.6-1.3c0.2-0.4,0.5-0.7,0.8-1s0.6-0.5,1-0.6c0.4-0.1,0.8-0.2,1.3-0.2
				c0.2,0,0.5,0,0.7,0.1c0.2,0,0.4,0.1,0.6,0.2l-0.1,0.8c0,0.1-0.1,0.2-0.2,0.2c-0.1,0-0.2,0-0.4-0.1s-0.5-0.1-0.8-0.1
				c-0.5,0-0.9,0.1-1.2,0.2c-0.4,0.1-0.7,0.3-1,0.6c-0.3,0.3-0.5,0.6-0.7,1c-0.2,0.4-0.4,0.9-0.6,1.4v7.7h-1.1v-11.8h0.6
				c0.1,0,0.2,0,0.3,0.1c0.1,0.1,0.1,0.2,0.1,0.3L73.7,262.6z"/>
			<path class="st4" d="M85.1,259.6c0.8,0,1.6,0.1,2.3,0.4c0.7,0.3,1.2,0.7,1.7,1.2c0.5,0.5,0.8,1.2,1.1,1.9
				c0.2,0.8,0.4,1.6,0.4,2.5c0,0.9-0.1,1.8-0.4,2.5s-0.6,1.4-1.1,1.9s-1,0.9-1.7,1.2c-0.7,0.3-1.4,0.4-2.3,0.4
				c-0.8,0-1.6-0.1-2.3-0.4c-0.7-0.3-1.2-0.7-1.7-1.2c-0.5-0.5-0.8-1.2-1.1-1.9c-0.2-0.7-0.4-1.6-0.4-2.5c0-0.9,0.1-1.8,0.4-2.5
				c0.2-0.7,0.6-1.4,1.1-1.9c0.5-0.5,1-0.9,1.7-1.2C83.5,259.7,84.2,259.6,85.1,259.6z M85.1,270.9c0.7,0,1.3-0.1,1.9-0.4
				s1-0.6,1.3-1c0.4-0.5,0.6-1,0.8-1.6s0.3-1.4,0.3-2.1c0-0.8-0.1-1.5-0.3-2.1s-0.4-1.2-0.8-1.6c-0.4-0.5-0.8-0.8-1.3-1.1
				s-1.1-0.4-1.9-0.4s-1.3,0.1-1.8,0.4c-0.5,0.2-1,0.6-1.3,1.1c-0.4,0.5-0.6,1-0.8,1.6c-0.2,0.6-0.3,1.4-0.3,2.1
				c0,0.8,0.1,1.5,0.3,2.1c0.2,0.6,0.4,1.2,0.8,1.6c0.4,0.5,0.8,0.8,1.3,1C83.7,270.7,84.4,270.9,85.1,270.9z"/>
			<path class="st4" d="M103.2,260.3v0.4c0,0.2-0.1,0.3-0.3,0.3l-1.8,0.1c0.2,0.3,0.4,0.6,0.5,1c0.1,0.4,0.2,0.8,0.2,1.2
				c0,0.6-0.1,1.1-0.3,1.6c-0.2,0.5-0.5,0.9-0.9,1.2c-0.4,0.3-0.8,0.6-1.3,0.8c-0.5,0.2-1.1,0.3-1.7,0.3c-0.7,0-1.3-0.1-1.8-0.3
				c-0.3,0.2-0.6,0.4-0.8,0.7s-0.3,0.5-0.3,0.8c0,0.3,0.1,0.6,0.4,0.8c0.2,0.2,0.6,0.3,1,0.4c0.4,0.1,0.8,0.1,1.3,0.2
				c0.5,0,1,0,1.5,0.1c0.5,0,1,0.1,1.5,0.1c0.5,0.1,1,0.2,1.3,0.4c0.4,0.2,0.7,0.4,1,0.7s0.4,0.7,0.4,1.3c0,0.5-0.1,1-0.4,1.4
				s-0.6,0.9-1.1,1.2c-0.5,0.3-1,0.6-1.7,0.8c-0.7,0.2-1.4,0.3-2.2,0.3c-0.8,0-1.6-0.1-2.2-0.3c-0.6-0.2-1.2-0.4-1.6-0.7
				c-0.4-0.3-0.7-0.6-1-1s-0.3-0.8-0.3-1.2c0-0.6,0.2-1.2,0.6-1.6c0.4-0.4,1-0.8,1.7-1.1c-0.4-0.1-0.7-0.3-1-0.6s-0.4-0.6-0.4-1.1
				c0-0.2,0-0.3,0.1-0.5c0.1-0.2,0.2-0.4,0.3-0.5s0.3-0.3,0.5-0.5c0.2-0.2,0.4-0.3,0.6-0.4c-0.6-0.3-1-0.8-1.3-1.3
				c-0.3-0.5-0.5-1.2-0.5-1.9c0-0.6,0.1-1.1,0.3-1.6c0.2-0.5,0.5-0.9,0.9-1.2c0.4-0.3,0.8-0.6,1.3-0.8c0.5-0.2,1.1-0.3,1.7-0.3
				c0.5,0,1,0.1,1.4,0.2s0.8,0.3,1.2,0.5H103.2z M101.9,272.4c0-0.4-0.1-0.7-0.3-0.9c-0.2-0.2-0.5-0.4-0.8-0.5
				c-0.3-0.1-0.7-0.2-1.1-0.3c-0.4-0.1-0.9-0.1-1.3-0.1c-0.5,0-0.9,0-1.4-0.1c-0.5,0-0.9-0.1-1.3-0.1c-0.3,0.1-0.6,0.3-0.8,0.4
				c-0.3,0.2-0.5,0.3-0.7,0.5s-0.3,0.4-0.4,0.6c-0.1,0.2-0.2,0.5-0.2,0.8c0,0.3,0.1,0.7,0.3,1c0.2,0.3,0.4,0.6,0.8,0.8
				c0.3,0.2,0.8,0.4,1.3,0.5s1.1,0.2,1.7,0.2c0.6,0,1.2-0.1,1.7-0.2s1-0.3,1.4-0.6s0.7-0.5,0.9-0.9
				C101.8,273.2,101.9,272.8,101.9,272.4z M97.5,266.4c0.5,0,1-0.1,1.4-0.2c0.4-0.1,0.7-0.4,1-0.6c0.3-0.3,0.5-0.6,0.6-0.9
				s0.2-0.8,0.2-1.2s-0.1-0.9-0.2-1.2s-0.4-0.7-0.6-0.9s-0.6-0.5-1-0.6c-0.4-0.1-0.8-0.2-1.3-0.2c-0.5,0-0.9,0.1-1.3,0.2
				c-0.4,0.1-0.7,0.3-1,0.6s-0.5,0.6-0.6,0.9c-0.1,0.4-0.2,0.8-0.2,1.2s0.1,0.8,0.2,1.2c0.1,0.4,0.4,0.7,0.6,0.9
				c0.3,0.3,0.6,0.5,1,0.6S97,266.4,97.5,266.4z"/>
			<path class="st4" d="M106.9,262.6c0.2-0.5,0.4-0.9,0.6-1.3c0.2-0.4,0.5-0.7,0.8-1s0.6-0.5,1-0.6c0.4-0.1,0.8-0.2,1.3-0.2
				c0.2,0,0.5,0,0.7,0.1c0.2,0,0.4,0.1,0.6,0.2l-0.1,0.8c0,0.1-0.1,0.2-0.2,0.2c-0.1,0-0.2,0-0.4-0.1s-0.5-0.1-0.8-0.1
				c-0.5,0-0.9,0.1-1.2,0.2c-0.4,0.1-0.7,0.3-1,0.6c-0.3,0.3-0.5,0.6-0.7,1c-0.2,0.4-0.4,0.9-0.6,1.4v7.7h-1.1v-11.8h0.6
				c0.1,0,0.2,0,0.3,0.1c0.1,0.1,0.1,0.2,0.1,0.3L106.9,262.6z"/>
			<path class="st4" d="M113.6,261.4c0.6-0.6,1.3-1.1,2-1.4c0.7-0.3,1.5-0.5,2.3-0.5c0.6,0,1.2,0.1,1.7,0.3c0.5,0.2,0.9,0.5,1.2,0.9
				s0.5,0.8,0.7,1.4c0.2,0.5,0.2,1.1,0.2,1.8v7.7h-0.5c-0.2,0-0.4-0.1-0.4-0.3l-0.2-1.5c-0.3,0.3-0.6,0.6-1,0.9s-0.7,0.5-1,0.6
				c-0.3,0.2-0.7,0.3-1.1,0.4s-0.8,0.1-1.3,0.1c-0.4,0-0.8-0.1-1.2-0.2c-0.4-0.1-0.7-0.3-1-0.5s-0.5-0.6-0.7-0.9s-0.3-0.8-0.3-1.4
				c0-0.5,0.1-1,0.4-1.4c0.3-0.4,0.7-0.8,1.3-1.1c0.6-0.3,1.4-0.6,2.4-0.8s2.1-0.3,3.4-0.3v-1.2c0-1.1-0.2-1.9-0.7-2.5
				c-0.5-0.6-1.2-0.9-2.1-0.9c-0.6,0-1.1,0.1-1.5,0.2c-0.4,0.2-0.7,0.3-1,0.5s-0.5,0.4-0.7,0.5c-0.2,0.2-0.3,0.2-0.4,0.2
				c-0.1,0-0.2,0-0.2-0.1c-0.1,0-0.1-0.1-0.1-0.2L113.6,261.4z M120.6,265.9c-1.1,0-2.1,0.1-2.9,0.3s-1.5,0.3-2,0.6
				s-0.9,0.5-1.2,0.9c-0.3,0.3-0.4,0.7-0.4,1.1c0,0.4,0.1,0.7,0.2,1c0.1,0.3,0.3,0.5,0.5,0.7c0.2,0.2,0.5,0.3,0.8,0.4
				c0.3,0.1,0.6,0.1,0.9,0.1c0.5,0,0.9,0,1.3-0.1c0.4-0.1,0.7-0.2,1.1-0.4c0.3-0.2,0.6-0.4,0.9-0.6c0.3-0.2,0.6-0.5,0.8-0.8V265.9z"
				/>
			<path class="st4" d="M125.5,271.6v-11.8h0.6c0.2,0,0.3,0.1,0.3,0.3l0.1,1.7c0.5-0.7,1-1.2,1.6-1.6c0.6-0.4,1.3-0.6,2-0.6
				c0.9,0,1.6,0.2,2.1,0.8s0.9,1.2,1.1,2.1c0.1-0.5,0.3-0.9,0.6-1.3s0.6-0.7,0.9-0.9c0.3-0.2,0.7-0.4,1.1-0.5s0.8-0.2,1.2-0.2
				c0.6,0,1.1,0.1,1.6,0.3c0.5,0.2,0.9,0.5,1.2,0.9c0.3,0.4,0.6,0.8,0.8,1.4c0.2,0.6,0.3,1.2,0.3,1.9v7.6h-1.1V264
				c0-1.2-0.2-2-0.8-2.6c-0.5-0.6-1.2-0.9-2.1-0.9c-0.4,0-0.8,0.1-1.2,0.2c-0.4,0.2-0.7,0.4-1,0.7c-0.3,0.3-0.5,0.7-0.7,1.1
				s-0.3,1-0.3,1.5v7.6h-1.1V264c0-1.2-0.2-2-0.7-2.6c-0.5-0.6-1.1-0.9-2-0.9c-0.6,0-1.2,0.2-1.8,0.6c-0.5,0.4-1,0.9-1.5,1.6v9
				H125.5z"/>
		</g>
	</g>
</g>
</svg>
