<?xml version="1.0" encoding="utf-8"?>
<!-- Generator: Adobe Illustrator 18.1.0, SVG Export Plug-In . SVG Version: 6.00 Build 0)  -->
<!DOCTYPE svg PUBLIC "-//W3C//DTD SVG 1.1//EN" "http://www.w3.org/Graphics/SVG/1.1/DTD/svg11.dtd">
<svg version="1.1" id="Layer_1" xmlns="http://www.w3.org/2000/svg" xmlns:xlink="http://www.w3.org/1999/xlink" x="0px" y="0px"
	 width="36.5px" height="86.6px" viewBox="-2176 412.4 64 103.5" enable-background="new -2176 412.4 64 103.5" xml:space="preserve">
<g>
	<path fill="none" stroke="#010202" stroke-width="1.6305" stroke-linecap="round" stroke-miterlimit="10" d="M-2133.5,414.6
		c0,0,8.4-2.6,15,4c6.7,6.7,3.2,16.2,3.2,16.2"/>
	<path fill="none" stroke="#010202" stroke-width="1.6305" stroke-linecap="round" stroke-miterlimit="10" d="M-2132.5,418.4
		c0,0,6.3-1.9,11.3,3c5,5,2.4,12.2,2.4,12.2"/>
	<path fill="none" stroke="#010202" stroke-width="1.6305" stroke-linecap="round" stroke-miterlimit="10" d="M-2132.4,422.5
		c0,0,4.3-1.3,7.7,2c3.5,3.4,1.6,8.3,1.6,8.3"/>
	<path fill="none" stroke="#010202" stroke-width="1.6305" stroke-linecap="round" stroke-miterlimit="10" d="M-2118.8,447.9
		l-0.3,0.2c-0.8,0.6-2,0.5-2.6-0.3l-23.4-30.1c-0.6-0.8-0.5-2,0.3-2.6l0.3-0.2c0.8-0.6,2-0.5,2.6,0.3l23.4,30.1
		C-2117.8,446.1-2118,447.3-2118.8,447.9z"/>
	<path fill="none" stroke="#010202" stroke-width="1.6305" stroke-linecap="round" stroke-miterlimit="10" d="M-2133,426.6
		c0,0,3.2-1,5.1,1.2c1.9,2.2,0.2,5.6,0.2,5.6"/>
	<path fill="none" stroke="#010202" stroke-width="1.6305" stroke-linecap="round" stroke-miterlimit="10" d="M-2144.9,417.8
		c0,0-4.8,17.1-15.5,26.6"/>
	<path fill="none" stroke="#010202" stroke-width="1.6305" stroke-linecap="round" stroke-miterlimit="10" d="M-2121.7,446.8
		c0,0-17.7,0.8-29.3,9.1"/>
	<path fill="none" stroke="#010202" stroke-width="1.6305" stroke-linecap="round" stroke-miterlimit="10" d="M-2171.1,454.4
		c0,0-4.1,3.3,0,9c4.2,5.8,8.7,1.8,8.7,1.8"/>
	
		<line fill="none" stroke="#010202" stroke-width="1.6305" stroke-linecap="round" stroke-miterlimit="10" x1="-2152.3" y1="460.7" x2="-2151.2" y2="462"/>
	<path fill="none" stroke="#010202" stroke-width="1.6305" stroke-linecap="round" stroke-miterlimit="10" d="M-2157.9,465.1"/>
	<path fill="none" stroke="#010202" stroke-width="1.6305" stroke-linecap="round" stroke-miterlimit="10" d="M-2143.3,472.8
		c-0.1,0.2-0.2,0.4-0.4,0.7c-1.3,1.3-3.2,3-3.2,3s-1.3,1.6-3.1-0.3"/>
	<path fill="none" stroke="#010202" stroke-width="1.6305" stroke-linecap="round" stroke-miterlimit="10" d="M-2155.3,461l-3.7,4.4
		c0,0-0.7,1.1,0,4l-1.4,3.9l8.6,4l1.8-1.2l-6.2-8.6l1.6-2.9C-2154.6,464.6-2153.1,462.3-2155.3,461z"/>
	<path fill="none" stroke="#010202" stroke-width="1.6305" stroke-linecap="round" stroke-miterlimit="10" d="M-2159.3,466
		c-1.2,0.4-2.5,0-3.3-1l-8.3-10.3c-1-1.3-0.8-3.2,0.5-4.3l6.4-5.2c1.3-1,3.2-0.8,4.3,0.5l8.3,10.3c1,1.3,0.8,3.2-0.5,4.3l-2.4,1.9"
		/>
	
		<ellipse transform="matrix(0.7792 -0.6268 0.6268 0.7792 -764.7123 -1245.189)" fill="none" stroke="#010202" stroke-width="1.6305" stroke-linecap="round" stroke-miterlimit="10" cx="-2149.8" cy="462.8" rx="2" ry="1.6"/>
	
		<ellipse transform="matrix(0.7792 -0.6268 0.6268 0.7792 -765.8903 -1243.3259)" fill="none" stroke="#010202" stroke-width="1.6305" stroke-linecap="round" stroke-miterlimit="10" cx="-2147.7" cy="465.4" rx="2" ry="1.6"/>
	
		<ellipse transform="matrix(0.7792 -0.6268 0.6268 0.7792 -767.1603 -1241.4385)" fill="none" stroke="#010202" stroke-width="1.6305" stroke-linecap="round" stroke-miterlimit="10" cx="-2145.7" cy="468.2" rx="2" ry="1.6"/>
	
		<ellipse transform="matrix(0.7792 -0.6268 0.6268 0.7792 -768.4299 -1239.6724)" fill="none" stroke="#010202" stroke-width="1.6305" stroke-linecap="round" stroke-miterlimit="10" cx="-2143.8" cy="470.9" rx="2" ry="1.6"/>
</g>
<polyline fill="none" stroke="#010202" stroke-width="1.6305" stroke-linecap="round" stroke-miterlimit="10" points="
	-2160.4,473.4 -2162.2,472.7 -2172.9,514.6 -2157.9,514.6 -2150,478.2 -2151.8,477.3 "/>
</svg>
