<?xml version="1.0" encoding="utf-8"?>
<!-- Generator: Adobe Illustrator 19.2.0, SVG Export Plug-In . SVG Version: 6.00 Build 0)  -->
<svg version="1.1" xmlns="http://www.w3.org/2000/svg" xmlns:xlink="http://www.w3.org/1999/xlink" x="0px" y="0px"
	 viewBox="0 0 200 445.4" style="enable-background:new 0 0 200 445.4;" xml:space="preserve">
<style type="text/css">
	.st0{clip-path:url(#SVGID_2_);}
	.st1{clip-path:url(#SVGID_4_);fill:#E63A2F;}
	.st2{fill:#1E2D33;}
	.st3{font-family:'Lato-Heavy';}
	.st4{font-size:91.67px;}
	.st5{font-size:47.1395px;}
	.st6{fill:none;stroke:#1E2D33;stroke-miterlimit:10;}
	.st7{fill:none;}
	.st8{font-family:'Lato-Light';}
	.st9{font-size:23.8003px;}
</style>
<g id="Layer_1">
</g>
<g id="Layer_2">
	<g>
		<g>
			<defs>
				<path id="SVGID_1_" d="M89.2,33.9l10.8-8.8l10.8,8.8c1.2,1,2.9,0.8,3.9-0.4c1-1.2,0.8-3-0.4-4L100,17.8L85.7,29.5
					c-0.7,0.6-1,1.4-1,2.2c0,0.6,0.2,1.3,0.6,1.8C86.3,34.7,88,34.9,89.2,33.9"/>
			</defs>
			<use xlink:href="#SVGID_1_"  style="overflow:visible;fill-rule:evenodd;clip-rule:evenodd;fill:#E63A2F;"/>
			<clipPath id="SVGID_2_">
				<use xlink:href="#SVGID_1_"  style="overflow:visible;"/>
			</clipPath>
			<g class="st0">
				<defs>
					<rect id="SVGID_3_" x="-3213.5" y="-54.3" width="3351" height="1024"/>
				</defs>
				<use xlink:href="#SVGID_3_"  style="overflow:visible;fill:#E63A2F;"/>
				<clipPath id="SVGID_4_">
					<use xlink:href="#SVGID_3_"  style="overflow:visible;"/>
				</clipPath>
				<rect x="79.7" y="12.8" class="st1" width="40.6" height="26.8"/>
			</g>
		</g>
		<text transform="matrix(1 0 0 1 27.3409 117.4017)"><tspan x="0" y="0" class="st2 st3 st4">10</tspan><tspan x="106.3" y="0" class="st2 st3 st5">%</tspan></text>
		<circle class="st6" cx="100" cy="87.3" r="86.3"/>
		<rect x="4.1" y="217.6" class="st7" width="191.8" height="86.4"/>
		<text transform="matrix(1 0 0 1 45.3378 234.9817)"><tspan x="0" y="0" class="st2 st8 st9">increase in </tspan><tspan x="-25" y="28" class="st2 st8 st9">revenue in year </tspan><tspan x="35.3" y="56" class="st2 st8 st9">one</tspan></text>
	</g>
</g>
</svg>
