<?xml version="1.0" encoding="utf-8"?>
<!-- Generator: Adobe Illustrator 19.2.0, SVG Export Plug-In . SVG Version: 6.00 Build 0)  -->
<svg version="1.1" xmlns="http://www.w3.org/2000/svg" xmlns:xlink="http://www.w3.org/1999/xlink" x="0px" y="0px"
	 viewBox="0 0 200 445.4" style="enable-background:new 0 0 200 445.4;" xml:space="preserve">
<style type="text/css">
	.st0{clip-path:url(#SVGID_2_);}
	.st1{clip-path:url(#SVGID_4_);}
	.st2{fill:#E63A2F;}
	.st3{fill:#1E2D33;}
</style>
<g id="Layer_1">
</g>
<g id="Layer_2">
	<g>
		<g>
			<defs>
				<path id="SVGID_1_" d="M89.2,32.9l10.8-8.8l10.8,8.8c1.2,1,2.9,0.8,3.9-0.4c1-1.2,0.8-3-0.4-4L100,16.8L85.7,28.5
					c-0.7,0.6-1,1.4-1,2.2c0,0.6,0.2,1.3,0.6,1.8C86.3,33.7,88,33.9,89.2,32.9"/>
			</defs>
			<use xlink:href="#SVGID_1_"  style="overflow:visible;fill-rule:evenodd;clip-rule:evenodd;fill:#E63A2F;"/>
			<clipPath id="SVGID_2_">
				<use xlink:href="#SVGID_1_"  style="overflow:visible;"/>
			</clipPath>
			<g class="st0">
				<defs>
					<rect id="SVGID_3_" x="-3213.5" y="-55.3" width="3351" height="1024"/>
				</defs>
				<use xlink:href="#SVGID_3_"  style="overflow:visible;fill:#E63A2F;"/>
				<clipPath id="SVGID_4_">
					<use xlink:href="#SVGID_3_"  style="overflow:visible;"/>
				</clipPath>
				<g class="st1">
					<rect x="79.7" y="11.8" class="st2" width="40.6" height="26.8"/>
				</g>
			</g>
		</g>
		<g>
			<path class="st3" d="M70.3,61.5v3.8c0,1.1-0.1,2-0.4,2.7c-0.2,0.7-0.5,1.3-0.7,1.7l-16.8,35.1c-0.4,0.8-1,1.5-1.7,2.1
				c-0.7,0.6-1.7,0.9-2.9,0.9h-6.4l17.2-34.3c0.4-0.8,0.9-1.5,1.3-2.2s0.9-1.3,1.5-1.9H40.1c-0.5,0-1-0.2-1.4-0.6
				c-0.4-0.4-0.6-0.9-0.6-1.4v-5.9H70.3z"/>
			<path class="st3" d="M75.8,84.8h16.8V92H75.8V84.8z"/>
			<path class="st3" d="M129.2,101.2v6.5h-25.9v-6.5h9.2V76c0-0.6,0-1.1,0-1.7c0-0.6,0.1-1.2,0.1-1.7l-6,5c-0.4,0.3-0.8,0.5-1.2,0.6
				c-0.4,0.1-0.8,0.1-1.1,0c-0.4-0.1-0.7-0.2-1-0.4c-0.3-0.2-0.5-0.4-0.6-0.6l-2.8-3.7l14.2-12h7.2v39.7H129.2z"/>
			<path class="st3" d="M166.1,101.2v6.5h-25.9v-6.5h9.2V76c0-0.6,0-1.1,0-1.7c0-0.6,0.1-1.2,0.1-1.7l-6,5c-0.4,0.3-0.8,0.5-1.2,0.6
				c-0.4,0.1-0.8,0.1-1.1,0c-0.4-0.1-0.7-0.2-1-0.4c-0.3-0.2-0.5-0.4-0.6-0.6l-2.8-3.7l14.2-12h7.2v39.7H166.1z"/>
		</g>
		<g>
			<path class="st3" d="M98.6,132.5c0,1.1-0.2,2.1-0.6,2.9c-0.4,0.9-0.9,1.6-1.5,2.3c-0.6,0.6-1.4,1.1-2.2,1.5
				c-0.8,0.3-1.7,0.5-2.6,0.5c-1,0-1.9-0.2-2.7-0.5s-1.5-0.8-2.1-1.5c-0.6-0.6-1.1-1.4-1.4-2.3c-0.3-0.9-0.5-1.9-0.5-2.9
				c0-1.1,0.2-2.1,0.5-3c0.3-0.9,0.8-1.7,1.4-2.3c0.6-0.6,1.3-1.1,2.1-1.5c0.8-0.3,1.7-0.5,2.7-0.5c1,0,1.9,0.2,2.7,0.5
				c0.8,0.3,1.6,0.8,2.2,1.5s1.1,1.4,1.4,2.3C98.4,130.4,98.6,131.4,98.6,132.5z M107.9,126.4c0.2-0.2,0.4-0.4,0.7-0.6
				c0.3-0.2,0.6-0.3,1.1-0.3h4l-21.6,28.1c-0.2,0.2-0.4,0.4-0.7,0.6s-0.6,0.2-1,0.2h-4.1L107.9,126.4z M94.3,132.5
				c0-0.7-0.1-1.3-0.2-1.8c-0.1-0.5-0.3-0.9-0.5-1.2c-0.2-0.3-0.5-0.5-0.8-0.6c-0.3-0.1-0.7-0.2-1-0.2c-0.4,0-0.7,0.1-1,0.2
				c-0.3,0.1-0.6,0.3-0.8,0.6c-0.2,0.3-0.4,0.7-0.5,1.2s-0.2,1.1-0.2,1.8c0,0.7,0.1,1.3,0.2,1.8c0.1,0.5,0.3,0.8,0.5,1.1
				c0.2,0.3,0.5,0.5,0.8,0.6c0.3,0.1,0.6,0.2,1,0.2c0.4,0,0.7-0.1,1-0.2c0.3-0.1,0.6-0.3,0.8-0.6c0.2-0.3,0.4-0.7,0.5-1.1
				C94.3,133.8,94.3,133.2,94.3,132.5z M115,147.7c0,1.1-0.2,2.1-0.6,2.9c-0.4,0.9-0.9,1.6-1.5,2.3c-0.6,0.6-1.4,1.1-2.2,1.5
				c-0.8,0.3-1.7,0.5-2.6,0.5c-1,0-1.9-0.2-2.7-0.5c-0.8-0.3-1.5-0.8-2.1-1.5c-0.6-0.6-1.1-1.4-1.4-2.3c-0.3-0.9-0.5-1.9-0.5-2.9
				c0-1.1,0.2-2.1,0.5-3c0.3-0.9,0.8-1.7,1.4-2.3c0.6-0.6,1.3-1.1,2.1-1.5s1.7-0.5,2.7-0.5s1.9,0.2,2.7,0.5s1.6,0.8,2.2,1.5
				c0.6,0.6,1.1,1.4,1.4,2.3C114.9,145.5,115,146.6,115,147.7z M110.8,147.7c0-0.7-0.1-1.3-0.2-1.8c-0.1-0.5-0.3-0.9-0.5-1.2
				c-0.2-0.3-0.5-0.5-0.8-0.6s-0.7-0.2-1-0.2s-0.7,0.1-1,0.2c-0.3,0.1-0.6,0.3-0.8,0.6c-0.2,0.3-0.4,0.7-0.5,1.2
				c-0.1,0.5-0.2,1.1-0.2,1.8c0,0.7,0.1,1.3,0.2,1.8c0.1,0.5,0.3,0.8,0.5,1.1c0.2,0.3,0.5,0.5,0.8,0.6c0.3,0.1,0.6,0.2,1,0.2
				s0.7-0.1,1-0.2s0.6-0.3,0.8-0.6c0.2-0.3,0.4-0.7,0.5-1.1C110.7,149,110.8,148.4,110.8,147.7z"/>
		</g>
		<g>
			<path class="st3" d="M100,173c-47.8,0-86.8-38.9-86.8-86.8c0-47.8,38.9-86.8,86.8-86.8s86.8,38.9,86.8,86.8
				C186.8,134.1,147.8,173,100,173z M100,0.5C52.7,0.5,14.2,39,14.2,86.3S52.7,172,100,172c47.3,0,85.8-38.5,85.8-85.8
				S147.3,0.5,100,0.5z"/>
		</g>
		<g>
			<path class="st3" d="M49,234h-1.2v-16.8H49V234z"/>
			<path class="st3" d="M54.4,224.2c0.5-0.7,1.2-1.2,1.9-1.6c0.7-0.4,1.5-0.6,2.4-0.6c0.7,0,1.2,0.1,1.7,0.3
				c0.5,0.2,0.9,0.5,1.2,0.9s0.6,0.9,0.7,1.4c0.2,0.5,0.2,1.2,0.2,1.9v7.6h-1.1v-7.6c0-1.1-0.3-2-0.8-2.6s-1.3-0.9-2.3-0.9
				c-0.8,0-1.5,0.2-2.2,0.6c-0.7,0.4-1.3,0.9-1.8,1.6v8.9h-1.1v-11.8h0.6c0.2,0,0.3,0.1,0.3,0.3L54.4,224.2z"/>
			<path class="st3" d="M74.3,223.7c0,0-0.1,0.1-0.1,0.1c0,0-0.1,0-0.1,0c-0.1,0-0.2-0.1-0.3-0.2s-0.3-0.2-0.5-0.4
				c-0.2-0.1-0.5-0.2-0.9-0.4s-0.8-0.2-1.3-0.2c-0.7,0-1.3,0.1-1.8,0.4c-0.5,0.2-1,0.6-1.3,1c-0.4,0.5-0.6,1-0.8,1.6
				c-0.2,0.6-0.3,1.4-0.3,2.2c0,0.8,0.1,1.6,0.3,2.2s0.5,1.2,0.8,1.6s0.8,0.8,1.3,1c0.5,0.2,1.1,0.3,1.7,0.3c0.6,0,1-0.1,1.4-0.2
				s0.7-0.3,1-0.4c0.2-0.2,0.4-0.3,0.6-0.4c0.1-0.1,0.3-0.2,0.4-0.2s0.2,0,0.2,0.1l0.3,0.4c-0.2,0.2-0.4,0.5-0.7,0.7
				s-0.6,0.4-0.9,0.5c-0.3,0.2-0.7,0.3-1.1,0.4c-0.4,0.1-0.8,0.1-1.3,0.1c-0.8,0-1.4-0.1-2.1-0.4c-0.6-0.3-1.2-0.7-1.6-1.2
				s-0.8-1.2-1-1.9c-0.2-0.8-0.4-1.6-0.4-2.6c0-0.9,0.1-1.7,0.4-2.5c0.2-0.7,0.6-1.4,1-1.9c0.5-0.5,1-1,1.7-1.3
				c0.7-0.3,1.4-0.4,2.3-0.4c0.8,0,1.5,0.1,2,0.4c0.6,0.2,1.1,0.6,1.6,1L74.3,223.7z"/>
			<path class="st3" d="M78.7,225c0.2-0.5,0.4-0.9,0.6-1.3s0.5-0.7,0.8-1c0.3-0.3,0.6-0.5,1-0.6c0.4-0.1,0.8-0.2,1.3-0.2
				c0.2,0,0.5,0,0.7,0.1c0.2,0,0.4,0.1,0.6,0.2l-0.1,0.8c0,0.1-0.1,0.2-0.2,0.2c-0.1,0-0.2,0-0.4-0.1s-0.5-0.1-0.8-0.1
				c-0.5,0-0.9,0.1-1.2,0.2s-0.7,0.3-1,0.6c-0.3,0.3-0.5,0.6-0.7,1c-0.2,0.4-0.4,0.9-0.6,1.4v7.7h-1.1v-11.8h0.6
				c0.1,0,0.2,0,0.3,0.1c0.1,0.1,0.1,0.2,0.1,0.3L78.7,225z"/>
			<path class="st3" d="M85.7,227.6v0.2c0,0.9,0.1,1.7,0.3,2.3c0.2,0.7,0.5,1.2,0.9,1.7s0.8,0.8,1.4,1c0.5,0.2,1.1,0.3,1.8,0.3
				c0.6,0,1.1-0.1,1.5-0.2c0.4-0.1,0.8-0.3,1.1-0.4c0.3-0.2,0.5-0.3,0.7-0.4c0.2-0.1,0.3-0.2,0.4-0.2c0.1,0,0.2,0,0.2,0.1l0.3,0.4
				c-0.2,0.2-0.4,0.5-0.8,0.7s-0.7,0.4-1,0.5c-0.4,0.1-0.8,0.3-1.2,0.4c-0.4,0.1-0.9,0.1-1.3,0.1c-0.8,0-1.5-0.1-2.2-0.4
				c-0.7-0.3-1.2-0.7-1.7-1.2c-0.5-0.5-0.8-1.2-1.1-2s-0.4-1.7-0.4-2.7c0-0.8,0.1-1.6,0.4-2.4c0.2-0.7,0.6-1.3,1-1.9
				c0.5-0.5,1-0.9,1.7-1.2c0.7-0.3,1.4-0.4,2.3-0.4c0.7,0,1.3,0.1,1.9,0.3c0.6,0.2,1.1,0.6,1.5,1c0.4,0.4,0.8,1,1,1.6
				c0.2,0.6,0.4,1.4,0.4,2.2c0,0.2,0,0.3-0.1,0.4c0,0.1-0.1,0.1-0.2,0.1H85.7z M93.6,226.9c0-0.6-0.1-1.2-0.3-1.7
				c-0.2-0.5-0.4-0.9-0.8-1.3c-0.3-0.3-0.7-0.6-1.2-0.8s-0.9-0.3-1.5-0.3c-0.6,0-1.2,0.1-1.6,0.3c-0.5,0.2-0.9,0.5-1.3,0.8
				c-0.4,0.4-0.6,0.8-0.9,1.3c-0.2,0.5-0.4,1.1-0.4,1.7H93.6z"/>
			<path class="st3" d="M97.4,223.8c0.6-0.6,1.3-1.1,2-1.4c0.7-0.3,1.5-0.5,2.3-0.5c0.6,0,1.2,0.1,1.7,0.3c0.5,0.2,0.9,0.5,1.2,0.9
				s0.5,0.8,0.7,1.4c0.2,0.5,0.2,1.1,0.2,1.8v7.7H105c-0.2,0-0.4-0.1-0.4-0.3l-0.2-1.5c-0.3,0.3-0.6,0.6-1,0.9s-0.7,0.5-1,0.6
				c-0.3,0.2-0.7,0.3-1.1,0.4c-0.4,0.1-0.8,0.1-1.3,0.1c-0.4,0-0.8-0.1-1.2-0.2c-0.4-0.1-0.7-0.3-1-0.5c-0.3-0.2-0.5-0.6-0.7-0.9
				s-0.3-0.8-0.3-1.4c0-0.5,0.1-1,0.4-1.4c0.3-0.4,0.7-0.8,1.3-1.1s1.4-0.6,2.4-0.8c1-0.2,2.1-0.3,3.4-0.3v-1.2
				c0-1.1-0.2-1.9-0.7-2.5c-0.5-0.6-1.2-0.9-2.1-0.9c-0.6,0-1.1,0.1-1.5,0.2c-0.4,0.2-0.7,0.3-1,0.5c-0.3,0.2-0.5,0.4-0.7,0.5
				c-0.2,0.2-0.3,0.2-0.4,0.2c-0.1,0-0.2,0-0.2-0.1c-0.1,0-0.1-0.1-0.1-0.2L97.4,223.8z M104.4,228.3c-1.1,0-2.1,0.1-2.9,0.3
				c-0.8,0.1-1.5,0.3-2,0.6c-0.5,0.2-0.9,0.5-1.2,0.9c-0.3,0.3-0.4,0.7-0.4,1.1c0,0.4,0.1,0.7,0.2,1c0.1,0.3,0.3,0.5,0.5,0.7
				s0.5,0.3,0.8,0.4c0.3,0.1,0.6,0.1,0.9,0.1c0.5,0,0.9,0,1.3-0.1c0.4-0.1,0.7-0.2,1.1-0.4c0.3-0.2,0.6-0.4,0.9-0.6s0.6-0.5,0.8-0.8
				V228.3z"/>
			<path class="st3" d="M115.8,223.6c-0.1,0.1-0.2,0.2-0.3,0.2c-0.1,0-0.2,0-0.3-0.1c-0.1-0.1-0.3-0.2-0.5-0.3
				c-0.2-0.1-0.5-0.2-0.8-0.3c-0.3-0.1-0.7-0.1-1.2-0.1c-0.4,0-0.8,0.1-1.2,0.2c-0.4,0.1-0.7,0.3-0.9,0.5c-0.2,0.2-0.4,0.4-0.6,0.7
				c-0.1,0.3-0.2,0.6-0.2,0.9c0,0.4,0.1,0.7,0.3,0.9s0.4,0.5,0.7,0.6c0.3,0.2,0.7,0.3,1.1,0.5s0.8,0.3,1.2,0.4
				c0.4,0.1,0.8,0.3,1.2,0.4s0.7,0.3,1.1,0.6c0.3,0.2,0.6,0.5,0.7,0.8s0.3,0.7,0.3,1.2c0,0.5-0.1,1-0.3,1.4s-0.5,0.8-0.8,1.2
				c-0.4,0.3-0.8,0.6-1.3,0.8s-1.1,0.3-1.8,0.3c-0.8,0-1.6-0.1-2.2-0.4s-1.1-0.6-1.6-1l0.3-0.4c0-0.1,0.1-0.1,0.1-0.1
				c0.1,0,0.1,0,0.2,0c0.1,0,0.2,0.1,0.4,0.2c0.1,0.1,0.3,0.3,0.6,0.4s0.5,0.3,0.9,0.4c0.4,0.1,0.8,0.2,1.3,0.2
				c0.5,0,0.9-0.1,1.3-0.2s0.7-0.3,1-0.6s0.4-0.5,0.6-0.8s0.2-0.7,0.2-1c0-0.4-0.1-0.7-0.3-1c-0.2-0.3-0.4-0.5-0.8-0.7
				c-0.3-0.2-0.7-0.3-1.1-0.5s-0.8-0.3-1.2-0.4c-0.4-0.1-0.8-0.3-1.2-0.4c-0.4-0.2-0.7-0.3-1.1-0.6c-0.3-0.2-0.6-0.5-0.7-0.8
				c-0.2-0.3-0.3-0.7-0.3-1.2c0-0.4,0.1-0.8,0.3-1.2c0.2-0.4,0.4-0.7,0.8-1c0.3-0.3,0.7-0.5,1.2-0.7c0.5-0.2,1-0.3,1.6-0.3
				c0.7,0,1.4,0.1,1.9,0.3c0.6,0.2,1.1,0.5,1.5,1L115.8,223.6z"/>
			<path class="st3" d="M119.8,227.6v0.2c0,0.9,0.1,1.7,0.3,2.3c0.2,0.7,0.5,1.2,0.9,1.7s0.8,0.8,1.4,1c0.5,0.2,1.1,0.3,1.8,0.3
				c0.6,0,1.1-0.1,1.5-0.2c0.4-0.1,0.8-0.3,1.1-0.4c0.3-0.2,0.5-0.3,0.7-0.4c0.2-0.1,0.3-0.2,0.4-0.2c0.1,0,0.2,0,0.2,0.1l0.3,0.4
				c-0.2,0.2-0.4,0.5-0.8,0.7s-0.7,0.4-1,0.5c-0.4,0.1-0.8,0.3-1.2,0.4c-0.4,0.1-0.9,0.1-1.3,0.1c-0.8,0-1.5-0.1-2.2-0.4
				c-0.7-0.3-1.2-0.7-1.7-1.2c-0.5-0.5-0.8-1.2-1.1-2s-0.4-1.7-0.4-2.7c0-0.8,0.1-1.6,0.4-2.4c0.2-0.7,0.6-1.3,1-1.9
				c0.5-0.5,1-0.9,1.7-1.2c0.7-0.3,1.4-0.4,2.3-0.4c0.7,0,1.3,0.1,1.9,0.3s1.1,0.6,1.5,1c0.4,0.4,0.8,1,1,1.6
				c0.2,0.6,0.4,1.4,0.4,2.2c0,0.2,0,0.3-0.1,0.4s-0.1,0.1-0.2,0.1H119.8z M127.7,226.9c0-0.6-0.1-1.2-0.3-1.7s-0.4-0.9-0.8-1.3
				c-0.3-0.3-0.7-0.6-1.2-0.8s-0.9-0.3-1.5-0.3c-0.6,0-1.2,0.1-1.6,0.3c-0.5,0.2-0.9,0.5-1.3,0.8c-0.4,0.4-0.6,0.8-0.9,1.3
				c-0.2,0.5-0.4,1.1-0.4,1.7H127.7z"/>
			<path class="st3" d="M140,218.1c0,0.1,0,0.3-0.1,0.4s-0.1,0.2-0.2,0.3c-0.1,0.1-0.2,0.2-0.3,0.2s-0.3,0.1-0.4,0.1
				c-0.1,0-0.3,0-0.4-0.1s-0.2-0.1-0.3-0.2c-0.1-0.1-0.2-0.2-0.2-0.3c-0.1-0.1-0.1-0.3-0.1-0.4c0-0.1,0-0.3,0.1-0.4
				c0.1-0.1,0.1-0.2,0.2-0.3c0.1-0.1,0.2-0.2,0.3-0.2c0.1-0.1,0.3-0.1,0.4-0.1c0.1,0,0.3,0,0.4,0.1c0.1,0.1,0.2,0.1,0.3,0.2
				s0.2,0.2,0.2,0.3S140,217.9,140,218.1z M139.5,222.1V234h-1.1v-11.8H139.5z"/>
			<path class="st3" d="M144.6,224.2c0.5-0.7,1.2-1.2,1.9-1.6c0.7-0.4,1.5-0.6,2.4-0.6c0.7,0,1.2,0.1,1.7,0.3
				c0.5,0.2,0.9,0.5,1.2,0.9s0.6,0.9,0.7,1.4c0.2,0.5,0.2,1.2,0.2,1.9v7.6h-1.1v-7.6c0-1.1-0.3-2-0.8-2.6s-1.3-0.9-2.3-0.9
				c-0.8,0-1.5,0.2-2.2,0.6c-0.7,0.4-1.3,0.9-1.8,1.6v8.9h-1.1v-11.8h0.6c0.2,0,0.3,0.1,0.3,0.3L144.6,224.2z"/>
			<path class="st3" d="M52.7,255.6v0.2c0,0.9,0.1,1.7,0.3,2.3c0.2,0.7,0.5,1.2,0.9,1.7s0.8,0.8,1.4,1c0.5,0.2,1.1,0.3,1.8,0.3
				c0.6,0,1.1-0.1,1.5-0.2c0.4-0.1,0.8-0.3,1.1-0.4c0.3-0.2,0.5-0.3,0.7-0.4c0.2-0.1,0.3-0.2,0.4-0.2c0.1,0,0.2,0,0.2,0.1l0.3,0.4
				c-0.2,0.2-0.4,0.5-0.8,0.7s-0.7,0.4-1,0.5c-0.4,0.1-0.8,0.3-1.2,0.4c-0.4,0.1-0.9,0.1-1.3,0.1c-0.8,0-1.5-0.1-2.2-0.4
				c-0.7-0.3-1.2-0.7-1.7-1.2c-0.5-0.5-0.8-1.2-1.1-2s-0.4-1.7-0.4-2.7c0-0.8,0.1-1.6,0.4-2.4c0.2-0.7,0.6-1.3,1-1.9
				c0.5-0.5,1-0.9,1.7-1.2c0.7-0.3,1.4-0.4,2.3-0.4c0.7,0,1.3,0.1,1.9,0.3c0.6,0.2,1.1,0.6,1.5,1c0.4,0.4,0.8,1,1,1.6
				c0.2,0.6,0.4,1.4,0.4,2.2c0,0.2,0,0.3-0.1,0.4c0,0.1-0.1,0.1-0.2,0.1H52.7z M60.6,254.9c0-0.6-0.1-1.2-0.3-1.7
				c-0.2-0.5-0.4-0.9-0.8-1.3c-0.3-0.3-0.7-0.6-1.2-0.8s-0.9-0.3-1.5-0.3c-0.6,0-1.2,0.1-1.6,0.3c-0.5,0.2-0.9,0.5-1.3,0.8
				c-0.4,0.4-0.6,0.8-0.9,1.3c-0.2,0.5-0.4,1.1-0.4,1.7H60.6z"/>
			<path class="st3" d="M64.7,262v-11.8h0.6c0.2,0,0.3,0.1,0.3,0.3l0.1,1.7c0.5-0.7,1-1.2,1.6-1.6c0.6-0.4,1.3-0.6,2-0.6
				c0.9,0,1.6,0.2,2.1,0.8c0.5,0.5,0.9,1.2,1.1,2.1c0.1-0.5,0.3-0.9,0.6-1.3s0.6-0.7,0.9-0.9c0.3-0.2,0.7-0.4,1.1-0.5
				s0.8-0.2,1.2-0.2c0.6,0,1.1,0.1,1.6,0.3s0.9,0.5,1.2,0.9c0.3,0.4,0.6,0.8,0.8,1.4c0.2,0.6,0.3,1.2,0.3,1.9v7.6h-1.1v-7.6
				c0-1.2-0.2-2-0.8-2.6c-0.5-0.6-1.2-0.9-2.1-0.9c-0.4,0-0.8,0.1-1.2,0.2c-0.4,0.2-0.7,0.4-1,0.7c-0.3,0.3-0.5,0.7-0.7,1.1
				c-0.2,0.4-0.3,1-0.3,1.5v7.6h-1.1v-7.6c0-1.2-0.2-2-0.7-2.6c-0.5-0.6-1.1-0.9-2-0.9c-0.6,0-1.2,0.2-1.8,0.6
				c-0.5,0.4-1,0.9-1.5,1.6v9H64.7z"/>
			<path class="st3" d="M84.9,252.3c0.5-0.7,1.1-1.3,1.8-1.7c0.7-0.4,1.5-0.6,2.4-0.6c1.5,0,2.6,0.5,3.4,1.5c0.8,1,1.2,2.5,1.2,4.5
				c0,0.9-0.1,1.7-0.3,2.4c-0.2,0.8-0.6,1.4-1,2c-0.4,0.6-1,1-1.6,1.3s-1.4,0.5-2.2,0.5c-0.8,0-1.5-0.1-2.1-0.4
				c-0.6-0.3-1.1-0.7-1.5-1.3v5.8h-1.1v-16h0.6c0.2,0,0.3,0.1,0.3,0.3L84.9,252.3z M85,259.4c0.2,0.3,0.5,0.6,0.7,0.9
				c0.2,0.2,0.5,0.4,0.8,0.6c0.3,0.1,0.6,0.3,0.9,0.3s0.6,0.1,1,0.1c0.7,0,1.3-0.1,1.8-0.4c0.5-0.3,1-0.6,1.3-1.1s0.6-1,0.8-1.7
				c0.2-0.6,0.3-1.4,0.3-2.1c0-1.8-0.3-3.1-1-3.9c-0.7-0.8-1.6-1.2-2.8-1.2c-0.8,0-1.5,0.2-2.1,0.6c-0.6,0.4-1.2,1-1.7,1.7V259.4z"
				/>
			<path class="st3" d="M98.2,244.7V262h-1.1v-17.3H98.2z"/>
			<path class="st3" d="M106.9,249.9c0.8,0,1.6,0.1,2.3,0.4c0.7,0.3,1.2,0.7,1.7,1.2c0.5,0.5,0.8,1.2,1.1,1.9
				c0.2,0.8,0.4,1.6,0.4,2.5c0,0.9-0.1,1.8-0.4,2.5s-0.6,1.4-1.1,1.9s-1,0.9-1.7,1.2c-0.7,0.3-1.4,0.4-2.3,0.4s-1.6-0.1-2.3-0.4
				c-0.7-0.3-1.2-0.7-1.7-1.2s-0.8-1.2-1.1-1.9s-0.4-1.6-0.4-2.5c0-0.9,0.1-1.8,0.4-2.5c0.2-0.7,0.6-1.4,1.1-1.9
				c0.5-0.5,1-0.9,1.7-1.2C105.3,250.1,106,249.9,106.9,249.9z M106.9,261.2c0.7,0,1.3-0.1,1.9-0.4c0.5-0.2,1-0.6,1.3-1
				c0.4-0.5,0.6-1,0.8-1.6c0.2-0.6,0.3-1.4,0.3-2.1c0-0.8-0.1-1.5-0.3-2.1c-0.2-0.6-0.4-1.2-0.8-1.6c-0.4-0.5-0.8-0.8-1.3-1.1
				c-0.5-0.2-1.1-0.4-1.9-0.4s-1.3,0.1-1.9,0.4s-1,0.6-1.3,1.1c-0.4,0.5-0.6,1-0.8,1.6s-0.3,1.4-0.3,2.1c0,0.8,0.1,1.5,0.3,2.1
				s0.4,1.2,0.8,1.6c0.4,0.5,0.8,0.8,1.3,1S106.2,261.2,106.9,261.2z"/>
			<path class="st3" d="M124.7,250.1l-6.8,15.6c0,0.1-0.1,0.2-0.2,0.3s-0.2,0.1-0.3,0.1h-0.8l2.1-4.6l-5-11.4h0.9
				c0.1,0,0.2,0,0.3,0.1s0.1,0.1,0.1,0.2l4,9.2c0,0.1,0.1,0.2,0.1,0.4s0.1,0.2,0.1,0.4c0-0.1,0.1-0.3,0.1-0.4c0-0.1,0.1-0.2,0.1-0.4
				l3.9-9.2c0-0.1,0.1-0.2,0.2-0.2s0.2-0.1,0.2-0.1H124.7z"/>
			<path class="st3" d="M127.2,255.6v0.2c0,0.9,0.1,1.7,0.3,2.3c0.2,0.7,0.5,1.2,0.9,1.7s0.8,0.8,1.4,1c0.5,0.2,1.1,0.3,1.8,0.3
				c0.6,0,1.1-0.1,1.5-0.2c0.4-0.1,0.8-0.3,1.1-0.4c0.3-0.2,0.5-0.3,0.7-0.4c0.2-0.1,0.3-0.2,0.4-0.2c0.1,0,0.2,0,0.2,0.1l0.3,0.4
				c-0.2,0.2-0.4,0.5-0.8,0.7s-0.7,0.4-1,0.5c-0.4,0.1-0.8,0.3-1.2,0.4c-0.4,0.1-0.9,0.1-1.3,0.1c-0.8,0-1.5-0.1-2.2-0.4
				c-0.7-0.3-1.2-0.7-1.7-1.2c-0.5-0.5-0.8-1.2-1.1-2s-0.4-1.7-0.4-2.7c0-0.8,0.1-1.6,0.4-2.4c0.2-0.7,0.6-1.3,1-1.9
				c0.5-0.5,1-0.9,1.7-1.2c0.7-0.3,1.4-0.4,2.3-0.4c0.7,0,1.3,0.1,1.9,0.3s1.1,0.6,1.5,1c0.4,0.4,0.8,1,1,1.6
				c0.2,0.6,0.4,1.4,0.4,2.2c0,0.2,0,0.3-0.1,0.4s-0.1,0.1-0.2,0.1H127.2z M135.1,254.9c0-0.6-0.1-1.2-0.3-1.7s-0.4-0.9-0.8-1.3
				c-0.3-0.3-0.7-0.6-1.2-0.8s-0.9-0.3-1.5-0.3c-0.6,0-1.2,0.1-1.6,0.3c-0.5,0.2-0.9,0.5-1.3,0.8c-0.4,0.4-0.6,0.8-0.9,1.3
				c-0.2,0.5-0.4,1.1-0.4,1.7H135.1z"/>
			<path class="st3" d="M139.6,255.6v0.2c0,0.9,0.1,1.7,0.3,2.3c0.2,0.7,0.5,1.2,0.9,1.7s0.8,0.8,1.4,1c0.5,0.2,1.1,0.3,1.8,0.3
				c0.6,0,1.1-0.1,1.5-0.2c0.4-0.1,0.8-0.3,1.1-0.4c0.3-0.2,0.5-0.3,0.7-0.4c0.2-0.1,0.3-0.2,0.4-0.2c0.1,0,0.2,0,0.2,0.1l0.3,0.4
				c-0.2,0.2-0.4,0.5-0.8,0.7s-0.7,0.4-1,0.5c-0.4,0.1-0.8,0.3-1.2,0.4c-0.4,0.1-0.9,0.1-1.3,0.1c-0.8,0-1.5-0.1-2.2-0.4
				c-0.7-0.3-1.2-0.7-1.7-1.2c-0.5-0.5-0.8-1.2-1.1-2s-0.4-1.7-0.4-2.7c0-0.8,0.1-1.6,0.4-2.4c0.2-0.7,0.6-1.3,1-1.9
				c0.5-0.5,1-0.9,1.7-1.2c0.7-0.3,1.4-0.4,2.3-0.4c0.7,0,1.3,0.1,1.9,0.3s1.1,0.6,1.5,1c0.4,0.4,0.8,1,1,1.6
				c0.2,0.6,0.4,1.4,0.4,2.2c0,0.2,0,0.3-0.1,0.4s-0.1,0.1-0.2,0.1H139.6z M147.5,254.9c0-0.6-0.1-1.2-0.3-1.7s-0.4-0.9-0.8-1.3
				c-0.3-0.3-0.7-0.6-1.2-0.8s-0.9-0.3-1.5-0.3c-0.6,0-1.2,0.1-1.6,0.3c-0.5,0.2-0.9,0.5-1.3,0.8c-0.4,0.4-0.6,0.8-0.9,1.3
				c-0.2,0.5-0.4,1.1-0.4,1.7H147.5z"/>
			<path class="st3" d="M37.9,278.1V290h-0.6c-0.2,0-0.3-0.1-0.3-0.3l-0.1-1.8c-0.5,0.7-1.2,1.2-1.9,1.6c-0.7,0.4-1.5,0.6-2.4,0.6
				c-0.7,0-1.2-0.1-1.7-0.3c-0.5-0.2-0.9-0.5-1.2-0.9c-0.3-0.4-0.6-0.9-0.7-1.4c-0.2-0.5-0.2-1.2-0.2-1.9v-7.6h1.1v7.6
				c0,1.1,0.3,2,0.8,2.6s1.3,0.9,2.3,0.9c0.8,0,1.5-0.2,2.2-0.6s1.3-0.9,1.8-1.6v-8.9H37.9z"/>
			<path class="st3" d="M42.9,280.2c0.5-0.7,1.2-1.2,1.9-1.6c0.7-0.4,1.5-0.6,2.4-0.6c0.7,0,1.2,0.1,1.7,0.3
				c0.5,0.2,0.9,0.5,1.2,0.9s0.6,0.9,0.7,1.4c0.2,0.5,0.2,1.2,0.2,1.9v7.6H50v-7.6c0-1.1-0.3-2-0.8-2.6s-1.3-0.9-2.3-0.9
				c-0.8,0-1.5,0.2-2.2,0.6c-0.7,0.4-1.3,0.9-1.8,1.6v8.9h-1.1v-11.8h0.6c0.2,0,0.3,0.1,0.3,0.3L42.9,280.2z"/>
			<path class="st3" d="M64.1,272.7V290h-0.6c-0.2,0-0.3-0.1-0.4-0.3l-0.1-1.9c-0.5,0.7-1.1,1.3-1.8,1.7s-1.5,0.6-2.4,0.6
				c-1.5,0-2.6-0.5-3.4-1.5c-0.8-1-1.2-2.5-1.2-4.5c0-0.9,0.1-1.7,0.3-2.4c0.2-0.8,0.6-1.4,1-2c0.4-0.6,1-1,1.6-1.3s1.4-0.5,2.2-0.5
				c0.8,0,1.5,0.1,2.1,0.4c0.6,0.3,1.1,0.7,1.5,1.3v-7H64.1z M62.9,280.7c-0.5-0.7-1-1.2-1.5-1.4c-0.6-0.3-1.2-0.4-1.9-0.4
				c-0.7,0-1.3,0.1-1.8,0.4s-1,0.6-1.3,1.1s-0.6,1-0.8,1.7c-0.2,0.6-0.3,1.4-0.3,2.1c0,1.8,0.3,3.1,1,3.9s1.6,1.2,2.8,1.2
				c0.8,0,1.5-0.2,2.1-0.6s1.2-1,1.7-1.7V280.7z"/>
			<path class="st3" d="M68.4,283.6v0.2c0,0.9,0.1,1.7,0.3,2.3c0.2,0.7,0.5,1.2,0.9,1.7s0.8,0.8,1.4,1c0.5,0.2,1.1,0.3,1.8,0.3
				c0.6,0,1.1-0.1,1.5-0.2c0.4-0.1,0.8-0.3,1.1-0.4c0.3-0.2,0.5-0.3,0.7-0.4c0.2-0.1,0.3-0.2,0.4-0.2c0.1,0,0.2,0,0.2,0.1l0.3,0.4
				c-0.2,0.2-0.4,0.5-0.8,0.7s-0.7,0.4-1,0.5c-0.4,0.1-0.8,0.3-1.2,0.4c-0.4,0.1-0.9,0.1-1.3,0.1c-0.8,0-1.5-0.1-2.2-0.4
				c-0.7-0.3-1.2-0.7-1.7-1.2c-0.5-0.5-0.8-1.2-1.1-2s-0.4-1.7-0.4-2.7c0-0.8,0.1-1.6,0.4-2.4c0.2-0.7,0.6-1.3,1-1.9
				c0.5-0.5,1-0.9,1.7-1.2c0.7-0.3,1.4-0.4,2.3-0.4c0.7,0,1.3,0.1,1.9,0.3c0.6,0.2,1.1,0.6,1.5,1c0.4,0.4,0.8,1,1,1.6
				c0.2,0.6,0.4,1.4,0.4,2.2c0,0.2,0,0.3-0.1,0.4c0,0.1-0.1,0.1-0.2,0.1H68.4z M76.3,282.9c0-0.6-0.1-1.2-0.3-1.7
				c-0.2-0.5-0.4-0.9-0.8-1.3c-0.3-0.3-0.7-0.6-1.2-0.8s-0.9-0.3-1.5-0.3c-0.6,0-1.2,0.1-1.6,0.3c-0.5,0.2-0.9,0.5-1.3,0.8
				c-0.4,0.4-0.6,0.8-0.9,1.3c-0.2,0.5-0.4,1.1-0.4,1.7H76.3z"/>
			<path class="st3" d="M81.5,281c0.2-0.5,0.4-0.9,0.6-1.3s0.5-0.7,0.8-1c0.3-0.3,0.6-0.5,1-0.6c0.4-0.1,0.8-0.2,1.3-0.2
				c0.2,0,0.5,0,0.7,0.1c0.2,0,0.4,0.1,0.6,0.2l-0.1,0.8c0,0.1-0.1,0.2-0.2,0.2c-0.1,0-0.2,0-0.4-0.1S85.3,279,85,279
				c-0.5,0-0.9,0.1-1.2,0.2s-0.7,0.3-1,0.6c-0.3,0.3-0.5,0.6-0.7,1c-0.2,0.4-0.4,0.9-0.6,1.4v7.7h-1.1v-11.8H81c0.1,0,0.2,0,0.3,0.1
				c0.1,0.1,0.1,0.2,0.1,0.3L81.5,281z"/>
			<path class="st3" d="M95.2,279.6c-0.1,0.1-0.2,0.2-0.3,0.2c-0.1,0-0.2,0-0.3-0.1c-0.1-0.1-0.3-0.2-0.5-0.3s-0.5-0.2-0.8-0.3
				c-0.3-0.1-0.7-0.1-1.2-0.1c-0.4,0-0.8,0.1-1.2,0.2c-0.4,0.1-0.7,0.3-0.9,0.5c-0.2,0.2-0.4,0.4-0.6,0.7c-0.1,0.3-0.2,0.6-0.2,0.9
				c0,0.4,0.1,0.7,0.3,0.9s0.4,0.5,0.7,0.6c0.3,0.2,0.7,0.3,1.1,0.5c0.4,0.1,0.8,0.3,1.2,0.4c0.4,0.1,0.8,0.3,1.2,0.4
				c0.4,0.2,0.7,0.3,1.1,0.6c0.3,0.2,0.6,0.5,0.7,0.8s0.3,0.7,0.3,1.2c0,0.5-0.1,1-0.3,1.4s-0.5,0.8-0.8,1.2s-0.8,0.6-1.3,0.8
				s-1.1,0.3-1.8,0.3c-0.8,0-1.6-0.1-2.2-0.4c-0.6-0.3-1.1-0.6-1.6-1l0.3-0.4c0-0.1,0.1-0.1,0.1-0.1c0.1,0,0.1,0,0.2,0
				c0.1,0,0.2,0.1,0.4,0.2c0.1,0.1,0.3,0.3,0.6,0.4s0.5,0.3,0.9,0.4c0.4,0.1,0.8,0.2,1.3,0.2c0.5,0,0.9-0.1,1.3-0.2
				c0.4-0.1,0.7-0.3,1-0.6s0.4-0.5,0.6-0.8s0.2-0.7,0.2-1c0-0.4-0.1-0.7-0.3-1c-0.2-0.3-0.4-0.5-0.8-0.7c-0.3-0.2-0.7-0.3-1.1-0.5
				s-0.8-0.3-1.2-0.4c-0.4-0.1-0.8-0.3-1.2-0.4c-0.4-0.2-0.7-0.3-1.1-0.6c-0.3-0.2-0.6-0.5-0.7-0.8c-0.2-0.3-0.3-0.7-0.3-1.2
				c0-0.4,0.1-0.8,0.3-1.2c0.2-0.4,0.4-0.7,0.8-1c0.3-0.3,0.7-0.5,1.2-0.7c0.5-0.2,1-0.3,1.6-0.3c0.7,0,1.4,0.1,1.9,0.3
				c0.6,0.2,1.1,0.5,1.5,1L95.2,279.6z"/>
			<path class="st3" d="M102,290.2c-0.8,0-1.4-0.2-1.9-0.7s-0.7-1.1-0.7-2.1v-8.1h-1.7c-0.1,0-0.2,0-0.2-0.1c-0.1,0-0.1-0.1-0.1-0.2
				v-0.4l2-0.1l0.3-4.2c0-0.1,0-0.1,0.1-0.2c0-0.1,0.1-0.1,0.2-0.1h0.5v4.5h3.7v0.8h-3.7v8c0,0.3,0,0.6,0.1,0.8s0.2,0.4,0.3,0.6
				s0.3,0.3,0.5,0.3s0.4,0.1,0.6,0.1c0.3,0,0.5,0,0.7-0.1c0.2-0.1,0.4-0.2,0.5-0.3c0.2-0.1,0.3-0.2,0.4-0.3c0.1-0.1,0.2-0.1,0.2-0.1
				c0.1,0,0.1,0,0.2,0.1l0.3,0.5c-0.3,0.3-0.7,0.6-1.1,0.8C103,290.1,102.5,290.2,102,290.2z"/>
			<path class="st3" d="M106.6,279.8c0.6-0.6,1.3-1.1,2-1.4c0.7-0.3,1.5-0.5,2.3-0.5c0.6,0,1.2,0.1,1.7,0.3c0.5,0.2,0.9,0.5,1.2,0.9
				s0.5,0.8,0.7,1.4c0.2,0.5,0.2,1.1,0.2,1.8v7.7h-0.5c-0.2,0-0.4-0.1-0.4-0.3l-0.2-1.5c-0.3,0.3-0.6,0.6-1,0.9s-0.7,0.5-1,0.6
				c-0.3,0.2-0.7,0.3-1.1,0.4s-0.8,0.1-1.3,0.1c-0.4,0-0.8-0.1-1.2-0.2c-0.4-0.1-0.7-0.3-1-0.5s-0.5-0.6-0.7-0.9s-0.3-0.8-0.3-1.4
				c0-0.5,0.1-1,0.4-1.4c0.3-0.4,0.7-0.8,1.3-1.1c0.6-0.3,1.4-0.6,2.4-0.8s2.1-0.3,3.4-0.3v-1.2c0-1.1-0.2-1.9-0.7-2.5
				c-0.5-0.6-1.2-0.9-2.1-0.9c-0.6,0-1.1,0.1-1.5,0.2c-0.4,0.2-0.7,0.3-1,0.5s-0.5,0.4-0.7,0.5c-0.2,0.2-0.3,0.2-0.4,0.2
				c-0.1,0-0.2,0-0.2-0.1c-0.1,0-0.1-0.1-0.1-0.2L106.6,279.8z M113.6,284.3c-1.1,0-2.1,0.1-2.9,0.3s-1.5,0.3-2,0.6
				s-0.9,0.5-1.2,0.9c-0.3,0.3-0.4,0.7-0.4,1.1c0,0.4,0.1,0.7,0.2,1c0.1,0.3,0.3,0.5,0.5,0.7c0.2,0.2,0.5,0.3,0.8,0.4
				c0.3,0.1,0.6,0.1,0.9,0.1c0.5,0,0.9,0,1.3-0.1c0.4-0.1,0.7-0.2,1.1-0.4c0.3-0.2,0.6-0.4,0.9-0.6c0.3-0.2,0.6-0.5,0.8-0.8V284.3z"
				/>
			<path class="st3" d="M119.5,280.2c0.5-0.7,1.2-1.2,1.9-1.6c0.7-0.4,1.5-0.6,2.4-0.6c0.7,0,1.2,0.1,1.7,0.3
				c0.5,0.2,0.9,0.5,1.2,0.9s0.6,0.9,0.7,1.4c0.2,0.5,0.2,1.2,0.2,1.9v7.6h-1.1v-7.6c0-1.1-0.3-2-0.8-2.6s-1.3-0.9-2.3-0.9
				c-0.8,0-1.5,0.2-2.2,0.6c-0.7,0.4-1.3,0.9-1.8,1.6v8.9h-1.1v-11.8h0.6c0.2,0,0.3,0.1,0.3,0.3L119.5,280.2z"/>
			<path class="st3" d="M140.8,272.7V290h-0.6c-0.2,0-0.3-0.1-0.4-0.3l-0.1-1.9c-0.5,0.7-1.1,1.3-1.8,1.7s-1.5,0.6-2.4,0.6
				c-1.5,0-2.6-0.5-3.4-1.5s-1.2-2.5-1.2-4.5c0-0.9,0.1-1.7,0.3-2.4c0.2-0.8,0.6-1.4,1-2c0.4-0.6,1-1,1.6-1.3s1.4-0.5,2.2-0.5
				c0.8,0,1.5,0.1,2.1,0.4c0.6,0.3,1.1,0.7,1.5,1.3v-7H140.8z M139.6,280.7c-0.5-0.7-1-1.2-1.5-1.4c-0.6-0.3-1.2-0.4-1.9-0.4
				c-0.7,0-1.3,0.1-1.8,0.4s-1,0.6-1.3,1.1c-0.4,0.5-0.6,1-0.8,1.7c-0.2,0.6-0.3,1.4-0.3,2.1c0,1.8,0.3,3.1,1,3.9s1.6,1.2,2.8,1.2
				c0.8,0,1.5-0.2,2.1-0.6s1.2-1,1.7-1.7V280.7z"/>
			<path class="st3" d="M146.4,274.1c0,0.1,0,0.3-0.1,0.4s-0.1,0.2-0.2,0.3c-0.1,0.1-0.2,0.2-0.3,0.2s-0.3,0.1-0.4,0.1
				s-0.3,0-0.4-0.1s-0.2-0.1-0.3-0.2c-0.1-0.1-0.2-0.2-0.2-0.3s-0.1-0.3-0.1-0.4c0-0.1,0-0.3,0.1-0.4s0.1-0.2,0.2-0.3
				c0.1-0.1,0.2-0.2,0.3-0.2c0.1-0.1,0.3-0.1,0.4-0.1s0.3,0,0.4,0.1c0.1,0.1,0.2,0.1,0.3,0.2c0.1,0.1,0.2,0.2,0.2,0.3
				S146.4,273.9,146.4,274.1z M145.9,278.1V290h-1.1v-11.8H145.9z"/>
			<path class="st3" d="M151,280.2c0.5-0.7,1.2-1.2,1.9-1.6c0.7-0.4,1.5-0.6,2.4-0.6c0.7,0,1.2,0.1,1.7,0.3c0.5,0.2,0.9,0.5,1.2,0.9
				s0.6,0.9,0.7,1.4c0.2,0.5,0.2,1.2,0.2,1.9v7.6h-1.1v-7.6c0-1.1-0.3-2-0.8-2.6s-1.3-0.9-2.3-0.9c-0.8,0-1.5,0.2-2.2,0.6
				c-0.7,0.4-1.3,0.9-1.8,1.6v8.9H150v-11.8h0.6c0.2,0,0.3,0.1,0.3,0.3L151,280.2z"/>
			<path class="st3" d="M172.6,278.7v0.4c0,0.2-0.1,0.3-0.3,0.3l-1.8,0.1c0.2,0.3,0.4,0.6,0.5,1s0.2,0.8,0.2,1.2
				c0,0.6-0.1,1.1-0.3,1.6s-0.5,0.9-0.9,1.2c-0.4,0.3-0.8,0.6-1.3,0.8c-0.5,0.2-1.1,0.3-1.7,0.3c-0.7,0-1.3-0.1-1.8-0.3
				c-0.3,0.2-0.6,0.4-0.8,0.7s-0.3,0.5-0.3,0.8c0,0.3,0.1,0.6,0.4,0.8c0.2,0.2,0.6,0.3,1,0.4c0.4,0.1,0.8,0.1,1.3,0.2
				c0.5,0,1,0,1.5,0.1c0.5,0,1,0.1,1.5,0.1s1,0.2,1.3,0.4c0.4,0.2,0.7,0.4,1,0.7s0.4,0.7,0.4,1.3c0,0.5-0.1,1-0.4,1.4
				c-0.2,0.5-0.6,0.9-1.1,1.2c-0.5,0.3-1,0.6-1.7,0.8c-0.7,0.2-1.4,0.3-2.2,0.3c-0.8,0-1.6-0.1-2.2-0.3s-1.2-0.4-1.6-0.7
				c-0.4-0.3-0.7-0.6-1-1c-0.2-0.4-0.3-0.8-0.3-1.2c0-0.6,0.2-1.2,0.6-1.6c0.4-0.4,1-0.8,1.7-1.1c-0.4-0.1-0.7-0.3-1-0.6
				c-0.2-0.3-0.4-0.6-0.4-1.1c0-0.2,0-0.3,0.1-0.5c0.1-0.2,0.2-0.4,0.3-0.5s0.3-0.3,0.5-0.5c0.2-0.2,0.4-0.3,0.6-0.4
				c-0.6-0.3-1-0.8-1.3-1.3c-0.3-0.5-0.5-1.2-0.5-1.9c0-0.6,0.1-1.1,0.3-1.6c0.2-0.5,0.5-0.9,0.9-1.2c0.4-0.3,0.8-0.6,1.3-0.8
				s1.1-0.3,1.7-0.3c0.5,0,1,0.1,1.4,0.2s0.8,0.3,1.2,0.5H172.6z M171.3,290.8c0-0.4-0.1-0.7-0.3-0.9c-0.2-0.2-0.5-0.4-0.8-0.5
				c-0.3-0.1-0.7-0.2-1.1-0.3c-0.4-0.1-0.9-0.1-1.3-0.1c-0.5,0-0.9,0-1.4-0.1c-0.5,0-0.9-0.1-1.3-0.1c-0.3,0.1-0.6,0.3-0.8,0.4
				c-0.3,0.2-0.5,0.3-0.7,0.5s-0.3,0.4-0.4,0.6c-0.1,0.2-0.2,0.5-0.2,0.8c0,0.3,0.1,0.7,0.3,1c0.2,0.3,0.4,0.6,0.8,0.8
				c0.3,0.2,0.8,0.4,1.3,0.5c0.5,0.1,1.1,0.2,1.7,0.2c0.6,0,1.2-0.1,1.7-0.2s1-0.3,1.4-0.6s0.7-0.5,0.9-0.9S171.3,291.2,171.3,290.8
				z M166.9,284.7c0.5,0,1-0.1,1.4-0.2s0.7-0.4,1-0.6c0.3-0.3,0.5-0.6,0.6-0.9c0.1-0.4,0.2-0.8,0.2-1.2s-0.1-0.9-0.2-1.2
				c-0.1-0.4-0.4-0.7-0.6-0.9c-0.3-0.3-0.6-0.5-1-0.6c-0.4-0.1-0.8-0.2-1.3-0.2s-0.9,0.1-1.3,0.2c-0.4,0.1-0.7,0.3-1,0.6
				c-0.3,0.3-0.5,0.6-0.6,0.9s-0.2,0.8-0.2,1.2s0.1,0.8,0.2,1.2s0.4,0.7,0.6,0.9c0.3,0.3,0.6,0.5,1,0.6S166.4,284.7,166.9,284.7z"/>
			<path class="st3" d="M65.1,307.6c-0.1,0.1-0.2,0.2-0.3,0.2c-0.1,0-0.2,0-0.3-0.1c-0.1-0.1-0.3-0.2-0.5-0.3s-0.5-0.2-0.8-0.3
				c-0.3-0.1-0.7-0.1-1.2-0.1c-0.4,0-0.8,0.1-1.2,0.2c-0.4,0.1-0.7,0.3-0.9,0.5c-0.2,0.2-0.4,0.4-0.6,0.7c-0.1,0.3-0.2,0.6-0.2,0.9
				c0,0.4,0.1,0.7,0.3,0.9s0.4,0.5,0.7,0.6c0.3,0.2,0.7,0.3,1.1,0.5c0.4,0.1,0.8,0.3,1.2,0.4c0.4,0.1,0.8,0.3,1.2,0.4
				c0.4,0.2,0.7,0.3,1.1,0.6c0.3,0.2,0.6,0.5,0.7,0.8s0.3,0.7,0.3,1.2c0,0.5-0.1,1-0.3,1.4s-0.5,0.8-0.8,1.2s-0.8,0.6-1.3,0.8
				s-1.1,0.3-1.8,0.3c-0.8,0-1.6-0.1-2.2-0.4c-0.6-0.3-1.1-0.6-1.6-1l0.3-0.4c0-0.1,0.1-0.1,0.1-0.1c0.1,0,0.1,0,0.2,0
				c0.1,0,0.2,0.1,0.4,0.2c0.1,0.1,0.3,0.3,0.6,0.4s0.5,0.3,0.9,0.4c0.4,0.1,0.8,0.2,1.3,0.2c0.5,0,0.9-0.1,1.3-0.2
				c0.4-0.1,0.7-0.3,1-0.6s0.4-0.5,0.6-0.8s0.2-0.7,0.2-1c0-0.4-0.1-0.7-0.3-1c-0.2-0.3-0.4-0.5-0.8-0.7c-0.3-0.2-0.7-0.3-1.1-0.5
				s-0.8-0.3-1.2-0.4c-0.4-0.1-0.8-0.3-1.2-0.4c-0.4-0.2-0.7-0.3-1.1-0.6c-0.3-0.2-0.6-0.5-0.7-0.8c-0.2-0.3-0.3-0.7-0.3-1.2
				c0-0.4,0.1-0.8,0.3-1.2c0.2-0.4,0.4-0.7,0.8-1c0.3-0.3,0.7-0.5,1.2-0.7c0.5-0.2,1-0.3,1.6-0.3c0.7,0,1.4,0.1,1.9,0.3
				c0.6,0.2,1.1,0.5,1.5,1L65.1,307.6z"/>
			<path class="st3" d="M71.9,318.2c-0.8,0-1.4-0.2-1.9-0.7s-0.7-1.1-0.7-2.1v-8.1h-1.7c-0.1,0-0.2,0-0.2-0.1
				c-0.1,0-0.1-0.1-0.1-0.2v-0.4l2-0.1l0.3-4.2c0-0.1,0-0.1,0.1-0.2c0-0.1,0.1-0.1,0.2-0.1h0.5v4.5h3.7v0.8h-3.7v8
				c0,0.3,0,0.6,0.1,0.8s0.2,0.4,0.3,0.6c0.1,0.2,0.3,0.3,0.5,0.3s0.4,0.1,0.6,0.1c0.3,0,0.5,0,0.7-0.1c0.2-0.1,0.4-0.2,0.5-0.3
				c0.2-0.1,0.3-0.2,0.4-0.3c0.1-0.1,0.2-0.1,0.2-0.1c0.1,0,0.1,0,0.2,0.1l0.3,0.5c-0.3,0.3-0.7,0.6-1.1,0.8
				C72.9,318.1,72.4,318.2,71.9,318.2z"/>
			<path class="st3" d="M77.9,309c0.2-0.5,0.4-0.9,0.6-1.3s0.5-0.7,0.8-1c0.3-0.3,0.6-0.5,1-0.6c0.4-0.1,0.8-0.2,1.3-0.2
				c0.2,0,0.5,0,0.7,0.1c0.2,0,0.4,0.1,0.6,0.2l-0.1,0.8c0,0.1-0.1,0.2-0.2,0.2c-0.1,0-0.2,0-0.4-0.1s-0.5-0.1-0.8-0.1
				c-0.5,0-0.9,0.1-1.2,0.2s-0.7,0.3-1,0.6c-0.3,0.3-0.5,0.6-0.7,1c-0.2,0.4-0.4,0.9-0.6,1.4v7.7h-1.1v-11.8h0.6
				c0.1,0,0.2,0,0.3,0.1c0.1,0.1,0.1,0.2,0.1,0.3L77.9,309z"/>
			<path class="st3" d="M84.7,307.8c0.6-0.6,1.3-1.1,2-1.4c0.7-0.3,1.5-0.5,2.3-0.5c0.6,0,1.2,0.1,1.7,0.3s0.9,0.5,1.2,0.9
				s0.5,0.8,0.7,1.4s0.2,1.1,0.2,1.8v7.7h-0.5c-0.2,0-0.4-0.1-0.4-0.3l-0.2-1.5c-0.3,0.3-0.6,0.6-1,0.9s-0.7,0.5-1,0.6
				c-0.3,0.2-0.7,0.3-1.1,0.4c-0.4,0.1-0.8,0.1-1.3,0.1c-0.4,0-0.8-0.1-1.2-0.2c-0.4-0.1-0.7-0.3-1-0.5c-0.3-0.2-0.5-0.6-0.7-0.9
				s-0.3-0.8-0.3-1.4c0-0.5,0.1-1,0.4-1.4c0.3-0.4,0.7-0.8,1.3-1.1s1.4-0.6,2.4-0.8s2.1-0.3,3.4-0.3v-1.2c0-1.1-0.2-1.9-0.7-2.5
				c-0.5-0.6-1.2-0.9-2.1-0.9c-0.6,0-1.1,0.1-1.5,0.2c-0.4,0.2-0.7,0.3-1,0.5c-0.3,0.2-0.5,0.4-0.7,0.5c-0.2,0.2-0.3,0.2-0.4,0.2
				c-0.1,0-0.2,0-0.2-0.1c-0.1,0-0.1-0.1-0.1-0.2L84.7,307.8z M91.6,312.3c-1.1,0-2.1,0.1-2.9,0.3c-0.8,0.1-1.5,0.3-2,0.6
				c-0.5,0.2-0.9,0.5-1.2,0.9c-0.3,0.3-0.4,0.7-0.4,1.1c0,0.4,0.1,0.7,0.2,1c0.1,0.3,0.3,0.5,0.5,0.7s0.5,0.3,0.8,0.4
				c0.3,0.1,0.6,0.1,0.9,0.1c0.5,0,0.9,0,1.3-0.1c0.4-0.1,0.7-0.2,1.1-0.4c0.3-0.2,0.6-0.4,0.9-0.6c0.3-0.2,0.6-0.5,0.8-0.8V312.3z"
				/>
			<path class="st3" d="M99.6,318.2c-0.8,0-1.4-0.2-1.9-0.7s-0.7-1.1-0.7-2.1v-8.1h-1.7c-0.1,0-0.2,0-0.2-0.1
				c-0.1,0-0.1-0.1-0.1-0.2v-0.4l2-0.1l0.3-4.2c0-0.1,0-0.1,0.1-0.2c0-0.1,0.1-0.1,0.2-0.1h0.5v4.5h3.7v0.8h-3.7v8
				c0,0.3,0,0.6,0.1,0.8s0.2,0.4,0.3,0.6c0.1,0.2,0.3,0.3,0.5,0.3s0.4,0.1,0.6,0.1c0.3,0,0.5,0,0.7-0.1c0.2-0.1,0.4-0.2,0.5-0.3
				c0.2-0.1,0.3-0.2,0.4-0.3c0.1-0.1,0.2-0.1,0.2-0.1c0.1,0,0.1,0,0.2,0.1l0.3,0.5c-0.3,0.3-0.7,0.6-1.1,0.8
				C100.6,318.1,100.1,318.2,99.6,318.2z"/>
			<path class="st3" d="M104.9,311.6v0.2c0,0.9,0.1,1.7,0.3,2.3c0.2,0.7,0.5,1.2,0.9,1.7s0.8,0.8,1.4,1c0.5,0.2,1.1,0.3,1.8,0.3
				c0.6,0,1.1-0.1,1.5-0.2c0.4-0.1,0.8-0.3,1.1-0.4c0.3-0.2,0.5-0.3,0.7-0.4c0.2-0.1,0.3-0.2,0.4-0.2c0.1,0,0.2,0,0.2,0.1l0.3,0.4
				c-0.2,0.2-0.4,0.5-0.8,0.7s-0.7,0.4-1,0.5c-0.4,0.1-0.8,0.3-1.2,0.4c-0.4,0.1-0.9,0.1-1.3,0.1c-0.8,0-1.5-0.1-2.2-0.4
				c-0.7-0.3-1.2-0.7-1.7-1.2c-0.5-0.5-0.8-1.2-1.1-2s-0.4-1.7-0.4-2.7c0-0.8,0.1-1.6,0.4-2.4c0.2-0.7,0.6-1.3,1-1.9
				c0.5-0.5,1-0.9,1.7-1.2c0.7-0.3,1.4-0.4,2.3-0.4c0.7,0,1.3,0.1,1.9,0.3s1.1,0.6,1.5,1c0.4,0.4,0.8,1,1,1.6
				c0.2,0.6,0.4,1.4,0.4,2.2c0,0.2,0,0.3-0.1,0.4s-0.1,0.1-0.2,0.1H104.9z M112.8,310.9c0-0.6-0.1-1.2-0.3-1.7s-0.4-0.9-0.8-1.3
				c-0.3-0.3-0.7-0.6-1.2-0.8s-0.9-0.3-1.5-0.3c-0.6,0-1.2,0.1-1.6,0.3c-0.5,0.2-0.9,0.5-1.3,0.8c-0.4,0.4-0.6,0.8-0.9,1.3
				c-0.2,0.5-0.4,1.1-0.4,1.7H112.8z"/>
			<path class="st3" d="M126.5,306.7v0.4c0,0.2-0.1,0.3-0.3,0.3l-1.8,0.1c0.2,0.3,0.4,0.6,0.5,1c0.1,0.4,0.2,0.8,0.2,1.2
				c0,0.6-0.1,1.1-0.3,1.6c-0.2,0.5-0.5,0.9-0.9,1.2c-0.4,0.3-0.8,0.6-1.3,0.8c-0.5,0.2-1.1,0.3-1.7,0.3c-0.7,0-1.3-0.1-1.8-0.3
				c-0.3,0.2-0.6,0.4-0.8,0.7s-0.3,0.5-0.3,0.8c0,0.3,0.1,0.6,0.4,0.8c0.2,0.2,0.6,0.3,1,0.4c0.4,0.1,0.8,0.1,1.3,0.2
				c0.5,0,1,0,1.5,0.1c0.5,0,1,0.1,1.5,0.1c0.5,0.1,1,0.2,1.3,0.4c0.4,0.2,0.7,0.4,1,0.7s0.4,0.7,0.4,1.3c0,0.5-0.1,1-0.4,1.4
				s-0.6,0.9-1.1,1.2c-0.5,0.3-1,0.6-1.7,0.8c-0.7,0.2-1.4,0.3-2.2,0.3c-0.8,0-1.6-0.1-2.2-0.3c-0.6-0.2-1.2-0.4-1.6-0.7
				c-0.4-0.3-0.7-0.6-1-1s-0.3-0.8-0.3-1.2c0-0.6,0.2-1.2,0.6-1.6c0.4-0.4,1-0.8,1.7-1.1c-0.4-0.1-0.7-0.3-1-0.6s-0.4-0.6-0.4-1.1
				c0-0.2,0-0.3,0.1-0.5c0.1-0.2,0.2-0.4,0.3-0.5s0.3-0.3,0.5-0.5c0.2-0.2,0.4-0.3,0.6-0.4c-0.6-0.3-1-0.8-1.3-1.3
				c-0.3-0.5-0.5-1.2-0.5-1.9c0-0.6,0.1-1.1,0.3-1.6c0.2-0.5,0.5-0.9,0.9-1.2c0.4-0.3,0.8-0.6,1.3-0.8c0.5-0.2,1.1-0.3,1.7-0.3
				c0.5,0,1,0.1,1.4,0.2s0.8,0.3,1.2,0.5H126.5z M125.2,318.8c0-0.4-0.1-0.7-0.3-0.9c-0.2-0.2-0.5-0.4-0.8-0.5
				c-0.3-0.1-0.7-0.2-1.1-0.3c-0.4-0.1-0.9-0.1-1.3-0.1c-0.5,0-0.9,0-1.4-0.1c-0.5,0-0.9-0.1-1.3-0.1c-0.3,0.1-0.6,0.3-0.8,0.4
				c-0.3,0.2-0.5,0.3-0.7,0.5s-0.3,0.4-0.4,0.6c-0.1,0.2-0.2,0.5-0.2,0.8c0,0.3,0.1,0.7,0.3,1c0.2,0.3,0.4,0.6,0.8,0.8
				c0.3,0.2,0.8,0.4,1.3,0.5s1.1,0.2,1.7,0.2c0.6,0,1.2-0.1,1.7-0.2s1-0.3,1.4-0.6s0.7-0.5,0.9-0.9
				C125.1,319.6,125.2,319.2,125.2,318.8z M120.8,312.7c0.5,0,1-0.1,1.4-0.2c0.4-0.1,0.7-0.4,1-0.6c0.3-0.3,0.5-0.6,0.6-0.9
				s0.2-0.8,0.2-1.2s-0.1-0.9-0.2-1.2s-0.4-0.7-0.6-0.9s-0.6-0.5-1-0.6c-0.4-0.1-0.8-0.2-1.3-0.2c-0.5,0-0.9,0.1-1.3,0.2
				c-0.4,0.1-0.7,0.3-1,0.6s-0.5,0.6-0.6,0.9c-0.1,0.4-0.2,0.8-0.2,1.2s0.1,0.8,0.2,1.2c0.1,0.4,0.4,0.7,0.6,0.9
				c0.3,0.3,0.6,0.5,1,0.6S120.3,312.7,120.8,312.7z"/>
			<path class="st3" d="M138.6,306.1l-6.8,15.6c0,0.1-0.1,0.2-0.2,0.3s-0.2,0.1-0.3,0.1h-0.8l2.1-4.6l-5-11.4h0.9
				c0.1,0,0.2,0,0.3,0.1s0.1,0.1,0.1,0.2l4,9.2c0,0.1,0.1,0.2,0.1,0.4s0.1,0.2,0.1,0.4c0-0.1,0.1-0.3,0.1-0.4c0-0.1,0.1-0.2,0.1-0.4
				l3.9-9.2c0-0.1,0.1-0.2,0.2-0.2s0.2-0.1,0.2-0.1H138.6z"/>
			<path class="st3" d="M139.9,320.8C139.8,320.8,139.8,320.7,139.9,320.8c-0.1-0.1-0.1-0.2-0.1-0.2c0,0,0-0.1,0.1-0.2
				c0.1-0.1,0.2-0.2,0.3-0.4c0.1-0.2,0.2-0.3,0.4-0.5c0.1-0.2,0.2-0.4,0.4-0.7s0.2-0.5,0.2-0.8c-0.1,0-0.2,0.1-0.4,0.1
				c-0.3,0-0.5-0.1-0.7-0.3c-0.2-0.2-0.3-0.5-0.3-0.8c0-0.3,0.1-0.5,0.3-0.7s0.4-0.3,0.8-0.3c0.3,0,0.6,0.1,0.8,0.4
				c0.2,0.2,0.3,0.5,0.3,0.9c0,0.3,0,0.7-0.1,1s-0.2,0.7-0.4,1c-0.2,0.3-0.3,0.6-0.6,0.9c-0.2,0.3-0.5,0.6-0.7,0.8L139.9,320.8z"/>
			<path class="st3" d="M52.7,339.6v0.2c0,0.9,0.1,1.7,0.3,2.3c0.2,0.7,0.5,1.2,0.9,1.7s0.8,0.8,1.4,1c0.5,0.2,1.1,0.3,1.8,0.3
				c0.6,0,1.1-0.1,1.5-0.2c0.4-0.1,0.8-0.3,1.1-0.4c0.3-0.2,0.5-0.3,0.7-0.4c0.2-0.1,0.3-0.2,0.4-0.2c0.1,0,0.2,0,0.2,0.1l0.3,0.4
				c-0.2,0.2-0.4,0.5-0.8,0.7s-0.7,0.4-1,0.5c-0.4,0.1-0.8,0.3-1.2,0.4c-0.4,0.1-0.9,0.1-1.3,0.1c-0.8,0-1.5-0.1-2.2-0.4
				c-0.7-0.3-1.2-0.7-1.7-1.2c-0.5-0.5-0.8-1.2-1.1-2s-0.4-1.7-0.4-2.7c0-0.8,0.1-1.6,0.4-2.4c0.2-0.7,0.6-1.3,1-1.9
				c0.5-0.5,1-0.9,1.7-1.2c0.7-0.3,1.4-0.4,2.3-0.4c0.7,0,1.3,0.1,1.9,0.3c0.6,0.2,1.1,0.6,1.5,1c0.4,0.4,0.8,1,1,1.6
				c0.2,0.6,0.4,1.4,0.4,2.2c0,0.2,0,0.3-0.1,0.4c0,0.1-0.1,0.1-0.2,0.1H52.7z M60.6,338.9c0-0.6-0.1-1.2-0.3-1.7
				c-0.2-0.5-0.4-0.9-0.8-1.3c-0.3-0.3-0.7-0.6-1.2-0.8s-0.9-0.3-1.5-0.3c-0.6,0-1.2,0.1-1.6,0.3c-0.5,0.2-0.9,0.5-1.3,0.8
				c-0.4,0.4-0.6,0.8-0.9,1.3c-0.2,0.5-0.4,1.1-0.4,1.7H60.6z"/>
			<path class="st3" d="M64.7,346v-11.8h0.6c0.2,0,0.3,0.1,0.3,0.3l0.1,1.7c0.5-0.7,1-1.2,1.6-1.6c0.6-0.4,1.3-0.6,2-0.6
				c0.9,0,1.6,0.2,2.1,0.8c0.5,0.5,0.9,1.2,1.1,2.1c0.1-0.5,0.3-0.9,0.6-1.3s0.6-0.7,0.9-0.9c0.3-0.2,0.7-0.4,1.1-0.5
				s0.8-0.2,1.2-0.2c0.6,0,1.1,0.1,1.6,0.3s0.9,0.5,1.2,0.9c0.3,0.4,0.6,0.8,0.8,1.4c0.2,0.6,0.3,1.2,0.3,1.9v7.6h-1.1v-7.6
				c0-1.2-0.2-2-0.8-2.6c-0.5-0.6-1.2-0.9-2.1-0.9c-0.4,0-0.8,0.1-1.2,0.2c-0.4,0.2-0.7,0.4-1,0.7c-0.3,0.3-0.5,0.7-0.7,1.1
				c-0.2,0.4-0.3,1-0.3,1.5v7.6h-1.1v-7.6c0-1.2-0.2-2-0.7-2.6c-0.5-0.6-1.1-0.9-2-0.9c-0.6,0-1.2,0.2-1.8,0.6
				c-0.5,0.4-1,0.9-1.5,1.6v9H64.7z"/>
			<path class="st3" d="M84.9,336.3c0.5-0.7,1.1-1.3,1.8-1.7c0.7-0.4,1.5-0.6,2.4-0.6c1.5,0,2.6,0.5,3.4,1.5c0.8,1,1.2,2.5,1.2,4.5
				c0,0.9-0.1,1.7-0.3,2.4c-0.2,0.8-0.6,1.4-1,2c-0.4,0.6-1,1-1.6,1.3s-1.4,0.5-2.2,0.5c-0.8,0-1.5-0.1-2.1-0.4
				c-0.6-0.3-1.1-0.7-1.5-1.3v5.8h-1.1v-16h0.6c0.2,0,0.3,0.1,0.3,0.3L84.9,336.3z M85,343.4c0.2,0.3,0.5,0.6,0.7,0.9
				c0.2,0.2,0.5,0.4,0.8,0.6c0.3,0.1,0.6,0.3,0.9,0.3s0.6,0.1,1,0.1c0.7,0,1.3-0.1,1.8-0.4c0.5-0.3,1-0.6,1.3-1.1s0.6-1,0.8-1.7
				c0.2-0.6,0.3-1.4,0.3-2.1c0-1.8-0.3-3.1-1-3.9c-0.7-0.8-1.6-1.2-2.8-1.2c-0.8,0-1.5,0.2-2.1,0.6c-0.6,0.4-1.2,1-1.7,1.7V343.4z"
				/>
			<path class="st3" d="M98.2,328.7V346h-1.1v-17.3H98.2z"/>
			<path class="st3" d="M106.9,333.9c0.8,0,1.6,0.1,2.3,0.4c0.7,0.3,1.2,0.7,1.7,1.2c0.5,0.5,0.8,1.2,1.1,1.9
				c0.2,0.8,0.4,1.6,0.4,2.5c0,0.9-0.1,1.8-0.4,2.5s-0.6,1.4-1.1,1.9s-1,0.9-1.7,1.2c-0.7,0.3-1.4,0.4-2.3,0.4s-1.6-0.1-2.3-0.4
				c-0.7-0.3-1.2-0.7-1.7-1.2s-0.8-1.2-1.1-1.9s-0.4-1.6-0.4-2.5c0-0.9,0.1-1.8,0.4-2.5c0.2-0.7,0.6-1.4,1.1-1.9
				c0.5-0.5,1-0.9,1.7-1.2C105.3,334.1,106,333.9,106.9,333.9z M106.9,345.2c0.7,0,1.3-0.1,1.9-0.4c0.5-0.2,1-0.6,1.3-1
				c0.4-0.5,0.6-1,0.8-1.6c0.2-0.6,0.3-1.4,0.3-2.1c0-0.8-0.1-1.5-0.3-2.1c-0.2-0.6-0.4-1.2-0.8-1.6c-0.4-0.5-0.8-0.8-1.3-1.1
				c-0.5-0.2-1.1-0.4-1.9-0.4s-1.3,0.1-1.9,0.4s-1,0.6-1.3,1.1c-0.4,0.5-0.6,1-0.8,1.6s-0.3,1.4-0.3,2.1c0,0.8,0.1,1.5,0.3,2.1
				s0.4,1.2,0.8,1.6c0.4,0.5,0.8,0.8,1.3,1S106.2,345.2,106.9,345.2z"/>
			<path class="st3" d="M124.7,334.1l-6.8,15.6c0,0.1-0.1,0.2-0.2,0.3s-0.2,0.1-0.3,0.1h-0.8l2.1-4.6l-5-11.4h0.9
				c0.1,0,0.2,0,0.3,0.1s0.1,0.1,0.1,0.2l4,9.2c0,0.1,0.1,0.2,0.1,0.4s0.1,0.2,0.1,0.4c0-0.1,0.1-0.3,0.1-0.4c0-0.1,0.1-0.2,0.1-0.4
				l3.9-9.2c0-0.1,0.1-0.2,0.2-0.2s0.2-0.1,0.2-0.1H124.7z"/>
			<path class="st3" d="M127.2,339.6v0.2c0,0.9,0.1,1.7,0.3,2.3c0.2,0.7,0.5,1.2,0.9,1.7s0.8,0.8,1.4,1c0.5,0.2,1.1,0.3,1.8,0.3
				c0.6,0,1.1-0.1,1.5-0.2c0.4-0.1,0.8-0.3,1.1-0.4c0.3-0.2,0.5-0.3,0.7-0.4c0.2-0.1,0.3-0.2,0.4-0.2c0.1,0,0.2,0,0.2,0.1l0.3,0.4
				c-0.2,0.2-0.4,0.5-0.8,0.7s-0.7,0.4-1,0.5c-0.4,0.1-0.8,0.3-1.2,0.4c-0.4,0.1-0.9,0.1-1.3,0.1c-0.8,0-1.5-0.1-2.2-0.4
				c-0.7-0.3-1.2-0.7-1.7-1.2c-0.5-0.5-0.8-1.2-1.1-2s-0.4-1.7-0.4-2.7c0-0.8,0.1-1.6,0.4-2.4c0.2-0.7,0.6-1.3,1-1.9
				c0.5-0.5,1-0.9,1.7-1.2c0.7-0.3,1.4-0.4,2.3-0.4c0.7,0,1.3,0.1,1.9,0.3s1.1,0.6,1.5,1c0.4,0.4,0.8,1,1,1.6
				c0.2,0.6,0.4,1.4,0.4,2.2c0,0.2,0,0.3-0.1,0.4s-0.1,0.1-0.2,0.1H127.2z M135.1,338.9c0-0.6-0.1-1.2-0.3-1.7s-0.4-0.9-0.8-1.3
				c-0.3-0.3-0.7-0.6-1.2-0.8s-0.9-0.3-1.5-0.3c-0.6,0-1.2,0.1-1.6,0.3c-0.5,0.2-0.9,0.5-1.3,0.8c-0.4,0.4-0.6,0.8-0.9,1.3
				c-0.2,0.5-0.4,1.1-0.4,1.7H135.1z"/>
			<path class="st3" d="M139.6,339.6v0.2c0,0.9,0.1,1.7,0.3,2.3c0.2,0.7,0.5,1.2,0.9,1.7s0.8,0.8,1.4,1c0.5,0.2,1.1,0.3,1.8,0.3
				c0.6,0,1.1-0.1,1.5-0.2c0.4-0.1,0.8-0.3,1.1-0.4c0.3-0.2,0.5-0.3,0.7-0.4c0.2-0.1,0.3-0.2,0.4-0.2c0.1,0,0.2,0,0.2,0.1l0.3,0.4
				c-0.2,0.2-0.4,0.5-0.8,0.7s-0.7,0.4-1,0.5c-0.4,0.1-0.8,0.3-1.2,0.4c-0.4,0.1-0.9,0.1-1.3,0.1c-0.8,0-1.5-0.1-2.2-0.4
				c-0.7-0.3-1.2-0.7-1.7-1.2c-0.5-0.5-0.8-1.2-1.1-2s-0.4-1.7-0.4-2.7c0-0.8,0.1-1.6,0.4-2.4c0.2-0.7,0.6-1.3,1-1.9
				c0.5-0.5,1-0.9,1.7-1.2c0.7-0.3,1.4-0.4,2.3-0.4c0.7,0,1.3,0.1,1.9,0.3s1.1,0.6,1.5,1c0.4,0.4,0.8,1,1,1.6
				c0.2,0.6,0.4,1.4,0.4,2.2c0,0.2,0,0.3-0.1,0.4s-0.1,0.1-0.2,0.1H139.6z M147.5,338.9c0-0.6-0.1-1.2-0.3-1.7s-0.4-0.9-0.8-1.3
				c-0.3-0.3-0.7-0.6-1.2-0.8s-0.9-0.3-1.5-0.3c-0.6,0-1.2,0.1-1.6,0.3c-0.5,0.2-0.9,0.5-1.3,0.8c-0.4,0.4-0.6,0.8-0.9,1.3
				c-0.2,0.5-0.4,1.1-0.4,1.7H147.5z"/>
			<path class="st3" d="M17.1,367.6v0.2c0,0.9,0.1,1.7,0.3,2.3c0.2,0.7,0.5,1.2,0.9,1.7s0.8,0.8,1.4,1c0.5,0.2,1.1,0.3,1.8,0.3
				c0.6,0,1.1-0.1,1.5-0.2c0.4-0.1,0.8-0.3,1.1-0.4c0.3-0.2,0.5-0.3,0.7-0.4c0.2-0.1,0.3-0.2,0.4-0.2c0.1,0,0.2,0,0.2,0.1l0.3,0.4
				c-0.2,0.2-0.4,0.5-0.8,0.7s-0.7,0.4-1,0.5c-0.4,0.1-0.8,0.3-1.2,0.4c-0.4,0.1-0.9,0.1-1.3,0.1c-0.8,0-1.5-0.1-2.2-0.4
				c-0.7-0.3-1.2-0.7-1.7-1.2c-0.5-0.5-0.8-1.2-1.1-2s-0.4-1.7-0.4-2.7c0-0.8,0.1-1.6,0.4-2.4c0.2-0.7,0.6-1.3,1-1.9
				c0.5-0.5,1-0.9,1.7-1.2c0.7-0.3,1.4-0.4,2.3-0.4c0.7,0,1.3,0.1,1.9,0.3c0.6,0.2,1.1,0.6,1.5,1c0.4,0.4,0.8,1,1,1.6
				c0.2,0.6,0.4,1.4,0.4,2.2c0,0.2,0,0.3-0.1,0.4c0,0.1-0.1,0.1-0.2,0.1H17.1z M25,366.9c0-0.6-0.1-1.2-0.3-1.7
				c-0.2-0.5-0.4-0.9-0.8-1.3c-0.3-0.3-0.7-0.6-1.2-0.8s-0.9-0.3-1.5-0.3c-0.6,0-1.2,0.1-1.6,0.3c-0.5,0.2-0.9,0.5-1.3,0.8
				c-0.4,0.4-0.6,0.8-0.9,1.3c-0.2,0.5-0.4,1.1-0.4,1.7H25z"/>
			<path class="st3" d="M30.2,364.2c0.5-0.7,1.2-1.2,1.9-1.6c0.7-0.4,1.5-0.6,2.4-0.6c0.7,0,1.2,0.1,1.7,0.3
				c0.5,0.2,0.9,0.5,1.2,0.9s0.6,0.9,0.7,1.4c0.2,0.5,0.2,1.2,0.2,1.9v7.6h-1.1v-7.6c0-1.1-0.3-2-0.8-2.6s-1.3-0.9-2.3-0.9
				c-0.8,0-1.5,0.2-2.2,0.6c-0.7,0.4-1.3,0.9-1.8,1.6v8.9h-1.1v-11.8h0.6c0.2,0,0.3,0.1,0.3,0.3L30.2,364.2z"/>
			<path class="st3" d="M51.8,362.7v0.4c0,0.2-0.1,0.3-0.3,0.3l-1.8,0.1c0.2,0.3,0.4,0.6,0.5,1c0.1,0.4,0.2,0.8,0.2,1.2
				c0,0.6-0.1,1.1-0.3,1.6c-0.2,0.5-0.5,0.9-0.9,1.2c-0.4,0.3-0.8,0.6-1.3,0.8c-0.5,0.2-1.1,0.3-1.7,0.3c-0.7,0-1.3-0.1-1.8-0.3
				c-0.3,0.2-0.6,0.4-0.8,0.7s-0.3,0.5-0.3,0.8c0,0.3,0.1,0.6,0.4,0.8c0.2,0.2,0.6,0.3,1,0.4c0.4,0.1,0.8,0.1,1.3,0.2
				c0.5,0,1,0,1.5,0.1c0.5,0,1,0.1,1.5,0.1c0.5,0.1,1,0.2,1.3,0.4c0.4,0.2,0.7,0.4,1,0.7s0.4,0.7,0.4,1.3c0,0.5-0.1,1-0.4,1.4
				c-0.2,0.5-0.6,0.9-1.1,1.2c-0.5,0.3-1,0.6-1.7,0.8s-1.4,0.3-2.2,0.3c-0.8,0-1.6-0.1-2.2-0.3c-0.6-0.2-1.2-0.4-1.6-0.7
				c-0.4-0.3-0.7-0.6-1-1c-0.2-0.4-0.3-0.8-0.3-1.2c0-0.6,0.2-1.2,0.6-1.6c0.4-0.4,1-0.8,1.7-1.1c-0.4-0.1-0.7-0.3-1-0.6
				c-0.2-0.3-0.4-0.6-0.4-1.1c0-0.2,0-0.3,0.1-0.5c0.1-0.2,0.2-0.4,0.3-0.5s0.3-0.3,0.5-0.5c0.2-0.2,0.4-0.3,0.6-0.4
				c-0.6-0.3-1-0.8-1.3-1.3c-0.3-0.5-0.5-1.2-0.5-1.9c0-0.6,0.1-1.1,0.3-1.6c0.2-0.5,0.5-0.9,0.9-1.2c0.4-0.3,0.8-0.6,1.3-0.8
				c0.5-0.2,1.1-0.3,1.7-0.3c0.5,0,1,0.1,1.4,0.2s0.8,0.3,1.2,0.5H51.8z M50.5,374.8c0-0.4-0.1-0.7-0.3-0.9
				c-0.2-0.2-0.5-0.4-0.8-0.5c-0.3-0.1-0.7-0.2-1.1-0.3S47.5,373,47,373c-0.5,0-0.9,0-1.4-0.1c-0.5,0-0.9-0.1-1.3-0.1
				c-0.3,0.1-0.6,0.3-0.8,0.4c-0.3,0.2-0.5,0.3-0.7,0.5s-0.3,0.4-0.4,0.6c-0.1,0.2-0.2,0.5-0.2,0.8c0,0.3,0.1,0.7,0.3,1
				c0.2,0.3,0.4,0.6,0.8,0.8c0.3,0.2,0.8,0.4,1.3,0.5c0.5,0.1,1.1,0.2,1.7,0.2c0.6,0,1.2-0.1,1.7-0.2s1-0.3,1.4-0.6s0.7-0.5,0.9-0.9
				C50.4,375.6,50.5,375.2,50.5,374.8z M46.1,368.7c0.5,0,1-0.1,1.4-0.2c0.4-0.1,0.7-0.4,1-0.6c0.3-0.3,0.5-0.6,0.6-0.9
				c0.1-0.4,0.2-0.8,0.2-1.2s-0.1-0.9-0.2-1.2c-0.1-0.4-0.4-0.7-0.6-0.9c-0.3-0.3-0.6-0.5-1-0.6c-0.4-0.1-0.8-0.2-1.3-0.2
				c-0.5,0-0.9,0.1-1.3,0.2c-0.4,0.1-0.7,0.3-1,0.6c-0.3,0.3-0.5,0.6-0.6,0.9c-0.1,0.4-0.2,0.8-0.2,1.2s0.1,0.8,0.2,1.2
				c0.1,0.4,0.4,0.7,0.6,0.9c0.3,0.3,0.6,0.5,1,0.6S45.6,368.7,46.1,368.7z"/>
			<path class="st3" d="M54.1,363.8c0.6-0.6,1.3-1.1,2-1.4c0.7-0.3,1.5-0.5,2.3-0.5c0.6,0,1.2,0.1,1.7,0.3s0.9,0.5,1.2,0.9
				s0.5,0.8,0.7,1.4s0.2,1.1,0.2,1.8v7.7h-0.5c-0.2,0-0.4-0.1-0.4-0.3l-0.2-1.5c-0.3,0.3-0.6,0.6-1,0.9s-0.7,0.5-1,0.6
				c-0.3,0.2-0.7,0.3-1.1,0.4c-0.4,0.1-0.8,0.1-1.3,0.1c-0.4,0-0.8-0.1-1.2-0.2c-0.4-0.1-0.7-0.3-1-0.5c-0.3-0.2-0.5-0.6-0.7-0.9
				s-0.3-0.8-0.3-1.4c0-0.5,0.1-1,0.4-1.4c0.3-0.4,0.7-0.8,1.3-1.1s1.4-0.6,2.4-0.8s2.1-0.3,3.4-0.3v-1.2c0-1.1-0.2-1.9-0.7-2.5
				c-0.5-0.6-1.2-0.9-2.1-0.9c-0.6,0-1.1,0.1-1.5,0.2c-0.4,0.2-0.7,0.3-1,0.5c-0.3,0.2-0.5,0.4-0.7,0.5c-0.2,0.2-0.3,0.2-0.4,0.2
				c-0.1,0-0.2,0-0.2-0.1c-0.1,0-0.1-0.1-0.1-0.2L54.1,363.8z M61,368.3c-1.1,0-2.1,0.1-2.9,0.3c-0.8,0.1-1.5,0.3-2,0.6
				c-0.5,0.2-0.9,0.5-1.2,0.9c-0.3,0.3-0.4,0.7-0.4,1.1c0,0.4,0.1,0.7,0.2,1c0.1,0.3,0.3,0.5,0.5,0.7s0.5,0.3,0.8,0.4
				c0.3,0.1,0.6,0.1,0.9,0.1c0.5,0,0.9,0,1.3-0.1c0.4-0.1,0.7-0.2,1.1-0.4c0.3-0.2,0.6-0.4,0.9-0.6c0.3-0.2,0.6-0.5,0.8-0.8V368.3z"
				/>
			<path class="st3" d="M75.4,362.7v0.4c0,0.2-0.1,0.3-0.3,0.3l-1.8,0.1c0.2,0.3,0.4,0.6,0.5,1c0.1,0.4,0.2,0.8,0.2,1.2
				c0,0.6-0.1,1.1-0.3,1.6c-0.2,0.5-0.5,0.9-0.9,1.2c-0.4,0.3-0.8,0.6-1.3,0.8c-0.5,0.2-1.1,0.3-1.7,0.3c-0.7,0-1.3-0.1-1.8-0.3
				c-0.3,0.2-0.6,0.4-0.8,0.7s-0.3,0.5-0.3,0.8c0,0.3,0.1,0.6,0.4,0.8c0.2,0.2,0.6,0.3,1,0.4c0.4,0.1,0.8,0.1,1.3,0.2
				c0.5,0,1,0,1.5,0.1c0.5,0,1,0.1,1.5,0.1c0.5,0.1,1,0.2,1.3,0.4c0.4,0.2,0.7,0.4,1,0.7s0.4,0.7,0.4,1.3c0,0.5-0.1,1-0.4,1.4
				c-0.2,0.5-0.6,0.9-1.1,1.2c-0.5,0.3-1,0.6-1.7,0.8s-1.4,0.3-2.2,0.3c-0.8,0-1.6-0.1-2.2-0.3c-0.6-0.2-1.2-0.4-1.6-0.7
				c-0.4-0.3-0.7-0.6-1-1c-0.2-0.4-0.3-0.8-0.3-1.2c0-0.6,0.2-1.2,0.6-1.6c0.4-0.4,1-0.8,1.7-1.1c-0.4-0.1-0.7-0.3-1-0.6
				c-0.2-0.3-0.4-0.6-0.4-1.1c0-0.2,0-0.3,0.1-0.5c0.1-0.2,0.2-0.4,0.3-0.5s0.3-0.3,0.5-0.5c0.2-0.2,0.4-0.3,0.6-0.4
				c-0.6-0.3-1-0.8-1.3-1.3c-0.3-0.5-0.5-1.2-0.5-1.9c0-0.6,0.1-1.1,0.3-1.6c0.2-0.5,0.5-0.9,0.9-1.2c0.4-0.3,0.8-0.6,1.3-0.8
				c0.5-0.2,1.1-0.3,1.7-0.3c0.5,0,1,0.1,1.4,0.2s0.8,0.3,1.2,0.5H75.4z M74.2,374.8c0-0.4-0.1-0.7-0.3-0.9
				c-0.2-0.2-0.5-0.4-0.8-0.5c-0.3-0.1-0.7-0.2-1.1-0.3s-0.9-0.1-1.3-0.1c-0.5,0-0.9,0-1.4-0.1c-0.5,0-0.9-0.1-1.3-0.1
				c-0.3,0.1-0.6,0.3-0.8,0.4c-0.3,0.2-0.5,0.3-0.7,0.5s-0.3,0.4-0.4,0.6c-0.1,0.2-0.2,0.5-0.2,0.8c0,0.3,0.1,0.7,0.3,1
				c0.2,0.3,0.4,0.6,0.8,0.8c0.3,0.2,0.8,0.4,1.3,0.5c0.5,0.1,1.1,0.2,1.7,0.2c0.6,0,1.2-0.1,1.7-0.2s1-0.3,1.4-0.6s0.7-0.5,0.9-0.9
				C74.1,375.6,74.2,375.2,74.2,374.8z M69.8,368.7c0.5,0,1-0.1,1.4-0.2c0.4-0.1,0.7-0.4,1-0.6c0.3-0.3,0.5-0.6,0.6-0.9
				c0.1-0.4,0.2-0.8,0.2-1.2s-0.1-0.9-0.2-1.2c-0.1-0.4-0.4-0.7-0.6-0.9c-0.3-0.3-0.6-0.5-1-0.6c-0.4-0.1-0.8-0.2-1.3-0.2
				c-0.5,0-0.9,0.1-1.3,0.2c-0.4,0.1-0.7,0.3-1,0.6c-0.3,0.3-0.5,0.6-0.6,0.9c-0.1,0.4-0.2,0.8-0.2,1.2s0.1,0.8,0.2,1.2
				c0.1,0.4,0.4,0.7,0.6,0.9c0.3,0.3,0.6,0.5,1,0.6S69.3,368.7,69.8,368.7z"/>
			<path class="st3" d="M78.3,367.6v0.2c0,0.9,0.1,1.7,0.3,2.3c0.2,0.7,0.5,1.2,0.9,1.7s0.8,0.8,1.4,1c0.5,0.2,1.1,0.3,1.8,0.3
				c0.6,0,1.1-0.1,1.5-0.2c0.4-0.1,0.8-0.3,1.1-0.4c0.3-0.2,0.5-0.3,0.7-0.4c0.2-0.1,0.3-0.2,0.4-0.2c0.1,0,0.2,0,0.2,0.1l0.3,0.4
				c-0.2,0.2-0.4,0.5-0.8,0.7s-0.7,0.4-1,0.5c-0.4,0.1-0.8,0.3-1.2,0.4c-0.4,0.1-0.9,0.1-1.3,0.1c-0.8,0-1.5-0.1-2.2-0.4
				c-0.7-0.3-1.2-0.7-1.7-1.2c-0.5-0.5-0.8-1.2-1.1-2s-0.4-1.7-0.4-2.7c0-0.8,0.1-1.6,0.4-2.4c0.2-0.7,0.6-1.3,1-1.9
				c0.5-0.5,1-0.9,1.7-1.2c0.7-0.3,1.4-0.4,2.3-0.4c0.7,0,1.3,0.1,1.9,0.3c0.6,0.2,1.1,0.6,1.5,1c0.4,0.4,0.8,1,1,1.6
				c0.2,0.6,0.4,1.4,0.4,2.2c0,0.2,0,0.3-0.1,0.4c0,0.1-0.1,0.1-0.2,0.1H78.3z M86.2,366.9c0-0.6-0.1-1.2-0.3-1.7
				c-0.2-0.5-0.4-0.9-0.8-1.3c-0.3-0.3-0.7-0.6-1.2-0.8s-0.9-0.3-1.5-0.3c-0.6,0-1.2,0.1-1.6,0.3c-0.5,0.2-0.9,0.5-1.3,0.8
				c-0.4,0.4-0.6,0.8-0.9,1.3c-0.2,0.5-0.4,1.1-0.4,1.7H86.2z"/>
			<path class="st3" d="M90.3,374v-11.8h0.6c0.2,0,0.3,0.1,0.3,0.3l0.1,1.7c0.5-0.7,1-1.2,1.6-1.6c0.6-0.4,1.3-0.6,2-0.6
				c0.9,0,1.6,0.2,2.1,0.8c0.5,0.5,0.9,1.2,1.1,2.1c0.1-0.5,0.3-0.9,0.6-1.3s0.6-0.7,0.9-0.9c0.3-0.2,0.7-0.4,1.1-0.5
				c0.4-0.1,0.8-0.2,1.2-0.2c0.6,0,1.1,0.1,1.6,0.3c0.5,0.2,0.9,0.5,1.2,0.9c0.3,0.4,0.6,0.8,0.8,1.4c0.2,0.6,0.3,1.2,0.3,1.9v7.6
				h-1.1v-7.6c0-1.2-0.2-2-0.8-2.6c-0.5-0.6-1.2-0.9-2.1-0.9c-0.4,0-0.8,0.1-1.2,0.2c-0.4,0.2-0.7,0.4-1,0.7
				c-0.3,0.3-0.5,0.7-0.7,1.1c-0.2,0.4-0.3,1-0.3,1.5v7.6h-1.1v-7.6c0-1.2-0.2-2-0.7-2.6c-0.5-0.6-1.1-0.9-2-0.9
				c-0.6,0-1.2,0.2-1.8,0.6c-0.5,0.4-1,0.9-1.5,1.6v9H90.3z"/>
			<path class="st3" d="M109.9,367.6v0.2c0,0.9,0.1,1.7,0.3,2.3c0.2,0.7,0.5,1.2,0.9,1.7s0.8,0.8,1.4,1c0.5,0.2,1.1,0.3,1.8,0.3
				c0.6,0,1.1-0.1,1.5-0.2c0.4-0.1,0.8-0.3,1.1-0.4c0.3-0.2,0.5-0.3,0.7-0.4s0.3-0.2,0.4-0.2c0.1,0,0.2,0,0.2,0.1l0.3,0.4
				c-0.2,0.2-0.4,0.5-0.8,0.7s-0.7,0.4-1,0.5c-0.4,0.1-0.8,0.3-1.2,0.4c-0.4,0.1-0.9,0.1-1.3,0.1c-0.8,0-1.5-0.1-2.2-0.4
				s-1.2-0.7-1.7-1.2c-0.5-0.5-0.8-1.2-1.1-2s-0.4-1.7-0.4-2.7c0-0.8,0.1-1.6,0.4-2.4c0.2-0.7,0.6-1.3,1-1.9c0.5-0.5,1-0.9,1.7-1.2
				c0.7-0.3,1.4-0.4,2.3-0.4c0.7,0,1.3,0.1,1.9,0.3c0.6,0.2,1.1,0.6,1.5,1c0.4,0.4,0.8,1,1,1.6s0.4,1.4,0.4,2.2c0,0.2,0,0.3-0.1,0.4
				c0,0.1-0.1,0.1-0.2,0.1H109.9z M117.8,366.9c0-0.6-0.1-1.2-0.3-1.7c-0.2-0.5-0.4-0.9-0.8-1.3c-0.3-0.3-0.7-0.6-1.2-0.8
				s-0.9-0.3-1.5-0.3c-0.6,0-1.2,0.1-1.6,0.3c-0.5,0.2-0.9,0.5-1.3,0.8c-0.4,0.4-0.6,0.8-0.9,1.3s-0.4,1.1-0.4,1.7H117.8z"/>
			<path class="st3" d="M123,364.2c0.5-0.7,1.2-1.2,1.9-1.6c0.7-0.4,1.5-0.6,2.4-0.6c0.7,0,1.2,0.1,1.7,0.3c0.5,0.2,0.9,0.5,1.2,0.9
				s0.6,0.9,0.7,1.4c0.2,0.5,0.2,1.2,0.2,1.9v7.6h-1.1v-7.6c0-1.1-0.3-2-0.8-2.6s-1.3-0.9-2.3-0.9c-0.8,0-1.5,0.2-2.2,0.6
				c-0.7,0.4-1.3,0.9-1.8,1.6v8.9h-1.1v-11.8h0.6c0.2,0,0.3,0.1,0.3,0.3L123,364.2z"/>
			<path class="st3" d="M138.1,374.2c-0.8,0-1.4-0.2-1.9-0.7s-0.7-1.1-0.7-2.1v-8.1h-1.7c-0.1,0-0.2,0-0.2-0.1
				c-0.1,0-0.1-0.1-0.1-0.2v-0.4l2-0.1l0.3-4.2c0-0.1,0-0.1,0.1-0.2s0.1-0.1,0.2-0.1h0.5v4.5h3.7v0.8h-3.7v8c0,0.3,0,0.6,0.1,0.8
				c0.1,0.2,0.2,0.4,0.3,0.6c0.1,0.2,0.3,0.3,0.5,0.3s0.4,0.1,0.6,0.1c0.3,0,0.5,0,0.7-0.1c0.2-0.1,0.4-0.2,0.5-0.3
				c0.2-0.1,0.3-0.2,0.4-0.3c0.1-0.1,0.2-0.1,0.2-0.1c0.1,0,0.1,0,0.2,0.1l0.3,0.5c-0.3,0.3-0.7,0.6-1.1,0.8
				C139,374.1,138.6,374.2,138.1,374.2z"/>
			<path class="st3" d="M149.1,363.8c0.6-0.6,1.3-1.1,2-1.4s1.5-0.5,2.3-0.5c0.6,0,1.2,0.1,1.7,0.3c0.5,0.2,0.9,0.5,1.2,0.9
				s0.5,0.8,0.7,1.4c0.2,0.5,0.2,1.1,0.2,1.8v7.7h-0.5c-0.2,0-0.4-0.1-0.4-0.3l-0.2-1.5c-0.3,0.3-0.6,0.6-1,0.9s-0.7,0.5-1,0.6
				c-0.3,0.2-0.7,0.3-1.1,0.4c-0.4,0.1-0.8,0.1-1.3,0.1c-0.4,0-0.8-0.1-1.2-0.2c-0.4-0.1-0.7-0.3-1-0.5c-0.3-0.2-0.5-0.6-0.7-0.9
				s-0.3-0.8-0.3-1.4c0-0.5,0.1-1,0.4-1.4c0.3-0.4,0.7-0.8,1.3-1.1c0.6-0.3,1.4-0.6,2.3-0.8s2.1-0.3,3.4-0.3v-1.2
				c0-1.1-0.2-1.9-0.7-2.5c-0.5-0.6-1.2-0.9-2.1-0.9c-0.6,0-1.1,0.1-1.5,0.2c-0.4,0.2-0.7,0.3-1,0.5c-0.3,0.2-0.5,0.4-0.7,0.5
				c-0.2,0.2-0.3,0.2-0.4,0.2c-0.1,0-0.2,0-0.2-0.1c-0.1,0-0.1-0.1-0.1-0.2L149.1,363.8z M156.1,368.3c-1.1,0-2.1,0.1-2.9,0.3
				c-0.8,0.1-1.5,0.3-2,0.6c-0.5,0.2-0.9,0.5-1.2,0.9s-0.4,0.7-0.4,1.1c0,0.4,0.1,0.7,0.2,1c0.1,0.3,0.3,0.5,0.5,0.7
				c0.2,0.2,0.5,0.3,0.8,0.4c0.3,0.1,0.6,0.1,0.9,0.1c0.5,0,0.9,0,1.3-0.1c0.4-0.1,0.7-0.2,1.1-0.4c0.3-0.2,0.6-0.4,0.9-0.6
				s0.6-0.5,0.8-0.8V368.3z"/>
			<path class="st3" d="M162,364.2c0.5-0.7,1.2-1.2,1.9-1.6c0.7-0.4,1.5-0.6,2.4-0.6c0.7,0,1.2,0.1,1.7,0.3c0.5,0.2,0.9,0.5,1.2,0.9
				s0.6,0.9,0.7,1.4c0.2,0.5,0.2,1.2,0.2,1.9v7.6h-1.1v-7.6c0-1.1-0.3-2-0.8-2.6s-1.3-0.9-2.3-0.9c-0.8,0-1.5,0.2-2.2,0.6
				c-0.7,0.4-1.3,0.9-1.8,1.6v8.9H161v-11.8h0.6c0.2,0,0.3,0.1,0.3,0.3L162,364.2z"/>
			<path class="st3" d="M183.3,356.7V374h-0.6c-0.2,0-0.3-0.1-0.4-0.3l-0.1-1.9c-0.5,0.7-1.1,1.3-1.8,1.7s-1.5,0.6-2.4,0.6
				c-1.5,0-2.6-0.5-3.4-1.5c-0.8-1-1.2-2.5-1.2-4.5c0-0.9,0.1-1.7,0.3-2.4c0.2-0.8,0.6-1.4,1-2s1-1,1.6-1.3s1.4-0.5,2.2-0.5
				c0.8,0,1.5,0.1,2.1,0.4c0.6,0.3,1.1,0.7,1.5,1.3v-7H183.3z M182.1,364.7c-0.5-0.7-1-1.2-1.5-1.4c-0.6-0.3-1.2-0.4-1.9-0.4
				c-0.7,0-1.3,0.1-1.8,0.4s-1,0.6-1.3,1.1c-0.4,0.5-0.6,1-0.8,1.7s-0.3,1.4-0.3,2.1c0,1.8,0.3,3.1,1,3.9s1.6,1.2,2.8,1.2
				c0.8,0,1.5-0.2,2.1-0.6s1.2-1,1.7-1.7V364.7z"/>
			<path class="st3" d="M54.3,384.7V402h-1.1v-17.3H54.3z"/>
			<path class="st3" d="M58.7,395.6v0.2c0,0.9,0.1,1.7,0.3,2.3c0.2,0.7,0.5,1.2,0.9,1.7s0.8,0.8,1.4,1c0.5,0.2,1.1,0.3,1.8,0.3
				c0.6,0,1.1-0.1,1.5-0.2c0.4-0.1,0.8-0.3,1.1-0.4c0.3-0.2,0.5-0.3,0.7-0.4c0.2-0.1,0.3-0.2,0.4-0.2c0.1,0,0.2,0,0.2,0.1l0.3,0.4
				c-0.2,0.2-0.4,0.5-0.8,0.7s-0.7,0.4-1,0.5c-0.4,0.1-0.8,0.3-1.2,0.4c-0.4,0.1-0.9,0.1-1.3,0.1c-0.8,0-1.5-0.1-2.2-0.4
				c-0.7-0.3-1.2-0.7-1.7-1.2c-0.5-0.5-0.8-1.2-1.1-2s-0.4-1.7-0.4-2.7c0-0.8,0.1-1.6,0.4-2.4c0.2-0.7,0.6-1.3,1-1.9
				c0.5-0.5,1-0.9,1.7-1.2c0.7-0.3,1.4-0.4,2.3-0.4c0.7,0,1.3,0.1,1.9,0.3c0.6,0.2,1.1,0.6,1.5,1c0.4,0.4,0.8,1,1,1.6
				c0.2,0.6,0.4,1.4,0.4,2.2c0,0.2,0,0.3-0.1,0.4c0,0.1-0.1,0.1-0.2,0.1H58.7z M66.6,394.9c0-0.6-0.1-1.2-0.3-1.7
				c-0.2-0.5-0.4-0.9-0.8-1.3c-0.3-0.3-0.7-0.6-1.2-0.8s-0.9-0.3-1.5-0.3c-0.6,0-1.2,0.1-1.6,0.3c-0.5,0.2-0.9,0.5-1.3,0.8
				c-0.4,0.4-0.6,0.8-0.9,1.3c-0.2,0.5-0.4,1.1-0.4,1.7H66.6z"/>
			<path class="st3" d="M70.4,391.8c0.6-0.6,1.3-1.1,2-1.4c0.7-0.3,1.5-0.5,2.3-0.5c0.6,0,1.2,0.1,1.7,0.3s0.9,0.5,1.2,0.9
				s0.5,0.8,0.7,1.4s0.2,1.1,0.2,1.8v7.7H78c-0.2,0-0.4-0.1-0.4-0.3l-0.2-1.5c-0.3,0.3-0.6,0.6-1,0.9s-0.7,0.5-1,0.6
				c-0.3,0.2-0.7,0.3-1.1,0.4c-0.4,0.1-0.8,0.1-1.3,0.1c-0.4,0-0.8-0.1-1.2-0.2c-0.4-0.1-0.7-0.3-1-0.5c-0.3-0.2-0.5-0.6-0.7-0.9
				s-0.3-0.8-0.3-1.4c0-0.5,0.1-1,0.4-1.4c0.3-0.4,0.7-0.8,1.3-1.1s1.4-0.6,2.4-0.8s2.1-0.3,3.4-0.3v-1.2c0-1.1-0.2-1.9-0.7-2.5
				c-0.5-0.6-1.2-0.9-2.1-0.9c-0.6,0-1.1,0.1-1.5,0.2c-0.4,0.2-0.7,0.3-1,0.5c-0.3,0.2-0.5,0.4-0.7,0.5c-0.2,0.2-0.3,0.2-0.4,0.2
				c-0.1,0-0.2,0-0.2-0.1c-0.1,0-0.1-0.1-0.1-0.2L70.4,391.8z M77.3,396.3c-1.1,0-2.1,0.1-2.9,0.3c-0.8,0.1-1.5,0.3-2,0.6
				c-0.5,0.2-0.9,0.5-1.2,0.9c-0.3,0.3-0.4,0.7-0.4,1.1c0,0.4,0.1,0.7,0.2,1c0.1,0.3,0.3,0.5,0.5,0.7s0.5,0.3,0.8,0.4
				c0.3,0.1,0.6,0.1,0.9,0.1c0.5,0,0.9,0,1.3-0.1c0.4-0.1,0.7-0.2,1.1-0.4c0.3-0.2,0.6-0.4,0.9-0.6c0.3-0.2,0.6-0.5,0.8-0.8V396.3z"
				/>
			<path class="st3" d="M83.3,393c0.2-0.5,0.4-0.9,0.6-1.3s0.5-0.7,0.8-1c0.3-0.3,0.6-0.5,1-0.6c0.4-0.1,0.8-0.2,1.3-0.2
				c0.2,0,0.5,0,0.7,0.1c0.2,0,0.4,0.1,0.6,0.2l-0.1,0.8c0,0.1-0.1,0.2-0.2,0.2c-0.1,0-0.2,0-0.4-0.1s-0.5-0.1-0.8-0.1
				c-0.5,0-0.9,0.1-1.2,0.2s-0.7,0.3-1,0.6c-0.3,0.3-0.5,0.6-0.7,1c-0.2,0.4-0.4,0.9-0.6,1.4v7.7h-1.1v-11.8h0.6
				c0.1,0,0.2,0,0.3,0.1c0.1,0.1,0.1,0.2,0.1,0.3L83.3,393z"/>
			<path class="st3" d="M91.7,392.2c0.5-0.7,1.2-1.2,1.9-1.6c0.7-0.4,1.5-0.6,2.4-0.6c0.7,0,1.2,0.1,1.7,0.3
				c0.5,0.2,0.9,0.5,1.2,0.9s0.6,0.9,0.7,1.4c0.2,0.5,0.2,1.2,0.2,1.9v7.6h-1.1v-7.6c0-1.1-0.3-2-0.8-2.6s-1.3-0.9-2.3-0.9
				c-0.8,0-1.5,0.2-2.2,0.6c-0.7,0.4-1.3,0.9-1.8,1.6v8.9h-1.1v-11.8h0.6c0.2,0,0.3,0.1,0.3,0.3L91.7,392.2z"/>
			<path class="st3" d="M105.5,386.1c0,0.1,0,0.3-0.1,0.4s-0.1,0.2-0.2,0.3c-0.1,0.1-0.2,0.2-0.3,0.2s-0.3,0.1-0.4,0.1
				c-0.1,0-0.3,0-0.4-0.1s-0.2-0.1-0.3-0.2c-0.1-0.1-0.2-0.2-0.2-0.3c-0.1-0.1-0.1-0.3-0.1-0.4c0-0.1,0-0.3,0.1-0.4
				c0.1-0.1,0.1-0.2,0.2-0.3c0.1-0.1,0.2-0.2,0.3-0.2c0.1-0.1,0.3-0.1,0.4-0.1c0.1,0,0.3,0,0.4,0.1c0.1,0.1,0.2,0.1,0.3,0.2
				s0.2,0.2,0.2,0.3S105.5,385.9,105.5,386.1z M105,390.1V402h-1.1v-11.8H105z"/>
			<path class="st3" d="M110.1,392.2c0.5-0.7,1.2-1.2,1.9-1.6c0.7-0.4,1.5-0.6,2.4-0.6c0.7,0,1.2,0.1,1.7,0.3
				c0.5,0.2,0.9,0.5,1.2,0.9s0.6,0.9,0.7,1.4c0.2,0.5,0.2,1.2,0.2,1.9v7.6h-1.1v-7.6c0-1.1-0.3-2-0.8-2.6s-1.3-0.9-2.3-0.9
				c-0.8,0-1.5,0.2-2.2,0.6c-0.7,0.4-1.3,0.9-1.8,1.6v8.9H109v-11.8h0.6c0.2,0,0.3,0.1,0.3,0.3L110.1,392.2z"/>
			<path class="st3" d="M131.6,390.7v0.4c0,0.2-0.1,0.3-0.3,0.3l-1.8,0.1c0.2,0.3,0.4,0.6,0.5,1c0.1,0.4,0.2,0.8,0.2,1.2
				c0,0.6-0.1,1.1-0.3,1.6c-0.2,0.5-0.5,0.9-0.9,1.2c-0.4,0.3-0.8,0.6-1.3,0.8c-0.5,0.2-1.1,0.3-1.7,0.3c-0.7,0-1.3-0.1-1.8-0.3
				c-0.3,0.2-0.6,0.4-0.8,0.7s-0.3,0.5-0.3,0.8c0,0.3,0.1,0.6,0.4,0.8c0.2,0.2,0.6,0.3,1,0.4c0.4,0.1,0.8,0.1,1.3,0.2
				c0.5,0,1,0,1.5,0.1c0.5,0,1,0.1,1.5,0.1c0.5,0.1,1,0.2,1.3,0.4c0.4,0.2,0.7,0.4,1,0.7s0.4,0.7,0.4,1.3c0,0.5-0.1,1-0.4,1.4
				s-0.6,0.9-1.1,1.2c-0.5,0.3-1,0.6-1.7,0.8c-0.7,0.2-1.4,0.3-2.2,0.3c-0.8,0-1.6-0.1-2.2-0.3c-0.6-0.2-1.2-0.4-1.6-0.7
				c-0.4-0.3-0.7-0.6-1-1s-0.3-0.8-0.3-1.2c0-0.6,0.2-1.2,0.6-1.6c0.4-0.4,1-0.8,1.7-1.1c-0.4-0.1-0.7-0.3-1-0.6s-0.4-0.6-0.4-1.1
				c0-0.2,0-0.3,0.1-0.5c0.1-0.2,0.2-0.4,0.3-0.5s0.3-0.3,0.5-0.5c0.2-0.2,0.4-0.3,0.6-0.4c-0.6-0.3-1-0.8-1.3-1.3
				c-0.3-0.5-0.5-1.2-0.5-1.9c0-0.6,0.1-1.1,0.3-1.6c0.2-0.5,0.5-0.9,0.9-1.2c0.4-0.3,0.8-0.6,1.3-0.8c0.5-0.2,1.1-0.3,1.7-0.3
				c0.5,0,1,0.1,1.4,0.2s0.8,0.3,1.2,0.5H131.6z M130.4,402.8c0-0.4-0.1-0.7-0.3-0.9c-0.2-0.2-0.5-0.4-0.8-0.5
				c-0.3-0.1-0.7-0.2-1.1-0.3c-0.4-0.1-0.9-0.1-1.3-0.1c-0.5,0-0.9,0-1.4-0.1c-0.5,0-0.9-0.1-1.3-0.1c-0.3,0.1-0.6,0.3-0.8,0.4
				c-0.3,0.2-0.5,0.3-0.7,0.5s-0.3,0.4-0.4,0.6c-0.1,0.2-0.2,0.5-0.2,0.8c0,0.3,0.1,0.7,0.3,1c0.2,0.3,0.4,0.6,0.8,0.8
				c0.3,0.2,0.8,0.4,1.3,0.5s1.1,0.2,1.7,0.2c0.6,0,1.2-0.1,1.7-0.2s1-0.3,1.4-0.6s0.7-0.5,0.9-0.9
				C130.3,403.6,130.4,403.2,130.4,402.8z M126,396.7c0.5,0,1-0.1,1.4-0.2c0.4-0.1,0.7-0.4,1-0.6c0.3-0.3,0.5-0.6,0.6-0.9
				s0.2-0.8,0.2-1.2s-0.1-0.9-0.2-1.2s-0.4-0.7-0.6-0.9s-0.6-0.5-1-0.6c-0.4-0.1-0.8-0.2-1.3-0.2c-0.5,0-0.9,0.1-1.3,0.2
				c-0.4,0.1-0.7,0.3-1,0.6s-0.5,0.6-0.6,0.9c-0.1,0.4-0.2,0.8-0.2,1.2s0.1,0.8,0.2,1.2c0.1,0.4,0.4,0.7,0.6,0.9
				c0.3,0.3,0.6,0.5,1,0.6S125.5,396.7,126,396.7z"/>
			<path class="st3" d="M155,402h-1.1c-0.1,0-0.3,0-0.4,0c-0.1,0-0.2-0.1-0.3-0.2l-2.4-2.4c-0.3,0.4-0.7,0.8-1.2,1.1
				c-0.4,0.3-0.9,0.6-1.4,0.9s-1,0.5-1.6,0.6s-1.2,0.2-1.8,0.2c-0.6,0-1.2-0.1-1.8-0.3s-1.1-0.5-1.6-0.9s-0.8-0.9-1.1-1.4
				c-0.3-0.6-0.4-1.2-0.4-1.9c0-0.6,0.1-1.1,0.3-1.6c0.2-0.5,0.5-1,0.8-1.4c0.4-0.4,0.8-0.8,1.3-1.2s1-0.6,1.6-0.8
				c-0.6-0.6-1-1.3-1.3-1.9s-0.4-1.2-0.4-1.9c0-0.6,0.1-1.1,0.3-1.5c0.2-0.5,0.5-0.9,0.9-1.2c0.4-0.3,0.8-0.6,1.3-0.8
				c0.5-0.2,1.1-0.3,1.7-0.3c0.5,0,1,0.1,1.5,0.3c0.5,0.2,0.9,0.4,1.2,0.7c0.4,0.3,0.6,0.7,0.8,1.1c0.2,0.4,0.3,0.8,0.3,1.3
				l-0.6,0.1c-0.1,0-0.2,0-0.2,0c-0.1,0-0.1-0.1-0.2-0.2c0-0.2-0.1-0.5-0.3-0.7c-0.1-0.3-0.3-0.5-0.6-0.8c-0.2-0.2-0.5-0.4-0.9-0.6
				c-0.3-0.2-0.8-0.2-1.2-0.2c-0.5,0-0.9,0.1-1.3,0.2c-0.4,0.1-0.7,0.4-1,0.6c-0.3,0.3-0.5,0.6-0.6,0.9c-0.2,0.4-0.2,0.8-0.2,1.2
				c0,0.7,0.2,1.3,0.5,1.9s0.8,1.2,1.5,1.9l5.3,5.2c0.4-0.6,0.6-1.2,0.8-1.8c0.2-0.6,0.3-1.2,0.4-1.8c0-0.1,0-0.2,0.1-0.2
				s0.1-0.1,0.2-0.1h0.7c0,0.7-0.2,1.5-0.4,2.3c-0.3,0.8-0.6,1.5-1.1,2.3L155,402z M144.6,393.2c-0.5,0.2-1,0.5-1.4,0.8
				c-0.4,0.3-0.8,0.7-1.1,1c-0.3,0.4-0.5,0.8-0.7,1.2c-0.2,0.4-0.2,0.9-0.2,1.4c0,0.6,0.1,1.1,0.4,1.6c0.2,0.5,0.5,0.8,0.9,1.1
				c0.4,0.3,0.8,0.5,1.2,0.7c0.5,0.2,0.9,0.2,1.4,0.2c0.6,0,1.1-0.1,1.6-0.2s1-0.3,1.4-0.5c0.4-0.2,0.8-0.5,1.2-0.8
				c0.4-0.3,0.7-0.7,1-1l-5.5-5.4L144.6,393.2z"/>
			<path class="st3" d="M44.3,412.7V430h-0.6c-0.2,0-0.3-0.1-0.4-0.3l-0.1-1.9c-0.5,0.7-1.1,1.3-1.8,1.7s-1.5,0.6-2.4,0.6
				c-1.5,0-2.6-0.5-3.4-1.5c-0.8-1-1.2-2.5-1.2-4.5c0-0.9,0.1-1.7,0.3-2.4c0.2-0.8,0.6-1.4,1-2c0.4-0.6,1-1,1.6-1.3s1.4-0.5,2.2-0.5
				c0.8,0,1.5,0.1,2.1,0.4c0.6,0.3,1.1,0.7,1.5,1.3v-7H44.3z M43.2,420.7c-0.5-0.7-1-1.2-1.5-1.4c-0.6-0.3-1.2-0.4-1.9-0.4
				c-0.7,0-1.3,0.1-1.8,0.4s-1,0.6-1.3,1.1s-0.6,1-0.8,1.7c-0.2,0.6-0.3,1.4-0.3,2.1c0,1.8,0.3,3.1,1,3.9s1.6,1.2,2.8,1.2
				c0.8,0,1.5-0.2,2.1-0.6s1.2-1,1.7-1.7V420.7z"/>
			<path class="st3" d="M48.6,423.6v0.2c0,0.9,0.1,1.7,0.3,2.3c0.2,0.7,0.5,1.2,0.9,1.7s0.8,0.8,1.4,1c0.5,0.2,1.1,0.3,1.8,0.3
				c0.6,0,1.1-0.1,1.5-0.2c0.4-0.1,0.8-0.3,1.1-0.4c0.3-0.2,0.5-0.3,0.7-0.4c0.2-0.1,0.3-0.2,0.4-0.2c0.1,0,0.2,0,0.2,0.1l0.3,0.4
				c-0.2,0.2-0.4,0.5-0.8,0.7s-0.7,0.4-1,0.5c-0.4,0.1-0.8,0.3-1.2,0.4c-0.4,0.1-0.9,0.1-1.3,0.1c-0.8,0-1.5-0.1-2.2-0.4
				c-0.7-0.3-1.2-0.7-1.7-1.2c-0.5-0.5-0.8-1.2-1.1-2s-0.4-1.7-0.4-2.7c0-0.8,0.1-1.6,0.4-2.4c0.2-0.7,0.6-1.3,1-1.9
				c0.5-0.5,1-0.9,1.7-1.2c0.7-0.3,1.4-0.4,2.3-0.4c0.7,0,1.3,0.1,1.9,0.3c0.6,0.2,1.1,0.6,1.5,1c0.4,0.4,0.8,1,1,1.6
				c0.2,0.6,0.4,1.4,0.4,2.2c0,0.2,0,0.3-0.1,0.4c0,0.1-0.1,0.1-0.2,0.1H48.6z M56.5,422.9c0-0.6-0.1-1.2-0.3-1.7
				c-0.2-0.5-0.4-0.9-0.8-1.3c-0.3-0.3-0.7-0.6-1.2-0.8s-0.9-0.3-1.5-0.3c-0.6,0-1.2,0.1-1.6,0.3c-0.5,0.2-0.9,0.5-1.3,0.8
				c-0.4,0.4-0.6,0.8-0.9,1.3c-0.2,0.5-0.4,1.1-0.4,1.7H56.5z"/>
			<path class="st3" d="M69.9,418.1l-5,11.8h-1l-5-11.8h0.9c0.1,0,0.2,0,0.3,0.1s0.1,0.1,0.1,0.2l3.9,9.3c0.1,0.3,0.2,0.7,0.3,1
				c0.1-0.3,0.2-0.7,0.3-1l3.9-9.3c0-0.1,0.1-0.2,0.2-0.2s0.1-0.1,0.2-0.1H69.9z"/>
			<path class="st3" d="M72.5,423.6v0.2c0,0.9,0.1,1.7,0.3,2.3c0.2,0.7,0.5,1.2,0.9,1.7s0.8,0.8,1.4,1c0.5,0.2,1.1,0.3,1.8,0.3
				c0.6,0,1.1-0.1,1.5-0.2c0.4-0.1,0.8-0.3,1.1-0.4c0.3-0.2,0.5-0.3,0.7-0.4c0.2-0.1,0.3-0.2,0.4-0.2c0.1,0,0.2,0,0.2,0.1l0.3,0.4
				c-0.2,0.2-0.4,0.5-0.8,0.7s-0.7,0.4-1,0.5c-0.4,0.1-0.8,0.3-1.2,0.4c-0.4,0.1-0.9,0.1-1.3,0.1c-0.8,0-1.5-0.1-2.2-0.4
				c-0.7-0.3-1.2-0.7-1.7-1.2c-0.5-0.5-0.8-1.2-1.1-2s-0.4-1.7-0.4-2.7c0-0.8,0.1-1.6,0.4-2.4c0.2-0.7,0.6-1.3,1-1.9
				c0.5-0.5,1-0.9,1.7-1.2c0.7-0.3,1.4-0.4,2.3-0.4c0.7,0,1.3,0.1,1.9,0.3c0.6,0.2,1.1,0.6,1.5,1c0.4,0.4,0.8,1,1,1.6
				c0.2,0.6,0.4,1.4,0.4,2.2c0,0.2,0,0.3-0.1,0.4c0,0.1-0.1,0.1-0.2,0.1H72.5z M80.4,422.9c0-0.6-0.1-1.2-0.3-1.7
				c-0.2-0.5-0.4-0.9-0.8-1.3c-0.3-0.3-0.7-0.6-1.2-0.8s-0.9-0.3-1.5-0.3c-0.6,0-1.2,0.1-1.6,0.3c-0.5,0.2-0.9,0.5-1.3,0.8
				c-0.4,0.4-0.6,0.8-0.9,1.3c-0.2,0.5-0.4,1.1-0.4,1.7H80.4z"/>
			<path class="st3" d="M85.7,412.7V430h-1.1v-17.3H85.7z"/>
			<path class="st3" d="M94.4,417.9c0.8,0,1.6,0.1,2.3,0.4c0.7,0.3,1.2,0.7,1.7,1.2c0.5,0.5,0.8,1.2,1.1,1.9
				c0.2,0.8,0.4,1.6,0.4,2.5c0,0.9-0.1,1.8-0.4,2.5s-0.6,1.4-1.1,1.9s-1,0.9-1.7,1.2s-1.4,0.4-2.3,0.4c-0.8,0-1.6-0.1-2.3-0.4
				s-1.2-0.7-1.7-1.2c-0.5-0.5-0.8-1.2-1.1-1.9c-0.2-0.7-0.4-1.6-0.4-2.5c0-0.9,0.1-1.8,0.4-2.5c0.2-0.7,0.6-1.4,1.1-1.9
				c0.5-0.5,1-0.9,1.7-1.2C92.8,418.1,93.6,417.9,94.4,417.9z M94.4,429.2c0.7,0,1.3-0.1,1.9-0.4c0.5-0.2,1-0.6,1.3-1s0.6-1,0.8-1.6
				c0.2-0.6,0.3-1.4,0.3-2.1c0-0.8-0.1-1.5-0.3-2.1c-0.2-0.6-0.4-1.2-0.8-1.6s-0.8-0.8-1.3-1.1c-0.5-0.2-1.1-0.4-1.9-0.4
				s-1.3,0.1-1.9,0.4c-0.5,0.2-1,0.6-1.3,1.1s-0.6,1-0.8,1.6c-0.2,0.6-0.3,1.4-0.3,2.1c0,0.8,0.1,1.5,0.3,2.1
				c0.2,0.6,0.4,1.2,0.8,1.6s0.8,0.8,1.3,1C93.1,429.1,93.7,429.2,94.4,429.2z"/>
			<path class="st3" d="M104.1,420.3c0.5-0.7,1.1-1.3,1.8-1.7c0.7-0.4,1.5-0.6,2.4-0.6c1.5,0,2.6,0.5,3.4,1.5s1.2,2.5,1.2,4.5
				c0,0.9-0.1,1.7-0.3,2.4c-0.2,0.8-0.6,1.4-1,2s-1,1-1.6,1.3s-1.4,0.5-2.2,0.5c-0.8,0-1.5-0.1-2.1-0.4c-0.6-0.3-1.1-0.7-1.5-1.3
				v5.8H103v-16h0.6c0.2,0,0.3,0.1,0.3,0.3L104.1,420.3z M104.2,427.4c0.2,0.3,0.5,0.6,0.7,0.9c0.2,0.2,0.5,0.4,0.8,0.6
				c0.3,0.1,0.6,0.3,0.9,0.3s0.6,0.1,1,0.1c0.7,0,1.3-0.1,1.8-0.4c0.5-0.3,1-0.6,1.3-1.1c0.4-0.5,0.6-1,0.8-1.7
				c0.2-0.6,0.3-1.4,0.3-2.1c0-1.8-0.3-3.1-1-3.9c-0.7-0.8-1.6-1.2-2.8-1.2c-0.8,0-1.5,0.2-2.1,0.6c-0.6,0.4-1.2,1-1.7,1.7V427.4z"
				/>
			<path class="st3" d="M116.1,430v-11.8h0.6c0.2,0,0.3,0.1,0.3,0.3l0.1,1.7c0.5-0.7,1-1.2,1.6-1.6s1.3-0.6,2-0.6
				c0.9,0,1.6,0.2,2.1,0.8c0.5,0.5,0.9,1.2,1.1,2.1c0.1-0.5,0.3-0.9,0.6-1.3s0.6-0.7,0.9-0.9c0.3-0.2,0.7-0.4,1.1-0.5
				s0.8-0.2,1.2-0.2c0.6,0,1.1,0.1,1.6,0.3c0.5,0.2,0.9,0.5,1.2,0.9c0.3,0.4,0.6,0.8,0.8,1.4c0.2,0.6,0.3,1.2,0.3,1.9v7.6h-1.1v-7.6
				c0-1.2-0.2-2-0.8-2.6c-0.5-0.6-1.2-0.9-2.1-0.9c-0.4,0-0.8,0.1-1.2,0.2c-0.4,0.2-0.7,0.4-1,0.7c-0.3,0.3-0.5,0.7-0.7,1.1
				c-0.2,0.4-0.3,1-0.3,1.5v7.6h-1.1v-7.6c0-1.2-0.2-2-0.7-2.6s-1.1-0.9-2-0.9c-0.6,0-1.2,0.2-1.8,0.6c-0.5,0.4-1,0.9-1.5,1.6v9
				H116.1z"/>
			<path class="st3" d="M135.7,423.6v0.2c0,0.9,0.1,1.7,0.3,2.3c0.2,0.7,0.5,1.2,0.9,1.7s0.8,0.8,1.4,1c0.5,0.2,1.1,0.3,1.8,0.3
				c0.6,0,1.1-0.1,1.5-0.2c0.4-0.1,0.8-0.3,1.1-0.4c0.3-0.2,0.5-0.3,0.7-0.4s0.3-0.2,0.4-0.2c0.1,0,0.2,0,0.2,0.1l0.3,0.4
				c-0.2,0.2-0.4,0.5-0.8,0.7s-0.7,0.4-1,0.5c-0.4,0.1-0.8,0.3-1.2,0.4c-0.4,0.1-0.9,0.1-1.3,0.1c-0.8,0-1.5-0.1-2.2-0.4
				s-1.2-0.7-1.7-1.2c-0.5-0.5-0.8-1.2-1.1-2s-0.4-1.7-0.4-2.7c0-0.8,0.1-1.6,0.4-2.4c0.2-0.7,0.6-1.3,1-1.9c0.5-0.5,1-0.9,1.7-1.2
				c0.7-0.3,1.4-0.4,2.3-0.4c0.7,0,1.3,0.1,1.9,0.3c0.6,0.2,1.1,0.6,1.5,1c0.4,0.4,0.8,1,1,1.6s0.4,1.4,0.4,2.2c0,0.2,0,0.3-0.1,0.4
				c0,0.1-0.1,0.1-0.2,0.1H135.7z M143.6,422.9c0-0.6-0.1-1.2-0.3-1.7c-0.2-0.5-0.4-0.9-0.8-1.3c-0.3-0.3-0.7-0.6-1.2-0.8
				s-0.9-0.3-1.5-0.3c-0.6,0-1.2,0.1-1.6,0.3c-0.5,0.2-0.9,0.5-1.3,0.8c-0.4,0.4-0.6,0.8-0.9,1.3s-0.4,1.1-0.4,1.7H143.6z"/>
			<path class="st3" d="M148.8,420.2c0.5-0.7,1.2-1.2,1.9-1.6c0.7-0.4,1.5-0.6,2.4-0.6c0.7,0,1.2,0.1,1.7,0.3
				c0.5,0.2,0.9,0.5,1.2,0.9s0.6,0.9,0.7,1.4c0.2,0.5,0.2,1.2,0.2,1.9v7.6h-1.1v-7.6c0-1.1-0.3-2-0.8-2.6s-1.3-0.9-2.3-0.9
				c-0.8,0-1.5,0.2-2.2,0.6c-0.7,0.4-1.3,0.9-1.8,1.6v8.9h-1.1v-11.8h0.6c0.2,0,0.3,0.1,0.3,0.3L148.8,420.2z"/>
			<path class="st3" d="M163.9,430.2c-0.8,0-1.4-0.2-1.9-0.7s-0.7-1.1-0.7-2.1v-8.1h-1.7c-0.1,0-0.2,0-0.2-0.1
				c-0.1,0-0.1-0.1-0.1-0.2v-0.4l2-0.1l0.3-4.2c0-0.1,0-0.1,0.1-0.2s0.1-0.1,0.2-0.1h0.5v4.5h3.7v0.8h-3.7v8c0,0.3,0,0.6,0.1,0.8
				c0.1,0.2,0.2,0.4,0.3,0.6c0.1,0.2,0.3,0.3,0.5,0.3s0.4,0.1,0.6,0.1c0.3,0,0.5,0,0.7-0.1c0.2-0.1,0.4-0.2,0.5-0.3
				c0.2-0.1,0.3-0.2,0.4-0.3c0.1-0.1,0.2-0.1,0.2-0.1c0.1,0,0.1,0,0.2,0.1l0.3,0.5c-0.3,0.3-0.7,0.6-1.1,0.8
				C164.9,430.1,164.4,430.2,163.9,430.2z"/>
		</g>
	</g>
</g>
</svg>
