<?xml version="1.0" encoding="utf-8"?>
<!-- Generator: Adobe Illustrator 19.2.0, SVG Export Plug-In . SVG Version: 6.00 Build 0)  -->
<svg version="1.1" xmlns="http://www.w3.org/2000/svg" xmlns:xlink="http://www.w3.org/1999/xlink" x="0px" y="0px"
	 viewBox="0 0 200 442.7" enable-background="new 0 0 200 442.7" xml:space="preserve">
<g id="Layer_1">
</g>
<g id="Layer_2">
	<g>
		<g>
			<defs>
				<path id="SVGID_1_" d="M89.4,34.4l10.8-8.8l10.8,8.8c1.2,1,2.9,0.8,3.9-0.4c1-1.2,0.8-3-0.4-4l-14.3-11.7L85.9,30
					c-0.7,0.6-1,1.4-1,2.2c0,0.6,0.2,1.3,0.6,1.8C86.4,35.2,88.2,35.4,89.4,34.4"/>
			</defs>
			<use xlink:href="#SVGID_1_"  overflow="visible" fill-rule="evenodd" clip-rule="evenodd" fill="#E63A2F"/>
			<clipPath id="SVGID_2_">
				<use xlink:href="#SVGID_1_"  overflow="visible"/>
			</clipPath>
			<g clip-path="url(#SVGID_2_)">
				<defs>
					<rect id="SVGID_3_" x="-3213.3" y="-53.8" width="3351" height="1024"/>
				</defs>
				<use xlink:href="#SVGID_3_"  overflow="visible" fill="#E63A2F"/>
				<clipPath id="SVGID_4_">
					<use xlink:href="#SVGID_3_"  overflow="visible"/>
				</clipPath>
				<g clip-path="url(#SVGID_4_)">
					<rect x="79.8" y="13.3" fill="#E63A2F" width="40.6" height="26.8"/>
				</g>
			</g>
		</g>
		<g>
			<path fill="#1E2D33" d="M70.4,63v3.8c0,1.1-0.1,2-0.4,2.7c-0.2,0.7-0.5,1.3-0.7,1.7l-16.8,35.1c-0.4,0.8-1,1.5-1.7,2.1
				c-0.7,0.6-1.7,0.9-2.9,0.9h-6.4l17.2-34.3c0.4-0.8,0.9-1.5,1.3-2.2c0.4-0.7,0.9-1.3,1.5-1.9H40.3c-0.5,0-1-0.2-1.4-0.6
				c-0.4-0.4-0.6-0.9-0.6-1.4V63H70.4z"/>
			<path fill="#1E2D33" d="M75.9,86.3h16.8v7.2H75.9V86.3z"/>
			<path fill="#1E2D33" d="M129.4,102.7v6.5h-25.9v-6.5h9.2V77.5c0-0.6,0-1.1,0-1.7s0.1-1.2,0.1-1.8l-6,5c-0.4,0.3-0.8,0.5-1.2,0.6
				c-0.4,0.1-0.8,0.1-1.1,0c-0.4-0.1-0.7-0.2-1-0.4c-0.3-0.2-0.5-0.4-0.6-0.6L100,75l14.2-12h7.2v39.7H129.4z"/>
			<path fill="#1E2D33" d="M166.3,102.7v6.5h-25.9v-6.5h9.2V77.5c0-0.6,0-1.1,0-1.7c0-0.6,0.1-1.2,0.1-1.8l-6,5
				c-0.4,0.3-0.8,0.5-1.2,0.6c-0.4,0.1-0.8,0.1-1.1,0c-0.4-0.1-0.7-0.2-1-0.4c-0.3-0.2-0.5-0.4-0.6-0.6l-2.8-3.7l14.2-12h7.2v39.7
				H166.3z"/>
		</g>
		<g>
			<path fill="#1E2D33" d="M98.7,134c0,1.1-0.2,2.1-0.6,2.9c-0.4,0.9-0.9,1.6-1.5,2.3c-0.6,0.6-1.4,1.1-2.2,1.5
				c-0.8,0.3-1.7,0.5-2.6,0.5c-1,0-1.9-0.2-2.7-0.5s-1.5-0.8-2.1-1.5c-0.6-0.6-1.1-1.4-1.4-2.3c-0.3-0.9-0.5-1.9-0.5-2.9
				c0-1.1,0.2-2.1,0.5-3c0.3-0.9,0.8-1.7,1.4-2.3c0.6-0.6,1.3-1.1,2.1-1.5c0.8-0.3,1.7-0.5,2.7-0.5c1,0,1.9,0.2,2.7,0.5
				c0.8,0.3,1.6,0.8,2.2,1.5s1.1,1.4,1.4,2.3C98.5,131.9,98.7,132.9,98.7,134z M108.1,127.9c0.2-0.2,0.4-0.4,0.7-0.6
				s0.6-0.3,1.1-0.3h4l-21.6,28.1c-0.2,0.2-0.4,0.4-0.7,0.6c-0.3,0.2-0.6,0.2-1,0.2h-4.1L108.1,127.9z M94.5,134
				c0-0.7-0.1-1.3-0.2-1.8c-0.1-0.5-0.3-0.9-0.5-1.2c-0.2-0.3-0.5-0.5-0.8-0.6c-0.3-0.1-0.7-0.2-1-0.2c-0.4,0-0.7,0.1-1,0.2
				c-0.3,0.1-0.6,0.3-0.8,0.6c-0.2,0.3-0.4,0.7-0.5,1.2s-0.2,1.1-0.2,1.8c0,0.7,0.1,1.3,0.2,1.8c0.1,0.5,0.3,0.8,0.5,1.1
				c0.2,0.3,0.5,0.5,0.8,0.6c0.3,0.1,0.6,0.2,1,0.2c0.4,0,0.7-0.1,1-0.2c0.3-0.1,0.6-0.3,0.8-0.6c0.2-0.3,0.4-0.7,0.5-1.1
				C94.4,135.3,94.5,134.7,94.5,134z M115.2,149.2c0,1.1-0.2,2.1-0.6,2.9c-0.4,0.9-0.9,1.6-1.5,2.3s-1.4,1.1-2.2,1.5
				c-0.8,0.3-1.7,0.5-2.6,0.5c-1,0-1.9-0.2-2.7-0.5c-0.8-0.3-1.5-0.8-2.1-1.5c-0.6-0.6-1.1-1.4-1.4-2.3c-0.3-0.9-0.5-1.9-0.5-2.9
				c0-1.1,0.2-2.1,0.5-3c0.3-0.9,0.8-1.7,1.4-2.3c0.6-0.6,1.3-1.1,2.1-1.5c0.8-0.3,1.7-0.5,2.7-0.5c1,0,1.9,0.2,2.7,0.5
				c0.8,0.3,1.6,0.8,2.2,1.5s1.1,1.4,1.4,2.3C115,147,115.2,148.1,115.2,149.2z M111,149.2c0-0.7-0.1-1.3-0.2-1.8s-0.3-0.9-0.5-1.2
				c-0.2-0.3-0.5-0.5-0.8-0.6c-0.3-0.1-0.7-0.2-1-0.2c-0.4,0-0.7,0.1-1,0.2c-0.3,0.1-0.6,0.3-0.8,0.6c-0.2,0.3-0.4,0.7-0.5,1.2
				s-0.2,1.1-0.2,1.8c0,0.7,0.1,1.3,0.2,1.8s0.3,0.8,0.5,1.1c0.2,0.3,0.5,0.5,0.8,0.6c0.3,0.1,0.6,0.2,1,0.2c0.4,0,0.7-0.1,1-0.2
				c0.3-0.1,0.6-0.3,0.8-0.6c0.2-0.3,0.4-0.7,0.5-1.1S111,149.9,111,149.2z"/>
		</g>
		<g>
			<path fill="#1E2D33" d="M100.1,174.5c-47.8,0-86.8-38.9-86.8-86.8S52.3,1,100.1,1s86.8,38.9,86.8,86.8S148,174.5,100.1,174.5z
				 M100.1,2C52.9,2,14.4,40.5,14.4,87.8s38.5,85.8,85.8,85.8s85.8-38.5,85.8-85.8S147.4,2,100.1,2z"/>
		</g>
		<g>
			<path fill="#1E2D33" d="M48.8,235.9h-1.2v-16.8h1.2V235.9z"/>
			<path fill="#1E2D33" d="M54.2,226.1c0.5-0.7,1.2-1.2,1.9-1.6c0.7-0.4,1.5-0.6,2.4-0.6c0.7,0,1.2,0.1,1.7,0.3
				c0.5,0.2,0.9,0.5,1.2,0.9s0.6,0.9,0.7,1.4c0.2,0.5,0.2,1.2,0.2,1.9v7.6h-1.1v-7.6c0-1.1-0.3-2-0.8-2.6s-1.3-0.9-2.3-0.9
				c-0.8,0-1.5,0.2-2.2,0.6c-0.7,0.4-1.3,0.9-1.8,1.6v8.9h-1.1v-11.8h0.6c0.2,0,0.3,0.1,0.3,0.3L54.2,226.1z"/>
			<path fill="#1E2D33" d="M74.1,225.6c0,0-0.1,0.1-0.1,0.1c0,0-0.1,0-0.1,0c-0.1,0-0.2-0.1-0.3-0.2s-0.3-0.2-0.5-0.4
				c-0.2-0.1-0.5-0.2-0.9-0.4s-0.8-0.2-1.3-0.2c-0.7,0-1.3,0.1-1.8,0.4c-0.5,0.2-1,0.6-1.3,1c-0.4,0.5-0.6,1-0.8,1.6
				c-0.2,0.6-0.3,1.4-0.3,2.2c0,0.8,0.1,1.6,0.3,2.2s0.5,1.2,0.8,1.6s0.8,0.8,1.3,1c0.5,0.2,1.1,0.3,1.7,0.3c0.6,0,1-0.1,1.4-0.2
				s0.7-0.3,1-0.4c0.2-0.2,0.4-0.3,0.6-0.4c0.1-0.1,0.3-0.2,0.4-0.2s0.2,0,0.2,0.1l0.3,0.4c-0.2,0.2-0.4,0.5-0.7,0.7
				s-0.6,0.4-0.9,0.5c-0.3,0.2-0.7,0.3-1.1,0.4c-0.4,0.1-0.8,0.1-1.3,0.1c-0.8,0-1.4-0.1-2.1-0.4c-0.6-0.3-1.2-0.7-1.6-1.2
				s-0.8-1.2-1-1.9c-0.2-0.8-0.4-1.6-0.4-2.6c0-0.9,0.1-1.7,0.4-2.5c0.2-0.7,0.6-1.4,1-1.9c0.5-0.5,1-1,1.7-1.3
				c0.7-0.3,1.4-0.4,2.3-0.4c0.8,0,1.5,0.1,2,0.4c0.6,0.2,1.1,0.6,1.6,1L74.1,225.6z"/>
			<path fill="#1E2D33" d="M78.5,226.9c0.2-0.5,0.4-0.9,0.6-1.3s0.5-0.7,0.8-1c0.3-0.3,0.6-0.5,1-0.6c0.4-0.1,0.8-0.2,1.3-0.2
				c0.2,0,0.5,0,0.7,0.1c0.2,0,0.4,0.1,0.6,0.2l-0.1,0.8c0,0.1-0.1,0.2-0.2,0.2c-0.1,0-0.2,0-0.4-0.1S82.3,225,82,225
				c-0.5,0-0.9,0.1-1.2,0.2s-0.7,0.3-1,0.6c-0.3,0.3-0.5,0.6-0.7,1c-0.2,0.4-0.4,0.9-0.6,1.4v7.7h-1.1v-11.8H78c0.1,0,0.2,0,0.3,0.1
				c0.1,0.1,0.1,0.2,0.1,0.3L78.5,226.9z"/>
			<path fill="#1E2D33" d="M85.6,229.5v0.2c0,0.9,0.1,1.7,0.3,2.3c0.2,0.7,0.5,1.2,0.9,1.7s0.8,0.8,1.4,1c0.5,0.2,1.1,0.3,1.8,0.3
				c0.6,0,1.1-0.1,1.5-0.2c0.4-0.1,0.8-0.3,1.1-0.4c0.3-0.2,0.5-0.3,0.7-0.4c0.2-0.1,0.3-0.2,0.4-0.2c0.1,0,0.2,0,0.2,0.1l0.3,0.4
				c-0.2,0.2-0.4,0.5-0.8,0.7s-0.7,0.4-1,0.5c-0.4,0.1-0.8,0.3-1.2,0.4c-0.4,0.1-0.9,0.1-1.3,0.1c-0.8,0-1.5-0.1-2.2-0.4
				c-0.7-0.3-1.2-0.7-1.7-1.2c-0.5-0.5-0.8-1.2-1.1-2s-0.4-1.7-0.4-2.7c0-0.8,0.1-1.6,0.4-2.4c0.2-0.7,0.6-1.3,1-1.9
				c0.5-0.5,1-0.9,1.7-1.2c0.7-0.3,1.4-0.4,2.3-0.4c0.7,0,1.3,0.1,1.9,0.3c0.6,0.2,1.1,0.6,1.5,1c0.4,0.4,0.8,1,1,1.6
				c0.2,0.6,0.4,1.4,0.4,2.2c0,0.2,0,0.3-0.1,0.4c0,0.1-0.1,0.1-0.2,0.1H85.6z M93.5,228.8c0-0.6-0.1-1.2-0.3-1.7
				c-0.2-0.5-0.4-0.9-0.8-1.3c-0.3-0.3-0.7-0.6-1.2-0.8s-0.9-0.3-1.5-0.3c-0.6,0-1.2,0.1-1.6,0.3c-0.5,0.2-0.9,0.5-1.3,0.8
				c-0.4,0.4-0.6,0.8-0.9,1.3c-0.2,0.5-0.4,1.1-0.4,1.7H93.5z"/>
			<path fill="#1E2D33" d="M97.2,225.7c0.6-0.6,1.3-1.1,2-1.4c0.7-0.3,1.5-0.5,2.3-0.5c0.6,0,1.2,0.1,1.7,0.3
				c0.5,0.2,0.9,0.5,1.2,0.9s0.5,0.8,0.7,1.4c0.2,0.5,0.2,1.1,0.2,1.8v7.7h-0.5c-0.2,0-0.4-0.1-0.4-0.3l-0.2-1.5
				c-0.3,0.3-0.6,0.6-1,0.9s-0.7,0.5-1,0.6c-0.3,0.2-0.7,0.3-1.1,0.4c-0.4,0.1-0.8,0.1-1.3,0.1c-0.4,0-0.8-0.1-1.2-0.2
				c-0.4-0.1-0.7-0.3-1-0.5c-0.3-0.2-0.5-0.6-0.7-0.9s-0.3-0.8-0.3-1.4c0-0.5,0.1-1,0.4-1.4c0.3-0.4,0.7-0.8,1.3-1.1
				s1.4-0.6,2.4-0.8c1-0.2,2.1-0.3,3.4-0.3v-1.2c0-1.1-0.2-1.9-0.7-2.5c-0.5-0.6-1.2-0.9-2.1-0.9c-0.6,0-1.1,0.1-1.5,0.2
				c-0.4,0.2-0.7,0.3-1,0.5c-0.3,0.2-0.5,0.4-0.7,0.5c-0.2,0.2-0.3,0.2-0.4,0.2c-0.1,0-0.2,0-0.2-0.1c-0.1,0-0.1-0.1-0.1-0.2
				L97.2,225.7z M104.2,230.2c-1.1,0-2.1,0.1-2.9,0.3c-0.8,0.1-1.5,0.3-2,0.6c-0.5,0.2-0.9,0.5-1.2,0.9c-0.3,0.3-0.4,0.7-0.4,1.1
				c0,0.4,0.1,0.7,0.2,1c0.1,0.3,0.3,0.5,0.5,0.7s0.5,0.3,0.8,0.4c0.3,0.1,0.6,0.1,0.9,0.1c0.5,0,0.9,0,1.3-0.1
				c0.4-0.1,0.7-0.2,1.1-0.4c0.3-0.2,0.6-0.4,0.9-0.6s0.6-0.5,0.8-0.8V230.2z"/>
			<path fill="#1E2D33" d="M115.6,225.5c-0.1,0.1-0.2,0.2-0.3,0.2c-0.1,0-0.2,0-0.3-0.1c-0.1-0.1-0.3-0.2-0.5-0.3
				c-0.2-0.1-0.5-0.2-0.8-0.3c-0.3-0.1-0.7-0.1-1.2-0.1c-0.4,0-0.8,0.1-1.2,0.2c-0.4,0.1-0.7,0.3-0.9,0.5c-0.2,0.2-0.4,0.4-0.6,0.7
				c-0.1,0.3-0.2,0.6-0.2,0.9c0,0.4,0.1,0.7,0.3,0.9s0.4,0.5,0.7,0.6c0.3,0.2,0.7,0.3,1.1,0.5s0.8,0.3,1.2,0.4
				c0.4,0.1,0.8,0.3,1.2,0.4s0.7,0.3,1.1,0.6c0.3,0.2,0.6,0.5,0.7,0.8s0.3,0.7,0.3,1.2c0,0.5-0.1,1-0.3,1.4s-0.5,0.8-0.8,1.2
				c-0.4,0.3-0.8,0.6-1.3,0.8s-1.1,0.3-1.8,0.3c-0.8,0-1.6-0.1-2.2-0.4s-1.1-0.6-1.6-1l0.3-0.4c0-0.1,0.1-0.1,0.1-0.1
				c0.1,0,0.1,0,0.2,0c0.1,0,0.2,0.1,0.4,0.2c0.1,0.1,0.3,0.3,0.6,0.4s0.5,0.3,0.9,0.4c0.4,0.1,0.8,0.2,1.3,0.2
				c0.5,0,0.9-0.1,1.3-0.2s0.7-0.3,1-0.6s0.4-0.5,0.6-0.8s0.2-0.7,0.2-1c0-0.4-0.1-0.7-0.3-1c-0.2-0.3-0.4-0.5-0.8-0.7
				c-0.3-0.2-0.7-0.3-1.1-0.5s-0.8-0.3-1.2-0.4c-0.4-0.1-0.8-0.3-1.2-0.4c-0.4-0.2-0.7-0.3-1.1-0.6c-0.3-0.2-0.6-0.5-0.7-0.8
				c-0.2-0.3-0.3-0.7-0.3-1.2c0-0.4,0.1-0.8,0.3-1.2c0.2-0.4,0.4-0.7,0.8-1c0.3-0.3,0.7-0.5,1.2-0.7c0.5-0.2,1-0.3,1.6-0.3
				c0.7,0,1.4,0.1,1.9,0.3c0.6,0.2,1.1,0.5,1.5,1L115.6,225.5z"/>
			<path fill="#1E2D33" d="M119.6,229.5v0.2c0,0.9,0.1,1.7,0.3,2.3c0.2,0.7,0.5,1.2,0.9,1.7s0.8,0.8,1.4,1c0.5,0.2,1.1,0.3,1.8,0.3
				c0.6,0,1.1-0.1,1.5-0.2c0.4-0.1,0.8-0.3,1.1-0.4c0.3-0.2,0.5-0.3,0.7-0.4c0.2-0.1,0.3-0.2,0.4-0.2c0.1,0,0.2,0,0.2,0.1l0.3,0.4
				c-0.2,0.2-0.4,0.5-0.8,0.7s-0.7,0.4-1,0.5c-0.4,0.1-0.8,0.3-1.2,0.4c-0.4,0.1-0.9,0.1-1.3,0.1c-0.8,0-1.5-0.1-2.2-0.4
				c-0.7-0.3-1.2-0.7-1.7-1.2c-0.5-0.5-0.8-1.2-1.1-2s-0.4-1.7-0.4-2.7c0-0.8,0.1-1.6,0.4-2.4c0.2-0.7,0.6-1.3,1-1.9
				c0.5-0.5,1-0.9,1.7-1.2c0.7-0.3,1.4-0.4,2.3-0.4c0.7,0,1.3,0.1,1.9,0.3s1.1,0.6,1.5,1c0.4,0.4,0.8,1,1,1.6
				c0.2,0.6,0.4,1.4,0.4,2.2c0,0.2,0,0.3-0.1,0.4s-0.1,0.1-0.2,0.1H119.6z M127.5,228.8c0-0.6-0.1-1.2-0.3-1.7s-0.4-0.9-0.8-1.3
				c-0.3-0.3-0.7-0.6-1.2-0.8s-0.9-0.3-1.5-0.3c-0.6,0-1.2,0.1-1.6,0.3c-0.5,0.2-0.9,0.5-1.3,0.8c-0.4,0.4-0.6,0.8-0.9,1.3
				c-0.2,0.5-0.4,1.1-0.4,1.7H127.5z"/>
			<path fill="#1E2D33" d="M139.8,220c0,0.1,0,0.3-0.1,0.4s-0.1,0.2-0.2,0.3c-0.1,0.1-0.2,0.2-0.3,0.2s-0.3,0.1-0.4,0.1
				c-0.1,0-0.3,0-0.4-0.1s-0.2-0.1-0.3-0.2c-0.1-0.1-0.2-0.2-0.2-0.3c-0.1-0.1-0.1-0.3-0.1-0.4c0-0.1,0-0.3,0.1-0.4
				c0.1-0.1,0.1-0.2,0.2-0.3c0.1-0.1,0.2-0.2,0.3-0.2c0.1-0.1,0.3-0.1,0.4-0.1c0.1,0,0.3,0,0.4,0.1c0.1,0.1,0.2,0.1,0.3,0.2
				s0.2,0.2,0.2,0.3S139.8,219.8,139.8,220z M139.3,224.1v11.8h-1.1v-11.8H139.3z"/>
			<path fill="#1E2D33" d="M144.4,226.1c0.5-0.7,1.2-1.2,1.9-1.6c0.7-0.4,1.5-0.6,2.4-0.6c0.7,0,1.2,0.1,1.7,0.3
				c0.5,0.2,0.9,0.5,1.2,0.9s0.6,0.9,0.7,1.4c0.2,0.5,0.2,1.2,0.2,1.9v7.6h-1.1v-7.6c0-1.1-0.3-2-0.8-2.6s-1.3-0.9-2.3-0.9
				c-0.8,0-1.5,0.2-2.2,0.6c-0.7,0.4-1.3,0.9-1.8,1.6v8.9h-1.1v-11.8h0.6c0.2,0,0.3,0.1,0.3,0.3L144.4,226.1z"/>
			<path fill="#1E2D33" d="M52.5,257.5v0.2c0,0.9,0.1,1.7,0.3,2.3c0.2,0.7,0.5,1.2,0.9,1.7s0.8,0.8,1.4,1c0.5,0.2,1.1,0.3,1.8,0.3
				c0.6,0,1.1-0.1,1.5-0.2c0.4-0.1,0.8-0.3,1.1-0.4c0.3-0.2,0.5-0.3,0.7-0.4c0.2-0.1,0.3-0.2,0.4-0.2c0.1,0,0.2,0,0.2,0.1l0.3,0.4
				c-0.2,0.2-0.4,0.5-0.8,0.7s-0.7,0.4-1,0.5c-0.4,0.1-0.8,0.3-1.2,0.4c-0.4,0.1-0.9,0.1-1.3,0.1c-0.8,0-1.5-0.1-2.2-0.4
				c-0.7-0.3-1.2-0.7-1.7-1.2c-0.5-0.5-0.8-1.2-1.1-2s-0.4-1.7-0.4-2.7c0-0.8,0.1-1.6,0.4-2.4c0.2-0.7,0.6-1.3,1-1.9
				c0.5-0.5,1-0.9,1.7-1.2c0.7-0.3,1.4-0.4,2.3-0.4c0.7,0,1.3,0.1,1.9,0.3c0.6,0.2,1.1,0.6,1.5,1c0.4,0.4,0.8,1,1,1.6
				c0.2,0.6,0.4,1.4,0.4,2.2c0,0.2,0,0.3-0.1,0.4c0,0.1-0.1,0.1-0.2,0.1H52.5z M60.4,256.8c0-0.6-0.1-1.2-0.3-1.7
				c-0.2-0.5-0.4-0.9-0.8-1.3c-0.3-0.3-0.7-0.6-1.2-0.8s-0.9-0.3-1.5-0.3c-0.6,0-1.2,0.1-1.6,0.3c-0.5,0.2-0.9,0.5-1.3,0.8
				c-0.4,0.4-0.6,0.8-0.9,1.3c-0.2,0.5-0.4,1.1-0.4,1.7H60.4z"/>
			<path fill="#1E2D33" d="M64.5,263.9v-11.8h0.6c0.2,0,0.3,0.1,0.3,0.3l0.1,1.7c0.5-0.7,1-1.2,1.6-1.6c0.6-0.4,1.3-0.6,2-0.6
				c0.9,0,1.6,0.2,2.1,0.8c0.5,0.5,0.9,1.2,1.1,2.1c0.1-0.5,0.3-0.9,0.6-1.3s0.6-0.7,0.9-0.9c0.3-0.2,0.7-0.4,1.1-0.5
				s0.8-0.2,1.2-0.2c0.6,0,1.1,0.1,1.6,0.3s0.9,0.5,1.2,0.9c0.3,0.4,0.6,0.8,0.8,1.4c0.2,0.6,0.3,1.2,0.3,1.9v7.6h-1.1v-7.6
				c0-1.2-0.2-2-0.8-2.6c-0.5-0.6-1.2-0.9-2.1-0.9c-0.4,0-0.8,0.1-1.2,0.2c-0.4,0.2-0.7,0.4-1,0.7c-0.3,0.3-0.5,0.7-0.7,1.1
				c-0.2,0.4-0.3,1-0.3,1.5v7.6h-1.1v-7.6c0-1.2-0.2-2-0.7-2.6c-0.5-0.6-1.1-0.9-2-0.9c-0.6,0-1.2,0.2-1.8,0.6
				c-0.5,0.4-1,0.9-1.5,1.6v9H64.5z"/>
			<path fill="#1E2D33" d="M84.7,254.2c0.5-0.7,1.1-1.3,1.8-1.7c0.7-0.4,1.5-0.6,2.4-0.6c1.5,0,2.6,0.5,3.4,1.5
				c0.8,1,1.2,2.5,1.2,4.5c0,0.9-0.1,1.7-0.3,2.4c-0.2,0.8-0.6,1.4-1,2c-0.4,0.6-1,1-1.6,1.3s-1.4,0.5-2.2,0.5
				c-0.8,0-1.5-0.1-2.1-0.4c-0.6-0.3-1.1-0.7-1.5-1.3v5.8h-1.1v-16h0.6c0.2,0,0.3,0.1,0.3,0.3L84.7,254.2z M84.8,261.3
				c0.2,0.3,0.5,0.6,0.7,0.9c0.2,0.2,0.5,0.4,0.8,0.6c0.3,0.1,0.6,0.3,0.9,0.3s0.6,0.1,1,0.1c0.7,0,1.3-0.1,1.8-0.4
				c0.5-0.3,1-0.6,1.3-1.1s0.6-1,0.8-1.7c0.2-0.6,0.3-1.4,0.3-2.1c0-1.8-0.3-3.1-1-3.9c-0.7-0.8-1.6-1.2-2.8-1.2
				c-0.8,0-1.5,0.2-2.1,0.6c-0.6,0.4-1.2,1-1.7,1.7V261.3z"/>
			<path fill="#1E2D33" d="M98,246.6v17.3h-1.1v-17.3H98z"/>
			<path fill="#1E2D33" d="M106.7,251.9c0.8,0,1.6,0.1,2.3,0.4c0.7,0.3,1.2,0.7,1.7,1.2c0.5,0.5,0.8,1.2,1.1,1.9
				c0.2,0.8,0.4,1.6,0.4,2.5c0,0.9-0.1,1.8-0.4,2.5s-0.6,1.4-1.1,1.9s-1,0.9-1.7,1.2c-0.7,0.3-1.4,0.4-2.3,0.4s-1.6-0.1-2.3-0.4
				c-0.7-0.3-1.2-0.7-1.7-1.2s-0.8-1.2-1.1-1.9s-0.4-1.6-0.4-2.5c0-0.9,0.1-1.8,0.4-2.5c0.2-0.7,0.6-1.4,1.1-1.9
				c0.5-0.5,1-0.9,1.7-1.2C105.1,252,105.9,251.9,106.7,251.9z M106.7,263.2c0.7,0,1.3-0.1,1.9-0.4c0.5-0.2,1-0.6,1.3-1
				c0.4-0.5,0.6-1,0.8-1.6c0.2-0.6,0.3-1.4,0.3-2.1c0-0.8-0.1-1.5-0.3-2.1c-0.2-0.6-0.4-1.2-0.8-1.6c-0.4-0.5-0.8-0.8-1.3-1.1
				c-0.5-0.2-1.1-0.4-1.9-0.4s-1.3,0.1-1.9,0.4s-1,0.6-1.3,1.1c-0.4,0.5-0.6,1-0.8,1.6s-0.3,1.4-0.3,2.1c0,0.8,0.1,1.5,0.3,2.1
				s0.4,1.2,0.8,1.6c0.4,0.5,0.8,0.8,1.3,1S106,263.2,106.7,263.2z"/>
			<path fill="#1E2D33" d="M124.6,252.1l-6.8,15.6c0,0.1-0.1,0.2-0.2,0.3s-0.2,0.1-0.3,0.1h-0.8l2.1-4.6l-5-11.4h0.9
				c0.1,0,0.2,0,0.3,0.1s0.1,0.1,0.1,0.2l4,9.2c0,0.1,0.1,0.2,0.1,0.4s0.1,0.2,0.1,0.4c0-0.1,0.1-0.3,0.1-0.4c0-0.1,0.1-0.2,0.1-0.4
				l3.9-9.2c0-0.1,0.1-0.2,0.2-0.2s0.2-0.1,0.2-0.1H124.6z"/>
			<path fill="#1E2D33" d="M127,257.5v0.2c0,0.9,0.1,1.7,0.3,2.3c0.2,0.7,0.5,1.2,0.9,1.7s0.8,0.8,1.4,1c0.5,0.2,1.1,0.3,1.8,0.3
				c0.6,0,1.1-0.1,1.5-0.2c0.4-0.1,0.8-0.3,1.1-0.4c0.3-0.2,0.5-0.3,0.7-0.4c0.2-0.1,0.3-0.2,0.4-0.2c0.1,0,0.2,0,0.2,0.1l0.3,0.4
				c-0.2,0.2-0.4,0.5-0.8,0.7s-0.7,0.4-1,0.5c-0.4,0.1-0.8,0.3-1.2,0.4c-0.4,0.1-0.9,0.1-1.3,0.1c-0.8,0-1.5-0.1-2.2-0.4
				c-0.7-0.3-1.2-0.7-1.7-1.2c-0.5-0.5-0.8-1.2-1.1-2s-0.4-1.7-0.4-2.7c0-0.8,0.1-1.6,0.4-2.4c0.2-0.7,0.6-1.3,1-1.9
				c0.5-0.5,1-0.9,1.7-1.2c0.7-0.3,1.4-0.4,2.3-0.4c0.7,0,1.3,0.1,1.9,0.3s1.1,0.6,1.5,1c0.4,0.4,0.8,1,1,1.6
				c0.2,0.6,0.4,1.4,0.4,2.2c0,0.2,0,0.3-0.1,0.4s-0.1,0.1-0.2,0.1H127z M135,256.8c0-0.6-0.1-1.2-0.3-1.7s-0.4-0.9-0.8-1.3
				c-0.3-0.3-0.7-0.6-1.2-0.8s-0.9-0.3-1.5-0.3c-0.6,0-1.2,0.1-1.6,0.3c-0.5,0.2-0.9,0.5-1.3,0.8c-0.4,0.4-0.6,0.8-0.9,1.3
				c-0.2,0.5-0.4,1.1-0.4,1.7H135z"/>
			<path fill="#1E2D33" d="M139.5,257.5v0.2c0,0.9,0.1,1.7,0.3,2.3c0.2,0.7,0.5,1.2,0.9,1.7s0.8,0.8,1.4,1c0.5,0.2,1.1,0.3,1.8,0.3
				c0.6,0,1.1-0.1,1.5-0.2c0.4-0.1,0.8-0.3,1.1-0.4c0.3-0.2,0.5-0.3,0.7-0.4c0.2-0.1,0.3-0.2,0.4-0.2c0.1,0,0.2,0,0.2,0.1l0.3,0.4
				c-0.2,0.2-0.4,0.5-0.8,0.7s-0.7,0.4-1,0.5c-0.4,0.1-0.8,0.3-1.2,0.4c-0.4,0.1-0.9,0.1-1.3,0.1c-0.8,0-1.5-0.1-2.2-0.4
				c-0.7-0.3-1.2-0.7-1.7-1.2c-0.5-0.5-0.8-1.2-1.1-2s-0.4-1.7-0.4-2.7c0-0.8,0.1-1.6,0.4-2.4c0.2-0.7,0.6-1.3,1-1.9
				c0.5-0.5,1-0.9,1.7-1.2c0.7-0.3,1.4-0.4,2.3-0.4c0.7,0,1.3,0.1,1.9,0.3s1.1,0.6,1.5,1c0.4,0.4,0.8,1,1,1.6
				c0.2,0.6,0.4,1.4,0.4,2.2c0,0.2,0,0.3-0.1,0.4s-0.1,0.1-0.2,0.1H139.5z M147.4,256.8c0-0.6-0.1-1.2-0.3-1.7s-0.4-0.9-0.8-1.3
				c-0.3-0.3-0.7-0.6-1.2-0.8s-0.9-0.3-1.5-0.3c-0.6,0-1.2,0.1-1.6,0.3c-0.5,0.2-0.9,0.5-1.3,0.8c-0.4,0.4-0.6,0.8-0.9,1.3
				c-0.2,0.5-0.4,1.1-0.4,1.7H147.4z"/>
			<path fill="#1E2D33" d="M37.7,280.1v11.8h-0.6c-0.2,0-0.3-0.1-0.3-0.3l-0.1-1.8c-0.5,0.7-1.2,1.2-1.9,1.6
				c-0.7,0.4-1.5,0.6-2.4,0.6c-0.7,0-1.2-0.1-1.7-0.3c-0.5-0.2-0.9-0.5-1.2-0.9c-0.3-0.4-0.6-0.9-0.7-1.4c-0.2-0.5-0.2-1.2-0.2-1.9
				v-7.6h1.1v7.6c0,1.1,0.3,2,0.8,2.6s1.3,0.9,2.3,0.9c0.8,0,1.5-0.2,2.2-0.6s1.3-0.9,1.8-1.6v-8.9H37.7z"/>
			<path fill="#1E2D33" d="M42.7,282.1c0.5-0.7,1.2-1.2,1.9-1.6c0.7-0.4,1.5-0.6,2.4-0.6c0.7,0,1.2,0.1,1.7,0.3
				c0.5,0.2,0.9,0.5,1.2,0.9s0.6,0.9,0.7,1.4c0.2,0.5,0.2,1.2,0.2,1.9v7.6h-1.1v-7.6c0-1.1-0.3-2-0.8-2.6s-1.3-0.9-2.3-0.9
				c-0.8,0-1.5,0.2-2.2,0.6c-0.7,0.4-1.3,0.9-1.8,1.6v8.9h-1.1v-11.8h0.6c0.2,0,0.3,0.1,0.3,0.3L42.7,282.1z"/>
			<path fill="#1E2D33" d="M63.9,274.6v17.3h-0.6c-0.2,0-0.3-0.1-0.4-0.3l-0.1-1.9c-0.5,0.7-1.1,1.3-1.8,1.7s-1.5,0.6-2.4,0.6
				c-1.5,0-2.6-0.5-3.4-1.5c-0.8-1-1.2-2.5-1.2-4.5c0-0.9,0.1-1.7,0.3-2.4c0.2-0.8,0.6-1.4,1-2c0.4-0.6,1-1,1.6-1.3s1.4-0.5,2.2-0.5
				c0.8,0,1.5,0.1,2.1,0.4c0.6,0.3,1.1,0.7,1.5,1.3v-7H63.9z M62.8,282.6c-0.5-0.7-1-1.2-1.5-1.4c-0.6-0.3-1.2-0.4-1.9-0.4
				c-0.7,0-1.3,0.1-1.8,0.4s-1,0.6-1.3,1.1s-0.6,1-0.8,1.7c-0.2,0.6-0.3,1.4-0.3,2.1c0,1.8,0.3,3.1,1,3.9s1.6,1.2,2.8,1.2
				c0.8,0,1.5-0.2,2.1-0.6s1.2-1,1.7-1.7V282.6z"/>
			<path fill="#1E2D33" d="M68.2,285.5v0.2c0,0.9,0.1,1.7,0.3,2.3c0.2,0.7,0.5,1.2,0.9,1.7s0.8,0.8,1.4,1c0.5,0.2,1.1,0.3,1.8,0.3
				c0.6,0,1.1-0.1,1.5-0.2c0.4-0.1,0.8-0.3,1.1-0.4c0.3-0.2,0.5-0.3,0.7-0.4c0.2-0.1,0.3-0.2,0.4-0.2c0.1,0,0.2,0,0.2,0.1l0.3,0.4
				c-0.2,0.2-0.4,0.5-0.8,0.7s-0.7,0.4-1,0.5c-0.4,0.1-0.8,0.3-1.2,0.4c-0.4,0.1-0.9,0.1-1.3,0.1c-0.8,0-1.5-0.1-2.2-0.4
				c-0.7-0.3-1.2-0.7-1.7-1.2c-0.5-0.5-0.8-1.2-1.1-2s-0.4-1.7-0.4-2.7c0-0.8,0.1-1.6,0.4-2.4c0.2-0.7,0.6-1.3,1-1.9
				c0.5-0.5,1-0.9,1.7-1.2c0.7-0.3,1.4-0.4,2.3-0.4c0.7,0,1.3,0.1,1.9,0.3c0.6,0.2,1.1,0.6,1.5,1c0.4,0.4,0.8,1,1,1.6
				c0.2,0.6,0.4,1.4,0.4,2.2c0,0.2,0,0.3-0.1,0.4c0,0.1-0.1,0.1-0.2,0.1H68.2z M76.1,284.8c0-0.6-0.1-1.2-0.3-1.7
				c-0.2-0.5-0.4-0.9-0.8-1.3c-0.3-0.3-0.7-0.6-1.2-0.8s-0.9-0.3-1.5-0.3c-0.6,0-1.2,0.1-1.6,0.3c-0.5,0.2-0.9,0.5-1.3,0.8
				c-0.4,0.4-0.6,0.8-0.9,1.3c-0.2,0.5-0.4,1.1-0.4,1.7H76.1z"/>
			<path fill="#1E2D33" d="M81.3,282.9c0.2-0.5,0.4-0.9,0.6-1.3s0.5-0.7,0.8-1c0.3-0.3,0.6-0.5,1-0.6c0.4-0.1,0.8-0.2,1.3-0.2
				c0.2,0,0.5,0,0.7,0.1c0.2,0,0.4,0.1,0.6,0.2l-0.1,0.8c0,0.1-0.1,0.2-0.2,0.2c-0.1,0-0.2,0-0.4-0.1s-0.5-0.1-0.8-0.1
				c-0.5,0-0.9,0.1-1.2,0.2s-0.7,0.3-1,0.6c-0.3,0.3-0.5,0.6-0.7,1c-0.2,0.4-0.4,0.9-0.6,1.4v7.7h-1.1v-11.8h0.6
				c0.1,0,0.2,0,0.3,0.1c0.1,0.1,0.1,0.2,0.1,0.3L81.3,282.9z"/>
			<path fill="#1E2D33" d="M95,281.5c-0.1,0.1-0.2,0.2-0.3,0.2c-0.1,0-0.2,0-0.3-0.1c-0.1-0.1-0.3-0.2-0.5-0.3s-0.5-0.2-0.8-0.3
				c-0.3-0.1-0.7-0.1-1.2-0.1c-0.4,0-0.8,0.1-1.2,0.2c-0.4,0.1-0.7,0.3-0.9,0.5c-0.2,0.2-0.4,0.4-0.6,0.7c-0.1,0.3-0.2,0.6-0.2,0.9
				c0,0.4,0.1,0.7,0.3,0.9s0.4,0.5,0.7,0.6c0.3,0.2,0.7,0.3,1.1,0.5c0.4,0.1,0.8,0.3,1.2,0.4c0.4,0.1,0.8,0.3,1.2,0.4
				c0.4,0.2,0.7,0.3,1.1,0.6c0.3,0.2,0.6,0.5,0.7,0.8s0.3,0.7,0.3,1.2c0,0.5-0.1,1-0.3,1.4s-0.5,0.8-0.8,1.2s-0.8,0.6-1.3,0.8
				s-1.1,0.3-1.8,0.3c-0.8,0-1.6-0.1-2.2-0.4c-0.6-0.3-1.1-0.6-1.6-1l0.3-0.4c0-0.1,0.1-0.1,0.1-0.1c0.1,0,0.1,0,0.2,0
				c0.1,0,0.2,0.1,0.4,0.2c0.1,0.1,0.3,0.3,0.6,0.4s0.5,0.3,0.9,0.4c0.4,0.1,0.8,0.2,1.3,0.2c0.5,0,0.9-0.1,1.3-0.2
				c0.4-0.1,0.7-0.3,1-0.6s0.4-0.5,0.6-0.8s0.2-0.7,0.2-1c0-0.4-0.1-0.7-0.3-1c-0.2-0.3-0.4-0.5-0.8-0.7c-0.3-0.2-0.7-0.3-1.1-0.5
				s-0.8-0.3-1.2-0.4c-0.4-0.1-0.8-0.3-1.2-0.4c-0.4-0.2-0.7-0.3-1.1-0.6c-0.3-0.2-0.6-0.5-0.7-0.8c-0.2-0.3-0.3-0.7-0.3-1.2
				c0-0.4,0.1-0.8,0.3-1.2c0.2-0.4,0.4-0.7,0.8-1c0.3-0.3,0.7-0.5,1.2-0.7c0.5-0.2,1-0.3,1.6-0.3c0.7,0,1.4,0.1,1.9,0.3
				c0.6,0.2,1.1,0.5,1.5,1L95,281.5z"/>
			<path fill="#1E2D33" d="M101.8,292.1c-0.8,0-1.4-0.2-1.9-0.7s-0.7-1.1-0.7-2.1v-8.1h-1.7c-0.1,0-0.2,0-0.2-0.1
				c-0.1,0-0.1-0.1-0.1-0.2v-0.4l2-0.1l0.3-4.2c0-0.1,0-0.1,0.1-0.2c0-0.1,0.1-0.1,0.2-0.1h0.5v4.5h3.7v0.8h-3.7v8
				c0,0.3,0,0.6,0.1,0.8s0.2,0.4,0.3,0.6c0.1,0.2,0.3,0.3,0.5,0.3s0.4,0.1,0.6,0.1c0.3,0,0.5,0,0.7-0.1c0.2-0.1,0.4-0.2,0.5-0.3
				c0.2-0.1,0.3-0.2,0.4-0.3c0.1-0.1,0.2-0.1,0.2-0.1c0.1,0,0.1,0,0.2,0.1l0.3,0.5c-0.3,0.3-0.7,0.6-1.1,0.8
				C102.8,292,102.3,292.1,101.8,292.1z"/>
			<path fill="#1E2D33" d="M106.4,281.7c0.6-0.6,1.3-1.1,2-1.4c0.7-0.3,1.5-0.5,2.3-0.5c0.6,0,1.2,0.1,1.7,0.3
				c0.5,0.2,0.9,0.5,1.2,0.9s0.5,0.8,0.7,1.4c0.2,0.5,0.2,1.1,0.2,1.8v7.7H114c-0.2,0-0.4-0.1-0.4-0.3l-0.2-1.5
				c-0.3,0.3-0.6,0.6-1,0.9s-0.7,0.5-1,0.6c-0.3,0.2-0.7,0.3-1.1,0.4s-0.8,0.1-1.3,0.1c-0.4,0-0.8-0.1-1.2-0.2
				c-0.4-0.1-0.7-0.3-1-0.5s-0.5-0.6-0.7-0.9s-0.3-0.8-0.3-1.4c0-0.5,0.1-1,0.4-1.4c0.3-0.4,0.7-0.8,1.3-1.1
				c0.6-0.3,1.4-0.6,2.4-0.8s2.1-0.3,3.4-0.3v-1.2c0-1.1-0.2-1.9-0.7-2.5c-0.5-0.6-1.2-0.9-2.1-0.9c-0.6,0-1.1,0.1-1.5,0.2
				c-0.4,0.2-0.7,0.3-1,0.5s-0.5,0.4-0.7,0.5c-0.2,0.2-0.3,0.2-0.4,0.2c-0.1,0-0.2,0-0.2-0.1c-0.1,0-0.1-0.1-0.1-0.2L106.4,281.7z
				 M113.4,286.2c-1.1,0-2.1,0.1-2.9,0.3s-1.5,0.3-2,0.6s-0.9,0.5-1.2,0.9c-0.3,0.3-0.4,0.7-0.4,1.1c0,0.4,0.1,0.7,0.2,1
				c0.1,0.3,0.3,0.5,0.5,0.7c0.2,0.2,0.5,0.3,0.8,0.4c0.3,0.1,0.6,0.1,0.9,0.1c0.5,0,0.9,0,1.3-0.1c0.4-0.1,0.7-0.2,1.1-0.4
				c0.3-0.2,0.6-0.4,0.9-0.6c0.3-0.2,0.6-0.5,0.8-0.8V286.2z"/>
			<path fill="#1E2D33" d="M119.4,282.1c0.5-0.7,1.2-1.2,1.9-1.6c0.7-0.4,1.5-0.6,2.4-0.6c0.7,0,1.2,0.1,1.7,0.3
				c0.5,0.2,0.9,0.5,1.2,0.9s0.6,0.9,0.7,1.4c0.2,0.5,0.2,1.2,0.2,1.9v7.6h-1.1v-7.6c0-1.1-0.3-2-0.8-2.6s-1.3-0.9-2.3-0.9
				c-0.8,0-1.5,0.2-2.2,0.6c-0.7,0.4-1.3,0.9-1.8,1.6v8.9h-1.1v-11.8h0.6c0.2,0,0.3,0.1,0.3,0.3L119.4,282.1z"/>
			<path fill="#1E2D33" d="M140.6,274.6v17.3H140c-0.2,0-0.3-0.1-0.4-0.3l-0.1-1.9c-0.5,0.7-1.1,1.3-1.8,1.7s-1.5,0.6-2.4,0.6
				c-1.5,0-2.6-0.5-3.4-1.5s-1.2-2.5-1.2-4.5c0-0.9,0.1-1.7,0.3-2.4c0.2-0.8,0.6-1.4,1-2c0.4-0.6,1-1,1.6-1.3s1.4-0.5,2.2-0.5
				c0.8,0,1.5,0.1,2.1,0.4c0.6,0.3,1.1,0.7,1.5,1.3v-7H140.6z M139.4,282.6c-0.5-0.7-1-1.2-1.5-1.4c-0.6-0.3-1.2-0.4-1.9-0.4
				c-0.7,0-1.3,0.1-1.8,0.4s-1,0.6-1.3,1.1c-0.4,0.5-0.6,1-0.8,1.7c-0.2,0.6-0.3,1.4-0.3,2.1c0,1.8,0.3,3.1,1,3.9s1.6,1.2,2.8,1.2
				c0.8,0,1.5-0.2,2.1-0.6s1.2-1,1.7-1.7V282.6z"/>
			<path fill="#1E2D33" d="M146.2,276c0,0.1,0,0.3-0.1,0.4s-0.1,0.2-0.2,0.3c-0.1,0.1-0.2,0.2-0.3,0.2s-0.3,0.1-0.4,0.1
				s-0.3,0-0.4-0.1s-0.2-0.1-0.3-0.2c-0.1-0.1-0.2-0.2-0.2-0.3s-0.1-0.3-0.1-0.4c0-0.1,0-0.3,0.1-0.4s0.1-0.2,0.2-0.3
				c0.1-0.1,0.2-0.2,0.3-0.2c0.1-0.1,0.3-0.1,0.4-0.1s0.3,0,0.4,0.1c0.1,0.1,0.2,0.1,0.3,0.2c0.1,0.1,0.2,0.2,0.2,0.3
				S146.2,275.8,146.2,276z M145.7,280.1v11.8h-1.1v-11.8H145.7z"/>
			<path fill="#1E2D33" d="M150.9,282.1c0.5-0.7,1.2-1.2,1.9-1.6c0.7-0.4,1.5-0.6,2.4-0.6c0.7,0,1.2,0.1,1.7,0.3
				c0.5,0.2,0.9,0.5,1.2,0.9s0.6,0.9,0.7,1.4c0.2,0.5,0.2,1.2,0.2,1.9v7.6H158v-7.6c0-1.1-0.3-2-0.8-2.6s-1.3-0.9-2.3-0.9
				c-0.8,0-1.5,0.2-2.2,0.6c-0.7,0.4-1.3,0.9-1.8,1.6v8.9h-1.1v-11.8h0.6c0.2,0,0.3,0.1,0.3,0.3L150.9,282.1z"/>
			<path fill="#1E2D33" d="M172.4,280.6v0.4c0,0.2-0.1,0.3-0.3,0.3l-1.8,0.1c0.2,0.3,0.4,0.6,0.5,1s0.2,0.8,0.2,1.2
				c0,0.6-0.1,1.1-0.3,1.6s-0.5,0.9-0.9,1.2c-0.4,0.3-0.8,0.6-1.3,0.8c-0.5,0.2-1.1,0.3-1.7,0.3c-0.7,0-1.3-0.1-1.8-0.3
				c-0.3,0.2-0.6,0.4-0.8,0.7s-0.3,0.5-0.3,0.8c0,0.3,0.1,0.6,0.4,0.8c0.2,0.2,0.6,0.3,1,0.4c0.4,0.1,0.8,0.1,1.3,0.2
				c0.5,0,1,0,1.5,0.1c0.5,0,1,0.1,1.5,0.1s1,0.2,1.3,0.4c0.4,0.2,0.7,0.4,1,0.7s0.4,0.7,0.4,1.3c0,0.5-0.1,1-0.4,1.4
				c-0.2,0.5-0.6,0.9-1.1,1.2c-0.5,0.3-1,0.6-1.7,0.8c-0.7,0.2-1.4,0.3-2.2,0.3c-0.8,0-1.6-0.1-2.2-0.3s-1.2-0.4-1.6-0.7
				c-0.4-0.3-0.7-0.6-1-1c-0.2-0.4-0.3-0.8-0.3-1.2c0-0.6,0.2-1.2,0.6-1.6c0.4-0.4,1-0.8,1.7-1.1c-0.4-0.1-0.7-0.3-1-0.6
				c-0.2-0.3-0.4-0.6-0.4-1.1c0-0.2,0-0.3,0.1-0.5c0.1-0.2,0.2-0.4,0.3-0.5s0.3-0.3,0.5-0.5c0.2-0.2,0.4-0.3,0.6-0.4
				c-0.6-0.3-1-0.8-1.3-1.3c-0.3-0.5-0.5-1.2-0.5-1.9c0-0.6,0.1-1.1,0.3-1.6c0.2-0.5,0.5-0.9,0.9-1.2c0.4-0.3,0.8-0.6,1.3-0.8
				s1.1-0.3,1.7-0.3c0.5,0,1,0.1,1.4,0.2s0.8,0.3,1.2,0.5H172.4z M171.2,292.7c0-0.4-0.1-0.7-0.3-0.9c-0.2-0.2-0.5-0.4-0.8-0.5
				c-0.3-0.1-0.7-0.2-1.1-0.3c-0.4-0.1-0.9-0.1-1.3-0.1c-0.5,0-0.9,0-1.4-0.1c-0.5,0-0.9-0.1-1.3-0.1c-0.3,0.1-0.6,0.3-0.8,0.4
				c-0.3,0.2-0.5,0.3-0.7,0.5s-0.3,0.4-0.4,0.6c-0.1,0.2-0.2,0.5-0.2,0.8c0,0.3,0.1,0.7,0.3,1c0.2,0.3,0.4,0.6,0.8,0.8
				c0.3,0.2,0.8,0.4,1.3,0.5c0.5,0.1,1.1,0.2,1.7,0.2c0.6,0,1.2-0.1,1.7-0.2s1-0.3,1.4-0.6s0.7-0.5,0.9-0.9S171.2,293.1,171.2,292.7
				z M166.7,286.7c0.5,0,1-0.1,1.4-0.2s0.7-0.4,1-0.6c0.3-0.3,0.5-0.6,0.6-0.9c0.1-0.4,0.2-0.8,0.2-1.2s-0.1-0.9-0.2-1.2
				c-0.1-0.4-0.4-0.7-0.6-0.9c-0.3-0.3-0.6-0.5-1-0.6c-0.4-0.1-0.8-0.2-1.3-0.2s-0.9,0.1-1.3,0.2c-0.4,0.1-0.7,0.3-1,0.6
				c-0.3,0.3-0.5,0.6-0.6,0.9s-0.2,0.8-0.2,1.2s0.1,0.8,0.2,1.2s0.4,0.7,0.6,0.9c0.3,0.3,0.6,0.5,1,0.6S166.2,286.7,166.7,286.7z"/>
			<path fill="#1E2D33" d="M12,309.5c-0.1,0.1-0.2,0.2-0.3,0.2c-0.1,0-0.2,0-0.3-0.1c-0.1-0.1-0.3-0.2-0.5-0.3s-0.5-0.2-0.8-0.3
				c-0.3-0.1-0.7-0.1-1.2-0.1c-0.4,0-0.8,0.1-1.2,0.2c-0.4,0.1-0.7,0.3-0.9,0.5c-0.2,0.2-0.4,0.4-0.6,0.7c-0.1,0.3-0.2,0.6-0.2,0.9
				c0,0.4,0.1,0.7,0.3,0.9s0.4,0.5,0.7,0.6c0.3,0.2,0.7,0.3,1.1,0.5c0.4,0.1,0.8,0.3,1.2,0.4c0.4,0.1,0.8,0.3,1.2,0.4
				c0.4,0.2,0.7,0.3,1.1,0.6c0.3,0.2,0.6,0.5,0.7,0.8s0.3,0.7,0.3,1.2c0,0.5-0.1,1-0.3,1.4s-0.5,0.8-0.8,1.2s-0.8,0.6-1.3,0.8
				s-1.1,0.3-1.8,0.3c-0.8,0-1.6-0.1-2.2-0.4c-0.6-0.3-1.1-0.6-1.6-1l0.3-0.4c0-0.1,0.1-0.1,0.1-0.1c0.1,0,0.1,0,0.2,0
				c0.1,0,0.2,0.1,0.4,0.2c0.1,0.1,0.3,0.3,0.6,0.4s0.5,0.3,0.9,0.4c0.4,0.1,0.8,0.2,1.3,0.2c0.5,0,0.9-0.1,1.3-0.2
				c0.4-0.1,0.7-0.3,1-0.6s0.4-0.5,0.6-0.8s0.2-0.7,0.2-1c0-0.4-0.1-0.7-0.3-1c-0.2-0.3-0.4-0.5-0.8-0.7c-0.3-0.2-0.7-0.3-1.1-0.5
				s-0.8-0.3-1.2-0.4c-0.4-0.1-0.8-0.3-1.2-0.4c-0.4-0.2-0.7-0.3-1.1-0.6c-0.3-0.2-0.6-0.5-0.7-0.8c-0.2-0.3-0.3-0.7-0.3-1.2
				c0-0.4,0.1-0.8,0.3-1.2c0.2-0.4,0.4-0.7,0.8-1c0.3-0.3,0.7-0.5,1.2-0.7c0.5-0.2,1-0.3,1.6-0.3c0.7,0,1.4,0.1,1.9,0.3
				c0.6,0.2,1.1,0.5,1.5,1L12,309.5z"/>
			<path fill="#1E2D33" d="M18.8,320.1c-0.8,0-1.4-0.2-1.9-0.7s-0.7-1.1-0.7-2.1v-8.1h-1.7c-0.1,0-0.2,0-0.2-0.1
				c-0.1,0-0.1-0.1-0.1-0.2v-0.4l2-0.1l0.3-4.2c0-0.1,0-0.1,0.1-0.2c0-0.1,0.1-0.1,0.2-0.1h0.5v4.5h3.7v0.8h-3.7v8
				c0,0.3,0,0.6,0.1,0.8s0.2,0.4,0.3,0.6c0.1,0.2,0.3,0.3,0.5,0.3s0.4,0.1,0.6,0.1c0.3,0,0.5,0,0.7-0.1c0.2-0.1,0.4-0.2,0.5-0.3
				c0.2-0.1,0.3-0.2,0.4-0.3c0.1-0.1,0.2-0.1,0.2-0.1c0.1,0,0.1,0,0.2,0.1l0.3,0.5c-0.3,0.3-0.7,0.6-1.1,0.8
				C19.8,320,19.3,320.1,18.8,320.1z"/>
			<path fill="#1E2D33" d="M24.8,310.9c0.2-0.5,0.4-0.9,0.6-1.3s0.5-0.7,0.8-1c0.3-0.3,0.6-0.5,1-0.6c0.4-0.1,0.8-0.2,1.3-0.2
				c0.2,0,0.5,0,0.7,0.1c0.2,0,0.4,0.1,0.6,0.2l-0.1,0.8c0,0.1-0.1,0.2-0.2,0.2c-0.1,0-0.2,0-0.4-0.1s-0.5-0.1-0.8-0.1
				c-0.5,0-0.9,0.1-1.2,0.2s-0.7,0.3-1,0.6c-0.3,0.3-0.5,0.6-0.7,1c-0.2,0.4-0.4,0.9-0.6,1.4v7.7h-1.1v-11.8h0.6
				c0.1,0,0.2,0,0.3,0.1c0.1,0.1,0.1,0.2,0.1,0.3L24.8,310.9z"/>
			<path fill="#1E2D33" d="M31.6,309.7c0.6-0.6,1.3-1.1,2-1.4c0.7-0.3,1.5-0.5,2.3-0.5c0.6,0,1.2,0.1,1.7,0.3s0.9,0.5,1.2,0.9
				s0.5,0.8,0.7,1.4s0.2,1.1,0.2,1.8v7.7h-0.5c-0.2,0-0.4-0.1-0.4-0.3l-0.2-1.5c-0.3,0.3-0.6,0.6-1,0.9s-0.7,0.5-1,0.6
				c-0.3,0.2-0.7,0.3-1.1,0.4c-0.4,0.1-0.8,0.1-1.3,0.1c-0.4,0-0.8-0.1-1.2-0.2c-0.4-0.1-0.7-0.3-1-0.5c-0.3-0.2-0.5-0.6-0.7-0.9
				S31,317.6,31,317c0-0.5,0.1-1,0.4-1.4c0.3-0.4,0.7-0.8,1.3-1.1s1.4-0.6,2.4-0.8s2.1-0.3,3.4-0.3v-1.2c0-1.1-0.2-1.9-0.7-2.5
				c-0.5-0.6-1.2-0.9-2.1-0.9c-0.6,0-1.1,0.1-1.5,0.2c-0.4,0.2-0.7,0.3-1,0.5c-0.3,0.2-0.5,0.4-0.7,0.5c-0.2,0.2-0.3,0.2-0.4,0.2
				c-0.1,0-0.2,0-0.2-0.1c-0.1,0-0.1-0.1-0.1-0.2L31.6,309.7z M38.5,314.2c-1.1,0-2.1,0.1-2.9,0.3c-0.8,0.1-1.5,0.3-2,0.6
				c-0.5,0.2-0.9,0.5-1.2,0.9c-0.3,0.3-0.4,0.7-0.4,1.1c0,0.4,0.1,0.7,0.2,1c0.1,0.3,0.3,0.5,0.5,0.7s0.5,0.3,0.8,0.4
				c0.3,0.1,0.6,0.1,0.9,0.1c0.5,0,0.9,0,1.3-0.1c0.4-0.1,0.7-0.2,1.1-0.4c0.3-0.2,0.6-0.4,0.9-0.6c0.3-0.2,0.6-0.5,0.8-0.8V314.2z"
				/>
			<path fill="#1E2D33" d="M46.5,320.1c-0.8,0-1.4-0.2-1.9-0.7s-0.7-1.1-0.7-2.1v-8.1h-1.7c-0.1,0-0.2,0-0.2-0.1
				c-0.1,0-0.1-0.1-0.1-0.2v-0.4l2-0.1l0.3-4.2c0-0.1,0-0.1,0.1-0.2c0-0.1,0.1-0.1,0.2-0.1h0.5v4.5h3.7v0.8h-3.7v8
				c0,0.3,0,0.6,0.1,0.8s0.2,0.4,0.3,0.6c0.1,0.2,0.3,0.3,0.5,0.3s0.4,0.1,0.6,0.1c0.3,0,0.5,0,0.7-0.1c0.2-0.1,0.4-0.2,0.5-0.3
				c0.2-0.1,0.3-0.2,0.4-0.3c0.1-0.1,0.2-0.1,0.2-0.1c0.1,0,0.1,0,0.2,0.1l0.3,0.5c-0.3,0.3-0.7,0.6-1.1,0.8
				C47.5,320,47,320.1,46.5,320.1z"/>
			<path fill="#1E2D33" d="M51.8,313.5v0.2c0,0.9,0.1,1.7,0.3,2.3c0.2,0.7,0.5,1.2,0.9,1.7s0.8,0.8,1.4,1c0.5,0.2,1.1,0.3,1.8,0.3
				c0.6,0,1.1-0.1,1.5-0.2c0.4-0.1,0.8-0.3,1.1-0.4c0.3-0.2,0.5-0.3,0.7-0.4c0.2-0.1,0.3-0.2,0.4-0.2c0.1,0,0.2,0,0.2,0.1l0.3,0.4
				c-0.2,0.2-0.4,0.5-0.8,0.7s-0.7,0.4-1,0.5c-0.4,0.1-0.8,0.3-1.2,0.4c-0.4,0.1-0.9,0.1-1.3,0.1c-0.8,0-1.5-0.1-2.2-0.4
				c-0.7-0.3-1.2-0.7-1.7-1.2c-0.5-0.5-0.8-1.2-1.1-2s-0.4-1.7-0.4-2.7c0-0.8,0.1-1.6,0.4-2.4c0.2-0.7,0.6-1.3,1-1.9
				c0.5-0.5,1-0.9,1.7-1.2c0.7-0.3,1.4-0.4,2.3-0.4c0.7,0,1.3,0.1,1.9,0.3c0.6,0.2,1.1,0.6,1.5,1c0.4,0.4,0.8,1,1,1.6
				c0.2,0.6,0.4,1.4,0.4,2.2c0,0.2,0,0.3-0.1,0.4c0,0.1-0.1,0.1-0.2,0.1H51.8z M59.7,312.8c0-0.6-0.1-1.2-0.3-1.7
				c-0.2-0.5-0.4-0.9-0.8-1.3c-0.3-0.3-0.7-0.6-1.2-0.8s-0.9-0.3-1.5-0.3c-0.6,0-1.2,0.1-1.6,0.3c-0.5,0.2-0.9,0.5-1.3,0.8
				c-0.4,0.4-0.6,0.8-0.9,1.3c-0.2,0.5-0.4,1.1-0.4,1.7H59.7z"/>
			<path fill="#1E2D33" d="M73.3,308.6v0.4c0,0.2-0.1,0.3-0.3,0.3l-1.8,0.1c0.2,0.3,0.4,0.6,0.5,1c0.1,0.4,0.2,0.8,0.2,1.2
				c0,0.6-0.1,1.1-0.3,1.6c-0.2,0.5-0.5,0.9-0.9,1.2c-0.4,0.3-0.8,0.6-1.3,0.8c-0.5,0.2-1.1,0.3-1.7,0.3c-0.7,0-1.3-0.1-1.8-0.3
				c-0.3,0.2-0.6,0.4-0.8,0.7s-0.3,0.5-0.3,0.8c0,0.3,0.1,0.6,0.4,0.8c0.2,0.2,0.6,0.3,1,0.4c0.4,0.1,0.8,0.1,1.3,0.2
				c0.5,0,1,0,1.5,0.1c0.5,0,1,0.1,1.5,0.1c0.5,0.1,1,0.2,1.3,0.4c0.4,0.2,0.7,0.4,1,0.7s0.4,0.7,0.4,1.3c0,0.5-0.1,1-0.4,1.4
				c-0.2,0.5-0.6,0.9-1.1,1.2c-0.5,0.3-1,0.6-1.7,0.8s-1.4,0.3-2.2,0.3c-0.8,0-1.6-0.1-2.2-0.3c-0.6-0.2-1.2-0.4-1.6-0.7
				c-0.4-0.3-0.7-0.6-1-1c-0.2-0.4-0.3-0.8-0.3-1.2c0-0.6,0.2-1.2,0.6-1.6c0.4-0.4,1-0.8,1.7-1.1c-0.4-0.1-0.7-0.3-1-0.6
				c-0.2-0.3-0.4-0.6-0.4-1.1c0-0.2,0-0.3,0.1-0.5c0.1-0.2,0.2-0.4,0.3-0.5s0.3-0.3,0.5-0.5c0.2-0.2,0.4-0.3,0.6-0.4
				c-0.6-0.3-1-0.8-1.3-1.3c-0.3-0.5-0.5-1.2-0.5-1.9c0-0.6,0.1-1.1,0.3-1.6c0.2-0.5,0.5-0.9,0.9-1.2c0.4-0.3,0.8-0.6,1.3-0.8
				c0.5-0.2,1.1-0.3,1.7-0.3c0.5,0,1,0.1,1.4,0.2s0.8,0.3,1.2,0.5H73.3z M72.1,320.7c0-0.4-0.1-0.7-0.3-0.9
				c-0.2-0.2-0.5-0.4-0.8-0.5c-0.3-0.1-0.7-0.2-1.1-0.3s-0.9-0.1-1.3-0.1c-0.5,0-0.9,0-1.4-0.1c-0.5,0-0.9-0.1-1.3-0.1
				c-0.3,0.1-0.6,0.3-0.8,0.4c-0.3,0.2-0.5,0.3-0.7,0.5s-0.3,0.4-0.4,0.6c-0.1,0.2-0.2,0.5-0.2,0.8c0,0.3,0.1,0.7,0.3,1
				c0.2,0.3,0.4,0.6,0.8,0.8c0.3,0.2,0.8,0.4,1.3,0.5c0.5,0.1,1.1,0.2,1.7,0.2c0.6,0,1.2-0.1,1.7-0.2s1-0.3,1.4-0.6s0.7-0.5,0.9-0.9
				C72,321.5,72.1,321.1,72.1,320.7z M67.7,314.7c0.5,0,1-0.1,1.4-0.2c0.4-0.1,0.7-0.4,1-0.6c0.3-0.3,0.5-0.6,0.6-0.9
				c0.1-0.4,0.2-0.8,0.2-1.2s-0.1-0.9-0.2-1.2c-0.1-0.4-0.4-0.7-0.6-0.9c-0.3-0.3-0.6-0.5-1-0.6c-0.4-0.1-0.8-0.2-1.3-0.2
				c-0.5,0-0.9,0.1-1.3,0.2c-0.4,0.1-0.7,0.3-1,0.6c-0.3,0.3-0.5,0.6-0.6,0.9c-0.1,0.4-0.2,0.8-0.2,1.2s0.1,0.8,0.2,1.2
				c0.1,0.4,0.4,0.7,0.6,0.9c0.3,0.3,0.6,0.5,1,0.6S67.2,314.7,67.7,314.7z"/>
			<path fill="#1E2D33" d="M85.5,308.1l-6.8,15.6c0,0.1-0.1,0.2-0.2,0.3c-0.1,0.1-0.2,0.1-0.3,0.1h-0.8l2.1-4.6l-5-11.4h0.9
				c0.1,0,0.2,0,0.3,0.1s0.1,0.1,0.1,0.2l4,9.2c0,0.1,0.1,0.2,0.1,0.4c0,0.1,0.1,0.2,0.1,0.4c0-0.1,0.1-0.3,0.1-0.4
				c0-0.1,0.1-0.2,0.1-0.4l3.9-9.2c0-0.1,0.1-0.2,0.2-0.2s0.2-0.1,0.2-0.1H85.5z"/>
			<path fill="#1E2D33" d="M86.8,322.7C86.7,322.7,86.7,322.7,86.8,322.7c-0.1-0.1-0.1-0.2-0.1-0.2c0,0,0-0.1,0.1-0.2
				c0.1-0.1,0.2-0.2,0.3-0.4c0.1-0.2,0.2-0.3,0.4-0.5c0.1-0.2,0.2-0.4,0.4-0.7c0.1-0.3,0.2-0.5,0.2-0.8c-0.1,0-0.2,0.1-0.4,0.1
				c-0.3,0-0.5-0.1-0.7-0.3c-0.2-0.2-0.3-0.5-0.3-0.8c0-0.3,0.1-0.5,0.3-0.7s0.4-0.3,0.8-0.3c0.3,0,0.6,0.1,0.8,0.4
				c0.2,0.2,0.3,0.5,0.3,0.9c0,0.3,0,0.7-0.1,1c-0.1,0.3-0.2,0.7-0.4,1c-0.2,0.3-0.3,0.6-0.6,0.9s-0.5,0.6-0.7,0.8L86.8,322.7z"/>
			<path fill="#1E2D33" d="M99.1,313.5v0.2c0,0.9,0.1,1.7,0.3,2.3c0.2,0.7,0.5,1.2,0.9,1.7s0.8,0.8,1.4,1c0.5,0.2,1.1,0.3,1.8,0.3
				c0.6,0,1.1-0.1,1.5-0.2c0.4-0.1,0.8-0.3,1.1-0.4c0.3-0.2,0.5-0.3,0.7-0.4s0.3-0.2,0.4-0.2c0.1,0,0.2,0,0.2,0.1l0.3,0.4
				c-0.2,0.2-0.4,0.5-0.8,0.7s-0.7,0.4-1,0.5c-0.4,0.1-0.8,0.3-1.2,0.4c-0.4,0.1-0.9,0.1-1.3,0.1c-0.8,0-1.5-0.1-2.2-0.4
				s-1.2-0.7-1.7-1.2c-0.5-0.5-0.8-1.2-1.1-2s-0.4-1.7-0.4-2.7c0-0.8,0.1-1.6,0.4-2.4c0.2-0.7,0.6-1.3,1-1.9c0.5-0.5,1-0.9,1.7-1.2
				c0.7-0.3,1.4-0.4,2.3-0.4c0.7,0,1.3,0.1,1.9,0.3c0.6,0.2,1.1,0.6,1.5,1c0.4,0.4,0.8,1,1,1.6s0.4,1.4,0.4,2.2c0,0.2,0,0.3-0.1,0.4
				c0,0.1-0.1,0.1-0.2,0.1H99.1z M107,312.8c0-0.6-0.1-1.2-0.3-1.7c-0.2-0.5-0.4-0.9-0.8-1.3c-0.3-0.3-0.7-0.6-1.2-0.8
				s-0.9-0.3-1.5-0.3c-0.6,0-1.2,0.1-1.6,0.3c-0.5,0.2-0.9,0.5-1.3,0.8c-0.4,0.4-0.6,0.8-0.9,1.3c-0.2,0.5-0.4,1.1-0.4,1.7H107z"/>
			<path fill="#1E2D33" d="M111.1,319.9v-11.8h0.6c0.2,0,0.3,0.1,0.3,0.3l0.1,1.7c0.5-0.7,1-1.2,1.6-1.6c0.6-0.4,1.3-0.6,2-0.6
				c0.9,0,1.6,0.2,2.1,0.8s0.9,1.2,1.1,2.1c0.1-0.5,0.3-0.9,0.6-1.3s0.6-0.7,0.9-0.9c0.3-0.2,0.7-0.4,1.1-0.5s0.8-0.2,1.2-0.2
				c0.6,0,1.1,0.1,1.6,0.3c0.5,0.2,0.9,0.5,1.2,0.9c0.3,0.4,0.6,0.8,0.8,1.4c0.2,0.6,0.3,1.2,0.3,1.9v7.6h-1.1v-7.6
				c0-1.2-0.2-2-0.8-2.6c-0.5-0.6-1.2-0.9-2.1-0.9c-0.4,0-0.8,0.1-1.2,0.2c-0.4,0.2-0.7,0.4-1,0.7c-0.3,0.3-0.5,0.7-0.7,1.1
				s-0.3,1-0.3,1.5v7.6h-1.1v-7.6c0-1.2-0.2-2-0.7-2.6c-0.5-0.6-1.1-0.9-2-0.9c-0.6,0-1.2,0.2-1.8,0.6c-0.5,0.4-1,0.9-1.5,1.6v9
				H111.1z"/>
			<path fill="#1E2D33" d="M131.3,310.2c0.5-0.7,1.1-1.3,1.8-1.7c0.7-0.4,1.5-0.6,2.4-0.6c1.5,0,2.6,0.5,3.4,1.5
				c0.8,1,1.2,2.5,1.2,4.5c0,0.9-0.1,1.7-0.3,2.4c-0.2,0.8-0.6,1.4-1,2c-0.4,0.6-1,1-1.6,1.3s-1.4,0.5-2.2,0.5
				c-0.8,0-1.5-0.1-2.1-0.4c-0.6-0.3-1.1-0.7-1.5-1.3v5.8h-1.1v-16h0.6c0.2,0,0.3,0.1,0.3,0.3L131.3,310.2z M131.4,317.3
				c0.2,0.3,0.5,0.6,0.7,0.9c0.2,0.2,0.5,0.4,0.8,0.6c0.3,0.1,0.6,0.3,0.9,0.3s0.6,0.1,1,0.1c0.7,0,1.3-0.1,1.8-0.4s1-0.6,1.3-1.1
				c0.4-0.5,0.6-1,0.8-1.7s0.3-1.4,0.3-2.1c0-1.8-0.3-3.1-1-3.9s-1.6-1.2-2.8-1.2c-0.8,0-1.5,0.2-2.1,0.6s-1.2,1-1.7,1.7V317.3z"/>
			<path fill="#1E2D33" d="M144.6,302.6v17.3h-1.1v-17.3H144.6z"/>
			<path fill="#1E2D33" d="M153.3,307.9c0.8,0,1.6,0.1,2.3,0.4c0.7,0.3,1.2,0.7,1.7,1.2c0.5,0.5,0.8,1.2,1.1,1.9
				c0.2,0.8,0.4,1.6,0.4,2.5c0,0.9-0.1,1.8-0.4,2.5s-0.6,1.4-1.1,1.9s-1,0.9-1.7,1.2c-0.7,0.3-1.4,0.4-2.3,0.4s-1.6-0.1-2.3-0.4
				c-0.7-0.3-1.2-0.7-1.7-1.2s-0.8-1.2-1.1-1.9s-0.4-1.6-0.4-2.5c0-0.9,0.1-1.8,0.4-2.5c0.2-0.7,0.6-1.4,1.1-1.9
				c0.5-0.5,1-0.9,1.7-1.2C151.7,308,152.5,307.9,153.3,307.9z M153.3,319.2c0.7,0,1.3-0.1,1.9-0.4c0.5-0.2,1-0.6,1.3-1
				c0.4-0.5,0.6-1,0.8-1.6c0.2-0.6,0.3-1.4,0.3-2.1c0-0.8-0.1-1.5-0.3-2.1c-0.2-0.6-0.4-1.2-0.8-1.6c-0.4-0.5-0.8-0.8-1.3-1.1
				c-0.5-0.2-1.1-0.4-1.9-0.4s-1.3,0.1-1.9,0.4s-1,0.6-1.3,1.1c-0.4,0.5-0.6,1-0.8,1.6s-0.3,1.4-0.3,2.1c0,0.8,0.1,1.5,0.3,2.1
				s0.4,1.2,0.8,1.6c0.4,0.5,0.8,0.8,1.3,1S152.6,319.2,153.3,319.2z"/>
			<path fill="#1E2D33" d="M171.2,308.1l-6.8,15.6c0,0.1-0.1,0.2-0.2,0.3c-0.1,0.1-0.2,0.1-0.3,0.1H163l2.1-4.6l-5-11.4h0.9
				c0.1,0,0.2,0,0.3,0.1s0.1,0.1,0.1,0.2l4,9.2c0,0.1,0.1,0.2,0.1,0.4c0,0.1,0.1,0.2,0.1,0.4c0-0.1,0.1-0.3,0.1-0.4s0.1-0.2,0.1-0.4
				l3.9-9.2c0-0.1,0.1-0.2,0.2-0.2s0.2-0.1,0.2-0.1H171.2z"/>
			<path fill="#1E2D33" d="M173.6,313.5v0.2c0,0.9,0.1,1.7,0.3,2.3c0.2,0.7,0.5,1.2,0.9,1.7s0.8,0.8,1.4,1c0.5,0.2,1.1,0.3,1.8,0.3
				c0.6,0,1.1-0.1,1.5-0.2c0.4-0.1,0.8-0.3,1.1-0.4c0.3-0.2,0.5-0.3,0.7-0.4s0.3-0.2,0.4-0.2c0.1,0,0.2,0,0.2,0.1l0.3,0.4
				c-0.2,0.2-0.4,0.5-0.8,0.7s-0.7,0.4-1,0.5c-0.4,0.1-0.8,0.3-1.2,0.4c-0.4,0.1-0.9,0.1-1.3,0.1c-0.8,0-1.5-0.1-2.2-0.4
				s-1.2-0.7-1.7-1.2c-0.5-0.5-0.8-1.2-1.1-2s-0.4-1.7-0.4-2.7c0-0.8,0.1-1.6,0.4-2.4c0.2-0.7,0.6-1.3,1-1.9c0.5-0.5,1-0.9,1.7-1.2
				c0.7-0.3,1.4-0.4,2.3-0.4c0.7,0,1.3,0.1,1.9,0.3c0.6,0.2,1.1,0.6,1.5,1c0.4,0.4,0.8,1,1,1.6s0.4,1.4,0.4,2.2c0,0.2,0,0.3-0.1,0.4
				c0,0.1-0.1,0.1-0.2,0.1H173.6z M181.6,312.8c0-0.6-0.1-1.2-0.3-1.7c-0.2-0.5-0.4-0.9-0.8-1.3c-0.3-0.3-0.7-0.6-1.2-0.8
				s-0.9-0.3-1.5-0.3c-0.6,0-1.2,0.1-1.6,0.3c-0.5,0.2-0.9,0.5-1.3,0.8c-0.4,0.4-0.6,0.8-0.9,1.3s-0.4,1.1-0.4,1.7H181.6z"/>
			<path fill="#1E2D33" d="M186.1,313.5v0.2c0,0.9,0.1,1.7,0.3,2.3c0.2,0.7,0.5,1.2,0.9,1.7s0.8,0.8,1.4,1c0.5,0.2,1.1,0.3,1.8,0.3
				c0.6,0,1.1-0.1,1.5-0.2c0.4-0.1,0.8-0.3,1.1-0.4c0.3-0.2,0.5-0.3,0.7-0.4c0.2-0.1,0.3-0.2,0.4-0.2c0.1,0,0.2,0,0.2,0.1l0.3,0.4
				c-0.2,0.2-0.4,0.5-0.8,0.7s-0.7,0.4-1,0.5c-0.4,0.1-0.8,0.3-1.2,0.4c-0.4,0.1-0.9,0.1-1.3,0.1c-0.8,0-1.5-0.1-2.2-0.4
				c-0.7-0.3-1.2-0.7-1.7-1.2c-0.5-0.5-0.8-1.2-1.1-2s-0.4-1.7-0.4-2.7c0-0.8,0.1-1.6,0.4-2.4c0.2-0.7,0.6-1.3,1-1.9
				c0.5-0.5,1-0.9,1.7-1.2c0.7-0.3,1.4-0.4,2.3-0.4c0.7,0,1.3,0.1,1.9,0.3s1.1,0.6,1.5,1c0.4,0.4,0.8,1,1,1.6
				c0.2,0.6,0.4,1.4,0.4,2.2c0,0.2,0,0.3-0.1,0.4s-0.1,0.1-0.2,0.1H186.1z M194,312.8c0-0.6-0.1-1.2-0.3-1.7s-0.4-0.9-0.8-1.3
				c-0.3-0.3-0.7-0.6-1.2-0.8s-0.9-0.3-1.5-0.3c-0.6,0-1.2,0.1-1.6,0.3c-0.5,0.2-0.9,0.5-1.3,0.8c-0.4,0.4-0.6,0.8-0.9,1.3
				c-0.2,0.5-0.4,1.1-0.4,1.7H194z"/>
			<path fill="#1E2D33" d="M17,341.5v0.2c0,0.9,0.1,1.7,0.3,2.3c0.2,0.7,0.5,1.2,0.9,1.7s0.8,0.8,1.4,1c0.5,0.2,1.1,0.3,1.8,0.3
				c0.6,0,1.1-0.1,1.5-0.2c0.4-0.1,0.8-0.3,1.1-0.4c0.3-0.2,0.5-0.3,0.7-0.4c0.2-0.1,0.3-0.2,0.4-0.2c0.1,0,0.2,0,0.2,0.1l0.3,0.4
				c-0.2,0.2-0.4,0.5-0.8,0.7s-0.7,0.4-1,0.5c-0.4,0.1-0.8,0.3-1.2,0.4c-0.4,0.1-0.9,0.1-1.3,0.1c-0.8,0-1.5-0.1-2.2-0.4
				c-0.7-0.3-1.2-0.7-1.7-1.2c-0.5-0.5-0.8-1.2-1.1-2s-0.4-1.7-0.4-2.7c0-0.8,0.1-1.6,0.4-2.4c0.2-0.7,0.6-1.3,1-1.9
				c0.5-0.5,1-0.9,1.7-1.2c0.7-0.3,1.4-0.4,2.3-0.4c0.7,0,1.3,0.1,1.9,0.3c0.6,0.2,1.1,0.6,1.5,1c0.4,0.4,0.8,1,1,1.6
				c0.2,0.6,0.4,1.4,0.4,2.2c0,0.2,0,0.3-0.1,0.4c0,0.1-0.1,0.1-0.2,0.1H17z M24.9,340.8c0-0.6-0.1-1.2-0.3-1.7
				c-0.2-0.5-0.4-0.9-0.8-1.3c-0.3-0.3-0.7-0.6-1.2-0.8s-0.9-0.3-1.5-0.3c-0.6,0-1.2,0.1-1.6,0.3c-0.5,0.2-0.9,0.5-1.3,0.8
				c-0.4,0.4-0.6,0.8-0.9,1.3c-0.2,0.5-0.4,1.1-0.4,1.7H24.9z"/>
			<path fill="#1E2D33" d="M30.1,338.1c0.5-0.7,1.2-1.2,1.9-1.6c0.7-0.4,1.5-0.6,2.4-0.6c0.7,0,1.2,0.1,1.7,0.3
				c0.5,0.2,0.9,0.5,1.2,0.9s0.6,0.9,0.7,1.4c0.2,0.5,0.2,1.2,0.2,1.9v7.6h-1.1v-7.6c0-1.1-0.3-2-0.8-2.6s-1.3-0.9-2.3-0.9
				c-0.8,0-1.5,0.2-2.2,0.6c-0.7,0.4-1.3,0.9-1.8,1.6v8.9H29v-11.8h0.6c0.2,0,0.3,0.1,0.3,0.3L30.1,338.1z"/>
			<path fill="#1E2D33" d="M51.6,336.6v0.4c0,0.2-0.1,0.3-0.3,0.3l-1.8,0.1c0.2,0.3,0.4,0.6,0.5,1c0.1,0.4,0.2,0.8,0.2,1.2
				c0,0.6-0.1,1.1-0.3,1.6c-0.2,0.5-0.5,0.9-0.9,1.2c-0.4,0.3-0.8,0.6-1.3,0.8c-0.5,0.2-1.1,0.3-1.7,0.3c-0.7,0-1.3-0.1-1.8-0.3
				c-0.3,0.2-0.6,0.4-0.8,0.7s-0.3,0.5-0.3,0.8c0,0.3,0.1,0.6,0.4,0.8c0.2,0.2,0.6,0.3,1,0.4c0.4,0.1,0.8,0.1,1.3,0.2
				c0.5,0,1,0,1.5,0.1c0.5,0,1,0.1,1.5,0.1c0.5,0.1,1,0.2,1.3,0.4c0.4,0.2,0.7,0.4,1,0.7s0.4,0.7,0.4,1.3c0,0.5-0.1,1-0.4,1.4
				c-0.2,0.5-0.6,0.9-1.1,1.2c-0.5,0.3-1,0.6-1.7,0.8s-1.4,0.3-2.2,0.3c-0.8,0-1.6-0.1-2.2-0.3c-0.6-0.2-1.2-0.4-1.6-0.7
				c-0.4-0.3-0.7-0.6-1-1c-0.2-0.4-0.3-0.8-0.3-1.2c0-0.6,0.2-1.2,0.6-1.6c0.4-0.4,1-0.8,1.7-1.1c-0.4-0.1-0.7-0.3-1-0.6
				c-0.2-0.3-0.4-0.6-0.4-1.1c0-0.2,0-0.3,0.1-0.5c0.1-0.2,0.2-0.4,0.3-0.5s0.3-0.3,0.5-0.5c0.2-0.2,0.4-0.3,0.6-0.4
				c-0.6-0.3-1-0.8-1.3-1.3c-0.3-0.5-0.5-1.2-0.5-1.9c0-0.6,0.1-1.1,0.3-1.6c0.2-0.5,0.5-0.9,0.9-1.2c0.4-0.3,0.8-0.6,1.3-0.8
				c0.5-0.2,1.1-0.3,1.7-0.3c0.5,0,1,0.1,1.4,0.2s0.8,0.3,1.2,0.5H51.6z M50.4,348.7c0-0.4-0.1-0.7-0.3-0.9
				c-0.2-0.2-0.5-0.4-0.8-0.5c-0.3-0.1-0.7-0.2-1.1-0.3s-0.9-0.1-1.3-0.1c-0.5,0-0.9,0-1.4-0.1c-0.5,0-0.9-0.1-1.3-0.1
				c-0.3,0.1-0.6,0.3-0.8,0.4c-0.3,0.2-0.5,0.3-0.7,0.5s-0.3,0.4-0.4,0.6c-0.1,0.2-0.2,0.5-0.2,0.8c0,0.3,0.1,0.7,0.3,1
				c0.2,0.3,0.4,0.6,0.8,0.8c0.3,0.2,0.8,0.4,1.3,0.5c0.5,0.1,1.1,0.2,1.7,0.2c0.6,0,1.2-0.1,1.7-0.2s1-0.3,1.4-0.6s0.7-0.5,0.9-0.9
				C50.2,349.5,50.4,349.1,50.4,348.7z M45.9,342.7c0.5,0,1-0.1,1.4-0.2c0.4-0.1,0.7-0.4,1-0.6c0.3-0.3,0.5-0.6,0.6-0.9
				c0.1-0.4,0.2-0.8,0.2-1.2s-0.1-0.9-0.2-1.2c-0.1-0.4-0.4-0.7-0.6-0.9c-0.3-0.3-0.6-0.5-1-0.6c-0.4-0.1-0.8-0.2-1.3-0.2
				c-0.5,0-0.9,0.1-1.3,0.2c-0.4,0.1-0.7,0.3-1,0.6c-0.3,0.3-0.5,0.6-0.6,0.9c-0.1,0.4-0.2,0.8-0.2,1.2s0.1,0.8,0.2,1.2
				c0.1,0.4,0.4,0.7,0.6,0.9c0.3,0.3,0.6,0.5,1,0.6S45.4,342.7,45.9,342.7z"/>
			<path fill="#1E2D33" d="M53.9,337.7c0.6-0.6,1.3-1.1,2-1.4c0.7-0.3,1.5-0.5,2.3-0.5c0.6,0,1.2,0.1,1.7,0.3s0.9,0.5,1.2,0.9
				s0.5,0.8,0.7,1.4s0.2,1.1,0.2,1.8v7.7h-0.5c-0.2,0-0.4-0.1-0.4-0.3l-0.2-1.5c-0.3,0.3-0.6,0.6-1,0.9s-0.7,0.5-1,0.6
				c-0.3,0.2-0.7,0.3-1.1,0.4c-0.4,0.1-0.8,0.1-1.3,0.1c-0.4,0-0.8-0.1-1.2-0.2c-0.4-0.1-0.7-0.3-1-0.5c-0.3-0.2-0.5-0.6-0.7-0.9
				s-0.3-0.8-0.3-1.4c0-0.5,0.1-1,0.4-1.4c0.3-0.4,0.7-0.8,1.3-1.1s1.4-0.6,2.4-0.8s2.1-0.3,3.4-0.3v-1.2c0-1.1-0.2-1.9-0.7-2.5
				c-0.5-0.6-1.2-0.9-2.1-0.9c-0.6,0-1.1,0.1-1.5,0.2c-0.4,0.2-0.7,0.3-1,0.5c-0.3,0.2-0.5,0.4-0.7,0.5c-0.2,0.2-0.3,0.2-0.4,0.2
				c-0.1,0-0.2,0-0.2-0.1c-0.1,0-0.1-0.1-0.1-0.2L53.9,337.7z M60.8,342.2c-1.1,0-2.1,0.1-2.9,0.3c-0.8,0.1-1.5,0.3-2,0.6
				c-0.5,0.2-0.9,0.5-1.2,0.9c-0.3,0.3-0.4,0.7-0.4,1.1c0,0.4,0.1,0.7,0.2,1c0.1,0.3,0.3,0.5,0.5,0.7s0.5,0.3,0.8,0.4
				c0.3,0.1,0.6,0.1,0.9,0.1c0.5,0,0.9,0,1.3-0.1c0.4-0.1,0.7-0.2,1.1-0.4c0.3-0.2,0.6-0.4,0.9-0.6c0.3-0.2,0.6-0.5,0.8-0.8V342.2z"
				/>
			<path fill="#1E2D33" d="M75.3,336.6v0.4c0,0.2-0.1,0.3-0.3,0.3l-1.8,0.1c0.2,0.3,0.4,0.6,0.5,1c0.1,0.4,0.2,0.8,0.2,1.2
				c0,0.6-0.1,1.1-0.3,1.6c-0.2,0.5-0.5,0.9-0.9,1.2c-0.4,0.3-0.8,0.6-1.3,0.8c-0.5,0.2-1.1,0.3-1.7,0.3c-0.7,0-1.3-0.1-1.8-0.3
				c-0.3,0.2-0.6,0.4-0.8,0.7s-0.3,0.5-0.3,0.8c0,0.3,0.1,0.6,0.4,0.8c0.2,0.2,0.6,0.3,1,0.4c0.4,0.1,0.8,0.1,1.3,0.2
				c0.5,0,1,0,1.5,0.1c0.5,0,1,0.1,1.5,0.1c0.5,0.1,1,0.2,1.3,0.4c0.4,0.2,0.7,0.4,1,0.7s0.4,0.7,0.4,1.3c0,0.5-0.1,1-0.4,1.4
				c-0.2,0.5-0.6,0.9-1.1,1.2c-0.5,0.3-1,0.6-1.7,0.8s-1.4,0.3-2.2,0.3c-0.8,0-1.6-0.1-2.2-0.3c-0.6-0.2-1.2-0.4-1.6-0.7
				c-0.4-0.3-0.7-0.6-1-1c-0.2-0.4-0.3-0.8-0.3-1.2c0-0.6,0.2-1.2,0.6-1.6c0.4-0.4,1-0.8,1.7-1.1c-0.4-0.1-0.7-0.3-1-0.6
				c-0.2-0.3-0.4-0.6-0.4-1.1c0-0.2,0-0.3,0.1-0.5c0.1-0.2,0.2-0.4,0.3-0.5s0.3-0.3,0.5-0.5c0.2-0.2,0.4-0.3,0.6-0.4
				c-0.6-0.3-1-0.8-1.3-1.3c-0.3-0.5-0.5-1.2-0.5-1.9c0-0.6,0.1-1.1,0.3-1.6c0.2-0.5,0.5-0.9,0.9-1.2c0.4-0.3,0.8-0.6,1.3-0.8
				c0.5-0.2,1.1-0.3,1.7-0.3c0.5,0,1,0.1,1.4,0.2s0.8,0.3,1.2,0.5H75.3z M74,348.7c0-0.4-0.1-0.7-0.3-0.9c-0.2-0.2-0.5-0.4-0.8-0.5
				c-0.3-0.1-0.7-0.2-1.1-0.3s-0.9-0.1-1.3-0.1c-0.5,0-0.9,0-1.4-0.1c-0.5,0-0.9-0.1-1.3-0.1c-0.3,0.1-0.6,0.3-0.8,0.4
				c-0.3,0.2-0.5,0.3-0.7,0.5s-0.3,0.4-0.4,0.6c-0.1,0.2-0.2,0.5-0.2,0.8c0,0.3,0.1,0.7,0.3,1c0.2,0.3,0.4,0.6,0.8,0.8
				c0.3,0.2,0.8,0.4,1.3,0.5c0.5,0.1,1.1,0.2,1.7,0.2c0.6,0,1.2-0.1,1.7-0.2s1-0.3,1.4-0.6s0.7-0.5,0.9-0.9
				C73.9,349.5,74,349.1,74,348.7z M69.6,342.7c0.5,0,1-0.1,1.4-0.2c0.4-0.1,0.7-0.4,1-0.6c0.3-0.3,0.5-0.6,0.6-0.9
				c0.1-0.4,0.2-0.8,0.2-1.2s-0.1-0.9-0.2-1.2c-0.1-0.4-0.4-0.7-0.6-0.9c-0.3-0.3-0.6-0.5-1-0.6c-0.4-0.1-0.8-0.2-1.3-0.2
				c-0.5,0-0.9,0.1-1.3,0.2c-0.4,0.1-0.7,0.3-1,0.6c-0.3,0.3-0.5,0.6-0.6,0.9c-0.1,0.4-0.2,0.8-0.2,1.2s0.1,0.8,0.2,1.2
				c0.1,0.4,0.4,0.7,0.6,0.9c0.3,0.3,0.6,0.5,1,0.6S69.1,342.7,69.6,342.7z"/>
			<path fill="#1E2D33" d="M78.1,341.5v0.2c0,0.9,0.1,1.7,0.3,2.3c0.2,0.7,0.5,1.2,0.9,1.7s0.8,0.8,1.4,1c0.5,0.2,1.1,0.3,1.8,0.3
				c0.6,0,1.1-0.1,1.5-0.2c0.4-0.1,0.8-0.3,1.1-0.4c0.3-0.2,0.5-0.3,0.7-0.4c0.2-0.1,0.3-0.2,0.4-0.2c0.1,0,0.2,0,0.2,0.1l0.3,0.4
				c-0.2,0.2-0.4,0.5-0.8,0.7s-0.7,0.4-1,0.5c-0.4,0.1-0.8,0.3-1.2,0.4c-0.4,0.1-0.9,0.1-1.3,0.1c-0.8,0-1.5-0.1-2.2-0.4
				c-0.7-0.3-1.2-0.7-1.7-1.2c-0.5-0.5-0.8-1.2-1.1-2s-0.4-1.7-0.4-2.7c0-0.8,0.1-1.6,0.4-2.4c0.2-0.7,0.6-1.3,1-1.9
				c0.5-0.5,1-0.9,1.7-1.2c0.7-0.3,1.4-0.4,2.3-0.4c0.7,0,1.3,0.1,1.9,0.3c0.6,0.2,1.1,0.6,1.5,1c0.4,0.4,0.8,1,1,1.6
				c0.2,0.6,0.4,1.4,0.4,2.2c0,0.2,0,0.3-0.1,0.4c0,0.1-0.1,0.1-0.2,0.1H78.1z M86,340.8c0-0.6-0.1-1.2-0.3-1.7
				c-0.2-0.5-0.4-0.9-0.8-1.3c-0.3-0.3-0.7-0.6-1.2-0.8s-0.9-0.3-1.5-0.3c-0.6,0-1.2,0.1-1.6,0.3c-0.5,0.2-0.9,0.5-1.3,0.8
				c-0.4,0.4-0.6,0.8-0.9,1.3c-0.2,0.5-0.4,1.1-0.4,1.7H86z"/>
			<path fill="#1E2D33" d="M90.1,347.9v-11.8h0.6c0.2,0,0.3,0.1,0.3,0.3l0.1,1.7c0.5-0.7,1-1.2,1.6-1.6c0.6-0.4,1.3-0.6,2-0.6
				c0.9,0,1.6,0.2,2.1,0.8c0.5,0.5,0.9,1.2,1.1,2.1c0.1-0.5,0.3-0.9,0.6-1.3s0.6-0.7,0.9-0.9c0.3-0.2,0.7-0.4,1.1-0.5
				s0.8-0.2,1.2-0.2c0.6,0,1.1,0.1,1.6,0.3c0.5,0.2,0.9,0.5,1.2,0.9c0.3,0.4,0.6,0.8,0.8,1.4c0.2,0.6,0.3,1.2,0.3,1.9v7.6h-1.1v-7.6
				c0-1.2-0.2-2-0.8-2.6c-0.5-0.6-1.2-0.9-2.1-0.9c-0.4,0-0.8,0.1-1.2,0.2c-0.4,0.2-0.7,0.4-1,0.7c-0.3,0.3-0.5,0.7-0.7,1.1
				c-0.2,0.4-0.3,1-0.3,1.5v7.6h-1.1v-7.6c0-1.2-0.2-2-0.7-2.6c-0.5-0.6-1.1-0.9-2-0.9c-0.6,0-1.2,0.2-1.8,0.6
				c-0.5,0.4-1,0.9-1.5,1.6v9H90.1z"/>
			<path fill="#1E2D33" d="M109.7,341.5v0.2c0,0.9,0.1,1.7,0.3,2.3c0.2,0.7,0.5,1.2,0.9,1.7s0.8,0.8,1.4,1c0.5,0.2,1.1,0.3,1.8,0.3
				c0.6,0,1.1-0.1,1.5-0.2c0.4-0.1,0.8-0.3,1.1-0.4c0.3-0.2,0.5-0.3,0.7-0.4s0.3-0.2,0.4-0.2c0.1,0,0.2,0,0.2,0.1l0.3,0.4
				c-0.2,0.2-0.4,0.5-0.8,0.7s-0.7,0.4-1,0.5c-0.4,0.1-0.8,0.3-1.2,0.4c-0.4,0.1-0.9,0.1-1.3,0.1c-0.8,0-1.5-0.1-2.2-0.4
				s-1.2-0.7-1.7-1.2c-0.5-0.5-0.8-1.2-1.1-2s-0.4-1.7-0.4-2.7c0-0.8,0.1-1.6,0.4-2.4c0.2-0.7,0.6-1.3,1-1.9c0.5-0.5,1-0.9,1.7-1.2
				c0.7-0.3,1.4-0.4,2.3-0.4c0.7,0,1.3,0.1,1.9,0.3c0.6,0.2,1.1,0.6,1.5,1c0.4,0.4,0.8,1,1,1.6s0.4,1.4,0.4,2.2c0,0.2,0,0.3-0.1,0.4
				c0,0.1-0.1,0.1-0.2,0.1H109.7z M117.6,340.8c0-0.6-0.1-1.2-0.3-1.7c-0.2-0.5-0.4-0.9-0.8-1.3c-0.3-0.3-0.7-0.6-1.2-0.8
				s-0.9-0.3-1.5-0.3c-0.6,0-1.2,0.1-1.6,0.3c-0.5,0.2-0.9,0.5-1.3,0.8c-0.4,0.4-0.6,0.8-0.9,1.3s-0.4,1.1-0.4,1.7H117.6z"/>
			<path fill="#1E2D33" d="M122.8,338.1c0.5-0.7,1.2-1.2,1.9-1.6c0.7-0.4,1.5-0.6,2.4-0.6c0.7,0,1.2,0.1,1.7,0.3
				c0.5,0.2,0.9,0.5,1.2,0.9s0.6,0.9,0.7,1.4c0.2,0.5,0.2,1.2,0.2,1.9v7.6h-1.1v-7.6c0-1.1-0.3-2-0.8-2.6s-1.3-0.9-2.3-0.9
				c-0.8,0-1.5,0.2-2.2,0.6c-0.7,0.4-1.3,0.9-1.8,1.6v8.9h-1.1v-11.8h0.6c0.2,0,0.3,0.1,0.3,0.3L122.8,338.1z"/>
			<path fill="#1E2D33" d="M137.9,348.1c-0.8,0-1.4-0.2-1.9-0.7s-0.7-1.1-0.7-2.1v-8.1h-1.7c-0.1,0-0.2,0-0.2-0.1
				c-0.1,0-0.1-0.1-0.1-0.2v-0.4l2-0.1l0.3-4.2c0-0.1,0-0.1,0.1-0.2s0.1-0.1,0.2-0.1h0.5v4.5h3.7v0.8h-3.7v8c0,0.3,0,0.6,0.1,0.8
				c0.1,0.2,0.2,0.4,0.3,0.6c0.1,0.2,0.3,0.3,0.5,0.3s0.4,0.1,0.6,0.1c0.3,0,0.5,0,0.7-0.1c0.2-0.1,0.4-0.2,0.5-0.3
				c0.2-0.1,0.3-0.2,0.4-0.3c0.1-0.1,0.2-0.1,0.2-0.1c0.1,0,0.1,0,0.2,0.1l0.3,0.5c-0.3,0.3-0.7,0.6-1.1,0.8
				C138.9,348,138.4,348.1,137.9,348.1z"/>
			<path fill="#1E2D33" d="M148.9,337.7c0.6-0.6,1.3-1.1,2-1.4s1.5-0.5,2.3-0.5c0.6,0,1.2,0.1,1.7,0.3c0.5,0.2,0.9,0.5,1.2,0.9
				s0.5,0.8,0.7,1.4c0.2,0.5,0.2,1.1,0.2,1.8v7.7h-0.5c-0.2,0-0.4-0.1-0.4-0.3l-0.2-1.5c-0.3,0.3-0.6,0.6-1,0.9s-0.7,0.5-1,0.6
				c-0.3,0.2-0.7,0.3-1.1,0.4c-0.4,0.1-0.8,0.1-1.3,0.1c-0.4,0-0.8-0.1-1.2-0.2c-0.4-0.1-0.7-0.3-1-0.5c-0.3-0.2-0.5-0.6-0.7-0.9
				s-0.3-0.8-0.3-1.4c0-0.5,0.1-1,0.4-1.4c0.3-0.4,0.7-0.8,1.3-1.1c0.6-0.3,1.4-0.6,2.3-0.8s2.1-0.3,3.4-0.3v-1.2
				c0-1.1-0.2-1.9-0.7-2.5c-0.5-0.6-1.2-0.9-2.1-0.9c-0.6,0-1.1,0.1-1.5,0.2c-0.4,0.2-0.7,0.3-1,0.5c-0.3,0.2-0.5,0.4-0.7,0.5
				c-0.2,0.2-0.3,0.2-0.4,0.2c-0.1,0-0.2,0-0.2-0.1c-0.1,0-0.1-0.1-0.1-0.2L148.9,337.7z M155.9,342.2c-1.1,0-2.1,0.1-2.9,0.3
				c-0.8,0.1-1.5,0.3-2,0.6c-0.5,0.2-0.9,0.5-1.2,0.9s-0.4,0.7-0.4,1.1c0,0.4,0.1,0.7,0.2,1c0.1,0.3,0.3,0.5,0.5,0.7
				c0.2,0.2,0.5,0.3,0.8,0.4c0.3,0.1,0.6,0.1,0.9,0.1c0.5,0,0.9,0,1.3-0.1c0.4-0.1,0.7-0.2,1.1-0.4c0.3-0.2,0.6-0.4,0.9-0.6
				s0.6-0.5,0.8-0.8V342.2z"/>
			<path fill="#1E2D33" d="M161.9,338.1c0.5-0.7,1.2-1.2,1.9-1.6c0.7-0.4,1.5-0.6,2.4-0.6c0.7,0,1.2,0.1,1.7,0.3
				c0.5,0.2,0.9,0.5,1.2,0.9s0.6,0.9,0.7,1.4c0.2,0.5,0.2,1.2,0.2,1.9v7.6h-1.1v-7.6c0-1.1-0.3-2-0.8-2.6s-1.3-0.9-2.3-0.9
				c-0.8,0-1.5,0.2-2.2,0.6c-0.7,0.4-1.3,0.9-1.8,1.6v8.9h-1.1v-11.8h0.6c0.2,0,0.3,0.1,0.3,0.3L161.9,338.1z"/>
			<path fill="#1E2D33" d="M183.1,330.6v17.3h-0.6c-0.2,0-0.3-0.1-0.4-0.3l-0.1-1.9c-0.5,0.7-1.1,1.3-1.8,1.7s-1.5,0.6-2.4,0.6
				c-1.5,0-2.6-0.5-3.4-1.5c-0.8-1-1.2-2.5-1.2-4.5c0-0.9,0.1-1.7,0.3-2.4c0.2-0.8,0.6-1.4,1-2s1-1,1.6-1.3s1.4-0.5,2.2-0.5
				c0.8,0,1.5,0.1,2.1,0.4c0.6,0.3,1.1,0.7,1.5,1.3v-7H183.1z M181.9,338.6c-0.5-0.7-1-1.2-1.5-1.4c-0.6-0.3-1.2-0.4-1.9-0.4
				c-0.7,0-1.3,0.1-1.8,0.4s-1,0.6-1.3,1.1c-0.4,0.5-0.6,1-0.8,1.7s-0.3,1.4-0.3,2.1c0,1.8,0.3,3.1,1,3.9s1.6,1.2,2.8,1.2
				c0.8,0,1.5-0.2,2.1-0.6s1.2-1,1.7-1.7V338.6z"/>
			<path fill="#1E2D33" d="M54.1,358.6v17.3h-1.1v-17.3H54.1z"/>
			<path fill="#1E2D33" d="M58.5,369.5v0.2c0,0.9,0.1,1.7,0.3,2.3c0.2,0.7,0.5,1.2,0.9,1.7s0.8,0.8,1.4,1c0.5,0.2,1.1,0.3,1.8,0.3
				c0.6,0,1.1-0.1,1.5-0.2c0.4-0.1,0.8-0.3,1.1-0.4c0.3-0.2,0.5-0.3,0.7-0.4c0.2-0.1,0.3-0.2,0.4-0.2c0.1,0,0.2,0,0.2,0.1l0.3,0.4
				c-0.2,0.2-0.4,0.5-0.8,0.7s-0.7,0.4-1,0.5c-0.4,0.1-0.8,0.3-1.2,0.4c-0.4,0.1-0.9,0.1-1.3,0.1c-0.8,0-1.5-0.1-2.2-0.4
				c-0.7-0.3-1.2-0.7-1.7-1.2c-0.5-0.5-0.8-1.2-1.1-2s-0.4-1.7-0.4-2.7c0-0.8,0.1-1.6,0.4-2.4c0.2-0.7,0.6-1.3,1-1.9
				c0.5-0.5,1-0.9,1.7-1.2c0.7-0.3,1.4-0.4,2.3-0.4c0.7,0,1.3,0.1,1.9,0.3c0.6,0.2,1.1,0.6,1.5,1c0.4,0.4,0.8,1,1,1.6
				c0.2,0.6,0.4,1.4,0.4,2.2c0,0.2,0,0.3-0.1,0.4c0,0.1-0.1,0.1-0.2,0.1H58.5z M66.4,368.8c0-0.6-0.1-1.2-0.3-1.7
				c-0.2-0.5-0.4-0.9-0.8-1.3c-0.3-0.3-0.7-0.6-1.2-0.8s-0.9-0.3-1.5-0.3c-0.6,0-1.2,0.1-1.6,0.3c-0.5,0.2-0.9,0.5-1.3,0.8
				c-0.4,0.4-0.6,0.8-0.9,1.3c-0.2,0.5-0.4,1.1-0.4,1.7H66.4z"/>
			<path fill="#1E2D33" d="M70.2,365.7c0.6-0.6,1.3-1.1,2-1.4c0.7-0.3,1.5-0.5,2.3-0.5c0.6,0,1.2,0.1,1.7,0.3s0.9,0.5,1.2,0.9
				s0.5,0.8,0.7,1.4s0.2,1.1,0.2,1.8v7.7h-0.5c-0.2,0-0.4-0.1-0.4-0.3l-0.2-1.5c-0.3,0.3-0.6,0.6-1,0.9s-0.7,0.5-1,0.6
				c-0.3,0.2-0.7,0.3-1.1,0.4c-0.4,0.1-0.8,0.1-1.3,0.1c-0.4,0-0.8-0.1-1.2-0.2c-0.4-0.1-0.7-0.3-1-0.5c-0.3-0.2-0.5-0.6-0.7-0.9
				s-0.3-0.8-0.3-1.4c0-0.5,0.1-1,0.4-1.4c0.3-0.4,0.7-0.8,1.3-1.1s1.4-0.6,2.4-0.8s2.1-0.3,3.4-0.3v-1.2c0-1.1-0.2-1.9-0.7-2.5
				c-0.5-0.6-1.2-0.9-2.1-0.9c-0.6,0-1.1,0.1-1.5,0.2c-0.4,0.2-0.7,0.3-1,0.5c-0.3,0.2-0.5,0.4-0.7,0.5c-0.2,0.2-0.3,0.2-0.4,0.2
				c-0.1,0-0.2,0-0.2-0.1c-0.1,0-0.1-0.1-0.1-0.2L70.2,365.7z M77.1,370.2c-1.1,0-2.1,0.1-2.9,0.3c-0.8,0.1-1.5,0.3-2,0.6
				c-0.5,0.2-0.9,0.5-1.2,0.9c-0.3,0.3-0.4,0.7-0.4,1.1c0,0.4,0.1,0.7,0.2,1c0.1,0.3,0.3,0.5,0.5,0.7s0.5,0.3,0.8,0.4
				c0.3,0.1,0.6,0.1,0.9,0.1c0.5,0,0.9,0,1.3-0.1c0.4-0.1,0.7-0.2,1.1-0.4c0.3-0.2,0.6-0.4,0.9-0.6c0.3-0.2,0.6-0.5,0.8-0.8V370.2z"
				/>
			<path fill="#1E2D33" d="M83.1,366.9c0.2-0.5,0.4-0.9,0.6-1.3s0.5-0.7,0.8-1c0.3-0.3,0.6-0.5,1-0.6c0.4-0.1,0.8-0.2,1.3-0.2
				c0.2,0,0.5,0,0.7,0.1c0.2,0,0.4,0.1,0.6,0.2l-0.1,0.8c0,0.1-0.1,0.2-0.2,0.2c-0.1,0-0.2,0-0.4-0.1S87,365,86.7,365
				c-0.5,0-0.9,0.1-1.2,0.2s-0.7,0.3-1,0.6c-0.3,0.3-0.5,0.6-0.7,1c-0.2,0.4-0.4,0.9-0.6,1.4v7.7H82v-11.8h0.6c0.1,0,0.2,0,0.3,0.1
				c0.1,0.1,0.1,0.2,0.1,0.3L83.1,366.9z"/>
			<path fill="#1E2D33" d="M91.5,366.1c0.5-0.7,1.2-1.2,1.9-1.6c0.7-0.4,1.5-0.6,2.4-0.6c0.7,0,1.2,0.1,1.7,0.3
				c0.5,0.2,0.9,0.5,1.2,0.9s0.6,0.9,0.7,1.4c0.2,0.5,0.2,1.2,0.2,1.9v7.6h-1.1v-7.6c0-1.1-0.3-2-0.8-2.6s-1.3-0.9-2.3-0.9
				c-0.8,0-1.5,0.2-2.2,0.6c-0.7,0.4-1.3,0.9-1.8,1.6v8.9h-1.1v-11.8h0.6c0.2,0,0.3,0.1,0.3,0.3L91.5,366.1z"/>
			<path fill="#1E2D33" d="M105.3,360c0,0.1,0,0.3-0.1,0.4s-0.1,0.2-0.2,0.3c-0.1,0.1-0.2,0.2-0.3,0.2s-0.3,0.1-0.4,0.1
				c-0.1,0-0.3,0-0.4-0.1s-0.2-0.1-0.3-0.2c-0.1-0.1-0.2-0.2-0.2-0.3c-0.1-0.1-0.1-0.3-0.1-0.4c0-0.1,0-0.3,0.1-0.4
				c0.1-0.1,0.1-0.2,0.2-0.3c0.1-0.1,0.2-0.2,0.3-0.2c0.1-0.1,0.3-0.1,0.4-0.1c0.1,0,0.3,0,0.4,0.1c0.1,0.1,0.2,0.1,0.3,0.2
				s0.2,0.2,0.2,0.3S105.3,359.8,105.3,360z M104.8,364.1v11.8h-1.1v-11.8H104.8z"/>
			<path fill="#1E2D33" d="M109.9,366.1c0.5-0.7,1.2-1.2,1.9-1.6c0.7-0.4,1.5-0.6,2.4-0.6c0.7,0,1.2,0.1,1.7,0.3
				c0.5,0.2,0.9,0.5,1.2,0.9s0.6,0.9,0.7,1.4c0.2,0.5,0.2,1.2,0.2,1.9v7.6H117v-7.6c0-1.1-0.3-2-0.8-2.6s-1.3-0.9-2.3-0.9
				c-0.8,0-1.5,0.2-2.2,0.6c-0.7,0.4-1.3,0.9-1.8,1.6v8.9h-1.1v-11.8h0.6c0.2,0,0.3,0.1,0.3,0.3L109.9,366.1z"/>
			<path fill="#1E2D33" d="M131.5,364.6v0.4c0,0.2-0.1,0.3-0.3,0.3l-1.8,0.1c0.2,0.3,0.4,0.6,0.5,1c0.1,0.4,0.2,0.8,0.2,1.2
				c0,0.6-0.1,1.1-0.3,1.6c-0.2,0.5-0.5,0.9-0.9,1.2c-0.4,0.3-0.8,0.6-1.3,0.8c-0.5,0.2-1.1,0.3-1.7,0.3c-0.7,0-1.3-0.1-1.8-0.3
				c-0.3,0.2-0.6,0.4-0.8,0.7s-0.3,0.5-0.3,0.8c0,0.3,0.1,0.6,0.4,0.8c0.2,0.2,0.6,0.3,1,0.4c0.4,0.1,0.8,0.1,1.3,0.2
				c0.5,0,1,0,1.5,0.1c0.5,0,1,0.1,1.5,0.1c0.5,0.1,1,0.2,1.3,0.4c0.4,0.2,0.7,0.4,1,0.7s0.4,0.7,0.4,1.3c0,0.5-0.1,1-0.4,1.4
				s-0.6,0.9-1.1,1.2c-0.5,0.3-1,0.6-1.7,0.8c-0.7,0.2-1.4,0.3-2.2,0.3c-0.8,0-1.6-0.1-2.2-0.3c-0.6-0.2-1.2-0.4-1.6-0.7
				c-0.4-0.3-0.7-0.6-1-1s-0.3-0.8-0.3-1.2c0-0.6,0.2-1.2,0.6-1.6c0.4-0.4,1-0.8,1.7-1.1c-0.4-0.1-0.7-0.3-1-0.6s-0.4-0.6-0.4-1.1
				c0-0.2,0-0.3,0.1-0.5c0.1-0.2,0.2-0.4,0.3-0.5s0.3-0.3,0.5-0.5c0.2-0.2,0.4-0.3,0.6-0.4c-0.6-0.3-1-0.8-1.3-1.3
				c-0.3-0.5-0.5-1.2-0.5-1.9c0-0.6,0.1-1.1,0.3-1.6c0.2-0.5,0.5-0.9,0.9-1.2c0.4-0.3,0.8-0.6,1.3-0.8c0.5-0.2,1.1-0.3,1.7-0.3
				c0.5,0,1,0.1,1.4,0.2s0.8,0.3,1.2,0.5H131.5z M130.2,376.7c0-0.4-0.1-0.7-0.3-0.9c-0.2-0.2-0.5-0.4-0.8-0.5
				c-0.3-0.1-0.7-0.2-1.1-0.3c-0.4-0.1-0.9-0.1-1.3-0.1c-0.5,0-0.9,0-1.4-0.1c-0.5,0-0.9-0.1-1.3-0.1c-0.3,0.1-0.6,0.3-0.8,0.4
				c-0.3,0.2-0.5,0.3-0.7,0.5s-0.3,0.4-0.4,0.6c-0.1,0.2-0.2,0.5-0.2,0.8c0,0.3,0.1,0.7,0.3,1c0.2,0.3,0.4,0.6,0.8,0.8
				c0.3,0.2,0.8,0.4,1.3,0.5s1.1,0.2,1.7,0.2c0.6,0,1.2-0.1,1.7-0.2s1-0.3,1.4-0.6s0.7-0.5,0.9-0.9
				C130.1,377.5,130.2,377.1,130.2,376.7z M125.8,370.7c0.5,0,1-0.1,1.4-0.2c0.4-0.1,0.7-0.4,1-0.6c0.3-0.3,0.5-0.6,0.6-0.9
				s0.2-0.8,0.2-1.2s-0.1-0.9-0.2-1.2s-0.4-0.7-0.6-0.9s-0.6-0.5-1-0.6c-0.4-0.1-0.8-0.2-1.3-0.2c-0.5,0-0.9,0.1-1.3,0.2
				c-0.4,0.1-0.7,0.3-1,0.6s-0.5,0.6-0.6,0.9c-0.1,0.4-0.2,0.8-0.2,1.2s0.1,0.8,0.2,1.2c0.1,0.4,0.4,0.7,0.6,0.9
				c0.3,0.3,0.6,0.5,1,0.6S125.3,370.7,125.8,370.7z"/>
			<path fill="#1E2D33" d="M154.8,375.9h-1.1c-0.1,0-0.3,0-0.4,0c-0.1,0-0.2-0.1-0.3-0.2l-2.4-2.4c-0.3,0.4-0.7,0.8-1.2,1.1
				c-0.4,0.3-0.9,0.6-1.4,0.9s-1,0.5-1.6,0.6s-1.2,0.2-1.8,0.2c-0.6,0-1.2-0.1-1.8-0.3s-1.1-0.5-1.6-0.9s-0.8-0.9-1.1-1.4
				c-0.3-0.6-0.4-1.2-0.4-1.9c0-0.6,0.1-1.1,0.3-1.6c0.2-0.5,0.5-1,0.8-1.4c0.4-0.4,0.8-0.8,1.3-1.2s1-0.6,1.6-0.8
				c-0.6-0.6-1-1.3-1.3-1.9s-0.4-1.2-0.4-1.9c0-0.6,0.1-1.1,0.3-1.5c0.2-0.5,0.5-0.9,0.9-1.2c0.4-0.3,0.8-0.6,1.3-0.8
				c0.5-0.2,1.1-0.3,1.7-0.3c0.5,0,1,0.1,1.5,0.3c0.5,0.2,0.9,0.4,1.2,0.7c0.4,0.3,0.6,0.7,0.8,1.1c0.2,0.4,0.3,0.8,0.3,1.3
				l-0.6,0.1c-0.1,0-0.2,0-0.2,0c-0.1,0-0.1-0.1-0.2-0.2c0-0.2-0.1-0.5-0.3-0.7c-0.1-0.3-0.3-0.5-0.6-0.8c-0.2-0.2-0.5-0.4-0.9-0.6
				c-0.3-0.2-0.8-0.2-1.2-0.2c-0.5,0-0.9,0.1-1.3,0.2c-0.4,0.1-0.7,0.4-1,0.6c-0.3,0.3-0.5,0.6-0.6,0.9c-0.2,0.4-0.2,0.8-0.2,1.2
				c0,0.7,0.2,1.3,0.5,1.9s0.8,1.2,1.5,1.9l5.3,5.2c0.4-0.6,0.6-1.2,0.8-1.8c0.2-0.6,0.3-1.2,0.4-1.8c0-0.1,0-0.2,0.1-0.2
				s0.1-0.1,0.2-0.1h0.7c0,0.7-0.2,1.5-0.4,2.3c-0.3,0.8-0.6,1.5-1.1,2.3L154.8,375.9z M144.4,367.1c-0.5,0.2-1,0.5-1.4,0.8
				c-0.4,0.3-0.8,0.7-1.1,1c-0.3,0.4-0.5,0.8-0.7,1.2c-0.2,0.4-0.2,0.9-0.2,1.4c0,0.6,0.1,1.1,0.4,1.6c0.2,0.5,0.5,0.8,0.9,1.1
				c0.4,0.3,0.8,0.5,1.2,0.7c0.5,0.2,0.9,0.2,1.4,0.2c0.6,0,1.1-0.1,1.6-0.2s1-0.3,1.4-0.5c0.4-0.2,0.8-0.5,1.2-0.8
				c0.4-0.3,0.7-0.7,1-1l-5.5-5.4L144.4,367.1z"/>
			<path fill="#1E2D33" d="M44.1,386.6v17.3h-0.6c-0.2,0-0.3-0.1-0.4-0.3l-0.1-1.9c-0.5,0.7-1.1,1.3-1.8,1.7s-1.5,0.6-2.4,0.6
				c-1.5,0-2.6-0.5-3.4-1.5c-0.8-1-1.2-2.5-1.2-4.5c0-0.9,0.1-1.7,0.3-2.4c0.2-0.8,0.6-1.4,1-2c0.4-0.6,1-1,1.6-1.3s1.4-0.5,2.2-0.5
				c0.8,0,1.5,0.1,2.1,0.4c0.6,0.3,1.1,0.7,1.5,1.3v-7H44.1z M43,394.6c-0.5-0.7-1-1.2-1.5-1.4c-0.6-0.3-1.2-0.4-1.9-0.4
				c-0.7,0-1.3,0.1-1.8,0.4s-1,0.6-1.3,1.1s-0.6,1-0.8,1.7c-0.2,0.6-0.3,1.4-0.3,2.1c0,1.8,0.3,3.1,1,3.9s1.6,1.2,2.8,1.2
				c0.8,0,1.5-0.2,2.1-0.6s1.2-1,1.7-1.7V394.6z"/>
			<path fill="#1E2D33" d="M48.4,397.5v0.2c0,0.9,0.1,1.7,0.3,2.3c0.2,0.7,0.5,1.2,0.9,1.7s0.8,0.8,1.4,1c0.5,0.2,1.1,0.3,1.8,0.3
				c0.6,0,1.1-0.1,1.5-0.2c0.4-0.1,0.8-0.3,1.1-0.4c0.3-0.2,0.5-0.3,0.7-0.4c0.2-0.1,0.3-0.2,0.4-0.2c0.1,0,0.2,0,0.2,0.1l0.3,0.4
				c-0.2,0.2-0.4,0.5-0.8,0.7s-0.7,0.4-1,0.5c-0.4,0.1-0.8,0.3-1.2,0.4c-0.4,0.1-0.9,0.1-1.3,0.1c-0.8,0-1.5-0.1-2.2-0.4
				c-0.7-0.3-1.2-0.7-1.7-1.2c-0.5-0.5-0.8-1.2-1.1-2s-0.4-1.7-0.4-2.7c0-0.8,0.1-1.6,0.4-2.4c0.2-0.7,0.6-1.3,1-1.9
				c0.5-0.5,1-0.9,1.7-1.2c0.7-0.3,1.4-0.4,2.3-0.4c0.7,0,1.3,0.1,1.9,0.3c0.6,0.2,1.1,0.6,1.5,1c0.4,0.4,0.8,1,1,1.6
				c0.2,0.6,0.4,1.4,0.4,2.2c0,0.2,0,0.3-0.1,0.4c0,0.1-0.1,0.1-0.2,0.1H48.4z M56.3,396.8c0-0.6-0.1-1.2-0.3-1.7
				c-0.2-0.5-0.4-0.9-0.8-1.3c-0.3-0.3-0.7-0.6-1.2-0.8s-0.9-0.3-1.5-0.3c-0.6,0-1.2,0.1-1.6,0.3c-0.5,0.2-0.9,0.5-1.3,0.8
				c-0.4,0.4-0.6,0.8-0.9,1.3c-0.2,0.5-0.4,1.1-0.4,1.7H56.3z"/>
			<path fill="#1E2D33" d="M69.7,392.1l-5,11.8h-1l-5-11.8h0.9c0.1,0,0.2,0,0.3,0.1s0.1,0.1,0.1,0.2l3.9,9.3c0.1,0.3,0.2,0.7,0.3,1
				c0.1-0.3,0.2-0.7,0.3-1l3.9-9.3c0-0.1,0.1-0.2,0.2-0.2s0.1-0.1,0.2-0.1H69.7z"/>
			<path fill="#1E2D33" d="M72.3,397.5v0.2c0,0.9,0.1,1.7,0.3,2.3c0.2,0.7,0.5,1.2,0.9,1.7s0.8,0.8,1.4,1c0.5,0.2,1.1,0.3,1.8,0.3
				c0.6,0,1.1-0.1,1.5-0.2c0.4-0.1,0.8-0.3,1.1-0.4c0.3-0.2,0.5-0.3,0.7-0.4c0.2-0.1,0.3-0.2,0.4-0.2c0.1,0,0.2,0,0.2,0.1l0.3,0.4
				c-0.2,0.2-0.4,0.5-0.8,0.7s-0.7,0.4-1,0.5c-0.4,0.1-0.8,0.3-1.2,0.4c-0.4,0.1-0.9,0.1-1.3,0.1c-0.8,0-1.5-0.1-2.2-0.4
				c-0.7-0.3-1.2-0.7-1.7-1.2c-0.5-0.5-0.8-1.2-1.1-2s-0.4-1.7-0.4-2.7c0-0.8,0.1-1.6,0.4-2.4c0.2-0.7,0.6-1.3,1-1.9
				c0.5-0.5,1-0.9,1.7-1.2c0.7-0.3,1.4-0.4,2.3-0.4c0.7,0,1.3,0.1,1.9,0.3c0.6,0.2,1.1,0.6,1.5,1c0.4,0.4,0.8,1,1,1.6
				c0.2,0.6,0.4,1.4,0.4,2.2c0,0.2,0,0.3-0.1,0.4c0,0.1-0.1,0.1-0.2,0.1H72.3z M80.2,396.8c0-0.6-0.1-1.2-0.3-1.7
				c-0.2-0.5-0.4-0.9-0.8-1.3c-0.3-0.3-0.7-0.6-1.2-0.8s-0.9-0.3-1.5-0.3c-0.6,0-1.2,0.1-1.6,0.3c-0.5,0.2-0.9,0.5-1.3,0.8
				c-0.4,0.4-0.6,0.8-0.9,1.3c-0.2,0.5-0.4,1.1-0.4,1.7H80.2z"/>
			<path fill="#1E2D33" d="M85.5,386.6v17.3h-1.1v-17.3H85.5z"/>
			<path fill="#1E2D33" d="M94.2,391.9c0.8,0,1.6,0.1,2.3,0.4c0.7,0.3,1.2,0.7,1.7,1.2c0.5,0.5,0.8,1.2,1.1,1.9
				c0.2,0.8,0.4,1.6,0.4,2.5c0,0.9-0.1,1.8-0.4,2.5s-0.6,1.4-1.1,1.9s-1,0.9-1.7,1.2s-1.4,0.4-2.3,0.4c-0.8,0-1.6-0.1-2.3-0.4
				s-1.2-0.7-1.7-1.2c-0.5-0.5-0.8-1.2-1.1-1.9c-0.2-0.7-0.4-1.6-0.4-2.5c0-0.9,0.1-1.8,0.4-2.5c0.2-0.7,0.6-1.4,1.1-1.9
				c0.5-0.5,1-0.9,1.7-1.2C92.6,392,93.4,391.9,94.2,391.9z M94.2,403.2c0.7,0,1.3-0.1,1.9-0.4c0.5-0.2,1-0.6,1.3-1s0.6-1,0.8-1.6
				c0.2-0.6,0.3-1.4,0.3-2.1c0-0.8-0.1-1.5-0.3-2.1c-0.2-0.6-0.4-1.2-0.8-1.6s-0.8-0.8-1.3-1.1c-0.5-0.2-1.1-0.4-1.9-0.4
				s-1.3,0.1-1.9,0.4c-0.5,0.2-1,0.6-1.3,1.1s-0.6,1-0.8,1.6c-0.2,0.6-0.3,1.4-0.3,2.1c0,0.8,0.1,1.5,0.3,2.1
				c0.2,0.6,0.4,1.2,0.8,1.6s0.8,0.8,1.3,1C92.9,403,93.5,403.2,94.2,403.2z"/>
			<path fill="#1E2D33" d="M103.9,394.2c0.5-0.7,1.1-1.3,1.8-1.7c0.7-0.4,1.5-0.6,2.4-0.6c1.5,0,2.6,0.5,3.4,1.5s1.2,2.5,1.2,4.5
				c0,0.9-0.1,1.7-0.3,2.4c-0.2,0.8-0.6,1.4-1,2s-1,1-1.6,1.3s-1.4,0.5-2.2,0.5c-0.8,0-1.5-0.1-2.1-0.4c-0.6-0.3-1.1-0.7-1.5-1.3
				v5.8h-1.1v-16h0.6c0.2,0,0.3,0.1,0.3,0.3L103.9,394.2z M104,401.3c0.2,0.3,0.5,0.6,0.7,0.9c0.2,0.2,0.5,0.4,0.8,0.6
				c0.3,0.1,0.6,0.3,0.9,0.3s0.6,0.1,1,0.1c0.7,0,1.3-0.1,1.8-0.4c0.5-0.3,1-0.6,1.3-1.1c0.4-0.5,0.6-1,0.8-1.7
				c0.2-0.6,0.3-1.4,0.3-2.1c0-1.8-0.3-3.1-1-3.9c-0.7-0.8-1.6-1.2-2.8-1.2c-0.8,0-1.5,0.2-2.1,0.6c-0.6,0.4-1.2,1-1.7,1.7V401.3z"
				/>
			<path fill="#1E2D33" d="M116,403.9v-11.8h0.6c0.2,0,0.3,0.1,0.3,0.3l0.1,1.7c0.5-0.7,1-1.2,1.6-1.6s1.3-0.6,2-0.6
				c0.9,0,1.6,0.2,2.1,0.8c0.5,0.5,0.9,1.2,1.1,2.1c0.1-0.5,0.3-0.9,0.6-1.3s0.6-0.7,0.9-0.9c0.3-0.2,0.7-0.4,1.1-0.5
				s0.8-0.2,1.2-0.2c0.6,0,1.1,0.1,1.6,0.3c0.5,0.2,0.9,0.5,1.2,0.9c0.3,0.4,0.6,0.8,0.8,1.4c0.2,0.6,0.3,1.2,0.3,1.9v7.6h-1.1v-7.6
				c0-1.2-0.2-2-0.8-2.6c-0.5-0.6-1.2-0.9-2.1-0.9c-0.4,0-0.8,0.1-1.2,0.2c-0.4,0.2-0.7,0.4-1,0.7c-0.3,0.3-0.5,0.7-0.7,1.1
				c-0.2,0.4-0.3,1-0.3,1.5v7.6H123v-7.6c0-1.2-0.2-2-0.7-2.6s-1.1-0.9-2-0.9c-0.6,0-1.2,0.2-1.8,0.6c-0.5,0.4-1,0.9-1.5,1.6v9H116z
				"/>
			<path fill="#1E2D33" d="M135.5,397.5v0.2c0,0.9,0.1,1.7,0.3,2.3c0.2,0.7,0.5,1.2,0.9,1.7s0.8,0.8,1.4,1c0.5,0.2,1.1,0.3,1.8,0.3
				c0.6,0,1.1-0.1,1.5-0.2c0.4-0.1,0.8-0.3,1.1-0.4c0.3-0.2,0.5-0.3,0.7-0.4s0.3-0.2,0.4-0.2c0.1,0,0.2,0,0.2,0.1l0.3,0.4
				c-0.2,0.2-0.4,0.5-0.8,0.7s-0.7,0.4-1,0.5c-0.4,0.1-0.8,0.3-1.2,0.4c-0.4,0.1-0.9,0.1-1.3,0.1c-0.8,0-1.5-0.1-2.2-0.4
				s-1.2-0.7-1.7-1.2c-0.5-0.5-0.8-1.2-1.1-2s-0.4-1.7-0.4-2.7c0-0.8,0.1-1.6,0.4-2.4c0.2-0.7,0.6-1.3,1-1.9c0.5-0.5,1-0.9,1.7-1.2
				c0.7-0.3,1.4-0.4,2.3-0.4c0.7,0,1.3,0.1,1.9,0.3c0.6,0.2,1.1,0.6,1.5,1c0.4,0.4,0.8,1,1,1.6s0.4,1.4,0.4,2.2c0,0.2,0,0.3-0.1,0.4
				c0,0.1-0.1,0.1-0.2,0.1H135.5z M143.4,396.8c0-0.6-0.1-1.2-0.3-1.7c-0.2-0.5-0.4-0.9-0.8-1.3c-0.3-0.3-0.7-0.6-1.2-0.8
				s-0.9-0.3-1.5-0.3c-0.6,0-1.2,0.1-1.6,0.3c-0.5,0.2-0.9,0.5-1.3,0.8c-0.4,0.4-0.6,0.8-0.9,1.3s-0.4,1.1-0.4,1.7H143.4z"/>
			<path fill="#1E2D33" d="M148.6,394.1c0.5-0.7,1.2-1.2,1.9-1.6c0.7-0.4,1.5-0.6,2.4-0.6c0.7,0,1.2,0.1,1.7,0.3
				c0.5,0.2,0.9,0.5,1.2,0.9s0.6,0.9,0.7,1.4c0.2,0.5,0.2,1.2,0.2,1.9v7.6h-1.1v-7.6c0-1.1-0.3-2-0.8-2.6s-1.3-0.9-2.3-0.9
				c-0.8,0-1.5,0.2-2.2,0.6c-0.7,0.4-1.3,0.9-1.8,1.6v8.9h-1.1v-11.8h0.6c0.2,0,0.3,0.1,0.3,0.3L148.6,394.1z"/>
			<path fill="#1E2D33" d="M163.7,404.1c-0.8,0-1.4-0.2-1.9-0.7s-0.7-1.1-0.7-2.1v-8.1h-1.7c-0.1,0-0.2,0-0.2-0.1
				c-0.1,0-0.1-0.1-0.1-0.2v-0.4l2-0.1l0.3-4.2c0-0.1,0-0.1,0.1-0.2s0.1-0.1,0.2-0.1h0.5v4.5h3.7v0.8h-3.7v8c0,0.3,0,0.6,0.1,0.8
				c0.1,0.2,0.2,0.4,0.3,0.6c0.1,0.2,0.3,0.3,0.5,0.3s0.4,0.1,0.6,0.1c0.3,0,0.5,0,0.7-0.1c0.2-0.1,0.4-0.2,0.5-0.3
				c0.2-0.1,0.3-0.2,0.4-0.3c0.1-0.1,0.2-0.1,0.2-0.1c0.1,0,0.1,0,0.2,0.1l0.3,0.5c-0.3,0.3-0.7,0.6-1.1,0.8
				C164.7,404,164.2,404.1,163.7,404.1z"/>
			<path fill="#1E2D33" d="M9.8,424.4c0,1.8,0.2,3.5,0.7,5.1c0.5,1.6,1.2,3.2,2.1,4.7c0.1,0.1,0.1,0.2,0.1,0.3
				c0,0.1-0.1,0.1-0.1,0.2l-0.5,0.3c-0.6-0.9-1.1-1.8-1.5-2.7s-0.8-1.7-1-2.6c-0.3-0.9-0.4-1.7-0.6-2.6c-0.1-0.9-0.2-1.8-0.2-2.7
				c0-0.9,0.1-1.8,0.2-2.7c0.1-0.9,0.3-1.7,0.6-2.6c0.3-0.9,0.6-1.7,1-2.6c0.4-0.9,0.9-1.8,1.5-2.7l0.5,0.3c0.1,0,0.1,0.1,0.1,0.2
				c0,0.1,0,0.2-0.1,0.3c-1,1.5-1.7,3.1-2.1,4.7C10,420.9,9.8,422.6,9.8,424.4z"/>
			<path fill="#1E2D33" d="M18.4,432.1c-0.8,0-1.4-0.2-1.9-0.7s-0.7-1.1-0.7-2.1v-8.1h-1.7c-0.1,0-0.2,0-0.2-0.1
				c-0.1,0-0.1-0.1-0.1-0.2v-0.4l2-0.1l0.3-4.2c0-0.1,0-0.1,0.1-0.2c0-0.1,0.1-0.1,0.2-0.1H17v4.5h3.7v0.8H17v8c0,0.3,0,0.6,0.1,0.8
				s0.2,0.4,0.3,0.6c0.1,0.2,0.3,0.3,0.5,0.3s0.4,0.1,0.6,0.1c0.3,0,0.5,0,0.7-0.1c0.2-0.1,0.4-0.2,0.5-0.3c0.2-0.1,0.3-0.2,0.4-0.3
				c0.1-0.1,0.2-0.1,0.2-0.1c0.1,0,0.1,0,0.2,0.1L21,431c-0.3,0.3-0.7,0.6-1.1,0.8C19.4,432,18.9,432.1,18.4,432.1z"/>
			<path fill="#1E2D33" d="M23,421.7c0.6-0.6,1.3-1.1,2-1.4c0.7-0.3,1.5-0.5,2.3-0.5c0.6,0,1.2,0.1,1.7,0.3s0.9,0.5,1.2,0.9
				s0.5,0.8,0.7,1.4s0.2,1.1,0.2,1.8v7.7h-0.5c-0.2,0-0.4-0.1-0.4-0.3L30,430c-0.3,0.3-0.6,0.6-1,0.9s-0.7,0.5-1,0.6
				c-0.3,0.2-0.7,0.3-1.1,0.4c-0.4,0.1-0.8,0.1-1.3,0.1c-0.4,0-0.8-0.1-1.2-0.2c-0.4-0.1-0.7-0.3-1-0.5c-0.3-0.2-0.5-0.6-0.7-0.9
				s-0.3-0.8-0.3-1.4c0-0.5,0.1-1,0.4-1.4c0.3-0.4,0.7-0.8,1.3-1.1s1.4-0.6,2.4-0.8s2.1-0.3,3.4-0.3v-1.2c0-1.1-0.2-1.9-0.7-2.5
				c-0.5-0.6-1.2-0.9-2.1-0.9c-0.6,0-1.1,0.1-1.5,0.2c-0.4,0.2-0.7,0.3-1,0.5c-0.3,0.2-0.5,0.4-0.7,0.5c-0.2,0.2-0.3,0.2-0.4,0.2
				c-0.1,0-0.2,0-0.2-0.1c-0.1,0-0.1-0.1-0.1-0.2L23,421.7z M29.9,426.2c-1.1,0-2.1,0.1-2.9,0.3c-0.8,0.1-1.5,0.3-2,0.6
				c-0.5,0.2-0.9,0.5-1.2,0.9c-0.3,0.3-0.4,0.7-0.4,1.1c0,0.4,0.1,0.7,0.2,1c0.1,0.3,0.3,0.5,0.5,0.7s0.5,0.3,0.8,0.4
				c0.3,0.1,0.6,0.1,0.9,0.1c0.5,0,0.9,0,1.3-0.1c0.4-0.1,0.7-0.2,1.1-0.4c0.3-0.2,0.6-0.4,0.9-0.6c0.3-0.2,0.6-0.5,0.8-0.8V426.2z"
				/>
			<path fill="#1E2D33" d="M35.9,422.9c0.2-0.5,0.4-0.9,0.6-1.3s0.5-0.7,0.8-1c0.3-0.3,0.6-0.5,1-0.6c0.4-0.1,0.8-0.2,1.3-0.2
				c0.2,0,0.5,0,0.7,0.1c0.2,0,0.4,0.1,0.6,0.2l-0.1,0.8c0,0.1-0.1,0.2-0.2,0.2c-0.1,0-0.2,0-0.4-0.1s-0.5-0.1-0.8-0.1
				c-0.5,0-0.9,0.1-1.2,0.2s-0.7,0.3-1,0.6c-0.3,0.3-0.5,0.6-0.7,1c-0.2,0.4-0.4,0.9-0.6,1.4v7.7h-1.1v-11.8h0.6
				c0.1,0,0.2,0,0.3,0.1c0.1,0.1,0.1,0.2,0.1,0.3L35.9,422.9z"/>
			<path fill="#1E2D33" d="M52.3,420.6v0.4c0,0.2-0.1,0.3-0.3,0.3l-1.8,0.1c0.2,0.3,0.4,0.6,0.5,1c0.1,0.4,0.2,0.8,0.2,1.2
				c0,0.6-0.1,1.1-0.3,1.6c-0.2,0.5-0.5,0.9-0.9,1.2c-0.4,0.3-0.8,0.6-1.3,0.8c-0.5,0.2-1.1,0.3-1.7,0.3c-0.7,0-1.3-0.1-1.8-0.3
				c-0.3,0.2-0.6,0.4-0.8,0.7s-0.3,0.5-0.3,0.8c0,0.3,0.1,0.6,0.4,0.8c0.2,0.2,0.6,0.3,1,0.4c0.4,0.1,0.8,0.1,1.3,0.2
				c0.5,0,1,0,1.5,0.1c0.5,0,1,0.1,1.5,0.1c0.5,0.1,1,0.2,1.3,0.4c0.4,0.2,0.7,0.4,1,0.7s0.4,0.7,0.4,1.3c0,0.5-0.1,1-0.4,1.4
				c-0.2,0.5-0.6,0.9-1.1,1.2c-0.5,0.3-1,0.6-1.7,0.8s-1.4,0.3-2.2,0.3c-0.8,0-1.6-0.1-2.2-0.3c-0.6-0.2-1.2-0.4-1.6-0.7
				c-0.4-0.3-0.7-0.6-1-1c-0.2-0.4-0.3-0.8-0.3-1.2c0-0.6,0.2-1.2,0.6-1.6c0.4-0.4,1-0.8,1.7-1.1c-0.4-0.1-0.7-0.3-1-0.6
				c-0.2-0.3-0.4-0.6-0.4-1.1c0-0.2,0-0.3,0.1-0.5c0.1-0.2,0.2-0.4,0.3-0.5s0.3-0.3,0.5-0.5c0.2-0.2,0.4-0.3,0.6-0.4
				c-0.6-0.3-1-0.8-1.3-1.3c-0.3-0.5-0.5-1.2-0.5-1.9c0-0.6,0.1-1.1,0.3-1.6c0.2-0.5,0.5-0.9,0.9-1.2c0.4-0.3,0.8-0.6,1.3-0.8
				c0.5-0.2,1.1-0.3,1.7-0.3c0.5,0,1,0.1,1.4,0.2s0.8,0.3,1.2,0.5H52.3z M51.1,432.7c0-0.4-0.1-0.7-0.3-0.9
				c-0.2-0.2-0.5-0.4-0.8-0.5c-0.3-0.1-0.7-0.2-1.1-0.3s-0.9-0.1-1.3-0.1c-0.5,0-0.9,0-1.4-0.1c-0.5,0-0.9-0.1-1.3-0.1
				c-0.3,0.1-0.6,0.3-0.8,0.4c-0.3,0.2-0.5,0.3-0.7,0.5s-0.3,0.4-0.4,0.6c-0.1,0.2-0.2,0.5-0.2,0.8c0,0.3,0.1,0.7,0.3,1
				c0.2,0.3,0.4,0.6,0.8,0.8c0.3,0.2,0.8,0.4,1.3,0.5c0.5,0.1,1.1,0.2,1.7,0.2c0.6,0,1.2-0.1,1.7-0.2s1-0.3,1.4-0.6s0.7-0.5,0.9-0.9
				C51,433.5,51.1,433.1,51.1,432.7z M46.6,426.7c0.5,0,1-0.1,1.4-0.2c0.4-0.1,0.7-0.4,1-0.6c0.3-0.3,0.5-0.6,0.6-0.9
				c0.1-0.4,0.2-0.8,0.2-1.2s-0.1-0.9-0.2-1.2c-0.1-0.4-0.4-0.7-0.6-0.9c-0.3-0.3-0.6-0.5-1-0.6c-0.4-0.1-0.8-0.2-1.3-0.2
				c-0.5,0-0.9,0.1-1.3,0.2c-0.4,0.1-0.7,0.3-1,0.6c-0.3,0.3-0.5,0.6-0.6,0.9c-0.1,0.4-0.2,0.8-0.2,1.2s0.1,0.8,0.2,1.2
				c0.1,0.4,0.4,0.7,0.6,0.9c0.3,0.3,0.6,0.5,1,0.6S46.1,426.7,46.6,426.7z"/>
			<path fill="#1E2D33" d="M55.2,425.5v0.2c0,0.9,0.1,1.7,0.3,2.3c0.2,0.7,0.5,1.2,0.9,1.7s0.8,0.8,1.4,1c0.5,0.2,1.1,0.3,1.8,0.3
				c0.6,0,1.1-0.1,1.5-0.2c0.4-0.1,0.8-0.3,1.1-0.4c0.3-0.2,0.5-0.3,0.7-0.4c0.2-0.1,0.3-0.2,0.4-0.2c0.1,0,0.2,0,0.2,0.1l0.3,0.4
				c-0.2,0.2-0.4,0.5-0.8,0.7s-0.7,0.4-1,0.5c-0.4,0.1-0.8,0.3-1.2,0.4c-0.4,0.1-0.9,0.1-1.3,0.1c-0.8,0-1.5-0.1-2.2-0.4
				c-0.7-0.3-1.2-0.7-1.7-1.2c-0.5-0.5-0.8-1.2-1.1-2s-0.4-1.7-0.4-2.7c0-0.8,0.1-1.6,0.4-2.4c0.2-0.7,0.6-1.3,1-1.9
				c0.5-0.5,1-0.9,1.7-1.2c0.7-0.3,1.4-0.4,2.3-0.4c0.7,0,1.3,0.1,1.9,0.3c0.6,0.2,1.1,0.6,1.5,1c0.4,0.4,0.8,1,1,1.6
				c0.2,0.6,0.4,1.4,0.4,2.2c0,0.2,0,0.3-0.1,0.4c0,0.1-0.1,0.1-0.2,0.1H55.2z M63.1,424.8c0-0.6-0.1-1.2-0.3-1.7
				c-0.2-0.5-0.4-0.9-0.8-1.3c-0.3-0.3-0.7-0.6-1.2-0.8s-0.9-0.3-1.5-0.3c-0.6,0-1.2,0.1-1.6,0.3c-0.5,0.2-0.9,0.5-1.3,0.8
				c-0.4,0.4-0.6,0.8-0.9,1.3c-0.2,0.5-0.4,1.1-0.4,1.7H63.1z"/>
			<path fill="#1E2D33" d="M70.4,432.1c-0.8,0-1.4-0.2-1.9-0.7s-0.7-1.1-0.7-2.1v-8.1h-1.7c-0.1,0-0.2,0-0.2-0.1
				c-0.1,0-0.1-0.1-0.1-0.2v-0.4l2-0.1l0.3-4.2c0-0.1,0-0.1,0.1-0.2c0-0.1,0.1-0.1,0.2-0.1H69v4.5h3.7v0.8H69v8c0,0.3,0,0.6,0.1,0.8
				s0.2,0.4,0.3,0.6c0.1,0.2,0.3,0.3,0.5,0.3s0.4,0.1,0.6,0.1c0.3,0,0.5,0,0.7-0.1c0.2-0.1,0.4-0.2,0.5-0.3c0.2-0.1,0.3-0.2,0.4-0.3
				c0.1-0.1,0.2-0.1,0.2-0.1c0.1,0,0.1,0,0.2,0.1L73,431c-0.3,0.3-0.7,0.6-1.1,0.8C71.4,432,70.9,432.1,70.4,432.1z"/>
			<path fill="#1E2D33" d="M96.9,420.1l-4,11.8h-0.8c-0.1,0-0.2-0.1-0.3-0.2l-3.2-9.6c0-0.1-0.1-0.2-0.1-0.4s-0.1-0.2-0.1-0.4
				c0,0.2-0.1,0.5-0.2,0.7l-3.3,9.6c0,0.2-0.1,0.2-0.3,0.2h-0.8l-4-11.8h0.9c0.1,0,0.2,0,0.3,0.1s0.1,0.1,0.1,0.2l3,9.3
				c0,0.2,0.1,0.4,0.1,0.5c0,0.2,0.1,0.3,0.1,0.5c0-0.2,0.1-0.3,0.1-0.5c0-0.2,0.1-0.3,0.2-0.5l3.2-9.4c0.1-0.2,0.2-0.3,0.3-0.3h0.5
				c0.2,0,0.3,0.1,0.3,0.3l3.1,9.4c0.1,0.2,0.1,0.4,0.2,0.5c0,0.2,0.1,0.3,0.1,0.5c0-0.2,0.1-0.3,0.1-0.5c0-0.2,0.1-0.3,0.1-0.5
				l3-9.3c0-0.1,0.1-0.2,0.2-0.2s0.2-0.1,0.2-0.1H96.9z"/>
			<path fill="#1E2D33" d="M99,421.7c0.6-0.6,1.3-1.1,2-1.4s1.5-0.5,2.3-0.5c0.6,0,1.2,0.1,1.7,0.3c0.5,0.2,0.9,0.5,1.2,0.9
				s0.5,0.8,0.7,1.4c0.2,0.5,0.2,1.1,0.2,1.8v7.7h-0.5c-0.2,0-0.4-0.1-0.4-0.3L106,430c-0.3,0.3-0.6,0.6-1,0.9s-0.7,0.5-1,0.6
				c-0.3,0.2-0.7,0.3-1.1,0.4s-0.8,0.1-1.3,0.1c-0.4,0-0.8-0.1-1.2-0.2c-0.4-0.1-0.7-0.3-1-0.5c-0.3-0.2-0.5-0.6-0.7-0.9
				s-0.3-0.8-0.3-1.4c0-0.5,0.1-1,0.4-1.4c0.3-0.4,0.7-0.8,1.3-1.1s1.4-0.6,2.4-0.8s2.1-0.3,3.4-0.3v-1.2c0-1.1-0.2-1.9-0.7-2.5
				c-0.5-0.6-1.2-0.9-2.1-0.9c-0.6,0-1.1,0.1-1.5,0.2c-0.4,0.2-0.7,0.3-1,0.5c-0.3,0.2-0.5,0.4-0.7,0.5c-0.2,0.2-0.3,0.2-0.4,0.2
				c-0.1,0-0.2,0-0.2-0.1c-0.1,0-0.1-0.1-0.1-0.2L99,421.7z M106,426.2c-1.1,0-2.1,0.1-2.9,0.3s-1.5,0.3-2,0.6s-0.9,0.5-1.2,0.9
				c-0.3,0.3-0.4,0.7-0.4,1.1c0,0.4,0.1,0.7,0.2,1c0.1,0.3,0.3,0.5,0.5,0.7s0.5,0.3,0.8,0.4c0.3,0.1,0.6,0.1,0.9,0.1
				c0.5,0,0.9,0,1.3-0.1c0.4-0.1,0.7-0.2,1.1-0.4c0.3-0.2,0.6-0.4,0.9-0.6c0.3-0.2,0.6-0.5,0.8-0.8V426.2z"/>
			<path fill="#1E2D33" d="M117.4,421.5c-0.1,0.1-0.2,0.2-0.3,0.2c-0.1,0-0.2,0-0.3-0.1c-0.1-0.1-0.3-0.2-0.5-0.3
				c-0.2-0.1-0.5-0.2-0.8-0.3c-0.3-0.1-0.7-0.1-1.2-0.1c-0.4,0-0.8,0.1-1.2,0.2c-0.4,0.1-0.7,0.3-0.9,0.5c-0.2,0.2-0.4,0.4-0.6,0.7
				c-0.1,0.3-0.2,0.6-0.2,0.9c0,0.4,0.1,0.7,0.3,0.9s0.4,0.5,0.7,0.6c0.3,0.2,0.7,0.3,1.1,0.5s0.8,0.3,1.2,0.4
				c0.4,0.1,0.8,0.3,1.2,0.4s0.7,0.3,1.1,0.6c0.3,0.2,0.6,0.5,0.7,0.8s0.3,0.7,0.3,1.2c0,0.5-0.1,1-0.3,1.4s-0.5,0.8-0.8,1.2
				c-0.4,0.3-0.8,0.6-1.3,0.8s-1.1,0.3-1.8,0.3c-0.8,0-1.6-0.1-2.2-0.4s-1.1-0.6-1.6-1l0.3-0.4c0-0.1,0.1-0.1,0.1-0.1
				c0.1,0,0.1,0,0.2,0c0.1,0,0.2,0.1,0.4,0.2c0.1,0.1,0.3,0.3,0.6,0.4s0.5,0.3,0.9,0.4c0.4,0.1,0.8,0.2,1.3,0.2
				c0.5,0,0.9-0.1,1.3-0.2s0.7-0.3,1-0.6s0.4-0.5,0.6-0.8s0.2-0.7,0.2-1c0-0.4-0.1-0.7-0.3-1c-0.2-0.3-0.4-0.5-0.8-0.7
				c-0.3-0.2-0.7-0.3-1.1-0.5s-0.8-0.3-1.2-0.4c-0.4-0.1-0.8-0.3-1.2-0.4c-0.4-0.2-0.7-0.3-1.1-0.6c-0.3-0.2-0.6-0.5-0.7-0.8
				c-0.2-0.3-0.3-0.7-0.3-1.2c0-0.4,0.1-0.8,0.3-1.2c0.2-0.4,0.4-0.7,0.8-1c0.3-0.3,0.7-0.5,1.2-0.7c0.5-0.2,1-0.3,1.6-0.3
				c0.7,0,1.4,0.1,1.9,0.3c0.6,0.2,1.1,0.5,1.5,1L117.4,421.5z"/>
			<path fill="#1E2D33" d="M137.3,431v0.9h-8.7V431h3.9v-13.7c0-0.3,0-0.6,0-0.9l-3.7,3.3c-0.1,0.1-0.2,0.1-0.3,0.1
				s-0.2-0.1-0.3-0.1l-0.3-0.5l4.9-4.3h0.9v16H137.3z"/>
			<path fill="#1E2D33" d="M140.9,424.4h5.5v1h-5.5V424.4z"/>
			<path fill="#1E2D33" d="M149.9,419.4c0.1-0.7,0.3-1.4,0.6-1.9c0.3-0.6,0.7-1,1.1-1.4s1-0.7,1.6-0.9c0.6-0.2,1.2-0.3,1.9-0.3
				c0.6,0,1.2,0.1,1.8,0.3c0.6,0.2,1.1,0.4,1.5,0.8c0.4,0.4,0.8,0.8,1,1.3c0.2,0.5,0.4,1.1,0.4,1.8c0,0.5-0.1,1-0.2,1.5
				c-0.2,0.4-0.4,0.8-0.7,1.2c-0.3,0.3-0.6,0.6-1.1,0.8c-0.4,0.2-0.8,0.4-1.3,0.5c1.2,0.2,2.2,0.7,2.8,1.4c0.6,0.7,0.9,1.6,0.9,2.7
				c0,0.7-0.1,1.3-0.4,1.9c-0.3,0.6-0.7,1.1-1.1,1.5c-0.5,0.4-1.1,0.8-1.7,1c-0.7,0.2-1.4,0.4-2.1,0.4c-1,0-1.8-0.1-2.4-0.4
				s-1.2-0.6-1.6-1c-0.4-0.4-0.7-0.9-1-1.4c-0.2-0.5-0.4-1-0.6-1.5l0.5-0.2c0.1-0.1,0.3-0.1,0.4,0c0.1,0,0.2,0.1,0.3,0.3
				c0,0.1,0.1,0.2,0.2,0.4c0.1,0.2,0.2,0.4,0.3,0.7s0.3,0.5,0.5,0.8c0.2,0.3,0.5,0.5,0.8,0.7c0.3,0.2,0.7,0.4,1.1,0.5
				c0.4,0.1,0.9,0.2,1.5,0.2c0.7,0,1.3-0.1,1.9-0.4c0.5-0.2,1-0.5,1.3-0.9c0.4-0.4,0.6-0.8,0.8-1.2s0.3-0.9,0.3-1.3
				c0-0.5-0.1-1-0.2-1.4c-0.2-0.4-0.4-0.8-0.8-1.1s-0.9-0.6-1.5-0.8s-1.4-0.3-2.3-0.3v-0.8c0.7,0,1.4-0.1,1.9-0.3
				c0.6-0.2,1-0.4,1.4-0.7s0.7-0.7,0.8-1.1c0.2-0.4,0.3-0.9,0.3-1.4c0-0.6-0.1-1.1-0.3-1.5c-0.2-0.4-0.5-0.8-0.8-1.1
				c-0.3-0.3-0.7-0.5-1.2-0.6c-0.4-0.1-0.9-0.2-1.4-0.2c-0.5,0-1,0.1-1.5,0.2c-0.5,0.2-0.9,0.4-1.2,0.7c-0.3,0.3-0.6,0.6-0.9,1
				c-0.2,0.4-0.4,0.8-0.5,1.3c0,0.2-0.1,0.3-0.2,0.3s-0.2,0.1-0.4,0.1L149.9,419.4z"/>
			<path fill="#1E2D33" d="M170.2,419.1c0,0.7-0.1,1.3-0.3,1.8s-0.4,1-0.8,1.3c-0.3,0.3-0.7,0.6-1.1,0.8s-0.9,0.3-1.4,0.3
				c-0.5,0-1-0.1-1.4-0.3s-0.8-0.4-1.1-0.8c-0.3-0.3-0.6-0.8-0.8-1.3s-0.3-1.1-0.3-1.8c0-0.7,0.1-1.3,0.3-1.8s0.4-1,0.8-1.3
				c0.3-0.4,0.7-0.6,1.1-0.8c0.4-0.2,0.9-0.3,1.4-0.3s1,0.1,1.4,0.3c0.4,0.2,0.8,0.4,1.1,0.8c0.3,0.4,0.6,0.8,0.8,1.3
				S170.2,418.4,170.2,419.1z M169.3,419.1c0-0.6-0.1-1.1-0.2-1.6s-0.3-0.8-0.6-1.1c-0.2-0.3-0.5-0.5-0.8-0.6s-0.7-0.2-1-0.2
				s-0.7,0.1-1,0.2s-0.6,0.3-0.8,0.6c-0.2,0.3-0.4,0.6-0.6,1.1s-0.2,1-0.2,1.6c0,0.6,0.1,1.1,0.2,1.6s0.3,0.8,0.6,1.1
				c0.2,0.3,0.5,0.5,0.8,0.6s0.7,0.2,1,0.2s0.7-0.1,1-0.2s0.6-0.3,0.8-0.6c0.2-0.3,0.4-0.6,0.6-1.1S169.3,419.7,169.3,419.1z
				 M176.6,415.3c0-0.1,0.1-0.1,0.2-0.2c0.1,0,0.2-0.1,0.3-0.1h0.8l-12.1,16.6c-0.1,0.1-0.2,0.2-0.4,0.2h-0.8L176.6,415.3z
				 M179.3,427.9c0,0.7-0.1,1.3-0.3,1.8c-0.2,0.5-0.4,1-0.8,1.3c-0.3,0.3-0.7,0.6-1.1,0.8c-0.4,0.2-0.9,0.3-1.4,0.3
				c-0.5,0-1-0.1-1.4-0.3c-0.4-0.2-0.8-0.4-1.1-0.8c-0.3-0.3-0.6-0.8-0.8-1.3c-0.2-0.5-0.3-1.1-0.3-1.8c0-0.7,0.1-1.3,0.3-1.8
				s0.4-1,0.8-1.3c0.3-0.4,0.7-0.6,1.1-0.8c0.4-0.2,0.9-0.3,1.4-0.3s1,0.1,1.4,0.3c0.4,0.2,0.8,0.4,1.1,0.8c0.3,0.4,0.6,0.8,0.8,1.3
				S179.3,427.2,179.3,427.9z M178.3,427.9c0-0.6-0.1-1.1-0.2-1.6s-0.3-0.8-0.6-1.1c-0.2-0.3-0.5-0.5-0.8-0.6s-0.7-0.2-1-0.2
				c-0.4,0-0.7,0.1-1,0.2s-0.6,0.3-0.8,0.6c-0.2,0.3-0.4,0.6-0.6,1.1s-0.2,1-0.2,1.6c0,0.6,0.1,1.1,0.2,1.6c0.1,0.4,0.3,0.8,0.6,1.1
				s0.5,0.5,0.8,0.6c0.3,0.1,0.7,0.2,1,0.2c0.4,0,0.7-0.1,1-0.2c0.3-0.1,0.6-0.3,0.8-0.6s0.4-0.6,0.6-1.1
				C178.3,429,178.3,428.5,178.3,427.9z"/>
			<path fill="#1E2D33" d="M184.3,424.4c0-1.8-0.2-3.5-0.7-5.1c-0.5-1.6-1.2-3.2-2.1-4.7c-0.1-0.1-0.1-0.2-0.1-0.3
				c0-0.1,0.1-0.1,0.1-0.2l0.5-0.3c0.6,0.9,1.1,1.8,1.5,2.7c0.4,0.9,0.8,1.8,1,2.6c0.3,0.9,0.4,1.7,0.6,2.6c0.1,0.9,0.2,1.8,0.2,2.7
				c0,0.9-0.1,1.8-0.2,2.7c-0.1,0.9-0.3,1.7-0.6,2.6c-0.3,0.9-0.6,1.7-1,2.6c-0.4,0.9-0.9,1.8-1.5,2.7l-0.5-0.3
				c-0.1,0-0.1-0.1-0.1-0.2c0-0.1,0-0.2,0.1-0.3c1-1.5,1.7-3.1,2.1-4.7C184,427.9,184.3,426.2,184.3,424.4z"/>
			<path fill="#1E2D33" d="M188.3,431c0-0.2,0-0.3,0.1-0.4c0.1-0.1,0.1-0.3,0.2-0.4c0.1-0.1,0.2-0.2,0.3-0.2s0.3-0.1,0.4-0.1
				c0.2,0,0.3,0,0.4,0.1s0.3,0.1,0.4,0.2c0.1,0.1,0.2,0.2,0.2,0.4s0.1,0.3,0.1,0.4c0,0.2,0,0.3-0.1,0.4s-0.1,0.2-0.2,0.3
				c-0.1,0.1-0.2,0.2-0.4,0.2c-0.1,0.1-0.3,0.1-0.4,0.1c-0.3,0-0.6-0.1-0.8-0.3C188.4,431.6,188.3,431.3,188.3,431z"/>
		</g>
	</g>
</g>
</svg>
