<?xml version="1.0" encoding="utf-8"?>
<!-- Generator: Adobe Illustrator 18.0.0, SVG Export Plug-In . SVG Version: 6.00 Build 0)  -->
<!DOCTYPE svg PUBLIC "-//W3C//DTD SVG 1.1//EN" "http://www.w3.org/Graphics/SVG/1.1/DTD/svg11.dtd">
<svg version="1.1" id="Layer_1" xmlns="http://www.w3.org/2000/svg" xmlns:xlink="http://www.w3.org/1999/xlink" x="0px" y="0px"
	 width="86.1px" height="57.6px" viewBox="0 0 86.1 57.6" enable-background="new 0 0 86.1 57.6" xml:space="preserve">
<g id="Globe__x2B__Binoculars__x2B__Map">
	<g id="Globe_3_">
		<g>
			<path fill="none" stroke="#010202" stroke-width="1.5" stroke-miterlimit="10" d="M18.6,38c0.8,1.2,1.6,2.3,2.6,3.3"/>
			<path fill="none" stroke="#010202" stroke-width="1.5" stroke-miterlimit="10" d="M62.9,23.8c-0.6-12.8-11.1-23-24.1-23
				c-13.3,0-24.1,10.8-24.1,24.1c0,3.6,0.8,7.1,2.2,10.2"/>
			<path fill="none" stroke="#010202" stroke-width="1.5" stroke-miterlimit="10" d="M39.9,48.9c2.5-0.1,4.9-0.6,7.1-1.4"/>
		</g>
		<path fill="none" stroke="#010202" stroke-width="1.5" stroke-miterlimit="10" d="M29.5,2.6c0,0-0.4,1.4-0.2,3.9
			c0.2,2.5,1.4,1.1,3,2.9c1.6,1.7,2,0.8,2.1-1.8c0.1-2.6,1-3,3.3-3.3s2.9-1,1.6-3.4"/>
		<path fill="none" stroke="#010202" stroke-width="1.5" stroke-miterlimit="10" d="M15,21.1c1.4,1.1,0.5,2.3,2.2,2.3
			c1.7,0.1,1.5-1.9,2.2-3c0.7-1.1,1.7-0.2,2.9-1.1c1.4-0.9-0.8-2.7-1-3.4c-0.2-0.8,2.2-3.1,3.1-1.2c0.7,1.6,2,2.5,2.9,1.6
			c0.6-0.6-0.3-2.2-1.1-4.1c-0.9-2.3-5-3.5-5-3.5"/>
		<path fill="none" stroke="#010202" stroke-width="1.5" stroke-miterlimit="10" d="M54.8,6.7c0,0-0.5,1.5-3.9,2
			c-3.5,0.5-3.5,0.2-4.1,2c-0.4,1.2,0.1,2.4,0.1,2.4s2.8,0.2,4.1-0.9c0,0,0.6,1.5-0.9,2.7s-4.3-0.7-5.5-0.2
			c-1.2,0.5-1.6,1.8-1.6,1.8s-2.4,0.8-2-1.3s-1-2.5-2.6-2c-1.6,0.5-2.5,0.8-1.2,2.5s1.7,0.9,2.9,2.5s3.8-0.8,5.7,0.5
			c1.9,1.3,1.3,2.7,5.4,3.6c2.9,0.6,2.7,2.7,3.2,4.7"/>
		<path fill="none" stroke="#010202" stroke-width="1.5" stroke-miterlimit="10" d="M47.2,22.6c-3-1.3-6.7-2.5-9.5-2.1
			c0,0-0.4,2.3-3,2.9c-1.8,0.5-2.8,1.7-1.7,4.5c1.1,2.9,6.5,1.1,7.6,3.8s0.6,5.4,0,8.2c-0.6,2.8-0.4,5.3,3.2,4.8
			c1.2-0.1,2.3-0.5,3.2-1.1"/>
		<path fill="none" stroke="#010202" stroke-width="1.5" stroke-miterlimit="10" d="M24.5,34.5c-0.1-0.3-0.2-0.6-0.3-0.9
			c-0.7-1.4-1.1-0.6-1.7-1.5c-0.6-0.9,0.6-1.9-1.7-2c-2.3-0.2-2.9-0.7-4.1-2.5c-1.3-1.8-1.9-2.2-1.9-2.2"/>
	</g>
	<g id="Binoculars_3_">
		
			<circle fill="none" stroke="#010202" stroke-width="1.5" stroke-linecap="round" stroke-miterlimit="10" cx="9.5" cy="48.2" r="5.5"/>
		<path fill="none" stroke="#010202" stroke-width="1.5" stroke-linecap="round" stroke-miterlimit="10" d="M17.1,44
			c-1.5-2.7-4.4-4.5-7.6-4.5c-4.8,0-8.7,3.9-8.7,8.7s3.9,8.7,8.7,8.7c4.6,0,8.4-3.5,8.7-8.1"/>
		<path fill="none" stroke="#010202" stroke-width="1.5" stroke-linecap="round" stroke-miterlimit="10" d="M18.6,41.3v-4
			c0,0-1.3-3.2-4.3-3.2c-2.8,0-4.2,1.4-4.2,1.4l-6,5.8"/>
		
			<line fill="none" stroke="#010202" stroke-width="1.5" stroke-linecap="round" stroke-miterlimit="10" x1="17.1" y1="44" x2="23.6" y2="44"/>
		
			<line fill="none" stroke="#010202" stroke-width="1.5" stroke-linecap="round" stroke-miterlimit="10" x1="18.2" y1="48.8" x2="22.5" y2="48.8"/>
		
			<line fill="none" stroke="#010202" stroke-width="1.5" stroke-linecap="round" stroke-miterlimit="10" x1="18.6" y1="41.3" x2="22.1" y2="41.3"/>
		
			<circle fill="none" stroke="#010202" stroke-width="1.5" stroke-linecap="round" stroke-miterlimit="10" cx="31.2" cy="48.2" r="5.5"/>
		<path fill="none" stroke="#010202" stroke-width="1.5" stroke-linecap="round" stroke-miterlimit="10" d="M23.6,44
			c1.5-2.7,4.4-4.5,7.6-4.5c4.8,0,8.7,3.9,8.7,8.7s-3.9,8.7-8.7,8.7c-4.6,0-8.4-3.5-8.7-8.1"/>
		<path fill="none" stroke="#010202" stroke-width="1.5" stroke-linecap="round" stroke-miterlimit="10" d="M22.1,41.3v-4
			c0,0,1.3-3.2,4.3-3.2c2.8,0,4.2,1.4,4.2,1.4l6,5.8"/>
	</g>
	<g id="Map_4_">
		<path fill="none" stroke="#010202" stroke-width="1.5" stroke-miterlimit="10" d="M48.5,22.4l8.1,6.3l8.5-6.5
			c0.7-0.5,1.6-0.5,2.2,0l8.5,6.5l8.1-6.3c0.6-0.4,1.5,0,1.5,0.8v26.7c0,0.3-0.2,0.6-0.4,0.8l-8,5.4c-0.7,0.5-1.6,0.5-2.3,0l-7.3-5
			c-0.7-0.5-1.6-0.5-2.2,0l-7.3,5c-0.7,0.5-1.6,0.5-2.3,0l-8-5.4c-0.3-0.2-0.4-0.5-0.4-0.8V23.2C47,22.4,47.9,22,48.5,22.4z"/>
		<g>
			<g>
				<path fill="none" stroke="#010202" stroke-width="1.5" stroke-linejoin="round" d="M85.3,42.2c0,0-0.6,0.3-1.9-0.3"/>
				<path fill="none" stroke="#010202" stroke-width="1.5" stroke-linejoin="round" stroke-dasharray="4.0703,2.0352" d="M81.7,40.8
					c-0.7-0.6-1.6-1.4-2.6-2.5c-4.3-4.9-6.8,7.1-11.8,7.1c-6,0-6-7.2-10.8-7.2c-3.3,0-4,4.1-5.4,6.5"/>
				<path fill="none" stroke="#010202" stroke-width="1.5" stroke-linejoin="round" d="M50.6,45.5c-0.5,0.5-1,0.9-1.7,0.9"/>
			</g>
		</g>
		<g>
			
				<line fill="none" stroke="#010202" stroke-width="1.5" stroke-linecap="round" stroke-miterlimit="10" x1="60.1" y1="32.2" x2="62.7" y2="34.7"/>
			
				<line fill="none" stroke="#010202" stroke-width="1.5" stroke-linecap="round" stroke-miterlimit="10" x1="60.1" y1="34.7" x2="62.7" y2="32.2"/>
		</g>
		<g>
			
				<line fill="none" stroke="#010202" stroke-width="1.5" stroke-linecap="round" stroke-miterlimit="10" x1="79.4" y1="46.5" x2="81.9" y2="49"/>
			
				<line fill="none" stroke="#010202" stroke-width="1.5" stroke-linecap="round" stroke-miterlimit="10" x1="79.4" y1="49" x2="81.9" y2="46.5"/>
		</g>
		<line fill="none" stroke="#010202" stroke-width="1.5" stroke-miterlimit="10" x1="56.6" y1="28.6" x2="56.6" y2="57"/>
		<line fill="none" stroke="#010202" stroke-width="1.5" stroke-miterlimit="10" x1="66.2" y1="50.5" x2="66.2" y2="21.8"/>
		<line fill="none" stroke="#010202" stroke-width="1.5" stroke-miterlimit="10" x1="75.8" y1="28.6" x2="75.8" y2="57"/>
	</g>
</g>
</svg>
