<?xml version="1.0" encoding="UTF-8" standalone="no"?>
<svg width="44px" height="44px" viewBox="0 0 44 44" version="1.1" xmlns="http://www.w3.org/2000/svg" xmlns:xlink="http://www.w3.org/1999/xlink">
    <!-- Generator: Sketch 3.8.3 (29802) - http://www.bohemiancoding.com/sketch -->
    <title>facebook</title>
    <desc>Created with Sketch.</desc>
    <defs></defs>
    <g id="Page-1" stroke="none" stroke-width="1" fill="none" fill-rule="evenodd">
        <g id="share-icons" transform="translate(-145.000000, -10.000000)" fill="#3F66A9">
            <path d="M145,32 C145,19.8497355 154.847064,10 167,10 C179.150264,10 189,19.847064 189,32 C189,44.1502645 179.152936,54 167,54 C154.849736,54 145,44.152936 145,32 Z M172.265332,19.0960733 C171.900302,19.0419948 170.642975,18.9338377 169.182855,18.9338377 C166.127417,18.9338377 164.031873,20.7995476 164.031873,24.2200157 L164.031873,27.1672966 L160.584366,27.1672966 L160.584366,31.1691091 L164.031873,31.1691091 L164.031873,41.4305135 L168.168882,41.4305135 L168.168882,31.1691091 L171.60287,31.1691091 L172.130135,27.1672966 L168.168882,27.1672966 L168.168882,24.6120852 C168.168882,23.462916 168.479833,22.6652575 170.142749,22.6652575 L172.265332,22.6652575 L172.265332,19.0960733 Z" id="facebook"></path>
        </g>
    </g>
</svg>