<?xml version="1.0" encoding="UTF-8" standalone="no"?>
<svg width="44px" height="44px" viewBox="0 0 44 44" version="1.1" xmlns="http://www.w3.org/2000/svg" xmlns:xlink="http://www.w3.org/1999/xlink">
    <!-- Generator: Sketch 3.8.3 (29802) - http://www.bohemiancoding.com/sketch -->
    <title>linkedin</title>
    <desc>Created with Sketch.</desc>
    <defs></defs>
    <g id="Page-1" stroke="none" stroke-width="1" fill="none" fill-rule="evenodd">
        <g id="share-icons" transform="translate(-81.000000, -10.000000)" fill="#1686B0">
            <path d="M81,32 C81,19.8497355 90.847064,10 103,10 C115.150264,10 125,19.847064 125,32 C125,44.1502645 115.152936,54 103,54 C90.8497355,54 81,44.152936 81,32 Z M97.141524,27.3790019 L92.279911,27.3790019 L92.279911,41.9785728 L97.141524,41.9785728 L97.141524,27.3790019 Z M97.4508994,22.8709608 C97.4361672,21.4419412 96.404916,20.3517613 94.7401818,20.3517613 C93.0901799,20.3517613 92,21.4419412 92,22.8709608 C92,24.270516 93.0459834,25.3901602 94.6812532,25.3901602 L94.7107175,25.3901602 C96.404916,25.3901602 97.4656315,24.270516 97.4508994,22.8709608 Z M114.628598,33.6107057 C114.628598,29.1321289 112.241988,27.0401622 109.04511,27.0401622 C106.422785,27.0401622 105.273677,28.498646 104.640194,29.500433 L104.669658,29.500433 L104.669658,27.3790019 L99.8227772,27.3790019 C99.8227772,27.3790019 99.8817058,28.7490928 99.8227772,41.9785728 L104.669658,41.9785728 L104.669658,33.8316881 C104.669658,33.3897233 104.713854,32.9624907 104.831712,32.6383831 C105.185284,31.7691857 105.98082,30.8705239 107.321447,30.8705239 C109.074574,30.8705239 109.781718,32.2111505 109.781718,34.1705278 L109.781718,41.9785728 L114.628598,41.9785728 L114.628598,33.6107057 Z" id="linkedin"></path>
        </g>
    </g>
</svg>