<?xml version="1.0" encoding="utf-8"?>
<!-- Generator: Adobe Illustrator 18.0.0, SVG Export Plug-In . SVG Version: 6.00 Build 0)  -->
<!DOCTYPE svg PUBLIC "-//W3C//DTD SVG 1.1//EN" "http://www.w3.org/Graphics/SVG/1.1/DTD/svg11.dtd">
<svg version="1.1" id="Layer_1" xmlns="http://www.w3.org/2000/svg" xmlns:xlink="http://www.w3.org/1999/xlink" x="0px" y="0px"
	 viewBox="0 0 55.1 55.1" enable-background="new 0 0 55.1 55.1" xml:space="preserve">
<g>
	<g>
		<polygon fill="#FFCB06" points="3.2,0 30.2,0 42.7,13.5 27.5,27.5 		"/>
		<polygon fill="#D2A12A" points="27.5,27.5 43,13.8 30.2,0 		"/>
	</g>
	<g>
		<polygon fill="#B14290" points="55.1,3.1 55.1,30.1 41.2,43.1 27.5,27.5 		"/>
		<polygon fill="#8A3777" points="27.5,27.5 41.2,43.1 55.1,30.1 		"/>
	</g>
	<g>
		<polygon fill="#E41A53" points="51.9,55.1 24.9,55.1 12.2,41.1 27.5,27.5 		"/>
		<polygon fill="#B61E4A" points="27.5,27.5 12.2,41.1 24.9,55.1 		"/>
	</g>
	<g>
		<polygon fill="#02ACB9" points="0,51.9 0,24.9 13.8,12 27.5,27.5 		"/>
		<polygon fill="#088A8C" points="27.5,27.5 13.8,12.1 0,24.9 		"/>
	</g>
	<circle fill="#2B3239" cx="27.6" cy="27.6" r="3"/>
</g>
</svg>
