<?xml version="1.0" encoding="UTF-8" standalone="no"?>
<svg width="177px" height="32px" viewBox="0 0 177 32" version="1.1" xmlns="http://www.w3.org/2000/svg" xmlns:xlink="http://www.w3.org/1999/xlink">
    <!-- Generator: Sketch 3.8.3 (29802) - http://www.bohemiancoding.com/sketch -->
    <title>nkd+wordpress=insights</title>
    <desc>Created with Sketch.</desc>
    <defs></defs>
    <g id="Page-1" stroke="none" stroke-width="1" fill="none" fill-rule="evenodd">
        <g id="Article-post-with-download" transform="translate(-42.000000, -22.000000)">
            <g id="top-nav">
                <g id="nkd+wordpress=insights" transform="translate(42.000000, 22.000000)">
                    <path d="M46.1763692,27.0837865 L37.3283692,16.3010173 L46.1763692,5.51701725 C47.1585231,4.31947879 46.9616,2.57055571 45.7357538,1.61055571 C44.5099077,0.650555712 42.7203692,0.843786482 41.7369846,2.04132494 L30.0372923,16.3010173 L41.7369846,30.5594788 C42.2994462,31.2450173 43.1252923,31.6007096 43.9585231,31.6007096 C44.5825231,31.6007096 45.2114462,31.4013249 45.7357538,30.990248 C46.9616,30.030248 47.1585231,28.2813249 46.1763692,27.0837865 Z M72.6226462,29.5904942 C76.9032615,27.2015711 79.0743385,22.7301865 79.0743385,16.300648 C79.0743385,9.81203264 76.8651077,5.30987879 72.5106462,2.92095571 C69.0078769,1.00095571 65.0521846,1.00095571 62.4343385,1.00095571 L56.1672615,1.00095571 L43.4288,16.3043403 L56.1721846,31.5375711 L62.6460308,31.5375711 C65.0731077,31.5375711 69.1346462,31.5375711 72.6226462,29.5904942 Z M50.7691077,16.2957249 L58.8737231,6.55787879 L62.4343385,6.55787879 C64.5808,6.55787879 67.5198769,6.55787879 69.7254154,7.76772494 C72.1881846,9.11787879 73.3857231,11.9092634 73.3857231,16.300648 C73.3857231,20.6501865 72.2128,23.4181865 69.8004923,24.764648 C67.6244923,25.9794173 64.7469538,25.9794173 62.6460308,25.9794173 L58.8700308,25.9794173 L50.7691077,16.2957249 Z M24.7310769,31.4393557 C25.8646154,31.0442788 26.6203077,29.9968942 26.6203077,28.8215096 L26.6203077,3.77904802 C26.6203077,2.24427879 25.3464615,1.00120187 23.776,1.00120187 C22.2055385,1.00120187 20.9316923,2.24427879 20.9316923,3.77904802 L20.9316923,21.0258173 L5.04738462,2.02150956 C4.28676923,1.1119711 3.02276923,0.767355712 1.88923077,1.16120187 C0.756923077,1.55627879 0,2.6036634 0,3.77904802 L0,19.7925865 C0,21.3273557 1.27384615,22.5704326 2.84430769,22.5704326 C4.41476923,22.5704326 5.68861538,21.3273557 5.68861538,19.7925865 L5.68861538,11.5759711 L21.5729231,30.579048 C22.1243077,31.2387403 22.9390769,31.6005865 23.7772308,31.6005865 C24.096,31.6005865 24.4184615,31.5476634 24.7310769,31.4393557 Z" id="Combined-Shape" fill="#FEFEFE"></path>
                    <polygon id="+" fill="#FFFFFF" points="92.1507538 10 92.1507538 14.356 96.2207538 14.356 96.2207538 16.798 92.1507538 16.798 92.1507538 21.176 89.3787538 21.176 89.3787538 16.798 85.3307538 16.798 85.3307538 14.356 89.3787538 14.356 89.3787538 10"></polygon>
                    <path d="M134.477169,16 C134.477169,7.168 127.309169,0 118.477169,0 C109.645169,0 102.477169,7.168 102.477169,16 C102.477169,24.832 109.645169,32 118.477169,32 C127.309169,32 134.477169,24.832 134.477169,16 L134.477169,16 Z M118.477169,1.616 C126.429169,1.616 132.861169,8.048 132.861169,16 C132.861169,23.952 126.429169,30.384 118.477169,30.384 C110.525169,30.384 104.093169,23.952 104.093169,16 C104.093169,8.048 110.525169,1.616 118.477169,1.616 L118.477169,1.616 Z M115.293169,23.712 L110.413169,10.576 C111.197169,10.528 112.093169,10.448 112.093169,10.448 C112.781169,10.368 112.701169,8.832 111.997169,8.864 C111.997169,8.864 109.933169,9.024 108.589169,9.024 C108.349169,9.024 108.061169,9.024 107.757169,9.008 C110.061169,5.536 113.997169,3.248 118.477169,3.248 C121.821169,3.248 124.861169,4.512 127.133169,6.592 C126.173169,6.464 124.813169,7.152 124.813169,8.864 C124.813169,9.92 125.421169,10.816 126.077169,11.872 C126.573169,12.736 126.877169,13.824 126.877169,15.408 C126.877169,17.552 124.845169,22.576 124.845169,22.576 L120.509169,10.576 C121.277169,10.528 121.709169,10.32 121.709169,10.32 C122.397169,10.24 122.317169,8.56 121.629169,8.592 C121.629169,8.592 119.549169,8.768 118.205169,8.768 C116.957169,8.768 114.829169,8.592 114.829169,8.592 C114.141169,8.56 114.061169,10.288 114.749169,10.32 L116.093169,10.448 L117.885169,15.312 L115.293169,23.712 Z M124.925169,27.152 L129.101169,16 C129.101169,16 130.173169,13.296 129.725169,9.904 C130.733169,11.728 131.229169,13.776 131.229169,16 C131.229169,20.736 128.733169,24.928 124.925169,27.152 L124.925169,27.152 Z M106.765169,10.832 L112.877169,27.6 C108.605169,25.52 105.725169,21.072 105.725169,16 C105.725169,14.144 106.045169,12.432 106.765169,10.832 L106.765169,10.832 Z M118.685169,18.08 L122.349169,28.08 C121.149169,28.512 119.837169,28.752 118.477169,28.752 C117.325169,28.752 116.221169,28.576 115.181169,28.272 L118.685169,18.08 Z" id="Shape" fill="#FFFFFF"></path>
                    <path d="M140.733585,17.037 L150.743585,17.037 L150.743585,19.479 L140.733585,19.479 L140.733585,17.037 Z M140.733585,13 L150.743585,13 L150.743585,15.453 L140.733585,15.453 L140.733585,13 Z" id="=" fill="#FFFFFF"></path>
                    <path d="M166.991111,3.3553407e-15 C172.52,3.3553407e-15 177,4.48 177,9.99111111 C177,13.2622222 173.391111,18.1333333 173.391111,18.1333333 C172.804444,18.9155556 172.324444,20.3555556 172.324444,21.3333333 L172.324444,23.1111111 C172.324444,24.0888889 171.524444,24.8888889 170.546667,24.8888889 L163.435556,24.8888889 C162.457778,24.8888889 161.657778,24.0888889 161.657778,23.1111111 L161.657778,21.3333333 C161.657778,20.3555556 161.177778,18.9155556 160.591111,18.1333333 C160.591111,18.1333333 157,13.2622222 157,9.99111111 C157,4.48 161.462222,1.77635684e-15 166.991111,1.77635684e-15 L166.991111,3.3553407e-15 Z M161.657778,28.2133333 L161.657778,26.6666667 L172.324444,26.6666667 L172.324444,28.2133333 C172.324444,29.3155556 172.093333,30.2222222 170.991111,30.2222222 L170.546667,30.2222222 C170.546667,31.3244444 169.835556,32 168.733333,32 L165.177778,32 C164.093333,32 163.435556,31.3244444 163.435556,30.2222222 L162.991111,30.2222222 C161.888889,30.2222222 161.657778,29.3155556 161.657778,28.2133333 L161.657778,28.2133333 Z" id="Shape" fill="#FFFFFF"></path>
                </g>
            </g>
        </g>
    </g>
</svg>