<?xml version="1.0" encoding="UTF-8" standalone="no"?>
<svg width="156px" height="60px" viewBox="0 0 156 60" version="1.1" xmlns="http://www.w3.org/2000/svg" xmlns:xlink="http://www.w3.org/1999/xlink">
    <!-- Generator: Sketch 3.8.3 (29802) - http://www.bohemiancoding.com/sketch -->
    <title>Combined Shape</title>
    <desc>Created with Sketch.</desc>
    <defs></defs>
    <g id="Page-1" stroke="none" stroke-width="1" fill="none" fill-rule="evenodd">
        <path d="M90.539801,51.1434935 L73.1911837,30.0012989 L90.539801,8.8566912 C92.4655482,6.50863102 92.0794335,3.0794496 89.6758693,1.1971403 C87.2723051,-0.68516899 83.7634875,-0.306293914 81.8353271,2.04176627 L58.8952859,30.0012989 L81.8353271,57.9584184 C82.9381673,59.3025803 84.5574359,60 86.1911839,60 C87.4146849,60 88.6478388,59.6090588 89.6758693,58.8030443 C92.0794335,56.9207351 92.4655482,53.4915536 90.539801,51.1434935 Z M142.394044,56.0584926 C150.787212,51.3744383 155.044127,42.6072208 155.044127,30.000575 C155.044127,17.2780947 150.712403,8.45054677 142.174441,3.76649249 C135.306425,0.00187390252 127.550346,0.00187390252 122.417433,0.00187390252 L110.129332,0.00187390252 L85.1525353,30.0078146 L110.138985,59.876202 L122.832506,59.876202 C127.59137,59.876202 135.554986,59.876202 142.394044,56.0584926 Z M99.5449617,29.9909221 L115.435996,10.8975489 L122.417433,10.8975489 C126.626083,10.8975489 132.388846,10.8975489 136.713331,13.2697412 C141.542178,15.9170403 143.890238,21.3902166 143.890238,30.000575 C143.890238,38.528884 141.590442,43.9562091 136.860537,46.5962686 C132.593969,48.9781138 126.951868,48.9781138 122.832506,48.9781138 L115.428756,48.9781138 L99.5449617,29.9909221 Z M48.4911833,59.6836272 C50.7137562,58.9089846 52.1954714,56.8553369 52.1954714,54.5507146 L52.1954714,5.44898741 C52.1954714,2.43970576 49.6977918,0.00235654593 46.6185268,0.00235654593 C43.5392619,0.00235654593 41.0415823,2.43970576 41.0415823,5.44898741 L41.0415823,39.2653978 L9.89660309,2.00291347 C8.40523496,0.21954608 5.92686106,-0.456154692 3.70428816,0.316074762 C1.48412848,1.09071743 0,3.14436514 0,5.44898741 L0,36.8473544 C0,39.856636 2.49767964,42.2939852 5.57694459,42.2939852 C8.65620953,42.2939852 11.1538892,39.856636 11.1538892,36.8473544 L11.1538892,20.7367174 L42.2988683,57.9967885 C43.3799896,59.2902729 44.9775393,59.9997587 46.6209401,59.9997587 C47.2459633,59.9997587 47.8782261,59.8959903 48.4911833,59.6836272 Z" id="Combined-Shape" fill="#21333A"></path>
    </g>
</svg>