<?xml version="1.0" encoding="utf-8"?>
<!-- Generator: Adobe Illustrator 18.1.0, SVG Export Plug-In . SVG Version: 6.00 Build 0)  -->
<!DOCTYPE svg PUBLIC "-//W3C//DTD SVG 1.1//EN" "http://www.w3.org/Graphics/SVG/1.1/DTD/svg11.dtd">
<svg version="1.1" id="Layer_1" xmlns="http://www.w3.org/2000/svg" xmlns:xlink="http://www.w3.org/1999/xlink" x="0px" y="0px"
	 width="36.5px" height="86.6px" viewBox="-2176 412.4 64 103.5" enable-background="new -2176 412.4 64 103.5" xml:space="preserve">
<g>
	
		<circle fill="none" stroke="#010202" stroke-width="1.5" stroke-linecap="round" stroke-miterlimit="10" cx="-2153.6" cy="498.2" r="15.4"/>
	
		<ellipse transform="matrix(0.9443 -0.329 0.329 0.9443 -276.6169 -682.6323)" fill="none" stroke="#010202" stroke-width="1.5" stroke-linecap="round" stroke-miterlimit="10" cx="-2155.2" cy="476" rx="6.2" ry="3.5"/>
	
		<ellipse transform="matrix(0.9852 0.1716 -0.1716 0.9852 46.4663 374.7255)" fill="none" stroke="#010202" stroke-width="1.5" stroke-linecap="round" stroke-miterlimit="10" cx="-2144.3" cy="456.1" rx="5.5" ry="3.1"/>
	<path fill="none" stroke="#010202" stroke-width="1.5" stroke-linecap="round" stroke-miterlimit="10" d="M-2149.3,473.9
		c0,0-2.7-22.1-11.2-24.8c0,0-3.9-1.2-3.8-4.7s-2.7-6.5-6.4-5.5c-3.8,1-4.4,7-1,9c0,0,2.5,1.6,1,5.3c-1.6,3.8-1.1,12.8,10.3,25.7"/>
	<path fill="none" stroke="#010202" stroke-width="1.5" stroke-linecap="round" stroke-miterlimit="10" d="M-2170.8,448.8
		c0,0,1.6-4.7,6.7-3"/>
	<path fill="none" stroke="#010202" stroke-width="1.5" stroke-linecap="round" stroke-miterlimit="10" d="M-2170.3,451.6
		c0,0,2.5-4.7,7.7-3.7"/>
	<path fill="none" stroke="#010202" stroke-width="1.5" stroke-linecap="round" stroke-miterlimit="10" d="M-2138.9,457.1
		c0,0,10.1-20.1,5.6-27.8c-0.9-1.5-1.3-4.3,0.6-6.9s1.5-6.4-1.9-7.6c-3.4-1.3-7.1,2.9-5.5,6.2c0,0,1,3.5-2.2,5.5s-9.4,5.1-7.6,28.4"
		/>
	<path fill="none" stroke="#010202" stroke-width="1.5" stroke-linecap="round" stroke-miterlimit="10" d="M-2139.9,423.4
		c0,0,3.9-1.4,5.9,1.5"/>
	<path fill="none" stroke="#010202" stroke-width="1.5" stroke-linecap="round" stroke-miterlimit="10" d="M-2142.3,426.5
		c0,0,5.4-1.4,8.7,2.2"/>
	<path fill="none" stroke="#010202" stroke-width="1.5" stroke-linecap="round" stroke-miterlimit="10" d="M-2145,480.9
		c0,0,0.4,4.5,6.2,4.5c0,0,19.3-10.6,17.8-25.7c0,0-0.6-5.3,3.5-6.9c3.3-1.3,6.7-7.7,1.6-10.7c-4.9-2.8-8.4,1.7-9,8.3
		c-0.2,1.7-0.9,3.7-5,4.7C-2133.9,456.2-2140.2,462-2145,480.9z"/>
	<path fill="none" stroke="#010202" stroke-width="1.5" stroke-linecap="round" stroke-miterlimit="10" d="M-2125.3,452.3
		c0,0,0.8,2.2,5,3.4"/>
	<path fill="none" stroke="#010202" stroke-width="1.5" stroke-linecap="round" stroke-miterlimit="10" d="M-2128.2,454.7
		c0,0,2.2,4.3,7.2,4.6"/>
	
		<circle fill="none" stroke="#010202" stroke-width="1.5" stroke-linecap="round" stroke-miterlimit="10" cx="-2155.4" cy="489.3" r="2.2"/>
	
		<circle fill="none" stroke="#010202" stroke-width="1.5" stroke-linecap="round" stroke-miterlimit="10" cx="-2148" cy="493.5" r="2.2"/>
	
		<circle fill="none" stroke="#010202" stroke-width="1.5" stroke-linecap="round" stroke-miterlimit="10" cx="-2156.3" cy="497.1" r="2.2"/>
</g>
</svg>
