<?xml version="1.0" encoding="utf-8"?>
<!-- Generator: Adobe Illustrator 18.0.0, SVG Export Plug-In . SVG Version: 6.00 Build 0)  -->
<!DOCTYPE svg PUBLIC "-//W3C//DTD SVG 1.1//EN" "http://www.w3.org/Graphics/SVG/1.1/DTD/svg11.dtd">
<svg version="1.1" id="Layer_1" xmlns="http://www.w3.org/2000/svg" xmlns:xlink="http://www.w3.org/1999/xlink" x="0px" y="0px"
	 width="96.7px" height="89px" viewBox="0 0 96.7 89" enable-background="new 0 0 96.7 89" xml:space="preserve">
<g>
	<path fill="none" stroke="#010202" stroke-width="1.5" stroke-linecap="round" stroke-miterlimit="10" d="M37.9,63.9
		c-0.6,1.3-1,2.8-1,4.3c0,5.4,4.4,9.8,9.8,9.8s9.8-4.4,9.8-9.8s-4.4-9.8-9.8-9.8c-2.6,0-5,1-6.7,2.7"/>
	<path fill="none" stroke="#010202" stroke-width="1.5" stroke-linecap="round" stroke-miterlimit="10" d="M37.4,71.5
		c0,0-2.3,0-7.3,0c0,0-10.5-0.3-10.5,2.8c0,1.6,2.4,1.5,2.4,1.5s-1.9,4,8.2,3c0,0,0.7,4.1,11.4,2.1c0,0,1.3,2.4,7.1,2.1
		c4.5-0.3,4.3-2.2,4.3-2.2S63,83,64,78.7c0,0,8.9,0.7,7.9-2.9c0,0,1.9-0.4,1.9-1.5c0-1-1.5-2.8-9.2-2.8h-8.7"/>
	<path fill="none" stroke="#010202" stroke-width="1.5" stroke-linecap="round" stroke-miterlimit="10" d="M22.1,72.2
		c0,0-5.2-2.4-5.2-7.3c0-3.3,2.6-4.5,2.6-4.5s-3-5.1,0-8.9s7.8-2.1,7.8-2.1s-1-6.5,4.6-8.4c5.6-1.9,7.8,2.5,7.8,2.5
		s-0.1-8.4,7.7-7.9c6.5,0.4,5.9,7.9,5.9,7.9s3.7-4.7,9.2-2.3c5,2.3,3.7,8.4,3.7,8.4s5.3-2,8.4,2.7s-0.9,8-0.9,8s4.4,1,3.7,5.8
		c-0.7,4.8-7.3,5.8-7.3,5.8"/>
	<path fill="none" stroke="#010202" stroke-width="1.5" stroke-linecap="round" stroke-miterlimit="10" d="M37.9,72.6
		c0,0-2.5,0.1-2.5,2.5c0,2.4,5.2,4,12.1,4s7.1-3.1,6.1-4"/>
	<path fill="none" stroke="#010202" stroke-width="1.5" stroke-linecap="round" stroke-miterlimit="10" d="M19.6,74.3
		c0,0,1.3,13.9,27.7,13.9c25.2,0,26.5-13.9,26.5-13.9"/>
	<path fill="none" stroke="#010202" stroke-width="1.5" stroke-linecap="round" stroke-miterlimit="10" d="M48.1,60.9
		c0,0,4.7,0.7,5.4,5.3"/>
	<path fill="none" stroke="#010202" stroke-width="1.5" stroke-linecap="round" stroke-miterlimit="10" d="M53.5,68.2
		c0,0,0.2,1.2-0.4,2"/>
	
		<line fill="none" stroke="#010202" stroke-width="1.5" stroke-linecap="round" stroke-miterlimit="10" x1="39.8" y1="43.4" x2="42.4" y2="53.9"/>
	<path fill="none" stroke="#010202" stroke-width="1.5" stroke-linecap="round" stroke-miterlimit="10" d="M53.6,43.3
		c-0.1-0.1-2.7,10.6-2.7,10.6"/>
	<path fill="none" stroke="#010202" stroke-width="1.5" stroke-linecap="round" stroke-miterlimit="10" d="M66.3,49.6
		c0,0-7.9,8.8-8.5,9.5"/>
	
		<line fill="none" stroke="#010202" stroke-width="1.5" stroke-linecap="round" stroke-miterlimit="10" x1="73.8" y1="60.4" x2="61.1" y2="64.6"/>
	
		<line fill="none" stroke="#010202" stroke-width="1.5" stroke-linecap="round" stroke-miterlimit="10" x1="27.3" y1="49.3" x2="35.4" y2="58.8"/>
	
		<line fill="none" stroke="#010202" stroke-width="1.5" stroke-linecap="round" stroke-miterlimit="10" x1="19.6" y1="60.4" x2="31.9" y2="64.8"/>
	<path fill="none" stroke="#010202" stroke-width="1.5" stroke-miterlimit="10" d="M64.2,78.8c0,0,1.2,1-0.2,3.2
		c-2.8,4.4-9.5,5.8-9.5,5.8"/>
	<path fill="none" stroke="#010202" stroke-width="1.5" stroke-miterlimit="10" d="M30.1,78.8c0,0-1.2,1,0.2,3.2
		c2.8,4.4,9.5,5.8,9.5,5.8"/>
	<path fill="none" stroke="#010202" stroke-width="1.5" stroke-miterlimit="10" d="M41.5,80.9c0,0-2.5,1,2.5,7.3"/>
	<path fill="none" stroke="#010202" stroke-width="1.5" stroke-miterlimit="10" d="M53,80.9c0,0,2.5,1-2.5,7.3"/>
	<path fill="none" stroke="#010202" stroke-width="1.5" stroke-miterlimit="10" d="M22.1,72.2c0,0-4.2-3.9-3-7.3
		c1.1-3.3,4.7-3,4.7-3"/>
	<path fill="none" stroke="#010202" stroke-width="1.5" stroke-miterlimit="10" d="M22.3,61.4c0,0-2.7-4-0.2-7.5
		c2.6-3.7,7.3-1.9,7.3-1.9"/>
	<path fill="none" stroke="#010202" stroke-width="1.5" stroke-miterlimit="10" d="M29.4,51.5c0,0-1-5.3,2.9-7.3
		c5-2.6,8.1,1.9,8.1,1.9"/>
	<path fill="none" stroke="#010202" stroke-width="1.5" stroke-miterlimit="10" d="M40.4,46.1c0,0,1.3-7.6,6.3-7.6
		c5.9,0,6.3,6.8,6.3,6.8"/>
	<path fill="none" stroke="#010202" stroke-width="1.5" stroke-linecap="round" stroke-miterlimit="10" d="M53,45.2
		c0,0,6.1-4.6,9.3-1.3c3.3,3.5,2.4,7.7,2.4,7.7"/>
	<path fill="none" stroke="#010202" stroke-width="1.5" stroke-linecap="round" stroke-miterlimit="10" d="M64.8,51.5
		c0,0,5.4-1.4,7.4,3c1.4,3.1-1.1,6.4-1.1,6.4"/>
	<path fill="none" stroke="#010202" stroke-width="1.5" stroke-linecap="round" stroke-miterlimit="10" d="M70,61.6
		c0,0,4.7-0.5,5.2,3.1S74,70.1,72,71.5"/>
	<g>
		
			<path fill="none" stroke="#010202" stroke-width="1.5" stroke-linecap="round" stroke-linejoin="round" stroke-miterlimit="10" d="
			M43,62.2c-3.2,0-4.5,1.3-4.5,4.5c0-3.2-1.3-4.5-4.5-4.5c3.2,0,4.5-1.3,4.5-4.5C38.5,60.9,39.8,62.2,43,62.2z"/>
	</g>
	<g>
		
			<line fill="none" stroke="#010202" stroke-width="1.5" stroke-linecap="round" stroke-miterlimit="10" x1="80.1" y1="50.2" x2="91.4" y2="46.1"/>
		
			<line fill="none" stroke="#010202" stroke-width="1.5" stroke-linecap="round" stroke-miterlimit="10" x1="47.2" y1="32.1" x2="47.2" y2="0.8"/>
		
			<line fill="none" stroke="#010202" stroke-width="1.5" stroke-linecap="round" stroke-miterlimit="10" x1="75.2" y1="43.6" x2="78.1" y2="42"/>
		
			<line fill="none" stroke="#010202" stroke-width="1.5" stroke-linecap="round" stroke-miterlimit="10" x1="82.1" y1="39.4" x2="96" y2="29.6"/>
		
			<line fill="none" stroke="#010202" stroke-width="1.5" stroke-linecap="round" stroke-miterlimit="10" x1="70" y1="38.4" x2="79.9" y2="28.7"/>
		
			<line fill="none" stroke="#010202" stroke-width="1.5" stroke-linecap="round" stroke-miterlimit="10" x1="63.5" y1="34.7" x2="73.8" y2="16.4"/>
		
			<line fill="none" stroke="#010202" stroke-width="1.5" stroke-linecap="round" stroke-miterlimit="10" x1="56.2" y1="32.9" x2="58.2" y2="25.1"/>
		
			<line fill="none" stroke="#010202" stroke-width="1.5" stroke-linecap="round" stroke-miterlimit="10" x1="59.7" y1="20.8" x2="60.4" y2="18.2"/>
		
			<line fill="none" stroke="#010202" stroke-width="1.5" stroke-linecap="round" stroke-miterlimit="10" x1="39.4" y1="32.8" x2="35.2" y2="22.2"/>
		
			<line fill="none" stroke="#010202" stroke-width="1.5" stroke-linecap="round" stroke-miterlimit="10" x1="31.3" y1="35.2" x2="27.9" y2="29.6"/>
		
			<line fill="none" stroke="#010202" stroke-width="1.5" stroke-linecap="round" stroke-miterlimit="10" x1="25.5" y1="25.8" x2="18" y2="14.7"/>
		
			<line fill="none" stroke="#010202" stroke-width="1.5" stroke-linecap="round" stroke-miterlimit="10" x1="23.9" y1="37.8" x2="18" y2="31.7"/>
		
			<line fill="none" stroke="#010202" stroke-width="1.5" stroke-linecap="round" stroke-miterlimit="10" x1="19.4" y1="43.3" x2="17.2" y2="42"/>
		
			<line fill="none" stroke="#010202" stroke-width="1.5" stroke-linecap="round" stroke-miterlimit="10" x1="12.6" y1="39.4" x2="0.8" y2="31.7"/>
		
			<line fill="none" stroke="#010202" stroke-width="1.5" stroke-linecap="round" stroke-miterlimit="10" x1="14.4" y1="49.8" x2="3.2" y2="46.1"/>
	</g>
</g>
</svg>
