<?xml version="1.0" encoding="utf-8"?>
<!-- Generator: Adobe Illustrator 18.0.0, SVG Export Plug-In . SVG Version: 6.00 Build 0)  -->
<!DOCTYPE svg PUBLIC "-//W3C//DTD SVG 1.1//EN" "http://www.w3.org/Graphics/SVG/1.1/DTD/svg11.dtd">
<svg version="1.1" id="Layer_1" xmlns="http://www.w3.org/2000/svg" xmlns:xlink="http://www.w3.org/1999/xlink" x="0px" y="0px"
	 width="64px" height="103.5px" viewBox="0 0 64 103.5" enable-background="new 0 0 64 103.5" xml:space="preserve">
<g>
	<path fill="none" stroke="#010202" stroke-width="1.5" stroke-linecap="round" stroke-miterlimit="10" d="M59.1,17.4
		c-1.1-7.2-6.4-9.3-9.2-6.2c0,0-2.7-10.5-19.9-10.5C17.9,0.8,8.8,6.4,5.9,16.6"/>
	<path fill="none" stroke="#010202" stroke-width="1.5" stroke-linecap="round" stroke-miterlimit="10" d="M50.1,29.9
		c0.8,0.7,1.6,1.3,2.6,1.7c0,0,3.5-0.9,4.5,1.4c0,0,0.6-0.9,1.2-3.3"/>
	<path fill="none" stroke="#010202" stroke-width="1.5" stroke-linecap="round" stroke-miterlimit="10" d="M5.4,29.1
		c-0.2,0.9-0.2,4.3,0,5.1c0,0,9.3,0.4,18.7-4.2"/>
	<path fill="none" stroke="#010202" stroke-width="1.5" stroke-linecap="round" stroke-miterlimit="10" d="M10.6,34.3
		c0,0-0.6,12.5,8.7,22.1c8.3,8.6,12.8,8.5,12.8,8.5S39,64.4,45.6,56s7-15.8,7-24.4"/>
	<path fill="none" stroke="#010202" stroke-width="1.5" stroke-linecap="round" stroke-miterlimit="10" d="M12.3,44.9
		c0,0-8.2,0-6.9-10.7"/>
	<path fill="none" stroke="#010202" stroke-width="1.5" stroke-linecap="round" stroke-miterlimit="10" d="M51.3,44.9
		c0.9-0.3,9.1-0.8,5.9-12"/>
	<path fill="none" stroke="#010202" stroke-width="1.5" stroke-linecap="round" stroke-miterlimit="10" d="M7.3,42.7
		c0,0-0.6,9.8-6.1,11.8c0,0,7.8,9.9,19.5,3.2"/>
	<path fill="none" stroke="#010202" stroke-width="1.5" stroke-linecap="round" stroke-miterlimit="10" d="M56.7,42
		c0,0,0.6,10.5,6.1,12.6c0,0-6.8,9.5-19,3.5"/>
	<path fill="none" stroke="#010202" stroke-width="1.5" stroke-linecap="round" stroke-miterlimit="10" d="M6.7,16.4h50.8
		c0.9,0,1.7,0.7,1.7,1.7v10.1c0,0.9-0.7,1.7-1.7,1.7H6.7c-0.9,0-1.7-0.7-1.7-1.7V18C5.1,17.1,5.8,16.4,6.7,16.4z"/>
	<g>
		
			<line fill="none" stroke="#010202" stroke-width="1.5" stroke-linecap="round" stroke-miterlimit="10" x1="5.1" y1="20.8" x2="59.2" y2="20.8"/>
		
			<line fill="none" stroke="#010202" stroke-width="1.5" stroke-linecap="round" stroke-miterlimit="10" x1="5.1" y1="25.5" x2="59.2" y2="25.5"/>
	</g>
	
		<line fill="none" stroke="#010202" stroke-width="1.5" stroke-linecap="round" stroke-miterlimit="10" x1="6.8" y1="25.5" x2="12.3" y2="20.8"/>
	
		<line fill="none" stroke="#010202" stroke-width="1.5" stroke-linecap="round" stroke-miterlimit="10" x1="13.3" y1="25.5" x2="18.7" y2="20.8"/>
	
		<line fill="none" stroke="#010202" stroke-width="1.5" stroke-linecap="round" stroke-miterlimit="10" x1="19.7" y1="25.5" x2="25.2" y2="20.8"/>
	
		<line fill="none" stroke="#010202" stroke-width="1.5" stroke-linecap="round" stroke-miterlimit="10" x1="26.2" y1="25.5" x2="31.6" y2="20.8"/>
	
		<line fill="none" stroke="#010202" stroke-width="1.5" stroke-linecap="round" stroke-miterlimit="10" x1="32.6" y1="25.5" x2="38.1" y2="20.8"/>
	
		<line fill="none" stroke="#010202" stroke-width="1.5" stroke-linecap="round" stroke-miterlimit="10" x1="39.1" y1="25.5" x2="44.6" y2="20.8"/>
	
		<line fill="none" stroke="#010202" stroke-width="1.5" stroke-linecap="round" stroke-miterlimit="10" x1="45.6" y1="25.5" x2="51" y2="20.8"/>
	
		<line fill="none" stroke="#010202" stroke-width="1.5" stroke-linecap="round" stroke-miterlimit="10" x1="52" y1="25.5" x2="57.5" y2="20.8"/>
	<g>
		<g>
			<g>
				<circle fill="none" stroke="#010202" stroke-width="1.5" stroke-miterlimit="10" cx="31.8" cy="90" r="10.3"/>
				<circle fill="none" stroke="#010202" stroke-width="1.5" stroke-miterlimit="10" cx="31.8" cy="90" r="12.7"/>
			</g>
			<g>
				
					<line fill="none" stroke="#010202" stroke-width="1.5" stroke-linecap="round" stroke-miterlimit="10" x1="31" y1="90.6" x2="35.6" y2="85.8"/>
				
					<line fill="none" stroke="#010202" stroke-width="1.5" stroke-linecap="round" stroke-miterlimit="10" x1="32.5" y1="90.6" x2="29.4" y2="87.6"/>
			</g>
			<g>
				
					<line fill="none" stroke="#010202" stroke-width="1.5" stroke-linecap="round" stroke-miterlimit="10" x1="31.8" y1="82.9" x2="31.8" y2="81.2"/>
				
					<line fill="none" stroke="#010202" stroke-width="1.5" stroke-linecap="round" stroke-miterlimit="10" x1="31.8" y1="98.3" x2="31.8" y2="96.5"/>
				
					<line fill="none" stroke="#010202" stroke-width="1.5" stroke-linecap="round" stroke-miterlimit="10" x1="25" y1="89.7" x2="23.3" y2="89.7"/>
				
					<line fill="none" stroke="#010202" stroke-width="1.5" stroke-linecap="round" stroke-miterlimit="10" x1="40.4" y1="89.7" x2="38.6" y2="89.7"/>
				
					<line fill="none" stroke="#010202" stroke-width="1.5" stroke-linecap="round" stroke-miterlimit="10" x1="25.9" y1="86.4" x2="24.4" y2="85.5"/>
				
					<line fill="none" stroke="#010202" stroke-width="1.5" stroke-linecap="round" stroke-miterlimit="10" x1="39.3" y1="93.9" x2="37.8" y2="93"/>
				
					<line fill="none" stroke="#010202" stroke-width="1.5" stroke-linecap="round" stroke-miterlimit="10" x1="28.5" y1="95.6" x2="27.7" y2="97.2"/>
				
					<line fill="none" stroke="#010202" stroke-width="1.5" stroke-linecap="round" stroke-miterlimit="10" x1="36" y1="82.2" x2="35.2" y2="83.8"/>
				
					<line fill="none" stroke="#010202" stroke-width="1.5" stroke-linecap="round" stroke-miterlimit="10" x1="25.9" y1="86.4" x2="24.4" y2="85.5"/>
				
					<line fill="none" stroke="#010202" stroke-width="1.5" stroke-linecap="round" stroke-miterlimit="10" x1="39.3" y1="93.9" x2="37.8" y2="93"/>
				
					<line fill="none" stroke="#010202" stroke-width="1.5" stroke-linecap="round" stroke-miterlimit="10" x1="28.5" y1="95.6" x2="27.7" y2="97.2"/>
				
					<line fill="none" stroke="#010202" stroke-width="1.5" stroke-linecap="round" stroke-miterlimit="10" x1="36" y1="82.2" x2="35.2" y2="83.8"/>
				
					<line fill="none" stroke="#010202" stroke-width="1.5" stroke-linecap="round" stroke-miterlimit="10" x1="28.4" y1="83.9" x2="27.5" y2="82.4"/>
				
					<line fill="none" stroke="#010202" stroke-width="1.5" stroke-linecap="round" stroke-miterlimit="10" x1="36.2" y1="97.1" x2="35.3" y2="95.6"/>
				
					<line fill="none" stroke="#010202" stroke-width="1.5" stroke-linecap="round" stroke-miterlimit="10" x1="26" y1="93.2" x2="24.5" y2="94.1"/>
				
					<line fill="none" stroke="#010202" stroke-width="1.5" stroke-linecap="round" stroke-miterlimit="10" x1="39.2" y1="85.3" x2="37.7" y2="86.2"/>
			</g>
		</g>
		<circle fill="none" stroke="#010202" stroke-width="1.5" stroke-miterlimit="10" cx="31.8" cy="74.3" r="2.9"/>
		<line fill="none" stroke="#010202" stroke-width="1.5" stroke-miterlimit="10" x1="31.8" y1="74.3" x2="31.8" y2="77.2"/>
	</g>
	<polyline fill="none" stroke="#010202" stroke-width="1.5" stroke-linecap="round" stroke-miterlimit="10" points="20.8,57.8 
		31.9,70.9 43.8,58.1 	"/>
	<g>
		<path fill="none" stroke="#010202" stroke-width="1.5" stroke-miterlimit="10" d="M26,43h-7.2c-2.1,0-3.8-1.7-3.8-3.8v-2.7
			c0-2.1,1.7-3.8,3.8-3.8H26c2.1,0,3.8,1.7,3.8,3.8v2.7C29.8,41.3,28.1,43,26,43z"/>
		<path fill="none" stroke="#010202" stroke-width="1.5" stroke-miterlimit="10" d="M45.5,43h-7.2c-2.1,0-3.8-1.7-3.8-3.8v-2.7
			c0-2.1,1.7-3.8,3.8-3.8h7.2c2.1,0,3.8,1.7,3.8,3.8v2.7C49.3,41.3,47.6,43,45.5,43z"/>
		<path fill="none" stroke="#010202" stroke-width="1.5" stroke-miterlimit="10" d="M29.7,36.6c0,0,0-0.8,2.4-0.8s2.4,0.8,2.4,0.8"
			/>
	</g>
	<path fill="none" stroke="#010202" stroke-width="1.5" stroke-linecap="round" stroke-miterlimit="10" d="M27.3,55.5
		c0,0,2.3,1.2,5,1.2s4.5-1.2,4.5-1.2"/>
	<g>
		<path fill="none" stroke="#010202" stroke-width="1.5" stroke-linecap="round" stroke-miterlimit="10" d="M34.6,47.3
			c0.3,0.3,0.5,0.7,0.5,1.1c0,1.1-1.4,2.1-3.1,2.1S29,49.6,29,48.4c0-0.4,0.2-0.8,0.5-1.1"/>
	</g>
	<path fill="none" stroke="#010202" stroke-width="1.5" stroke-linecap="round" stroke-linejoin="bevel" stroke-miterlimit="10" d="
		M19.9,38.2c3.2,1.6,6.4,0,6.4,0"/>
	<path fill="none" stroke="#010202" stroke-width="1.5" stroke-linecap="round" stroke-linejoin="bevel" stroke-miterlimit="10" d="
		M38.1,38.2c3.2,1.6,6.4,0,6.4,0"/>
</g>
</svg>
