<svg width="30px" height="23px" viewBox="-1 2 30 23" version="1.1" xmlns="http://www.w3.org/2000/svg" xmlns:xlink="http://www.w3.org/1999/xlink">
    <!-- Generator: Sketch 3.8.3 (29802) - http://www.bohemiancoding.com/sketch -->
    <desc>Created with Sketch.</desc>
    <defs></defs>
    <path d="M8.01502762,2.03867391 L-0.000239047619,2.03867391 L-0.000239047619,9.89215217 C-0.000239047619,11.1858043 -0.000239047619,11.1858043 0.677460952,11.851413 L12.5868133,23.5107174 C13.2645133,24.1763261 13.2453895,24.1763261 13.9230895,23.5107174 L21.9192324,15.6948043 C22.5778086,15.0479783 22.5778086,15.010413 21.9001086,14.363587 L10.00988,2.70428261 C9.33218,2.05745652 9.31305619,2.03867391 8.01502762,2.03867391 M4.7042181,4.7738913 C5.73809905,4.7738913 6.58552286,5.60502174 6.58552286,6.62163043 C6.58552286,7.63706522 5.73809905,8.46936957 4.7042181,8.46936957 C3.6691419,8.46936957 2.82291333,7.63706522 2.82291333,6.62163043 C2.82291333,5.60502174 3.6691419,4.7738913 4.7042181,4.7738913 M13.6589419,2.03867391 L12.1350133,2.03867391 C12.1350133,2.03867391 12.1541371,2.05745652 12.8318371,2.70428261 L24.7220657,14.363587 C25.3997657,15.010413 25.3997657,15.0479783 24.7411895,15.6948043 L17.4980467,22.7899348 L18.2307276,23.5107174 C18.9084276,24.1763261 18.8893038,24.1763261 19.5670038,23.5107174 L27.5631467,15.6948043 C28.2217229,15.0479783 28.2217229,15.010413 27.5440229,14.363587 L15.6537943,2.70428261 C14.9760943,2.05745652 14.9569705,2.03867391 13.6589419,2.03867391" id="Fill-5" stroke="none" fill="#21333A" fill-rule="evenodd"></path>
</svg>