<?xml version="1.0" encoding="utf-8"?>
<!-- Generator: Adobe Illustrator 19.2.0, SVG Export Plug-In . SVG Version: 6.00 Build 0)  -->
<svg version="1.1" xmlns="http://www.w3.org/2000/svg" xmlns:xlink="http://www.w3.org/1999/xlink" x="0px" y="0px"
	 viewBox="0 0 200 302.9" style="enable-background:new 0 0 200 302.9;" xml:space="preserve">
<style type="text/css">
	.st0{fill:#1E2D33;}
	.st1{clip-path:url(#SVGID_2_);}
	.st2{clip-path:url(#SVGID_4_);fill:#E63A2F;}
	.st3{fill:none;stroke:#1E2D33;stroke-miterlimit:10;}
	.st4{clip-path:url(#SVGID_6_);}
	.st5{clip-path:url(#SVGID_8_);}
	.st6{fill:#E63A2F;}
	.st7{fill:#183642;}
	.st8{fill:#EBF0F3;}
</style>
<g id="Layer_1">
</g>
<g id="Layer_2">
	<rect x="-1537.8" y="610.6" style="fill:none;" width="221.3" height="226.2"/>
	<text transform="matrix(1 0 0 1 -1488.7961 627.9839)"><tspan x="0" y="0" class="st0" style="font-family:'Lato-Light'; font-size:23.8003px;">reduction in </tspan><tspan x="-26.3" y="28" class="st0" style="font-family:'Lato-Light'; font-size:23.8003px;">complaints about </tspan><tspan x="6.2" y="56" class="st0" style="font-family:'Lato-Light'; font-size:23.8003px;">cabin crew</tspan></text>
	<g>
		<defs>
			<path id="SVGID_1_" d="M-1416.4,411.4l-10.8,8.8l-10.8-8.8c-1.2-1-2.9-0.8-3.9,0.4c-1,1.2-0.8,3,0.4,4l14.3,11.7l14.3-11.7
				c0.7-0.6,1-1.4,1-2.2c0-0.6-0.2-1.3-0.6-1.8C-1413.4,410.6-1415.2,410.4-1416.4,411.4"/>
		</defs>
		<use xlink:href="#SVGID_1_"  style="overflow:visible;fill-rule:evenodd;clip-rule:evenodd;fill:#E63A2F;"/>
		<clipPath id="SVGID_2_">
			<use xlink:href="#SVGID_1_"  style="overflow:visible;"/>
		</clipPath>
		<g class="st1">
			<defs>
				<rect id="SVGID_3_" x="-1464.7" y="-524.4" width="3351" height="1024"/>
			</defs>
			<use xlink:href="#SVGID_3_"  style="overflow:visible;fill:#E63A2F;"/>
			<clipPath id="SVGID_4_">
				<use xlink:href="#SVGID_3_"  style="overflow:visible;"/>
			</clipPath>
			<rect x="-1447.4" y="405.8" class="st2" width="40.6" height="26.8"/>
		</g>
	</g>
	<text transform="matrix(1 0 0 1 -1489.2404 512.9984)"><tspan x="0" y="0" class="st0" style="font-family:'Lato-Heavy'; font-size:82.7683px;">20</tspan><tspan x="96" y="0" class="st0" style="font-family:'Lato-Heavy'; font-size:42.562px;">%</tspan></text>
	<circle class="st3" cx="-1427.1" cy="480.3" r="86.3"/>
	<g>
		<g>
			<defs>
				<path id="SVGID_5_" d="M1734.1-292.1l10.8-8.8l10.8,8.8c1.2,1,2.9,0.8,3.9-0.4c1-1.2,0.8-3-0.4-4l-14.3-11.7l-14.3,11.7
					c-0.7,0.6-1,1.4-1,2.2c0,0.6,0.2,1.3,0.6,1.8C1731.1-291.3,1732.9-291.1,1734.1-292.1"/>
			</defs>
			<use xlink:href="#SVGID_5_"  style="overflow:visible;fill-rule:evenodd;clip-rule:evenodd;fill:#E63A2F;"/>
			<clipPath id="SVGID_6_">
				<use xlink:href="#SVGID_5_"  style="overflow:visible;"/>
			</clipPath>
			<g class="st4">
				<defs>
					<rect id="SVGID_7_" x="-1568.6" y="-380.2" width="3351" height="1024"/>
				</defs>
				<use xlink:href="#SVGID_7_"  style="overflow:visible;fill:#E63A2F;"/>
				<clipPath id="SVGID_8_">
					<use xlink:href="#SVGID_7_"  style="overflow:visible;"/>
				</clipPath>
				<g class="st5">
					<rect x="1724.6" y="-313.2" class="st6" width="40.6" height="26.8"/>
				</g>
			</g>
		</g>
		<g>
			<path class="st0" d="M1715.2-263.4v3.8c0,1.1-0.1,2-0.4,2.7c-0.2,0.7-0.5,1.3-0.7,1.7l-16.8,35.1c-0.4,0.8-1,1.5-1.7,2.1
				c-0.7,0.6-1.7,0.9-2.9,0.9h-6.4l17.2-34.3c0.4-0.8,0.9-1.5,1.3-2.2c0.4-0.7,0.9-1.3,1.5-1.9H1685c-0.5,0-1-0.2-1.4-0.6
				c-0.4-0.4-0.6-0.9-0.6-1.4v-5.9H1715.2z"/>
			<path class="st0" d="M1720.6-240.1h16.8v7.2h-16.8V-240.1z"/>
			<path class="st0" d="M1774.1-223.7v6.5h-25.9v-6.5h9.2V-249c0-0.6,0-1.1,0-1.7s0.1-1.2,0.1-1.8l-6,5c-0.4,0.3-0.8,0.5-1.2,0.6
				c-0.4,0.1-0.8,0.1-1.1,0c-0.4-0.1-0.7-0.2-1-0.4c-0.3-0.2-0.5-0.4-0.6-0.6l-2.8-3.7l14.2-12h7.2v39.7H1774.1z"/>
			<path class="st0" d="M1811-223.7v6.5h-25.9v-6.5h9.2V-249c0-0.6,0-1.1,0-1.7c0-0.6,0.1-1.2,0.1-1.8l-6,5
				c-0.4,0.3-0.8,0.5-1.2,0.6c-0.4,0.1-0.8,0.1-1.1,0c-0.4-0.1-0.7-0.2-1-0.4c-0.3-0.2-0.5-0.4-0.6-0.6l-2.8-3.7l14.2-12h7.2v39.7
				H1811z"/>
		</g>
		<g>
			<path class="st0" d="M1743.4-192.4c0,1.1-0.2,2.1-0.6,2.9c-0.4,0.9-0.9,1.6-1.5,2.3c-0.6,0.6-1.4,1.1-2.2,1.5
				c-0.8,0.3-1.7,0.5-2.6,0.5c-1,0-1.9-0.2-2.7-0.5s-1.5-0.8-2.1-1.5c-0.6-0.6-1.1-1.4-1.4-2.3c-0.3-0.9-0.5-1.9-0.5-2.9
				c0-1.1,0.2-2.1,0.5-3c0.3-0.9,0.8-1.7,1.4-2.3c0.6-0.6,1.3-1.1,2.1-1.5c0.8-0.3,1.7-0.5,2.7-0.5c1,0,1.9,0.2,2.7,0.5
				c0.8,0.3,1.6,0.8,2.2,1.5s1.1,1.4,1.4,2.3C1743.3-194.6,1743.4-193.6,1743.4-192.4z M1752.8-198.6c0.2-0.2,0.4-0.4,0.7-0.6
				s0.6-0.3,1.1-0.3h4l-21.6,28.1c-0.2,0.2-0.4,0.4-0.7,0.6c-0.3,0.2-0.6,0.2-1,0.2h-4.1L1752.8-198.6z M1739.2-192.4
				c0-0.7-0.1-1.3-0.2-1.8c-0.1-0.5-0.3-0.9-0.5-1.2c-0.2-0.3-0.5-0.5-0.8-0.6c-0.3-0.1-0.7-0.2-1-0.2c-0.4,0-0.7,0.1-1,0.2
				c-0.3,0.1-0.6,0.3-0.8,0.6c-0.2,0.3-0.4,0.7-0.5,1.2s-0.2,1.1-0.2,1.8c0,0.7,0.1,1.3,0.2,1.8c0.1,0.5,0.3,0.8,0.5,1.1
				c0.2,0.3,0.5,0.5,0.8,0.6c0.3,0.1,0.6,0.2,1,0.2c0.4,0,0.7-0.1,1-0.2c0.3-0.1,0.6-0.3,0.8-0.6c0.2-0.3,0.4-0.7,0.5-1.1
				C1739.1-191.2,1739.2-191.7,1739.2-192.4z M1759.9-177.3c0,1.1-0.2,2.1-0.6,2.9c-0.4,0.9-0.9,1.6-1.5,2.3s-1.4,1.1-2.2,1.5
				c-0.8,0.3-1.7,0.5-2.6,0.5c-1,0-1.9-0.2-2.7-0.5c-0.8-0.3-1.5-0.8-2.1-1.5c-0.6-0.6-1.1-1.4-1.4-2.3c-0.3-0.9-0.5-1.9-0.5-2.9
				c0-1.1,0.2-2.1,0.5-3c0.3-0.9,0.8-1.7,1.4-2.3c0.6-0.6,1.3-1.1,2.1-1.5c0.8-0.3,1.7-0.5,2.7-0.5c1,0,1.9,0.2,2.7,0.5
				c0.8,0.3,1.6,0.8,2.2,1.5s1.1,1.4,1.4,2.3C1759.7-179.4,1759.9-178.4,1759.9-177.3z M1755.7-177.3c0-0.7-0.1-1.3-0.2-1.8
				s-0.3-0.9-0.5-1.2c-0.2-0.3-0.5-0.5-0.8-0.6c-0.3-0.1-0.7-0.2-1-0.2c-0.4,0-0.7,0.1-1,0.2c-0.3,0.1-0.6,0.3-0.8,0.6
				c-0.2,0.3-0.4,0.7-0.5,1.2s-0.2,1.1-0.2,1.8c0,0.7,0.1,1.3,0.2,1.8s0.3,0.8,0.5,1.1c0.2,0.3,0.5,0.5,0.8,0.6
				c0.3,0.1,0.6,0.2,1,0.2c0.4,0,0.7-0.1,1-0.2c0.3-0.1,0.6-0.3,0.8-0.6c0.2-0.3,0.4-0.7,0.5-1.1S1755.7-176.6,1755.7-177.3z"/>
		</g>
		<g>
			<path class="st0" d="M1744.9-151.9c-47.8,0-86.8-38.9-86.8-86.8s38.9-86.8,86.8-86.8s86.8,38.9,86.8,86.8
				S1792.7-151.9,1744.9-151.9z M1744.9-324.5c-47.3,0-85.8,38.5-85.8,85.8s38.5,85.8,85.8,85.8s85.8-38.5,85.8-85.8
				S1792.2-324.5,1744.9-324.5z"/>
		</g>
		<g>
			<path class="st0" d="M1693.9-91h-1.2v-16.8h1.2V-91z"/>
			<path class="st0" d="M1699.2-100.8c0.5-0.7,1.2-1.2,1.9-1.6c0.7-0.4,1.5-0.6,2.4-0.6c0.7,0,1.2,0.1,1.7,0.3
				c0.5,0.2,0.9,0.5,1.2,0.9s0.6,0.9,0.7,1.4c0.2,0.5,0.2,1.2,0.2,1.9v7.6h-1.1v-7.6c0-1.1-0.3-2-0.8-2.6s-1.3-0.9-2.3-0.9
				c-0.8,0-1.5,0.2-2.2,0.6c-0.7,0.4-1.3,0.9-1.8,1.6v8.9h-1.1v-11.8h0.6c0.2,0,0.3,0.1,0.3,0.3L1699.2-100.8z"/>
			<path class="st0" d="M1719.2-101.3c0,0-0.1,0.1-0.1,0.1s-0.1,0-0.1,0c-0.1,0-0.2-0.1-0.3-0.2c-0.1-0.1-0.3-0.2-0.5-0.4
				s-0.5-0.2-0.9-0.4s-0.8-0.2-1.3-0.2c-0.7,0-1.3,0.1-1.8,0.4c-0.5,0.2-1,0.6-1.3,1c-0.4,0.5-0.6,1-0.8,1.6
				c-0.2,0.6-0.3,1.4-0.3,2.2c0,0.8,0.1,1.6,0.3,2.2s0.5,1.2,0.8,1.6s0.8,0.8,1.3,1c0.5,0.2,1.1,0.3,1.7,0.3c0.6,0,1-0.1,1.4-0.2
				s0.7-0.3,1-0.4s0.4-0.3,0.6-0.4c0.1-0.1,0.3-0.2,0.4-0.2s0.2,0,0.2,0.1l0.3,0.4c-0.2,0.2-0.4,0.5-0.7,0.7
				c-0.3,0.2-0.6,0.4-0.9,0.5c-0.3,0.2-0.7,0.3-1.1,0.4c-0.4,0.1-0.8,0.1-1.3,0.1c-0.8,0-1.4-0.1-2.1-0.4c-0.6-0.3-1.2-0.7-1.6-1.2
				s-0.8-1.2-1-1.9c-0.2-0.8-0.4-1.6-0.4-2.6c0-0.9,0.1-1.7,0.4-2.5c0.2-0.7,0.6-1.4,1-1.9c0.5-0.5,1-1,1.7-1.3
				c0.7-0.3,1.4-0.4,2.3-0.4c0.8,0,1.5,0.1,2,0.4c0.6,0.2,1.1,0.6,1.6,1L1719.2-101.3z"/>
			<path class="st0" d="M1723.5-100c0.2-0.5,0.4-0.9,0.6-1.3c0.2-0.4,0.5-0.7,0.8-1c0.3-0.3,0.6-0.5,1-0.6c0.4-0.1,0.8-0.2,1.3-0.2
				c0.2,0,0.5,0,0.7,0.1c0.2,0,0.4,0.1,0.6,0.2l-0.1,0.8c0,0.1-0.1,0.2-0.2,0.2c-0.1,0-0.2,0-0.4-0.1c-0.2-0.1-0.5-0.1-0.8-0.1
				c-0.5,0-0.9,0.1-1.2,0.2s-0.7,0.3-1,0.6c-0.3,0.3-0.5,0.6-0.7,1c-0.2,0.4-0.4,0.9-0.6,1.4v7.7h-1.1v-11.8h0.6
				c0.1,0,0.2,0,0.3,0.1c0.1,0.1,0.1,0.2,0.1,0.3L1723.5-100z"/>
			<path class="st0" d="M1730.6-97.4v0.2c0,0.9,0.1,1.7,0.3,2.3c0.2,0.7,0.5,1.2,0.9,1.7c0.4,0.5,0.8,0.8,1.4,1
				c0.5,0.2,1.1,0.3,1.8,0.3c0.6,0,1.1-0.1,1.5-0.2c0.4-0.1,0.8-0.3,1.1-0.4s0.5-0.3,0.7-0.4c0.2-0.1,0.3-0.2,0.4-0.2
				c0.1,0,0.2,0,0.2,0.1l0.3,0.4c-0.2,0.2-0.4,0.5-0.8,0.7c-0.3,0.2-0.7,0.4-1,0.5c-0.4,0.1-0.8,0.3-1.2,0.4
				c-0.4,0.1-0.9,0.1-1.3,0.1c-0.8,0-1.5-0.1-2.2-0.4c-0.7-0.3-1.2-0.7-1.7-1.2s-0.8-1.2-1.1-2c-0.3-0.8-0.4-1.7-0.4-2.7
				c0-0.8,0.1-1.6,0.4-2.4c0.2-0.7,0.6-1.3,1-1.9c0.5-0.5,1-0.9,1.7-1.2c0.7-0.3,1.4-0.4,2.3-0.4c0.7,0,1.3,0.1,1.9,0.3
				c0.6,0.2,1.1,0.6,1.5,1c0.4,0.4,0.8,1,1,1.6c0.2,0.6,0.4,1.4,0.4,2.2c0,0.2,0,0.3-0.1,0.4c0,0.1-0.1,0.1-0.2,0.1H1730.6z
				 M1738.5-98.1c0-0.6-0.1-1.2-0.3-1.7c-0.2-0.5-0.4-0.9-0.8-1.3s-0.7-0.6-1.2-0.8c-0.4-0.2-0.9-0.3-1.5-0.3
				c-0.6,0-1.2,0.1-1.6,0.3c-0.5,0.2-0.9,0.5-1.3,0.8s-0.6,0.8-0.9,1.3c-0.2,0.5-0.4,1.1-0.4,1.7H1738.5z"/>
			<path class="st0" d="M1742.3-101.2c0.6-0.6,1.3-1.1,2-1.4c0.7-0.3,1.5-0.5,2.3-0.5c0.6,0,1.2,0.1,1.7,0.3
				c0.5,0.2,0.9,0.5,1.2,0.9s0.5,0.8,0.7,1.4c0.2,0.5,0.2,1.1,0.2,1.8v7.7h-0.5c-0.2,0-0.4-0.1-0.4-0.3l-0.2-1.5
				c-0.3,0.3-0.6,0.6-1,0.9s-0.7,0.5-1,0.6c-0.3,0.2-0.7,0.3-1.1,0.4c-0.4,0.1-0.8,0.1-1.3,0.1c-0.4,0-0.8-0.1-1.2-0.2
				s-0.7-0.3-1-0.5c-0.3-0.2-0.5-0.6-0.7-0.9s-0.3-0.8-0.3-1.4c0-0.5,0.1-1,0.4-1.4s0.7-0.8,1.3-1.1c0.6-0.3,1.4-0.6,2.4-0.8
				c1-0.2,2.1-0.3,3.4-0.3v-1.2c0-1.1-0.2-1.9-0.7-2.5c-0.5-0.6-1.2-0.9-2.1-0.9c-0.6,0-1.1,0.1-1.5,0.2c-0.4,0.2-0.7,0.3-1,0.5
				c-0.3,0.2-0.5,0.4-0.7,0.5c-0.2,0.2-0.3,0.2-0.4,0.2c-0.1,0-0.2,0-0.2-0.1c-0.1,0-0.1-0.1-0.1-0.2L1742.3-101.2z M1749.2-96.7
				c-1.1,0-2.1,0.1-2.9,0.3c-0.8,0.1-1.5,0.3-2,0.6c-0.5,0.2-0.9,0.5-1.2,0.9c-0.3,0.3-0.4,0.7-0.4,1.1c0,0.4,0.1,0.7,0.2,1
				s0.3,0.5,0.5,0.7s0.5,0.3,0.8,0.4c0.3,0.1,0.6,0.1,0.9,0.1c0.5,0,0.9,0,1.3-0.1c0.4-0.1,0.7-0.2,1.1-0.4c0.3-0.2,0.6-0.4,0.9-0.6
				c0.3-0.2,0.6-0.5,0.8-0.8V-96.7z"/>
			<path class="st0" d="M1760.6-101.4c-0.1,0.1-0.2,0.2-0.3,0.2c-0.1,0-0.2,0-0.3-0.1s-0.3-0.2-0.5-0.3s-0.5-0.2-0.8-0.3
				c-0.3-0.1-0.7-0.1-1.2-0.1c-0.4,0-0.8,0.1-1.2,0.2c-0.4,0.1-0.7,0.3-0.9,0.5c-0.2,0.2-0.4,0.4-0.6,0.7c-0.1,0.3-0.2,0.6-0.2,0.9
				c0,0.4,0.1,0.7,0.3,0.9s0.4,0.5,0.7,0.6c0.3,0.2,0.7,0.3,1.1,0.5c0.4,0.1,0.8,0.3,1.2,0.4c0.4,0.1,0.8,0.3,1.2,0.4
				c0.4,0.2,0.7,0.3,1.1,0.6c0.3,0.2,0.6,0.5,0.7,0.8c0.2,0.3,0.3,0.7,0.3,1.2c0,0.5-0.1,1-0.3,1.4s-0.5,0.8-0.8,1.2
				s-0.8,0.6-1.3,0.8s-1.1,0.3-1.8,0.3c-0.8,0-1.6-0.1-2.2-0.4c-0.6-0.3-1.1-0.6-1.6-1l0.3-0.4c0-0.1,0.1-0.1,0.1-0.1
				c0.1,0,0.1,0,0.2,0c0.1,0,0.2,0.1,0.4,0.2c0.1,0.1,0.3,0.3,0.6,0.4s0.5,0.3,0.9,0.4c0.4,0.1,0.8,0.2,1.3,0.2
				c0.5,0,0.9-0.1,1.3-0.2c0.4-0.1,0.7-0.3,1-0.6c0.3-0.2,0.4-0.5,0.6-0.8c0.1-0.3,0.2-0.7,0.2-1c0-0.4-0.1-0.7-0.3-1
				c-0.2-0.3-0.4-0.5-0.8-0.7c-0.3-0.2-0.7-0.3-1.1-0.5s-0.8-0.3-1.2-0.4c-0.4-0.1-0.8-0.3-1.2-0.4s-0.7-0.3-1.1-0.6
				s-0.6-0.5-0.7-0.8c-0.2-0.3-0.3-0.7-0.3-1.2c0-0.4,0.1-0.8,0.3-1.2c0.2-0.4,0.4-0.7,0.8-1c0.3-0.3,0.7-0.5,1.2-0.7
				c0.5-0.2,1-0.3,1.6-0.3c0.7,0,1.4,0.1,1.9,0.3c0.6,0.2,1.1,0.5,1.5,1L1760.6-101.4z"/>
			<path class="st0" d="M1764.6-97.4v0.2c0,0.9,0.1,1.7,0.3,2.3c0.2,0.7,0.5,1.2,0.9,1.7c0.4,0.5,0.8,0.8,1.4,1
				c0.5,0.2,1.1,0.3,1.8,0.3c0.6,0,1.1-0.1,1.5-0.2c0.4-0.1,0.8-0.3,1.1-0.4s0.5-0.3,0.7-0.4c0.2-0.1,0.3-0.2,0.4-0.2
				c0.1,0,0.2,0,0.2,0.1l0.3,0.4c-0.2,0.2-0.4,0.5-0.8,0.7c-0.3,0.2-0.7,0.4-1,0.5c-0.4,0.1-0.8,0.3-1.2,0.4
				c-0.4,0.1-0.9,0.1-1.3,0.1c-0.8,0-1.5-0.1-2.2-0.4c-0.7-0.3-1.2-0.7-1.7-1.2s-0.8-1.2-1.1-2c-0.3-0.8-0.4-1.7-0.4-2.7
				c0-0.8,0.1-1.6,0.4-2.4c0.2-0.7,0.6-1.3,1-1.9c0.5-0.5,1-0.9,1.7-1.2c0.7-0.3,1.4-0.4,2.3-0.4c0.7,0,1.3,0.1,1.9,0.3
				c0.6,0.2,1.1,0.6,1.5,1c0.4,0.4,0.8,1,1,1.6c0.2,0.6,0.4,1.4,0.4,2.2c0,0.2,0,0.3-0.1,0.4c0,0.1-0.1,0.1-0.2,0.1H1764.6z
				 M1772.5-98.1c0-0.6-0.1-1.2-0.3-1.7c-0.2-0.5-0.4-0.9-0.8-1.3s-0.7-0.6-1.2-0.8c-0.4-0.2-0.9-0.3-1.5-0.3
				c-0.6,0-1.2,0.1-1.6,0.3c-0.5,0.2-0.9,0.5-1.3,0.8s-0.6,0.8-0.9,1.3c-0.2,0.5-0.4,1.1-0.4,1.7H1772.5z"/>
			<path class="st0" d="M1784.9-106.9c0,0.1,0,0.3-0.1,0.4c-0.1,0.1-0.1,0.2-0.2,0.3c-0.1,0.1-0.2,0.2-0.3,0.2s-0.3,0.1-0.4,0.1
				c-0.1,0-0.3,0-0.4-0.1s-0.2-0.1-0.3-0.2c-0.1-0.1-0.2-0.2-0.2-0.3c-0.1-0.1-0.1-0.3-0.1-0.4c0-0.1,0-0.3,0.1-0.4
				c0.1-0.1,0.1-0.2,0.2-0.3c0.1-0.1,0.2-0.2,0.3-0.2c0.1-0.1,0.3-0.1,0.4-0.1c0.1,0,0.3,0,0.4,0.1c0.1,0.1,0.2,0.1,0.3,0.2
				c0.1,0.1,0.2,0.2,0.2,0.3S1784.9-107.1,1784.9-106.9z M1784.4-102.8V-91h-1.1v-11.8H1784.4z"/>
			<path class="st0" d="M1789.5-100.8c0.5-0.7,1.2-1.2,1.9-1.6c0.7-0.4,1.5-0.6,2.4-0.6c0.7,0,1.2,0.1,1.7,0.3
				c0.5,0.2,0.9,0.5,1.2,0.9s0.6,0.9,0.7,1.4c0.2,0.5,0.2,1.2,0.2,1.9v7.6h-1.1v-7.6c0-1.1-0.3-2-0.8-2.6s-1.3-0.9-2.3-0.9
				c-0.8,0-1.5,0.2-2.2,0.6c-0.7,0.4-1.3,0.9-1.8,1.6v8.9h-1.1v-11.8h0.6c0.2,0,0.3,0.1,0.3,0.3L1789.5-100.8z"/>
			<path class="st0" d="M1574.4-69.4v0.2c0,0.9,0.1,1.7,0.3,2.3c0.2,0.7,0.5,1.2,0.9,1.7c0.4,0.5,0.8,0.8,1.4,1
				c0.5,0.2,1.1,0.3,1.8,0.3c0.6,0,1.1-0.1,1.5-0.2c0.4-0.1,0.8-0.3,1.1-0.4s0.5-0.3,0.7-0.4c0.2-0.1,0.3-0.2,0.4-0.2
				c0.1,0,0.2,0,0.2,0.1l0.3,0.4c-0.2,0.2-0.4,0.5-0.8,0.7c-0.3,0.2-0.7,0.4-1,0.5c-0.4,0.1-0.8,0.3-1.2,0.4
				c-0.4,0.1-0.9,0.1-1.3,0.1c-0.8,0-1.5-0.1-2.2-0.4c-0.7-0.3-1.2-0.7-1.7-1.2s-0.8-1.2-1.1-2c-0.3-0.8-0.4-1.7-0.4-2.7
				c0-0.8,0.1-1.6,0.4-2.4c0.2-0.7,0.6-1.3,1-1.9c0.5-0.5,1-0.9,1.7-1.2c0.7-0.3,1.4-0.4,2.3-0.4c0.7,0,1.3,0.1,1.9,0.3
				c0.6,0.2,1.1,0.6,1.5,1c0.4,0.4,0.8,1,1,1.6c0.2,0.6,0.4,1.4,0.4,2.2c0,0.2,0,0.3-0.1,0.4c0,0.1-0.1,0.1-0.2,0.1H1574.4z
				 M1582.3-70.1c0-0.6-0.1-1.2-0.3-1.7c-0.2-0.5-0.4-0.9-0.8-1.3s-0.7-0.6-1.2-0.8c-0.4-0.2-0.9-0.3-1.5-0.3
				c-0.6,0-1.2,0.1-1.6,0.3c-0.5,0.2-0.9,0.5-1.3,0.8s-0.6,0.8-0.9,1.3c-0.2,0.5-0.4,1.1-0.4,1.7H1582.3z"/>
			<path class="st0" d="M1586.4-63v-11.8h0.6c0.2,0,0.3,0.1,0.3,0.3l0.1,1.7c0.5-0.7,1-1.2,1.6-1.6c0.6-0.4,1.3-0.6,2-0.6
				c0.9,0,1.6,0.2,2.1,0.8c0.5,0.5,0.9,1.2,1.1,2.1c0.1-0.5,0.3-0.9,0.6-1.3s0.6-0.7,0.9-0.9c0.3-0.2,0.7-0.4,1.1-0.5
				s0.8-0.2,1.2-0.2c0.6,0,1.1,0.1,1.6,0.3c0.5,0.2,0.9,0.5,1.2,0.9s0.6,0.8,0.8,1.4c0.2,0.6,0.3,1.2,0.3,1.9v7.6h-1.1v-7.6
				c0-1.2-0.2-2-0.8-2.6c-0.5-0.6-1.2-0.9-2.1-0.9c-0.4,0-0.8,0.1-1.2,0.2c-0.4,0.2-0.7,0.4-1,0.7c-0.3,0.3-0.5,0.7-0.7,1.1
				c-0.2,0.4-0.3,1-0.3,1.5v7.6h-1.1v-7.6c0-1.2-0.2-2-0.7-2.6c-0.5-0.6-1.1-0.9-2-0.9c-0.6,0-1.2,0.2-1.8,0.6
				c-0.5,0.4-1,0.9-1.5,1.6v9H1586.4z"/>
			<path class="st0" d="M1606.7-72.7c0.5-0.7,1.1-1.3,1.8-1.7c0.7-0.4,1.5-0.6,2.4-0.6c1.5,0,2.6,0.5,3.4,1.5c0.8,1,1.2,2.5,1.2,4.5
				c0,0.9-0.1,1.7-0.3,2.4s-0.6,1.4-1,2c-0.4,0.6-1,1-1.6,1.3c-0.6,0.3-1.4,0.5-2.2,0.5c-0.8,0-1.5-0.1-2.1-0.4s-1.1-0.7-1.5-1.3
				v5.8h-1.1v-16h0.6c0.2,0,0.3,0.1,0.3,0.3L1606.7-72.7z M1606.7-65.6c0.2,0.3,0.5,0.6,0.7,0.9c0.2,0.2,0.5,0.4,0.8,0.6
				c0.3,0.1,0.6,0.3,0.9,0.3c0.3,0.1,0.6,0.1,1,0.1c0.7,0,1.3-0.1,1.8-0.4c0.5-0.3,1-0.6,1.3-1.1s0.6-1,0.8-1.7
				c0.2-0.6,0.3-1.4,0.3-2.1c0-1.8-0.3-3.1-1-3.9c-0.7-0.8-1.6-1.2-2.8-1.2c-0.8,0-1.5,0.2-2.1,0.6c-0.6,0.4-1.2,1-1.7,1.7V-65.6z"
				/>
			<path class="st0" d="M1620-80.3V-63h-1.1v-17.3H1620z"/>
			<path class="st0" d="M1628.7-75c0.8,0,1.6,0.1,2.3,0.4c0.7,0.3,1.2,0.7,1.7,1.2s0.8,1.2,1.1,1.9s0.4,1.6,0.4,2.5
				s-0.1,1.8-0.4,2.5s-0.6,1.4-1.1,1.9s-1,0.9-1.7,1.2c-0.7,0.3-1.4,0.4-2.3,0.4c-0.8,0-1.6-0.1-2.3-0.4c-0.7-0.3-1.2-0.7-1.7-1.2
				c-0.5-0.5-0.8-1.2-1.1-1.9c-0.2-0.7-0.4-1.6-0.4-2.5s0.1-1.8,0.4-2.5c0.2-0.8,0.6-1.4,1.1-1.9c0.5-0.5,1-0.9,1.7-1.2
				C1627.1-74.9,1627.8-75,1628.7-75z M1628.7-63.7c0.7,0,1.3-0.1,1.9-0.4c0.5-0.2,1-0.6,1.3-1s0.6-1,0.8-1.6
				c0.2-0.6,0.3-1.4,0.3-2.1c0-0.8-0.1-1.5-0.3-2.1c-0.2-0.6-0.4-1.2-0.8-1.6s-0.8-0.8-1.3-1.1c-0.5-0.2-1.1-0.4-1.9-0.4
				s-1.3,0.1-1.9,0.4c-0.5,0.2-1,0.6-1.3,1.1s-0.6,1-0.8,1.6c-0.2,0.6-0.3,1.4-0.3,2.1c0,0.8,0.1,1.5,0.3,2.1
				c0.2,0.6,0.4,1.2,0.8,1.6s0.8,0.8,1.3,1C1627.4-63.9,1628-63.7,1628.7-63.7z"/>
			<path class="st0" d="M1646.5-74.8l-6.8,15.6c0,0.1-0.1,0.2-0.2,0.3c-0.1,0.1-0.2,0.1-0.3,0.1h-0.8l2.1-4.6l-5-11.4h0.9
				c0.1,0,0.2,0,0.3,0.1s0.1,0.1,0.1,0.2l4,9.2c0,0.1,0.1,0.2,0.1,0.4c0,0.1,0.1,0.2,0.1,0.4c0-0.1,0.1-0.3,0.1-0.4
				c0-0.1,0.1-0.2,0.1-0.4l3.9-9.2c0-0.1,0.1-0.2,0.2-0.2s0.2-0.1,0.2-0.1H1646.5z"/>
			<path class="st0" d="M1649-69.4v0.2c0,0.9,0.1,1.7,0.3,2.3c0.2,0.7,0.5,1.2,0.9,1.7c0.4,0.5,0.8,0.8,1.4,1
				c0.5,0.2,1.1,0.3,1.8,0.3c0.6,0,1.1-0.1,1.5-0.2c0.4-0.1,0.8-0.3,1.1-0.4s0.5-0.3,0.7-0.4c0.2-0.1,0.3-0.2,0.4-0.2
				c0.1,0,0.2,0,0.2,0.1l0.3,0.4c-0.2,0.2-0.4,0.5-0.8,0.7c-0.3,0.2-0.7,0.4-1,0.5c-0.4,0.1-0.8,0.3-1.2,0.4
				c-0.4,0.1-0.9,0.1-1.3,0.1c-0.8,0-1.5-0.1-2.2-0.4c-0.7-0.3-1.2-0.7-1.7-1.2s-0.8-1.2-1.1-2c-0.3-0.8-0.4-1.7-0.4-2.7
				c0-0.8,0.1-1.6,0.4-2.4c0.2-0.7,0.6-1.3,1-1.9c0.5-0.5,1-0.9,1.7-1.2c0.7-0.3,1.4-0.4,2.3-0.4c0.7,0,1.3,0.1,1.9,0.3
				c0.6,0.2,1.1,0.6,1.5,1c0.4,0.4,0.8,1,1,1.6c0.2,0.6,0.4,1.4,0.4,2.2c0,0.2,0,0.3-0.1,0.4c0,0.1-0.1,0.1-0.2,0.1H1649z
				 M1656.9-70.1c0-0.6-0.1-1.2-0.3-1.7c-0.2-0.5-0.4-0.9-0.8-1.3s-0.7-0.6-1.2-0.8c-0.4-0.2-0.9-0.3-1.5-0.3
				c-0.6,0-1.2,0.1-1.6,0.3c-0.5,0.2-0.9,0.5-1.3,0.8s-0.6,0.8-0.9,1.3c-0.2,0.5-0.4,1.1-0.4,1.7H1656.9z"/>
			<path class="st0" d="M1661.4-69.4v0.2c0,0.9,0.1,1.7,0.3,2.3c0.2,0.7,0.5,1.2,0.9,1.7c0.4,0.5,0.8,0.8,1.4,1
				c0.5,0.2,1.1,0.3,1.8,0.3c0.6,0,1.1-0.1,1.5-0.2c0.4-0.1,0.8-0.3,1.1-0.4s0.5-0.3,0.7-0.4c0.2-0.1,0.3-0.2,0.4-0.2
				c0.1,0,0.2,0,0.2,0.1l0.3,0.4c-0.2,0.2-0.4,0.5-0.8,0.7c-0.3,0.2-0.7,0.4-1,0.5c-0.4,0.1-0.8,0.3-1.2,0.4
				c-0.4,0.1-0.9,0.1-1.3,0.1c-0.8,0-1.5-0.1-2.2-0.4c-0.7-0.3-1.2-0.7-1.7-1.2s-0.8-1.2-1.1-2c-0.3-0.8-0.4-1.7-0.4-2.7
				c0-0.8,0.1-1.6,0.4-2.4c0.2-0.7,0.6-1.3,1-1.9c0.5-0.5,1-0.9,1.7-1.2c0.7-0.3,1.4-0.4,2.3-0.4c0.7,0,1.3,0.1,1.9,0.3
				c0.6,0.2,1.1,0.6,1.5,1c0.4,0.4,0.8,1,1,1.6c0.2,0.6,0.4,1.4,0.4,2.2c0,0.2,0,0.3-0.1,0.4c0,0.1-0.1,0.1-0.2,0.1H1661.4z
				 M1669.3-70.1c0-0.6-0.1-1.2-0.3-1.7c-0.2-0.5-0.4-0.9-0.8-1.3s-0.7-0.6-1.2-0.8c-0.4-0.2-0.9-0.3-1.5-0.3
				c-0.6,0-1.2,0.1-1.6,0.3c-0.5,0.2-0.9,0.5-1.3,0.8s-0.6,0.8-0.9,1.3c-0.2,0.5-0.4,1.1-0.4,1.7H1669.3z"/>
			<path class="st0" d="M1689.1-74.8V-63h-0.6c-0.2,0-0.3-0.1-0.3-0.3l-0.1-1.8c-0.5,0.7-1.2,1.2-1.9,1.6c-0.7,0.4-1.5,0.6-2.4,0.6
				c-0.7,0-1.2-0.1-1.7-0.3c-0.5-0.2-0.9-0.5-1.2-0.9c-0.3-0.4-0.6-0.9-0.7-1.4c-0.2-0.5-0.2-1.2-0.2-1.9v-7.6h1.1v7.6
				c0,1.1,0.3,2,0.8,2.6s1.3,0.9,2.3,0.9c0.8,0,1.5-0.2,2.2-0.6c0.7-0.4,1.3-0.9,1.8-1.6v-8.9H1689.1z"/>
			<path class="st0" d="M1694.1-72.8c0.5-0.7,1.2-1.2,1.9-1.6c0.7-0.4,1.5-0.6,2.4-0.6c0.7,0,1.2,0.1,1.7,0.3
				c0.5,0.2,0.9,0.5,1.2,0.9s0.6,0.9,0.7,1.4c0.2,0.5,0.2,1.2,0.2,1.9v7.6h-1.1v-7.6c0-1.1-0.3-2-0.8-2.6s-1.3-0.9-2.3-0.9
				c-0.8,0-1.5,0.2-2.2,0.6c-0.7,0.4-1.3,0.9-1.8,1.6v8.9h-1.1v-11.8h0.6c0.2,0,0.3,0.1,0.3,0.3L1694.1-72.8z"/>
			<path class="st0" d="M1715.3-80.3V-63h-0.6c-0.2,0-0.3-0.1-0.4-0.3l-0.1-1.9c-0.5,0.7-1.1,1.3-1.8,1.7c-0.7,0.4-1.5,0.6-2.4,0.6
				c-1.5,0-2.6-0.5-3.4-1.5c-0.8-1-1.2-2.5-1.2-4.5c0-0.9,0.1-1.7,0.3-2.4s0.6-1.4,1-2c0.4-0.6,1-1,1.6-1.3s1.4-0.5,2.2-0.5
				c0.8,0,1.5,0.1,2.1,0.4c0.6,0.3,1.1,0.7,1.5,1.3v-7H1715.3z M1714.1-72.3c-0.5-0.7-1-1.2-1.5-1.4s-1.2-0.4-1.9-0.4
				c-0.7,0-1.3,0.1-1.8,0.4s-1,0.6-1.3,1.1c-0.4,0.5-0.6,1-0.8,1.7c-0.2,0.6-0.3,1.4-0.3,2.1c0,1.8,0.3,3.1,1,3.9
				c0.6,0.8,1.6,1.2,2.8,1.2c0.8,0,1.5-0.2,2.1-0.6s1.2-1,1.7-1.7V-72.3z"/>
			<path class="st0" d="M1719.6-69.4v0.2c0,0.9,0.1,1.7,0.3,2.3c0.2,0.7,0.5,1.2,0.9,1.7c0.4,0.5,0.8,0.8,1.4,1
				c0.5,0.2,1.1,0.3,1.8,0.3c0.6,0,1.1-0.1,1.5-0.2c0.4-0.1,0.8-0.3,1.1-0.4s0.5-0.3,0.7-0.4c0.2-0.1,0.3-0.2,0.4-0.2
				c0.1,0,0.2,0,0.2,0.1l0.3,0.4c-0.2,0.2-0.4,0.5-0.8,0.7c-0.3,0.2-0.7,0.4-1,0.5c-0.4,0.1-0.8,0.3-1.2,0.4
				c-0.4,0.1-0.9,0.1-1.3,0.1c-0.8,0-1.5-0.1-2.2-0.4c-0.7-0.3-1.2-0.7-1.7-1.2s-0.8-1.2-1.1-2c-0.3-0.8-0.4-1.7-0.4-2.7
				c0-0.8,0.1-1.6,0.4-2.4c0.2-0.7,0.6-1.3,1-1.9c0.5-0.5,1-0.9,1.7-1.2c0.7-0.3,1.4-0.4,2.3-0.4c0.7,0,1.3,0.1,1.9,0.3
				c0.6,0.2,1.1,0.6,1.5,1c0.4,0.4,0.8,1,1,1.6c0.2,0.6,0.4,1.4,0.4,2.2c0,0.2,0,0.3-0.1,0.4c0,0.1-0.1,0.1-0.2,0.1H1719.6z
				 M1727.5-70.1c0-0.6-0.1-1.2-0.3-1.7c-0.2-0.5-0.4-0.9-0.8-1.3s-0.7-0.6-1.2-0.8c-0.4-0.2-0.9-0.3-1.5-0.3
				c-0.6,0-1.2,0.1-1.6,0.3c-0.5,0.2-0.9,0.5-1.3,0.8s-0.6,0.8-0.9,1.3c-0.2,0.5-0.4,1.1-0.4,1.7H1727.5z"/>
			<path class="st0" d="M1732.7-72c0.2-0.5,0.4-0.9,0.6-1.3c0.2-0.4,0.5-0.7,0.8-1c0.3-0.3,0.6-0.5,1-0.6c0.4-0.1,0.8-0.2,1.3-0.2
				c0.2,0,0.5,0,0.7,0.1c0.2,0,0.4,0.1,0.6,0.2l-0.1,0.8c0,0.1-0.1,0.2-0.2,0.2c-0.1,0-0.2,0-0.4-0.1c-0.2-0.1-0.5-0.1-0.8-0.1
				c-0.5,0-0.9,0.1-1.2,0.2s-0.7,0.3-1,0.6c-0.3,0.3-0.5,0.6-0.7,1c-0.2,0.4-0.4,0.9-0.6,1.4v7.7h-1.1v-11.8h0.6
				c0.1,0,0.2,0,0.3,0.1c0.1,0.1,0.1,0.2,0.1,0.3L1732.7-72z"/>
			<path class="st0" d="M1746.4-73.4c-0.1,0.1-0.2,0.2-0.3,0.2c-0.1,0-0.2,0-0.3-0.1s-0.3-0.2-0.5-0.3s-0.5-0.2-0.8-0.3
				c-0.3-0.1-0.7-0.1-1.2-0.1c-0.4,0-0.8,0.1-1.2,0.2c-0.4,0.1-0.7,0.3-0.9,0.5c-0.2,0.2-0.4,0.4-0.6,0.7c-0.1,0.3-0.2,0.6-0.2,0.9
				c0,0.4,0.1,0.7,0.3,0.9s0.4,0.5,0.7,0.6c0.3,0.2,0.7,0.3,1.1,0.5c0.4,0.1,0.8,0.3,1.2,0.4c0.4,0.1,0.8,0.3,1.2,0.4
				c0.4,0.2,0.7,0.3,1.1,0.6c0.3,0.2,0.6,0.5,0.7,0.8c0.2,0.3,0.3,0.7,0.3,1.2c0,0.5-0.1,1-0.3,1.4s-0.5,0.8-0.8,1.2
				s-0.8,0.6-1.3,0.8s-1.1,0.3-1.8,0.3c-0.8,0-1.6-0.1-2.2-0.4c-0.6-0.3-1.1-0.6-1.6-1l0.3-0.4c0-0.1,0.1-0.1,0.1-0.1
				c0.1,0,0.1,0,0.2,0c0.1,0,0.2,0.1,0.4,0.2c0.1,0.1,0.3,0.3,0.6,0.4s0.5,0.3,0.9,0.4c0.4,0.1,0.8,0.2,1.3,0.2
				c0.5,0,0.9-0.1,1.3-0.2c0.4-0.1,0.7-0.3,1-0.6c0.3-0.2,0.4-0.5,0.6-0.8c0.1-0.3,0.2-0.7,0.2-1c0-0.4-0.1-0.7-0.3-1
				c-0.2-0.3-0.4-0.5-0.8-0.7c-0.3-0.2-0.7-0.3-1.1-0.5s-0.8-0.3-1.2-0.4c-0.4-0.1-0.8-0.3-1.2-0.4s-0.7-0.3-1.1-0.6
				s-0.6-0.5-0.7-0.8c-0.2-0.3-0.3-0.7-0.3-1.2c0-0.4,0.1-0.8,0.3-1.2c0.2-0.4,0.4-0.7,0.8-1c0.3-0.3,0.7-0.5,1.2-0.7
				c0.5-0.2,1-0.3,1.6-0.3c0.7,0,1.4,0.1,1.9,0.3c0.6,0.2,1.1,0.5,1.5,1L1746.4-73.4z"/>
			<path class="st0" d="M1753.2-62.8c-0.8,0-1.4-0.2-1.9-0.7s-0.7-1.1-0.7-2.1v-8.1h-1.7c-0.1,0-0.2,0-0.2-0.1
				c-0.1,0-0.1-0.1-0.1-0.2v-0.4l2-0.1l0.3-4.2c0-0.1,0-0.1,0.1-0.2c0-0.1,0.1-0.1,0.2-0.1h0.5v4.5h3.7v0.8h-3.7v8
				c0,0.3,0,0.6,0.1,0.8s0.2,0.4,0.3,0.6c0.1,0.2,0.3,0.3,0.5,0.3c0.2,0.1,0.4,0.1,0.6,0.1c0.3,0,0.5,0,0.7-0.1
				c0.2-0.1,0.4-0.2,0.5-0.3c0.2-0.1,0.3-0.2,0.4-0.3c0.1-0.1,0.2-0.1,0.2-0.1c0.1,0,0.1,0,0.2,0.1l0.3,0.5
				c-0.3,0.3-0.7,0.6-1.1,0.8C1754.2-62.9,1753.7-62.8,1753.2-62.8z"/>
			<path class="st0" d="M1757.8-73.2c0.6-0.6,1.3-1.1,2-1.4c0.7-0.3,1.5-0.5,2.3-0.5c0.6,0,1.2,0.1,1.7,0.3c0.5,0.2,0.9,0.5,1.2,0.9
				s0.5,0.8,0.7,1.4c0.2,0.5,0.2,1.1,0.2,1.8v7.7h-0.5c-0.2,0-0.4-0.1-0.4-0.3l-0.2-1.5c-0.3,0.3-0.6,0.6-1,0.9s-0.7,0.5-1,0.6
				c-0.3,0.2-0.7,0.3-1.1,0.4c-0.4,0.1-0.8,0.1-1.3,0.1c-0.4,0-0.8-0.1-1.2-0.2s-0.7-0.3-1-0.5c-0.3-0.2-0.5-0.6-0.7-0.9
				s-0.3-0.8-0.3-1.4c0-0.5,0.1-1,0.4-1.4s0.7-0.8,1.3-1.1c0.6-0.3,1.4-0.6,2.4-0.8c1-0.2,2.1-0.3,3.4-0.3v-1.2
				c0-1.1-0.2-1.9-0.7-2.5c-0.5-0.6-1.2-0.9-2.1-0.9c-0.6,0-1.1,0.1-1.5,0.2c-0.4,0.2-0.7,0.3-1,0.5c-0.3,0.2-0.5,0.4-0.7,0.5
				c-0.2,0.2-0.3,0.2-0.4,0.2c-0.1,0-0.2,0-0.2-0.1c-0.1,0-0.1-0.1-0.1-0.2L1757.8-73.2z M1764.8-68.7c-1.1,0-2.1,0.1-2.9,0.3
				c-0.8,0.1-1.5,0.3-2,0.6c-0.5,0.2-0.9,0.5-1.2,0.9c-0.3,0.3-0.4,0.7-0.4,1.1c0,0.4,0.1,0.7,0.2,1s0.3,0.5,0.5,0.7
				s0.5,0.3,0.8,0.4c0.3,0.1,0.6,0.1,0.9,0.1c0.5,0,0.9,0,1.3-0.1c0.4-0.1,0.7-0.2,1.1-0.4c0.3-0.2,0.6-0.4,0.9-0.6
				c0.3-0.2,0.6-0.5,0.8-0.8V-68.7z"/>
			<path class="st0" d="M1770.7-72.8c0.5-0.7,1.2-1.2,1.9-1.6c0.7-0.4,1.5-0.6,2.4-0.6c0.7,0,1.2,0.1,1.7,0.3
				c0.5,0.2,0.9,0.5,1.2,0.9s0.6,0.9,0.7,1.4c0.2,0.5,0.2,1.2,0.2,1.9v7.6h-1.1v-7.6c0-1.1-0.3-2-0.8-2.6s-1.3-0.9-2.3-0.9
				c-0.8,0-1.5,0.2-2.2,0.6c-0.7,0.4-1.3,0.9-1.8,1.6v8.9h-1.1v-11.8h0.6c0.2,0,0.3,0.1,0.3,0.3L1770.7-72.8z"/>
			<path class="st0" d="M1792-80.3V-63h-0.6c-0.2,0-0.3-0.1-0.4-0.3l-0.1-1.9c-0.5,0.7-1.1,1.3-1.8,1.7c-0.7,0.4-1.5,0.6-2.4,0.6
				c-1.5,0-2.6-0.5-3.4-1.5c-0.8-1-1.2-2.5-1.2-4.5c0-0.9,0.1-1.7,0.3-2.4s0.6-1.4,1-2c0.4-0.6,1-1,1.6-1.3s1.4-0.5,2.2-0.5
				c0.8,0,1.5,0.1,2.1,0.4c0.6,0.3,1.1,0.7,1.5,1.3v-7H1792z M1790.8-72.3c-0.5-0.7-1-1.2-1.5-1.4s-1.2-0.4-1.9-0.4
				c-0.7,0-1.3,0.1-1.8,0.4s-1,0.6-1.3,1.1c-0.4,0.5-0.6,1-0.8,1.7c-0.2,0.6-0.3,1.4-0.3,2.1c0,1.8,0.3,3.1,1,3.9
				c0.6,0.8,1.6,1.2,2.8,1.2c0.8,0,1.5-0.2,2.1-0.6s1.2-1,1.7-1.7V-72.3z"/>
			<path class="st0" d="M1797.6-78.9c0,0.1,0,0.3-0.1,0.4c-0.1,0.1-0.1,0.2-0.2,0.3c-0.1,0.1-0.2,0.2-0.3,0.2s-0.3,0.1-0.4,0.1
				c-0.1,0-0.3,0-0.4-0.1s-0.2-0.1-0.3-0.2c-0.1-0.1-0.2-0.2-0.2-0.3c-0.1-0.1-0.1-0.3-0.1-0.4c0-0.1,0-0.3,0.1-0.4
				c0.1-0.1,0.1-0.2,0.2-0.3c0.1-0.1,0.2-0.2,0.3-0.2c0.1-0.1,0.3-0.1,0.4-0.1c0.1,0,0.3,0,0.4,0.1c0.1,0.1,0.2,0.1,0.3,0.2
				c0.1,0.1,0.2,0.2,0.2,0.3S1797.6-79.1,1797.6-78.9z M1797.1-74.8V-63h-1.1v-11.8H1797.1z"/>
			<path class="st0" d="M1802.2-72.8c0.5-0.7,1.2-1.2,1.9-1.6c0.7-0.4,1.5-0.6,2.4-0.6c0.7,0,1.2,0.1,1.7,0.3
				c0.5,0.2,0.9,0.5,1.2,0.9s0.6,0.9,0.7,1.4c0.2,0.5,0.2,1.2,0.2,1.9v7.6h-1.1v-7.6c0-1.1-0.3-2-0.8-2.6s-1.3-0.9-2.3-0.9
				c-0.8,0-1.5,0.2-2.2,0.6c-0.7,0.4-1.3,0.9-1.8,1.6v8.9h-1.1v-11.8h0.6c0.2,0,0.3,0.1,0.3,0.3L1802.2-72.8z"/>
			<path class="st0" d="M1823.8-74.3v0.4c0,0.2-0.1,0.3-0.3,0.3l-1.8,0.1c0.2,0.3,0.4,0.6,0.5,1c0.1,0.4,0.2,0.8,0.2,1.2
				c0,0.6-0.1,1.1-0.3,1.6c-0.2,0.5-0.5,0.9-0.9,1.2c-0.4,0.3-0.8,0.6-1.3,0.8c-0.5,0.2-1.1,0.3-1.7,0.3c-0.7,0-1.3-0.1-1.8-0.3
				c-0.3,0.2-0.6,0.4-0.8,0.7s-0.3,0.5-0.3,0.8c0,0.3,0.1,0.6,0.4,0.8c0.2,0.2,0.6,0.3,1,0.4c0.4,0.1,0.8,0.1,1.3,0.2
				c0.5,0,1,0.1,1.5,0.1c0.5,0,1,0.1,1.5,0.1c0.5,0.1,1,0.2,1.3,0.4c0.4,0.2,0.7,0.4,1,0.8c0.2,0.3,0.4,0.7,0.4,1.3
				c0,0.5-0.1,1-0.4,1.4c-0.2,0.5-0.6,0.9-1.1,1.2c-0.5,0.3-1,0.6-1.7,0.8c-0.7,0.2-1.4,0.3-2.2,0.3c-0.8,0-1.6-0.1-2.2-0.3
				c-0.6-0.2-1.2-0.4-1.6-0.7c-0.4-0.3-0.7-0.6-1-1c-0.2-0.4-0.3-0.8-0.3-1.2c0-0.6,0.2-1.2,0.6-1.6c0.4-0.4,1-0.8,1.7-1.1
				c-0.4-0.1-0.7-0.3-1-0.6c-0.2-0.3-0.4-0.6-0.4-1.1c0-0.2,0-0.3,0.1-0.5c0.1-0.2,0.2-0.4,0.3-0.5s0.3-0.3,0.5-0.5
				c0.2-0.2,0.4-0.3,0.6-0.4c-0.6-0.3-1-0.8-1.3-1.3c-0.3-0.5-0.5-1.2-0.5-1.9c0-0.6,0.1-1.1,0.3-1.6c0.2-0.5,0.5-0.9,0.9-1.2
				c0.4-0.3,0.8-0.6,1.3-0.8c0.5-0.2,1.1-0.3,1.7-0.3c0.5,0,1,0.1,1.4,0.2s0.8,0.3,1.2,0.5H1823.8z M1822.5-62.2
				c0-0.4-0.1-0.7-0.3-0.9c-0.2-0.2-0.5-0.4-0.8-0.5s-0.7-0.2-1.1-0.3c-0.4-0.1-0.9-0.1-1.3-0.1c-0.5,0-0.9,0-1.4-0.1
				c-0.5,0-0.9-0.1-1.3-0.1c-0.3,0.1-0.6,0.3-0.8,0.4c-0.3,0.2-0.5,0.3-0.7,0.5s-0.3,0.4-0.4,0.6s-0.2,0.5-0.2,0.8
				c0,0.3,0.1,0.7,0.3,1c0.2,0.3,0.4,0.6,0.8,0.8s0.8,0.4,1.3,0.5c0.5,0.1,1.1,0.2,1.7,0.2c0.6,0,1.2-0.1,1.7-0.2s1-0.3,1.4-0.6
				s0.7-0.5,0.9-0.9C1822.4-61.4,1822.5-61.8,1822.5-62.2z M1818.1-68.2c0.5,0,1-0.1,1.4-0.2c0.4-0.1,0.7-0.4,1-0.6
				c0.3-0.3,0.5-0.6,0.6-0.9c0.1-0.4,0.2-0.8,0.2-1.2s-0.1-0.9-0.2-1.2c-0.1-0.4-0.4-0.7-0.6-0.9c-0.3-0.3-0.6-0.5-1-0.6
				c-0.4-0.1-0.8-0.2-1.3-0.2c-0.5,0-0.9,0.1-1.3,0.2s-0.7,0.3-1,0.6c-0.3,0.3-0.5,0.6-0.6,0.9c-0.1,0.4-0.2,0.8-0.2,1.2
				s0.1,0.8,0.2,1.2c0.1,0.4,0.4,0.7,0.6,0.9c0.3,0.3,0.6,0.5,1,0.6S1817.6-68.2,1818.1-68.2z"/>
			<path class="st0" d="M1839.4-73.4c-0.1,0.1-0.2,0.2-0.3,0.2c-0.1,0-0.2,0-0.3-0.1s-0.3-0.2-0.5-0.3s-0.5-0.2-0.8-0.3
				c-0.3-0.1-0.7-0.1-1.2-0.1c-0.4,0-0.8,0.1-1.2,0.2c-0.4,0.1-0.7,0.3-0.9,0.5c-0.2,0.2-0.4,0.4-0.6,0.7c-0.1,0.3-0.2,0.6-0.2,0.9
				c0,0.4,0.1,0.7,0.3,0.9s0.4,0.5,0.7,0.6c0.3,0.2,0.7,0.3,1.1,0.5c0.4,0.1,0.8,0.3,1.2,0.4c0.4,0.1,0.8,0.3,1.2,0.4
				c0.4,0.2,0.7,0.3,1.1,0.6c0.3,0.2,0.6,0.5,0.7,0.8c0.2,0.3,0.3,0.7,0.3,1.2c0,0.5-0.1,1-0.3,1.4s-0.5,0.8-0.8,1.2
				s-0.8,0.6-1.3,0.8s-1.1,0.3-1.8,0.3c-0.8,0-1.6-0.1-2.2-0.4c-0.6-0.3-1.1-0.6-1.6-1l0.3-0.4c0-0.1,0.1-0.1,0.1-0.1
				c0.1,0,0.1,0,0.2,0c0.1,0,0.2,0.1,0.4,0.2c0.1,0.1,0.3,0.3,0.6,0.4s0.5,0.3,0.9,0.4c0.4,0.1,0.8,0.2,1.3,0.2
				c0.5,0,0.9-0.1,1.3-0.2c0.4-0.1,0.7-0.3,1-0.6c0.3-0.2,0.4-0.5,0.6-0.8c0.1-0.3,0.2-0.7,0.2-1c0-0.4-0.1-0.7-0.3-1
				c-0.2-0.3-0.4-0.5-0.8-0.7c-0.3-0.2-0.7-0.3-1.1-0.5s-0.8-0.3-1.2-0.4c-0.4-0.1-0.8-0.3-1.2-0.4s-0.7-0.3-1.1-0.6
				s-0.6-0.5-0.7-0.8c-0.2-0.3-0.3-0.7-0.3-1.2c0-0.4,0.1-0.8,0.3-1.2c0.2-0.4,0.4-0.7,0.8-1c0.3-0.3,0.7-0.5,1.2-0.7
				c0.5-0.2,1-0.3,1.6-0.3c0.7,0,1.4,0.1,1.9,0.3c0.6,0.2,1.1,0.5,1.5,1L1839.4-73.4z"/>
			<path class="st0" d="M1846.2-62.8c-0.8,0-1.4-0.2-1.9-0.7s-0.7-1.1-0.7-2.1v-8.1h-1.7c-0.1,0-0.2,0-0.2-0.1
				c-0.1,0-0.1-0.1-0.1-0.2v-0.4l2-0.1l0.3-4.2c0-0.1,0-0.1,0.1-0.2c0-0.1,0.1-0.1,0.2-0.1h0.5v4.5h3.7v0.8h-3.7v8
				c0,0.3,0,0.6,0.1,0.8s0.2,0.4,0.3,0.6c0.1,0.2,0.3,0.3,0.5,0.3c0.2,0.1,0.4,0.1,0.6,0.1c0.3,0,0.5,0,0.7-0.1
				c0.2-0.1,0.4-0.2,0.5-0.3c0.2-0.1,0.3-0.2,0.4-0.3c0.1-0.1,0.2-0.1,0.2-0.1c0.1,0,0.1,0,0.2,0.1l0.3,0.5
				c-0.3,0.3-0.7,0.6-1.1,0.8C1847.2-62.9,1846.7-62.8,1846.2-62.8z"/>
			<path class="st0" d="M1852.2-72c0.2-0.5,0.4-0.9,0.6-1.3c0.2-0.4,0.5-0.7,0.8-1c0.3-0.3,0.6-0.5,1-0.6c0.4-0.1,0.8-0.2,1.3-0.2
				c0.2,0,0.5,0,0.7,0.1c0.2,0,0.4,0.1,0.6,0.2l-0.1,0.8c0,0.1-0.1,0.2-0.2,0.2c-0.1,0-0.2,0-0.4-0.1c-0.2-0.1-0.5-0.1-0.8-0.1
				c-0.5,0-0.9,0.1-1.2,0.2s-0.7,0.3-1,0.6c-0.3,0.3-0.5,0.6-0.7,1c-0.2,0.4-0.4,0.9-0.6,1.4v7.7h-1.1v-11.8h0.6
				c0.1,0,0.2,0,0.3,0.1c0.1,0.1,0.1,0.2,0.1,0.3L1852.2-72z"/>
			<path class="st0" d="M1859-73.2c0.6-0.6,1.3-1.1,2-1.4c0.7-0.3,1.5-0.5,2.3-0.5c0.6,0,1.2,0.1,1.7,0.3c0.5,0.2,0.9,0.5,1.2,0.9
				s0.5,0.8,0.7,1.4c0.2,0.5,0.2,1.1,0.2,1.8v7.7h-0.5c-0.2,0-0.4-0.1-0.4-0.3l-0.2-1.5c-0.3,0.3-0.6,0.6-1,0.9s-0.7,0.5-1,0.6
				c-0.3,0.2-0.7,0.3-1.1,0.4c-0.4,0.1-0.8,0.1-1.3,0.1c-0.4,0-0.8-0.1-1.2-0.2s-0.7-0.3-1-0.5c-0.3-0.2-0.5-0.6-0.7-0.9
				s-0.3-0.8-0.3-1.4c0-0.5,0.1-1,0.4-1.4s0.7-0.8,1.3-1.1c0.6-0.3,1.4-0.6,2.4-0.8c1-0.2,2.1-0.3,3.4-0.3v-1.2
				c0-1.1-0.2-1.9-0.7-2.5c-0.5-0.6-1.2-0.9-2.1-0.9c-0.6,0-1.1,0.1-1.5,0.2c-0.4,0.2-0.7,0.3-1,0.5c-0.3,0.2-0.5,0.4-0.7,0.5
				c-0.2,0.2-0.3,0.2-0.4,0.2c-0.1,0-0.2,0-0.2-0.1c-0.1,0-0.1-0.1-0.1-0.2L1859-73.2z M1865.9-68.7c-1.1,0-2.1,0.1-2.9,0.3
				c-0.8,0.1-1.5,0.3-2,0.6c-0.5,0.2-0.9,0.5-1.2,0.9c-0.3,0.3-0.4,0.7-0.4,1.1c0,0.4,0.1,0.7,0.2,1s0.3,0.5,0.5,0.7
				s0.5,0.3,0.8,0.4c0.3,0.1,0.6,0.1,0.9,0.1c0.5,0,0.9,0,1.3-0.1c0.4-0.1,0.7-0.2,1.1-0.4c0.3-0.2,0.6-0.4,0.9-0.6
				c0.3-0.2,0.6-0.5,0.8-0.8V-68.7z"/>
			<path class="st0" d="M1873.9-62.8c-0.8,0-1.4-0.2-1.9-0.7s-0.7-1.1-0.7-2.1v-8.1h-1.7c-0.1,0-0.2,0-0.2-0.1
				c-0.1,0-0.1-0.1-0.1-0.2v-0.4l2-0.1l0.3-4.2c0-0.1,0-0.1,0.1-0.2c0-0.1,0.1-0.1,0.2-0.1h0.5v4.5h3.7v0.8h-3.7v8
				c0,0.3,0,0.6,0.1,0.8s0.2,0.4,0.3,0.6c0.1,0.2,0.3,0.3,0.5,0.3c0.2,0.1,0.4,0.1,0.6,0.1c0.3,0,0.5,0,0.7-0.1
				c0.2-0.1,0.4-0.2,0.5-0.3c0.2-0.1,0.3-0.2,0.4-0.3c0.1-0.1,0.2-0.1,0.2-0.1c0.1,0,0.1,0,0.2,0.1l0.3,0.5
				c-0.3,0.3-0.7,0.6-1.1,0.8C1874.9-62.9,1874.4-62.8,1873.9-62.8z"/>
			<path class="st0" d="M1879.2-69.4v0.2c0,0.9,0.1,1.7,0.3,2.3c0.2,0.7,0.5,1.2,0.9,1.7c0.4,0.5,0.8,0.8,1.4,1
				c0.5,0.2,1.1,0.3,1.8,0.3c0.6,0,1.1-0.1,1.5-0.2c0.4-0.1,0.8-0.3,1.1-0.4s0.5-0.3,0.7-0.4c0.2-0.1,0.3-0.2,0.4-0.2
				c0.1,0,0.2,0,0.2,0.1l0.3,0.4c-0.2,0.2-0.4,0.5-0.8,0.7c-0.3,0.2-0.7,0.4-1,0.5c-0.4,0.1-0.8,0.3-1.2,0.4
				c-0.4,0.1-0.9,0.1-1.3,0.1c-0.8,0-1.5-0.1-2.2-0.4c-0.7-0.3-1.2-0.7-1.7-1.2s-0.8-1.2-1.1-2c-0.3-0.8-0.4-1.7-0.4-2.7
				c0-0.8,0.1-1.6,0.4-2.4c0.2-0.7,0.6-1.3,1-1.9c0.5-0.5,1-0.9,1.7-1.2c0.7-0.3,1.4-0.4,2.3-0.4c0.7,0,1.3,0.1,1.9,0.3
				c0.6,0.2,1.1,0.6,1.5,1c0.4,0.4,0.8,1,1,1.6c0.2,0.6,0.4,1.4,0.4,2.2c0,0.2,0,0.3-0.1,0.4c0,0.1-0.1,0.1-0.2,0.1H1879.2z
				 M1887.1-70.1c0-0.6-0.1-1.2-0.3-1.7c-0.2-0.5-0.4-0.9-0.8-1.3s-0.7-0.6-1.2-0.8c-0.4-0.2-0.9-0.3-1.5-0.3
				c-0.6,0-1.2,0.1-1.6,0.3c-0.5,0.2-0.9,0.5-1.3,0.8s-0.6,0.8-0.9,1.3c-0.2,0.5-0.4,1.1-0.4,1.7H1887.1z"/>
			<path class="st0" d="M1900.7-74.3v0.4c0,0.2-0.1,0.3-0.3,0.3l-1.8,0.1c0.2,0.3,0.4,0.6,0.5,1c0.1,0.4,0.2,0.8,0.2,1.2
				c0,0.6-0.1,1.1-0.3,1.6c-0.2,0.5-0.5,0.9-0.9,1.2c-0.4,0.3-0.8,0.6-1.3,0.8c-0.5,0.2-1.1,0.3-1.7,0.3c-0.7,0-1.3-0.1-1.8-0.3
				c-0.3,0.2-0.6,0.4-0.8,0.7s-0.3,0.5-0.3,0.8c0,0.3,0.1,0.6,0.4,0.8c0.2,0.2,0.6,0.3,1,0.4c0.4,0.1,0.8,0.1,1.3,0.2
				c0.5,0,1,0.1,1.5,0.1c0.5,0,1,0.1,1.5,0.1c0.5,0.1,1,0.2,1.3,0.4c0.4,0.2,0.7,0.4,1,0.8c0.2,0.3,0.4,0.7,0.4,1.3
				c0,0.5-0.1,1-0.4,1.4c-0.2,0.5-0.6,0.9-1.1,1.2c-0.5,0.3-1,0.6-1.7,0.8c-0.7,0.2-1.4,0.3-2.2,0.3c-0.8,0-1.6-0.1-2.2-0.3
				c-0.6-0.2-1.2-0.4-1.6-0.7c-0.4-0.3-0.7-0.6-1-1c-0.2-0.4-0.3-0.8-0.3-1.2c0-0.6,0.2-1.2,0.6-1.6c0.4-0.4,1-0.8,1.7-1.1
				c-0.4-0.1-0.7-0.3-1-0.6c-0.2-0.3-0.4-0.6-0.4-1.1c0-0.2,0-0.3,0.1-0.5c0.1-0.2,0.2-0.4,0.3-0.5s0.3-0.3,0.5-0.5
				c0.2-0.2,0.4-0.3,0.6-0.4c-0.6-0.3-1-0.8-1.3-1.3c-0.3-0.5-0.5-1.2-0.5-1.9c0-0.6,0.1-1.1,0.3-1.6c0.2-0.5,0.5-0.9,0.9-1.2
				c0.4-0.3,0.8-0.6,1.3-0.8c0.5-0.2,1.1-0.3,1.7-0.3c0.5,0,1,0.1,1.4,0.2s0.8,0.3,1.2,0.5H1900.7z M1899.5-62.2
				c0-0.4-0.1-0.7-0.3-0.9c-0.2-0.2-0.5-0.4-0.8-0.5s-0.7-0.2-1.1-0.3c-0.4-0.1-0.9-0.1-1.3-0.1c-0.5,0-0.9,0-1.4-0.1
				c-0.5,0-0.9-0.1-1.3-0.1c-0.3,0.1-0.6,0.3-0.8,0.4c-0.3,0.2-0.5,0.3-0.7,0.5s-0.3,0.4-0.4,0.6s-0.2,0.5-0.2,0.8
				c0,0.3,0.1,0.7,0.3,1c0.2,0.3,0.4,0.6,0.8,0.8s0.8,0.4,1.3,0.5c0.5,0.1,1.1,0.2,1.7,0.2c0.6,0,1.2-0.1,1.7-0.2s1-0.3,1.4-0.6
				s0.7-0.5,0.9-0.9C1899.4-61.4,1899.5-61.8,1899.5-62.2z M1895.1-68.2c0.5,0,1-0.1,1.4-0.2c0.4-0.1,0.7-0.4,1-0.6
				c0.3-0.3,0.5-0.6,0.6-0.9c0.1-0.4,0.2-0.8,0.2-1.2s-0.1-0.9-0.2-1.2c-0.1-0.4-0.4-0.7-0.6-0.9c-0.3-0.3-0.6-0.5-1-0.6
				c-0.4-0.1-0.8-0.2-1.3-0.2c-0.5,0-0.9,0.1-1.3,0.2s-0.7,0.3-1,0.6c-0.3,0.3-0.5,0.6-0.6,0.9c-0.1,0.4-0.2,0.8-0.2,1.2
				s0.1,0.8,0.2,1.2c0.1,0.4,0.4,0.7,0.6,0.9c0.3,0.3,0.6,0.5,1,0.6S1894.6-68.2,1895.1-68.2z"/>
			<path class="st0" d="M1912.9-74.8l-6.8,15.6c0,0.1-0.1,0.2-0.2,0.3c-0.1,0.1-0.2,0.1-0.3,0.1h-0.8l2.1-4.6l-5-11.4h0.9
				c0.1,0,0.2,0,0.3,0.1s0.1,0.1,0.1,0.2l4,9.2c0,0.1,0.1,0.2,0.1,0.4c0,0.1,0.1,0.2,0.1,0.4c0-0.1,0.1-0.3,0.1-0.4
				c0-0.1,0.1-0.2,0.1-0.4l3.9-9.2c0-0.1,0.1-0.2,0.2-0.2s0.2-0.1,0.2-0.1H1912.9z"/>
			<path class="st0" d="M1914.1-60.2C1914.1-60.2,1914.1-60.2,1914.1-60.2c-0.1-0.1-0.1-0.2-0.1-0.2c0,0,0-0.1,0.1-0.2
				c0.1-0.1,0.2-0.2,0.3-0.4c0.1-0.2,0.2-0.3,0.4-0.5c0.1-0.2,0.2-0.4,0.4-0.7c0.1-0.3,0.2-0.5,0.2-0.8c-0.1,0-0.2,0.1-0.4,0.1
				c-0.3,0-0.5-0.1-0.7-0.3c-0.2-0.2-0.3-0.5-0.3-0.8c0-0.3,0.1-0.5,0.3-0.7c0.2-0.2,0.4-0.3,0.8-0.3c0.3,0,0.6,0.1,0.8,0.4
				c0.2,0.2,0.3,0.5,0.3,0.9c0,0.3,0,0.7-0.1,1c-0.1,0.3-0.2,0.7-0.4,1s-0.3,0.6-0.6,0.9c-0.2,0.3-0.5,0.6-0.7,0.8L1914.1-60.2z"/>
			<path class="st0" d="M1609.1-41.4v0.2c0,0.9,0.1,1.7,0.3,2.3c0.2,0.7,0.5,1.2,0.9,1.7c0.4,0.5,0.8,0.8,1.4,1
				c0.5,0.2,1.1,0.3,1.8,0.3c0.6,0,1.1-0.1,1.5-0.2c0.4-0.1,0.8-0.3,1.1-0.4s0.5-0.3,0.7-0.4c0.2-0.1,0.3-0.2,0.4-0.2
				c0.1,0,0.2,0,0.2,0.1l0.3,0.4c-0.2,0.2-0.4,0.5-0.8,0.7c-0.3,0.2-0.7,0.4-1,0.5c-0.4,0.1-0.8,0.3-1.2,0.4
				c-0.4,0.1-0.9,0.1-1.3,0.1c-0.8,0-1.5-0.1-2.2-0.4c-0.7-0.3-1.2-0.7-1.7-1.2s-0.8-1.2-1.1-2c-0.3-0.8-0.4-1.7-0.4-2.7
				c0-0.8,0.1-1.6,0.4-2.4c0.2-0.7,0.6-1.3,1-1.9c0.5-0.5,1-0.9,1.7-1.2c0.7-0.3,1.4-0.4,2.3-0.4c0.7,0,1.3,0.1,1.9,0.3
				c0.6,0.2,1.1,0.6,1.5,1c0.4,0.4,0.8,1,1,1.6c0.2,0.6,0.4,1.4,0.4,2.2c0,0.2,0,0.3-0.1,0.4c0,0.1-0.1,0.1-0.2,0.1H1609.1z
				 M1617-42.1c0-0.6-0.1-1.2-0.3-1.7c-0.2-0.5-0.4-0.9-0.8-1.3s-0.7-0.6-1.2-0.8c-0.4-0.2-0.9-0.3-1.5-0.3c-0.6,0-1.2,0.1-1.6,0.3
				c-0.5,0.2-0.9,0.5-1.3,0.8s-0.6,0.8-0.9,1.3c-0.2,0.5-0.4,1.1-0.4,1.7H1617z"/>
			<path class="st0" d="M1621.1-35v-11.8h0.6c0.2,0,0.3,0.1,0.3,0.3l0.1,1.7c0.5-0.7,1-1.2,1.6-1.6c0.6-0.4,1.3-0.6,2-0.6
				c0.9,0,1.6,0.2,2.1,0.8c0.5,0.5,0.9,1.2,1.1,2.1c0.1-0.5,0.3-0.9,0.6-1.3s0.6-0.7,0.9-0.9c0.3-0.2,0.7-0.4,1.1-0.5
				s0.8-0.2,1.2-0.2c0.6,0,1.1,0.1,1.6,0.3c0.5,0.2,0.9,0.5,1.2,0.9s0.6,0.8,0.8,1.4c0.2,0.6,0.3,1.2,0.3,1.9v7.6h-1.1v-7.6
				c0-1.2-0.2-2-0.8-2.6c-0.5-0.6-1.2-0.9-2.1-0.9c-0.4,0-0.8,0.1-1.2,0.2c-0.4,0.2-0.7,0.4-1,0.7c-0.3,0.3-0.5,0.7-0.7,1.1
				c-0.2,0.4-0.3,1-0.3,1.5v7.6h-1.1v-7.6c0-1.2-0.2-2-0.7-2.6c-0.5-0.6-1.1-0.9-2-0.9c-0.6,0-1.2,0.2-1.8,0.6
				c-0.5,0.4-1,0.9-1.5,1.6v9H1621.1z"/>
			<path class="st0" d="M1641.3-44.7c0.5-0.7,1.1-1.3,1.8-1.7c0.7-0.4,1.5-0.6,2.4-0.6c1.5,0,2.6,0.5,3.4,1.5c0.8,1,1.2,2.5,1.2,4.5
				c0,0.9-0.1,1.7-0.3,2.4s-0.6,1.4-1,2c-0.4,0.6-1,1-1.6,1.3c-0.6,0.3-1.4,0.5-2.2,0.5c-0.8,0-1.5-0.1-2.1-0.4s-1.1-0.7-1.5-1.3
				v5.8h-1.1v-16h0.6c0.2,0,0.3,0.1,0.3,0.3L1641.3-44.7z M1641.4-37.6c0.2,0.3,0.5,0.6,0.7,0.9c0.2,0.2,0.5,0.4,0.8,0.6
				c0.3,0.1,0.6,0.3,0.9,0.3c0.3,0.1,0.6,0.1,1,0.1c0.7,0,1.3-0.1,1.8-0.4c0.5-0.3,1-0.6,1.3-1.1s0.6-1,0.8-1.7
				c0.2-0.6,0.3-1.4,0.3-2.1c0-1.8-0.3-3.1-1-3.9c-0.7-0.8-1.6-1.2-2.8-1.2c-0.8,0-1.5,0.2-2.1,0.6c-0.6,0.4-1.2,1-1.7,1.7V-37.6z"
				/>
			<path class="st0" d="M1654.6-52.3V-35h-1.1v-17.3H1654.6z"/>
			<path class="st0" d="M1663.3-47c0.8,0,1.6,0.1,2.3,0.4c0.7,0.3,1.2,0.7,1.7,1.2s0.8,1.2,1.1,1.9s0.4,1.6,0.4,2.5
				s-0.1,1.8-0.4,2.5s-0.6,1.4-1.1,1.9s-1,0.9-1.7,1.2c-0.7,0.3-1.4,0.4-2.3,0.4c-0.8,0-1.6-0.1-2.3-0.4c-0.7-0.3-1.2-0.7-1.7-1.2
				c-0.5-0.5-0.8-1.2-1.1-1.9c-0.2-0.7-0.4-1.6-0.4-2.5s0.1-1.8,0.4-2.5c0.2-0.8,0.6-1.4,1.1-1.9c0.5-0.5,1-0.9,1.7-1.2
				C1661.7-46.9,1662.5-47,1663.3-47z M1663.3-35.7c0.7,0,1.3-0.1,1.9-0.4c0.5-0.2,1-0.6,1.3-1s0.6-1,0.8-1.6
				c0.2-0.6,0.3-1.4,0.3-2.1c0-0.8-0.1-1.5-0.3-2.1c-0.2-0.6-0.4-1.2-0.8-1.6s-0.8-0.8-1.3-1.1c-0.5-0.2-1.1-0.4-1.9-0.4
				s-1.3,0.1-1.9,0.4c-0.5,0.2-1,0.6-1.3,1.1s-0.6,1-0.8,1.6c-0.2,0.6-0.3,1.4-0.3,2.1c0,0.8,0.1,1.5,0.3,2.1
				c0.2,0.6,0.4,1.2,0.8,1.6s0.8,0.8,1.3,1C1662-35.9,1662.6-35.7,1663.3-35.7z"/>
			<path class="st0" d="M1681.2-46.8l-6.8,15.6c0,0.1-0.1,0.2-0.2,0.3c-0.1,0.1-0.2,0.1-0.3,0.1h-0.8l2.1-4.6l-5-11.4h0.9
				c0.1,0,0.2,0,0.3,0.1s0.1,0.1,0.1,0.2l4,9.2c0,0.1,0.1,0.2,0.1,0.4c0,0.1,0.1,0.2,0.1,0.4c0-0.1,0.1-0.3,0.1-0.4
				c0-0.1,0.1-0.2,0.1-0.4l3.9-9.2c0-0.1,0.1-0.2,0.2-0.2s0.2-0.1,0.2-0.1H1681.2z"/>
			<path class="st0" d="M1683.7-41.4v0.2c0,0.9,0.1,1.7,0.3,2.3c0.2,0.7,0.5,1.2,0.9,1.7c0.4,0.5,0.8,0.8,1.4,1
				c0.5,0.2,1.1,0.3,1.8,0.3c0.6,0,1.1-0.1,1.5-0.2c0.4-0.1,0.8-0.3,1.1-0.4s0.5-0.3,0.7-0.4c0.2-0.1,0.3-0.2,0.4-0.2
				c0.1,0,0.2,0,0.2,0.1l0.3,0.4c-0.2,0.2-0.4,0.5-0.8,0.7c-0.3,0.2-0.7,0.4-1,0.5c-0.4,0.1-0.8,0.3-1.2,0.4
				c-0.4,0.1-0.9,0.1-1.3,0.1c-0.8,0-1.5-0.1-2.2-0.4c-0.7-0.3-1.2-0.7-1.7-1.2s-0.8-1.2-1.1-2c-0.3-0.8-0.4-1.7-0.4-2.7
				c0-0.8,0.1-1.6,0.4-2.4c0.2-0.7,0.6-1.3,1-1.9c0.5-0.5,1-0.9,1.7-1.2c0.7-0.3,1.4-0.4,2.3-0.4c0.7,0,1.3,0.1,1.9,0.3
				c0.6,0.2,1.1,0.6,1.5,1c0.4,0.4,0.8,1,1,1.6c0.2,0.6,0.4,1.4,0.4,2.2c0,0.2,0,0.3-0.1,0.4c0,0.1-0.1,0.1-0.2,0.1H1683.7z
				 M1691.6-42.1c0-0.6-0.1-1.2-0.3-1.7c-0.2-0.5-0.4-0.9-0.8-1.3s-0.7-0.6-1.2-0.8c-0.4-0.2-0.9-0.3-1.5-0.3
				c-0.6,0-1.2,0.1-1.6,0.3c-0.5,0.2-0.9,0.5-1.3,0.8s-0.6,0.8-0.9,1.3c-0.2,0.5-0.4,1.1-0.4,1.7H1691.6z"/>
			<path class="st0" d="M1696.1-41.4v0.2c0,0.9,0.1,1.7,0.3,2.3c0.2,0.7,0.5,1.2,0.9,1.7c0.4,0.5,0.8,0.8,1.4,1
				c0.5,0.2,1.1,0.3,1.8,0.3c0.6,0,1.1-0.1,1.5-0.2c0.4-0.1,0.8-0.3,1.1-0.4s0.5-0.3,0.7-0.4c0.2-0.1,0.3-0.2,0.4-0.2
				c0.1,0,0.2,0,0.2,0.1l0.3,0.4c-0.2,0.2-0.4,0.5-0.8,0.7c-0.3,0.2-0.7,0.4-1,0.5c-0.4,0.1-0.8,0.3-1.2,0.4
				c-0.4,0.1-0.9,0.1-1.3,0.1c-0.8,0-1.5-0.1-2.2-0.4c-0.7-0.3-1.2-0.7-1.7-1.2s-0.8-1.2-1.1-2c-0.3-0.8-0.4-1.7-0.4-2.7
				c0-0.8,0.1-1.6,0.4-2.4c0.2-0.7,0.6-1.3,1-1.9c0.5-0.5,1-0.9,1.7-1.2c0.7-0.3,1.4-0.4,2.3-0.4c0.7,0,1.3,0.1,1.9,0.3
				c0.6,0.2,1.1,0.6,1.5,1c0.4,0.4,0.8,1,1,1.6c0.2,0.6,0.4,1.4,0.4,2.2c0,0.2,0,0.3-0.1,0.4c0,0.1-0.1,0.1-0.2,0.1H1696.1z
				 M1704-42.1c0-0.6-0.1-1.2-0.3-1.7c-0.2-0.5-0.4-0.9-0.8-1.3s-0.7-0.6-1.2-0.8c-0.4-0.2-0.9-0.3-1.5-0.3c-0.6,0-1.2,0.1-1.6,0.3
				c-0.5,0.2-0.9,0.5-1.3,0.8s-0.6,0.8-0.9,1.3c-0.2,0.5-0.4,1.1-0.4,1.7H1704z"/>
			<path class="st0" d="M1714.9-41.4v0.2c0,0.9,0.1,1.7,0.3,2.3c0.2,0.7,0.5,1.2,0.9,1.7c0.4,0.5,0.8,0.8,1.4,1
				c0.5,0.2,1.1,0.3,1.8,0.3c0.6,0,1.1-0.1,1.5-0.2c0.4-0.1,0.8-0.3,1.1-0.4s0.5-0.3,0.7-0.4c0.2-0.1,0.3-0.2,0.4-0.2
				c0.1,0,0.2,0,0.2,0.1l0.3,0.4c-0.2,0.2-0.4,0.5-0.8,0.7c-0.3,0.2-0.7,0.4-1,0.5c-0.4,0.1-0.8,0.3-1.2,0.4
				c-0.4,0.1-0.9,0.1-1.3,0.1c-0.8,0-1.5-0.1-2.2-0.4c-0.7-0.3-1.2-0.7-1.7-1.2s-0.8-1.2-1.1-2c-0.3-0.8-0.4-1.7-0.4-2.7
				c0-0.8,0.1-1.6,0.4-2.4c0.2-0.7,0.6-1.3,1-1.9c0.5-0.5,1-0.9,1.7-1.2c0.7-0.3,1.4-0.4,2.3-0.4c0.7,0,1.3,0.1,1.9,0.3
				c0.6,0.2,1.1,0.6,1.5,1c0.4,0.4,0.8,1,1,1.6c0.2,0.6,0.4,1.4,0.4,2.2c0,0.2,0,0.3-0.1,0.4c0,0.1-0.1,0.1-0.2,0.1H1714.9z
				 M1722.8-42.1c0-0.6-0.1-1.2-0.3-1.7c-0.2-0.5-0.4-0.9-0.8-1.3s-0.7-0.6-1.2-0.8c-0.4-0.2-0.9-0.3-1.5-0.3
				c-0.6,0-1.2,0.1-1.6,0.3c-0.5,0.2-0.9,0.5-1.3,0.8s-0.6,0.8-0.9,1.3c-0.2,0.5-0.4,1.1-0.4,1.7H1722.8z"/>
			<path class="st0" d="M1728-44.8c0.5-0.7,1.2-1.2,1.9-1.6c0.7-0.4,1.5-0.6,2.4-0.6c0.7,0,1.2,0.1,1.7,0.3c0.5,0.2,0.9,0.5,1.2,0.9
				s0.6,0.9,0.7,1.4c0.2,0.5,0.2,1.2,0.2,1.9v7.6h-1.1v-7.6c0-1.1-0.3-2-0.8-2.6s-1.3-0.9-2.3-0.9c-0.8,0-1.5,0.2-2.2,0.6
				c-0.7,0.4-1.3,0.9-1.8,1.6v8.9h-1.1v-11.8h0.6c0.2,0,0.3,0.1,0.3,0.3L1728-44.8z"/>
			<path class="st0" d="M1749.6-46.3v0.4c0,0.2-0.1,0.3-0.3,0.3l-1.8,0.1c0.2,0.3,0.4,0.6,0.5,1c0.1,0.4,0.2,0.8,0.2,1.2
				c0,0.6-0.1,1.1-0.3,1.6c-0.2,0.5-0.5,0.9-0.9,1.2c-0.4,0.3-0.8,0.6-1.3,0.8c-0.5,0.2-1.1,0.3-1.7,0.3c-0.7,0-1.3-0.1-1.8-0.3
				c-0.3,0.2-0.6,0.4-0.8,0.7s-0.3,0.5-0.3,0.8c0,0.3,0.1,0.6,0.4,0.8c0.2,0.2,0.6,0.3,1,0.4c0.4,0.1,0.8,0.1,1.3,0.2
				c0.5,0,1,0.1,1.5,0.1c0.5,0,1,0.1,1.5,0.1c0.5,0.1,1,0.2,1.3,0.4c0.4,0.2,0.7,0.4,1,0.8c0.2,0.3,0.4,0.7,0.4,1.3
				c0,0.5-0.1,1-0.4,1.4c-0.2,0.5-0.6,0.9-1.1,1.2c-0.5,0.3-1,0.6-1.7,0.8c-0.7,0.2-1.4,0.3-2.2,0.3c-0.8,0-1.6-0.1-2.2-0.3
				c-0.6-0.2-1.2-0.4-1.6-0.7c-0.4-0.3-0.7-0.6-1-1c-0.2-0.4-0.3-0.8-0.3-1.2c0-0.6,0.2-1.2,0.6-1.6c0.4-0.4,1-0.8,1.7-1.1
				c-0.4-0.1-0.7-0.3-1-0.6c-0.2-0.3-0.4-0.6-0.4-1.1c0-0.2,0-0.3,0.1-0.5c0.1-0.2,0.2-0.4,0.3-0.5s0.3-0.3,0.5-0.5
				c0.2-0.2,0.4-0.3,0.6-0.4c-0.6-0.3-1-0.8-1.3-1.3c-0.3-0.5-0.5-1.2-0.5-1.9c0-0.6,0.1-1.1,0.3-1.6c0.2-0.5,0.5-0.9,0.9-1.2
				c0.4-0.3,0.8-0.6,1.3-0.8c0.5-0.2,1.1-0.3,1.7-0.3c0.5,0,1,0.1,1.4,0.2s0.8,0.3,1.2,0.5H1749.6z M1748.3-34.2
				c0-0.4-0.1-0.7-0.3-0.9c-0.2-0.2-0.5-0.4-0.8-0.5s-0.7-0.2-1.1-0.3c-0.4-0.1-0.9-0.1-1.3-0.1c-0.5,0-0.9,0-1.4-0.1
				c-0.5,0-0.9-0.1-1.3-0.1c-0.3,0.1-0.6,0.3-0.8,0.4c-0.3,0.2-0.5,0.3-0.7,0.5s-0.3,0.4-0.4,0.6s-0.2,0.5-0.2,0.8
				c0,0.3,0.1,0.7,0.3,1c0.2,0.3,0.4,0.6,0.8,0.8s0.8,0.4,1.3,0.5c0.5,0.1,1.1,0.2,1.7,0.2c0.6,0,1.2-0.1,1.7-0.2s1-0.3,1.4-0.6
				s0.7-0.5,0.9-0.9C1748.2-33.4,1748.3-33.8,1748.3-34.2z M1743.9-40.2c0.5,0,1-0.1,1.4-0.2c0.4-0.1,0.7-0.4,1-0.6
				c0.3-0.3,0.5-0.6,0.6-0.9c0.1-0.4,0.2-0.8,0.2-1.2s-0.1-0.9-0.2-1.2c-0.1-0.4-0.4-0.7-0.6-0.9c-0.3-0.3-0.6-0.5-1-0.6
				c-0.4-0.1-0.8-0.2-1.3-0.2c-0.5,0-0.9,0.1-1.3,0.2s-0.7,0.3-1,0.6c-0.3,0.3-0.5,0.6-0.6,0.9c-0.1,0.4-0.2,0.8-0.2,1.2
				s0.1,0.8,0.2,1.2c0.1,0.4,0.4,0.7,0.6,0.9c0.3,0.3,0.6,0.5,1,0.6S1743.4-40.2,1743.9-40.2z"/>
			<path class="st0" d="M1751.9-45.2c0.6-0.6,1.3-1.1,2-1.4c0.7-0.3,1.5-0.5,2.3-0.5c0.6,0,1.2,0.1,1.7,0.3c0.5,0.2,0.9,0.5,1.2,0.9
				s0.5,0.8,0.7,1.4c0.2,0.5,0.2,1.1,0.2,1.8v7.7h-0.5c-0.2,0-0.4-0.1-0.4-0.3l-0.2-1.5c-0.3,0.3-0.6,0.6-1,0.9s-0.7,0.5-1,0.6
				c-0.3,0.2-0.7,0.3-1.1,0.4c-0.4,0.1-0.8,0.1-1.3,0.1c-0.4,0-0.8-0.1-1.2-0.2s-0.7-0.3-1-0.5c-0.3-0.2-0.5-0.6-0.7-0.9
				s-0.3-0.8-0.3-1.4c0-0.5,0.1-1,0.4-1.4s0.7-0.8,1.3-1.1c0.6-0.3,1.4-0.6,2.4-0.8c1-0.2,2.1-0.3,3.4-0.3v-1.2
				c0-1.1-0.2-1.9-0.7-2.5c-0.5-0.6-1.2-0.9-2.1-0.9c-0.6,0-1.1,0.1-1.5,0.2c-0.4,0.2-0.7,0.3-1,0.5c-0.3,0.2-0.5,0.4-0.7,0.5
				c-0.2,0.2-0.3,0.2-0.4,0.2c-0.1,0-0.2,0-0.2-0.1c-0.1,0-0.1-0.1-0.1-0.2L1751.9-45.2z M1758.8-40.7c-1.1,0-2.1,0.1-2.9,0.3
				c-0.8,0.1-1.5,0.3-2,0.6c-0.5,0.2-0.9,0.5-1.2,0.9c-0.3,0.3-0.4,0.7-0.4,1.1c0,0.4,0.1,0.7,0.2,1s0.3,0.5,0.5,0.7
				s0.5,0.3,0.8,0.4c0.3,0.1,0.6,0.1,0.9,0.1c0.5,0,0.9,0,1.3-0.1c0.4-0.1,0.7-0.2,1.1-0.4c0.3-0.2,0.6-0.4,0.9-0.6
				c0.3-0.2,0.6-0.5,0.8-0.8V-40.7z"/>
			<path class="st0" d="M1773.2-46.3v0.4c0,0.2-0.1,0.3-0.3,0.3l-1.8,0.1c0.2,0.3,0.4,0.6,0.5,1c0.1,0.4,0.2,0.8,0.2,1.2
				c0,0.6-0.1,1.1-0.3,1.6c-0.2,0.5-0.5,0.9-0.9,1.2c-0.4,0.3-0.8,0.6-1.3,0.8c-0.5,0.2-1.1,0.3-1.7,0.3c-0.7,0-1.3-0.1-1.8-0.3
				c-0.3,0.2-0.6,0.4-0.8,0.7s-0.3,0.5-0.3,0.8c0,0.3,0.1,0.6,0.4,0.8c0.2,0.2,0.6,0.3,1,0.4c0.4,0.1,0.8,0.1,1.3,0.2
				c0.5,0,1,0.1,1.5,0.1c0.5,0,1,0.1,1.5,0.1c0.5,0.1,1,0.2,1.3,0.4c0.4,0.2,0.7,0.4,1,0.8c0.2,0.3,0.4,0.7,0.4,1.3
				c0,0.5-0.1,1-0.4,1.4c-0.2,0.5-0.6,0.9-1.1,1.2c-0.5,0.3-1,0.6-1.7,0.8c-0.7,0.2-1.4,0.3-2.2,0.3c-0.8,0-1.6-0.1-2.2-0.3
				c-0.6-0.2-1.2-0.4-1.6-0.7c-0.4-0.3-0.7-0.6-1-1c-0.2-0.4-0.3-0.8-0.3-1.2c0-0.6,0.2-1.2,0.6-1.6c0.4-0.4,1-0.8,1.7-1.1
				c-0.4-0.1-0.7-0.3-1-0.6c-0.2-0.3-0.4-0.6-0.4-1.1c0-0.2,0-0.3,0.1-0.5c0.1-0.2,0.2-0.4,0.3-0.5s0.3-0.3,0.5-0.5
				c0.2-0.2,0.4-0.3,0.6-0.4c-0.6-0.3-1-0.8-1.3-1.3c-0.3-0.5-0.5-1.2-0.5-1.9c0-0.6,0.1-1.1,0.3-1.6c0.2-0.5,0.5-0.9,0.9-1.2
				c0.4-0.3,0.8-0.6,1.3-0.8c0.5-0.2,1.1-0.3,1.7-0.3c0.5,0,1,0.1,1.4,0.2s0.8,0.3,1.2,0.5H1773.2z M1772-34.2
				c0-0.4-0.1-0.7-0.3-0.9c-0.2-0.2-0.5-0.4-0.8-0.5s-0.7-0.2-1.1-0.3c-0.4-0.1-0.9-0.1-1.3-0.1c-0.5,0-0.9,0-1.4-0.1
				c-0.5,0-0.9-0.1-1.3-0.1c-0.3,0.1-0.6,0.3-0.8,0.4c-0.3,0.2-0.5,0.3-0.7,0.5s-0.3,0.4-0.4,0.6s-0.2,0.5-0.2,0.8
				c0,0.3,0.1,0.7,0.3,1c0.2,0.3,0.4,0.6,0.8,0.8s0.8,0.4,1.3,0.5c0.5,0.1,1.1,0.2,1.7,0.2c0.6,0,1.2-0.1,1.7-0.2s1-0.3,1.4-0.6
				s0.7-0.5,0.9-0.9C1771.9-33.4,1772-33.8,1772-34.2z M1767.6-40.2c0.5,0,1-0.1,1.4-0.2c0.4-0.1,0.7-0.4,1-0.6
				c0.3-0.3,0.5-0.6,0.6-0.9c0.1-0.4,0.2-0.8,0.2-1.2s-0.1-0.9-0.2-1.2c-0.1-0.4-0.4-0.7-0.6-0.9c-0.3-0.3-0.6-0.5-1-0.6
				c-0.4-0.1-0.8-0.2-1.3-0.2c-0.5,0-0.9,0.1-1.3,0.2s-0.7,0.3-1,0.6c-0.3,0.3-0.5,0.6-0.6,0.9c-0.1,0.4-0.2,0.8-0.2,1.2
				s0.1,0.8,0.2,1.2c0.1,0.4,0.4,0.7,0.6,0.9c0.3,0.3,0.6,0.5,1,0.6S1767.1-40.2,1767.6-40.2z"/>
			<path class="st0" d="M1776.1-41.4v0.2c0,0.9,0.1,1.7,0.3,2.3c0.2,0.7,0.5,1.2,0.9,1.7c0.4,0.5,0.8,0.8,1.4,1
				c0.5,0.2,1.1,0.3,1.8,0.3c0.6,0,1.1-0.1,1.5-0.2c0.4-0.1,0.8-0.3,1.1-0.4s0.5-0.3,0.7-0.4c0.2-0.1,0.3-0.2,0.4-0.2
				c0.1,0,0.2,0,0.2,0.1l0.3,0.4c-0.2,0.2-0.4,0.5-0.8,0.7c-0.3,0.2-0.7,0.4-1,0.5c-0.4,0.1-0.8,0.3-1.2,0.4
				c-0.4,0.1-0.9,0.1-1.3,0.1c-0.8,0-1.5-0.1-2.2-0.4c-0.7-0.3-1.2-0.7-1.7-1.2s-0.8-1.2-1.1-2c-0.3-0.8-0.4-1.7-0.4-2.7
				c0-0.8,0.1-1.6,0.4-2.4c0.2-0.7,0.6-1.3,1-1.9c0.5-0.5,1-0.9,1.7-1.2c0.7-0.3,1.4-0.4,2.3-0.4c0.7,0,1.3,0.1,1.9,0.3
				c0.6,0.2,1.1,0.6,1.5,1c0.4,0.4,0.8,1,1,1.6c0.2,0.6,0.4,1.4,0.4,2.2c0,0.2,0,0.3-0.1,0.4c0,0.1-0.1,0.1-0.2,0.1H1776.1z
				 M1784-42.1c0-0.6-0.1-1.2-0.3-1.7c-0.2-0.5-0.4-0.9-0.8-1.3s-0.7-0.6-1.2-0.8c-0.4-0.2-0.9-0.3-1.5-0.3c-0.6,0-1.2,0.1-1.6,0.3
				c-0.5,0.2-0.9,0.5-1.3,0.8s-0.6,0.8-0.9,1.3c-0.2,0.5-0.4,1.1-0.4,1.7H1784z"/>
			<path class="st0" d="M1788.1-35v-11.8h0.6c0.2,0,0.3,0.1,0.3,0.3l0.1,1.7c0.5-0.7,1-1.2,1.6-1.6c0.6-0.4,1.3-0.6,2-0.6
				c0.9,0,1.6,0.2,2.1,0.8c0.5,0.5,0.9,1.2,1.1,2.1c0.1-0.5,0.3-0.9,0.6-1.3s0.6-0.7,0.9-0.9c0.3-0.2,0.7-0.4,1.1-0.5
				s0.8-0.2,1.2-0.2c0.6,0,1.1,0.1,1.6,0.3c0.5,0.2,0.9,0.5,1.2,0.9s0.6,0.8,0.8,1.4c0.2,0.6,0.3,1.2,0.3,1.9v7.6h-1.1v-7.6
				c0-1.2-0.2-2-0.8-2.6c-0.5-0.6-1.2-0.9-2.1-0.9c-0.4,0-0.8,0.1-1.2,0.2c-0.4,0.2-0.7,0.4-1,0.7c-0.3,0.3-0.5,0.7-0.7,1.1
				c-0.2,0.4-0.3,1-0.3,1.5v7.6h-1.1v-7.6c0-1.2-0.2-2-0.7-2.6c-0.5-0.6-1.1-0.9-2-0.9c-0.6,0-1.2,0.2-1.8,0.6
				c-0.5,0.4-1,0.9-1.5,1.6v9H1788.1z"/>
			<path class="st0" d="M1807.7-41.4v0.2c0,0.9,0.1,1.7,0.3,2.3c0.2,0.7,0.5,1.2,0.9,1.7c0.4,0.5,0.8,0.8,1.4,1
				c0.5,0.2,1.1,0.3,1.8,0.3c0.6,0,1.1-0.1,1.5-0.2c0.4-0.1,0.8-0.3,1.1-0.4s0.5-0.3,0.7-0.4c0.2-0.1,0.3-0.2,0.4-0.2
				c0.1,0,0.2,0,0.2,0.1l0.3,0.4c-0.2,0.2-0.4,0.5-0.8,0.7c-0.3,0.2-0.7,0.4-1,0.5c-0.4,0.1-0.8,0.3-1.2,0.4
				c-0.4,0.1-0.9,0.1-1.3,0.1c-0.8,0-1.5-0.1-2.2-0.4c-0.7-0.3-1.2-0.7-1.7-1.2s-0.8-1.2-1.1-2c-0.3-0.8-0.4-1.7-0.4-2.7
				c0-0.8,0.1-1.6,0.4-2.4c0.2-0.7,0.6-1.3,1-1.9c0.5-0.5,1-0.9,1.7-1.2c0.7-0.3,1.4-0.4,2.3-0.4c0.7,0,1.3,0.1,1.9,0.3
				c0.6,0.2,1.1,0.6,1.5,1c0.4,0.4,0.8,1,1,1.6c0.2,0.6,0.4,1.4,0.4,2.2c0,0.2,0,0.3-0.1,0.4c0,0.1-0.1,0.1-0.2,0.1H1807.7z
				 M1815.6-42.1c0-0.6-0.1-1.2-0.3-1.7c-0.2-0.5-0.4-0.9-0.8-1.3s-0.7-0.6-1.2-0.8c-0.4-0.2-0.9-0.3-1.5-0.3
				c-0.6,0-1.2,0.1-1.6,0.3c-0.5,0.2-0.9,0.5-1.3,0.8s-0.6,0.8-0.9,1.3c-0.2,0.5-0.4,1.1-0.4,1.7H1815.6z"/>
			<path class="st0" d="M1820.8-44.8c0.5-0.7,1.2-1.2,1.9-1.6c0.7-0.4,1.5-0.6,2.4-0.6c0.7,0,1.2,0.1,1.7,0.3
				c0.5,0.2,0.9,0.5,1.2,0.9s0.6,0.9,0.7,1.4c0.2,0.5,0.2,1.2,0.2,1.9v7.6h-1.1v-7.6c0-1.1-0.3-2-0.8-2.6s-1.3-0.9-2.3-0.9
				c-0.8,0-1.5,0.2-2.2,0.6c-0.7,0.4-1.3,0.9-1.8,1.6v8.9h-1.1v-11.8h0.6c0.2,0,0.3,0.1,0.3,0.3L1820.8-44.8z"/>
			<path class="st0" d="M1835.9-34.8c-0.8,0-1.4-0.2-1.9-0.7s-0.7-1.1-0.7-2.1v-8.1h-1.7c-0.1,0-0.2,0-0.2-0.1
				c-0.1,0-0.1-0.1-0.1-0.2v-0.4l2-0.1l0.3-4.2c0-0.1,0-0.1,0.1-0.2c0-0.1,0.1-0.1,0.2-0.1h0.5v4.5h3.7v0.8h-3.7v8
				c0,0.3,0,0.6,0.1,0.8s0.2,0.4,0.3,0.6c0.1,0.2,0.3,0.3,0.5,0.3c0.2,0.1,0.4,0.1,0.6,0.1c0.3,0,0.5,0,0.7-0.1
				c0.2-0.1,0.4-0.2,0.5-0.3c0.2-0.1,0.3-0.2,0.4-0.3c0.1-0.1,0.2-0.1,0.2-0.1c0.1,0,0.1,0,0.2,0.1l0.3,0.5
				c-0.3,0.3-0.7,0.6-1.1,0.8C1836.8-34.9,1836.4-34.8,1835.9-34.8z"/>
			<path class="st0" d="M1846.9-45.2c0.6-0.6,1.3-1.1,2-1.4c0.7-0.3,1.5-0.5,2.3-0.5c0.6,0,1.2,0.1,1.7,0.3c0.5,0.2,0.9,0.5,1.2,0.9
				s0.5,0.8,0.7,1.4c0.2,0.5,0.2,1.1,0.2,1.8v7.7h-0.5c-0.2,0-0.4-0.1-0.4-0.3l-0.2-1.5c-0.3,0.3-0.6,0.6-1,0.9s-0.7,0.5-1,0.6
				c-0.3,0.2-0.7,0.3-1.1,0.4c-0.4,0.1-0.8,0.1-1.3,0.1c-0.4,0-0.8-0.1-1.2-0.2s-0.7-0.3-1-0.5c-0.3-0.2-0.5-0.6-0.7-0.9
				s-0.3-0.8-0.3-1.4c0-0.5,0.1-1,0.4-1.4s0.7-0.8,1.3-1.1c0.6-0.3,1.4-0.6,2.4-0.8c1-0.2,2.1-0.3,3.4-0.3v-1.2
				c0-1.1-0.2-1.9-0.7-2.5c-0.5-0.6-1.2-0.9-2.1-0.9c-0.6,0-1.1,0.1-1.5,0.2c-0.4,0.2-0.7,0.3-1,0.5c-0.3,0.2-0.5,0.4-0.7,0.5
				c-0.2,0.2-0.3,0.2-0.4,0.2c-0.1,0-0.2,0-0.2-0.1c-0.1,0-0.1-0.1-0.1-0.2L1846.9-45.2z M1853.9-40.7c-1.1,0-2.1,0.1-2.9,0.3
				c-0.8,0.1-1.5,0.3-2,0.6c-0.5,0.2-0.9,0.5-1.2,0.9c-0.3,0.3-0.4,0.7-0.4,1.1c0,0.4,0.1,0.7,0.2,1s0.3,0.5,0.5,0.7
				s0.5,0.3,0.8,0.4c0.3,0.1,0.6,0.1,0.9,0.1c0.5,0,0.9,0,1.3-0.1c0.4-0.1,0.7-0.2,1.1-0.4c0.3-0.2,0.6-0.4,0.9-0.6
				c0.3-0.2,0.6-0.5,0.8-0.8V-40.7z"/>
			<path class="st0" d="M1859.8-44.8c0.5-0.7,1.2-1.2,1.9-1.6c0.7-0.4,1.5-0.6,2.4-0.6c0.7,0,1.2,0.1,1.7,0.3
				c0.5,0.2,0.9,0.5,1.2,0.9s0.6,0.9,0.7,1.4c0.2,0.5,0.2,1.2,0.2,1.9v7.6h-1.1v-7.6c0-1.1-0.3-2-0.8-2.6s-1.3-0.9-2.3-0.9
				c-0.8,0-1.5,0.2-2.2,0.6c-0.7,0.4-1.3,0.9-1.8,1.6v8.9h-1.1v-11.8h0.6c0.2,0,0.3,0.1,0.3,0.3L1859.8-44.8z"/>
			<path class="st0" d="M1881.1-52.3V-35h-0.6c-0.2,0-0.3-0.1-0.4-0.3l-0.1-1.9c-0.5,0.7-1.1,1.3-1.8,1.7c-0.7,0.4-1.5,0.6-2.4,0.6
				c-1.5,0-2.6-0.5-3.4-1.5c-0.8-1-1.2-2.5-1.2-4.5c0-0.9,0.1-1.7,0.3-2.4s0.6-1.4,1-2c0.4-0.6,1-1,1.6-1.3s1.4-0.5,2.2-0.5
				c0.8,0,1.5,0.1,2.1,0.4c0.6,0.3,1.1,0.7,1.5,1.3v-7H1881.1z M1879.9-44.3c-0.5-0.7-1-1.2-1.5-1.4s-1.2-0.4-1.9-0.4
				c-0.7,0-1.3,0.1-1.8,0.4s-1,0.6-1.3,1.1c-0.4,0.5-0.6,1-0.8,1.7c-0.2,0.6-0.3,1.4-0.3,2.1c0,1.8,0.3,3.1,1,3.9
				c0.6,0.8,1.6,1.2,2.8,1.2c0.8,0,1.5-0.2,2.1-0.6s1.2-1,1.7-1.7V-44.3z"/>
			<path class="st0" d="M1629.1-24.3V-7h-1.1v-17.3H1629.1z"/>
			<path class="st0" d="M1633.5-13.4v0.2c0,0.9,0.1,1.7,0.3,2.3c0.2,0.7,0.5,1.2,0.9,1.7c0.4,0.5,0.8,0.8,1.4,1
				c0.5,0.2,1.1,0.3,1.8,0.3c0.6,0,1.1-0.1,1.5-0.2c0.4-0.1,0.8-0.3,1.1-0.4s0.5-0.3,0.7-0.4c0.2-0.1,0.3-0.2,0.4-0.2
				c0.1,0,0.2,0,0.2,0.1l0.3,0.4c-0.2,0.2-0.4,0.5-0.8,0.7c-0.3,0.2-0.7,0.4-1,0.5c-0.4,0.1-0.8,0.3-1.2,0.4
				c-0.4,0.1-0.9,0.1-1.3,0.1c-0.8,0-1.5-0.1-2.2-0.4c-0.7-0.3-1.2-0.7-1.7-1.2s-0.8-1.2-1.1-2c-0.3-0.8-0.4-1.7-0.4-2.7
				c0-0.8,0.1-1.6,0.4-2.4c0.2-0.7,0.6-1.3,1-1.9c0.5-0.5,1-0.9,1.7-1.2c0.7-0.3,1.4-0.4,2.3-0.4c0.7,0,1.3,0.1,1.9,0.3
				c0.6,0.2,1.1,0.6,1.5,1c0.4,0.4,0.8,1,1,1.6c0.2,0.6,0.4,1.4,0.4,2.2c0,0.2,0,0.3-0.1,0.4c0,0.1-0.1,0.1-0.2,0.1H1633.5z
				 M1641.4-14.1c0-0.6-0.1-1.2-0.3-1.7c-0.2-0.5-0.4-0.9-0.8-1.3s-0.7-0.6-1.2-0.8c-0.4-0.2-0.9-0.3-1.5-0.3
				c-0.6,0-1.2,0.1-1.6,0.3c-0.5,0.2-0.9,0.5-1.3,0.8s-0.6,0.8-0.9,1.3c-0.2,0.5-0.4,1.1-0.4,1.7H1641.4z"/>
			<path class="st0" d="M1645.1-17.2c0.6-0.6,1.3-1.1,2-1.4c0.7-0.3,1.5-0.5,2.3-0.5c0.6,0,1.2,0.1,1.7,0.3c0.5,0.2,0.9,0.5,1.2,0.9
				s0.5,0.8,0.7,1.4c0.2,0.5,0.2,1.1,0.2,1.8V-7h-0.5c-0.2,0-0.4-0.1-0.4-0.3l-0.2-1.5c-0.3,0.3-0.6,0.6-1,0.9s-0.7,0.5-1,0.6
				c-0.3,0.2-0.7,0.3-1.1,0.4c-0.4,0.1-0.8,0.1-1.3,0.1c-0.4,0-0.8-0.1-1.2-0.2s-0.7-0.3-1-0.5c-0.3-0.2-0.5-0.6-0.7-0.9
				s-0.3-0.8-0.3-1.4c0-0.5,0.1-1,0.4-1.4s0.7-0.8,1.3-1.1c0.6-0.3,1.4-0.6,2.4-0.8c1-0.2,2.1-0.3,3.4-0.3v-1.2
				c0-1.1-0.2-1.9-0.7-2.5c-0.5-0.6-1.2-0.9-2.1-0.9c-0.6,0-1.1,0.1-1.5,0.2c-0.4,0.2-0.7,0.3-1,0.5c-0.3,0.2-0.5,0.4-0.7,0.5
				c-0.2,0.2-0.3,0.2-0.4,0.2c-0.1,0-0.2,0-0.2-0.1c-0.1,0-0.1-0.1-0.1-0.2L1645.1-17.2z M1652.1-12.7c-1.1,0-2.1,0.1-2.9,0.3
				c-0.8,0.1-1.5,0.3-2,0.6c-0.5,0.2-0.9,0.5-1.2,0.9c-0.3,0.3-0.4,0.7-0.4,1.1c0,0.4,0.1,0.7,0.2,1s0.3,0.5,0.5,0.7
				s0.5,0.3,0.8,0.4c0.3,0.1,0.6,0.1,0.9,0.1c0.5,0,0.9,0,1.3-0.1c0.4-0.1,0.7-0.2,1.1-0.4c0.3-0.2,0.6-0.4,0.9-0.6
				c0.3-0.2,0.6-0.5,0.8-0.8V-12.7z"/>
			<path class="st0" d="M1658.1-16c0.2-0.5,0.4-0.9,0.6-1.3c0.2-0.4,0.5-0.7,0.8-1c0.3-0.3,0.6-0.5,1-0.6c0.4-0.1,0.8-0.2,1.3-0.2
				c0.2,0,0.5,0,0.7,0.1c0.2,0,0.4,0.1,0.6,0.2l-0.1,0.8c0,0.1-0.1,0.2-0.2,0.2c-0.1,0-0.2,0-0.4-0.1c-0.2-0.1-0.5-0.1-0.8-0.1
				c-0.5,0-0.9,0.1-1.2,0.2s-0.7,0.3-1,0.6c-0.3,0.3-0.5,0.6-0.7,1c-0.2,0.4-0.4,0.9-0.6,1.4V-7h-1.1v-11.8h0.6c0.1,0,0.2,0,0.3,0.1
				c0.1,0.1,0.1,0.2,0.1,0.3L1658.1-16z"/>
			<path class="st0" d="M1666.5-16.8c0.5-0.7,1.2-1.2,1.9-1.6c0.7-0.4,1.5-0.6,2.4-0.6c0.7,0,1.2,0.1,1.7,0.3
				c0.5,0.2,0.9,0.5,1.2,0.9s0.6,0.9,0.7,1.4c0.2,0.5,0.2,1.2,0.2,1.9V-7h-1.1v-7.6c0-1.1-0.3-2-0.8-2.6s-1.3-0.9-2.3-0.9
				c-0.8,0-1.5,0.2-2.2,0.6c-0.7,0.4-1.3,0.9-1.8,1.6V-7h-1.1v-11.8h0.6c0.2,0,0.3,0.1,0.3,0.3L1666.5-16.8z"/>
			<path class="st0" d="M1680.2-22.9c0,0.1,0,0.3-0.1,0.4c-0.1,0.1-0.1,0.2-0.2,0.3c-0.1,0.1-0.2,0.2-0.3,0.2s-0.3,0.1-0.4,0.1
				c-0.1,0-0.3,0-0.4-0.1s-0.2-0.1-0.3-0.2c-0.1-0.1-0.2-0.2-0.2-0.3c-0.1-0.1-0.1-0.3-0.1-0.4c0-0.1,0-0.3,0.1-0.4
				c0.1-0.1,0.1-0.2,0.2-0.3c0.1-0.1,0.2-0.2,0.3-0.2c0.1-0.1,0.3-0.1,0.4-0.1c0.1,0,0.3,0,0.4,0.1c0.1,0.1,0.2,0.1,0.3,0.2
				c0.1,0.1,0.2,0.2,0.2,0.3S1680.2-23.1,1680.2-22.9z M1679.8-18.8V-7h-1.1v-11.8H1679.8z"/>
			<path class="st0" d="M1684.9-16.8c0.5-0.7,1.2-1.2,1.9-1.6c0.7-0.4,1.5-0.6,2.4-0.6c0.7,0,1.2,0.1,1.7,0.3
				c0.5,0.2,0.9,0.5,1.2,0.9s0.6,0.9,0.7,1.4c0.2,0.5,0.2,1.2,0.2,1.9V-7h-1.1v-7.6c0-1.1-0.3-2-0.8-2.6s-1.3-0.9-2.3-0.9
				c-0.8,0-1.5,0.2-2.2,0.6c-0.7,0.4-1.3,0.9-1.8,1.6V-7h-1.1v-11.8h0.6c0.2,0,0.3,0.1,0.3,0.3L1684.9-16.8z"/>
			<path class="st0" d="M1706.4-18.3v0.4c0,0.2-0.1,0.3-0.3,0.3l-1.8,0.1c0.2,0.3,0.4,0.6,0.5,1c0.1,0.4,0.2,0.8,0.2,1.2
				c0,0.6-0.1,1.1-0.3,1.6c-0.2,0.5-0.5,0.9-0.9,1.2c-0.4,0.3-0.8,0.6-1.3,0.8c-0.5,0.2-1.1,0.3-1.7,0.3c-0.7,0-1.3-0.1-1.8-0.3
				c-0.3,0.2-0.6,0.4-0.8,0.7s-0.3,0.5-0.3,0.8c0,0.3,0.1,0.6,0.4,0.8c0.2,0.2,0.6,0.3,1,0.4c0.4,0.1,0.8,0.1,1.3,0.2
				c0.5,0,1,0.1,1.5,0.1c0.5,0,1,0.1,1.5,0.1c0.5,0.1,1,0.2,1.3,0.4c0.4,0.2,0.7,0.4,1,0.8c0.2,0.3,0.4,0.7,0.4,1.3
				c0,0.5-0.1,1-0.4,1.4c-0.2,0.5-0.6,0.9-1.1,1.2c-0.5,0.3-1,0.6-1.7,0.8c-0.7,0.2-1.4,0.3-2.2,0.3c-0.8,0-1.6-0.1-2.2-0.3
				c-0.6-0.2-1.2-0.4-1.6-0.7c-0.4-0.3-0.7-0.6-1-1c-0.2-0.4-0.3-0.8-0.3-1.2c0-0.6,0.2-1.2,0.6-1.6c0.4-0.4,1-0.8,1.7-1.1
				c-0.4-0.1-0.7-0.3-1-0.6c-0.2-0.3-0.4-0.6-0.4-1.1c0-0.2,0-0.3,0.1-0.5c0.1-0.2,0.2-0.4,0.3-0.5s0.3-0.3,0.5-0.5
				c0.2-0.2,0.4-0.3,0.6-0.4c-0.6-0.3-1-0.8-1.3-1.3c-0.3-0.5-0.5-1.2-0.5-1.9c0-0.6,0.1-1.1,0.3-1.6c0.2-0.5,0.5-0.9,0.9-1.2
				c0.4-0.3,0.8-0.6,1.3-0.8c0.5-0.2,1.1-0.3,1.7-0.3c0.5,0,1,0.1,1.4,0.2s0.8,0.3,1.2,0.5H1706.4z M1705.2-6.2
				c0-0.4-0.1-0.7-0.3-0.9c-0.2-0.2-0.5-0.4-0.8-0.5s-0.7-0.2-1.1-0.3c-0.4-0.1-0.9-0.1-1.3-0.1c-0.5,0-0.9,0-1.4-0.1
				c-0.5,0-0.9-0.1-1.3-0.1c-0.3,0.1-0.6,0.3-0.8,0.4c-0.3,0.2-0.5,0.3-0.7,0.5s-0.3,0.4-0.4,0.6s-0.2,0.5-0.2,0.8
				c0,0.3,0.1,0.7,0.3,1c0.2,0.3,0.4,0.6,0.8,0.8s0.8,0.4,1.3,0.5c0.5,0.1,1.1,0.2,1.7,0.2c0.6,0,1.2-0.1,1.7-0.2s1-0.3,1.4-0.6
				s0.7-0.5,0.9-0.9C1705.1-5.4,1705.2-5.8,1705.2-6.2z M1700.7-12.2c0.5,0,1-0.1,1.4-0.2c0.4-0.1,0.7-0.4,1-0.6
				c0.3-0.3,0.5-0.6,0.6-0.9c0.1-0.4,0.2-0.8,0.2-1.2s-0.1-0.9-0.2-1.2c-0.1-0.4-0.4-0.7-0.6-0.9c-0.3-0.3-0.6-0.5-1-0.6
				c-0.4-0.1-0.8-0.2-1.3-0.2c-0.5,0-0.9,0.1-1.3,0.2s-0.7,0.3-1,0.6c-0.3,0.3-0.5,0.6-0.6,0.9c-0.1,0.4-0.2,0.8-0.2,1.2
				s0.1,0.8,0.2,1.2c0.1,0.4,0.4,0.7,0.6,0.9c0.3,0.3,0.6,0.5,1,0.6S1700.2-12.2,1700.7-12.2z"/>
			<path class="st0" d="M1729.8-7h-1.1c-0.1,0-0.3,0-0.4,0s-0.2-0.1-0.3-0.2l-2.4-2.4c-0.3,0.4-0.7,0.8-1.2,1.1
				c-0.4,0.3-0.9,0.6-1.4,0.9c-0.5,0.3-1,0.5-1.6,0.6c-0.6,0.1-1.2,0.2-1.8,0.2c-0.6,0-1.2-0.1-1.8-0.3s-1.1-0.5-1.6-0.9
				c-0.5-0.4-0.8-0.9-1.1-1.4c-0.3-0.6-0.4-1.2-0.4-1.9c0-0.6,0.1-1.1,0.3-1.6c0.2-0.5,0.5-1,0.8-1.4c0.4-0.4,0.8-0.8,1.3-1.2
				c0.5-0.3,1-0.6,1.6-0.8c-0.6-0.6-1-1.3-1.3-1.9c-0.3-0.6-0.4-1.2-0.4-1.9c0-0.6,0.1-1.1,0.3-1.5c0.2-0.5,0.5-0.9,0.9-1.2
				c0.4-0.3,0.8-0.6,1.3-0.8c0.5-0.2,1.1-0.3,1.7-0.3c0.5,0,1,0.1,1.5,0.3c0.5,0.2,0.9,0.4,1.2,0.7c0.4,0.3,0.6,0.7,0.8,1.1
				c0.2,0.4,0.3,0.8,0.3,1.3l-0.6,0.1c-0.1,0-0.2,0-0.2,0c-0.1,0-0.1-0.1-0.2-0.2c0-0.2-0.1-0.5-0.3-0.7c-0.1-0.3-0.3-0.5-0.6-0.8
				c-0.2-0.2-0.5-0.4-0.9-0.6c-0.3-0.2-0.8-0.2-1.2-0.2c-0.5,0-0.9,0.1-1.3,0.2c-0.4,0.1-0.7,0.4-1,0.6c-0.3,0.3-0.5,0.6-0.6,0.9
				c-0.2,0.4-0.2,0.8-0.2,1.2c0,0.7,0.2,1.3,0.5,1.9c0.3,0.6,0.8,1.2,1.5,1.9l5.3,5.2c0.4-0.6,0.6-1.2,0.8-1.8
				c0.2-0.6,0.3-1.2,0.4-1.8c0-0.1,0-0.2,0.1-0.2c0-0.1,0.1-0.1,0.2-0.1h0.7c0,0.7-0.2,1.5-0.4,2.3s-0.6,1.5-1.1,2.3L1729.8-7z
				 M1719.4-15.8c-0.5,0.2-1,0.5-1.4,0.8c-0.4,0.3-0.8,0.7-1.1,1s-0.5,0.8-0.7,1.2c-0.2,0.4-0.2,0.9-0.2,1.4c0,0.6,0.1,1.1,0.4,1.6
				c0.2,0.5,0.5,0.8,0.9,1.1c0.4,0.3,0.8,0.5,1.2,0.7c0.5,0.2,0.9,0.2,1.4,0.2c0.6,0,1.1-0.1,1.6-0.2c0.5-0.1,1-0.3,1.4-0.5
				c0.4-0.2,0.8-0.5,1.2-0.8c0.4-0.3,0.7-0.7,1-1l-5.5-5.4L1719.4-15.8z"/>
			<path class="st0" d="M1747.8-24.3V-7h-0.6c-0.2,0-0.3-0.1-0.4-0.3l-0.1-1.9c-0.5,0.7-1.1,1.3-1.8,1.7c-0.7,0.4-1.5,0.6-2.4,0.6
				c-1.5,0-2.6-0.5-3.4-1.5c-0.8-1-1.2-2.5-1.2-4.5c0-0.9,0.1-1.7,0.3-2.4s0.6-1.4,1-2c0.4-0.6,1-1,1.6-1.3s1.4-0.5,2.2-0.5
				c0.8,0,1.5,0.1,2.1,0.4c0.6,0.3,1.1,0.7,1.5,1.3v-7H1747.8z M1746.7-16.3c-0.5-0.7-1-1.2-1.5-1.4s-1.2-0.4-1.9-0.4
				c-0.7,0-1.3,0.1-1.8,0.4s-1,0.6-1.3,1.1c-0.4,0.5-0.6,1-0.8,1.7c-0.2,0.6-0.3,1.4-0.3,2.1c0,1.8,0.3,3.1,1,3.9
				c0.6,0.8,1.6,1.2,2.8,1.2c0.8,0,1.5-0.2,2.1-0.6s1.2-1,1.7-1.7V-16.3z"/>
			<path class="st0" d="M1752.1-13.4v0.2c0,0.9,0.1,1.7,0.3,2.3c0.2,0.7,0.5,1.2,0.9,1.7c0.4,0.5,0.8,0.8,1.4,1
				c0.5,0.2,1.1,0.3,1.8,0.3c0.6,0,1.1-0.1,1.5-0.2c0.4-0.1,0.8-0.3,1.1-0.4s0.5-0.3,0.7-0.4c0.2-0.1,0.3-0.2,0.4-0.2
				c0.1,0,0.2,0,0.2,0.1l0.3,0.4c-0.2,0.2-0.4,0.5-0.8,0.7c-0.3,0.2-0.7,0.4-1,0.5c-0.4,0.1-0.8,0.3-1.2,0.4
				c-0.4,0.1-0.9,0.1-1.3,0.1c-0.8,0-1.5-0.1-2.2-0.4c-0.7-0.3-1.2-0.7-1.7-1.2s-0.8-1.2-1.1-2c-0.3-0.8-0.4-1.7-0.4-2.7
				c0-0.8,0.1-1.6,0.4-2.4c0.2-0.7,0.6-1.3,1-1.9c0.5-0.5,1-0.9,1.7-1.2c0.7-0.3,1.4-0.4,2.3-0.4c0.7,0,1.3,0.1,1.9,0.3
				c0.6,0.2,1.1,0.6,1.5,1c0.4,0.4,0.8,1,1,1.6c0.2,0.6,0.4,1.4,0.4,2.2c0,0.2,0,0.3-0.1,0.4c0,0.1-0.1,0.1-0.2,0.1H1752.1z
				 M1760-14.1c0-0.6-0.1-1.2-0.3-1.7c-0.2-0.5-0.4-0.9-0.8-1.3s-0.7-0.6-1.2-0.8c-0.4-0.2-0.9-0.3-1.5-0.3c-0.6,0-1.2,0.1-1.6,0.3
				c-0.5,0.2-0.9,0.5-1.3,0.8s-0.6,0.8-0.9,1.3c-0.2,0.5-0.4,1.1-0.4,1.7H1760z"/>
			<path class="st0" d="M1773.4-18.8l-5,11.8h-1l-5-11.8h0.9c0.1,0,0.2,0,0.3,0.1s0.1,0.1,0.1,0.2l3.9,9.3c0.1,0.3,0.2,0.7,0.3,1
				c0.1-0.3,0.2-0.7,0.3-1l3.9-9.3c0-0.1,0.1-0.2,0.2-0.2s0.1-0.1,0.2-0.1H1773.4z"/>
			<path class="st0" d="M1776-13.4v0.2c0,0.9,0.1,1.7,0.3,2.3c0.2,0.7,0.5,1.2,0.9,1.7c0.4,0.5,0.8,0.8,1.4,1
				c0.5,0.2,1.1,0.3,1.8,0.3c0.6,0,1.1-0.1,1.5-0.2c0.4-0.1,0.8-0.3,1.1-0.4s0.5-0.3,0.7-0.4c0.2-0.1,0.3-0.2,0.4-0.2
				c0.1,0,0.2,0,0.2,0.1l0.3,0.4c-0.2,0.2-0.4,0.5-0.8,0.7c-0.3,0.2-0.7,0.4-1,0.5c-0.4,0.1-0.8,0.3-1.2,0.4
				c-0.4,0.1-0.9,0.1-1.3,0.1c-0.8,0-1.5-0.1-2.2-0.4c-0.7-0.3-1.2-0.7-1.7-1.2s-0.8-1.2-1.1-2c-0.3-0.8-0.4-1.7-0.4-2.7
				c0-0.8,0.1-1.6,0.4-2.4c0.2-0.7,0.6-1.3,1-1.9c0.5-0.5,1-0.9,1.7-1.2c0.7-0.3,1.4-0.4,2.3-0.4c0.7,0,1.3,0.1,1.9,0.3
				c0.6,0.2,1.1,0.6,1.5,1c0.4,0.4,0.8,1,1,1.6c0.2,0.6,0.4,1.4,0.4,2.2c0,0.2,0,0.3-0.1,0.4c0,0.1-0.1,0.1-0.2,0.1H1776z
				 M1783.9-14.1c0-0.6-0.1-1.2-0.3-1.7c-0.2-0.5-0.4-0.9-0.8-1.3s-0.7-0.6-1.2-0.8c-0.4-0.2-0.9-0.3-1.5-0.3
				c-0.6,0-1.2,0.1-1.6,0.3c-0.5,0.2-0.9,0.5-1.3,0.8s-0.6,0.8-0.9,1.3c-0.2,0.5-0.4,1.1-0.4,1.7H1783.9z"/>
			<path class="st0" d="M1789.2-24.3V-7h-1.1v-17.3H1789.2z"/>
			<path class="st0" d="M1797.9-19c0.8,0,1.6,0.1,2.3,0.4c0.7,0.3,1.2,0.7,1.7,1.2s0.8,1.2,1.1,1.9s0.4,1.6,0.4,2.5
				s-0.1,1.8-0.4,2.5s-0.6,1.4-1.1,1.9s-1,0.9-1.7,1.2c-0.7,0.3-1.4,0.4-2.3,0.4c-0.8,0-1.6-0.1-2.3-0.4c-0.7-0.3-1.2-0.7-1.7-1.2
				c-0.5-0.5-0.8-1.2-1.1-1.9c-0.2-0.7-0.4-1.6-0.4-2.5s0.1-1.8,0.4-2.5c0.2-0.8,0.6-1.4,1.1-1.9c0.5-0.5,1-0.9,1.7-1.2
				C1796.3-18.9,1797.1-19,1797.9-19z M1797.9-7.7c0.7,0,1.3-0.1,1.9-0.4c0.5-0.2,1-0.6,1.3-1s0.6-1,0.8-1.6
				c0.2-0.6,0.3-1.4,0.3-2.1c0-0.8-0.1-1.5-0.3-2.1c-0.2-0.6-0.4-1.2-0.8-1.6s-0.8-0.8-1.3-1.1c-0.5-0.2-1.1-0.4-1.9-0.4
				s-1.3,0.1-1.9,0.4c-0.5,0.2-1,0.6-1.3,1.1s-0.6,1-0.8,1.6c-0.2,0.6-0.3,1.4-0.3,2.1c0,0.8,0.1,1.5,0.3,2.1
				c0.2,0.6,0.4,1.2,0.8,1.6s0.8,0.8,1.3,1C1796.6-7.9,1797.2-7.7,1797.9-7.7z"/>
			<path class="st0" d="M1807.6-16.7c0.5-0.7,1.1-1.3,1.8-1.7c0.7-0.4,1.5-0.6,2.4-0.6c1.5,0,2.6,0.5,3.4,1.5c0.8,1,1.2,2.5,1.2,4.5
				c0,0.9-0.1,1.7-0.3,2.4s-0.6,1.4-1,2c-0.4,0.6-1,1-1.6,1.3c-0.6,0.3-1.4,0.5-2.2,0.5c-0.8,0-1.5-0.1-2.1-0.4s-1.1-0.7-1.5-1.3
				v5.8h-1.1v-16h0.6c0.2,0,0.3,0.1,0.3,0.3L1807.6-16.7z M1807.6-9.6c0.2,0.3,0.5,0.6,0.7,0.9c0.2,0.2,0.5,0.4,0.8,0.6
				c0.3,0.1,0.6,0.3,0.9,0.3c0.3,0.1,0.6,0.1,1,0.1c0.7,0,1.3-0.1,1.8-0.4c0.5-0.3,1-0.6,1.3-1.1s0.6-1,0.8-1.7
				c0.2-0.6,0.3-1.4,0.3-2.1c0-1.8-0.3-3.1-1-3.9c-0.7-0.8-1.6-1.2-2.8-1.2c-0.8,0-1.5,0.2-2.1,0.6c-0.6,0.4-1.2,1-1.7,1.7V-9.6z"/>
			<path class="st0" d="M1819.6-7v-11.8h0.6c0.2,0,0.3,0.1,0.3,0.3l0.1,1.7c0.5-0.7,1-1.2,1.6-1.6c0.6-0.4,1.3-0.6,2-0.6
				c0.9,0,1.6,0.2,2.1,0.8c0.5,0.5,0.9,1.2,1.1,2.1c0.1-0.5,0.3-0.9,0.6-1.3s0.6-0.7,0.9-0.9c0.3-0.2,0.7-0.4,1.1-0.5
				s0.8-0.2,1.2-0.2c0.6,0,1.1,0.1,1.6,0.3c0.5,0.2,0.9,0.5,1.2,0.9s0.6,0.8,0.8,1.4c0.2,0.6,0.3,1.2,0.3,1.9V-7h-1.1v-7.6
				c0-1.2-0.2-2-0.8-2.6c-0.5-0.6-1.2-0.9-2.1-0.9c-0.4,0-0.8,0.1-1.2,0.2c-0.4,0.2-0.7,0.4-1,0.7c-0.3,0.3-0.5,0.7-0.7,1.1
				c-0.2,0.4-0.3,1-0.3,1.5V-7h-1.1v-7.6c0-1.2-0.2-2-0.7-2.6c-0.5-0.6-1.1-0.9-2-0.9c-0.6,0-1.2,0.2-1.8,0.6
				c-0.5,0.4-1,0.9-1.5,1.6v9H1819.6z"/>
			<path class="st0" d="M1839.2-13.4v0.2c0,0.9,0.1,1.7,0.3,2.3c0.2,0.7,0.5,1.2,0.9,1.7c0.4,0.5,0.8,0.8,1.4,1
				c0.5,0.2,1.1,0.3,1.8,0.3c0.6,0,1.1-0.1,1.5-0.2c0.4-0.1,0.8-0.3,1.1-0.4s0.5-0.3,0.7-0.4c0.2-0.1,0.3-0.2,0.4-0.2
				c0.1,0,0.2,0,0.2,0.1l0.3,0.4c-0.2,0.2-0.4,0.5-0.8,0.7c-0.3,0.2-0.7,0.4-1,0.5c-0.4,0.1-0.8,0.3-1.2,0.4
				c-0.4,0.1-0.9,0.1-1.3,0.1c-0.8,0-1.5-0.1-2.2-0.4c-0.7-0.3-1.2-0.7-1.7-1.2s-0.8-1.2-1.1-2c-0.3-0.8-0.4-1.7-0.4-2.7
				c0-0.8,0.1-1.6,0.4-2.4c0.2-0.7,0.6-1.3,1-1.9c0.5-0.5,1-0.9,1.7-1.2c0.7-0.3,1.4-0.4,2.3-0.4c0.7,0,1.3,0.1,1.9,0.3
				c0.6,0.2,1.1,0.6,1.5,1c0.4,0.4,0.8,1,1,1.6c0.2,0.6,0.4,1.4,0.4,2.2c0,0.2,0,0.3-0.1,0.4c0,0.1-0.1,0.1-0.2,0.1H1839.2z
				 M1847.1-14.1c0-0.6-0.1-1.2-0.3-1.7c-0.2-0.5-0.4-0.9-0.8-1.3s-0.7-0.6-1.2-0.8c-0.4-0.2-0.9-0.3-1.5-0.3
				c-0.6,0-1.2,0.1-1.6,0.3c-0.5,0.2-0.9,0.5-1.3,0.8s-0.6,0.8-0.9,1.3c-0.2,0.5-0.4,1.1-0.4,1.7H1847.1z"/>
			<path class="st0" d="M1852.3-16.8c0.5-0.7,1.2-1.2,1.9-1.6c0.7-0.4,1.5-0.6,2.4-0.6c0.7,0,1.2,0.1,1.7,0.3
				c0.5,0.2,0.9,0.5,1.2,0.9s0.6,0.9,0.7,1.4c0.2,0.5,0.2,1.2,0.2,1.9V-7h-1.1v-7.6c0-1.1-0.3-2-0.8-2.6s-1.3-0.9-2.3-0.9
				c-0.8,0-1.5,0.2-2.2,0.6c-0.7,0.4-1.3,0.9-1.8,1.6V-7h-1.1v-11.8h0.6c0.2,0,0.3,0.1,0.3,0.3L1852.3-16.8z"/>
			<path class="st0" d="M1867.4-6.8c-0.8,0-1.4-0.2-1.9-0.7s-0.7-1.1-0.7-2.1v-8.1h-1.7c-0.1,0-0.2,0-0.2-0.1
				c-0.1,0-0.1-0.1-0.1-0.2v-0.4l2-0.1l0.3-4.2c0-0.1,0-0.1,0.1-0.2c0-0.1,0.1-0.1,0.2-0.1h0.5v4.5h3.7v0.8h-3.7v8
				c0,0.3,0,0.6,0.1,0.8s0.2,0.4,0.3,0.6c0.1,0.2,0.3,0.3,0.5,0.3c0.2,0.1,0.4,0.1,0.6,0.1c0.3,0,0.5,0,0.7-0.1
				c0.2-0.1,0.4-0.2,0.5-0.3c0.2-0.1,0.3-0.2,0.4-0.3c0.1-0.1,0.2-0.1,0.2-0.1c0.1,0,0.1,0,0.2,0.1l0.3,0.5
				c-0.3,0.3-0.7,0.6-1.1,0.8C1868.4-6.9,1867.9-6.8,1867.4-6.8z"/>
			<path class="st0" d="M1654.8,13.5c0,1.8,0.2,3.5,0.7,5.1c0.5,1.6,1.2,3.2,2.1,4.7c0.1,0.1,0.1,0.2,0.1,0.3s-0.1,0.1-0.1,0.2
				l-0.5,0.3c-0.6-0.9-1.1-1.8-1.5-2.7s-0.8-1.7-1-2.6c-0.3-0.9-0.4-1.7-0.6-2.6c-0.1-0.9-0.2-1.8-0.2-2.7c0-0.9,0.1-1.8,0.2-2.7
				c0.1-0.9,0.3-1.7,0.6-2.6c0.3-0.9,0.6-1.7,1-2.6c0.4-0.9,0.9-1.8,1.5-2.7l0.5,0.3c0.1,0,0.1,0.1,0.1,0.2c0,0.1,0,0.2-0.1,0.3
				c-1,1.5-1.7,3.1-2.1,4.7C1655.1,10,1654.8,11.7,1654.8,13.5z"/>
			<path class="st0" d="M1663.4,21.2c-0.8,0-1.4-0.2-1.9-0.7s-0.7-1.1-0.7-2.1v-8.1h-1.7c-0.1,0-0.2,0-0.2-0.1
				c-0.1,0-0.1-0.1-0.1-0.2V9.7l2-0.1l0.3-4.2c0-0.1,0-0.1,0.1-0.2c0-0.1,0.1-0.1,0.2-0.1h0.5v4.5h3.7v0.8h-3.7v8
				c0,0.3,0,0.6,0.1,0.8s0.2,0.4,0.3,0.6c0.1,0.2,0.3,0.3,0.5,0.3c0.2,0.1,0.4,0.1,0.6,0.1c0.3,0,0.5,0,0.7-0.1
				c0.2-0.1,0.4-0.2,0.5-0.3c0.2-0.1,0.3-0.2,0.4-0.3c0.1-0.1,0.2-0.1,0.2-0.1c0.1,0,0.1,0,0.2,0.1l0.3,0.5
				c-0.3,0.3-0.7,0.6-1.1,0.8C1664.4,21.1,1663.9,21.2,1663.4,21.2z"/>
			<path class="st0" d="M1668,10.8c0.6-0.6,1.3-1.1,2-1.4c0.7-0.3,1.5-0.5,2.3-0.5c0.6,0,1.2,0.1,1.7,0.3c0.5,0.2,0.9,0.5,1.2,0.9
				s0.5,0.8,0.7,1.4c0.2,0.5,0.2,1.1,0.2,1.8V21h-0.5c-0.2,0-0.4-0.1-0.4-0.3l-0.2-1.5c-0.3,0.3-0.6,0.6-1,0.9s-0.7,0.5-1,0.6
				c-0.3,0.2-0.7,0.3-1.1,0.4c-0.4,0.1-0.8,0.1-1.3,0.1c-0.4,0-0.8-0.1-1.2-0.2s-0.7-0.3-1-0.5c-0.3-0.2-0.5-0.6-0.7-0.9
				s-0.3-0.8-0.3-1.4c0-0.5,0.1-1,0.4-1.4s0.7-0.8,1.3-1.1c0.6-0.3,1.4-0.6,2.4-0.8c1-0.2,2.1-0.3,3.4-0.3v-1.2
				c0-1.1-0.2-1.9-0.7-2.5c-0.5-0.6-1.2-0.9-2.1-0.9c-0.6,0-1.1,0.1-1.5,0.2c-0.4,0.2-0.7,0.3-1,0.5c-0.3,0.2-0.5,0.4-0.7,0.5
				c-0.2,0.2-0.3,0.2-0.4,0.2c-0.1,0-0.2,0-0.2-0.1c-0.1,0-0.1-0.1-0.1-0.2L1668,10.8z M1675,15.3c-1.1,0-2.1,0.1-2.9,0.3
				c-0.8,0.1-1.5,0.3-2,0.6c-0.5,0.2-0.9,0.5-1.2,0.9c-0.3,0.3-0.4,0.7-0.4,1.1c0,0.4,0.1,0.7,0.2,1s0.3,0.5,0.5,0.7
				s0.5,0.3,0.8,0.4c0.3,0.1,0.6,0.1,0.9,0.1c0.5,0,0.9,0,1.3-0.1c0.4-0.1,0.7-0.2,1.1-0.4c0.3-0.2,0.6-0.4,0.9-0.6
				c0.3-0.2,0.6-0.5,0.8-0.8V15.3z"/>
			<path class="st0" d="M1680.9,12c0.2-0.5,0.4-0.9,0.6-1.3c0.2-0.4,0.5-0.7,0.8-1c0.3-0.3,0.6-0.5,1-0.6c0.4-0.1,0.8-0.2,1.3-0.2
				c0.2,0,0.5,0,0.7,0.1c0.2,0,0.4,0.1,0.6,0.2l-0.1,0.8c0,0.1-0.1,0.2-0.2,0.2c-0.1,0-0.2,0-0.4-0.1c-0.2-0.1-0.5-0.1-0.8-0.1
				c-0.5,0-0.9,0.1-1.2,0.2s-0.7,0.3-1,0.6c-0.3,0.3-0.5,0.6-0.7,1c-0.2,0.4-0.4,0.9-0.6,1.4V21h-1.1V9.2h0.6c0.1,0,0.2,0,0.3,0.1
				c0.1,0.1,0.1,0.2,0.1,0.3L1680.9,12z"/>
			<path class="st0" d="M1697.4,9.7v0.4c0,0.2-0.1,0.3-0.3,0.3l-1.8,0.1c0.2,0.3,0.4,0.6,0.5,1c0.1,0.4,0.2,0.8,0.2,1.2
				c0,0.6-0.1,1.1-0.3,1.6c-0.2,0.5-0.5,0.9-0.9,1.2c-0.4,0.3-0.8,0.6-1.3,0.8c-0.5,0.2-1.1,0.3-1.7,0.3c-0.7,0-1.3-0.1-1.8-0.3
				c-0.3,0.2-0.6,0.4-0.8,0.7s-0.3,0.5-0.3,0.8c0,0.3,0.1,0.6,0.4,0.8c0.2,0.2,0.6,0.3,1,0.4c0.4,0.1,0.8,0.1,1.3,0.2
				c0.5,0,1,0.1,1.5,0.1c0.5,0,1,0.1,1.5,0.1c0.5,0.1,1,0.2,1.3,0.4c0.4,0.2,0.7,0.4,1,0.8c0.2,0.3,0.4,0.7,0.4,1.3
				c0,0.5-0.1,1-0.4,1.4c-0.2,0.5-0.6,0.9-1.1,1.2c-0.5,0.3-1,0.6-1.7,0.8c-0.7,0.2-1.4,0.3-2.2,0.3c-0.8,0-1.6-0.1-2.2-0.3
				c-0.6-0.2-1.2-0.4-1.6-0.7c-0.4-0.3-0.7-0.6-1-1c-0.2-0.4-0.3-0.8-0.3-1.2c0-0.6,0.2-1.2,0.6-1.6c0.4-0.4,1-0.8,1.7-1.1
				c-0.4-0.1-0.7-0.3-1-0.6c-0.2-0.3-0.4-0.6-0.4-1.1c0-0.2,0-0.3,0.1-0.5c0.1-0.2,0.2-0.4,0.3-0.5s0.3-0.3,0.5-0.5
				c0.2-0.2,0.4-0.3,0.6-0.4c-0.6-0.3-1-0.8-1.3-1.3c-0.3-0.5-0.5-1.2-0.5-1.9c0-0.6,0.1-1.1,0.3-1.6c0.2-0.5,0.5-0.9,0.9-1.2
				c0.4-0.3,0.8-0.6,1.3-0.8c0.5-0.2,1.1-0.3,1.7-0.3c0.5,0,1,0.1,1.4,0.2s0.8,0.3,1.2,0.5H1697.4z M1696.1,21.8
				c0-0.4-0.1-0.7-0.3-0.9c-0.2-0.2-0.5-0.4-0.8-0.5s-0.7-0.2-1.1-0.3c-0.4-0.1-0.9-0.1-1.3-0.1c-0.5,0-0.9,0-1.4-0.1
				c-0.5,0-0.9-0.1-1.3-0.1c-0.3,0.1-0.6,0.3-0.8,0.4c-0.3,0.2-0.5,0.3-0.7,0.5s-0.3,0.4-0.4,0.6s-0.2,0.5-0.2,0.8
				c0,0.3,0.1,0.7,0.3,1c0.2,0.3,0.4,0.6,0.8,0.8s0.8,0.4,1.3,0.5c0.5,0.1,1.1,0.2,1.7,0.2c0.6,0,1.2-0.1,1.7-0.2s1-0.3,1.4-0.6
				s0.7-0.5,0.9-0.9C1696,22.6,1696.1,22.2,1696.1,21.8z M1691.7,15.8c0.5,0,1-0.1,1.4-0.2c0.4-0.1,0.7-0.4,1-0.6
				c0.3-0.3,0.5-0.6,0.6-0.9c0.1-0.4,0.2-0.8,0.2-1.2s-0.1-0.9-0.2-1.2c-0.1-0.4-0.4-0.7-0.6-0.9c-0.3-0.3-0.6-0.5-1-0.6
				c-0.4-0.1-0.8-0.2-1.3-0.2c-0.5,0-0.9,0.1-1.3,0.2s-0.7,0.3-1,0.6c-0.3,0.3-0.5,0.6-0.6,0.9c-0.1,0.4-0.2,0.8-0.2,1.2
				s0.1,0.8,0.2,1.2c0.1,0.4,0.4,0.7,0.6,0.9c0.3,0.3,0.6,0.5,1,0.6S1691.2,15.8,1691.7,15.8z"/>
			<path class="st0" d="M1700.2,14.6v0.2c0,0.9,0.1,1.7,0.3,2.3c0.2,0.7,0.5,1.2,0.9,1.7c0.4,0.5,0.8,0.8,1.4,1
				c0.5,0.2,1.1,0.3,1.8,0.3c0.6,0,1.1-0.1,1.5-0.2c0.4-0.1,0.8-0.3,1.1-0.4s0.5-0.3,0.7-0.4c0.2-0.1,0.3-0.2,0.4-0.2
				c0.1,0,0.2,0,0.2,0.1l0.3,0.4c-0.2,0.2-0.4,0.5-0.8,0.7c-0.3,0.2-0.7,0.4-1,0.5c-0.4,0.1-0.8,0.3-1.2,0.4
				c-0.4,0.1-0.9,0.1-1.3,0.1c-0.8,0-1.5-0.1-2.2-0.4c-0.7-0.3-1.2-0.7-1.7-1.2s-0.8-1.2-1.1-2c-0.3-0.8-0.4-1.7-0.4-2.7
				c0-0.8,0.1-1.6,0.4-2.4c0.2-0.7,0.6-1.3,1-1.9c0.5-0.5,1-0.9,1.7-1.2c0.7-0.3,1.4-0.4,2.3-0.4c0.7,0,1.3,0.1,1.9,0.3
				c0.6,0.2,1.1,0.6,1.5,1c0.4,0.4,0.8,1,1,1.6c0.2,0.6,0.4,1.4,0.4,2.2c0,0.2,0,0.3-0.1,0.4c0,0.1-0.1,0.1-0.2,0.1H1700.2z
				 M1708.1,13.9c0-0.6-0.1-1.2-0.3-1.7c-0.2-0.5-0.4-0.9-0.8-1.3s-0.7-0.6-1.2-0.8c-0.4-0.2-0.9-0.3-1.5-0.3
				c-0.6,0-1.2,0.1-1.6,0.3c-0.5,0.2-0.9,0.5-1.3,0.8s-0.6,0.8-0.9,1.3c-0.2,0.5-0.4,1.1-0.4,1.7H1708.1z"/>
			<path class="st0" d="M1715.4,21.2c-0.8,0-1.4-0.2-1.9-0.7s-0.7-1.1-0.7-2.1v-8.1h-1.7c-0.1,0-0.2,0-0.2-0.1
				c-0.1,0-0.1-0.1-0.1-0.2V9.7l2-0.1l0.3-4.2c0-0.1,0-0.1,0.1-0.2c0-0.1,0.1-0.1,0.2-0.1h0.5v4.5h3.7v0.8h-3.7v8
				c0,0.3,0,0.6,0.1,0.8s0.2,0.4,0.3,0.6c0.1,0.2,0.3,0.3,0.5,0.3c0.2,0.1,0.4,0.1,0.6,0.1c0.3,0,0.5,0,0.7-0.1
				c0.2-0.1,0.4-0.2,0.5-0.3c0.2-0.1,0.3-0.2,0.4-0.3c0.1-0.1,0.2-0.1,0.2-0.1c0.1,0,0.1,0,0.2,0.1l0.3,0.5
				c-0.3,0.3-0.7,0.6-1.1,0.8C1716.4,21.1,1715.9,21.2,1715.4,21.2z"/>
			<path class="st0" d="M1742,9.2l-4,11.8h-0.8c-0.1,0-0.2-0.1-0.3-0.2l-3.2-9.6c0-0.1-0.1-0.2-0.1-0.4s-0.1-0.2-0.1-0.4
				c0,0.2-0.1,0.5-0.2,0.7l-3.3,9.6c0,0.2-0.1,0.2-0.3,0.2h-0.8l-4-11.8h0.9c0.1,0,0.2,0,0.3,0.1s0.1,0.1,0.1,0.2l3,9.3
				c0,0.2,0.1,0.4,0.1,0.5c0,0.2,0.1,0.3,0.1,0.5c0-0.2,0.1-0.3,0.1-0.5c0-0.2,0.1-0.3,0.2-0.5l3.2-9.4c0.1-0.2,0.2-0.3,0.3-0.3h0.5
				c0.2,0,0.3,0.1,0.3,0.3l3.1,9.4c0.1,0.2,0.1,0.4,0.2,0.5c0,0.2,0.1,0.3,0.1,0.5c0-0.2,0.1-0.3,0.1-0.5s0.1-0.3,0.1-0.5l3-9.3
				c0-0.1,0.1-0.2,0.2-0.2s0.2-0.1,0.2-0.1H1742z"/>
			<path class="st0" d="M1744,10.8c0.6-0.6,1.3-1.1,2-1.4c0.7-0.3,1.5-0.5,2.3-0.5c0.6,0,1.2,0.1,1.7,0.3c0.5,0.2,0.9,0.5,1.2,0.9
				s0.5,0.8,0.7,1.4c0.2,0.5,0.2,1.1,0.2,1.8V21h-0.5c-0.2,0-0.4-0.1-0.4-0.3l-0.2-1.5c-0.3,0.3-0.6,0.6-1,0.9s-0.7,0.5-1,0.6
				c-0.3,0.2-0.7,0.3-1.1,0.4c-0.4,0.1-0.8,0.1-1.3,0.1c-0.4,0-0.8-0.1-1.2-0.2s-0.7-0.3-1-0.5c-0.3-0.2-0.5-0.6-0.7-0.9
				s-0.3-0.8-0.3-1.4c0-0.5,0.1-1,0.4-1.4s0.7-0.8,1.3-1.1c0.6-0.3,1.4-0.6,2.4-0.8c1-0.2,2.1-0.3,3.4-0.3v-1.2
				c0-1.1-0.2-1.9-0.7-2.5c-0.5-0.6-1.2-0.9-2.1-0.9c-0.6,0-1.1,0.1-1.5,0.2c-0.4,0.2-0.7,0.3-1,0.5c-0.3,0.2-0.5,0.4-0.7,0.5
				c-0.2,0.2-0.3,0.2-0.4,0.2c-0.1,0-0.2,0-0.2-0.1c-0.1,0-0.1-0.1-0.1-0.2L1744,10.8z M1751,15.3c-1.1,0-2.1,0.1-2.9,0.3
				c-0.8,0.1-1.5,0.3-2,0.6c-0.5,0.2-0.9,0.5-1.2,0.9c-0.3,0.3-0.4,0.7-0.4,1.1c0,0.4,0.1,0.7,0.2,1s0.3,0.5,0.5,0.7
				s0.5,0.3,0.8,0.4c0.3,0.1,0.6,0.1,0.9,0.1c0.5,0,0.9,0,1.3-0.1c0.4-0.1,0.7-0.2,1.1-0.4c0.3-0.2,0.6-0.4,0.9-0.6
				c0.3-0.2,0.6-0.5,0.8-0.8V15.3z"/>
			<path class="st0" d="M1762.4,10.6c-0.1,0.1-0.2,0.2-0.3,0.2c-0.1,0-0.2,0-0.3-0.1s-0.3-0.2-0.5-0.3s-0.5-0.2-0.8-0.3
				c-0.3-0.1-0.7-0.1-1.2-0.1c-0.4,0-0.8,0.1-1.2,0.2c-0.4,0.1-0.7,0.3-0.9,0.5c-0.2,0.2-0.4,0.4-0.6,0.7c-0.1,0.3-0.2,0.6-0.2,0.9
				c0,0.4,0.1,0.7,0.3,0.9s0.4,0.5,0.7,0.6c0.3,0.2,0.7,0.3,1.1,0.5c0.4,0.1,0.8,0.3,1.2,0.4c0.4,0.1,0.8,0.3,1.2,0.4
				c0.4,0.2,0.7,0.3,1.1,0.6c0.3,0.2,0.6,0.5,0.7,0.8c0.2,0.3,0.3,0.7,0.3,1.2c0,0.5-0.1,1-0.3,1.4s-0.5,0.8-0.8,1.2
				s-0.8,0.6-1.3,0.8s-1.1,0.3-1.8,0.3c-0.8,0-1.6-0.1-2.2-0.4c-0.6-0.3-1.1-0.6-1.6-1l0.3-0.4c0-0.1,0.1-0.1,0.1-0.1
				c0.1,0,0.1,0,0.2,0c0.1,0,0.2,0.1,0.4,0.2c0.1,0.1,0.3,0.3,0.6,0.4s0.5,0.3,0.9,0.4c0.4,0.1,0.8,0.2,1.3,0.2
				c0.5,0,0.9-0.1,1.3-0.2c0.4-0.1,0.7-0.3,1-0.6c0.3-0.2,0.4-0.5,0.6-0.8c0.1-0.3,0.2-0.7,0.2-1c0-0.4-0.1-0.7-0.3-1
				c-0.2-0.3-0.4-0.5-0.8-0.7c-0.3-0.2-0.7-0.3-1.1-0.5s-0.8-0.3-1.2-0.4c-0.4-0.1-0.8-0.3-1.2-0.4s-0.7-0.3-1.1-0.6
				s-0.6-0.5-0.7-0.8c-0.2-0.3-0.3-0.7-0.3-1.2c0-0.4,0.1-0.8,0.3-1.2c0.2-0.4,0.4-0.7,0.8-1c0.3-0.3,0.7-0.5,1.2-0.7
				c0.5-0.2,1-0.3,1.6-0.3c0.7,0,1.4,0.1,1.9,0.3c0.6,0.2,1.1,0.5,1.5,1L1762.4,10.6z"/>
			<path class="st0" d="M1782.4,20.1V21h-8.7v-0.9h3.9V6.5c0-0.3,0-0.6,0-0.9l-3.7,3.3c-0.1,0.1-0.2,0.1-0.3,0.1
				c-0.1,0-0.2-0.1-0.3-0.1l-0.3-0.5l4.9-4.3h0.9v16H1782.4z"/>
			<path class="st0" d="M1786,13.5h5.5v1h-5.5V13.5z"/>
			<path class="st0" d="M1795,8.5c0.1-0.7,0.3-1.4,0.6-1.9c0.3-0.6,0.7-1,1.1-1.4c0.5-0.4,1-0.7,1.6-0.9c0.6-0.2,1.2-0.3,1.9-0.3
				c0.6,0,1.2,0.1,1.8,0.3c0.6,0.2,1.1,0.4,1.5,0.8c0.4,0.4,0.8,0.8,1,1.3c0.2,0.5,0.4,1.1,0.4,1.8c0,0.5-0.1,1-0.2,1.5
				c-0.2,0.4-0.4,0.8-0.7,1.2c-0.3,0.3-0.6,0.6-1.1,0.8c-0.4,0.2-0.8,0.4-1.3,0.5c1.2,0.2,2.2,0.7,2.8,1.4s0.9,1.6,0.9,2.7
				c0,0.7-0.1,1.3-0.4,1.9c-0.3,0.6-0.7,1.1-1.1,1.5s-1.1,0.8-1.7,1c-0.7,0.2-1.4,0.4-2.1,0.4c-1,0-1.8-0.1-2.4-0.4
				c-0.6-0.3-1.2-0.6-1.6-1c-0.4-0.4-0.7-0.9-1-1.4s-0.4-1-0.6-1.5l0.5-0.2c0.1-0.1,0.3-0.1,0.4,0c0.1,0,0.2,0.1,0.3,0.3
				c0,0.1,0.1,0.2,0.2,0.4s0.2,0.4,0.3,0.7c0.1,0.2,0.3,0.5,0.5,0.8c0.2,0.3,0.5,0.5,0.8,0.7c0.3,0.2,0.7,0.4,1.1,0.5
				c0.4,0.1,0.9,0.2,1.5,0.2c0.7,0,1.3-0.1,1.9-0.4c0.5-0.2,1-0.5,1.3-0.9c0.4-0.4,0.6-0.8,0.8-1.2c0.2-0.5,0.3-0.9,0.3-1.3
				c0-0.5-0.1-1-0.2-1.4c-0.2-0.4-0.4-0.8-0.8-1.1s-0.9-0.6-1.5-0.8c-0.6-0.2-1.4-0.3-2.3-0.3v-0.8c0.7,0,1.4-0.1,1.9-0.3
				c0.6-0.2,1-0.4,1.4-0.7c0.4-0.3,0.7-0.7,0.8-1.1s0.3-0.9,0.3-1.4c0-0.6-0.1-1.1-0.3-1.5c-0.2-0.4-0.5-0.8-0.8-1.1
				s-0.7-0.5-1.2-0.6c-0.4-0.1-0.9-0.2-1.4-0.2c-0.5,0-1,0.1-1.5,0.2c-0.5,0.2-0.9,0.4-1.2,0.7s-0.6,0.6-0.9,1
				c-0.2,0.4-0.4,0.8-0.5,1.3c0,0.2-0.1,0.3-0.2,0.3c-0.1,0.1-0.2,0.1-0.4,0.1L1795,8.5z"/>
			<path class="st0" d="M1815.2,8.2c0,0.7-0.1,1.3-0.3,1.8s-0.4,1-0.8,1.3s-0.7,0.6-1.1,0.8c-0.4,0.2-0.9,0.3-1.4,0.3
				c-0.5,0-1-0.1-1.4-0.3s-0.8-0.4-1.1-0.8s-0.6-0.8-0.7-1.3c-0.2-0.5-0.3-1.1-0.3-1.8c0-0.7,0.1-1.3,0.3-1.8c0.2-0.5,0.4-1,0.7-1.3
				c0.3-0.4,0.7-0.6,1.1-0.8c0.4-0.2,0.9-0.3,1.4-0.3c0.5,0,1,0.1,1.4,0.3c0.4,0.2,0.8,0.4,1.1,0.8c0.3,0.4,0.6,0.8,0.8,1.3
				C1815.1,6.9,1815.2,7.5,1815.2,8.2z M1814.3,8.2c0-0.6-0.1-1.1-0.2-1.6c-0.1-0.4-0.3-0.8-0.6-1.1c-0.2-0.3-0.5-0.5-0.8-0.6
				s-0.7-0.2-1-0.2c-0.4,0-0.7,0.1-1,0.2s-0.6,0.3-0.8,0.6c-0.2,0.3-0.4,0.6-0.6,1.1c-0.1,0.4-0.2,1-0.2,1.6s0.1,1.1,0.2,1.6
				c0.1,0.4,0.3,0.8,0.6,1.1c0.2,0.3,0.5,0.5,0.8,0.6s0.7,0.2,1,0.2c0.4,0,0.7-0.1,1-0.2s0.6-0.3,0.8-0.6c0.2-0.3,0.4-0.6,0.6-1.1
				C1814.2,9.3,1814.3,8.8,1814.3,8.2z M1821.6,4.4c0-0.1,0.1-0.1,0.2-0.2c0.1,0,0.2-0.1,0.3-0.1h0.8l-12.1,16.6
				c-0.1,0.1-0.2,0.2-0.4,0.2h-0.8L1821.6,4.4z M1824.3,17c0,0.7-0.1,1.3-0.3,1.8s-0.4,1-0.8,1.3s-0.7,0.6-1.1,0.8
				c-0.4,0.2-0.9,0.3-1.4,0.3c-0.5,0-1-0.1-1.4-0.3c-0.4-0.2-0.8-0.4-1.1-0.8s-0.6-0.8-0.7-1.3c-0.2-0.5-0.3-1.1-0.3-1.8
				c0-0.7,0.1-1.3,0.3-1.8c0.2-0.5,0.4-1,0.7-1.3c0.3-0.4,0.7-0.6,1.1-0.8c0.4-0.2,0.9-0.3,1.4-0.3c0.5,0,1,0.1,1.4,0.3
				c0.4,0.2,0.8,0.4,1.1,0.8c0.3,0.4,0.6,0.8,0.8,1.3C1824.2,15.7,1824.3,16.3,1824.3,17z M1823.4,17c0-0.6-0.1-1.1-0.2-1.6
				c-0.1-0.4-0.3-0.8-0.6-1.1c-0.2-0.3-0.5-0.5-0.8-0.6s-0.7-0.2-1-0.2s-0.7,0.1-1,0.2s-0.6,0.3-0.8,0.6c-0.2,0.3-0.4,0.6-0.6,1.1
				c-0.1,0.4-0.2,1-0.2,1.6s0.1,1.1,0.2,1.6c0.1,0.4,0.3,0.8,0.6,1.1c0.2,0.3,0.5,0.5,0.8,0.6s0.7,0.2,1,0.2s0.7-0.1,1-0.2
				s0.6-0.3,0.8-0.6c0.2-0.3,0.4-0.6,0.6-1.1C1823.3,18.1,1823.4,17.6,1823.4,17z"/>
			<path class="st0" d="M1829.3,13.5c0-1.8-0.2-3.5-0.7-5.1c-0.5-1.6-1.2-3.2-2.1-4.7c-0.1-0.1-0.1-0.2-0.1-0.3
				c0-0.1,0.1-0.1,0.1-0.2l0.5-0.3c0.6,0.9,1.1,1.8,1.5,2.7c0.4,0.9,0.8,1.8,1,2.6c0.3,0.9,0.4,1.7,0.6,2.6c0.1,0.9,0.2,1.8,0.2,2.7
				c0,0.9-0.1,1.8-0.2,2.7c-0.1,0.9-0.3,1.7-0.6,2.6c-0.3,0.9-0.6,1.7-1,2.6s-0.9,1.8-1.5,2.7l-0.5-0.3c-0.1,0-0.1-0.1-0.1-0.2
				s0-0.2,0.1-0.3c1-1.5,1.7-3.1,2.1-4.7C1829.1,17,1829.3,15.3,1829.3,13.5z"/>
			<path class="st0" d="M1833.3,20.1c0-0.2,0-0.3,0.1-0.4c0.1-0.1,0.1-0.3,0.2-0.4s0.2-0.2,0.3-0.2c0.1-0.1,0.3-0.1,0.4-0.1
				c0.2,0,0.3,0,0.4,0.1c0.1,0.1,0.3,0.1,0.4,0.2s0.2,0.2,0.2,0.4s0.1,0.3,0.1,0.4c0,0.2,0,0.3-0.1,0.4s-0.1,0.2-0.2,0.3
				c-0.1,0.1-0.2,0.2-0.4,0.2c-0.1,0.1-0.3,0.1-0.4,0.1c-0.3,0-0.6-0.1-0.8-0.3C1833.4,20.7,1833.3,20.4,1833.3,20.1z"/>
		</g>
	</g>
	<g>
		<g>
			<path class="st7" d="M40.5,234.2v0.9h-8.7v-0.9h3.9v-13.7c0-0.3,0-0.6,0-0.9L32,223c-0.1,0.1-0.2,0.1-0.3,0.1
				c-0.1,0-0.2-0.1-0.3-0.1l-0.3-0.5l4.9-4.3h0.9v16H40.5z"/>
			<path class="st7" d="M44.1,227.6h5.5v1h-5.5V227.6z"/>
			<path class="st7" d="M62.4,217.8v17.3h-0.6c-0.2,0-0.3-0.1-0.4-0.3l-0.1-1.9c-0.5,0.7-1.1,1.3-1.8,1.7s-1.5,0.6-2.4,0.6
				c-1.5,0-2.6-0.5-3.4-1.5c-0.8-1-1.2-2.5-1.2-4.5c0-0.9,0.1-1.7,0.3-2.4c0.2-0.8,0.6-1.4,1-2c0.4-0.6,1-1,1.6-1.3s1.4-0.5,2.2-0.5
				c0.8,0,1.5,0.1,2.1,0.4c0.6,0.3,1.1,0.7,1.5,1.3v-7H62.4z M61.3,225.8c-0.5-0.7-1-1.2-1.5-1.4c-0.6-0.3-1.2-0.4-1.9-0.4
				c-0.7,0-1.3,0.1-1.8,0.4s-1,0.6-1.3,1.1c-0.4,0.5-0.6,1-0.8,1.7c-0.2,0.6-0.3,1.4-0.3,2.1c0,1.8,0.3,3.1,1,3.9s1.6,1.2,2.8,1.2
				c0.8,0,1.5-0.2,2.1-0.6c0.6-0.4,1.2-1,1.7-1.7V225.8z"/>
			<path class="st7" d="M66,225c0.6-0.6,1.3-1.1,2-1.4c0.7-0.3,1.5-0.5,2.3-0.5c0.6,0,1.2,0.1,1.7,0.3c0.5,0.2,0.9,0.5,1.2,0.9
				s0.5,0.8,0.7,1.4c0.2,0.5,0.2,1.1,0.2,1.8v7.7h-0.5c-0.2,0-0.4-0.1-0.4-0.3l-0.2-1.5c-0.3,0.3-0.6,0.6-1,0.9s-0.7,0.5-1,0.6
				c-0.3,0.2-0.7,0.3-1.1,0.4s-0.8,0.1-1.3,0.1c-0.4,0-0.8-0.1-1.2-0.2c-0.4-0.1-0.7-0.3-1-0.5s-0.5-0.6-0.7-0.9s-0.3-0.8-0.3-1.4
				c0-0.5,0.1-1,0.4-1.4c0.3-0.4,0.7-0.8,1.3-1.1c0.6-0.3,1.4-0.6,2.4-0.8c1-0.2,2.1-0.3,3.4-0.3v-1.2c0-1.1-0.2-1.9-0.7-2.5
				c-0.5-0.6-1.2-0.9-2.1-0.9c-0.6,0-1.1,0.1-1.5,0.2c-0.4,0.2-0.7,0.3-1,0.5c-0.3,0.2-0.5,0.4-0.7,0.5c-0.2,0.2-0.3,0.2-0.4,0.2
				c-0.1,0-0.2,0-0.2-0.1c-0.1,0-0.1-0.1-0.1-0.2L66,225z M72.9,229.4c-1.1,0-2.1,0.1-2.9,0.3s-1.5,0.3-2,0.6s-0.9,0.5-1.2,0.9
				c-0.3,0.3-0.4,0.7-0.4,1.1c0,0.4,0.1,0.7,0.2,1s0.3,0.5,0.5,0.7c0.2,0.2,0.5,0.3,0.8,0.4c0.3,0.1,0.6,0.1,0.9,0.1
				c0.5,0,0.9,0,1.3-0.1c0.4-0.1,0.7-0.2,1.1-0.4c0.3-0.2,0.6-0.4,0.9-0.6c0.3-0.2,0.6-0.5,0.8-0.8V229.4z"/>
			<path class="st7" d="M87.2,223.3l-6.8,15.6c0,0.1-0.1,0.2-0.2,0.3c-0.1,0.1-0.2,0.1-0.3,0.1H79l2.1-4.6l-5-11.4h0.9
				c0.1,0,0.2,0,0.3,0.1s0.1,0.1,0.1,0.2l4,9.2c0,0.1,0.1,0.2,0.1,0.4s0.1,0.2,0.1,0.4c0-0.1,0.1-0.3,0.1-0.4c0-0.1,0.1-0.2,0.1-0.4
				l3.9-9.2c0-0.1,0.1-0.2,0.2-0.2s0.2-0.1,0.2-0.1H87.2z"/>
			<path class="st7" d="M105.1,234.1v1H96v-16.8h1.2v15.8H105.1z"/>
			<path class="st7" d="M106.7,228.7v0.2c0,0.9,0.1,1.7,0.3,2.3s0.5,1.2,0.9,1.7c0.4,0.5,0.8,0.8,1.4,1c0.5,0.2,1.1,0.3,1.8,0.3
				c0.6,0,1.1-0.1,1.5-0.2c0.4-0.1,0.8-0.3,1.1-0.4c0.3-0.2,0.5-0.3,0.7-0.4c0.2-0.1,0.3-0.2,0.4-0.2c0.1,0,0.2,0,0.2,0.1l0.3,0.4
				c-0.2,0.2-0.4,0.5-0.8,0.7s-0.7,0.4-1,0.5c-0.4,0.1-0.8,0.3-1.2,0.4s-0.9,0.1-1.3,0.1c-0.8,0-1.5-0.1-2.2-0.4
				c-0.7-0.3-1.2-0.7-1.7-1.2c-0.5-0.5-0.8-1.2-1.1-2s-0.4-1.7-0.4-2.7c0-0.8,0.1-1.6,0.4-2.3c0.2-0.7,0.6-1.3,1-1.9
				c0.5-0.5,1-0.9,1.7-1.2c0.7-0.3,1.4-0.4,2.3-0.4c0.7,0,1.3,0.1,1.9,0.3s1.1,0.6,1.5,1c0.4,0.4,0.8,1,1,1.6
				c0.2,0.6,0.4,1.4,0.4,2.2c0,0.2,0,0.3-0.1,0.4c0,0.1-0.1,0.1-0.2,0.1H106.7z M114.6,228c0-0.6-0.1-1.2-0.3-1.7s-0.4-0.9-0.8-1.3
				s-0.7-0.6-1.2-0.8c-0.4-0.2-0.9-0.3-1.5-0.3c-0.6,0-1.2,0.1-1.6,0.3c-0.5,0.2-0.9,0.5-1.3,0.8c-0.4,0.4-0.6,0.8-0.9,1.3
				c-0.2,0.5-0.4,1.1-0.4,1.7H114.6z"/>
			<path class="st7" d="M118.4,225c0.6-0.6,1.3-1.1,2-1.4c0.7-0.3,1.5-0.5,2.3-0.5c0.6,0,1.2,0.1,1.7,0.3c0.5,0.2,0.9,0.5,1.2,0.9
				s0.5,0.8,0.7,1.4c0.2,0.5,0.2,1.1,0.2,1.8v7.7H126c-0.2,0-0.4-0.1-0.4-0.3l-0.2-1.5c-0.3,0.3-0.6,0.6-1,0.9s-0.7,0.5-1,0.6
				c-0.3,0.2-0.7,0.3-1.1,0.4s-0.8,0.1-1.3,0.1c-0.4,0-0.8-0.1-1.2-0.2c-0.4-0.1-0.7-0.3-1-0.5s-0.5-0.6-0.7-0.9s-0.3-0.8-0.3-1.4
				c0-0.5,0.1-1,0.4-1.4c0.3-0.4,0.7-0.8,1.3-1.1c0.6-0.3,1.4-0.6,2.4-0.8c1-0.2,2.1-0.3,3.4-0.3v-1.2c0-1.1-0.2-1.9-0.7-2.5
				c-0.5-0.6-1.2-0.9-2.1-0.9c-0.6,0-1.1,0.1-1.5,0.2c-0.4,0.2-0.7,0.3-1,0.5c-0.3,0.2-0.5,0.4-0.7,0.5c-0.2,0.2-0.3,0.2-0.4,0.2
				c-0.1,0-0.2,0-0.2-0.1c-0.1,0-0.1-0.1-0.1-0.2L118.4,225z M125.3,229.4c-1.1,0-2.1,0.1-2.9,0.3s-1.5,0.3-2,0.6s-0.9,0.5-1.2,0.9
				c-0.3,0.3-0.4,0.7-0.4,1.1c0,0.4,0.1,0.7,0.2,1s0.3,0.5,0.5,0.7c0.2,0.2,0.5,0.3,0.8,0.4c0.3,0.1,0.6,0.1,0.9,0.1
				c0.5,0,0.9,0,1.3-0.1c0.4-0.1,0.7-0.2,1.1-0.4c0.3-0.2,0.6-0.4,0.9-0.6c0.3-0.2,0.6-0.5,0.8-0.8V229.4z"/>
			<path class="st7" d="M139.4,217.8v17.3h-0.6c-0.2,0-0.3-0.1-0.4-0.3l-0.1-1.9c-0.5,0.7-1.1,1.3-1.8,1.7s-1.5,0.6-2.4,0.6
				c-1.5,0-2.6-0.5-3.4-1.5c-0.8-1-1.2-2.5-1.2-4.5c0-0.9,0.1-1.7,0.3-2.4c0.2-0.8,0.6-1.4,1-2c0.4-0.6,1-1,1.6-1.3s1.4-0.5,2.2-0.5
				c0.8,0,1.5,0.1,2.1,0.4c0.6,0.3,1.1,0.7,1.5,1.3v-7H139.4z M138.3,225.8c-0.5-0.7-1-1.2-1.5-1.4c-0.6-0.3-1.2-0.4-1.9-0.4
				c-0.7,0-1.3,0.1-1.8,0.4s-1,0.6-1.3,1.1c-0.4,0.5-0.6,1-0.8,1.7c-0.2,0.6-0.3,1.4-0.3,2.1c0,1.8,0.3,3.1,1,3.9s1.6,1.2,2.8,1.2
				c0.8,0,1.5-0.2,2.1-0.6c0.6-0.4,1.2-1,1.7-1.7V225.8z"/>
			<path class="st7" d="M145.1,219.2c0,0.1,0,0.3-0.1,0.4s-0.1,0.2-0.2,0.3c-0.1,0.1-0.2,0.2-0.3,0.2s-0.3,0.1-0.4,0.1
				s-0.3,0-0.4-0.1s-0.2-0.1-0.3-0.2c-0.1-0.1-0.2-0.2-0.2-0.3s-0.1-0.3-0.1-0.4s0-0.3,0.1-0.4s0.1-0.2,0.2-0.3
				c0.1-0.1,0.2-0.2,0.3-0.2c0.1-0.1,0.3-0.1,0.4-0.1s0.3,0,0.4,0.1c0.1,0.1,0.2,0.1,0.3,0.2c0.1,0.1,0.2,0.2,0.2,0.3
				S145.1,219.1,145.1,219.2z M144.6,223.3v11.8h-1.1v-11.8H144.6z"/>
			<path class="st7" d="M149.7,225.4c0.5-0.7,1.2-1.2,1.9-1.6c0.7-0.4,1.5-0.6,2.4-0.6c0.7,0,1.2,0.1,1.7,0.3
				c0.5,0.2,0.9,0.5,1.2,0.9s0.6,0.9,0.7,1.4c0.2,0.5,0.2,1.2,0.2,1.9v7.6h-1.1v-7.6c0-1.1-0.3-2-0.8-2.6s-1.3-0.9-2.3-0.9
				c-0.8,0-1.5,0.2-2.2,0.6c-0.7,0.4-1.3,0.9-1.8,1.6v8.9h-1.1v-11.8h0.6c0.2,0,0.3,0.1,0.3,0.3L149.7,225.4z"/>
			<path class="st7" d="M171.3,223.8v0.4c0,0.2-0.1,0.3-0.3,0.3l-1.8,0.1c0.2,0.3,0.4,0.6,0.5,1s0.2,0.8,0.2,1.2
				c0,0.6-0.1,1.1-0.3,1.6c-0.2,0.5-0.5,0.9-0.9,1.2c-0.4,0.3-0.8,0.6-1.3,0.8c-0.5,0.2-1.1,0.3-1.7,0.3c-0.7,0-1.3-0.1-1.8-0.3
				c-0.3,0.2-0.6,0.4-0.8,0.7s-0.3,0.5-0.3,0.8c0,0.3,0.1,0.6,0.4,0.8c0.2,0.2,0.6,0.3,1,0.4s0.8,0.1,1.3,0.2c0.5,0,1,0,1.5,0.1
				c0.5,0,1,0.1,1.5,0.1s1,0.2,1.3,0.4s0.7,0.4,1,0.7c0.2,0.3,0.4,0.7,0.4,1.3c0,0.5-0.1,1-0.4,1.4c-0.2,0.5-0.6,0.9-1.1,1.2
				c-0.5,0.3-1,0.6-1.7,0.8c-0.7,0.2-1.4,0.3-2.2,0.3c-0.8,0-1.6-0.1-2.2-0.3c-0.6-0.2-1.2-0.4-1.6-0.7c-0.4-0.3-0.7-0.6-1-1
				c-0.2-0.4-0.3-0.8-0.3-1.2c0-0.6,0.2-1.2,0.6-1.6c0.4-0.4,1-0.8,1.7-1.1c-0.4-0.1-0.7-0.3-1-0.6c-0.2-0.3-0.4-0.6-0.4-1.1
				c0-0.2,0-0.3,0.1-0.5c0.1-0.2,0.2-0.4,0.3-0.5c0.1-0.2,0.3-0.3,0.5-0.5c0.2-0.2,0.4-0.3,0.6-0.4c-0.6-0.3-1-0.8-1.3-1.3
				c-0.3-0.5-0.5-1.2-0.5-1.9c0-0.6,0.1-1.1,0.3-1.6c0.2-0.5,0.5-0.9,0.9-1.2s0.8-0.6,1.3-0.8s1.1-0.3,1.7-0.3c0.5,0,1,0.1,1.4,0.2
				s0.8,0.3,1.2,0.5H171.3z M170,235.9c0-0.4-0.1-0.7-0.3-0.9c-0.2-0.2-0.5-0.4-0.8-0.5c-0.3-0.1-0.7-0.2-1.1-0.3
				c-0.4-0.1-0.9-0.1-1.3-0.1c-0.5,0-0.9,0-1.4-0.1c-0.5,0-0.9-0.1-1.3-0.1c-0.3,0.1-0.6,0.3-0.8,0.4s-0.5,0.3-0.7,0.5
				s-0.3,0.4-0.4,0.6c-0.1,0.2-0.2,0.5-0.2,0.8c0,0.3,0.1,0.7,0.3,1c0.2,0.3,0.4,0.6,0.8,0.8c0.3,0.2,0.8,0.4,1.3,0.5
				c0.5,0.1,1.1,0.2,1.7,0.2c0.6,0,1.2-0.1,1.7-0.2s1-0.3,1.4-0.6s0.7-0.5,0.9-0.9C169.9,236.7,170,236.3,170,235.9z M165.6,229.9
				c0.5,0,1-0.1,1.4-0.2c0.4-0.1,0.7-0.4,1-0.6s0.5-0.6,0.6-0.9c0.1-0.4,0.2-0.8,0.2-1.2c0-0.4-0.1-0.9-0.2-1.2
				c-0.1-0.4-0.4-0.7-0.6-0.9c-0.3-0.3-0.6-0.5-1-0.6c-0.4-0.1-0.8-0.2-1.3-0.2s-0.9,0.1-1.3,0.2c-0.4,0.1-0.7,0.3-1,0.6
				c-0.3,0.3-0.5,0.6-0.6,0.9c-0.1,0.4-0.2,0.8-0.2,1.2c0,0.4,0.1,0.8,0.2,1.2c0.1,0.4,0.4,0.7,0.6,0.9c0.3,0.3,0.6,0.5,1,0.6
				C164.6,229.8,165.1,229.9,165.6,229.9z"/>
			<path class="st7" d="M31.6,254.7c0,1.3-0.2,2.5-0.6,3.5c-0.4,1.1-0.9,2-1.6,2.7c-0.7,0.8-1.6,1.3-2.5,1.7c-1,0.4-2.1,0.6-3.3,0.6
				c-1.2,0-2.3-0.2-3.3-0.6c-1-0.4-1.8-1-2.5-1.7c-0.7-0.7-1.3-1.7-1.6-2.7c-0.4-1.1-0.6-2.2-0.6-3.5c0-1.3,0.2-2.5,0.6-3.5
				c0.4-1.1,0.9-2,1.6-2.7s1.6-1.3,2.5-1.7c1-0.4,2.1-0.6,3.3-0.6c1.2,0,2.3,0.2,3.3,0.6c1,0.4,1.8,1,2.5,1.7s1.3,1.7,1.6,2.7
				S31.6,253.4,31.6,254.7z M30.4,254.7c0-1.2-0.2-2.2-0.5-3.2c-0.3-0.9-0.8-1.7-1.4-2.4c-0.6-0.7-1.3-1.1-2.1-1.5s-1.8-0.5-2.8-0.5
				c-1,0-1.9,0.2-2.7,0.5s-1.5,0.8-2.1,1.5c-0.6,0.7-1.1,1.4-1.4,2.4c-0.3,0.9-0.5,2-0.5,3.2c0,1.2,0.2,2.2,0.5,3.2
				c0.3,0.9,0.8,1.7,1.4,2.4c0.6,0.7,1.3,1.1,2.1,1.5s1.8,0.5,2.7,0.5c1,0,1.9-0.2,2.8-0.5s1.5-0.8,2.1-1.5c0.6-0.7,1.1-1.4,1.4-2.4
				C30.2,256.9,30.4,255.9,30.4,254.7z"/>
			<path class="st7" d="M44,251.3v11.8h-0.6c-0.2,0-0.3-0.1-0.3-0.3l-0.1-1.8c-0.5,0.7-1.2,1.2-1.9,1.6c-0.7,0.4-1.5,0.6-2.4,0.6
				c-0.7,0-1.2-0.1-1.7-0.3c-0.5-0.2-0.9-0.5-1.2-0.9c-0.3-0.4-0.6-0.9-0.7-1.4c-0.2-0.5-0.2-1.2-0.2-1.9v-7.6h1.1v7.6
				c0,1.1,0.3,2,0.8,2.6s1.3,0.9,2.3,0.9c0.8,0,1.5-0.2,2.2-0.6c0.7-0.4,1.3-0.9,1.8-1.6v-8.9H44z"/>
			<path class="st7" d="M48.9,254.1c0.2-0.5,0.4-0.9,0.6-1.3c0.2-0.4,0.5-0.7,0.8-1s0.6-0.5,1-0.6s0.8-0.2,1.3-0.2
				c0.2,0,0.5,0,0.7,0.1c0.2,0,0.4,0.1,0.6,0.2l-0.1,0.8c0,0.1-0.1,0.2-0.2,0.2c-0.1,0-0.2,0-0.4-0.1s-0.5-0.1-0.8-0.1
				c-0.5,0-0.9,0.1-1.2,0.2c-0.4,0.1-0.7,0.3-1,0.6s-0.5,0.6-0.7,1c-0.2,0.4-0.4,0.9-0.6,1.4v7.7h-1.1v-11.8h0.6
				c0.1,0,0.2,0,0.3,0.1c0.1,0.1,0.1,0.2,0.1,0.3L48.9,254.1z"/>
			<path class="st7" d="M67.6,246.3c1,0,1.8,0.1,2.5,0.3s1.3,0.5,1.7,0.8c0.5,0.4,0.8,0.8,1,1.4c0.2,0.5,0.3,1.1,0.3,1.8
				c0,0.4-0.1,0.9-0.2,1.3c-0.2,0.4-0.4,0.8-0.7,1.1c-0.3,0.3-0.6,0.7-1.1,0.9c-0.4,0.3-0.9,0.5-1.5,0.6c1.3,0.2,2.3,0.6,3.1,1.3
				c0.7,0.7,1.1,1.6,1.1,2.7c0,0.7-0.1,1.4-0.4,1.9c-0.3,0.6-0.6,1.1-1.1,1.5c-0.5,0.4-1.1,0.7-1.8,0.9c-0.7,0.2-1.5,0.3-2.4,0.3
				h-5.5v-16.8H67.6z M64,247.3v6.9h3.6c0.8,0,1.4-0.1,2-0.3s1-0.5,1.4-0.8c0.4-0.3,0.6-0.7,0.8-1.1c0.2-0.4,0.2-0.8,0.2-1.3
				c0-1.1-0.4-2-1.1-2.6c-0.7-0.6-1.8-0.9-3.3-0.9H64z M68.2,262.2c1.5,0,2.6-0.3,3.3-1c0.8-0.6,1.1-1.5,1.1-2.7
				c0-0.5-0.1-1-0.3-1.4c-0.2-0.4-0.5-0.8-0.9-1.1c-0.4-0.3-0.8-0.5-1.4-0.7c-0.6-0.2-1.2-0.2-1.9-0.2H64v7.1H68.2z"/>
			<path class="st7" d="M77.5,256.7v0.2c0,0.9,0.1,1.7,0.3,2.3c0.2,0.7,0.5,1.2,0.9,1.7c0.4,0.5,0.8,0.8,1.4,1
				c0.5,0.2,1.1,0.3,1.8,0.3c0.6,0,1.1-0.1,1.5-0.2s0.8-0.3,1.1-0.4c0.3-0.2,0.5-0.3,0.7-0.4s0.3-0.2,0.4-0.2c0.1,0,0.2,0,0.2,0.1
				l0.3,0.4c-0.2,0.2-0.4,0.5-0.8,0.7s-0.7,0.4-1,0.5c-0.4,0.1-0.8,0.3-1.2,0.4s-0.9,0.1-1.3,0.1c-0.8,0-1.5-0.1-2.2-0.4
				s-1.2-0.7-1.7-1.2c-0.5-0.5-0.8-1.2-1.1-2s-0.4-1.7-0.4-2.7c0-0.8,0.1-1.6,0.4-2.3c0.2-0.7,0.6-1.3,1-1.9c0.5-0.5,1-0.9,1.7-1.2
				c0.7-0.3,1.4-0.4,2.3-0.4c0.7,0,1.3,0.1,1.9,0.3c0.6,0.2,1.1,0.6,1.5,1c0.4,0.4,0.8,1,1,1.6s0.4,1.4,0.4,2.2c0,0.2,0,0.3-0.1,0.4
				c0,0.1-0.1,0.1-0.2,0.1H77.5z M85.4,256c0-0.6-0.1-1.2-0.3-1.7c-0.2-0.5-0.4-0.9-0.8-1.3s-0.7-0.6-1.2-0.8
				c-0.4-0.2-0.9-0.3-1.5-0.3c-0.6,0-1.2,0.1-1.6,0.3c-0.5,0.2-0.9,0.5-1.3,0.8c-0.4,0.4-0.6,0.8-0.9,1.3c-0.2,0.5-0.4,1.1-0.4,1.7
				H85.4z"/>
			<path class="st7" d="M96,252.8c-0.1,0.1-0.2,0.2-0.3,0.2c-0.1,0-0.2,0-0.3-0.1s-0.3-0.2-0.5-0.3c-0.2-0.1-0.5-0.2-0.8-0.3
				c-0.3-0.1-0.7-0.1-1.2-0.1c-0.4,0-0.8,0.1-1.2,0.2c-0.4,0.1-0.7,0.3-0.9,0.5c-0.2,0.2-0.4,0.4-0.6,0.7s-0.2,0.6-0.2,0.9
				c0,0.4,0.1,0.7,0.3,0.9s0.4,0.5,0.7,0.6c0.3,0.2,0.7,0.3,1.1,0.5s0.8,0.3,1.2,0.4c0.4,0.1,0.8,0.3,1.2,0.4
				c0.4,0.2,0.7,0.3,1.1,0.6c0.3,0.2,0.6,0.5,0.7,0.8c0.2,0.3,0.3,0.7,0.3,1.2c0,0.5-0.1,1-0.3,1.4s-0.5,0.8-0.8,1.2
				c-0.4,0.3-0.8,0.6-1.3,0.8s-1.1,0.3-1.8,0.3c-0.8,0-1.6-0.1-2.2-0.4c-0.6-0.3-1.1-0.6-1.6-1l0.3-0.4c0-0.1,0.1-0.1,0.1-0.1
				c0.1,0,0.1,0,0.2,0c0.1,0,0.2,0.1,0.4,0.2c0.1,0.1,0.3,0.3,0.6,0.4c0.2,0.1,0.5,0.3,0.9,0.4c0.4,0.1,0.8,0.2,1.3,0.2
				c0.5,0,0.9-0.1,1.3-0.2c0.4-0.1,0.7-0.3,1-0.6s0.4-0.5,0.6-0.8c0.1-0.3,0.2-0.7,0.2-1c0-0.4-0.1-0.7-0.3-1
				c-0.2-0.3-0.4-0.5-0.8-0.7c-0.3-0.2-0.7-0.3-1.1-0.5s-0.8-0.3-1.2-0.4c-0.4-0.1-0.8-0.3-1.2-0.4s-0.7-0.3-1.1-0.6
				s-0.6-0.5-0.7-0.8c-0.2-0.3-0.3-0.7-0.3-1.2c0-0.4,0.1-0.8,0.3-1.2s0.4-0.7,0.8-1c0.3-0.3,0.7-0.5,1.2-0.7c0.5-0.2,1-0.3,1.6-0.3
				c0.7,0,1.4,0.1,1.9,0.3c0.6,0.2,1.1,0.5,1.5,1L96,252.8z"/>
			<path class="st7" d="M102.8,263.3c-0.8,0-1.4-0.2-1.9-0.7s-0.7-1.1-0.7-2.1v-8.1h-1.7c-0.1,0-0.2,0-0.2-0.1
				c-0.1,0-0.1-0.1-0.1-0.2v-0.4l2-0.1l0.3-4.2c0-0.1,0-0.1,0.1-0.2c0-0.1,0.1-0.1,0.2-0.1h0.5v4.5h3.7v0.8h-3.7v8
				c0,0.3,0,0.6,0.1,0.8c0.1,0.2,0.2,0.4,0.3,0.6s0.3,0.3,0.5,0.3c0.2,0.1,0.4,0.1,0.6,0.1c0.3,0,0.5,0,0.7-0.1
				c0.2-0.1,0.4-0.2,0.5-0.3s0.3-0.2,0.4-0.3c0.1-0.1,0.2-0.1,0.2-0.1c0.1,0,0.1,0,0.2,0.1l0.3,0.5c-0.3,0.3-0.7,0.6-1.1,0.8
				C103.8,263.2,103.3,263.3,102.8,263.3z"/>
			<path class="st7" d="M122.9,248.3c-0.1,0.1-0.2,0.2-0.3,0.2c-0.1,0-0.2-0.1-0.4-0.2c-0.2-0.1-0.4-0.3-0.7-0.5
				c-0.3-0.2-0.6-0.3-1-0.5c-0.4-0.2-0.9-0.2-1.5-0.2c-0.6,0-1.1,0.1-1.6,0.3c-0.5,0.2-0.9,0.4-1.2,0.7c-0.3,0.3-0.6,0.7-0.7,1
				c-0.2,0.4-0.2,0.8-0.2,1.2c0,0.6,0.1,1,0.4,1.4s0.6,0.7,1,1c0.4,0.3,0.8,0.5,1.4,0.7s1,0.4,1.6,0.5s1,0.4,1.6,0.6
				c0.5,0.2,1,0.5,1.4,0.8c0.4,0.3,0.7,0.7,1,1.2c0.2,0.5,0.4,1,0.4,1.7c0,0.7-0.1,1.4-0.4,2c-0.2,0.6-0.6,1.2-1.1,1.6
				c-0.5,0.5-1,0.8-1.7,1.1c-0.7,0.3-1.4,0.4-2.3,0.4c-1.1,0-2.1-0.2-2.9-0.6c-0.8-0.4-1.5-0.9-2.1-1.6l0.3-0.5
				c0.1-0.1,0.2-0.2,0.3-0.2c0.1,0,0.2,0,0.3,0.1c0.1,0.1,0.2,0.2,0.4,0.4c0.2,0.1,0.3,0.3,0.6,0.5c0.2,0.2,0.5,0.3,0.8,0.5
				c0.3,0.1,0.6,0.3,1,0.4c0.4,0.1,0.8,0.1,1.3,0.1c0.7,0,1.3-0.1,1.8-0.3s1-0.5,1.3-0.8c0.4-0.3,0.6-0.8,0.8-1.2
				c0.2-0.5,0.3-1,0.3-1.5c0-0.6-0.1-1.1-0.4-1.5c-0.2-0.4-0.6-0.7-1-1c-0.4-0.3-0.8-0.5-1.4-0.6c-0.5-0.2-1-0.3-1.6-0.5
				c-0.5-0.2-1-0.4-1.6-0.6c-0.5-0.2-1-0.5-1.4-0.8c-0.4-0.3-0.7-0.7-1-1.2c-0.2-0.5-0.4-1.1-0.4-1.8c0-0.6,0.1-1.1,0.3-1.6
				c0.2-0.5,0.5-1,0.9-1.4s0.9-0.7,1.5-1c0.6-0.2,1.3-0.4,2.1-0.4c0.9,0,1.7,0.1,2.4,0.4c0.7,0.3,1.3,0.7,1.9,1.3L122.9,248.3z"/>
			<path class="st7" d="M127.2,256.7v0.2c0,0.9,0.1,1.7,0.3,2.3c0.2,0.7,0.5,1.2,0.9,1.7c0.4,0.5,0.8,0.8,1.4,1
				c0.5,0.2,1.1,0.3,1.8,0.3c0.6,0,1.1-0.1,1.5-0.2s0.8-0.3,1.1-0.4c0.3-0.2,0.5-0.3,0.7-0.4s0.3-0.2,0.4-0.2c0.1,0,0.2,0,0.2,0.1
				l0.3,0.4c-0.2,0.2-0.4,0.5-0.8,0.7s-0.7,0.4-1,0.5c-0.4,0.1-0.8,0.3-1.2,0.4s-0.9,0.1-1.3,0.1c-0.8,0-1.5-0.1-2.2-0.4
				s-1.2-0.7-1.7-1.2c-0.5-0.5-0.8-1.2-1.1-2s-0.4-1.7-0.4-2.7c0-0.8,0.1-1.6,0.4-2.3c0.2-0.7,0.6-1.3,1-1.9c0.5-0.5,1-0.9,1.7-1.2
				c0.7-0.3,1.4-0.4,2.3-0.4c0.7,0,1.3,0.1,1.9,0.3c0.6,0.2,1.1,0.6,1.5,1c0.4,0.4,0.8,1,1,1.6s0.4,1.4,0.4,2.2c0,0.2,0,0.3-0.1,0.4
				c0,0.1-0.1,0.1-0.2,0.1H127.2z M135.1,256c0-0.6-0.1-1.2-0.3-1.7c-0.2-0.5-0.4-0.9-0.8-1.3s-0.7-0.6-1.2-0.8
				c-0.4-0.2-0.9-0.3-1.5-0.3c-0.6,0-1.2,0.1-1.6,0.3c-0.5,0.2-0.9,0.5-1.3,0.8c-0.4,0.4-0.6,0.8-0.9,1.3c-0.2,0.5-0.4,1.1-0.4,1.7
				H135.1z"/>
			<path class="st7" d="M140.3,254.1c0.2-0.5,0.4-0.9,0.6-1.3c0.2-0.4,0.5-0.7,0.8-1s0.6-0.5,1-0.6s0.8-0.2,1.3-0.2
				c0.2,0,0.5,0,0.7,0.1c0.2,0,0.4,0.1,0.6,0.2l-0.1,0.8c0,0.1-0.1,0.2-0.2,0.2c-0.1,0-0.2,0-0.4-0.1s-0.5-0.1-0.8-0.1
				c-0.5,0-0.9,0.1-1.2,0.2c-0.4,0.1-0.7,0.3-1,0.6s-0.5,0.6-0.7,1c-0.2,0.4-0.4,0.9-0.6,1.4v7.7h-1.1v-11.8h0.6
				c0.1,0,0.2,0,0.3,0.1c0.1,0.1,0.1,0.2,0.1,0.3L140.3,254.1z"/>
			<path class="st7" d="M157.2,251.3l-5,11.8h-1l-5-11.8h0.9c0.1,0,0.2,0,0.3,0.1s0.1,0.1,0.1,0.2l3.9,9.3c0.1,0.3,0.2,0.7,0.3,1
				c0.1-0.3,0.2-0.7,0.3-1l3.9-9.3c0-0.1,0.1-0.2,0.2-0.2s0.1-0.1,0.2-0.1H157.2z"/>
			<path class="st7" d="M161.3,247.2c0,0.1,0,0.3-0.1,0.4s-0.1,0.2-0.2,0.3c-0.1,0.1-0.2,0.2-0.3,0.2s-0.3,0.1-0.4,0.1
				c-0.1,0-0.3,0-0.4-0.1s-0.2-0.1-0.3-0.2c-0.1-0.1-0.2-0.2-0.2-0.3c-0.1-0.1-0.1-0.3-0.1-0.4s0-0.3,0.1-0.4
				c0.1-0.1,0.1-0.2,0.2-0.3c0.1-0.1,0.2-0.2,0.3-0.2c0.1-0.1,0.3-0.1,0.4-0.1c0.1,0,0.3,0,0.4,0.1c0.1,0.1,0.2,0.1,0.3,0.2
				c0.1,0.1,0.2,0.2,0.2,0.3S161.3,247.1,161.3,247.2z M160.8,251.3v11.8h-1.1v-11.8H160.8z"/>
			<path class="st7" d="M172.8,252.9c0,0-0.1,0.1-0.1,0.1c0,0-0.1,0-0.1,0c-0.1,0-0.2-0.1-0.3-0.2s-0.3-0.2-0.5-0.4
				c-0.2-0.1-0.5-0.2-0.9-0.4c-0.3-0.1-0.8-0.2-1.3-0.2c-0.7,0-1.3,0.1-1.8,0.4c-0.5,0.2-1,0.6-1.3,1c-0.4,0.5-0.6,1-0.8,1.6
				c-0.2,0.6-0.3,1.4-0.3,2.2c0,0.8,0.1,1.6,0.3,2.2s0.5,1.2,0.8,1.6c0.4,0.4,0.8,0.8,1.3,1s1.1,0.3,1.7,0.3c0.6,0,1-0.1,1.4-0.2
				s0.7-0.3,1-0.4s0.4-0.3,0.6-0.4s0.3-0.2,0.4-0.2c0.1,0,0.2,0,0.2,0.1l0.3,0.4c-0.2,0.2-0.4,0.5-0.7,0.7c-0.3,0.2-0.6,0.4-0.9,0.5
				c-0.3,0.2-0.7,0.3-1.1,0.4c-0.4,0.1-0.8,0.1-1.3,0.1c-0.8,0-1.4-0.1-2.1-0.4c-0.6-0.3-1.2-0.7-1.6-1.2s-0.8-1.2-1-1.9
				s-0.4-1.6-0.4-2.6c0-0.9,0.1-1.7,0.4-2.5c0.2-0.7,0.6-1.4,1-1.9c0.5-0.5,1-1,1.7-1.3c0.7-0.3,1.4-0.4,2.3-0.4
				c0.8,0,1.5,0.1,2,0.4s1.1,0.6,1.6,1L172.8,252.9z"/>
			<path class="st7" d="M176.3,256.7v0.2c0,0.9,0.1,1.7,0.3,2.3s0.5,1.2,0.9,1.7c0.4,0.5,0.8,0.8,1.4,1c0.5,0.2,1.1,0.3,1.8,0.3
				c0.6,0,1.1-0.1,1.5-0.2c0.4-0.1,0.8-0.3,1.1-0.4c0.3-0.2,0.5-0.3,0.7-0.4c0.2-0.1,0.3-0.2,0.4-0.2c0.1,0,0.2,0,0.2,0.1l0.3,0.4
				c-0.2,0.2-0.4,0.5-0.8,0.7s-0.7,0.4-1,0.5c-0.4,0.1-0.8,0.3-1.2,0.4s-0.9,0.1-1.3,0.1c-0.8,0-1.5-0.1-2.2-0.4
				c-0.7-0.3-1.2-0.7-1.7-1.2c-0.5-0.5-0.8-1.2-1.1-2s-0.4-1.7-0.4-2.7c0-0.8,0.1-1.6,0.4-2.3c0.2-0.7,0.6-1.3,1-1.9
				c0.5-0.5,1-0.9,1.7-1.2c0.7-0.3,1.4-0.4,2.3-0.4c0.7,0,1.3,0.1,1.9,0.3s1.1,0.6,1.5,1c0.4,0.4,0.8,1,1,1.6
				c0.2,0.6,0.4,1.4,0.4,2.2c0,0.2,0,0.3-0.1,0.4c0,0.1-0.1,0.1-0.2,0.1H176.3z M184.2,256c0-0.6-0.1-1.2-0.3-1.7s-0.4-0.9-0.8-1.3
				s-0.7-0.6-1.2-0.8c-0.4-0.2-0.9-0.3-1.5-0.3c-0.6,0-1.2,0.1-1.6,0.3c-0.5,0.2-0.9,0.5-1.3,0.8c-0.4,0.4-0.6,0.8-0.9,1.3
				c-0.2,0.5-0.4,1.1-0.4,1.7H184.2z"/>
			<path class="st7" d="M64.1,291.1v-11.8h0.6c0.2,0,0.3,0.1,0.3,0.3l0.1,1.7c0.5-0.7,1-1.2,1.6-1.6c0.6-0.4,1.3-0.6,2-0.6
				c0.9,0,1.6,0.2,2.1,0.8s0.9,1.2,1.1,2.1c0.1-0.5,0.3-0.9,0.6-1.3c0.3-0.4,0.6-0.7,0.9-0.9c0.3-0.2,0.7-0.4,1.1-0.5
				c0.4-0.1,0.8-0.2,1.2-0.2c0.6,0,1.1,0.1,1.6,0.3c0.5,0.2,0.9,0.5,1.2,0.9c0.3,0.4,0.6,0.8,0.8,1.4c0.2,0.6,0.3,1.2,0.3,1.9v7.6
				h-1.1v-7.6c0-1.2-0.2-2-0.8-2.6c-0.5-0.6-1.2-0.9-2.1-0.9c-0.4,0-0.8,0.1-1.2,0.2c-0.4,0.2-0.7,0.4-1,0.7
				c-0.3,0.3-0.5,0.7-0.7,1.1c-0.2,0.4-0.3,1-0.3,1.5v7.6h-1.1v-7.6c0-1.2-0.2-2-0.7-2.6c-0.5-0.6-1.1-0.9-2-0.9
				c-0.6,0-1.2,0.2-1.8,0.6c-0.5,0.4-1,0.9-1.5,1.6v9H64.1z"/>
			<path class="st7" d="M87.9,279.1c0.8,0,1.6,0.1,2.3,0.4c0.7,0.3,1.2,0.7,1.7,1.2c0.5,0.5,0.8,1.2,1.1,1.9
				c0.2,0.8,0.4,1.6,0.4,2.5s-0.1,1.8-0.4,2.5c-0.2,0.7-0.6,1.4-1.1,1.9c-0.5,0.5-1,0.9-1.7,1.2c-0.7,0.3-1.4,0.4-2.3,0.4
				s-1.6-0.1-2.3-0.4c-0.7-0.3-1.2-0.7-1.7-1.2c-0.5-0.5-0.8-1.2-1.1-1.9c-0.2-0.7-0.4-1.6-0.4-2.5s0.1-1.8,0.4-2.5
				c0.2-0.7,0.6-1.4,1.1-1.9c0.5-0.5,1-0.9,1.7-1.2C86.3,279.2,87.1,279.1,87.9,279.1z M87.9,290.4c0.7,0,1.3-0.1,1.9-0.4
				c0.5-0.2,1-0.6,1.3-1c0.4-0.5,0.6-1,0.8-1.6c0.2-0.6,0.3-1.4,0.3-2.1c0-0.8-0.1-1.5-0.3-2.1c-0.2-0.6-0.4-1.2-0.8-1.6
				c-0.4-0.5-0.8-0.8-1.3-1.1c-0.5-0.2-1.1-0.4-1.9-0.4s-1.3,0.1-1.9,0.4s-1,0.6-1.3,1.1c-0.4,0.5-0.6,1-0.8,1.6s-0.3,1.4-0.3,2.1
				c0,0.8,0.1,1.5,0.3,2.1s0.4,1.2,0.8,1.6c0.4,0.5,0.8,0.8,1.3,1C86.6,290.3,87.2,290.4,87.9,290.4z"/>
			<path class="st7" d="M105.7,273.8v17.3h-0.6c-0.2,0-0.3-0.1-0.4-0.3l-0.1-1.9c-0.5,0.7-1.1,1.3-1.8,1.7s-1.5,0.6-2.4,0.6
				c-1.5,0-2.6-0.5-3.4-1.5c-0.8-1-1.2-2.5-1.2-4.5c0-0.9,0.1-1.7,0.3-2.4c0.2-0.8,0.6-1.4,1-2c0.4-0.6,1-1,1.6-1.3s1.4-0.5,2.2-0.5
				c0.8,0,1.5,0.1,2.1,0.4c0.6,0.3,1.1,0.7,1.5,1.3v-7H105.7z M104.6,281.8c-0.5-0.7-1-1.2-1.5-1.4c-0.6-0.3-1.2-0.4-1.9-0.4
				c-0.7,0-1.3,0.1-1.8,0.4s-1,0.6-1.3,1.1c-0.4,0.5-0.6,1-0.8,1.7c-0.2,0.6-0.3,1.4-0.3,2.1c0,1.8,0.3,3.1,1,3.9s1.6,1.2,2.8,1.2
				c0.8,0,1.5-0.2,2.1-0.6c0.6-0.4,1.2-1,1.7-1.7V281.8z"/>
			<path class="st7" d="M118.8,279.3v11.8h-0.6c-0.2,0-0.3-0.1-0.3-0.3l-0.1-1.8c-0.5,0.7-1.2,1.2-1.9,1.6c-0.7,0.4-1.5,0.6-2.4,0.6
				c-0.7,0-1.2-0.1-1.7-0.3c-0.5-0.2-0.9-0.5-1.2-0.9c-0.3-0.4-0.6-0.9-0.7-1.4c-0.2-0.5-0.2-1.2-0.2-1.9v-7.6h1.1v7.6
				c0,1.1,0.3,2,0.8,2.6s1.3,0.9,2.3,0.9c0.8,0,1.5-0.2,2.2-0.6c0.7-0.4,1.3-0.9,1.8-1.6v-8.9H118.8z"/>
			<path class="st7" d="M124,273.8v17.3h-1.1v-17.3H124z"/>
			<path class="st7" d="M128.4,284.7v0.2c0,0.9,0.1,1.7,0.3,2.3s0.5,1.2,0.9,1.7c0.4,0.5,0.8,0.8,1.4,1c0.5,0.2,1.1,0.3,1.8,0.3
				c0.6,0,1.1-0.1,1.5-0.2c0.4-0.1,0.8-0.3,1.1-0.4c0.3-0.2,0.5-0.3,0.7-0.4c0.2-0.1,0.3-0.2,0.4-0.2c0.1,0,0.2,0,0.2,0.1l0.3,0.4
				c-0.2,0.2-0.4,0.5-0.8,0.7s-0.7,0.4-1,0.5c-0.4,0.1-0.8,0.3-1.2,0.4s-0.9,0.1-1.3,0.1c-0.8,0-1.5-0.1-2.2-0.4
				c-0.7-0.3-1.2-0.7-1.7-1.2c-0.5-0.5-0.8-1.2-1.1-2s-0.4-1.7-0.4-2.7c0-0.8,0.1-1.6,0.4-2.3c0.2-0.7,0.6-1.3,1-1.9
				c0.5-0.5,1-0.9,1.7-1.2c0.7-0.3,1.4-0.4,2.3-0.4c0.7,0,1.3,0.1,1.9,0.3s1.1,0.6,1.5,1c0.4,0.4,0.8,1,1,1.6
				c0.2,0.6,0.4,1.4,0.4,2.2c0,0.2,0,0.3-0.1,0.4c0,0.1-0.1,0.1-0.2,0.1H128.4z M136.3,284c0-0.6-0.1-1.2-0.3-1.7s-0.4-0.9-0.8-1.3
				s-0.7-0.6-1.2-0.8c-0.4-0.2-0.9-0.3-1.5-0.3c-0.6,0-1.2,0.1-1.6,0.3c-0.5,0.2-0.9,0.5-1.3,0.8c-0.4,0.4-0.6,0.8-0.9,1.3
				c-0.2,0.5-0.4,1.1-0.4,1.7H136.3z"/>
		</g>
		<g>
			<path class="st7" d="M120.9,120.4v10.8H77.5v-10.8h15.3V78.1c0-0.9,0-1.9,0.1-2.8c0-1,0.1-1.9,0.2-2.9L83,80.7
				c-0.7,0.5-1.4,0.9-2.1,1c-0.7,0.1-1.3,0.2-1.9,0c-0.6-0.1-1.1-0.3-1.6-0.6s-0.8-0.6-1.1-0.9L71.7,74l23.8-20.1h12.1v66.6H120.9z"
				/>
		</g>
		<g>
			<path class="st7" d="M97.8,178.2c-47.8,0-86.8-38.9-86.8-86.8S49.9,4.6,97.8,4.6s86.8,38.9,86.8,86.8S145.6,178.2,97.8,178.2z
				 M97.8,5.6C50.5,5.6,12,44.1,12,91.4s38.5,85.8,85.8,85.8s85.8-38.5,85.8-85.8S145.1,5.6,97.8,5.6z"/>
		</g>
		<g>
			<circle class="st7" cx="158.6" cy="30.4" r="30.4"/>
		</g>
		<g>
			<path class="st8" d="M152.1,21.4v14.9h-1.5c-0.3,0-0.5-0.1-0.6-0.5l-0.2-1c-0.4,0.5-0.9,0.9-1.4,1.2c-0.5,0.3-1.2,0.4-1.9,0.4
				c-0.6,0-1.1-0.1-1.5-0.3c-0.5-0.2-0.9-0.6-1.2-1c-0.3-0.4-0.6-1-0.8-1.6c-0.2-0.7-0.3-1.4-0.3-2.2c0-0.8,0.1-1.5,0.3-2.1
				c0.2-0.7,0.5-1.2,0.9-1.7s0.9-0.9,1.4-1.1c0.5-0.3,1.1-0.4,1.8-0.4c0.6,0,1.1,0.1,1.5,0.3c0.4,0.2,0.8,0.4,1.1,0.7v-5.4H152.1z
				 M149.6,28.7c-0.3-0.3-0.6-0.6-0.9-0.7c-0.3-0.1-0.7-0.2-1.1-0.2c-0.4,0-0.7,0.1-1,0.2c-0.3,0.1-0.6,0.4-0.8,0.6
				c-0.2,0.3-0.4,0.6-0.5,1.1c-0.1,0.4-0.2,1-0.2,1.5c0,0.6,0,1.1,0.1,1.5c0.1,0.4,0.2,0.8,0.4,1c0.2,0.3,0.4,0.5,0.7,0.6
				c0.3,0.1,0.5,0.2,0.9,0.2c0.5,0,0.9-0.1,1.3-0.3s0.7-0.5,1-0.9V28.7z"/>
			<path class="st8" d="M154.3,27.5c1.2-1.1,2.6-1.6,4.3-1.6c0.6,0,1.1,0.1,1.6,0.3c0.5,0.2,0.9,0.5,1.2,0.8
				c0.3,0.3,0.6,0.8,0.7,1.3c0.2,0.5,0.3,1,0.3,1.6v6.5h-1.1c-0.2,0-0.4,0-0.5-0.1c-0.1-0.1-0.2-0.2-0.3-0.4l-0.2-0.7
				c-0.3,0.2-0.5,0.4-0.8,0.6c-0.2,0.2-0.5,0.3-0.8,0.4s-0.6,0.2-0.9,0.3c-0.3,0.1-0.6,0.1-1,0.1c-0.4,0-0.8-0.1-1.2-0.2
				c-0.4-0.1-0.7-0.3-0.9-0.5s-0.5-0.5-0.6-0.9s-0.2-0.8-0.2-1.2c0-0.3,0-0.5,0.1-0.8c0.1-0.3,0.2-0.5,0.4-0.7
				c0.2-0.2,0.5-0.5,0.8-0.7s0.7-0.4,1.2-0.5c0.5-0.2,1-0.3,1.6-0.4s1.3-0.2,2.1-0.2v-0.6c0-0.7-0.1-1.2-0.4-1.5
				c-0.3-0.3-0.7-0.5-1.3-0.5c-0.4,0-0.7,0-1,0.1c-0.3,0.1-0.5,0.2-0.7,0.3c-0.2,0.1-0.4,0.2-0.5,0.3c-0.2,0.1-0.3,0.1-0.5,0.1
				c-0.2,0-0.3,0-0.4-0.1c-0.1-0.1-0.2-0.2-0.3-0.3L154.3,27.5z M159.9,31.9c-0.7,0-1.3,0.1-1.8,0.2c-0.5,0.1-0.9,0.2-1.2,0.3
				c-0.3,0.1-0.5,0.3-0.6,0.5c-0.1,0.2-0.2,0.4-0.2,0.6c0,0.4,0.1,0.7,0.4,0.9c0.3,0.2,0.6,0.3,1,0.3c0.5,0,0.9-0.1,1.3-0.3
				c0.4-0.2,0.7-0.5,1.1-0.8V31.9z"/>
			<path class="st8" d="M173.7,26l-5.6,13.1c-0.1,0.2-0.2,0.3-0.3,0.4c-0.1,0.1-0.3,0.1-0.5,0.1h-1.8l1.9-4.1l-4.1-9.5h2.2
				c0.2,0,0.3,0,0.5,0.1c0.1,0.1,0.2,0.2,0.2,0.3l2.2,5.3c0.1,0.2,0.1,0.4,0.2,0.5c0.1,0.2,0.1,0.4,0.1,0.6c0.1-0.2,0.1-0.4,0.2-0.6
				c0.1-0.2,0.1-0.4,0.2-0.5l2.1-5.3c0.1-0.1,0.1-0.2,0.3-0.3c0.1-0.1,0.3-0.1,0.4-0.1H173.7z"/>
		</g>
	</g>
</g>
</svg>
