<?xml version="1.0" encoding="utf-8"?>
<!-- Generator: Adobe Illustrator 18.0.0, SVG Export Plug-In . SVG Version: 6.00 Build 0)  -->
<!DOCTYPE svg PUBLIC "-//W3C//DTD SVG 1.1//EN" "http://www.w3.org/Graphics/SVG/1.1/DTD/svg11.dtd">
<svg version="1.1" id="Layer_1" xmlns="http://www.w3.org/2000/svg" xmlns:xlink="http://www.w3.org/1999/xlink" x="0px" y="0px"
	 width="36.5px" height="86.6px" viewBox="0 0 36.5 86.6" enable-background="new 0 0 36.5 86.6" xml:space="preserve">
<g>
	<g>
		<path fill="none" stroke="#010202" stroke-width="1.5" stroke-miterlimit="10" d="M29.1,70.8c4.5-15.2-10.7-16.4-10.7-12.1
			c0,2.6,1.6,2.7,1.6,2.7s6.9-0.4,9,6.9C31,76,18.3,85.7,18.3,85.7S5.7,76,7.8,68.4c2-7.3,9-6.9,9-6.9s1.6-0.1,1.6-2.7
			c0-4.3-15.2-3.1-10.7,12.1"/>
		<path fill="none" stroke="#010202" stroke-width="1.5" stroke-linecap="round" stroke-miterlimit="10" d="M15,65
			c0,0,1.6,0.9,3.5,0.9c1.8,0,3.1-0.9,3.1-0.9"/>
		<path fill="none" stroke="#010202" stroke-width="1.5" stroke-miterlimit="10" d="M0.9,35.4c0,6.8,0,10.5,0,19.7
			s5.9,11.5,5.9,11.5"/>
		<path fill="none" stroke="#010202" stroke-width="1.5" stroke-miterlimit="10" d="M29.9,66.5c0,0,5.9-2.3,5.9-11.5s0-12.9,0-19.7"
			/>
		<path fill="none" stroke="#010202" stroke-width="1.5" stroke-miterlimit="10" d="M19.2,37.2c-1.3,1.4-3,2.8-4.9,3.9
			C2.8,47.5,0.9,48.7,0.9,52.7"/>
		<path fill="none" stroke="#010202" stroke-width="1.5" stroke-miterlimit="10" d="M13.8,41.3c0,0,15.4-1.2,22,10.7"/>
		<path fill="none" stroke="#010202" stroke-width="1.5" stroke-linejoin="bevel" stroke-miterlimit="10" d="M28.1,51.2
			c0-1.4-1.1-2.5-2.5-2.5c-1.4,0-2.5,1.1-2.5,2.5"/>
		<ellipse fill="none" stroke="#010202" stroke-width="1.5" stroke-miterlimit="10" cx="18.3" cy="35.5" rx="17.5" ry="1.8"/>
		<circle fill="none" stroke="#010202" stroke-width="1.5" stroke-miterlimit="10" cx="11.2" cy="49.8" r="4.2"/>
		<path fill="none" stroke="#010202" stroke-width="1.5" stroke-linecap="round" stroke-miterlimit="10" d="M7.1,49.4H6.8
			c-1.7,0-3.1,1.4-3.1,3.1v14.7"/>
	</g>
	<g>
		<path fill="none" stroke="#010202" stroke-width="1.5" stroke-linecap="round" stroke-miterlimit="10" d="M23.6,23.3
			c1.9-1.5,3.2-3.9,3.2-6.6c0-4.6-3.7-8.3-8.3-8.3s-8.3,3.7-8.3,8.3c0,2.7,1.2,5,3.2,6.6"/>
		<path fill="none" stroke="#010202" stroke-width="1.5" stroke-linecap="round" stroke-miterlimit="10" d="M13.5,23.3h9.9
			c0.2,0,0.4,0.2,0.4,0.4v1.6c0,0.8-0.6,1.4-1.4,1.4h-8c-0.8,0-1.4-0.6-1.4-1.4v-1.6C13.1,23.5,13.3,23.3,13.5,23.3z"/>
		<path fill="none" stroke="#010202" stroke-width="1.5" stroke-linecap="round" stroke-miterlimit="10" d="M22.9,30h-8.8
			c-0.5,0-1-0.4-1-1l0-1.1c0-0.7,0.5-1.2,1.2-1.2h8.3c0.7,0,1.2,0.5,1.2,1.2V29C23.9,29.6,23.4,30,22.9,30z"/>
		<path fill="none" stroke="#010202" stroke-width="1.5" stroke-linecap="round" stroke-miterlimit="10" d="M22.3,16.4
			c0,0-1.3,2.2-4,2.2c-2.2,0-3.3-0.9-3.3-2.3c0-1.4,0.6-2.4,2.3-2.4c1.8,0,1.6,2.3,1.6,2.3v7.2"/>
		<g>
			
				<line fill="none" stroke="#010202" stroke-width="1.5" stroke-linecap="round" stroke-miterlimit="10" x1="18.8" y1="5" x2="18.8" y2="0.8"/>
			
				<line fill="none" stroke="#010202" stroke-width="1.5" stroke-linecap="round" stroke-miterlimit="10" x1="25" y1="7.3" x2="28" y2="4.4"/>
			
				<line fill="none" stroke="#010202" stroke-width="1.5" stroke-linecap="round" stroke-miterlimit="10" x1="11.9" y1="7.3" x2="8.9" y2="4.4"/>
		</g>
	</g>
</g>
</svg>
