<?xml version="1.0" encoding="UTF-8" standalone="no"?>
<svg width="44px" height="44px" viewBox="0 0 44 44" version="1.1" xmlns="http://www.w3.org/2000/svg" xmlns:xlink="http://www.w3.org/1999/xlink">
    <!-- Generator: Sketch 3.8.3 (29802) - http://www.bohemiancoding.com/sketch -->
    <title>twitter</title>
    <desc>Created with Sketch.</desc>
    <defs></defs>
    <g id="Page-1" stroke="none" stroke-width="1" fill="none" fill-rule="evenodd">
        <g id="share-icons" transform="translate(-209.000000, -10.000000)" fill="#49C7EF">
            <path d="M209,32 C209,19.8497355 218.847064,10 231,10 C243.150264,10 253,19.847064 253,32 C253,44.1502645 243.152936,54 231,54 C218.849736,54 209,44.152936 209,32 Z M241.901812,25.5498495 C241.117673,25.8878405 240.265936,26.1311939 239.387159,26.2258314 C240.292975,25.6850459 240.982477,24.8333088 241.306948,23.819336 C240.46873,24.3195626 239.522356,24.6845928 238.535422,24.8738677 C237.737764,24.0221306 236.602114,23.4948647 235.344788,23.4948647 C232.924773,23.4948647 230.977945,25.4552121 230.977945,27.8617075 C230.977945,28.1996984 231.018504,28.5376893 231.086102,28.8621606 C227.46284,28.6728857 224.231646,26.9423721 222.082024,24.2925233 C221.703474,24.9414659 221.48716,25.6850459 221.48716,26.4962241 C221.48716,28.0104235 222.257779,29.3488675 223.433988,30.1330065 C222.717447,30.1059672 222.041465,29.9031726 221.460121,29.5787013 L221.460121,29.6327799 C221.460121,31.7553629 222.9608,33.5129157 224.961707,33.9185048 C224.596677,34.0131423 224.204607,34.0672208 223.812538,34.0672208 C223.528625,34.0672208 223.258232,34.0401815 222.98784,33.9996226 C223.542145,35.7301362 225.150982,36.9874624 227.07077,37.0280213 C225.57009,38.2042297 223.690861,38.8937312 221.649396,38.8937312 C221.284366,38.8937312 220.946375,38.8802116 220.594864,38.8396526 C222.528172,40.0834592 224.82651,40.8 227.300604,40.8 C235.331268,40.8 239.72515,34.1483386 239.72515,28.3754537 C239.72515,28.1861787 239.72515,27.9969038 239.711631,27.8076289 C240.563368,27.1857256 241.306948,26.4151063 241.901812,25.5498495 Z" id="twitter"></path>
        </g>
    </g>
</svg>