<?xml version="1.0" encoding="utf-8"?>
<!-- Generator: Adobe Illustrator 19.2.0, SVG Export Plug-In . SVG Version: 6.00 Build 0)  -->
<svg version="1.1" xmlns="http://www.w3.org/2000/svg" xmlns:xlink="http://www.w3.org/1999/xlink" x="0px" y="0px"
	 viewBox="0 0 200 302.9" style="enable-background:new 0 0 200 302.9;" xml:space="preserve">
<style type="text/css">
	.st0{fill:#1E2D33;}
	.st1{clip-path:url(#SVGID_2_);}
	.st2{clip-path:url(#SVGID_4_);fill:#E63A2F;}
	.st3{fill:none;stroke:#1E2D33;stroke-miterlimit:10;}
	.st4{clip-path:url(#SVGID_6_);}
	.st5{clip-path:url(#SVGID_8_);}
	.st6{fill:#E63A2F;}
</style>
<g id="Layer_1">
</g>
<g id="Layer_2">
	<rect x="-1537.8" y="610.6" style="fill:none;" width="221.3" height="226.2"/>
	<text transform="matrix(1 0 0 1 -1488.7961 627.9839)"><tspan x="0" y="0" class="st0" style="font-family:'Lato-Light'; font-size:23.8003px;">reduction in </tspan><tspan x="-26.3" y="28" class="st0" style="font-family:'Lato-Light'; font-size:23.8003px;">complaints about </tspan><tspan x="6.2" y="56" class="st0" style="font-family:'Lato-Light'; font-size:23.8003px;">cabin crew</tspan></text>
	<g>
		<defs>
			<path id="SVGID_1_" d="M-1416.4,411.4l-10.8,8.8l-10.8-8.8c-1.2-1-2.9-0.8-3.9,0.4c-1,1.2-0.8,3,0.4,4l14.3,11.7l14.3-11.7
				c0.7-0.6,1-1.4,1-2.2c0-0.6-0.2-1.3-0.6-1.8C-1413.4,410.6-1415.2,410.4-1416.4,411.4"/>
		</defs>
		<use xlink:href="#SVGID_1_"  style="overflow:visible;fill-rule:evenodd;clip-rule:evenodd;fill:#E63A2F;"/>
		<clipPath id="SVGID_2_">
			<use xlink:href="#SVGID_1_"  style="overflow:visible;"/>
		</clipPath>
		<g class="st1">
			<defs>
				<rect id="SVGID_3_" x="-1464.7" y="-524.4" width="3351" height="1024"/>
			</defs>
			<use xlink:href="#SVGID_3_"  style="overflow:visible;fill:#E63A2F;"/>
			<clipPath id="SVGID_4_">
				<use xlink:href="#SVGID_3_"  style="overflow:visible;"/>
			</clipPath>
			<rect x="-1447.4" y="405.8" class="st2" width="40.6" height="26.8"/>
		</g>
	</g>
	<text transform="matrix(1 0 0 1 -1489.2404 512.9984)"><tspan x="0" y="0" class="st0" style="font-family:'Lato-Heavy'; font-size:82.7683px;">20</tspan><tspan x="96" y="0" class="st0" style="font-family:'Lato-Heavy'; font-size:42.562px;">%</tspan></text>
	<circle class="st3" cx="-1427.1" cy="480.3" r="86.3"/>
	<g>
		<g>
			<path class="st0" d="M41.4,225.5c0.2-0.5,0.4-0.9,0.6-1.3c0.2-0.4,0.5-0.7,0.8-1c0.3-0.3,0.6-0.5,1-0.6c0.4-0.1,0.8-0.2,1.3-0.2
				c0.2,0,0.5,0,0.7,0.1c0.2,0,0.4,0.1,0.6,0.2l-0.1,0.8c0,0.1-0.1,0.2-0.2,0.2c-0.1,0-0.2,0-0.4-0.1c-0.2-0.1-0.5-0.1-0.8-0.1
				c-0.5,0-0.9,0.1-1.2,0.2s-0.7,0.3-1,0.6c-0.3,0.3-0.5,0.6-0.7,1c-0.2,0.4-0.4,0.9-0.6,1.4v7.7h-1.1v-11.8h0.6
				c0.1,0,0.2,0,0.3,0.1c0.1,0.1,0.1,0.2,0.1,0.3L41.4,225.5z"/>
			<path class="st0" d="M48.5,228.1v0.2c0,0.9,0.1,1.7,0.3,2.3c0.2,0.7,0.5,1.2,0.9,1.7c0.4,0.5,0.8,0.8,1.4,1
				c0.5,0.2,1.1,0.3,1.8,0.3c0.6,0,1.1-0.1,1.5-0.2c0.4-0.1,0.8-0.3,1.1-0.4s0.5-0.3,0.7-0.4c0.2-0.1,0.3-0.2,0.4-0.2
				c0.1,0,0.2,0,0.2,0.1l0.3,0.4c-0.2,0.2-0.4,0.5-0.8,0.7c-0.3,0.2-0.7,0.4-1,0.5c-0.4,0.1-0.8,0.3-1.2,0.4
				c-0.4,0.1-0.9,0.1-1.3,0.1c-0.8,0-1.5-0.1-2.2-0.4c-0.7-0.3-1.2-0.7-1.7-1.2s-0.8-1.2-1.1-2c-0.3-0.8-0.4-1.7-0.4-2.7
				c0-0.8,0.1-1.6,0.4-2.4c0.2-0.7,0.6-1.3,1-1.9c0.5-0.5,1-0.9,1.7-1.2c0.7-0.3,1.4-0.4,2.3-0.4c0.7,0,1.3,0.1,1.9,0.3
				c0.6,0.2,1.1,0.6,1.5,1c0.4,0.4,0.8,1,1,1.6c0.2,0.6,0.4,1.4,0.4,2.2c0,0.2,0,0.3-0.1,0.4c0,0.1-0.1,0.1-0.2,0.1H48.5z
				 M56.4,227.4c0-0.6-0.1-1.2-0.3-1.7c-0.2-0.5-0.4-0.9-0.8-1.3s-0.7-0.6-1.2-0.8c-0.4-0.2-0.9-0.3-1.5-0.3c-0.6,0-1.2,0.1-1.6,0.3
				c-0.5,0.2-0.9,0.5-1.3,0.8s-0.6,0.8-0.9,1.3c-0.2,0.5-0.4,1.1-0.4,1.7H56.4z"/>
			<path class="st0" d="M69.7,217.2v17.3h-0.6c-0.2,0-0.3-0.1-0.4-0.3l-0.1-1.9c-0.5,0.7-1.1,1.3-1.8,1.7c-0.7,0.4-1.5,0.6-2.4,0.6
				c-1.5,0-2.6-0.5-3.4-1.5c-0.8-1-1.2-2.5-1.2-4.5c0-0.9,0.1-1.7,0.3-2.4s0.6-1.4,1-2c0.4-0.6,1-1,1.6-1.3s1.4-0.5,2.2-0.5
				c0.8,0,1.5,0.1,2.1,0.4c0.6,0.3,1.1,0.7,1.5,1.3v-7H69.7z M68.6,225.2c-0.5-0.7-1-1.2-1.5-1.4s-1.2-0.4-1.9-0.4
				c-0.7,0-1.3,0.1-1.8,0.4s-1,0.6-1.3,1.1c-0.4,0.5-0.6,1-0.8,1.7c-0.2,0.6-0.3,1.4-0.3,2.1c0,1.8,0.3,3.1,1,3.9
				c0.6,0.8,1.6,1.2,2.8,1.2c0.8,0,1.5-0.2,2.1-0.6s1.2-1,1.7-1.7V225.2z"/>
			<path class="st0" d="M82.8,222.6v11.8h-0.6c-0.2,0-0.3-0.1-0.3-0.3l-0.1-1.8c-0.5,0.7-1.2,1.2-1.9,1.6c-0.7,0.4-1.5,0.6-2.4,0.6
				c-0.7,0-1.2-0.1-1.7-0.3c-0.5-0.2-0.9-0.5-1.2-0.9c-0.3-0.4-0.6-0.9-0.7-1.4c-0.2-0.5-0.2-1.2-0.2-1.9v-7.6h1.1v7.6
				c0,1.1,0.3,2,0.8,2.6s1.3,0.9,2.3,0.9c0.8,0,1.5-0.2,2.2-0.6c0.7-0.4,1.3-0.9,1.8-1.6v-8.9H82.8z"/>
			<path class="st0" d="M94.6,224.2c0,0-0.1,0.1-0.1,0.1s-0.1,0-0.1,0c-0.1,0-0.2-0.1-0.3-0.2c-0.1-0.1-0.3-0.2-0.5-0.4
				s-0.5-0.2-0.9-0.4s-0.8-0.2-1.3-0.2c-0.7,0-1.3,0.1-1.8,0.4c-0.5,0.2-1,0.6-1.3,1c-0.4,0.5-0.6,1-0.8,1.6
				c-0.2,0.6-0.3,1.4-0.3,2.2c0,0.8,0.1,1.6,0.3,2.2s0.5,1.2,0.8,1.6s0.8,0.8,1.3,1c0.5,0.2,1.1,0.3,1.7,0.3c0.6,0,1-0.1,1.4-0.2
				s0.7-0.3,1-0.4s0.4-0.3,0.6-0.4c0.1-0.1,0.3-0.2,0.4-0.2s0.2,0,0.2,0.1l0.3,0.4c-0.2,0.2-0.4,0.5-0.7,0.7
				c-0.3,0.2-0.6,0.4-0.9,0.5c-0.3,0.2-0.7,0.3-1.1,0.4c-0.4,0.1-0.8,0.1-1.3,0.1c-0.8,0-1.4-0.1-2.1-0.4c-0.6-0.3-1.2-0.7-1.6-1.2
				s-0.8-1.2-1-1.9c-0.2-0.8-0.4-1.6-0.4-2.6c0-0.9,0.1-1.7,0.4-2.5c0.2-0.7,0.6-1.4,1-1.9c0.5-0.5,1-1,1.7-1.3
				c0.7-0.3,1.4-0.4,2.3-0.4c0.8,0,1.5,0.1,2,0.4c0.6,0.2,1.1,0.6,1.6,1L94.6,224.2z"/>
			<path class="st0" d="M107.7,234.5h-1.1v-10.6h-6.9v8c0,0.3,0,0.6,0.1,0.8s0.2,0.4,0.3,0.6c0.1,0.2,0.3,0.3,0.5,0.3
				c0.2,0.1,0.4,0.1,0.6,0.1c0.3,0,0.5,0,0.7-0.1c0.2-0.1,0.4-0.2,0.5-0.3c0.2-0.1,0.3-0.2,0.4-0.3c0.1-0.1,0.2-0.1,0.2-0.1
				c0.1,0,0.1,0,0.2,0.1l0.3,0.5c-0.3,0.3-0.7,0.6-1.1,0.8c-0.5,0.2-0.9,0.3-1.4,0.3c-0.8,0-1.4-0.2-1.9-0.7s-0.7-1.1-0.7-2.1v-8.1
				h-1.7c-0.1,0-0.2,0-0.2-0.1c-0.1,0-0.1-0.1-0.1-0.2v-0.4l2-0.1l0.3-4.2c0-0.1,0-0.1,0.1-0.2c0-0.1,0.1-0.1,0.2-0.1h0.5v4.5h8
				V234.5z M108.3,218.4c0,0.1,0,0.3-0.1,0.4s-0.1,0.2-0.2,0.3s-0.2,0.2-0.3,0.2c-0.1,0.1-0.3,0.1-0.4,0.1c-0.1,0-0.3,0-0.4-0.1
				c-0.1-0.1-0.2-0.1-0.3-0.2s-0.2-0.2-0.2-0.3c-0.1-0.1-0.1-0.3-0.1-0.4c0-0.1,0-0.3,0.1-0.4c0.1-0.1,0.1-0.2,0.2-0.3
				s0.2-0.2,0.3-0.2c0.1-0.1,0.3-0.1,0.4-0.1c0.1,0,0.3,0,0.4,0.1c0.1,0.1,0.2,0.1,0.3,0.2s0.2,0.2,0.2,0.3S108.3,218.3,108.3,218.4
				z"/>
			<path class="st0" d="M116.5,222.5c0.8,0,1.6,0.1,2.3,0.4c0.7,0.3,1.2,0.7,1.7,1.2s0.8,1.2,1.1,1.9s0.4,1.6,0.4,2.5
				s-0.1,1.8-0.4,2.5s-0.6,1.4-1.1,1.9s-1,0.9-1.7,1.2c-0.7,0.3-1.4,0.4-2.3,0.4c-0.8,0-1.6-0.1-2.3-0.4c-0.7-0.3-1.2-0.7-1.7-1.2
				c-0.5-0.5-0.8-1.2-1.1-1.9c-0.2-0.7-0.4-1.6-0.4-2.5s0.1-1.8,0.4-2.5c0.2-0.8,0.6-1.4,1.1-1.9c0.5-0.5,1-0.9,1.7-1.2
				C114.8,222.6,115.6,222.5,116.5,222.5z M116.5,233.7c0.7,0,1.3-0.1,1.9-0.4c0.5-0.2,1-0.6,1.3-1s0.6-1,0.8-1.6
				c0.2-0.6,0.3-1.4,0.3-2.1c0-0.8-0.1-1.5-0.3-2.1c-0.2-0.6-0.4-1.2-0.8-1.6s-0.8-0.8-1.3-1.1c-0.5-0.2-1.1-0.4-1.9-0.4
				s-1.3,0.1-1.9,0.4c-0.5,0.2-1,0.6-1.3,1.1s-0.6,1-0.8,1.6c-0.2,0.6-0.3,1.4-0.3,2.1c0,0.8,0.1,1.5,0.3,2.1
				c0.2,0.6,0.4,1.2,0.8,1.6s0.8,0.8,1.3,1C115.1,233.6,115.8,233.7,116.5,233.7z"/>
			<path class="st0" d="M126.1,224.7c0.5-0.7,1.2-1.2,1.9-1.6c0.7-0.4,1.5-0.6,2.4-0.6c0.7,0,1.2,0.1,1.7,0.3
				c0.5,0.2,0.9,0.5,1.2,0.9s0.6,0.9,0.7,1.4c0.2,0.5,0.2,1.2,0.2,1.9v7.6h-1.1v-7.6c0-1.1-0.3-2-0.8-2.6s-1.3-0.9-2.3-0.9
				c-0.8,0-1.5,0.2-2.2,0.6c-0.7,0.4-1.3,0.9-1.8,1.6v8.9H125v-11.8h0.6c0.2,0,0.3,0.1,0.3,0.3L126.1,224.7z"/>
			<path class="st0" d="M146.3,218.6c0,0.1,0,0.3-0.1,0.4c-0.1,0.1-0.1,0.2-0.2,0.3c-0.1,0.1-0.2,0.2-0.3,0.2s-0.3,0.1-0.4,0.1
				c-0.1,0-0.3,0-0.4-0.1s-0.2-0.1-0.3-0.2c-0.1-0.1-0.2-0.2-0.2-0.3c-0.1-0.1-0.1-0.3-0.1-0.4c0-0.1,0-0.3,0.1-0.4
				c0.1-0.1,0.1-0.2,0.2-0.3c0.1-0.1,0.2-0.2,0.3-0.2c0.1-0.1,0.3-0.1,0.4-0.1c0.1,0,0.3,0,0.4,0.1c0.1,0.1,0.2,0.1,0.3,0.2
				c0.1,0.1,0.2,0.2,0.2,0.3S146.3,218.4,146.3,218.6z M145.9,222.6v11.8h-1.1v-11.8H145.9z"/>
			<path class="st0" d="M151,224.7c0.5-0.7,1.2-1.2,1.9-1.6c0.7-0.4,1.5-0.6,2.4-0.6c0.7,0,1.2,0.1,1.7,0.3c0.5,0.2,0.9,0.5,1.2,0.9
				s0.6,0.9,0.7,1.4c0.2,0.5,0.2,1.2,0.2,1.9v7.6h-1.1v-7.6c0-1.1-0.3-2-0.8-2.6s-1.3-0.9-2.3-0.9c-0.8,0-1.5,0.2-2.2,0.6
				c-0.7,0.4-1.3,0.9-1.8,1.6v8.9h-1.1v-11.8h0.6c0.2,0,0.3,0.1,0.3,0.3L151,224.7z"/>
			<path class="st0" d="M21.9,252.2c0,0-0.1,0.1-0.1,0.1s-0.1,0-0.1,0c-0.1,0-0.2-0.1-0.3-0.2c-0.1-0.1-0.3-0.2-0.5-0.4
				s-0.5-0.2-0.9-0.4s-0.8-0.2-1.3-0.2c-0.7,0-1.3,0.1-1.8,0.4c-0.5,0.2-1,0.6-1.3,1c-0.4,0.5-0.6,1-0.8,1.6
				c-0.2,0.6-0.3,1.4-0.3,2.2c0,0.8,0.1,1.6,0.3,2.2s0.5,1.2,0.8,1.6s0.8,0.8,1.3,1c0.5,0.2,1.1,0.3,1.7,0.3c0.6,0,1-0.1,1.4-0.2
				s0.7-0.3,1-0.4s0.4-0.3,0.6-0.4c0.1-0.1,0.3-0.2,0.4-0.2s0.2,0,0.2,0.1l0.3,0.4c-0.2,0.2-0.4,0.5-0.7,0.7
				c-0.3,0.2-0.6,0.4-0.9,0.5c-0.3,0.2-0.7,0.3-1.1,0.4c-0.4,0.1-0.8,0.1-1.3,0.1c-0.8,0-1.4-0.1-2.1-0.4c-0.6-0.3-1.2-0.7-1.6-1.2
				s-0.8-1.2-1-1.9c-0.2-0.8-0.4-1.6-0.4-2.6c0-0.9,0.1-1.7,0.4-2.5c0.2-0.7,0.6-1.4,1-1.9c0.5-0.5,1-1,1.7-1.3
				c0.7-0.3,1.4-0.4,2.3-0.4c0.8,0,1.5,0.1,2,0.4c0.6,0.2,1.1,0.6,1.6,1L21.9,252.2z"/>
			<path class="st0" d="M29.6,250.5c0.8,0,1.6,0.1,2.3,0.4c0.7,0.3,1.2,0.7,1.7,1.2s0.8,1.2,1.1,1.9s0.4,1.6,0.4,2.5
				s-0.1,1.8-0.4,2.5s-0.6,1.4-1.1,1.9s-1,0.9-1.7,1.2c-0.7,0.3-1.4,0.4-2.3,0.4c-0.8,0-1.6-0.1-2.3-0.4c-0.7-0.3-1.2-0.7-1.7-1.2
				c-0.5-0.5-0.8-1.2-1.1-1.9c-0.2-0.7-0.4-1.6-0.4-2.5s0.1-1.8,0.4-2.5c0.2-0.8,0.6-1.4,1.1-1.9c0.5-0.5,1-0.9,1.7-1.2
				C28,250.6,28.8,250.5,29.6,250.5z M29.6,261.7c0.7,0,1.3-0.1,1.9-0.4c0.5-0.2,1-0.6,1.3-1s0.6-1,0.8-1.6c0.2-0.6,0.3-1.4,0.3-2.1
				c0-0.8-0.1-1.5-0.3-2.1c-0.2-0.6-0.4-1.2-0.8-1.6s-0.8-0.8-1.3-1.1c-0.5-0.2-1.1-0.4-1.9-0.4s-1.3,0.1-1.9,0.4
				c-0.5,0.2-1,0.6-1.3,1.1s-0.6,1-0.8,1.6c-0.2,0.6-0.3,1.4-0.3,2.1c0,0.8,0.1,1.5,0.3,2.1c0.2,0.6,0.4,1.2,0.8,1.6s0.8,0.8,1.3,1
				C28.3,261.6,28.9,261.7,29.6,261.7z"/>
			<path class="st0" d="M38.2,262.5v-11.8h0.6c0.2,0,0.3,0.1,0.3,0.3l0.1,1.7c0.5-0.7,1-1.2,1.6-1.6c0.6-0.4,1.3-0.6,2-0.6
				c0.9,0,1.6,0.2,2.1,0.8c0.5,0.5,0.9,1.2,1.1,2.1c0.1-0.5,0.3-0.9,0.6-1.3s0.6-0.7,0.9-0.9c0.3-0.2,0.7-0.4,1.1-0.5
				s0.8-0.2,1.2-0.2c0.6,0,1.1,0.1,1.6,0.3c0.5,0.2,0.9,0.5,1.2,0.9s0.6,0.8,0.8,1.4c0.2,0.6,0.3,1.2,0.3,1.9v7.6h-1.1v-7.6
				c0-1.2-0.2-2-0.8-2.6c-0.5-0.6-1.2-0.9-2.1-0.9c-0.4,0-0.8,0.1-1.2,0.2c-0.4,0.2-0.7,0.4-1,0.7c-0.3,0.3-0.5,0.7-0.7,1.1
				c-0.2,0.4-0.3,1-0.3,1.5v7.6h-1.1v-7.6c0-1.2-0.2-2-0.7-2.6c-0.5-0.6-1.1-0.9-2-0.9c-0.6,0-1.2,0.2-1.8,0.6
				c-0.5,0.4-1,0.9-1.5,1.6v9H38.2z"/>
			<path class="st0" d="M58.5,252.8c0.5-0.7,1.1-1.3,1.8-1.7c0.7-0.4,1.5-0.6,2.4-0.6c1.5,0,2.6,0.5,3.4,1.5c0.8,1,1.2,2.5,1.2,4.5
				c0,0.9-0.1,1.7-0.3,2.4s-0.6,1.4-1,2c-0.4,0.6-1,1-1.6,1.3c-0.6,0.3-1.4,0.5-2.2,0.5c-0.8,0-1.5-0.1-2.1-0.4s-1.1-0.7-1.5-1.3
				v5.8h-1.1v-16H58c0.2,0,0.3,0.1,0.3,0.3L58.5,252.8z M58.5,259.9c0.2,0.3,0.5,0.6,0.7,0.9c0.2,0.2,0.5,0.4,0.8,0.6
				c0.3,0.1,0.6,0.3,0.9,0.3c0.3,0.1,0.6,0.1,1,0.1c0.7,0,1.3-0.1,1.8-0.4c0.5-0.3,1-0.6,1.3-1.1s0.6-1,0.8-1.7
				c0.2-0.6,0.3-1.4,0.3-2.1c0-1.8-0.3-3.1-1-3.9c-0.7-0.8-1.6-1.2-2.8-1.2c-0.8,0-1.5,0.2-2.1,0.6c-0.6,0.4-1.2,1-1.7,1.7V259.9z"
				/>
			<path class="st0" d="M71.7,245.2v17.3h-1.1v-17.3H71.7z"/>
			<path class="st0" d="M75.4,252.3c0.6-0.6,1.3-1.1,2-1.4c0.7-0.3,1.5-0.5,2.3-0.5c0.6,0,1.2,0.1,1.7,0.3c0.5,0.2,0.9,0.5,1.2,0.9
				s0.5,0.8,0.7,1.4c0.2,0.5,0.2,1.1,0.2,1.8v7.7H83c-0.2,0-0.4-0.1-0.4-0.3l-0.2-1.5c-0.3,0.3-0.6,0.6-1,0.9s-0.7,0.5-1,0.6
				c-0.3,0.2-0.7,0.3-1.1,0.4c-0.4,0.1-0.8,0.1-1.3,0.1c-0.4,0-0.8-0.1-1.2-0.2s-0.7-0.3-1-0.5c-0.3-0.2-0.5-0.6-0.7-0.9
				s-0.3-0.8-0.3-1.4c0-0.5,0.1-1,0.4-1.4s0.7-0.8,1.3-1.1c0.6-0.3,1.4-0.6,2.4-0.8c1-0.2,2.1-0.3,3.4-0.3v-1.2
				c0-1.1-0.2-1.9-0.7-2.5c-0.5-0.6-1.2-0.9-2.1-0.9c-0.6,0-1.1,0.1-1.5,0.2c-0.4,0.2-0.7,0.3-1,0.5c-0.3,0.2-0.5,0.4-0.7,0.5
				c-0.2,0.2-0.3,0.2-0.4,0.2c-0.1,0-0.2,0-0.2-0.1c-0.1,0-0.1-0.1-0.1-0.2L75.4,252.3z M82.4,256.8c-1.1,0-2.1,0.1-2.9,0.3
				c-0.8,0.1-1.5,0.3-2,0.6c-0.5,0.2-0.9,0.5-1.2,0.9c-0.3,0.3-0.4,0.7-0.4,1.1c0,0.4,0.1,0.7,0.2,1s0.3,0.5,0.5,0.7
				s0.5,0.3,0.8,0.4c0.3,0.1,0.6,0.1,0.9,0.1c0.5,0,0.9,0,1.3-0.1c0.4-0.1,0.7-0.2,1.1-0.4c0.3-0.2,0.6-0.4,0.9-0.6
				c0.3-0.2,0.6-0.5,0.8-0.8V256.8z"/>
			<path class="st0" d="M89,246.6c0,0.1,0,0.3-0.1,0.4c-0.1,0.1-0.1,0.2-0.2,0.3c-0.1,0.1-0.2,0.2-0.3,0.2s-0.3,0.1-0.4,0.1
				c-0.1,0-0.3,0-0.4-0.1s-0.2-0.1-0.3-0.2c-0.1-0.1-0.2-0.2-0.2-0.3c-0.1-0.1-0.1-0.3-0.1-0.4c0-0.1,0-0.3,0.1-0.4
				c0.1-0.1,0.1-0.2,0.2-0.3c0.1-0.1,0.2-0.2,0.3-0.2c0.1-0.1,0.3-0.1,0.4-0.1c0.1,0,0.3,0,0.4,0.1c0.1,0.1,0.2,0.1,0.3,0.2
				c0.1,0.1,0.2,0.2,0.2,0.3S89,246.4,89,246.6z M88.5,250.6v11.8h-1.1v-11.8H88.5z"/>
			<path class="st0" d="M93.7,252.7c0.5-0.7,1.2-1.2,1.9-1.6c0.7-0.4,1.5-0.6,2.4-0.6c0.7,0,1.2,0.1,1.7,0.3
				c0.5,0.2,0.9,0.5,1.2,0.9s0.6,0.9,0.7,1.4c0.2,0.5,0.2,1.2,0.2,1.9v7.6h-1.1v-7.6c0-1.1-0.3-2-0.8-2.6s-1.3-0.9-2.3-0.9
				c-0.8,0-1.5,0.2-2.2,0.6c-0.7,0.4-1.3,0.9-1.8,1.6v8.9h-1.1v-11.8h0.6c0.2,0,0.3,0.1,0.3,0.3L93.7,252.7z"/>
			<path class="st0" d="M108.7,262.7c-0.8,0-1.4-0.2-1.9-0.7s-0.7-1.1-0.7-2.1v-8.1h-1.7c-0.1,0-0.2,0-0.2-0.1
				c-0.1,0-0.1-0.1-0.1-0.2v-0.4l2-0.1l0.3-4.2c0-0.1,0-0.1,0.1-0.2c0-0.1,0.1-0.1,0.2-0.1h0.5v4.5h3.7v0.8h-3.7v8
				c0,0.3,0,0.6,0.1,0.8s0.2,0.4,0.3,0.6c0.1,0.2,0.3,0.3,0.5,0.3c0.2,0.1,0.4,0.1,0.6,0.1c0.3,0,0.5,0,0.7-0.1
				c0.2-0.1,0.4-0.2,0.5-0.3c0.2-0.1,0.3-0.2,0.4-0.3c0.1-0.1,0.2-0.1,0.2-0.1c0.1,0,0.1,0,0.2,0.1l0.3,0.5
				c-0.3,0.3-0.7,0.6-1.1,0.8C109.7,262.6,109.2,262.7,108.7,262.7z"/>
			<path class="st0" d="M120.2,252.1c-0.1,0.1-0.2,0.2-0.3,0.2c-0.1,0-0.2,0-0.3-0.1s-0.3-0.2-0.5-0.3s-0.5-0.2-0.8-0.3
				c-0.3-0.1-0.7-0.1-1.2-0.1c-0.4,0-0.8,0.1-1.2,0.2c-0.4,0.1-0.7,0.3-0.9,0.5c-0.2,0.2-0.4,0.4-0.6,0.7c-0.1,0.3-0.2,0.6-0.2,0.9
				c0,0.4,0.1,0.7,0.3,0.9s0.4,0.5,0.7,0.6c0.3,0.2,0.7,0.3,1.1,0.5c0.4,0.1,0.8,0.3,1.2,0.4c0.4,0.1,0.8,0.3,1.2,0.4
				c0.4,0.2,0.7,0.3,1.1,0.6c0.3,0.2,0.6,0.5,0.7,0.8c0.2,0.3,0.3,0.7,0.3,1.2c0,0.5-0.1,1-0.3,1.4s-0.5,0.8-0.8,1.2
				s-0.8,0.6-1.3,0.8s-1.1,0.3-1.8,0.3c-0.8,0-1.6-0.1-2.2-0.4c-0.6-0.3-1.1-0.6-1.6-1l0.3-0.4c0-0.1,0.1-0.1,0.1-0.1
				c0.1,0,0.1,0,0.2,0c0.1,0,0.2,0.1,0.4,0.2c0.1,0.1,0.3,0.3,0.6,0.4s0.5,0.3,0.9,0.4c0.4,0.1,0.8,0.2,1.3,0.2
				c0.5,0,0.9-0.1,1.3-0.2c0.4-0.1,0.7-0.3,1-0.6c0.3-0.2,0.4-0.5,0.6-0.8c0.1-0.3,0.2-0.7,0.2-1c0-0.4-0.1-0.7-0.3-1
				c-0.2-0.3-0.4-0.5-0.8-0.7c-0.3-0.2-0.7-0.3-1.1-0.5s-0.8-0.3-1.2-0.4c-0.4-0.1-0.8-0.3-1.2-0.4s-0.7-0.3-1.1-0.6
				s-0.6-0.5-0.7-0.8c-0.2-0.3-0.3-0.7-0.3-1.2c0-0.4,0.1-0.8,0.3-1.2c0.2-0.4,0.4-0.7,0.8-1c0.3-0.3,0.7-0.5,1.2-0.7
				c0.5-0.2,1-0.3,1.6-0.3c0.7,0,1.4,0.1,1.9,0.3c0.6,0.2,1.1,0.5,1.5,1L120.2,252.1z"/>
			<path class="st0" d="M129.9,252.3c0.6-0.6,1.3-1.1,2-1.4c0.7-0.3,1.5-0.5,2.3-0.5c0.6,0,1.2,0.1,1.7,0.3c0.5,0.2,0.9,0.5,1.2,0.9
				s0.5,0.8,0.7,1.4c0.2,0.5,0.2,1.1,0.2,1.8v7.7h-0.5c-0.2,0-0.4-0.1-0.4-0.3l-0.2-1.5c-0.3,0.3-0.6,0.6-1,0.9s-0.7,0.5-1,0.6
				c-0.3,0.2-0.7,0.3-1.1,0.4c-0.4,0.1-0.8,0.1-1.3,0.1c-0.4,0-0.8-0.1-1.2-0.2s-0.7-0.3-1-0.5c-0.3-0.2-0.5-0.6-0.7-0.9
				s-0.3-0.8-0.3-1.4c0-0.5,0.1-1,0.4-1.4s0.7-0.8,1.3-1.1c0.6-0.3,1.4-0.6,2.4-0.8c1-0.2,2.1-0.3,3.4-0.3v-1.2
				c0-1.1-0.2-1.9-0.7-2.5c-0.5-0.6-1.2-0.9-2.1-0.9c-0.6,0-1.1,0.1-1.5,0.2c-0.4,0.2-0.7,0.3-1,0.5c-0.3,0.2-0.5,0.4-0.7,0.5
				c-0.2,0.2-0.3,0.2-0.4,0.2c-0.1,0-0.2,0-0.2-0.1c-0.1,0-0.1-0.1-0.1-0.2L129.9,252.3z M136.9,256.8c-1.1,0-2.1,0.1-2.9,0.3
				c-0.8,0.1-1.5,0.3-2,0.6c-0.5,0.2-0.9,0.5-1.2,0.9c-0.3,0.3-0.4,0.7-0.4,1.1c0,0.4,0.1,0.7,0.2,1s0.3,0.5,0.5,0.7
				s0.5,0.3,0.8,0.4c0.3,0.1,0.6,0.1,0.9,0.1c0.5,0,0.9,0,1.3-0.1c0.4-0.1,0.7-0.2,1.1-0.4c0.3-0.2,0.6-0.4,0.9-0.6
				c0.3-0.2,0.6-0.5,0.8-0.8V256.8z"/>
			<path class="st0" d="M142.9,252.7c0.5-0.7,1.1-1.2,1.8-1.6c0.7-0.4,1.5-0.6,2.4-0.6c0.7,0,1.4,0.1,1.9,0.4c0.6,0.3,1,0.6,1.4,1.1
				c0.4,0.5,0.7,1.1,0.9,1.8c0.2,0.7,0.3,1.5,0.3,2.4c0,1-0.1,1.8-0.3,2.6c-0.2,0.8-0.6,1.5-1,2c-0.4,0.6-1,1-1.6,1.3
				s-1.4,0.5-2.2,0.5c-0.8,0-1.6-0.2-2.1-0.5c-0.6-0.3-1.1-0.8-1.5-1.4l-0.1,1.5c0,0.2-0.1,0.3-0.3,0.3h-0.7v-17.3h1.1V252.7z
				 M142.9,259.9c0.5,0.7,1,1.2,1.5,1.4c0.6,0.3,1.2,0.4,1.9,0.4c0.7,0,1.3-0.1,1.9-0.4c0.5-0.3,1-0.6,1.3-1.1s0.6-1,0.8-1.7
				c0.2-0.7,0.3-1.4,0.3-2.3c0-1.6-0.3-2.9-1-3.7c-0.7-0.8-1.6-1.2-2.7-1.2c-0.8,0-1.6,0.2-2.2,0.6c-0.6,0.4-1.2,1-1.7,1.7V259.9z"
				/>
			<path class="st0" d="M159.6,250.5c0.8,0,1.6,0.1,2.3,0.4c0.7,0.3,1.2,0.7,1.7,1.2s0.8,1.2,1.1,1.9s0.4,1.6,0.4,2.5
				s-0.1,1.8-0.4,2.5s-0.6,1.4-1.1,1.9s-1,0.9-1.7,1.2c-0.7,0.3-1.4,0.4-2.3,0.4c-0.8,0-1.6-0.1-2.3-0.4c-0.7-0.3-1.2-0.7-1.7-1.2
				c-0.5-0.5-0.8-1.2-1.1-1.9c-0.2-0.7-0.4-1.6-0.4-2.5s0.1-1.8,0.4-2.5c0.2-0.8,0.6-1.4,1.1-1.9c0.5-0.5,1-0.9,1.7-1.2
				C157.9,250.6,158.7,250.5,159.6,250.5z M159.6,261.7c0.7,0,1.3-0.1,1.9-0.4c0.5-0.2,1-0.6,1.3-1s0.6-1,0.8-1.6
				c0.2-0.6,0.3-1.4,0.3-2.1c0-0.8-0.1-1.5-0.3-2.1c-0.2-0.6-0.4-1.2-0.8-1.6s-0.8-0.8-1.3-1.1c-0.5-0.2-1.1-0.4-1.9-0.4
				s-1.3,0.1-1.9,0.4c-0.5,0.2-1,0.6-1.3,1.1s-0.6,1-0.8,1.6c-0.2,0.6-0.3,1.4-0.3,2.1c0,0.8,0.1,1.5,0.3,2.1
				c0.2,0.6,0.4,1.2,0.8,1.6s0.8,0.8,1.3,1C158.2,261.6,158.9,261.7,159.6,261.7z"/>
			<path class="st0" d="M177.3,250.6v11.8h-0.6c-0.2,0-0.3-0.1-0.3-0.3l-0.1-1.8c-0.5,0.7-1.2,1.2-1.9,1.6c-0.7,0.4-1.5,0.6-2.4,0.6
				c-0.7,0-1.2-0.1-1.7-0.3c-0.5-0.2-0.9-0.5-1.2-0.9c-0.3-0.4-0.6-0.9-0.7-1.4c-0.2-0.5-0.2-1.2-0.2-1.9v-7.6h1.1v7.6
				c0,1.1,0.3,2,0.8,2.6s1.3,0.9,2.3,0.9c0.8,0,1.5-0.2,2.2-0.6c0.7-0.4,1.3-0.9,1.8-1.6v-8.9H177.3z"/>
			<path class="st0" d="M184.5,262.7c-0.8,0-1.4-0.2-1.9-0.7s-0.7-1.1-0.7-2.1v-8.1h-1.7c-0.1,0-0.2,0-0.2-0.1
				c-0.1,0-0.1-0.1-0.1-0.2v-0.4l2-0.1l0.3-4.2c0-0.1,0-0.1,0.1-0.2c0-0.1,0.1-0.1,0.2-0.1h0.5v4.5h3.7v0.8h-3.7v8
				c0,0.3,0,0.6,0.1,0.8s0.2,0.4,0.3,0.6c0.1,0.2,0.3,0.3,0.5,0.3c0.2,0.1,0.4,0.1,0.6,0.1c0.3,0,0.5,0,0.7-0.1
				c0.2-0.1,0.4-0.2,0.5-0.3c0.2-0.1,0.3-0.2,0.4-0.3c0.1-0.1,0.2-0.1,0.2-0.1c0.1,0,0.1,0,0.2,0.1l0.3,0.5
				c-0.3,0.3-0.7,0.6-1.1,0.8C185.4,262.6,185,262.7,184.5,262.7z"/>
			<path class="st0" d="M54.8,280.2c0,0-0.1,0.1-0.1,0.1s-0.1,0-0.1,0c-0.1,0-0.2-0.1-0.3-0.2c-0.1-0.1-0.3-0.2-0.5-0.4
				s-0.5-0.2-0.9-0.4s-0.8-0.2-1.3-0.2c-0.7,0-1.3,0.1-1.8,0.4c-0.5,0.2-1,0.6-1.3,1c-0.4,0.5-0.6,1-0.8,1.6
				c-0.2,0.6-0.3,1.4-0.3,2.2c0,0.8,0.1,1.6,0.3,2.2s0.5,1.2,0.8,1.6s0.8,0.8,1.3,1c0.5,0.2,1.1,0.3,1.7,0.3c0.6,0,1-0.1,1.4-0.2
				s0.7-0.3,1-0.4s0.4-0.3,0.6-0.4c0.1-0.1,0.3-0.2,0.4-0.2s0.2,0,0.2,0.1l0.3,0.4c-0.2,0.2-0.4,0.5-0.7,0.7
				c-0.3,0.2-0.6,0.4-0.9,0.5c-0.3,0.2-0.7,0.3-1.1,0.4c-0.4,0.1-0.8,0.1-1.3,0.1c-0.8,0-1.4-0.1-2.1-0.4c-0.6-0.3-1.2-0.7-1.6-1.2
				s-0.8-1.2-1-1.9c-0.2-0.8-0.4-1.6-0.4-2.6c0-0.9,0.1-1.7,0.4-2.5c0.2-0.7,0.6-1.4,1-1.9c0.5-0.5,1-1,1.7-1.3
				c0.7-0.3,1.4-0.4,2.3-0.4c0.8,0,1.5,0.1,2,0.4c0.6,0.2,1.1,0.6,1.6,1L54.8,280.2z"/>
			<path class="st0" d="M57.7,280.3c0.6-0.6,1.3-1.1,2-1.4c0.7-0.3,1.5-0.5,2.3-0.5c0.6,0,1.2,0.1,1.7,0.3c0.5,0.2,0.9,0.5,1.2,0.9
				s0.5,0.8,0.7,1.4c0.2,0.5,0.2,1.1,0.2,1.8v7.7h-0.5c-0.2,0-0.4-0.1-0.4-0.3l-0.2-1.5c-0.3,0.3-0.6,0.6-1,0.9s-0.7,0.5-1,0.6
				c-0.3,0.2-0.7,0.3-1.1,0.4c-0.4,0.1-0.8,0.1-1.3,0.1c-0.4,0-0.8-0.1-1.2-0.2s-0.7-0.3-1-0.5c-0.3-0.2-0.5-0.6-0.7-0.9
				s-0.3-0.8-0.3-1.4c0-0.5,0.1-1,0.4-1.4s0.7-0.8,1.3-1.1c0.6-0.3,1.4-0.6,2.4-0.8c1-0.2,2.1-0.3,3.4-0.3v-1.2
				c0-1.1-0.2-1.9-0.7-2.5c-0.5-0.6-1.2-0.9-2.1-0.9c-0.6,0-1.1,0.1-1.5,0.2c-0.4,0.2-0.7,0.3-1,0.5c-0.3,0.2-0.5,0.4-0.7,0.5
				c-0.2,0.2-0.3,0.2-0.4,0.2c-0.1,0-0.2,0-0.2-0.1c-0.1,0-0.1-0.1-0.1-0.2L57.7,280.3z M64.6,284.8c-1.1,0-2.1,0.1-2.9,0.3
				c-0.8,0.1-1.5,0.3-2,0.6c-0.5,0.2-0.9,0.5-1.2,0.9c-0.3,0.3-0.4,0.7-0.4,1.1c0,0.4,0.1,0.7,0.2,1s0.3,0.5,0.5,0.7
				s0.5,0.3,0.8,0.4c0.3,0.1,0.6,0.1,0.9,0.1c0.5,0,0.9,0,1.3-0.1c0.4-0.1,0.7-0.2,1.1-0.4c0.3-0.2,0.6-0.4,0.9-0.6
				c0.3-0.2,0.6-0.5,0.8-0.8V284.8z"/>
			<path class="st0" d="M70.7,280.7c0.5-0.7,1.1-1.2,1.8-1.6c0.7-0.4,1.5-0.6,2.4-0.6c0.7,0,1.4,0.1,1.9,0.4c0.6,0.3,1,0.6,1.4,1.1
				c0.4,0.5,0.7,1.1,0.9,1.8c0.2,0.7,0.3,1.5,0.3,2.4c0,1-0.1,1.8-0.3,2.6c-0.2,0.8-0.6,1.5-1,2c-0.4,0.6-1,1-1.6,1.3
				s-1.4,0.5-2.2,0.5c-0.8,0-1.6-0.2-2.1-0.5c-0.6-0.3-1.1-0.8-1.5-1.4l-0.1,1.5c0,0.2-0.1,0.3-0.3,0.3h-0.7v-17.3h1.1V280.7z
				 M70.7,287.9c0.5,0.7,1,1.2,1.5,1.4c0.6,0.3,1.2,0.4,1.9,0.4c0.7,0,1.3-0.1,1.9-0.4c0.5-0.3,1-0.6,1.3-1.1s0.6-1,0.8-1.7
				c0.2-0.7,0.3-1.4,0.3-2.3c0-1.6-0.3-2.9-1-3.7c-0.7-0.8-1.6-1.2-2.7-1.2c-0.8,0-1.6,0.2-2.2,0.6c-0.6,0.4-1.2,1-1.7,1.7V287.9z"
				/>
			<path class="st0" d="M84.4,274.6c0,0.1,0,0.3-0.1,0.4c-0.1,0.1-0.1,0.2-0.2,0.3c-0.1,0.1-0.2,0.2-0.3,0.2s-0.3,0.1-0.4,0.1
				c-0.1,0-0.3,0-0.4-0.1s-0.2-0.1-0.3-0.2c-0.1-0.1-0.2-0.2-0.2-0.3c-0.1-0.1-0.1-0.3-0.1-0.4c0-0.1,0-0.3,0.1-0.4
				c0.1-0.1,0.1-0.2,0.2-0.3c0.1-0.1,0.2-0.2,0.3-0.2c0.1-0.1,0.3-0.1,0.4-0.1c0.1,0,0.3,0,0.4,0.1c0.1,0.1,0.2,0.1,0.3,0.2
				c0.1,0.1,0.2,0.2,0.2,0.3S84.4,274.4,84.4,274.6z M83.9,278.6v11.8h-1.1v-11.8H83.9z"/>
			<path class="st0" d="M89,280.7c0.5-0.7,1.2-1.2,1.9-1.6c0.7-0.4,1.5-0.6,2.4-0.6c0.7,0,1.2,0.1,1.7,0.3c0.5,0.2,0.9,0.5,1.2,0.9
				s0.6,0.9,0.7,1.4c0.2,0.5,0.2,1.2,0.2,1.9v7.6h-1.1v-7.6c0-1.1-0.3-2-0.8-2.6s-1.3-0.9-2.3-0.9c-0.8,0-1.5,0.2-2.2,0.6
				c-0.7,0.4-1.3,0.9-1.8,1.6v8.9h-1.1v-11.8h0.6c0.2,0,0.3,0.1,0.3,0.3L89,280.7z"/>
			<path class="st0" d="M115.5,280.2c0,0-0.1,0.1-0.1,0.1s-0.1,0-0.1,0c-0.1,0-0.2-0.1-0.3-0.2c-0.1-0.1-0.3-0.2-0.5-0.4
				s-0.5-0.2-0.9-0.4s-0.8-0.2-1.3-0.2c-0.7,0-1.3,0.1-1.8,0.4c-0.5,0.2-1,0.6-1.3,1c-0.4,0.5-0.6,1-0.8,1.6
				c-0.2,0.6-0.3,1.4-0.3,2.2c0,0.8,0.1,1.6,0.3,2.2s0.5,1.2,0.8,1.6s0.8,0.8,1.3,1c0.5,0.2,1.1,0.3,1.7,0.3c0.6,0,1-0.1,1.4-0.2
				s0.7-0.3,1-0.4s0.4-0.3,0.6-0.4c0.1-0.1,0.3-0.2,0.4-0.2s0.2,0,0.2,0.1l0.3,0.4c-0.2,0.2-0.4,0.5-0.7,0.7
				c-0.3,0.2-0.6,0.4-0.9,0.5c-0.3,0.2-0.7,0.3-1.1,0.4c-0.4,0.1-0.8,0.1-1.3,0.1c-0.8,0-1.4-0.1-2.1-0.4c-0.6-0.3-1.2-0.7-1.6-1.2
				s-0.8-1.2-1-1.9c-0.2-0.8-0.4-1.6-0.4-2.6c0-0.9,0.1-1.7,0.4-2.5c0.2-0.7,0.6-1.4,1-1.9c0.5-0.5,1-1,1.7-1.3
				c0.7-0.3,1.4-0.4,2.3-0.4c0.8,0,1.5,0.1,2,0.4c0.6,0.2,1.1,0.6,1.6,1L115.5,280.2z"/>
			<path class="st0" d="M119.8,281.5c0.2-0.5,0.4-0.9,0.6-1.3c0.2-0.4,0.5-0.7,0.8-1c0.3-0.3,0.6-0.5,1-0.6c0.4-0.1,0.8-0.2,1.3-0.2
				c0.2,0,0.5,0,0.7,0.1c0.2,0,0.4,0.1,0.6,0.2l-0.1,0.8c0,0.1-0.1,0.2-0.2,0.2c-0.1,0-0.2,0-0.4-0.1c-0.2-0.1-0.5-0.1-0.8-0.1
				c-0.5,0-0.9,0.1-1.2,0.2s-0.7,0.3-1,0.6c-0.3,0.3-0.5,0.6-0.7,1c-0.2,0.4-0.4,0.9-0.6,1.4v7.7h-1.1v-11.8h0.6
				c0.1,0,0.2,0,0.3,0.1c0.1,0.1,0.1,0.2,0.1,0.3L119.8,281.5z"/>
			<path class="st0" d="M126.9,284.1v0.2c0,0.9,0.1,1.7,0.3,2.3c0.2,0.7,0.5,1.2,0.9,1.7c0.4,0.5,0.8,0.8,1.4,1
				c0.5,0.2,1.1,0.3,1.8,0.3c0.6,0,1.1-0.1,1.5-0.2c0.4-0.1,0.8-0.3,1.1-0.4s0.5-0.3,0.7-0.4c0.2-0.1,0.3-0.2,0.4-0.2
				c0.1,0,0.2,0,0.2,0.1l0.3,0.4c-0.2,0.2-0.4,0.5-0.8,0.7c-0.3,0.2-0.7,0.4-1,0.5c-0.4,0.1-0.8,0.3-1.2,0.4
				c-0.4,0.1-0.9,0.1-1.3,0.1c-0.8,0-1.5-0.1-2.2-0.4c-0.7-0.3-1.2-0.7-1.7-1.2s-0.8-1.2-1.1-2c-0.3-0.8-0.4-1.7-0.4-2.7
				c0-0.8,0.1-1.6,0.4-2.4c0.2-0.7,0.6-1.3,1-1.9c0.5-0.5,1-0.9,1.7-1.2c0.7-0.3,1.4-0.4,2.3-0.4c0.7,0,1.3,0.1,1.9,0.3
				c0.6,0.2,1.1,0.6,1.5,1c0.4,0.4,0.8,1,1,1.6c0.2,0.6,0.4,1.4,0.4,2.2c0,0.2,0,0.3-0.1,0.4c0,0.1-0.1,0.1-0.2,0.1H126.9z
				 M134.8,283.4c0-0.6-0.1-1.2-0.3-1.7c-0.2-0.5-0.4-0.9-0.8-1.3s-0.7-0.6-1.2-0.8c-0.4-0.2-0.9-0.3-1.5-0.3
				c-0.6,0-1.2,0.1-1.6,0.3c-0.5,0.2-0.9,0.5-1.3,0.8s-0.6,0.8-0.9,1.3c-0.2,0.5-0.4,1.1-0.4,1.7H134.8z"/>
			<path class="st0" d="M154.5,278.6l-4,11.8h-0.8c-0.1,0-0.2-0.1-0.3-0.2l-3.2-9.6c0-0.1-0.1-0.2-0.1-0.4s-0.1-0.2-0.1-0.4
				c0,0.2-0.1,0.5-0.2,0.7l-3.3,9.6c0,0.2-0.1,0.2-0.3,0.2h-0.8l-4-11.8h0.9c0.1,0,0.2,0,0.3,0.1s0.1,0.1,0.1,0.2l3,9.3
				c0,0.2,0.1,0.4,0.1,0.5c0,0.2,0.1,0.3,0.1,0.5c0-0.2,0.1-0.3,0.1-0.5c0-0.2,0.1-0.3,0.2-0.5l3.2-9.4c0.1-0.2,0.2-0.3,0.3-0.3h0.5
				c0.2,0,0.3,0.1,0.3,0.3l3.1,9.4c0.1,0.2,0.1,0.4,0.2,0.5c0,0.2,0.1,0.3,0.1,0.5c0-0.2,0.1-0.3,0.1-0.5s0.1-0.3,0.1-0.5l3-9.3
				c0-0.1,0.1-0.2,0.2-0.2s0.2-0.1,0.2-0.1H154.5z"/>
		</g>
		<g>
			<defs>
				<path id="SVGID_5_" d="M110.5,17.9l-10.8,8.8l-10.8-8.8c-1.2-1-2.9-0.8-3.9,0.4c-1,1.2-0.8,3,0.4,4L99.7,34L114,22.3
					c0.7-0.6,1-1.4,1-2.2c0-0.6-0.2-1.3-0.6-1.8C113.4,17.1,111.7,16.9,110.5,17.9"/>
			</defs>
			<use xlink:href="#SVGID_5_"  style="overflow:visible;fill-rule:evenodd;clip-rule:evenodd;fill:#E63A2F;"/>
			<clipPath id="SVGID_6_">
				<use xlink:href="#SVGID_5_"  style="overflow:visible;"/>
			</clipPath>
			<g class="st4">
				<defs>
					<rect id="SVGID_7_" x="62.2" y="-917.9" width="3351" height="1024"/>
				</defs>
				<use xlink:href="#SVGID_7_"  style="overflow:visible;fill:#E63A2F;"/>
				<clipPath id="SVGID_8_">
					<use xlink:href="#SVGID_7_"  style="overflow:visible;"/>
				</clipPath>
				<g class="st5">
					<rect x="79.4" y="12.3" class="st6" width="40.6" height="26.8"/>
				</g>
			</g>
		</g>
		<g>
			<path class="st0" d="M78.1,109c1.2,0,2.2,0.3,2.9,1s1.1,1.6,1.1,2.7v6.7H40.5v-3.7c0-0.7,0.2-1.5,0.5-2.3
				c0.3-0.8,0.8-1.6,1.5-2.3l17.8-17.8c1.5-1.5,2.9-3,4-4.4c1.2-1.4,2.1-2.8,2.9-4.1c0.8-1.3,1.4-2.7,1.7-4.1
				c0.4-1.4,0.6-2.8,0.6-4.3c0-2.7-0.7-4.7-2.1-6.1c-1.4-1.4-3.3-2.1-5.8-2.1c-1.1,0-2.1,0.2-3,0.5C57.6,69,56.8,69.4,56,70
				c-0.7,0.6-1.4,1.2-1.9,1.9c-0.5,0.7-0.9,1.6-1.2,2.4c-0.5,1.4-1.2,2.3-2,2.8c-0.8,0.5-2,0.6-3.6,0.3l-6-1.1
				c0.4-2.9,1.3-5.5,2.5-7.7c1.2-2.2,2.7-4,4.6-5.5c1.8-1.5,3.9-2.6,6.2-3.3c2.3-0.7,4.9-1.1,7.6-1.1c2.8,0,5.4,0.4,7.8,1.3
				c2.3,0.8,4.3,2,6,3.5c1.7,1.5,2.9,3.3,3.8,5.4c0.9,2.1,1.4,4.5,1.4,7c0,2.2-0.3,4.2-1,6.1c-0.6,1.9-1.5,3.7-2.6,5.4
				c-1.1,1.7-2.4,3.3-3.8,4.9c-1.4,1.6-3,3.2-4.6,4.8l-12.7,13c1.4-0.4,2.8-0.7,4.2-1c1.4-0.2,2.7-0.4,3.9-0.4H78.1z"/>
			<path class="st0" d="M131.8,89.5c0,5.2-0.6,9.8-1.7,13.7c-1.1,3.9-2.7,7.1-4.7,9.6c-2,2.5-4.3,4.4-7.1,5.6
				c-2.7,1.2-5.6,1.8-8.8,1.8c-3.1,0-6.1-0.6-8.8-1.8c-2.7-1.2-5-3.1-7-5.6c-2-2.5-3.5-5.7-4.6-9.6c-1.1-3.9-1.7-8.4-1.7-13.7
				c0-5.2,0.6-9.8,1.7-13.6c1.1-3.8,2.7-7,4.6-9.6c2-2.5,4.3-4.4,7-5.6c2.7-1.2,5.6-1.8,8.8-1.8c3.1,0,6.1,0.6,8.8,1.8
				c2.7,1.2,5.1,3.1,7.1,5.6c2,2.5,3.5,5.7,4.7,9.6C131.2,79.7,131.8,84.2,131.8,89.5z M120,89.5c0-4.2-0.3-7.8-0.9-10.5
				c-0.6-2.8-1.4-4.9-2.3-6.5c-1-1.6-2.1-2.7-3.3-3.4c-1.3-0.6-2.5-1-3.9-1s-2.6,0.3-3.8,1s-2.3,1.8-3.3,3.4c-1,1.6-1.7,3.8-2.3,6.5
				c-0.6,2.8-0.9,6.3-0.9,10.5c0,4.3,0.3,7.8,0.9,10.6c0.6,2.8,1.3,4.9,2.3,6.5c1,1.6,2,2.7,3.3,3.4c1.2,0.6,2.5,1,3.8,1
				s2.6-0.3,3.9-1c1.3-0.6,2.4-1.8,3.3-3.4c1-1.6,1.7-3.8,2.3-6.5C119.7,97.2,120,93.7,120,89.5z"/>
			<path class="st0" d="M149.7,96.1c0,1.1-0.2,2.2-0.6,3.1c-0.4,0.9-0.9,1.7-1.6,2.4c-0.7,0.7-1.5,1.2-2.3,1.6
				c-0.9,0.4-1.8,0.5-2.7,0.5c-1.1,0-2-0.2-2.9-0.5c-0.9-0.4-1.6-0.9-2.3-1.6s-1.1-1.5-1.5-2.4c-0.4-0.9-0.5-2-0.5-3.1
				c0-1.2,0.2-2.3,0.5-3.2c0.4-1,0.9-1.8,1.5-2.4s1.4-1.2,2.3-1.6c0.9-0.4,1.8-0.6,2.9-0.6c1,0,2,0.2,2.9,0.6
				c0.9,0.4,1.7,0.9,2.3,1.6c0.6,0.7,1.1,1.5,1.5,2.4C149.5,93.8,149.7,94.9,149.7,96.1z M159.7,89.5c0.2-0.2,0.4-0.4,0.7-0.6
				c0.3-0.2,0.7-0.3,1.2-0.3h4.3l-23.1,30c-0.2,0.2-0.4,0.4-0.7,0.6c-0.3,0.2-0.6,0.2-1,0.2h-4.4L159.7,89.5z M145.2,96.1
				c0-0.8-0.1-1.4-0.2-1.9c-0.1-0.5-0.3-0.9-0.6-1.2c-0.2-0.3-0.5-0.5-0.9-0.7c-0.3-0.1-0.7-0.2-1.1-0.2c-0.4,0-0.7,0.1-1.1,0.2
				c-0.3,0.1-0.6,0.4-0.9,0.7c-0.2,0.3-0.4,0.7-0.6,1.2c-0.1,0.5-0.2,1.2-0.2,1.9c0,0.8,0.1,1.4,0.2,1.9c0.1,0.5,0.3,0.9,0.6,1.2
				c0.2,0.3,0.5,0.5,0.9,0.6c0.3,0.1,0.7,0.2,1.1,0.2c0.4,0,0.7-0.1,1.1-0.2c0.3-0.1,0.6-0.3,0.9-0.6c0.2-0.3,0.4-0.7,0.6-1.2
				C145.1,97.5,145.2,96.8,145.2,96.1z M167.3,112.2c0,1.1-0.2,2.2-0.6,3.1c-0.4,0.9-0.9,1.7-1.6,2.4c-0.7,0.7-1.5,1.2-2.3,1.6
				c-0.9,0.4-1.8,0.5-2.7,0.5c-1.1,0-2-0.2-2.9-0.5c-0.9-0.4-1.6-0.9-2.3-1.6s-1.1-1.5-1.5-2.4c-0.4-0.9-0.5-2-0.5-3.1
				c0-1.2,0.2-2.3,0.5-3.2c0.4-1,0.9-1.8,1.5-2.4s1.4-1.2,2.3-1.6c0.9-0.4,1.8-0.5,2.9-0.5c1,0,2,0.2,2.9,0.5
				c0.9,0.4,1.7,0.9,2.3,1.6c0.6,0.7,1.1,1.5,1.5,2.4C167.1,110,167.3,111,167.3,112.2z M162.7,112.2c0-0.8-0.1-1.4-0.2-1.9
				c-0.1-0.5-0.3-0.9-0.6-1.2c-0.2-0.3-0.5-0.5-0.9-0.7c-0.3-0.1-0.7-0.2-1.1-0.2c-0.4,0-0.7,0.1-1.1,0.2c-0.3,0.1-0.6,0.4-0.9,0.7
				c-0.2,0.3-0.4,0.7-0.6,1.2s-0.2,1.2-0.2,1.9c0,0.8,0.1,1.4,0.2,1.9c0.1,0.5,0.3,0.9,0.6,1.2c0.2,0.3,0.5,0.5,0.9,0.6
				c0.3,0.1,0.7,0.2,1.1,0.2c0.4,0,0.7-0.1,1.1-0.2c0.3-0.1,0.6-0.3,0.9-0.6s0.4-0.7,0.6-1.2C162.7,113.6,162.7,113,162.7,112.2z"/>
		</g>
		<g>
			<path class="st0" d="M99.7,173.5c-47.8,0-86.8-38.9-86.8-86.8S51.9,0,99.7,0c47.8,0,86.8,38.9,86.8,86.8S147.6,173.5,99.7,173.5z
				 M99.7,1C52.4,1,13.9,39.5,13.9,86.8s38.5,85.8,85.8,85.8s85.8-38.5,85.8-85.8S147,1,99.7,1z"/>
		</g>
	</g>
</g>
</svg>
