<?xml version="1.0" encoding="utf-8"?>
<!-- Generator: Adobe Illustrator 19.2.0, SVG Export Plug-In . SVG Version: 6.00 Build 0)  -->
<svg version="1.1" xmlns="http://www.w3.org/2000/svg" xmlns:xlink="http://www.w3.org/1999/xlink" x="0px" y="0px"
	 viewBox="0 0 200 302.9" style="enable-background:new 0 0 200 302.9;" xml:space="preserve">
<style type="text/css">
	.st0{fill:#1E2D33;}
	.st1{clip-path:url(#SVGID_2_);}
	.st2{clip-path:url(#SVGID_4_);fill:#E63A2F;}
	.st3{fill:none;stroke:#1E2D33;stroke-miterlimit:10;}
	.st4{clip-path:url(#SVGID_6_);}
	.st5{clip-path:url(#SVGID_8_);}
	.st6{fill:#E63A2F;}
</style>
<g id="Layer_1">
</g>
<g id="Layer_2">
	<rect x="-1537.8" y="610.6" style="fill:none;" width="221.3" height="226.2"/>
	<text transform="matrix(1 0 0 1 -1488.7961 627.9839)"><tspan x="0" y="0" class="st0" style="font-family:'Lato-Light'; font-size:23.8003px;">reduction in </tspan><tspan x="-26.3" y="28" class="st0" style="font-family:'Lato-Light'; font-size:23.8003px;">complaints about </tspan><tspan x="6.2" y="56" class="st0" style="font-family:'Lato-Light'; font-size:23.8003px;">cabin crew</tspan></text>
	<g>
		<defs>
			<path id="SVGID_1_" d="M-1416.4,411.4l-10.8,8.8l-10.8-8.8c-1.2-1-2.9-0.8-3.9,0.4c-1,1.2-0.8,3,0.4,4l14.3,11.7l14.3-11.7
				c0.7-0.6,1-1.4,1-2.2c0-0.6-0.2-1.3-0.6-1.8C-1413.4,410.6-1415.2,410.4-1416.4,411.4"/>
		</defs>
		<use xlink:href="#SVGID_1_"  style="overflow:visible;fill-rule:evenodd;clip-rule:evenodd;fill:#E63A2F;"/>
		<clipPath id="SVGID_2_">
			<use xlink:href="#SVGID_1_"  style="overflow:visible;"/>
		</clipPath>
		<g class="st1">
			<defs>
				<rect id="SVGID_3_" x="-1464.7" y="-524.4" width="3351" height="1024"/>
			</defs>
			<use xlink:href="#SVGID_3_"  style="overflow:visible;fill:#E63A2F;"/>
			<clipPath id="SVGID_4_">
				<use xlink:href="#SVGID_3_"  style="overflow:visible;"/>
			</clipPath>
			<rect x="-1447.4" y="405.8" class="st2" width="40.6" height="26.8"/>
		</g>
	</g>
	<text transform="matrix(1 0 0 1 -1489.2404 512.9984)"><tspan x="0" y="0" class="st0" style="font-family:'Lato-Heavy'; font-size:82.7683px;">20</tspan><tspan x="96" y="0" class="st0" style="font-family:'Lato-Heavy'; font-size:42.562px;">%</tspan></text>
	<circle class="st3" cx="-1427.1" cy="480.3" r="86.3"/>
	<g>
		<g>
			<defs>
				<path id="SVGID_5_" d="M89,33.4l10.8-8.8l10.8,8.8c1.2,1,2.9,0.8,3.9-0.4c1-1.2,0.8-3-0.4-4L99.8,17.3L85.5,29
					c-0.7,0.6-1,1.4-1,2.2c0,0.6,0.2,1.3,0.6,1.8C86,34.2,87.8,34.4,89,33.4"/>
			</defs>
			<use xlink:href="#SVGID_5_"  style="overflow:visible;fill-rule:evenodd;clip-rule:evenodd;fill:#E63A2F;"/>
			<clipPath id="SVGID_6_">
				<use xlink:href="#SVGID_5_"  style="overflow:visible;"/>
			</clipPath>
			<g class="st4">
				<defs>
					<rect id="SVGID_7_" x="-3213.7" y="-54.8" width="3351" height="1024"/>
				</defs>
				<use xlink:href="#SVGID_7_"  style="overflow:visible;fill:#E63A2F;"/>
				<clipPath id="SVGID_8_">
					<use xlink:href="#SVGID_7_"  style="overflow:visible;"/>
				</clipPath>
				<g class="st5">
					<rect x="79.5" y="12.3" class="st6" width="40.6" height="26.8"/>
				</g>
			</g>
		</g>
		<g>
			<path class="st0" d="M95,111.1v8.4H61.3v-8.4h11.9V78.2c0-0.7,0-1.4,0-2.2s0.1-1.5,0.1-2.3l-7.9,6.5c-0.6,0.4-1.1,0.7-1.6,0.8
				c-0.5,0.1-1,0.1-1.5,0s-0.9-0.3-1.2-0.5c-0.4-0.2-0.6-0.5-0.8-0.7L56.7,75l18.5-15.6h9.4v51.7H95z"/>
			<path class="st0" d="M119.8,94.5c-0.2,0.3-0.4,0.6-0.6,0.7c-0.2,0.1-0.5,0.2-0.8,0.2c-0.3,0-0.6-0.1-1-0.3
				c-0.4-0.2-0.8-0.5-1.3-0.7c-0.5-0.3-1-0.5-1.7-0.7c-0.6-0.2-1.4-0.3-2.2-0.3c-1.5,0-2.6,0.3-3.3,1c-0.7,0.7-1.1,1.5-1.1,2.6
				c0,0.7,0.2,1.2,0.6,1.7s0.9,0.8,1.6,1.2c0.7,0.3,1.4,0.6,2.2,0.9c0.8,0.3,1.7,0.5,2.6,0.8s1.7,0.7,2.6,1.1
				c0.8,0.4,1.6,0.9,2.2,1.6c0.7,0.6,1.2,1.4,1.6,2.3s0.6,2,0.6,3.3c0,1.4-0.2,2.7-0.7,3.9c-0.5,1.2-1.2,2.3-2.1,3.2
				c-0.9,0.9-2.1,1.6-3.4,2.2c-1.4,0.5-2.9,0.8-4.6,0.8c-1,0-2-0.1-2.9-0.3c-1-0.2-1.9-0.5-2.8-0.8c-0.9-0.4-1.7-0.8-2.5-1.3
				c-0.8-0.5-1.5-1-2.1-1.7l1.9-3c0.2-0.2,0.4-0.4,0.6-0.6c0.3-0.1,0.5-0.2,0.8-0.2c0.4,0,0.8,0.1,1.2,0.4c0.4,0.3,0.9,0.6,1.5,0.9
				c0.6,0.3,1.2,0.7,1.9,0.9c0.7,0.3,1.6,0.4,2.6,0.4c1.5,0,2.6-0.3,3.5-1s1.2-1.7,1.2-3c0-0.8-0.2-1.4-0.6-1.9
				c-0.4-0.5-0.9-0.9-1.6-1.2c-0.7-0.3-1.4-0.6-2.2-0.8c-0.8-0.2-1.7-0.5-2.6-0.8c-0.9-0.3-1.7-0.6-2.6-1c-0.8-0.4-1.6-0.9-2.2-1.6
				c-0.7-0.7-1.2-1.5-1.6-2.4s-0.6-2.2-0.6-3.6c0-1.1,0.2-2.3,0.7-3.3c0.5-1.1,1.1-2,2-2.9c0.9-0.8,2-1.5,3.2-2s2.8-0.8,4.4-0.8
				c1.9,0,3.6,0.3,5.2,0.9c1.6,0.6,2.9,1.4,4,2.4L119.8,94.5z"/>
			<path class="st0" d="M148.4,93.8h-9v25.7H133V93.8h-9v-5.2h24.5V93.8z"/>
		</g>
		<g>
			<path class="st0" d="M99.8,173.5c-47.8,0-86.8-38.9-86.8-86.8S51.9,0,99.8,0s86.8,38.9,86.8,86.8S147.6,173.5,99.8,173.5z
				 M99.8,1C52.5,1,14,39.5,14,86.8s38.5,85.8,85.8,85.8s85.8-38.5,85.8-85.8S147.1,1,99.8,1z"/>
		</g>
		<g>
			<path class="st0" d="M5,234.5v-11.8h0.6c0.2,0,0.3,0.1,0.3,0.3l0.1,1.7c0.5-0.7,1-1.2,1.6-1.6c0.6-0.4,1.3-0.6,2-0.6
				c0.9,0,1.6,0.2,2.1,0.8c0.5,0.5,0.9,1.2,1.1,2.1c0.1-0.5,0.3-0.9,0.6-1.3s0.6-0.7,0.9-0.9c0.3-0.2,0.7-0.4,1.1-0.5
				s0.8-0.2,1.2-0.2c0.6,0,1.1,0.1,1.6,0.3c0.5,0.2,0.9,0.5,1.2,0.9s0.6,0.8,0.8,1.4c0.2,0.6,0.3,1.2,0.3,1.9v7.6h-1.1v-7.6
				c0-1.2-0.2-2-0.8-2.6s-1.2-0.9-2.1-0.9c-0.4,0-0.8,0.1-1.2,0.2c-0.4,0.2-0.7,0.4-1,0.7c-0.3,0.3-0.5,0.7-0.7,1.1
				c-0.2,0.4-0.3,1-0.3,1.5v7.6h-1.1v-7.6c0-1.2-0.2-2-0.7-2.6s-1.1-0.9-2-0.9c-0.6,0-1.2,0.2-1.8,0.6c-0.5,0.4-1,0.9-1.5,1.6v9H5z"
				/>
			<path class="st0" d="M28.8,222.5c0.8,0,1.6,0.1,2.3,0.4c0.7,0.3,1.2,0.7,1.7,1.2s0.8,1.2,1.1,1.9s0.4,1.6,0.4,2.5
				s-0.1,1.8-0.4,2.5s-0.6,1.4-1.1,1.9s-1,0.9-1.7,1.2c-0.7,0.3-1.4,0.4-2.3,0.4c-0.8,0-1.6-0.1-2.3-0.4c-0.7-0.3-1.2-0.7-1.7-1.2
				c-0.5-0.5-0.8-1.2-1.1-1.9c-0.2-0.7-0.4-1.6-0.4-2.5s0.1-1.8,0.4-2.5c0.2-0.8,0.6-1.4,1.1-1.9c0.5-0.5,1-0.9,1.7-1.2
				C27.2,222.6,28,222.5,28.8,222.5z M28.8,233.7c0.7,0,1.3-0.1,1.9-0.4s1-0.6,1.3-1c0.4-0.5,0.6-1,0.8-1.6s0.3-1.4,0.3-2.1
				c0-0.8-0.1-1.5-0.3-2.1s-0.4-1.2-0.8-1.6c-0.4-0.5-0.8-0.8-1.3-1.1s-1.1-0.4-1.9-0.4s-1.3,0.1-1.8,0.4c-0.5,0.2-1,0.6-1.3,1.1
				c-0.4,0.5-0.6,1-0.8,1.6c-0.2,0.6-0.3,1.4-0.3,2.1c0,0.8,0.1,1.5,0.3,2.1c0.2,0.6,0.4,1.2,0.8,1.6c0.4,0.5,0.8,0.8,1.3,1
				C27.5,233.6,28.1,233.7,28.8,233.7z"/>
			<path class="st0" d="M46.7,222.6l-5,11.8h-1l-5-11.8h0.9c0.1,0,0.2,0,0.3,0.1s0.1,0.1,0.1,0.2l3.9,9.3c0.1,0.3,0.2,0.7,0.3,1
				c0.1-0.3,0.2-0.7,0.3-1l3.9-9.3c0-0.1,0.1-0.2,0.2-0.2s0.1-0.1,0.2-0.1H46.7z"/>
			<path class="st0" d="M49.2,228.1v0.2c0,0.9,0.1,1.7,0.3,2.3c0.2,0.7,0.5,1.2,0.9,1.7c0.4,0.5,0.8,0.8,1.4,1
				c0.5,0.2,1.1,0.3,1.8,0.3c0.6,0,1.1-0.1,1.5-0.2c0.4-0.1,0.8-0.3,1.1-0.4c0.3-0.2,0.5-0.3,0.7-0.4s0.3-0.2,0.4-0.2
				c0.1,0,0.2,0,0.2,0.1l0.3,0.4c-0.2,0.2-0.4,0.5-0.8,0.7c-0.3,0.2-0.7,0.4-1,0.5c-0.4,0.1-0.8,0.3-1.2,0.4
				c-0.4,0.1-0.9,0.1-1.3,0.1c-0.8,0-1.5-0.1-2.2-0.4c-0.7-0.3-1.2-0.7-1.7-1.2c-0.5-0.5-0.8-1.2-1.1-2c-0.3-0.8-0.4-1.7-0.4-2.7
				c0-0.8,0.1-1.6,0.4-2.4c0.2-0.7,0.6-1.3,1-1.9s1-0.9,1.7-1.2c0.7-0.3,1.4-0.4,2.3-0.4c0.7,0,1.3,0.1,1.9,0.3
				c0.6,0.2,1.1,0.6,1.5,1c0.4,0.4,0.8,1,1,1.6s0.4,1.4,0.4,2.2c0,0.2,0,0.3-0.1,0.4c0,0.1-0.1,0.1-0.2,0.1H49.2z M57.1,227.4
				c0-0.6-0.1-1.2-0.3-1.7c-0.2-0.5-0.4-0.9-0.8-1.3s-0.7-0.6-1.2-0.8c-0.4-0.2-0.9-0.3-1.5-0.3c-0.6,0-1.2,0.1-1.6,0.3
				c-0.5,0.2-0.9,0.5-1.3,0.8c-0.4,0.4-0.6,0.8-0.9,1.3s-0.4,1.1-0.4,1.7H57.1z"/>
			<path class="st0" d="M70.4,217.2v17.3h-0.6c-0.2,0-0.3-0.1-0.4-0.3l-0.1-1.9c-0.5,0.7-1.1,1.3-1.8,1.7c-0.7,0.4-1.5,0.6-2.4,0.6
				c-1.5,0-2.6-0.5-3.4-1.5s-1.2-2.5-1.2-4.5c0-0.9,0.1-1.7,0.3-2.4c0.2-0.8,0.6-1.4,1-2c0.4-0.6,1-1,1.6-1.3s1.4-0.5,2.2-0.5
				c0.8,0,1.5,0.1,2.1,0.4c0.6,0.3,1.1,0.7,1.5,1.3v-7H70.4z M69.3,225.2c-0.5-0.7-1-1.2-1.5-1.4c-0.6-0.3-1.2-0.4-1.9-0.4
				c-0.7,0-1.3,0.1-1.8,0.4s-1,0.6-1.3,1.1c-0.4,0.5-0.6,1-0.8,1.7c-0.2,0.6-0.3,1.4-0.3,2.1c0,1.8,0.3,3.1,1,3.9
				c0.6,0.8,1.6,1.2,2.8,1.2c0.8,0,1.5-0.2,2.1-0.6s1.2-1,1.7-1.7V225.2z"/>
			<path class="st0" d="M81.5,234.5v-10.6l-1.7-0.1c-0.2,0-0.3-0.1-0.3-0.3V223h2v-1.5c0-0.7,0.1-1.3,0.3-1.8
				c0.2-0.5,0.4-0.9,0.7-1.3c0.3-0.3,0.7-0.6,1.1-0.8c0.4-0.2,0.9-0.3,1.5-0.3c0.2,0,0.5,0,0.7,0.1c0.2,0,0.5,0.1,0.7,0.2l0,0.5
				c0,0.1,0,0.1-0.1,0.1c-0.1,0-0.1,0-0.2,0c-0.1,0-0.2,0-0.4,0c-0.2,0-0.3,0-0.5,0c-0.4,0-0.7,0.1-1.1,0.2s-0.6,0.3-0.9,0.6
				s-0.4,0.6-0.6,1c-0.1,0.4-0.2,0.9-0.2,1.5v1.5h3.8v0.8h-3.8v10.6H81.5z"/>
			<path class="st0" d="M90,225.5c0.2-0.5,0.4-0.9,0.6-1.3c0.2-0.4,0.5-0.7,0.8-1s0.6-0.5,1-0.6c0.4-0.1,0.8-0.2,1.3-0.2
				c0.2,0,0.5,0,0.7,0.1c0.2,0,0.4,0.1,0.6,0.2l-0.1,0.8c0,0.1-0.1,0.2-0.2,0.2c-0.1,0-0.2,0-0.4-0.1c-0.2-0.1-0.5-0.1-0.8-0.1
				c-0.5,0-0.9,0.1-1.2,0.2c-0.4,0.1-0.7,0.3-1,0.6s-0.5,0.6-0.7,1c-0.2,0.4-0.4,0.9-0.6,1.4v7.7h-1.1v-11.8h0.6
				c0.1,0,0.2,0,0.3,0.1c0.1,0.1,0.1,0.2,0.1,0.3L90,225.5z"/>
			<path class="st0" d="M101.3,222.5c0.8,0,1.6,0.1,2.3,0.4c0.7,0.3,1.2,0.7,1.7,1.2s0.8,1.2,1.1,1.9s0.4,1.6,0.4,2.5
				s-0.1,1.8-0.4,2.5s-0.6,1.4-1.1,1.9s-1,0.9-1.7,1.2c-0.7,0.3-1.4,0.4-2.3,0.4c-0.8,0-1.6-0.1-2.3-0.4c-0.7-0.3-1.2-0.7-1.7-1.2
				c-0.5-0.5-0.8-1.2-1.1-1.9c-0.2-0.7-0.4-1.6-0.4-2.5s0.1-1.8,0.4-2.5c0.2-0.8,0.6-1.4,1.1-1.9c0.5-0.5,1-0.9,1.7-1.2
				C99.7,222.6,100.5,222.5,101.3,222.5z M101.3,233.7c0.7,0,1.3-0.1,1.9-0.4s1-0.6,1.3-1c0.4-0.5,0.6-1,0.8-1.6s0.3-1.4,0.3-2.1
				c0-0.8-0.1-1.5-0.3-2.1s-0.4-1.2-0.8-1.6c-0.4-0.5-0.8-0.8-1.3-1.1s-1.1-0.4-1.9-0.4s-1.3,0.1-1.8,0.4c-0.5,0.2-1,0.6-1.3,1.1
				c-0.4,0.5-0.6,1-0.8,1.6c-0.2,0.6-0.3,1.4-0.3,2.1c0,0.8,0.1,1.5,0.3,2.1c0.2,0.6,0.4,1.2,0.8,1.6c0.4,0.5,0.8,0.8,1.3,1
				C100,233.6,100.6,233.7,101.3,233.7z"/>
			<path class="st0" d="M109.9,234.5v-11.8h0.6c0.2,0,0.3,0.1,0.3,0.3l0.1,1.7c0.5-0.7,1-1.2,1.6-1.6c0.6-0.4,1.3-0.6,2-0.6
				c0.9,0,1.6,0.2,2.1,0.8c0.5,0.5,0.9,1.2,1.1,2.1c0.1-0.5,0.3-0.9,0.6-1.3s0.6-0.7,0.9-0.9c0.3-0.2,0.7-0.4,1.1-0.5
				s0.8-0.2,1.2-0.2c0.6,0,1.1,0.1,1.6,0.3c0.5,0.2,0.9,0.5,1.2,0.9s0.6,0.8,0.8,1.4c0.2,0.6,0.3,1.2,0.3,1.9v7.6h-1.1v-7.6
				c0-1.2-0.2-2-0.8-2.6c-0.5-0.6-1.2-0.9-2.1-0.9c-0.4,0-0.8,0.1-1.2,0.2c-0.4,0.2-0.7,0.4-1,0.7c-0.3,0.3-0.5,0.7-0.7,1.1
				s-0.3,1-0.3,1.5v7.6H117v-7.6c0-1.2-0.2-2-0.7-2.6c-0.5-0.6-1.1-0.9-2-0.9c-0.6,0-1.2,0.2-1.8,0.6c-0.5,0.4-1,0.9-1.5,1.6v9
				H109.9z"/>
			<path class="st0" d="M138.5,224.2c-0.2,0.3-0.5,0.6-0.7,0.9c-0.2,0.3-0.4,0.6-0.6,0.8c0.5-0.5,1-0.9,1.7-1.1
				c0.6-0.3,1.3-0.4,2.1-0.4c0.7,0,1.4,0.1,2,0.4s1.1,0.6,1.6,1c0.4,0.4,0.8,1,1,1.6s0.4,1.3,0.4,2.1s-0.1,1.5-0.4,2.1
				c-0.3,0.6-0.7,1.2-1.1,1.7c-0.5,0.5-1.1,0.8-1.8,1.1s-1.4,0.4-2.2,0.4c-0.8,0-1.5-0.1-2.2-0.4s-1.2-0.6-1.7-1.1
				c-0.5-0.5-0.8-1.1-1.1-1.7c-0.3-0.7-0.4-1.5-0.4-2.3c0-0.7,0.2-1.4,0.5-2.2c0.3-0.8,0.9-1.8,1.6-2.8l4.6-6.2
				c0.1-0.2,0.3-0.3,0.6-0.3h1L138.5,224.2z M140.5,233.7c0.7,0,1.3-0.1,1.8-0.3c0.5-0.2,1-0.5,1.4-0.9s0.7-0.8,0.9-1.3
				s0.3-1.1,0.3-1.7c0-0.6-0.1-1.2-0.3-1.7c-0.2-0.5-0.5-1-0.9-1.3s-0.8-0.6-1.3-0.8c-0.5-0.2-1.1-0.3-1.7-0.3
				c-0.7,0-1.3,0.1-1.9,0.4c-0.6,0.2-1,0.6-1.4,0.9s-0.7,0.8-0.9,1.3c-0.2,0.5-0.3,1-0.3,1.5c0,0.6,0.1,1.2,0.3,1.7
				c0.2,0.5,0.5,1,0.8,1.4c0.4,0.4,0.8,0.7,1.3,0.9S139.8,233.7,140.5,233.7z"/>
			<path class="st0" d="M152.6,234.7c-0.8,0-1.4-0.2-1.9-0.7s-0.7-1.1-0.7-2.1v-8.1h-1.7c-0.1,0-0.2,0-0.2-0.1
				c-0.1,0-0.1-0.1-0.1-0.2v-0.4l2-0.1l0.3-4.2c0-0.1,0-0.1,0.1-0.2s0.1-0.1,0.2-0.1h0.5v4.5h3.7v0.8h-3.7v8c0,0.3,0,0.6,0.1,0.8
				c0.1,0.2,0.2,0.4,0.3,0.6c0.1,0.2,0.3,0.3,0.5,0.3c0.2,0.1,0.4,0.1,0.6,0.1c0.3,0,0.5,0,0.7-0.1s0.4-0.2,0.5-0.3
				c0.2-0.1,0.3-0.2,0.4-0.3c0.1-0.1,0.2-0.1,0.2-0.1c0.1,0,0.1,0,0.2,0.1l0.3,0.5c-0.3,0.3-0.7,0.6-1.1,0.8
				C153.6,234.6,153.1,234.7,152.6,234.7z"/>
			<path class="st0" d="M158.6,224.6c0.5-0.7,1.2-1.2,1.9-1.6c0.7-0.4,1.5-0.6,2.4-0.6c0.7,0,1.2,0.1,1.7,0.3
				c0.5,0.2,0.9,0.5,1.2,0.9s0.6,0.9,0.7,1.4c0.2,0.5,0.2,1.2,0.2,1.9v7.6h-1.1v-7.6c0-1.1-0.3-2-0.8-2.6s-1.3-0.9-2.3-0.9
				c-0.8,0-1.5,0.2-2.2,0.6c-0.7,0.4-1.3,0.9-1.8,1.6v8.9h-1.1v-17.3h1.1V224.6z"/>
			<path class="st0" d="M180.3,234.7c-0.8,0-1.4-0.2-1.9-0.7s-0.7-1.1-0.7-2.1v-8.1H176c-0.1,0-0.2,0-0.2-0.1
				c-0.1,0-0.1-0.1-0.1-0.2v-0.4l2-0.1l0.3-4.2c0-0.1,0-0.1,0.1-0.2s0.1-0.1,0.2-0.1h0.5v4.5h3.7v0.8h-3.7v8c0,0.3,0,0.6,0.1,0.8
				c0.1,0.2,0.2,0.4,0.3,0.6c0.1,0.2,0.3,0.3,0.5,0.3c0.2,0.1,0.4,0.1,0.6,0.1c0.3,0,0.5,0,0.7-0.1s0.4-0.2,0.5-0.3
				c0.2-0.1,0.3-0.2,0.4-0.3c0.1-0.1,0.2-0.1,0.2-0.1c0.1,0,0.1,0,0.2,0.1l0.3,0.5c-0.3,0.3-0.7,0.6-1.1,0.8
				C181.3,234.6,180.8,234.7,180.3,234.7z"/>
			<path class="st0" d="M189.9,222.5c0.8,0,1.6,0.1,2.3,0.4c0.7,0.3,1.2,0.7,1.7,1.2s0.8,1.2,1.1,1.9s0.4,1.6,0.4,2.5
				s-0.1,1.8-0.4,2.5s-0.6,1.4-1.1,1.9s-1,0.9-1.7,1.2c-0.7,0.3-1.4,0.4-2.3,0.4c-0.8,0-1.6-0.1-2.3-0.4c-0.7-0.3-1.2-0.7-1.7-1.2
				c-0.5-0.5-0.8-1.2-1.1-1.9c-0.2-0.7-0.4-1.6-0.4-2.5s0.1-1.8,0.4-2.5c0.2-0.8,0.6-1.4,1.1-1.9c0.5-0.5,1-0.9,1.7-1.2
				C188.2,222.6,189,222.5,189.9,222.5z M189.9,233.7c0.7,0,1.3-0.1,1.9-0.4s1-0.6,1.3-1c0.4-0.5,0.6-1,0.8-1.6s0.3-1.4,0.3-2.1
				c0-0.8-0.1-1.5-0.3-2.1s-0.4-1.2-0.8-1.6c-0.4-0.5-0.8-0.8-1.3-1.1s-1.1-0.4-1.9-0.4s-1.3,0.1-1.8,0.4c-0.5,0.2-1,0.6-1.3,1.1
				c-0.4,0.5-0.6,1-0.8,1.6c-0.2,0.6-0.3,1.4-0.3,2.1c0,0.8,0.1,1.5,0.3,2.1c0.2,0.6,0.4,1.2,0.8,1.6c0.4,0.5,0.8,0.8,1.3,1
				C188.5,233.6,189.1,233.7,189.9,233.7z"/>
			<path class="st0" d="M27,261.6v0.9h-8.7v-0.9h3.9v-13.7c0-0.3,0-0.6,0-0.9l-3.7,3.3c-0.1,0.1-0.2,0.1-0.3,0.1s-0.2-0.1-0.3-0.1
				l-0.3-0.5l4.9-4.3h0.9v16H27z"/>
			<path class="st0" d="M37.4,252.1c-0.1,0.1-0.2,0.2-0.3,0.2c-0.1,0-0.2,0-0.3-0.1s-0.3-0.2-0.5-0.3c-0.2-0.1-0.5-0.2-0.8-0.3
				c-0.3-0.1-0.7-0.1-1.2-0.1c-0.4,0-0.8,0.1-1.2,0.2c-0.4,0.1-0.7,0.3-0.9,0.5c-0.2,0.2-0.4,0.4-0.6,0.7c-0.1,0.3-0.2,0.6-0.2,0.9
				c0,0.4,0.1,0.7,0.3,0.9s0.4,0.5,0.7,0.6c0.3,0.2,0.7,0.3,1.1,0.5c0.4,0.1,0.8,0.3,1.2,0.4c0.4,0.1,0.8,0.3,1.2,0.4
				c0.4,0.2,0.7,0.3,1.1,0.6c0.3,0.2,0.6,0.5,0.7,0.8c0.2,0.3,0.3,0.7,0.3,1.2c0,0.5-0.1,1-0.3,1.4s-0.5,0.8-0.8,1.2
				c-0.4,0.3-0.8,0.6-1.3,0.8s-1.1,0.3-1.8,0.3c-0.8,0-1.6-0.1-2.2-0.4c-0.6-0.3-1.1-0.6-1.6-1l0.3-0.4c0-0.1,0.1-0.1,0.1-0.1
				c0.1,0,0.1,0,0.2,0c0.1,0,0.2,0.1,0.4,0.2c0.1,0.1,0.3,0.3,0.6,0.4s0.5,0.3,0.9,0.4s0.8,0.2,1.3,0.2c0.5,0,0.9-0.1,1.3-0.2
				c0.4-0.1,0.7-0.3,1-0.6c0.3-0.2,0.4-0.5,0.6-0.8c0.1-0.3,0.2-0.7,0.2-1c0-0.4-0.1-0.7-0.3-1s-0.4-0.5-0.8-0.7
				c-0.3-0.2-0.7-0.3-1.1-0.5s-0.8-0.3-1.2-0.4s-0.8-0.3-1.2-0.4s-0.7-0.3-1.1-0.6s-0.6-0.5-0.8-0.8s-0.3-0.7-0.3-1.2
				c0-0.4,0.1-0.8,0.3-1.2c0.2-0.4,0.4-0.7,0.8-1c0.3-0.3,0.7-0.5,1.2-0.7c0.5-0.2,1-0.3,1.6-0.3c0.7,0,1.4,0.1,1.9,0.3
				c0.6,0.2,1.1,0.5,1.5,1L37.4,252.1z"/>
			<path class="st0" d="M44.2,262.7c-0.8,0-1.4-0.2-1.9-0.7s-0.7-1.1-0.7-2.1v-8.1H40c-0.1,0-0.2,0-0.2-0.1c-0.1,0-0.1-0.1-0.1-0.2
				v-0.4l2-0.1l0.3-4.2c0-0.1,0-0.1,0.1-0.2s0.1-0.1,0.2-0.1h0.5v4.5h3.7v0.8h-3.7v8c0,0.3,0,0.6,0.1,0.8c0.1,0.2,0.2,0.4,0.3,0.6
				c0.1,0.2,0.3,0.3,0.5,0.3c0.2,0.1,0.4,0.1,0.6,0.1c0.3,0,0.5,0,0.7-0.1s0.4-0.2,0.5-0.3c0.2-0.1,0.3-0.2,0.4-0.3
				c0.1-0.1,0.2-0.1,0.2-0.1c0.1,0,0.1,0,0.2,0.1l0.3,0.5c-0.3,0.3-0.7,0.6-1.1,0.8C45.2,262.6,44.7,262.7,44.2,262.7z"/>
			<path class="st0" d="M56.7,252.8c0.5-0.7,1.1-1.3,1.8-1.7c0.7-0.4,1.5-0.6,2.4-0.6c1.5,0,2.6,0.5,3.4,1.5c0.8,1,1.2,2.5,1.2,4.5
				c0,0.9-0.1,1.7-0.3,2.4c-0.2,0.8-0.6,1.4-1,2c-0.4,0.6-1,1-1.6,1.3c-0.6,0.3-1.4,0.5-2.2,0.5c-0.8,0-1.5-0.1-2.1-0.4
				s-1.1-0.7-1.5-1.3v5.8h-1.1v-16h0.6c0.2,0,0.3,0.1,0.3,0.3L56.7,252.8z M56.8,259.9c0.2,0.3,0.5,0.6,0.7,0.9
				c0.2,0.2,0.5,0.4,0.8,0.6s0.6,0.3,0.9,0.3c0.3,0.1,0.6,0.1,1,0.1c0.7,0,1.3-0.1,1.8-0.4s1-0.6,1.3-1.1c0.4-0.5,0.6-1,0.8-1.7
				c0.2-0.6,0.3-1.4,0.3-2.1c0-1.8-0.3-3.1-1-3.9s-1.6-1.2-2.8-1.2c-0.8,0-1.5,0.2-2.1,0.6c-0.6,0.4-1.2,1-1.7,1.7V259.9z"/>
			<path class="st0" d="M70,245.2v17.3h-1.1v-17.3H70z"/>
			<path class="st0" d="M73.7,252.3c0.6-0.6,1.3-1.1,2-1.4s1.5-0.5,2.3-0.5c0.6,0,1.2,0.1,1.7,0.3c0.5,0.2,0.9,0.5,1.2,0.9
				s0.5,0.8,0.7,1.4c0.2,0.5,0.2,1.1,0.2,1.8v7.7h-0.5c-0.2,0-0.4-0.1-0.4-0.3l-0.2-1.5c-0.3,0.3-0.6,0.6-1,0.9s-0.7,0.5-1,0.6
				s-0.7,0.3-1.1,0.4c-0.4,0.1-0.8,0.1-1.3,0.1c-0.4,0-0.8-0.1-1.2-0.2s-0.7-0.3-1-0.5c-0.3-0.2-0.5-0.6-0.7-0.9s-0.3-0.8-0.3-1.4
				c0-0.5,0.1-1,0.4-1.4c0.3-0.4,0.7-0.8,1.3-1.1c0.6-0.3,1.4-0.6,2.3-0.8c1-0.2,2.1-0.3,3.4-0.3v-1.2c0-1.1-0.2-1.9-0.7-2.5
				c-0.5-0.6-1.2-0.9-2.1-0.9c-0.6,0-1.1,0.1-1.5,0.2c-0.4,0.2-0.7,0.3-1,0.5c-0.3,0.2-0.5,0.4-0.7,0.5s-0.3,0.2-0.4,0.2
				c-0.1,0-0.2,0-0.2-0.1c-0.1,0-0.1-0.1-0.1-0.2L73.7,252.3z M80.6,256.8c-1.1,0-2.1,0.1-2.9,0.3c-0.8,0.1-1.5,0.3-2,0.6
				c-0.5,0.2-0.9,0.5-1.2,0.9c-0.3,0.3-0.4,0.7-0.4,1.1c0,0.4,0.1,0.7,0.2,1s0.3,0.5,0.5,0.7c0.2,0.2,0.5,0.3,0.8,0.4
				c0.3,0.1,0.6,0.1,0.9,0.1c0.5,0,0.9,0,1.3-0.1c0.4-0.1,0.7-0.2,1.1-0.4c0.3-0.2,0.6-0.4,0.9-0.6s0.6-0.5,0.8-0.8V256.8z"/>
			<path class="st0" d="M93.5,252.2c0,0-0.1,0.1-0.1,0.1c0,0-0.1,0-0.1,0c-0.1,0-0.2-0.1-0.3-0.2c-0.1-0.1-0.3-0.2-0.5-0.4
				c-0.2-0.1-0.5-0.2-0.9-0.4c-0.3-0.1-0.8-0.2-1.3-0.2c-0.7,0-1.3,0.1-1.8,0.4c-0.5,0.2-1,0.6-1.3,1c-0.4,0.5-0.6,1-0.8,1.6
				c-0.2,0.6-0.3,1.4-0.3,2.2c0,0.8,0.1,1.6,0.3,2.2s0.5,1.2,0.8,1.6c0.4,0.4,0.8,0.8,1.3,1c0.5,0.2,1.1,0.3,1.7,0.3
				c0.6,0,1-0.1,1.4-0.2s0.7-0.3,1-0.4s0.4-0.3,0.6-0.4c0.1-0.1,0.3-0.2,0.4-0.2c0.1,0,0.2,0,0.2,0.1l0.3,0.4
				c-0.2,0.2-0.4,0.5-0.7,0.7c-0.3,0.2-0.6,0.4-0.9,0.5c-0.3,0.2-0.7,0.3-1.1,0.4c-0.4,0.1-0.8,0.1-1.3,0.1c-0.8,0-1.4-0.1-2.1-0.4
				c-0.6-0.3-1.2-0.7-1.6-1.2s-0.8-1.2-1-1.9c-0.2-0.8-0.4-1.6-0.4-2.6c0-0.9,0.1-1.7,0.4-2.5c0.2-0.7,0.6-1.4,1-1.9
				c0.5-0.5,1-1,1.7-1.3c0.7-0.3,1.4-0.4,2.3-0.4c0.8,0,1.5,0.1,2,0.4s1.1,0.6,1.6,1L93.5,252.2z"/>
			<path class="st0" d="M96.9,256.1v0.2c0,0.9,0.1,1.7,0.3,2.3s0.5,1.2,0.9,1.7c0.4,0.5,0.8,0.8,1.4,1c0.5,0.2,1.1,0.3,1.8,0.3
				c0.6,0,1.1-0.1,1.5-0.2c0.4-0.1,0.8-0.3,1.1-0.4c0.3-0.2,0.5-0.3,0.7-0.4c0.2-0.1,0.3-0.2,0.4-0.2c0.1,0,0.2,0,0.2,0.1l0.3,0.4
				c-0.2,0.2-0.4,0.5-0.8,0.7c-0.3,0.2-0.7,0.4-1,0.5c-0.4,0.1-0.8,0.3-1.2,0.4c-0.4,0.1-0.9,0.1-1.3,0.1c-0.8,0-1.5-0.1-2.2-0.4
				c-0.7-0.3-1.2-0.7-1.7-1.2c-0.5-0.5-0.8-1.2-1.1-2c-0.3-0.8-0.4-1.7-0.4-2.7c0-0.8,0.1-1.6,0.4-2.4c0.2-0.7,0.6-1.3,1-1.9
				c0.5-0.5,1-0.9,1.7-1.2c0.7-0.3,1.4-0.4,2.3-0.4c0.7,0,1.3,0.1,1.9,0.3c0.6,0.2,1.1,0.6,1.5,1s0.8,1,1,1.6
				c0.2,0.6,0.4,1.4,0.4,2.2c0,0.2,0,0.3-0.1,0.4c0,0.1-0.1,0.1-0.2,0.1H96.9z M104.8,255.4c0-0.6-0.1-1.2-0.3-1.7s-0.4-0.9-0.8-1.3
				s-0.7-0.6-1.2-0.8c-0.4-0.2-0.9-0.3-1.5-0.3c-0.6,0-1.2,0.1-1.6,0.3c-0.5,0.2-0.9,0.5-1.3,0.8c-0.4,0.4-0.6,0.8-0.9,1.3
				c-0.2,0.5-0.4,1.1-0.4,1.7H104.8z"/>
			<path class="st0" d="M117.1,246.6c0,0.1,0,0.3-0.1,0.4c-0.1,0.1-0.1,0.2-0.2,0.3c-0.1,0.1-0.2,0.2-0.3,0.2s-0.3,0.1-0.4,0.1
				s-0.3,0-0.4-0.1s-0.2-0.1-0.3-0.2c-0.1-0.1-0.2-0.2-0.2-0.3c-0.1-0.1-0.1-0.3-0.1-0.4c0-0.1,0-0.3,0.1-0.4s0.1-0.2,0.2-0.3
				c0.1-0.1,0.2-0.2,0.3-0.2c0.1-0.1,0.3-0.1,0.4-0.1s0.3,0,0.4,0.1c0.1,0.1,0.2,0.1,0.3,0.2c0.1,0.1,0.2,0.2,0.2,0.3
				S117.1,246.4,117.1,246.6z M116.6,250.6v11.8h-1.1v-11.8H116.6z"/>
			<path class="st0" d="M121.8,252.7c0.5-0.7,1.2-1.2,1.9-1.6c0.7-0.4,1.5-0.6,2.4-0.6c0.7,0,1.2,0.1,1.7,0.3
				c0.5,0.2,0.9,0.5,1.2,0.9s0.6,0.9,0.7,1.4c0.2,0.5,0.2,1.2,0.2,1.9v7.6h-1.1v-7.6c0-1.1-0.3-2-0.8-2.6s-1.3-0.9-2.3-0.9
				c-0.8,0-1.5,0.2-2.2,0.6c-0.7,0.4-1.3,0.9-1.8,1.6v8.9h-1.1v-11.8h0.6c0.2,0,0.3,0.1,0.3,0.3L121.8,252.7z"/>
			<path class="st0" d="M154.2,254.8v6c-0.8,0.6-1.7,1.1-2.7,1.4s-2,0.5-3.2,0.5c-1.3,0-2.5-0.2-3.6-0.6c-1.1-0.4-2-1-2.7-1.7
				c-0.7-0.8-1.3-1.7-1.7-2.7c-0.4-1.1-0.6-2.2-0.6-3.5s0.2-2.5,0.6-3.5c0.4-1.1,1-2,1.7-2.7c0.7-0.8,1.6-1.3,2.7-1.7
				c1-0.4,2.2-0.6,3.5-0.6c0.6,0,1.2,0,1.8,0.1c0.5,0.1,1,0.2,1.5,0.4c0.5,0.2,0.9,0.4,1.3,0.6c0.4,0.2,0.8,0.5,1.2,0.9l-0.3,0.5
				c-0.1,0.2-0.3,0.2-0.5,0.1c-0.1,0-0.3-0.2-0.5-0.3c-0.2-0.2-0.5-0.4-0.9-0.5c-0.4-0.2-0.9-0.4-1.4-0.5s-1.3-0.2-2.1-0.2
				c-1.1,0-2.1,0.2-3,0.5c-0.9,0.3-1.6,0.8-2.3,1.5c-0.6,0.7-1.1,1.4-1.4,2.4s-0.5,2-0.5,3.2c0,1.2,0.2,2.2,0.5,3.2
				c0.3,0.9,0.8,1.7,1.5,2.4c0.6,0.7,1.4,1.2,2.3,1.5s1.9,0.5,3.1,0.5c0.5,0,1,0,1.4-0.1c0.4-0.1,0.8-0.2,1.2-0.3
				c0.4-0.1,0.8-0.3,1.1-0.4c0.4-0.2,0.7-0.4,1.1-0.6v-4.5h-3.2c-0.1,0-0.2,0-0.2-0.1c-0.1-0.1-0.1-0.1-0.1-0.2v-0.7H154.2z"/>
			<path class="st0" d="M171,262.5h-0.9c-0.1,0-0.2,0-0.3-0.1s-0.1-0.1-0.2-0.2l-2-4.9h-8.3l-2,4.9c0,0.1-0.1,0.2-0.2,0.2
				s-0.2,0.1-0.3,0.1H156l6.9-16.8h1.2L171,262.5z M167.3,256.4l-3.4-8.5c-0.1-0.3-0.2-0.6-0.3-1c0,0.2-0.1,0.4-0.2,0.5
				c-0.1,0.2-0.1,0.3-0.2,0.5l-3.4,8.5H167.3z"/>
			<path class="st0" d="M178.1,245.6c2,0,3.5,0.4,4.5,1.3c1,0.9,1.5,2.1,1.5,3.7c0,0.7-0.1,1.4-0.4,2c-0.3,0.6-0.7,1.2-1.2,1.6
				c-0.5,0.4-1.1,0.8-1.9,1c-0.7,0.2-1.6,0.4-2.5,0.4H175v6.8h-1.2v-16.8H178.1z M178.1,254.7c0.7,0,1.4-0.1,2-0.3
				c0.6-0.2,1.1-0.5,1.5-0.9c0.4-0.4,0.7-0.8,0.9-1.3s0.3-1,0.3-1.6c0-1.3-0.4-2.3-1.2-3c-0.8-0.7-2-1-3.6-1H175v8.1H178.1z"/>
			<path class="st0" d="M3.3,274.6c0,0.1,0,0.3-0.1,0.4c-0.1,0.1-0.1,0.2-0.2,0.3c-0.1,0.1-0.2,0.2-0.3,0.2s-0.3,0.1-0.4,0.1
				s-0.3,0-0.4-0.1s-0.2-0.1-0.3-0.2c-0.1-0.1-0.2-0.2-0.2-0.3c-0.1-0.1-0.1-0.3-0.1-0.4c0-0.1,0-0.3,0.1-0.4s0.1-0.2,0.2-0.3
				c0.1-0.1,0.2-0.2,0.3-0.2c0.1-0.1,0.3-0.1,0.4-0.1s0.3,0,0.4,0.1c0.1,0.1,0.2,0.1,0.3,0.2c0.1,0.1,0.2,0.2,0.2,0.3
				S3.3,274.4,3.3,274.6z M2.8,278.6v11.8H1.7v-11.8H2.8z"/>
			<path class="st0" d="M8,280.7c0.5-0.7,1.2-1.2,1.9-1.6c0.7-0.4,1.5-0.6,2.4-0.6c0.7,0,1.2,0.1,1.7,0.3c0.5,0.2,0.9,0.5,1.2,0.9
				s0.6,0.9,0.7,1.4c0.2,0.5,0.2,1.2,0.2,1.9v7.6h-1.1v-7.6c0-1.1-0.3-2-0.8-2.6s-1.3-0.9-2.3-0.9c-0.8,0-1.5,0.2-2.2,0.6
				c-0.7,0.4-1.3,0.9-1.8,1.6v8.9H6.9v-11.8h0.6c0.2,0,0.3,0.1,0.3,0.3L8,280.7z"/>
			<path class="st0" d="M29.2,273.2v17.3h-0.6c-0.2,0-0.3-0.1-0.4-0.3l-0.1-1.9c-0.5,0.7-1.1,1.3-1.8,1.7c-0.7,0.4-1.5,0.6-2.4,0.6
				c-1.5,0-2.6-0.5-3.4-1.5s-1.2-2.5-1.2-4.5c0-0.9,0.1-1.7,0.3-2.4c0.2-0.8,0.6-1.4,1-2c0.4-0.6,1-1,1.6-1.3s1.4-0.5,2.2-0.5
				c0.8,0,1.5,0.1,2.1,0.4c0.6,0.3,1.1,0.7,1.5,1.3v-7H29.2z M28,281.2c-0.5-0.7-1-1.2-1.5-1.4c-0.6-0.3-1.2-0.4-1.9-0.4
				c-0.7,0-1.3,0.1-1.8,0.4s-1,0.6-1.3,1.1c-0.4,0.5-0.6,1-0.8,1.7c-0.2,0.6-0.3,1.4-0.3,2.1c0,1.8,0.3,3.1,1,3.9
				c0.6,0.8,1.6,1.2,2.8,1.2c0.8,0,1.5-0.2,2.1-0.6s1.2-1,1.7-1.7V281.2z"/>
			<path class="st0" d="M33.5,284.1v0.2c0,0.9,0.1,1.7,0.3,2.3c0.2,0.7,0.5,1.2,0.9,1.7c0.4,0.5,0.8,0.8,1.4,1
				c0.5,0.2,1.1,0.3,1.8,0.3c0.6,0,1.1-0.1,1.5-0.2c0.4-0.1,0.8-0.3,1.1-0.4c0.3-0.2,0.5-0.3,0.7-0.4s0.3-0.2,0.4-0.2
				c0.1,0,0.2,0,0.2,0.1l0.3,0.4c-0.2,0.2-0.4,0.5-0.8,0.7c-0.3,0.2-0.7,0.4-1,0.5c-0.4,0.1-0.8,0.3-1.2,0.4
				c-0.4,0.1-0.9,0.1-1.3,0.1c-0.8,0-1.5-0.1-2.2-0.4c-0.7-0.3-1.2-0.7-1.7-1.2c-0.5-0.5-0.8-1.2-1.1-2c-0.3-0.8-0.4-1.7-0.4-2.7
				c0-0.8,0.1-1.6,0.4-2.4c0.2-0.7,0.6-1.3,1-1.9s1-0.9,1.7-1.2c0.7-0.3,1.4-0.4,2.3-0.4c0.7,0,1.3,0.1,1.9,0.3
				c0.6,0.2,1.1,0.6,1.5,1c0.4,0.4,0.8,1,1,1.6s0.4,1.4,0.4,2.2c0,0.2,0,0.3-0.1,0.4c0,0.1-0.1,0.1-0.2,0.1H33.5z M41.4,283.4
				c0-0.6-0.1-1.2-0.3-1.7c-0.2-0.5-0.4-0.9-0.8-1.3s-0.7-0.6-1.2-0.8c-0.4-0.2-0.9-0.3-1.5-0.3c-0.6,0-1.2,0.1-1.6,0.3
				c-0.5,0.2-0.9,0.5-1.3,0.8c-0.4,0.4-0.6,0.8-0.9,1.3s-0.4,1.1-0.4,1.7H41.4z"/>
			<path class="st0" d="M46.6,280.8c0.5-0.7,1.1-1.3,1.8-1.7c0.7-0.4,1.5-0.6,2.4-0.6c1.5,0,2.6,0.5,3.4,1.5c0.8,1,1.2,2.5,1.2,4.5
				c0,0.9-0.1,1.7-0.3,2.4c-0.2,0.8-0.6,1.4-1,2c-0.4,0.6-1,1-1.6,1.3c-0.6,0.3-1.4,0.5-2.2,0.5c-0.8,0-1.5-0.1-2.1-0.4
				s-1.1-0.7-1.5-1.3v5.8h-1.1v-16h0.6c0.2,0,0.3,0.1,0.3,0.3L46.6,280.8z M46.6,287.9c0.2,0.3,0.5,0.6,0.7,0.9
				c0.2,0.2,0.5,0.4,0.8,0.6s0.6,0.3,0.9,0.3c0.3,0.1,0.6,0.1,1,0.1c0.7,0,1.3-0.1,1.8-0.4s1-0.6,1.3-1.1c0.4-0.5,0.6-1,0.8-1.7
				c0.2-0.6,0.3-1.4,0.3-2.1c0-1.8-0.3-3.1-1-3.9s-1.6-1.2-2.8-1.2c-0.8,0-1.5,0.2-2.1,0.6c-0.6,0.4-1.2,1-1.7,1.7V287.9z"/>
			<path class="st0" d="M59,284.1v0.2c0,0.9,0.1,1.7,0.3,2.3s0.5,1.2,0.9,1.7c0.4,0.5,0.8,0.8,1.4,1c0.5,0.2,1.1,0.3,1.8,0.3
				c0.6,0,1.1-0.1,1.5-0.2c0.4-0.1,0.8-0.3,1.1-0.4c0.3-0.2,0.5-0.3,0.7-0.4c0.2-0.1,0.3-0.2,0.4-0.2c0.1,0,0.2,0,0.2,0.1l0.3,0.4
				c-0.2,0.2-0.4,0.5-0.8,0.7c-0.3,0.2-0.7,0.4-1,0.5c-0.4,0.1-0.8,0.3-1.2,0.4c-0.4,0.1-0.9,0.1-1.3,0.1c-0.8,0-1.5-0.1-2.2-0.4
				c-0.7-0.3-1.2-0.7-1.7-1.2c-0.5-0.5-0.8-1.2-1.1-2c-0.3-0.8-0.4-1.7-0.4-2.7c0-0.8,0.1-1.6,0.4-2.4c0.2-0.7,0.6-1.3,1-1.9
				c0.5-0.5,1-0.9,1.7-1.2c0.7-0.3,1.4-0.4,2.3-0.4c0.7,0,1.3,0.1,1.9,0.3c0.6,0.2,1.1,0.6,1.5,1s0.8,1,1,1.6
				c0.2,0.6,0.4,1.4,0.4,2.2c0,0.2,0,0.3-0.1,0.4c0,0.1-0.1,0.1-0.2,0.1H59z M66.9,283.4c0-0.6-0.1-1.2-0.3-1.7s-0.4-0.9-0.8-1.3
				s-0.7-0.6-1.2-0.8c-0.4-0.2-0.9-0.3-1.5-0.3c-0.6,0-1.2,0.1-1.6,0.3c-0.5,0.2-0.9,0.5-1.3,0.8c-0.4,0.4-0.6,0.8-0.9,1.3
				c-0.2,0.5-0.4,1.1-0.4,1.7H66.9z"/>
			<path class="st0" d="M72.1,280.7c0.5-0.7,1.2-1.2,1.9-1.6c0.7-0.4,1.5-0.6,2.4-0.6c0.7,0,1.2,0.1,1.7,0.3
				c0.5,0.2,0.9,0.5,1.2,0.9s0.6,0.9,0.7,1.4c0.2,0.5,0.2,1.2,0.2,1.9v7.6h-1.1v-7.6c0-1.1-0.3-2-0.8-2.6s-1.3-0.9-2.3-0.9
				c-0.8,0-1.5,0.2-2.2,0.6c-0.7,0.4-1.3,0.9-1.8,1.6v8.9H71v-11.8h0.6c0.2,0,0.3,0.1,0.3,0.3L72.1,280.7z"/>
			<path class="st0" d="M93.3,273.2v17.3h-0.6c-0.2,0-0.3-0.1-0.4-0.3l-0.1-1.9c-0.5,0.7-1.1,1.3-1.8,1.7c-0.7,0.4-1.5,0.6-2.4,0.6
				c-1.5,0-2.6-0.5-3.4-1.5c-0.8-1-1.2-2.5-1.2-4.5c0-0.9,0.1-1.7,0.3-2.4c0.2-0.8,0.6-1.4,1-2c0.4-0.6,1-1,1.6-1.3s1.4-0.5,2.2-0.5
				c0.8,0,1.5,0.1,2.1,0.4c0.6,0.3,1.1,0.7,1.5,1.3v-7H93.3z M92.2,281.2c-0.5-0.7-1-1.2-1.5-1.4c-0.6-0.3-1.2-0.4-1.9-0.4
				c-0.7,0-1.3,0.1-1.8,0.4s-1,0.6-1.3,1.1c-0.4,0.5-0.6,1-0.8,1.7s-0.3,1.4-0.3,2.1c0,1.8,0.3,3.1,1,3.9c0.6,0.8,1.6,1.2,2.8,1.2
				c0.8,0,1.5-0.2,2.1-0.6s1.2-1,1.7-1.7V281.2z"/>
			<path class="st0" d="M97.6,284.1v0.2c0,0.9,0.1,1.7,0.3,2.3s0.5,1.2,0.9,1.7c0.4,0.5,0.8,0.8,1.4,1c0.5,0.2,1.1,0.3,1.8,0.3
				c0.6,0,1.1-0.1,1.5-0.2c0.4-0.1,0.8-0.3,1.1-0.4c0.3-0.2,0.5-0.3,0.7-0.4c0.2-0.1,0.3-0.2,0.4-0.2c0.1,0,0.2,0,0.2,0.1l0.3,0.4
				c-0.2,0.2-0.4,0.5-0.8,0.7c-0.3,0.2-0.7,0.4-1,0.5c-0.4,0.1-0.8,0.3-1.2,0.4c-0.4,0.1-0.9,0.1-1.3,0.1c-0.8,0-1.5-0.1-2.2-0.4
				c-0.7-0.3-1.2-0.7-1.7-1.2c-0.5-0.5-0.8-1.2-1.1-2c-0.3-0.8-0.4-1.7-0.4-2.7c0-0.8,0.1-1.6,0.4-2.4c0.2-0.7,0.6-1.3,1-1.9
				c0.5-0.5,1-0.9,1.7-1.2c0.7-0.3,1.4-0.4,2.3-0.4c0.7,0,1.3,0.1,1.9,0.3c0.6,0.2,1.1,0.6,1.5,1s0.8,1,1,1.6
				c0.2,0.6,0.4,1.4,0.4,2.2c0,0.2,0,0.3-0.1,0.4c0,0.1-0.1,0.1-0.2,0.1H97.6z M105.5,283.4c0-0.6-0.1-1.2-0.3-1.7s-0.4-0.9-0.8-1.3
				s-0.7-0.6-1.2-0.8c-0.4-0.2-0.9-0.3-1.5-0.3c-0.6,0-1.2,0.1-1.6,0.3c-0.5,0.2-0.9,0.5-1.3,0.8c-0.4,0.4-0.6,0.8-0.9,1.3
				c-0.2,0.5-0.4,1.1-0.4,1.7H105.5z"/>
			<path class="st0" d="M110.7,280.7c0.5-0.7,1.2-1.2,1.9-1.6c0.7-0.4,1.5-0.6,2.4-0.6c0.7,0,1.2,0.1,1.7,0.3
				c0.5,0.2,0.9,0.5,1.2,0.9s0.6,0.9,0.7,1.4c0.2,0.5,0.2,1.2,0.2,1.9v7.6h-1.1v-7.6c0-1.1-0.3-2-0.8-2.6s-1.3-0.9-2.3-0.9
				c-0.8,0-1.5,0.2-2.2,0.6c-0.7,0.4-1.3,0.9-1.8,1.6v8.9h-1.1v-11.8h0.6c0.2,0,0.3,0.1,0.3,0.3L110.7,280.7z"/>
			<path class="st0" d="M125.8,290.7c-0.8,0-1.4-0.2-1.9-0.7s-0.7-1.1-0.7-2.1v-8.1h-1.7c-0.1,0-0.2,0-0.2-0.1
				c-0.1,0-0.1-0.1-0.1-0.2v-0.4l2-0.1l0.3-4.2c0-0.1,0-0.1,0.1-0.2c0-0.1,0.1-0.1,0.2-0.1h0.5v4.5h3.7v0.8h-3.7v8
				c0,0.3,0,0.6,0.1,0.8c0.1,0.2,0.2,0.4,0.3,0.6c0.1,0.2,0.3,0.3,0.5,0.3c0.2,0.1,0.4,0.1,0.6,0.1c0.3,0,0.5,0,0.7-0.1
				c0.2-0.1,0.4-0.2,0.5-0.3s0.3-0.2,0.4-0.3c0.1-0.1,0.2-0.1,0.2-0.1c0.1,0,0.1,0,0.2,0.1l0.3,0.5c-0.3,0.3-0.7,0.6-1.1,0.8
				C126.8,290.6,126.3,290.7,125.8,290.7z"/>
			<path class="st0" d="M143.7,280.1c-0.1,0.1-0.2,0.2-0.3,0.2c-0.1,0-0.2,0-0.3-0.1s-0.3-0.2-0.5-0.3c-0.2-0.1-0.5-0.2-0.8-0.3
				c-0.3-0.1-0.7-0.1-1.2-0.1c-0.4,0-0.8,0.1-1.2,0.2c-0.4,0.1-0.7,0.3-0.9,0.5c-0.2,0.2-0.4,0.4-0.6,0.7c-0.1,0.3-0.2,0.6-0.2,0.9
				c0,0.4,0.1,0.7,0.3,0.9s0.4,0.5,0.7,0.6c0.3,0.2,0.7,0.3,1.1,0.5c0.4,0.1,0.8,0.3,1.2,0.4c0.4,0.1,0.8,0.3,1.2,0.4
				c0.4,0.2,0.7,0.3,1.1,0.6c0.3,0.2,0.6,0.5,0.7,0.8c0.2,0.3,0.3,0.7,0.3,1.2c0,0.5-0.1,1-0.3,1.4s-0.5,0.8-0.8,1.2
				c-0.4,0.3-0.8,0.6-1.3,0.8s-1.1,0.3-1.8,0.3c-0.8,0-1.6-0.1-2.2-0.4c-0.6-0.3-1.1-0.6-1.6-1l0.3-0.4c0-0.1,0.1-0.1,0.1-0.1
				c0.1,0,0.1,0,0.2,0c0.1,0,0.2,0.1,0.4,0.2c0.1,0.1,0.3,0.3,0.6,0.4s0.5,0.3,0.9,0.4s0.8,0.2,1.3,0.2c0.5,0,0.9-0.1,1.3-0.2
				c0.4-0.1,0.7-0.3,1-0.6c0.3-0.2,0.4-0.5,0.6-0.8c0.1-0.3,0.2-0.7,0.2-1c0-0.4-0.1-0.7-0.3-1s-0.4-0.5-0.8-0.7
				c-0.3-0.2-0.7-0.3-1.1-0.5s-0.8-0.3-1.2-0.4s-0.8-0.3-1.2-0.4s-0.7-0.3-1.1-0.6s-0.6-0.5-0.8-0.8s-0.3-0.7-0.3-1.2
				c0-0.4,0.1-0.8,0.3-1.2c0.2-0.4,0.4-0.7,0.8-1c0.3-0.3,0.7-0.5,1.2-0.7c0.5-0.2,1-0.3,1.6-0.3c0.7,0,1.4,0.1,1.9,0.3
				c0.6,0.2,1.1,0.5,1.5,1L143.7,280.1z"/>
			<path class="st0" d="M155.3,280.2c0,0-0.1,0.1-0.1,0.1c0,0-0.1,0-0.1,0c-0.1,0-0.2-0.1-0.3-0.2c-0.1-0.1-0.3-0.2-0.5-0.4
				c-0.2-0.1-0.5-0.2-0.9-0.4c-0.3-0.1-0.8-0.2-1.3-0.2c-0.7,0-1.3,0.1-1.8,0.4c-0.5,0.2-1,0.6-1.3,1c-0.4,0.5-0.6,1-0.8,1.6
				s-0.3,1.4-0.3,2.2c0,0.8,0.1,1.6,0.3,2.2s0.5,1.2,0.8,1.6c0.4,0.4,0.8,0.8,1.3,1c0.5,0.2,1.1,0.3,1.7,0.3c0.6,0,1-0.1,1.4-0.2
				s0.7-0.3,1-0.4s0.4-0.3,0.6-0.4c0.1-0.1,0.3-0.2,0.4-0.2c0.1,0,0.2,0,0.2,0.1l0.3,0.4c-0.2,0.2-0.4,0.5-0.7,0.7
				c-0.3,0.2-0.6,0.4-0.9,0.5c-0.3,0.2-0.7,0.3-1.1,0.4s-0.8,0.1-1.3,0.1c-0.8,0-1.4-0.1-2.1-0.4c-0.6-0.3-1.2-0.7-1.6-1.2
				s-0.8-1.2-1-1.9c-0.2-0.8-0.4-1.6-0.4-2.6c0-0.9,0.1-1.7,0.4-2.5c0.2-0.7,0.6-1.4,1-1.9c0.5-0.5,1-1,1.7-1.3
				c0.7-0.3,1.4-0.4,2.3-0.4c0.8,0,1.5,0.1,2,0.4c0.6,0.2,1.1,0.6,1.6,1L155.3,280.2z"/>
			<path class="st0" d="M163,278.5c0.8,0,1.6,0.1,2.3,0.4c0.7,0.3,1.2,0.7,1.7,1.2s0.8,1.2,1.1,1.9s0.4,1.6,0.4,2.5
				s-0.1,1.8-0.4,2.5s-0.6,1.4-1.1,1.9s-1,0.9-1.7,1.2c-0.7,0.3-1.4,0.4-2.3,0.4c-0.8,0-1.6-0.1-2.3-0.4c-0.7-0.3-1.2-0.7-1.7-1.2
				c-0.5-0.5-0.8-1.2-1.1-1.9c-0.2-0.7-0.4-1.6-0.4-2.5s0.1-1.8,0.4-2.5c0.2-0.8,0.6-1.4,1.1-1.9c0.5-0.5,1-0.9,1.7-1.2
				C161.4,278.6,162.1,278.5,163,278.5z M163,289.7c0.7,0,1.3-0.1,1.9-0.4s1-0.6,1.3-1c0.4-0.5,0.6-1,0.8-1.6s0.3-1.4,0.3-2.1
				c0-0.8-0.1-1.5-0.3-2.1s-0.4-1.2-0.8-1.6c-0.4-0.5-0.8-0.8-1.3-1.1s-1.1-0.4-1.9-0.4s-1.3,0.1-1.8,0.4c-0.5,0.2-1,0.6-1.3,1.1
				c-0.4,0.5-0.6,1-0.8,1.6c-0.2,0.6-0.3,1.4-0.3,2.1c0,0.8,0.1,1.5,0.3,2.1c0.2,0.6,0.4,1.2,0.8,1.6c0.4,0.5,0.8,0.8,1.3,1
				C161.7,289.6,162.3,289.7,163,289.7z"/>
			<path class="st0" d="M172.7,281.5c0.2-0.5,0.4-0.9,0.6-1.3c0.2-0.4,0.5-0.7,0.8-1s0.6-0.5,1-0.6c0.4-0.1,0.8-0.2,1.3-0.2
				c0.2,0,0.5,0,0.7,0.1c0.2,0,0.4,0.1,0.6,0.2l-0.1,0.8c0,0.1-0.1,0.2-0.2,0.2c-0.1,0-0.2,0-0.4-0.1c-0.2-0.1-0.5-0.1-0.8-0.1
				c-0.5,0-0.9,0.1-1.2,0.2c-0.4,0.1-0.7,0.3-1,0.6s-0.5,0.6-0.7,1c-0.2,0.4-0.4,0.9-0.6,1.4v7.7h-1.1v-11.8h0.6
				c0.1,0,0.2,0,0.3,0.1c0.1,0.1,0.1,0.2,0.1,0.3L172.7,281.5z"/>
			<path class="st0" d="M179.7,284.1v0.2c0,0.9,0.1,1.7,0.3,2.3s0.5,1.2,0.9,1.7c0.4,0.5,0.8,0.8,1.4,1c0.5,0.2,1.1,0.3,1.8,0.3
				c0.6,0,1.1-0.1,1.5-0.2c0.4-0.1,0.8-0.3,1.1-0.4c0.3-0.2,0.5-0.3,0.7-0.4c0.2-0.1,0.3-0.2,0.4-0.2c0.1,0,0.2,0,0.2,0.1l0.3,0.4
				c-0.2,0.2-0.4,0.5-0.8,0.7c-0.3,0.2-0.7,0.4-1,0.5c-0.4,0.1-0.8,0.3-1.2,0.4c-0.4,0.1-0.9,0.1-1.3,0.1c-0.8,0-1.5-0.1-2.2-0.4
				c-0.7-0.3-1.2-0.7-1.7-1.2c-0.5-0.5-0.8-1.2-1.1-2c-0.3-0.8-0.4-1.7-0.4-2.7c0-0.8,0.1-1.6,0.4-2.4c0.2-0.7,0.6-1.3,1-1.9
				c0.5-0.5,1-0.9,1.7-1.2c0.7-0.3,1.4-0.4,2.3-0.4c0.7,0,1.3,0.1,1.9,0.3c0.6,0.2,1.1,0.6,1.5,1s0.8,1,1,1.6
				c0.2,0.6,0.4,1.4,0.4,2.2c0,0.2,0,0.3-0.1,0.4c0,0.1-0.1,0.1-0.2,0.1H179.7z M187.6,283.4c0-0.6-0.1-1.2-0.3-1.7
				s-0.4-0.9-0.8-1.3s-0.7-0.6-1.2-0.8c-0.4-0.2-0.9-0.3-1.5-0.3c-0.6,0-1.2,0.1-1.6,0.3c-0.5,0.2-0.9,0.5-1.3,0.8
				c-0.4,0.4-0.6,0.8-0.9,1.3c-0.2,0.5-0.4,1.1-0.4,1.7H187.6z"/>
			<path class="st0" d="M198.3,280.1c-0.1,0.1-0.2,0.2-0.3,0.2c-0.1,0-0.2,0-0.3-0.1s-0.3-0.2-0.5-0.3c-0.2-0.1-0.5-0.2-0.8-0.3
				c-0.3-0.1-0.7-0.1-1.2-0.1c-0.4,0-0.8,0.1-1.2,0.2c-0.4,0.1-0.7,0.3-0.9,0.5c-0.2,0.2-0.4,0.4-0.6,0.7c-0.1,0.3-0.2,0.6-0.2,0.9
				c0,0.4,0.1,0.7,0.3,0.9s0.4,0.5,0.7,0.6c0.3,0.2,0.7,0.3,1.1,0.5c0.4,0.1,0.8,0.3,1.2,0.4c0.4,0.1,0.8,0.3,1.2,0.4
				c0.4,0.2,0.7,0.3,1.1,0.6c0.3,0.2,0.6,0.5,0.7,0.8c0.2,0.3,0.3,0.7,0.3,1.2c0,0.5-0.1,1-0.3,1.4s-0.5,0.8-0.8,1.2
				c-0.4,0.3-0.8,0.6-1.3,0.8s-1.1,0.3-1.8,0.3c-0.8,0-1.6-0.1-2.2-0.4c-0.6-0.3-1.1-0.6-1.6-1l0.3-0.4c0-0.1,0.1-0.1,0.1-0.1
				c0.1,0,0.1,0,0.2,0c0.1,0,0.2,0.1,0.4,0.2c0.1,0.1,0.3,0.3,0.6,0.4s0.5,0.3,0.9,0.4s0.8,0.2,1.3,0.2c0.5,0,0.9-0.1,1.3-0.2
				c0.4-0.1,0.7-0.3,1-0.6c0.3-0.2,0.4-0.5,0.6-0.8c0.1-0.3,0.2-0.7,0.2-1c0-0.4-0.1-0.7-0.3-1s-0.4-0.5-0.8-0.7
				c-0.3-0.2-0.7-0.3-1.1-0.5s-0.8-0.3-1.2-0.4s-0.8-0.3-1.2-0.4s-0.7-0.3-1.1-0.6s-0.6-0.5-0.8-0.8s-0.3-0.7-0.3-1.2
				c0-0.4,0.1-0.8,0.3-1.2c0.2-0.4,0.4-0.7,0.8-1c0.3-0.3,0.7-0.5,1.2-0.7c0.5-0.2,1-0.3,1.6-0.3c0.7,0,1.4,0.1,1.9,0.3
				c0.6,0.2,1.1,0.5,1.5,1L198.3,280.1z"/>
		</g>
	</g>
</g>
</svg>
