<?xml version="1.0" standalone="no"?>
<!DOCTYPE svg PUBLIC "-//W3C//DTD SVG 1.1//EN" "http://www.w3.org/Graphics/SVG/1.1/DTD/svg11.dtd" >
<svg>
<metadata>
Created by FontForge 20110222 at Fri Aug 22 06:38:19 2014
 By Orthosie Webhosting
Copyright (c) Ray Larabie 2006. Do not distribute. Report piracy to piracy@typodermic.com. Visit www.typodermic.com and www.larabiefonts.com
</metadata>
<defs>
<font id="CorzinairRegular" horiz-adv-x="643" >
  <font-face 
    font-family="CorzinairRegular"
    font-weight="400"
    font-stretch="normal"
    units-per-em="1000"
    panose-1="2 0 5 3 6 0 0 2 0 4"
    ascent="773"
    descent="-227"
    x-height="521"
    cap-height="734"
    bbox="-157 -242 1147 958"
    underline-thickness="50"
    underline-position="-50"
    unicode-range="U+000D-FB04"
  />
<missing-glyph horiz-adv-x="493" 
d="M493 0h-493v734h493v-734zM20 55l150 217l-117 -252h387l-117 252l150 -217v624l-150 -216l117 252h-387l117 -252l-150 216v-624z" />
    <glyph glyph-name=".notdef" horiz-adv-x="493" 
d="M493 0h-493v734h493v-734zM20 55l150 217l-117 -252h387l-117 252l150 -217v624l-150 -216l117 252h-387l117 -252l-150 216v-624z" />
    <glyph glyph-name=".null" horiz-adv-x="246" 
 />
    <glyph glyph-name=".null" horiz-adv-x="246" 
 />
    <glyph glyph-name="nonmarkingreturn" unicode="&#xd;" horiz-adv-x="179" 
 />
    <glyph glyph-name="space" unicode=" " horiz-adv-x="302" 
 />
    <glyph glyph-name="exclam" unicode="!" horiz-adv-x="322" 
d="M188 760q27 0 41 -21q-5 -70 -13 -192t-19 -301q0 -16 -7 -31h-59q-4 8 -5.5 16t-2.5 15q-9 179 -16.5 301t-14.5 192q16 21 40 21h56zM161 115q27 0 43.5 -17t16.5 -47q0 -29 -16.5 -46t-43.5 -17q-30 0 -47.5 17t-17.5 46q0 30 17.5 47t47.5 17z" />
    <glyph glyph-name="quotedbl" unicode="&#x22;" horiz-adv-x="376" 
d="M296 743q19 0 30 -12l-20 -240q-2 -17 -11 -32h-36q-11 15 -12 31l-19 241q10 12 32 12h36zM115 743q19 0 30 -12l-19 -240q-2 -17 -12 -32h-36q-11 15 -12 31l-19 241q10 12 32 12h36z" />
    <glyph glyph-name="numbersign" unicode="#" horiz-adv-x="585" 
d="M406 207l-30 -176q-3 -17 -16 -31h-36q-19 0 -26 7l34 200h-133l-30 -176q-3 -17 -16 -31h-35q-17 0 -27 7l35 200h-55q-28 0 -43 7l3 45q2 11 7 19h100l31 178h-65q-29 0 -44 7l3 45q2 11 7 19h112l30 171q3 18 13 31h41q10 0 24 -3l-36 -199h134l31 171q3 17 14 31h40
q10 0 24 -3l-35 -199h51q12 0 21.5 -2.5t14.5 -5.5l-3 -42q-2 -10 -10 -21h-86l-32 -178h62q12 0 21.5 -2.5t14.5 -5.5l-3 -42q-1 -6 -3.5 -11t-6.5 -10h-97zM211 278h134l31 178h-134z" />
    <glyph glyph-name="dollar" unicode="$" horiz-adv-x="427" 
d="M253 634q54 -2 88.5 -13t34.5 -37l6 -85q0 -14 -4 -22h-33q-3 0 -13 2q-10 34 -19 54t-21 29.5t-29.5 12t-45.5 2.5q-40 0 -65.5 -16.5t-25.5 -50.5q0 -24 21 -41t53 -32.5t68.5 -31t68.5 -36.5t53 -50t21 -71q0 -32 -13 -57.5t-35 -45t-50.5 -32t-59.5 -18.5v-86
q-11 -9 -21 -9h-29q-12 0 -22 9v81q-18 1 -40 4t-43 7t-38 9.5t-25 11.5q-9 42 -10.5 77.5t-1.5 61.5q7 3 13 3h23q9 0 17 -3q9 -33 18.5 -54.5t24 -35t35 -19t51.5 -5.5q16 0 36 5t38 15.5t30 25t12 34.5q0 33 -20.5 54t-51.5 36.5t-67.5 29t-67.5 32.5t-51.5 46.5
t-20.5 70.5q0 57 38 91t101 43v98q10 6 20 6h29q12 0 23 -6v-94z" />
    <glyph glyph-name="percent" unicode="%" horiz-adv-x="858" 
d="M224 729q81 0 119 -50.5t38 -132.5q0 -97 -39.5 -150.5t-120.5 -53.5q-84 0 -125 51t-41 148q0 41 9.5 75.5t30 59.5t52.5 39t77 14zM226 677q-23 0 -39.5 -10.5t-26.5 -29t-14.5 -43t-4.5 -52.5q0 -69 19.5 -107.5t64.5 -38.5t64.5 38t19.5 110q0 57 -18.5 95t-64.5 38z
M658 734q13 0 27 -6l-435 -728h-41q-21 0 -36 7l433 727h52zM650 378q82 0 119.5 -50.5t37.5 -132.5q0 -97 -39 -150.5t-120 -53.5q-84 0 -125.5 51t-41.5 148q0 41 9.5 75.5t30 59.5t52.5 39t77 14zM653 326q-23 0 -39.5 -10.5t-26.5 -28.5t-14.5 -43t-4.5 -53
q0 -69 19 -108t64 -39t65 38.5t20 110.5q0 28 -4.5 52t-14 42t-25.5 28.5t-39 10.5z" />
    <glyph glyph-name="ampersand" unicode="&#x26;" horiz-adv-x="793" 
d="M335 685q-26 0 -43.5 -7.5t-28 -20.5t-14.5 -31t-4 -39q0 -50 31.5 -106t78 -110.5t101 -104t100.5 -86.5q32 39 51.5 82.5t19.5 88.5q0 30 -13 49q4 4 10 7t11 5q21 -11 45 -32t38 -38q-9 -55 -33.5 -108.5t-66.5 -101.5q52 -38 97 -56.5t96 -18.5q6 -6 6 -14v-29
q0 -7 -6 -14h-91q-22 0 -41 4t-38.5 12.5t-41.5 21.5t-49 31q-54 -38 -121 -61t-148 -23q-62 0 -107 11.5t-74 37.5t-43 67t-14 101q0 30 8 63t25.5 65t46 60t69.5 47q-17 35 -27 70.5t-10 70.5q0 78 46 124t134 46q43 0 74 -4.5t52.5 -13.5t35 -21t21.5 -27q0 -8 -0.5 -19
t-2.5 -21t-6.5 -17t-11.5 -7q-26 0 -46 7q-2 9 -6 19.5t-16 19.5t-34 15t-60 6zM323 43q39 0 82 19t85 51q-29 22 -64 51.5t-71 64.5t-70.5 74.5t-61.5 81.5q-38 -21 -61.5 -61.5t-23.5 -94.5q0 -41 11 -75t34 -58.5t57.5 -38.5t82.5 -14z" />
    <glyph glyph-name="quotesingle" unicode="'" horiz-adv-x="196" 
d="M115 743q19 0 30 -12l-19 -240q-2 -17 -12 -32h-36q-11 15 -12 31l-19 241q10 12 32 12h36v0z" />
    <glyph glyph-name="parenleft" unicode="(" horiz-adv-x="371" 
d="M280 773q8 -5 10 -16v-40q0 -11 -4 -15q-30 -32 -52.5 -78.5t-37.5 -102.5t-23 -118.5t-8 -125.5q0 -65 9 -129.5t28 -122t47 -105t66 -78.5q2 -4 2.5 -6.5t0.5 -7.5l-17 -32q-59 33 -101 85.5t-69 116.5t-39.5 135.5t-12.5 143.5t10.5 143.5t34.5 136.5t62 120t94 96z
" />
    <glyph glyph-name="parenright" unicode=")" horiz-adv-x="372" 
d="M90 773q55 -41 93.5 -96.5t62.5 -120t34.5 -135.5t10.5 -144q0 -72 -13 -143.5t-40 -135.5t-69 -116.5t-100 -85.5l-18 32q0 5 0.5 7.5t2.5 6.5q37 31 65.5 78.5t47.5 105t28.5 122t9.5 129.5q0 63 -8 125.5t-23 118.5t-37.5 102.5t-52.5 78.5q-4 4 -4 15v40q2 11 10 16z
" />
    <glyph glyph-name="asterisk" unicode="*" horiz-adv-x="514" 
d="M256 743q5 0 6 -1l30 -21q2 -8 2 -14l-18 -140l99 102q5 5 9 7l34 -9q6 -1 11 -9v-31q0 -6 -4 -13l-126 -75l144 -13q11 -5 12 -7l14 -36q-2 -8 -5 -10l-24 -20q-2 -2 -10 -3l-140 52l79 -119q1 -4 1.5 -7t0.5 -7l-13 -24q-5 -9 -9 -12l-39 8q-6 3 -9 11l-45 133
l-43 -133q-5 -9 -10 -11l-38 -8q-5 3 -9 12l-13 24q0 4 0.5 7t1.5 7l78 119l-139 -52q-8 1 -10 3l-24 20q-3 2 -5 10l14 36q1 4 12 7l144 13l-126 75q-4 7 -4 13v31q5 8 11 9l34 9q4 -2 9 -7l98 -102l-18 140q0 6 2 14l30 21q1 1 5 1z" />
    <glyph glyph-name="plus" unicode="+" horiz-adv-x="574" 
d="M249 95v191h-153q-23 0 -37 7v69h190v153q0 23 7 37h69v-190h154q24 0 37 -7v-69h-191v-155q0 -23 -7 -36h-69z" />
    <glyph glyph-name="comma" unicode="," horiz-adv-x="230" 
d="M130 127q18 -5 36 -19t18 -36q-6 -24 -18 -53.5t-26 -58t-29.5 -53t-28.5 -37.5q-11 2 -19.5 7.5t-13.5 12.5q6 23 12 41.5t10.5 35t7 32.5t2.5 34q0 14 -1.5 28.5t-3.5 29.5q6 12 20 22.5t34 13.5z" />
    <glyph glyph-name="hyphen" unicode="-" horiz-adv-x="393" 
d="M330 249h-229q-23 0 -37 7v67h230q23 0 36 -7v-67z" />
    <glyph glyph-name="period" unicode="." horiz-adv-x="256" 
d="M129 -12q-29 0 -46.5 17t-17.5 46q0 30 17.5 47t46.5 17t46 -17t17 -47q0 -29 -17 -46t-46 -17z" />
    <glyph glyph-name="slash" unicode="/" horiz-adv-x="506" 
d="M102 -92q-13 -5 -22 -5h-29q-15 0 -22 7l364 830q17 5 24 5h29q17 0 24 -7z" />
    <glyph glyph-name="zero" unicode="0" horiz-adv-x="578" 
d="M292 49q43 0 70.5 17t42.5 53t20.5 93t5.5 138q0 77 -6 139t-23 105t-47.5 66t-79.5 23q-75 0 -103 -75t-28 -228q0 -94 8 -157.5t25.5 -102t45.5 -55t69 -16.5zM283 -15q-132 0 -187.5 94t-55.5 278q0 201 61.5 296t191.5 95q65 0 111.5 -24.5t76 -72t43 -117.5
t13.5 -161q0 -196 -59 -292t-195 -96z" />
    <glyph glyph-name="one" unicode="1" horiz-adv-x="632" 
d="M357 754q22 -1 40 -6q-3 -30 -3 -71v-607q5 -3 19.5 -5.5t33 -4t37.5 -2.5t33 -1q7 -4 7 -16v-26q0 -11 -7 -15h-350q-7 4 -7 15v26q0 12 7 16q13 0 33.5 1t40.5 2.5t36 4t21 5.5v514q0 32 -11 49l-130 -65q-4 2 -7.5 4.5t-5.5 6.5l-15 24q-5 8 -5 18l233 133v0z" />
    <glyph glyph-name="two" unicode="2" horiz-adv-x="570" 
d="M275 747q60 0 102 -13.5t68.5 -38.5t38 -61.5t11.5 -81.5q0 -86 -37.5 -149.5t-107.5 -117.5q-30 -23 -59 -48t-54.5 -50.5t-46.5 -51t-34 -50.5h246q15 8 25.5 17t18 21t13.5 29t12 41q4 4 16 4h19q12 0 19 -7q-1 -48 -6.5 -94t-16.5 -91q-22 -5 -40 -5h-414
q-5 10 -7.5 19.5t-3.5 19.5q20 48 51.5 92t68 84t75 76.5t73.5 70.5q24 23 41.5 43.5t29.5 42t17.5 44.5t5.5 51q0 39 -9 64.5t-27 41t-45 22t-62 6.5q-36 0 -67.5 -7t-56.5 -27q-4 -20 -6.5 -42.5t-4.5 -49.5q-4 -4 -14 -4h-26q-2 0 -12 2q-3 29 -4 69t-1 77q15 13 40 23
t53.5 16.5t59.5 9.5t58 3z" />
    <glyph glyph-name="three" unicode="3" horiz-adv-x="583" 
d="M255 748q112 0 173 -43t61 -134q0 -57 -28.5 -102t-82.5 -63v-4q69 -15 105.5 -61t36.5 -118q0 -122 -68 -179.5t-218 -57.5q-67 0 -116.5 14.5t-66.5 39.5q0 35 1 70t3 81q7 6 20 6h17q11 0 17 -6q7 -36 16 -62.5t23 -44t35 -26t52 -8.5q43 0 77 7.5t57.5 25.5t36 48.5
t12.5 76.5q0 63 -30 99t-81 45h-83q-9 7 -9 22v30q0 10 7 17q87 0 128.5 29.5t41.5 103.5q0 69 -34 98t-112 29q-45 0 -75.5 -22t-35.5 -67q-1 -8 -6.5 -14t-15.5 -6h-18q-6 0 -19 5q0 64 3 124q19 16 43 25t48 14t46 6.5t39 1.5z" />
    <glyph glyph-name="four" unicode="4" horiz-adv-x="586" 
d="M279 57q56 0 75 13v116q0 28 -28 28h-255q-22 0 -42 4q-6 22 -6 48l273 426q29 16 65 29t81 22q7 -13 7 -40v-389q0 -15 14 -24h62q22 0 34 -6l-9 -60q-10 -10 -29 -10h-65q-7 -13 -7 -28v-116q19 -13 75 -13q7 -4 7 -16v-26q0 -11 -7 -15h-245q-7 4 -7 15v26q0 12 7 16z
M354 642q-11 -1 -22 -9l-216 -343h204q20 0 34 6v346z" />
    <glyph glyph-name="five" unicode="5" horiz-adv-x="561" 
d="M107 724q29 10 60 10h229q43 0 85 6q0 -72 -8 -109h-32q-4 28 -31.5 33t-73.5 5h-159l-15 -182q22 3 42 3q150 0 226 -62t76 -177q0 -60 -15 -109t-50 -83.5t-91.5 -53.5t-140.5 -19q-8 0 -30 3t-47.5 8.5t-47.5 14t-30 19.5v139q1 14 8 24h23q12 0 21 -6q11 -78 43 -110
t83 -32q87 0 132 39t45 137q0 53 -14.5 88t-47 55.5t-86 29t-131.5 8.5h-23t-26 -1l26 322v0z" />
    <glyph glyph-name="six" unicode="6" horiz-adv-x="566" 
d="M401 747q18 -16 25 -46q-62 -2 -108.5 -26.5t-79.5 -64.5t-53 -90.5t-29 -103.5q19 26 59 39.5t83 13.5q52 0 94.5 -13.5t73 -43t47 -76.5t16.5 -114q0 -118 -56 -177.5t-174 -59.5q-67 0 -115.5 15.5t-80 50t-46.5 90.5t-15 138q0 88 22.5 172t67.5 150t112.5 106
t156.5 40zM281 411q-75 0 -108.5 -44t-33.5 -129q0 -91 38 -143t114 -52q36 0 62 13.5t43 37t25.5 56t8.5 70.5q0 102 -39 146.5t-110 44.5z" />
    <glyph glyph-name="seven" unicode="7" horiz-adv-x="559" 
d="M517 734q12 -21 13 -50q-37 -74 -75 -156.5t-72.5 -168.5t-64 -172.5t-49.5 -167.5q-29 -17 -89 -30q-15 5 -22 14q5 29 22.5 80.5t42.5 114.5t54.5 131.5t58.5 130.5t55 112t44 77h-293q-22 -28 -38 -106q-4 -4 -11 -4h-28q-8 1 -12 6q0 21 3 67t8 118q23 4 63 4h390z
" />
    <glyph glyph-name="eight" unicode="8" horiz-adv-x="588" 
d="M210 392q-27 18 -50 36.5t-40.5 40t-27 47.5t-9.5 59q0 36 14 68t42 55t68.5 36.5t93.5 13.5q46 0 84 -9.5t65 -29.5t42 -51t15 -73q0 -33 -10.5 -60t-28.5 -49t-41.5 -39.5t-49.5 -32.5q34 -18 63 -38.5t51 -45.5t34.5 -55t12.5 -67q0 -98 -59 -155.5t-185 -57.5
q-118 0 -180.5 51t-62.5 151q0 40 13 70.5t35 54.5t51 43.5t60 36.5zM279 356q-25 -8 -50.5 -24t-46 -38.5t-33.5 -49.5t-13 -56q0 -75 42.5 -110t117.5 -35q67 0 106 37.5t39 106.5q0 31 -15 55.5t-39 44.5t-52.5 37t-55.5 32zM310 433q51 26 82.5 58.5t31.5 82.5
q0 60 -32.5 85.5t-92.5 25.5q-62 0 -93.5 -21t-31.5 -77q0 -27 12 -50t31.5 -42.5t44 -35t48.5 -26.5z" />
    <glyph glyph-name="nine" unicode="9" horiz-adv-x="576" 
d="M200 -14q-16 16 -19 46q54 4 98 38.5t76 84t52 106t27 103.5q-20 -21 -61.5 -41t-101.5 -20q-112 0 -170 60t-58 174q0 49 17 88.5t48 66.5t73 41.5t92 14.5q60 0 108 -15t81 -46.5t51 -82t18 -120.5q0 -93 -22.5 -182.5t-65 -159.5t-104 -113t-139.5 -43zM291 369
q31 0 57 11.5t45 32t29.5 49t10.5 63.5q0 42 -12.5 73.5t-33.5 52t-48.5 30.5t-57.5 10q-61 0 -100 -40.5t-39 -115.5q0 -87 40 -126.5t109 -39.5z" />
    <glyph glyph-name="colon" unicode=":" horiz-adv-x="256" 
d="M130 8q-29 0 -46 17t-17 46q0 30 17 46.5t46 16.5t46 -16.5t17 -46.5q0 -29 -17 -46t-46 -17zM130 378q-29 0 -46 17t-17 47q0 29 17 45.5t46 16.5t46 -16.5t17 -45.5q0 -30 -17 -47t-46 -17z" />
    <glyph glyph-name="semicolon" unicode=";" horiz-adv-x="240" 
d="M132 127q18 -5 36 -19t18 -36q-6 -24 -18 -53.5t-26 -58t-29.5 -53t-28.5 -37.5q-11 2 -19.5 7.5t-13.5 12.5q6 23 12 41.5t10.5 35t7 32.5t2.5 34q0 14 -1.5 28.5t-3.5 29.5q6 12 20 22.5t34 13.5zM132 504q29 0 45.5 -16.5t16.5 -45.5q0 -30 -16.5 -47t-45.5 -17
q-30 0 -47 17t-17 47q0 29 17 45.5t47 16.5z" />
    <glyph glyph-name="less" unicode="&#x3c;" horiz-adv-x="524" 
d="M68 319q0 11 8 30l373 184q7 -10 7 -28v-20q0 -12 -12 -30l-282 -137l287 -135q7 -10 7 -25v-30q0 -16 -7 -26l-381 192v25z" />
    <glyph glyph-name="equal" unicode="=" horiz-adv-x="574" 
d="M516 387h-420q-10 0 -19.5 1t-17.5 5v70h420q24 0 37 -7v-69zM516 199h-420q-23 0 -37 7v69h420q24 0 37 -7v-69z" />
    <glyph glyph-name="greater" unicode="&#x3e;" horiz-adv-x="524" 
d="M456 316q0 -10 -8 -29l-373 -183q-7 10 -7 27v20q0 13 12 31l282 135l-287 137q-7 10 -7 24v31q0 16 7 26l381 -193v-26z" />
    <glyph glyph-name="question" unicode="?" horiz-adv-x="524" 
d="M250 745q42 0 81.5 -7.5t70.5 -25t50 -45.5t19 -70q0 -43 -15.5 -75.5t-38.5 -59t-50 -49t-50 -45.5t-38.5 -49.5t-15.5 -59.5q0 -17 6 -29.5t14 -26.5q-20 -14 -54 -19q-9 2 -18 10.5t-15.5 21t-11 27t-4.5 27.5q0 36 14.5 64.5t36 52.5t46.5 45t46.5 43.5t36 48
t14.5 57.5q0 26 -10.5 45t-27.5 31t-40 18t-47 6q-35 0 -63.5 -5.5t-48.5 -19.5q-17 -24 -27 -90h-41q-4 11 -4 23v109q10 15 31 24t47.5 14t54.5 7t52 2zM241 115q29 0 45.5 -17t16.5 -47q0 -29 -16.5 -46t-45.5 -17t-46 17t-17 46q0 30 17 47t46 17z" />
    <glyph glyph-name="at" unicode="@" horiz-adv-x="813" 
d="M443 705q78 0 138.5 -23t101.5 -64t62.5 -99t21.5 -128q0 -128 -43 -195t-112 -67q-32 0 -55.5 13t-34.5 27q-27 -29 -58 -40t-73 -11q-68 0 -104 39.5t-36 131.5q0 55 13 95.5t35.5 66.5t53 39t65.5 13q28 0 53 -8t38 -28q3 8 6 15.5t5 15.5h53l-20 -258q0 -19 12.5 -31
t48.5 -12q12 0 27 6t28 26t22 57t9 99q0 60 -17.5 107t-50.5 80t-80.5 50.5t-106.5 17.5q-70 0 -127.5 -16.5t-99 -55.5t-64 -103.5t-22.5 -160.5q0 -93 22 -155t64 -100t103.5 -54t139.5 -16q67 0 128 18t99 50q11 -3 18 -11l19 -25q-21 -23 -51.5 -41t-65.5 -30t-74 -18
t-77 -6q-202 0 -300 93.5t-98 294.5t93 301t291 100zM442 450q-25 0 -46.5 -8.5t-37.5 -27t-25 -49t-9 -74.5q0 -33 7.5 -56t19.5 -37t28 -20.5t33 -6.5q50 0 79 45l12 147q0 42 -11.5 64.5t-49.5 22.5z" />
    <glyph glyph-name="A" unicode="A" horiz-adv-x="817" 
d="M267 743q28 0 58 -1.5t57.5 -3.5t51.5 -4.5t39 -4.5q15 -18 26 -52l199 -597q39 -19 93 -23q6 -9 6 -16v-26q0 -7 -5 -15h-252q-5 8 -5 15v34q17 2 32.5 4.5t23.5 7.5l-53 154q-33 15 -89 15h-164q-13 0 -24.5 -1t-21.5 -3q-7 -9 -14 -28t-13.5 -41.5t-11.5 -45.5t-8 -40
q9 -7 30.5 -13.5t47.5 -10.5v-32q0 -8 -7 -15h-233q-7 7 -7 15v26q0 8 3 16q61 13 91 43l184 581q-11 4 -25.5 7t-31.5 6q5 32 23 49zM405 653q-17 7 -33 12l-94 -309q-5 -14 -8 -28t-5 -26q18 -8 53 -8h142q32 0 49 12z" />
    <glyph glyph-name="B" unicode="B" horiz-adv-x="635" 
d="M41 720q0 9 6 14h262q67 0 111 -9.5t70.5 -30.5t37.5 -55.5t11 -84.5q0 -53 -27 -90t-61 -59v-4q69 -10 107.5 -60.5t38.5 -125.5q0 -52 -11.5 -92t-38 -67.5t-70 -41.5t-107.5 -14h-323q-6 4 -6 15v26q0 11 6 16q57 0 76 13v594q-19 13 -76 13q-6 4 -6 17v26zM248 361
q-13 0 -18 -3t-6 -8v-255q0 -16 4 -25q27 -13 73 -13h52q44 0 71.5 5.5t43 19.5t21 38t5.5 61q0 91 -31.5 135.5t-112.5 44.5h-102zM224 443q5 -23 37 -23q50 0 84.5 2t56.5 13.5t31.5 35t9.5 65.5t-5.5 69.5t-20.5 43.5t-41.5 22t-67.5 6h-15q-17 -2 -34.5 -4.5t-34.5 -8.5
v-221z" />
    <glyph glyph-name="C" unicode="C" horiz-adv-x="721" 
d="M446 748q36 0 71.5 -5t67.5 -12.5t60.5 -17t50.5 -18.5l-6 -159q-7 -4 -14 -4h-26q-6 0 -13 3q-6 35 -14 58.5t-26 40.5q-11 10 -29.5 19t-41 16.5t-46 12t-44.5 4.5q-64 0 -115.5 -16t-88 -52t-56 -94.5t-19.5 -143.5q0 -91 22 -154t60 -102t90.5 -56.5t113.5 -17.5
q93 0 147.5 27t74.5 65q6 -2 11.5 -4.5t10.5 -4.5q3 -14 3.5 -30t0.5 -32q0 -13 -2 -24.5t-4 -21.5q-15 -7 -40.5 -14t-58 -13t-70 -9.5t-76.5 -3.5q-84 0 -156 25.5t-124 74.5t-81.5 121t-29.5 165q0 96 28 167t80 117.5t125.5 69.5t163.5 23z" />
    <glyph glyph-name="D" unicode="D" horiz-adv-x="804" 
d="M416 736q82 0 144.5 -21t105.5 -66t65 -115t22 -167q0 -107 -25.5 -177.5t-74.5 -112.5t-119 -59.5t-158 -17.5h-331q-6 4 -6 15v26q0 11 6 16q57 0 76 13v594q-19 13 -76 13q-6 4 -6 17v26q0 9 6 14h205q29 0 50.5 0.5t40.5 0.5t36.5 0.5t38.5 0.5zM284 676
q-16 0 -32 -2t-30 -10v-594q17 -13 62 -13h134q54 0 96 14.5t71.5 50.5t44.5 95.5t15 149.5t-16.5 150t-47 95t-74.5 49.5t-99 14.5h-124z" />
    <glyph glyph-name="E" unicode="E" horiz-adv-x="595" 
d="M276 358q-35 0 -60 -13v-275q25 -13 81 -13h138q35 18 51 50t30 71h52q3 -8 3 -20l-7 -131q-2 -14 -12 -27h-512q-7 4 -7 15v26q0 12 7 16q56 0 75 13v594q-19 13 -75 13q-7 4 -7 17v26q0 10 7 14h441q43 0 66 6q2 -2 2.5 -8.5t0.5 -11.5l-5 -100q-1 -12 -3 -22t-4 -16
h-53q-2 30 -9.5 50t-23.5 39h-173q-32 0 -63 -14v-221q25 -15 60 -15h101q29 14 38 60h41q1 -8 1.5 -18.5t0.5 -23.5l-6 -103q-2 -20 -4.5 -34t-6.5 -22h-38q-4 40 -20 78h-107v0z" />
    <glyph glyph-name="F" unicode="F" horiz-adv-x="585" 
d="M52 57q57 0 76 13v594q-19 13 -76 13q-7 4 -7 17v26q0 10 7 14h424q43 0 66 6q2 -2 2.5 -8.5t0.5 -11.5l-5 -100q-1 -12 -3 -22t-4 -16h-53q-2 30 -9.5 50t-23.5 39h-155q-32 0 -63 -14v-221q25 -15 60 -15h83q29 14 38 60h41q1 -8 1.5 -18.5t0.5 -23.5l-6 -103
q-2 -20 -4.5 -34t-6.5 -22h-38q-4 40 -20 78h-89q-35 0 -60 -13v-275q19 -13 75 -13q7 -4 7 -16v-26q0 -11 -7 -15h-252q-7 4 -7 15v26q0 12 7 16z" />
    <glyph glyph-name="G" unicode="G" horiz-adv-x="803" 
d="M49 371q0 94 27 165t77 118t121 70.5t159 23.5q81 0 149 -17.5t113 -35.5l-6 -159q-7 -4 -14 -4h-26q-6 0 -13 3q-6 35 -14 58.5t-26 40.5q-10 9 -29 18.5t-41.5 17t-46.5 12t-44 4.5q-64 0 -115.5 -15t-88 -50t-56.5 -92t-20 -142q0 -97 26.5 -161.5t70.5 -103.5
t102 -55.5t121 -16.5q58 0 90 8t51 22v226q-38 13 -127 13q-4 7 -4 16v26q0 12 4 16h283q5 -5 5 -16v-26q0 -11 -5 -16q-45 0 -57 -13v-250q-14 -17 -42 -30t-66 -22t-83.5 -14t-94.5 -5q-83 0 -153 25.5t-120.5 74.5t-78.5 121t-28 165z" />
    <glyph glyph-name="H" unicode="H" horiz-adv-x="830" 
d="M227 455q0 -30 34 -30h310q32 0 32 25v214q-16 13 -74 13q-7 4 -7 17v26q0 10 7 14h252q7 -4 7 -14v-26q0 -13 -7 -17q-56 0 -75 -13v-594q19 -13 75 -13q7 -4 7 -16v-26q0 -11 -7 -15h-252q-7 4 -7 15v26q0 12 7 16q58 0 74 13v258q0 35 -32 35h-310q-34 0 -34 -26v-267
q19 -13 75 -13q7 -4 7 -16v-26q0 -11 -7 -15h-252q-7 4 -7 15v26q0 12 7 16q57 0 76 13v594q-19 13 -76 13q-7 4 -7 17v26q0 10 7 14h252q7 -4 7 -14v-26q0 -13 -7 -17q-56 0 -75 -13v-209z" />
    <glyph glyph-name="I" unicode="I" horiz-adv-x="353" 
d="M227 70q19 -13 75 -13q7 -4 7 -16v-26q0 -11 -7 -15h-252q-7 4 -7 15v26q0 12 7 16q57 0 76 13v594q-19 13 -76 13q-7 4 -7 17v26q0 10 7 14h252q7 -4 7 -14v-26q0 -13 -7 -17q-56 0 -75 -13v-594z" />
    <glyph glyph-name="J" unicode="J" horiz-adv-x="393" 
d="M360 734q4 -4 4 -15v-26q0 -12 -7 -16q-53 0 -72 -24v-455q0 -158 -59 -235.5t-191 -77.5q-26 0 -43 3.5t-30 11.5v31q0 6 3 12h39.5t41.5 1.5t38.5 4.5t30.5 8q16 15 28.5 36t21 57t13 92t4.5 141v367q-41 27 -120 27q-4 4 -4 16v26q0 7 5 15h297v0z" />
    <glyph glyph-name="K" unicode="K" horiz-adv-x="731" 
d="M703 734q7 -4 7 -14v-27q0 -7 -5 -15q-68 -9 -126 -46l-212 -226l232 -269q32 -38 62.5 -61t53.5 -22q4 0 5.5 -7t1.5 -9v-23q0 -8 -6 -15h-213q-8 8 -8 15v26q11 6 19.5 15.5t10.5 23.5l-206 250q-18 14 -42.5 22t-46.5 9v-291q19 -13 75 -13q7 -4 7 -16v-26
q0 -11 -7 -15h-252q-7 4 -7 15v26q0 12 7 16q57 0 76 13v594q-19 13 -76 13q-7 4 -7 17v26q0 10 7 14h252q7 -4 7 -14v-26q0 -13 -7 -17q-56 0 -75 -13v-251q25 5 45.5 14t41.5 24l183 206q-8 13 -36 21v42q0 9 8 14h231z" />
    <glyph glyph-name="L" unicode="L" horiz-adv-x="576" 
d="M47 0q-6 4 -6 15v26q0 11 6 16q57 0 76 13v594q-19 13 -76 13q-6 4 -6 17v26q0 9 6 14h253q6 -5 6 -14v-26q0 -13 -6 -17q-57 0 -76 -13v-594q25 -13 80 -13h121q18 9 30 21.5t21 28t16 33.5t14 38h53q1 -4 1.5 -8.5t0.5 -11.5l-6 -131q-2 -14 -13 -27h-495z" />
    <glyph glyph-name="M" unicode="M" horiz-adv-x="977" 
d="M280 57q7 -4 7 -16v-26q0 -11 -7 -15h-244q-6 7 -6 15v26q0 8 5 16q26 3 50 8.5t42 17.5l30 585q-14 5 -31.5 7t-35.5 2q-4 7 -4 17v26q0 10 4 14h211q7 -5 17 -21.5t16 -35.5l153 -495h21l154 495q6 20 14.5 34.5t16.5 22.5h199q6 -5 6 -14v-26q0 -10 -4 -17
q-17 -1 -32.5 -2t-29.5 -6l24 -592q17 -20 88 -20q7 -4 7 -16v-26q0 -8 -6 -15h-262q-4 4 -4 15v26q0 9 4 16q25 0 44 5t29 15l-16 576h-21l-150 -503q-5 -18 -16.5 -39.5t-25.5 -39.5h-81q-33 42 -44 77l-156 506h-21l-21 -568q11 -15 28.5 -22t47.5 -7z" />
    <glyph glyph-name="N" unicode="N" horiz-adv-x="796" 
d="M179 70q10 -7 35.5 -10t53.5 -3q7 -4 7 -16v-26q0 -11 -7 -15h-238q-7 4 -7 15v26q0 12 7 16q56 0 75 13v594q-19 13 -75 13q-7 4 -7 17v26q0 10 7 14h208q11 -5 23 -16.5t18 -22.5l320 -593h18v562q-19 13 -94 13q-7 4 -7 17v26q0 10 7 14h239q7 -4 7 -14v-26
q0 -13 -7 -17q-56 0 -75 -13v-618q0 -12 -0.5 -23.5t-1.5 -22.5h-135q-15 11 -31 27.5t-25 34.5l-297 576h-18v-568z" />
    <glyph glyph-name="O" unicode="O" horiz-adv-x="847" 
d="M421 -15q-180 0 -276 99.5t-96 283.5q0 90 26 160.5t74.5 119t117 74.5t154.5 26q81 0 150 -22t119.5 -68t79 -116t28.5 -167q0 -95 -27 -167.5t-76.5 -122t-119 -75t-154.5 -25.5zM433 46q60 0 107 17t80 54.5t50.5 97t17.5 144.5q0 92 -21 155t-58 102t-86.5 56
t-106.5 17t-104.5 -16t-81 -53t-52.5 -96t-19 -144q0 -88 20 -151t56 -103.5t86.5 -60t111.5 -19.5z" />
    <glyph glyph-name="P" unicode="P" horiz-adv-x="651" 
d="M620 546q0 -52 -20 -96.5t-53.5 -77.5t-78.5 -52t-95 -19h-84q-35 0 -60 -13v-218q19 -13 75 -13q7 -4 7 -16v-26q0 -11 -7 -15h-252q-7 4 -7 15v26q0 12 7 16q57 0 76 13v594q-19 13 -76 13q-7 4 -7 17v26q0 10 7 14h306q72 0 121.5 -11t81 -34t45.5 -58.5t14 -84.5z
M519 515q0 45 -9.5 75t-26.5 48t-41 25.5t-52 7.5h-98q-32 0 -63 -14v-278q25 -15 60 -15h65q42 0 73.5 7.5t51.5 25t30 46.5t10 72z" />
    <glyph glyph-name="Q" unicode="Q" horiz-adv-x="844" 
d="M441 -15q-88 0 -160 22.5t-123.5 69.5t-80 119.5t-28.5 171.5q0 90 26 160.5t74.5 119t117 74.5t154.5 26q81 0 150 -22t119.5 -68t79 -116t28.5 -167q0 -151 -65 -244t-177 -127q21 -64 46 -101.5t57 -56.5t72 -25t90 -7q6 -6 7 -12l9 -29q-10 -8 -25.5 -11.5
t-41.5 -3.5q-57 0 -106.5 10.5t-90.5 37t-74 70t-58 109.5zM433 46q60 0 107 17t80 54.5t50.5 97t17.5 144.5q0 92 -21 155t-58 102t-86.5 56t-106.5 17t-104.5 -16t-81 -53t-52.5 -96t-19 -144q0 -88 20 -151t56 -103.5t86.5 -60t111.5 -19.5z" />
    <glyph glyph-name="R" unicode="R" horiz-adv-x="732" 
d="M376 320h-89q-35 0 -60 -13v-237q19 -13 75 -13q7 -4 7 -16v-26q0 -11 -7 -15h-252q-7 4 -7 15v26q0 12 7 16q57 0 76 13v594q-19 13 -76 13q-7 4 -7 17v26q0 10 7 14h311q72 0 121.5 -11.5t81 -34t45.5 -56t14 -76.5q0 -48 -12 -83t-32.5 -59.5t-48.5 -41.5t-60 -30
l146 -205q10 -14 22.5 -28t26.5 -25.5t28.5 -19t28.5 -7.5q6 -9 6 -16v-26q0 -8 -6 -15h-207q-8 8 -8 15v26q11 2 21 13t12 24zM522 525q0 41 -9.5 69t-26.5 45t-41 24.5t-52 7.5h-103q-32 0 -63 -14v-259q25 -14 60 -14h70q85 0 125 30.5t40 110.5z" />
    <glyph glyph-name="S" unicode="S" horiz-adv-x="556" 
d="M296 748q71 0 113.5 -5.5t74.5 -17.5q4 -15 4 -33v-78q0 -20 -4 -31h-37q-4 0 -14 2q-9 31 -18 51t-24 32t-40 16.5t-65 4.5q-66 0 -100 -23t-34 -75q0 -20 3 -35t12 -28t25.5 -26t43.5 -29q62 -36 113.5 -64t88 -57.5t57 -66.5t20.5 -91q0 -42 -20 -79.5t-56 -66.5
t-85.5 -46t-107.5 -17q-69 0 -120 10t-80 33q0 18 0.5 41.5t2 47t3 43.5t4.5 30h53q3 -8 3 -16v-58q23 -42 61 -56t83 -14q32 0 62 9t53 25.5t37 40t14 53.5q0 41 -18 69t-58 51q-62 36 -114.5 64t-91 57t-60 66t-21.5 91q0 44 18.5 77t51 55t75.5 33t92 11z" />
    <glyph glyph-name="T" unicode="T" horiz-adv-x="683" 
d="M208 57q27 0 53 3t36 10v561q0 24 -4 37q-17 3 -38 3h-124q-8 -16 -17.5 -41.5t-20.5 -57.5q-7 -4 -17 -4h-24q-13 0 -20 4l11 136q0 11 3.5 18t5.5 12q25 -2 51 -3t55 -1h413q24 0 44 0.5t37 1.5q1 -6 1.5 -12.5t0.5 -13.5v-138q-4 -4 -14 -4h-23q-10 0 -17 4
q-6 69 -46 97h-114q-20 0 -38 -3q-3 -17 -3 -35v-561q10 -7 37.5 -10t54.5 -3q7 -4 7 -16v-26q0 -11 -7 -15h-283q-7 4 -7 15v26q0 12 7 16z" />
    <glyph glyph-name="U" unicode="U" horiz-adv-x="804" 
d="M697 360q0 -79 -8 -147.5t-37 -119t-85 -79.5t-153 -29t-159.5 29.5t-94.5 86.5q-23 42 -30 102t-7 129v332q-10 7 -30.5 10t-48.5 3q-6 4 -6 17v26q0 9 6 14h257q6 -5 6 -14v-26q0 -13 -6 -17q-58 0 -77 -13v-358q0 -65 7 -114t28 -81.5t60 -48.5t103 -16
q61 0 100.5 15.5t62 51.5t31 94.5t8.5 145.5v311q-10 7 -36.5 10t-53.5 3q-7 4 -7 17v26q0 10 7 14h241q7 -4 7 -14v-26q0 -13 -7 -17q-28 0 -48 -3t-30 -10v-304z" />
    <glyph glyph-name="V" unicode="V" horiz-adv-x="817" 
d="M501 33l-15 -33h-141l-10 16t-8 18l-209 620q-37 18 -93 23q-6 9 -6 17v26q0 6 5 14h252q5 -8 5 -14v-43q-16 -1 -30 -4t-22 -8l180 -573h43l147 458q9 28 16 53.5t11 49.5q-10 7 -29.5 13.5t-45.5 10.5v43q0 8 7 14h233q7 -6 7 -14v-26q0 -10 -3 -17q-61 -13 -91 -42z
" />
    <glyph glyph-name="W" unicode="W" horiz-adv-x="1084" 
d="M788 720q0 10 4 14h271q5 -8 5 -14v-26q0 -9 -5 -17q-49 0 -92 -20l-154 -642q-2 -9 -6 -15h-111q-6 6 -8 15l-140 502h-20l-145 -502q-2 -9 -8 -15h-116q-2 4 -4 7.5t-3 7.5l-139 642q-23 17 -94 20q-5 5 -5 16v26q0 11 4 15h294q3 -5 3 -14v-26q0 -4 -0.5 -8t-1.5 -9
q-26 -2 -48.5 -7t-42.5 -13l106 -548h20l118 463q11 46 30 85h112q7 -20 14.5 -41t13.5 -44l113 -463h18l119 548q-40 17 -96 20q-6 9 -6 17v26z" />
    <glyph glyph-name="X" unicode="X" horiz-adv-x="694" 
d="M266 15q0 -7 -5 -15h-249q-4 7 -4 15v26q0 3 0.5 7t1.5 9q29 3 58 10.5t56 30.5l176 280l-173 277q-16 9 -35 13.5t-58 8.5q-7 7 -7 16v27q0 10 4 14h261q5 -5 5 -14v-26q-41 -11 -61 -28l123 -217l132 215q-23 19 -63 30v26q0 6 5 14h244q6 -6 6 -14v-27q0 -9 -4 -16
q-26 -2 -51.5 -6.5t-48.5 -14.5l-177 -263l205 -319q18 -9 39 -12.5t45 -4.5q5 -8 5 -16v-26q0 -8 -3 -15h-259q-3 7 -3 15v42q35 5 50 24l-136 232l-140 -230q9 -9 24 -15.5t32 -10.5q4 -6 5 -16v-26z" />
    <glyph glyph-name="Y" unicode="Y" horiz-adv-x="741" 
d="M17 720q0 6 5 14h249q5 -5 5 -15v-42q-32 -9 -48 -25l153 -266l159 272q-25 19 -64 19v43q0 8 3 14h242q5 -8 5 -14v-26q0 -10 -3 -17q-61 -1 -103 -21l-181 -295q-9 -28 -12 -61t-3 -64v-166q19 -13 75 -13q7 -4 7 -16v-26q0 -11 -7 -15h-253q-7 4 -7 15v26q0 12 7 16
q56 0 75 13v181q0 32 -5.5 62.5t-22.5 62.5l-170 269q-39 27 -106 32v43v0z" />
    <glyph glyph-name="Z" unicode="Z" horiz-adv-x="604" 
d="M159 58q31 3 145 3h139q25 7 41.5 19t26.5 28t15.5 34t9.5 38q8 5 17 5h22q7 0 15 -3q-1 -51 -5 -94.5t-11 -81.5q-21 -6 -61 -6h-476q-4 4 -4 15v34l415 624q-5 -2 -13 -2h-21h-45h-191q-15 -6 -29 -20t-26 -30.5t-21 -34t-14 -30.5q-6 -2 -8 -2l-25 5q-9 2 -10 4l7 131
q1 25 9 43q45 -3 89 -3h415q5 -5 6 -14l3 -32z" />
    <glyph glyph-name="bracketleft" unicode="[" horiz-adv-x="379" 
d="M215 -103h98q3 -5 3 -13v-26q0 -7 -3 -13h-170q-7 24 -7 61v823q0 15 1.5 30.5t5.5 30.5h170q3 -5 3 -11v-26q0 -8 -4 -12h-97v-844z" />
    <glyph glyph-name="backslash" unicode="\" horiz-adv-x="520" 
d="M41 738q6 7 23 7h29q7 0 24 -5l364 -830q-7 -7 -22 -7h-29q-9 0 -22 5z" />
    <glyph glyph-name="bracketright" unicode="]" horiz-adv-x="378" 
d="M165 741h-98q-4 4 -4 12v26q0 6 3 11h170q4 -15 5.5 -30.5t1.5 -30.5v-823q0 -37 -7 -61h-170q-3 6 -3 13v26q0 8 3 13h99v844z" />
    <glyph glyph-name="asciicircum" unicode="^" horiz-adv-x="564" 
d="M289 734q10 0 16 -3l179 -383q-9 -6 -24 -6h-52q-7 8 -12 17t-9 17l-106 252l-109 -253q-6 -14 -13 -22t-24 -11h-32q-17 0 -24 7l161 349q5 10 10.5 20t10.5 16h28z" />
    <glyph glyph-name="underscore" unicode="_" horiz-adv-x="550" 
d="M584 -116q-15 -7 -34 -7h-551q-20 0 -35 7v54q15 7 35 7h551q19 0 34 -7v-54z" />
    <glyph glyph-name="grave" unicode="`" horiz-adv-x="492" 
d="M163 744q15 -3 21 -9l135 -120q-3 -8 -23 -25q-72 29 -121.5 55t-57.5 51l46 48v0z" />
    <glyph glyph-name="a" unicode="a" horiz-adv-x="545" 
d="M275 533q85 0 129.5 -40.5t44.5 -118.5v-203q0 -54 7 -77t36 -23q20 0 43 3q3 -8 3 -14v-24q0 -8 -3 -17q-17 -8 -41 -14.5t-55 -11.5q-30 0 -48.5 18t-26.5 47q-30 -38 -75 -54t-90 -16q-41 0 -70 11t-48 29t-28 41.5t-9 49.5q0 51 24 84t65.5 53.5t97.5 31.5t121 19v69
q0 90 -107 90q-23 0 -46 -4t-40 -15q-11 -26 -14 -49q-11 -11 -24 -19.5t-29 -15.5q-29 0 -29 32q0 16 1.5 31t3.5 29q6 13 27 27t50.5 25t63.5 18.5t66 7.5zM231 62q42 0 74.5 18.5t48.5 46.5v128q-44 -8 -83 -16t-68 -21.5t-46 -34t-17 -52.5t21 -50.5t70 -18.5z" />
    <glyph glyph-name="b" unicode="b" horiz-adv-x="596" 
d="M348 533q107 0 157.5 -67.5t50.5 -187.5q0 -78 -15 -132.5t-49.5 -88t-91 -49t-138.5 -15.5q-20 0 -44.5 1t-47.5 4t-43 7t-32 10q-1 13 -1.5 25t-0.5 25v643q-14 7 -35 11t-50 5v32q0 3 2 13q42 11 88.5 15t89.5 4q1 -10 1.5 -20t0.5 -21v-255q25 19 67.5 30t90.5 11z
M322 465q-38 0 -76.5 -11t-58.5 -31v-328q22 -15 53.5 -27.5t76.5 -12.5q37 0 64 10t45 33.5t27 63t9 98.5q0 96 -31.5 150.5t-108.5 54.5z" />
    <glyph glyph-name="c" unicode="c" horiz-adv-x="498" 
d="M298 532q63 0 107 -14.5t61 -34.5q2 -7 3.5 -15.5t1.5 -20.5q0 -23 -5 -37.5t-22 -14.5q-25 0 -42 4q-5 13 -11 25t-18.5 22t-34 16t-57.5 6q-73 0 -106.5 -46t-33.5 -151q0 -63 10.5 -103t30.5 -62.5t50.5 -31t69.5 -8.5q45 0 78 12t59 43q7 -1 14 -5l19 -14
q2 -2 3.5 -4.5t3.5 -5.5q-6 -29 -26.5 -48.5t-49.5 -32t-64 -18t-69 -5.5q-115 0 -171.5 62t-56.5 200q0 73 18.5 126t52 87.5t80.5 51.5t105 17z" />
    <glyph glyph-name="d" unicode="d" horiz-adv-x="607" 
d="M506 788q1 -10 1.5 -20t0.5 -21v-667q37 -18 86 -24v-26q0 -8 -3 -15q-61 -4 -153 -22q-7 9 -12 28t-7 39q-12 -17 -30.5 -30t-41 -22.5t-48 -14.5t-50.5 -5q-48 0 -86.5 13.5t-65 43.5t-40.5 78t-14 117q0 152 70.5 222.5t197.5 70.5q27 0 55 -7t45 -18v200
q-14 7 -35 11t-50 5v32q0 3 0.5 6t1.5 7q42 11 89 15t89 4zM280 62q48 0 83 21.5t48 53.5v275q-18 31 -53 45t-70 14q-40 0 -68 -11t-45.5 -36t-25.5 -64t-8 -95q0 -108 32 -155.5t107 -47.5z" />
    <glyph glyph-name="e" unicode="e" horiz-adv-x="520" 
d="M283 533q43 0 81 -10t66 -34t44.5 -63.5t16.5 -97.5q0 -14 -2 -27.5t-7 -21.5h-344q1 -44 8.5 -82.5t27 -67.5t52.5 -46t86 -17q45 0 78 12t59 43q7 -1 14 -5l18 -14q7 -7 8 -10q-6 -29 -26.5 -48.5t-49.5 -32t-64 -18t-69 -5.5q-60 0 -104.5 19t-74 54t-44.5 84.5
t-15 111.5q0 144 61.5 210t179.5 66zM276 473q-26 0 -50 -7.5t-43 -24t-30.5 -43t-12.5 -63.5h214q23 0 31.5 5t8.5 31q0 54 -33.5 78t-84.5 24z" />
    <glyph glyph-name="f" unicode="f" horiz-adv-x="340" 
d="M223 460q-5 -10 -6.5 -21.5t-1.5 -25.5v-330q21 -23 105 -27q5 -8 5 -15v-25q0 -8 -5 -16h-283q-6 7 -6 16v25q0 8 6 16q59 5 82 26v350q0 17 -10 27h-46q-8 0 -13.5 3.5t-5.5 14.5v24q0 12 4 19h66q5 15 5 30q0 43 10 86.5t32.5 77.5t58.5 55.5t89 21.5q42 0 68 -15
t43 -46q0 -8 -0.5 -19t-2.5 -21t-6.5 -17t-11.5 -7q-10 0 -22.5 1.5t-23.5 5.5q-2 9 -5 17.5t-10.5 15.5t-20.5 11t-35 4q-41 0 -54 -42t-13 -109v-12q0 -28 8 -38h123q6 -6 6 -19v-24q0 -11 -6 -18h-123z" />
    <glyph glyph-name="g" unicode="g" horiz-adv-x="559" 
d="M271 528q63 0 116 -3t101 -10q24 0 33 3q5 -13 5 -24v-36q0 -15 -6 -28h-35v-391q0 -44 -8.5 -93.5t-34 -91t-72 -69t-122.5 -27.5q-66 0 -102 15t-53 44q0 8 0.5 19t2.5 21t6 17t12 7q25 0 46 -7q1 -9 5.5 -17t16.5 -15t34.5 -11t59.5 -4q40 0 62.5 17t33.5 44.5
t13.5 61.5t2.5 68v48q-23 -16 -65.5 -27.5t-87.5 -11.5q-56 0 -92.5 18t-59 49.5t-31.5 74t-9 90.5q0 65 11.5 115t38.5 84.5t70.5 52t107.5 17.5zM272 465q-33 0 -58.5 -7t-42 -27t-25 -55t-8.5 -91q0 -52 7 -87.5t23 -57.5t43 -31.5t68 -9.5q15 0 31 2.5t31 7t27.5 10
t19.5 12.5v308q-29 14 -58 20t-58 6z" />
    <glyph glyph-name="h" unicode="h" horiz-adv-x="638" 
d="M383 533q46 0 75 -16.5t45 -46t21.5 -70t5.5 -88.5v-238q22 -13 79 -18q5 -8 5 -15v-25q0 -8 -5 -16h-216q-6 7 -6 16v25q12 4 25 12.5t21 17.5v230q0 34 -2.5 63t-11 50.5t-24.5 33.5t-44 12q-38 0 -77.5 -20t-71.5 -58v-299q21 -23 79 -27q5 -8 5 -15v-25q0 -8 -5 -16
h-254q-6 7 -6 16v25q0 8 6 16q51 4 79 26v625q-14 7 -35 11t-50 5v32q0 3 2 13q42 11 88.5 15t88.5 4q1 -10 1.5 -20t0.5 -21v-291q47 41 90 59t91 18z" />
    <glyph glyph-name="i" unicode="i" horiz-adv-x="329" 
d="M162 782q31 0 48 -18.5t17 -48.5q0 -33 -18 -51.5t-50 -18.5q-29 0 -47 18.5t-18 51.5q0 30 18.5 48.5t49.5 18.5zM220 83q23 -23 86 -27q5 -8 5 -15v-25q0 -8 -5 -16h-263q-6 7 -6 16v25q0 8 6 16q54 4 82 26v367q-14 7 -35 11t-50 5v32q0 12 1 13q42 11 88.5 15t88.5 4
q1 -10 1.5 -20t0.5 -21v-406z" />
    <glyph glyph-name="j" unicode="j" horiz-adv-x="299" 
d="M230 530q1 -10 1.5 -20t0.5 -21v-473q0 -59 -7 -106.5t-25 -81.5t-49 -52t-80 -18q-17 0 -33 5t-30 13.5t-24 19t-14 21.5q0 8 1.5 19t4.5 21t6.5 17t8.5 7q13 0 25.5 -2t21.5 -5q1 -26 14 -41t30 -15q29 0 41.5 37t12.5 122v473q-14 7 -40 11t-55 5v32q0 12 1 13
q42 11 94 15t94 4zM176 782q30 0 47.5 -18.5t17.5 -48.5q0 -33 -18 -51.5t-50 -18.5q-30 0 -47.5 18.5t-17.5 51.5q0 30 18 48.5t50 18.5z" />
    <glyph glyph-name="k" unicode="k" horiz-adv-x="593" 
d="M199 83q22 -22 86 -27q5 -8 5 -15v-25q0 -8 -5 -16h-263q-6 7 -6 16v25q0 8 6 16q53 4 81 26v625q-14 7 -36 11t-51 5v32q0 12 1 13q42 11 90 15t90 4q1 -10 1.5 -20t0.5 -21v-450q20 4 41.5 12t44.5 19q24 24 46 55.5t41 71.5q-25 11 -64 11q-5 5 -5 14v25q0 8 5 16h252
q5 -8 5 -16v-25q0 -4 -5 -12q-53 -4 -100 -18q-28 -25 -60 -63.5t-70 -92.5l173 -210q46 -28 102 -28q4 -7 4 -15v-25q0 -9 -4 -16h-223q-4 7 -4 16v16q7 3 15.5 9.5t10.5 14.5l-143 183q-18 7 -39 7q-5 0 -11 -0.5t-12 -1.5v-161z" />
    <glyph glyph-name="l" unicode="l" horiz-adv-x="308" 
d="M201 83q21 -22 86 -27q5 -8 5 -15v-25q0 -8 -5 -16h-264q-6 7 -6 16v25q0 8 6 16q54 4 82 26v625q-14 7 -35 11t-50 5v32q0 12 1 13q42 11 89 15t89 4q1 -10 1.5 -20t0.5 -21v-664z" />
    <glyph glyph-name="m" unicode="m" horiz-adv-x="942" 
d="M215 83q21 -22 86 -27q4 -9 4 -15v-25q0 -7 -4 -16h-264q-6 7 -6 16v25q0 8 6 16q54 4 82 26v367q-14 7 -35 11t-50 5v32q0 12 1 13q42 11 84 15t84 4q1 -10 1.5 -20t0.5 -21v-33q47 41 85 59t86 18q58 0 88 -25.5t44 -68.5q28 28 50 46.5t42.5 29t40 14.5t42.5 4
q47 0 76 -16.5t44.5 -46t21 -70t5.5 -88.5v-238q23 -14 80 -18q5 -8 5 -15v-25q0 -8 -5 -16h-216q-6 7 -6 16v25q14 3 25.5 11.5t19.5 18.5v230q0 34 -2.5 63t-10.5 50.5t-24.5 33.5t-44.5 12q-38 0 -67.5 -20.5t-63.5 -62.5q3 -32 3 -65v-238q22 -13 79 -18q5 -8 5 -15v-25
q0 -8 -5 -16h-215q-6 7 -6 16v25q13 3 25 11.5t20 18.5v230q0 34 -2.5 63t-11 50.5t-24.5 33.5t-44 12q-38 0 -67.5 -20t-61.5 -58v-299v0z" />
    <glyph glyph-name="n" unicode="n" horiz-adv-x="654" 
d="M216 83q23 -23 86 -27q5 -8 5 -15v-25q0 -8 -5 -16h-263q-6 7 -6 16v25q0 8 6 16q54 4 82 26v367q-14 7 -35 11t-50 5v32q0 12 1 13q42 11 84 15t84 4q1 -10 1.5 -20t0.5 -21v-33q48 42 95 59.5t95 17.5q47 0 76 -16.5t45 -46t21.5 -70t5.5 -88.5v-238q21 -14 79 -18
q5 -8 5 -15v-25q0 -8 -5 -16h-216q-6 7 -6 16v25q14 2 27 11t19 19v230q0 34 -2.5 63t-11 50.5t-24.5 33.5t-44 12q-38 0 -78 -20t-72 -58v-299v0z" />
    <glyph glyph-name="o" unicode="o" horiz-adv-x="582" 
d="M291 -18q-126 0 -187.5 68.5t-61.5 203.5q0 144 64.5 211.5t187.5 67.5q125 0 186 -69t61 -203q0 -144 -65 -211.5t-185 -67.5zM294 45q43 0 71.5 13t45 38t23.5 60t7 79q0 54 -7.5 97.5t-24.5 75t-46 48.5t-72 17t-72 -13.5t-46 -38.5t-24.5 -61t-7.5 -80
q0 -54 7.5 -97.5t25 -74t47 -47t73.5 -16.5z" />
    <glyph glyph-name="p" unicode="p" horiz-adv-x="610" 
d="M203 -160q5 -6 17 -10.5t28 -7.5t33.5 -5.5t32.5 -3.5q5 -8 5 -15v-24q0 -8 -5 -16h-289q-6 7 -6 16v24q0 8 6 16q54 4 82 26v610q-14 7 -35 11t-50 5v32q0 12 1 13q42 11 84 15t85 4q1 -10 1.5 -20t0.5 -21v-33q29 33 73.5 55t95.5 22q56 0 95 -17.5t63.5 -49.5
t35.5 -77.5t11 -100.5q0 -80 -16 -137t-48 -93t-79 -53t-109 -17q-35 0 -63.5 7t-49.5 18v-173zM341 462q-39 0 -75 -22.5t-63 -57.5v-284q17 -21 47 -33t72 -12q35 0 63 10t47.5 34.5t30 66.5t10.5 106q0 103 -33 147.5t-99 44.5z" />
    <glyph glyph-name="q" unicode="q" horiz-adv-x="589" 
d="M291 528q63 0 116 -3t101 -10q24 0 33 3q5 -13 5 -24v-36q0 -15 -6 -28h-35v-590q11 -11 31 -18t52 -9q4 -7 4 -15v-24q0 -9 -4 -16h-287q-5 8 -5 16v24q0 8 5 16q13 1 29 3t31 5.5t27.5 7.5t19.5 10v187q-23 -16 -65.5 -28t-87.5 -12q-56 0 -96 17.5t-65.5 50.5
t-38 79.5t-12.5 104.5q0 289 248 289zM292 465q-36 0 -64.5 -7.5t-48.5 -29t-30.5 -61t-10.5 -102.5q0 -114 40 -160t121 -46q15 0 31 2.5t31 7t27.5 10.5t19.5 13v347q-29 14 -58 20t-58 6z" />
    <glyph glyph-name="r" unicode="r" horiz-adv-x="475" 
d="M373 534q27 0 45 -9.5t28.5 -22.5t15 -27t4.5 -22q-2 -11 -5.5 -22.5t-8 -21t-10 -15.5t-11.5 -6q-11 0 -26 5.5t-22 9.5q-5 20 -15.5 31.5t-36.5 11.5q-29 0 -59.5 -26t-51.5 -83v-254q11 -11 37.5 -18t58.5 -9q5 -8 5 -15v-25q0 -8 -5 -16h-273q-5 8 -5 16v25q0 8 5 16
q56 5 82 26v367q-14 7 -36 11t-51 5v32q0 12 1 13q42 11 85 15t85 4q1 -10 1.5 -20t0.5 -21v-68q10 24 27.5 44.5t39.5 36t46.5 24t48.5 8.5z" />
    <glyph glyph-name="s" unicode="s" horiz-adv-x="470" 
d="M369 376q-3 0 -13 2q-11 34 -19.5 53.5t-20 29t-29 12t-46.5 2.5q-40 0 -66 -16.5t-26 -50.5q0 -24 21 -41t53 -32.5t69 -31t69 -36.5t53 -50t21 -70q0 -39 -19.5 -69t-50 -50t-69 -30t-77.5 -10q-17 0 -40.5 2.5t-47 6.5t-44 10t-29.5 13q-9 42 -10.5 78.5t-1.5 61.5
q7 3 13 3h24q9 0 17 -3q9 -33 18.5 -55t23.5 -35.5t34.5 -19t51.5 -5.5q16 0 36.5 5t38.5 15.5t30 26t12 35.5q0 33 -20.5 53t-52 35.5t-67.5 29t-67.5 32.5t-52 46.5t-20.5 70.5q0 34 13.5 60t38.5 43.5t59 26.5t75 9q31 0 58 -2t47 -8t31.5 -16t11.5 -25l6 -85
q0 -13 -4 -21h-32z" />
    <glyph glyph-name="t" unicode="t" horiz-adv-x="355" 
d="M22 460q-3 6 -3 13l3 33q2 10 7 15h64v122q2 5 7.5 11.5t10.5 8.5l53 27q18 -4 26 -19v-150h87q16 0 27.5 0.5t19.5 1.5q3 -8 3 -15v-28q0 -12 -4 -20h-133v-337q0 -39 14 -52.5t43 -13.5q32 0 49 4t29 11q8 -5 9 -10l10 -25q3 -8 3 -14q-5 -7 -18.5 -13.5t-31 -12
t-37 -8.5t-36.5 -3q-35 0 -59.5 8t-40.5 27t-23.5 50t-7.5 77v312h-71z" />
    <glyph glyph-name="u" unicode="u" horiz-adv-x="635" 
d="M214 220q0 -29 1.5 -58t8.5 -51.5t22 -36.5t43 -14q24 0 46.5 8.5t42 21t34.5 26.5t25 25v309q-14 7 -35 11t-50 5v32q0 12 1 13q42 11 89 15t90 4q1 -10 1.5 -20t0.5 -21v-409q37 -18 86 -24v-26q0 -8 -3 -15q-32 -2 -69 -7.5t-85 -14.5q-3 4 -6 13.5t-5.5 21t-4.5 23.5
t-3 22q-14 -12 -32.5 -27t-42 -27.5t-51.5 -21.5t-60 -9q-76 0 -108 43.5t-32 146.5v272q-14 7 -35 11t-50 5v32q0 12 1 13q42 11 89 15t89 4q1 -10 1.5 -20t0.5 -21v-269z" />
    <glyph glyph-name="v" unicode="v" horiz-adv-x="560" 
d="M574 521q3 -6 3 -16v-21q0 -12 -4 -19q-42 -4 -75 -23l-133 -406q-8 -21 -18 -36h-111q-7 9 -11 18t-7 18l-137 415q-14 5 -35 9t-43 5q-5 8 -5 16v24q0 8 6 16h248q5 -8 5 -16v-34q-17 -4 -34.5 -8.5t-35.5 -11.5l108 -358h24l104 358q-21 7 -40 12t-36 8v34q0 8 5 16
h222v0z" />
    <glyph glyph-name="w" unicode="w" horiz-adv-x="807" 
d="M318 31q-5 -15 -17 -31h-96q-5 8 -8 15.5t-5 15.5l-108 420q-14 5 -31 9t-38 5q-5 8 -5 16v24q0 8 6 16h246q5 -8 5 -16v-34q-17 -4 -38 -8.5t-39 -11.5l70 -358h18l78 307q4 16 10.5 31.5t14.5 29.5h91q2 -12 11.5 -27.5t14.5 -33.5l83 -307h17l70 358q-20 7 -46.5 12
t-43.5 8v34q0 8 5 16h234q2 -10 2 -16v-21q0 -12 -3 -19q-22 -2 -39.5 -8t-33.5 -15l-102 -411q-3 -15 -15 -31h-98q-4 8 -7.5 15.5t-5.5 15.5l-85 313h-20z" />
    <glyph glyph-name="x" unicode="x" horiz-adv-x="580" 
d="M24 505q0 8 5 16h238q6 -6 6 -16v-34q-25 -5 -46 -26l74 -117l77 117q-20 21 -52 26v34q0 8 6 16h225q6 -6 6 -16v-25q0 -7 -4 -14q-71 -6 -107 -23l-113 -156l143 -212q30 -16 95 -19q5 -8 5 -15v-25q0 -9 -6 -16h-250q-7 7 -7 16v33q29 7 46 37l-84 130l-80 -126
q3 -8 13 -21.5t30 -19.5v-33q0 -8 -8 -16h-225q-6 7 -6 16v25q0 6 4 13q80 9 109 26l126 182l-126 188q-40 13 -94 21v34z" />
    <glyph glyph-name="y" unicode="y" horiz-adv-x="559" 
d="M87 451q-14 5 -36 9t-44 5q-5 8 -5 16v24q0 8 6 16h246q5 -8 5 -16v-34q-17 -4 -33.5 -8.5t-32.5 -11.5l111 -335l125 335q-21 7 -42 12t-38 8v34q0 8 5 16h223q3 -6 3 -16v-21q0 -12 -4 -19q-21 -2 -38.5 -8t-33.5 -15l-181 -442q-19 -46 -37.5 -89.5t-39.5 -77.5
t-45 -54.5t-53 -20.5q-38 0 -62 14.5t-33 34.5q1 9 4 20t7.5 22t9.5 19.5t11 12.5q8 -1 15 -2t14 -3q2 -11 8.5 -19.5t20.5 -8.5q16 0 30.5 7t27.5 24t26 45.5t27 71.5z" />
    <glyph glyph-name="z" unicode="z" horiz-adv-x="482" 
d="M461 163q5 0 13 -2q-1 -40 -6.5 -80.5t-14.5 -75.5q-7 -2 -18.5 -3.5t-34.5 -1.5h-360q-4 7 -4 16v33l301 413q-26 -1 -51.5 -1.5t-52.5 -0.5h-58q-15 -6 -28.5 -17.5t-24.5 -26t-19.5 -30t-13.5 -28.5q-6 -2 -8 -2l-25 5q-8 3 -10 5l5 114q2 25 9 44q45 -3 89 -3h297
q7 -4 7 -13v-30l-303 -414q69 3 127 3h71q31 12 49.5 38.5t26.5 55.5q8 2 15 2h22z" />
    <glyph glyph-name="braceleft" unicode="{" horiz-adv-x="384" 
d="M218 24q0 -44 3 -71q5 -18 14.5 -27.5t22.5 -14.5t28 -7.5t32 -6.5q4 -4 4 -13v-23q0 -9 -4 -16q-66 0 -113.5 21.5t-61.5 73.5v244q0 52 -11.5 71.5t-32.5 22.5h-20q-7 10 -7 20v34q0 15 7 22h20q31 6 37.5 34.5t6.5 87.5v216q7 30 25.5 49.5t42.5 30t52 14.5t55 4
q4 -7 4 -15v-26q0 -10 -4 -17h-54q-33 -6 -39.5 -39.5t-6.5 -98.5v-199q-5 -29 -20 -47.5t-41 -32.5q29 -17 42.5 -35.5t18.5 -44.5v-211z" />
    <glyph glyph-name="bar" unicode="|" horiz-adv-x="297" 
d="M185 -150q-11 -9 -21 -9h-30q-12 0 -22 9v932q10 7 20 7h30q13 0 23 -7v-932z" />
    <glyph glyph-name="braceright" unicode="}" horiz-adv-x="385" 
d="M165 235q5 26 19 44.5t42 35.5q-25 14 -40.5 32.5t-20.5 47.5v199q0 65 -6.5 98.5t-38.5 39.5h-55q-4 7 -4 17v26q0 8 4 15q27 0 55 -4t52 -14.5t42 -30t26 -49.5v-216q0 -59 6.5 -87.5t38.5 -34.5h19q7 -7 7 -22v-34q0 -10 -7 -20h-19q-21 -3 -33 -22.5t-12 -71.5v-244
q-14 -52 -61.5 -73.5t-113.5 -21.5q-4 7 -4 16v23q0 9 4 13q16 4 31.5 6.5t28.5 7.5t22.5 14.5t14.5 27.5q3 27 3 71v211z" />
    <glyph glyph-name="asciitilde" unicode="~" horiz-adv-x="602" 
d="M79 241q-5 8 -11 23.5t-6 34.5q17 45 52.5 74.5t80.5 29.5q39 0 66 -13t49.5 -28.5t45 -28.5t52.5 -13q27 0 54.5 20t58.5 68q8 -7 13 -23.5t7 -33.5q-23 -48 -58 -77.5t-86 -29.5q-30 0 -55.5 13t-50 28.5t-49.5 28.5t-53 13q-15 0 -27.5 -5.5t-25 -16.5t-26 -27
t-31.5 -37z" />
    <glyph glyph-name="uni00A0" unicode="&#xa0;" horiz-adv-x="489" 
 />
    <glyph glyph-name="exclamdown" unicode="&#xa1;" horiz-adv-x="321" 
d="M133 -117q-29 0 -42 21q5 70 13.5 192.5t19.5 300.5q1 8 3 16l4 16h59q4 -8 5.5 -16t2.5 -16q9 -178 16 -300.5t14 -192.5q-17 -21 -39 -21h-56zM160 530q-27 0 -44 16.5t-17 45.5q0 30 17 46.5t44 16.5q30 0 47 -16.5t17 -46.5q0 -29 -17 -45.5t-47 -16.5z" />
    <glyph glyph-name="cent" unicode="&#xa2;" horiz-adv-x="498" 
d="M301 642q57 -2 97 -16t57 -33q5 -15 5 -35q0 -23 -5 -37.5t-22 -14.5q-25 0 -42 4q-5 13 -11 25t-18.5 21.5t-34 15.5t-57.5 6q-73 0 -106.5 -45.5t-33.5 -150.5q0 -63 10.5 -103t31 -62.5t50.5 -31t70 -8.5q45 0 77.5 12t58.5 41q7 -1 14 -5l19 -13q7 -7 8 -10
q-6 -24 -22 -41.5t-38.5 -30t-50 -19.5t-57.5 -10v-92q-9 -9 -20 -9h-30q-13 0 -23 9v91q-100 8 -148.5 70t-48.5 191q0 126 53.5 193.5t143.5 82.5v91q10 6 21 6h30q13 0 22 -6v-86z" />
    <glyph glyph-name="sterling" unicode="&#xa3;" horiz-adv-x="624" 
d="M444 748q36 0 67.5 -6.5t66.5 -33.5q2 -22 3 -43.5t1 -44.5q0 -14 -10 -24h-58q-4 21 -7.5 37t-10 27t-17.5 17t-30 8q-51 0 -88.5 -53.5t-54.5 -173.5q-4 -28 -9 -54t-13 -52h149v-54q-13 -7 -30 -7h-134q-10 -32 -21.5 -57t-25 -47t-29 -41.5t-33.5 -40.5
q18 6 34.5 8.5t31.5 2.5q33 0 63 -10.5t61 -23t64.5 -23t72.5 -10.5q28 17 47 59q27 7 53 9q6 -25 8 -44.5t2 -36.5q-52 -30 -87.5 -37.5t-69.5 -7.5q-48 0 -82 10t-64.5 22t-62 22t-73.5 10q-32 0 -59 -16.5t-47 -43.5q-18 19 -27 48q13 23 32 37.5t39 21.5
q29 42 50.5 85.5t39.5 103.5h-89v42q0 11 6 19h95q5 23 9.5 47.5t7.5 50.5q8 65 23 119.5t41 94.5t66 62t99 22z" />
    <glyph glyph-name="yen" unicode="&#xa5;" horiz-adv-x="594" 
d="M519 272h-173v-202q19 -13 75 -13q7 -4 7 -16v-26q0 -11 -7 -15h-252q-7 4 -7 15v26q0 12 7 16q55 0 74 13v202h-144q-23 0 -37 7v69h178q-6 38 -25 80l-131 217q-13 14 -33.5 22t-42.5 10v43q0 6 5 14h219q5 -5 5 -15v-42q-31 -9 -46 -25l111 -208l120 214
q-25 19 -63 19v43q0 8 3 14h212q5 -8 5 -14v-26q0 -10 -3 -17q-20 -1 -37.5 -6t-35.5 -15l-136 -229q-8 -17 -12.5 -37t-6.5 -42h134q24 0 37 -7v-69z" />
    <glyph glyph-name="brokenbar" unicode="&#xa6;" horiz-adv-x="297" 
d="M185 436q-11 -9 -21 -9h-30q-12 0 -22 9v346q10 7 20 7h30q13 0 23 -7v-346zM185 -150q-11 -9 -21 -9h-30q-12 0 -22 9v347q10 6 20 6h30q12 0 23 -6v-347z" />
    <glyph glyph-name="section" unicode="&#xa7;" horiz-adv-x="469" 
d="M364 636q-7 -7 -23 -7q-13 15 -24.5 27.5t-25 20.5t-31.5 12.5t-43 4.5q-21 0 -36 -14t-15 -39q0 -26 18 -45t45 -35.5t59 -33t59 -37.5t45 -48.5t18 -66.5q0 -45 -25 -79.5t-65 -49.5q29 -23 48 -51.5t19 -70.5q0 -33 -13.5 -59t-37.5 -44t-57 -27t-71 -9
q-24 0 -46.5 2.5t-41.5 7t-32 10.5t-17 13q-5 20 -6.5 48t-1.5 54l24 -1q10 -17 25 -31t32.5 -24.5t36.5 -16.5t38 -6q15 0 29 4.5t25 13.5t18 22.5t7 30.5q0 19 -8.5 34.5t-22 28t-30.5 22.5t-33 18q-28 14 -54 29.5t-45.5 35t-31.5 45t-12 58.5q0 45 26 77t71 46
q-30 21 -52 48t-22 73q0 54 36.5 87.5t111.5 33.5q42 0 74 -6.5t43 -17.5q12 -42 15 -88zM204 464q-28 -5 -44 -22.5t-16 -46.5q0 -19 9 -34t24 -27.5t34.5 -24t41.5 -23.5q30 3 48.5 22t18.5 51q0 22 -11 39t-28 29.5t-37.5 21.5t-39.5 15z" />
    <glyph glyph-name="dieresis" unicode="&#xa8;" horiz-adv-x="419" 
d="M103 615q-27 0 -42.5 15t-15.5 41t15.5 41.5t42.5 15.5q26 0 42 -15.5t16 -41.5t-16 -41t-42 -15zM311 615q-26 0 -42 15t-16 41t16 41.5t42 15.5q27 0 42.5 -15.5t15.5 -41.5t-15.5 -41t-42.5 -15z" />
    <glyph glyph-name="copyright" unicode="&#xa9;" horiz-adv-x="828" 
d="M417 41q70 0 123.5 24t89 67t53.5 102.5t18 131.5q0 88 -25 150t-65.5 100t-91 55.5t-102.5 17.5q-60 0 -112.5 -19.5t-91.5 -59.5t-61.5 -101t-22.5 -143q0 -92 25.5 -154t66.5 -100t92.5 -54.5t103.5 -16.5zM416 746q82 0 148 -26t112 -75t70.5 -119.5t24.5 -160.5
q0 -89 -23.5 -159t-69 -119.5t-111.5 -75.5t-151 -26q-84 0 -151 26.5t-113 75.5t-70.5 119.5t-24.5 158.5q0 89 25.5 159.5t72.5 120t113.5 75.5t147.5 26zM437 585q48 0 82 -11t47 -26q3 -11 3 -28q0 -18 -3.5 -29t-15.5 -11q-15 0 -33 3q-3 10 -8 19.5t-14.5 17t-26.5 12
t-44 4.5q-57 0 -82.5 -35t-25.5 -116q0 -49 8 -80t23.5 -48.5t39 -24t54.5 -6.5q34 0 59.5 9.5t45.5 33.5l6 -2t5 -2l13 -11q4 -3 6 -8q-5 -21 -20.5 -36t-38 -24t-49 -13.5t-52.5 -4.5q-90 0 -133.5 47.5t-43.5 153.5q0 111 54 163.5t144 52.5z" />
    <glyph glyph-name="ordfeminine" unicode="&#xaa;" horiz-adv-x="416" 
d="M211 748q57 0 89.5 -31.5t32.5 -94.5v-150q0 -21 1 -34t6.5 -20.5t16.5 -10.5t31 -3q7 0 10 2q4 -4 4 -12v-24q0 -11 -11 -18t-25 -11t-26 -5.5t-14 -1.5q-23 0 -36 14.5t-21 37.5q-43 -55 -114 -55q-60 0 -88 29.5t-28 74.5q0 35 15 59t42.5 40.5t67 27.5t87.5 19v33
q0 44 -17.5 59t-48.5 15q-32 0 -42.5 -12t-13.5 -36q-20 -16 -32 -21.5t-18 -5.5q-24 0 -24 26q0 11 1 23t3 23q4 10 18 21t34.5 20.5t46 15.5t53.5 6zM181 397q48 0 72 40v92q-63 -11 -98 -27.5t-35 -53.5q0 -51 61 -51z" />
    <glyph glyph-name="guillemotleft" unicode="&#xab;" horiz-adv-x="464" 
d="M225 446q7 -6 9 -11l-99 -145l78 -107q6 -10 11 -21.5t5 -19.5l-28 -28q-5 5 -9.5 9t-7.5 7l-129 160l130 161q7 10 19 15zM400 446q7 -6 9 -11l-100 -145l78 -107q7 -10 12 -21.5t5 -19.5l-28 -28q-6 5 -10.5 9t-7.5 7l-129 160l130 161q7 10 20 15z" />
    <glyph glyph-name="registered" unicode="&#xae;" horiz-adv-x="640" 
d="M324 194q55 0 96 18.5t68 51.5t40.5 78.5t13.5 100.5q0 67 -19 114.5t-50 77t-70 43t-79 13.5q-47 0 -87 -15.5t-70 -46t-47 -77t-17 -109.5q0 -71 19.5 -118.5t51 -76.5t71 -41.5t79.5 -12.5zM322 746q66 0 118.5 -20.5t89 -59.5t56 -95.5t19.5 -128.5
q0 -142 -73.5 -222t-209.5 -80q-67 0 -120 21t-89.5 60t-56 95t-19.5 126q0 71 20.5 127.5t57.5 95.5t89.5 60t117.5 21zM318 420q-22 0 -40 -7v-60q8 -4 19.5 -5.5t11.5 -11.5v-16q0 -6 -4 -9h-115q-4 3 -4 9v16q0 5 4 7.5t9 4t9.5 2.5t6.5 3v202q-2 1 -6.5 2t-9.5 2.5
t-9 4t-4 7.5v17q0 4 4 7h146q54 0 83.5 -16.5t29.5 -61.5q0 -38 -20.5 -59t-53.5 -26l43 -58q8 -11 24 -19t37 -9q4 -7 4 -10v-16q0 -4 -4 -9h-132q-5 5 -5 9v16q13 5 17 17zM387 519q0 14 -12 27t-46 13q-26 0 -34.5 -2t-16.5 -7v-85q14 -10 29 -10q26 0 42 3.5t24.5 11.5
t11 20t2.5 29z" />
    <glyph glyph-name="degree" unicode="&#xb0;" horiz-adv-x="384" 
d="M197 533q49 0 71 30.5t22 75.5q0 51 -26 80.5t-74 29.5q-49 0 -71.5 -29t-22.5 -75q0 -23 6 -43t18.5 -35.5t31.5 -24.5t45 -9zM37 641q0 32 9.5 61t28.5 50.5t48 34.5t69 13q77 0 117 -44t40 -112q0 -33 -10 -62.5t-29.5 -52t-49 -35.5t-68.5 -13q-41 0 -70.5 13
t-48 35.5t-27.5 51t-9 60.5z" />
    <glyph glyph-name="twosuperior" unicode="&#xb2;" horiz-adv-x="385" 
d="M184 859q82 0 115.5 -35.5t33.5 -98.5q0 -57 -26.5 -101t-71.5 -79q-18 -14 -36.5 -29.5t-35 -32t-30 -32.5t-20.5 -30h155q17 9 25 23.5t16 44.5q7 6 15 6h12q7 0 18 -8q-1 -35 -5 -66.5t-11 -60.5q-7 -3 -15 -4t-16 -1h-276q-10 16 -10 32q15 34 38.5 64.5t50.5 58.5
t54 54.5t49 52t35.5 50.5t13.5 52q0 50 -23.5 67t-66.5 17q-24 0 -44 -4t-35 -16q-3 -8 -3.5 -19.5t-1 -22t-4 -18t-12.5 -7.5h-17q-8 0 -11.5 13t-3.5 31v62q11 10 28 17t37 11.5t40.5 6.5t38.5 2z" />
    <glyph glyph-name="threesuperior" unicode="&#xb3;" horiz-adv-x="393" 
d="M172 860q75 0 116.5 -29.5t41.5 -92.5q0 -36 -16.5 -66t-46.5 -45q40 -14 61.5 -43.5t21.5 -75.5q0 -85 -45.5 -124t-147.5 -39q-45 0 -79.5 10.5t-46.5 29.5q0 44 3 103q6 6 17 6h12q9 0 14 -5q10 -45 26 -68.5t55 -23.5q54 0 85 21t31 79q0 39 -20 62t-49 30h-55
q-10 4 -10 18v20q0 9 7 16q55 0 82 18t27 66q0 42 -21.5 60.5t-69.5 18.5q-27 0 -46 -13.5t-22 -41.5q-1 -7 -7 -12.5t-15 -5.5h-10q-8 0 -18 6v36v27t2 25q15 11 31.5 17.5t33 10t31.5 4.5t27 1z" />
    <glyph glyph-name="acute" unicode="&#xb4;" horiz-adv-x="286" 
d="M249 696q-8 -25 -57.5 -51t-121.5 -55q-20 16 -24 25l137 120q6 6 20 9z" />
    <glyph glyph-name="periodcentered" unicode="&#xb7;" horiz-adv-x="251" 
d="M128 215q-31 0 -48 17.5t-17 46.5t16.5 46.5t48.5 17.5q28 0 44.5 -17.5t16.5 -46.5t-16.5 -46.5t-44.5 -17.5z" />
    <glyph glyph-name="cedilla" unicode="&#xb8;" horiz-adv-x="253" 
d="M107 0q42 -11 59 -27.5t17 -47.5q0 -20 -9.5 -42t-25.5 -42.5t-35.5 -36.5t-40.5 -24q-6 0 -15 11t-11 25q11 5 22 15t19.5 22.5t14 25.5t5.5 24q0 23 -7 38.5t-18 24.5v34h25z" />
    <glyph glyph-name="onesuperior" unicode="&#xb9;" horiz-adv-x="427" 
d="M236 864q16 0 34 -5q-1 -10 -1.5 -24t-0.5 -27v-399q5 -2 14.5 -3.5t20.5 -2l22 -1t20 -0.5q8 -5 8 -15v-17q0 -10 -8 -15h-234q-8 5 -8 15v17q0 10 8 15q8 0 20 0.5t24.5 1t23 2t15.5 3.5v337q0 17 -4 26l-83 -41q-13 6 -14 9l-10 16q-2 5 -2.5 8.5t-0.5 8.5l156 91v0z
" />
    <glyph glyph-name="ordmasculine" unicode="&#xba;" horiz-adv-x="466" 
d="M228 330q-103 0 -149 55.5t-46 155.5q0 96 46.5 151.5t148.5 55.5q100 0 150.5 -49t50.5 -155q0 -103 -49.5 -158.5t-151.5 -55.5zM235 380q57 0 81.5 37.5t24.5 118.5q0 88 -29.5 126t-86.5 38q-54 0 -79 -36t-25 -117q0 -85 27 -126t87 -41z" />
    <glyph glyph-name="guillemotright" unicode="&#xbb;" horiz-adv-x="466" 
d="M238 133q-7 6 -9 11l100 145l-78 107q-7 10 -12 21.5t-5 19.5l29 29q9 -7 18 -17l128 -160l-129 -160q-7 -10 -20 -15zM64 133q-7 6 -9 11l100 145l-78 107q-7 10 -12 21.5t-5 19.5l29 29q9 -7 18 -17l127 -160l-128 -160q-7 -10 -20 -15z" />
    <glyph glyph-name="onequarter" unicode="&#xbc;" horiz-adv-x="1059" 
d="M236 766q16 0 34 -5q-1 -10 -1.5 -24t-0.5 -27v-399q5 -2 14.5 -3.5t20.5 -2l22 -1t20 -0.5q8 -5 8 -15v-17q0 -10 -8 -15h-234q-8 5 -8 15v17q0 10 8 15q8 0 20 0.5t24.5 1t23 2t15.5 3.5v337q0 17 -4 26l-83 -41q-13 6 -14 9l-10 16q-2 5 -2.5 8.5t-0.5 8.5l156 91v0z
M836 734q14 0 25 -6l-513 -728h-54q-15 0 -24 6l512 728h54zM838 27q17 1 28 2t17 5v75q0 14 -13 14h-168q-9 0 -16.5 0.5t-14.5 1.5q-6 19 -6 38l174 283q22 13 51 22.5t59 14.5q5 -5 6 -13.5t1 -18.5v-257q0 -7 5 -12h41q16 0 29 -7l-7 -43q-9 -9 -25 -9h-40q-3 -9 -3 -14
v-75q3 -2 15.5 -5t38.5 -5q1 -2 1 -12v-17q0 -11 -10 -15h-161q-10 4 -10 15v17q0 10 8 15zM883 403h-11l-132 -221h128q3 0 7.5 1t7.5 2v218z" />
    <glyph glyph-name="onehalf" unicode="&#xbd;" horiz-adv-x="1087" 
d="M236 766q16 0 34 -5q-1 -10 -1.5 -24t-0.5 -27v-399q5 -2 14.5 -3.5t20.5 -2l22 -1t20 -0.5q8 -5 8 -15v-17q0 -10 -8 -15h-234q-8 5 -8 15v17q0 10 8 15q8 0 20 0.5t24.5 1t23 2t15.5 3.5v337q0 17 -4 26l-83 -41q-13 6 -14 9l-10 16q-2 5 -2.5 8.5t-0.5 8.5l156 91v0z
M836 734q14 0 25 -6l-513 -728h-54q-15 0 -24 6l512 728h54zM887 485q82 0 115.5 -36t33.5 -99q0 -54 -26.5 -99.5t-71.5 -80.5q-18 -14 -36 -29.5t-34.5 -31.5t-30 -31.5t-21.5 -30.5h155q17 8 25 22.5t16 45.5q7 6 15 6h12q7 0 18 -8q-1 -35 -4.5 -67t-11.5 -61
q-7 -3 -15 -4t-16 -1h-276q-10 16 -10 32q22 52 62.5 95.5t80 82.5t69 76.5t29.5 77.5q0 50 -23.5 67t-66.5 17q-24 0 -44 -4t-35 -16q-3 -8 -3.5 -19t-1.5 -22t-4 -18.5t-12 -7.5h-17q-9 0 -12 16t-3 36v55q11 10 28 17t37 11.5t40.5 6.5t38.5 2z" />
    <glyph glyph-name="threequarters" unicode="&#xbe;" horiz-adv-x="1023" 
d="M172 762q75 0 116.5 -29.5t41.5 -92.5q0 -36 -16.5 -66t-46.5 -45q40 -14 61.5 -43.5t21.5 -75.5q0 -85 -45.5 -124t-147.5 -39q-45 0 -79.5 10.5t-46.5 29.5q0 44 3 103q6 6 17 6h12q9 0 14 -5q10 -45 26 -68.5t55 -23.5q54 0 85 21t31 79q0 39 -20 62t-49 30h-55
q-10 4 -10 18v20q0 9 7 16q55 0 82 18t27 66q0 42 -21.5 60.5t-69.5 18.5q-27 0 -46 -13.5t-22 -41.5q-1 -7 -7 -12.5t-15 -5.5h-10q-8 0 -18 6v36v27t2 25q15 11 31.5 17.5t33 10t31.5 4.5t27 1zM802 734q14 0 25 -6l-513 -728h-54q-15 0 -24 6l512 728h54zM805 27
q17 1 28 2t17 5v75q0 14 -13 14h-168q-9 0 -16.5 0.5t-14.5 1.5q-6 19 -6 38l174 283q22 13 51 22.5t59 14.5q5 -5 6 -13.5t1 -18.5v-257q0 -7 5 -12h41q16 0 29 -7l-7 -43q-9 -9 -25 -9h-40q-3 -9 -3 -14v-75q3 -2 15.5 -5t38.5 -5q1 -2 1 -12v-17q0 -11 -10 -15h-161
q-10 4 -10 15v17q0 10 8 15zM850 403h-11l-132 -221h128q3 0 7.5 1t7.5 2v218z" />
    <glyph glyph-name="questiondown" unicode="&#xbf;" horiz-adv-x="524" 
d="M272 -103q-41 0 -80.5 7.5t-70.5 25t-50 46t-19 69.5q0 43 15.5 75.5t38.5 59t49.5 49t49.5 46t38.5 49.5t15.5 60q0 17 -6 29.5t-14 26.5q18 15 54 20q9 -2 18 -11t16 -21.5t11.5 -27t4.5 -27.5q0 -37 -14.5 -65.5t-36 -52t-46.5 -44.5t-46.5 -43.5t-36 -48t-14.5 -57.5
q0 -27 10 -46t27.5 -31t40 -18t46.5 -6q35 0 64 5.5t49 19.5q17 26 27 91h41q4 -11 4 -23v-109q-10 -15 -31.5 -24.5t-47.5 -14.5t-54.5 -7t-52.5 -2zM281 529q-29 0 -46 16.5t-17 45.5q0 30 17 46.5t46 16.5t46.5 -16.5t17.5 -46.5q0 -29 -17.5 -45.5t-46.5 -16.5z" />
    <glyph glyph-name="Agrave" unicode="&#xc0;" horiz-adv-x="817" 
d="M267 743q28 0 58 -1.5t57.5 -3.5t51.5 -4.5t39 -4.5q15 -18 26 -52l199 -597q39 -19 93 -23q6 -9 6 -16v-26q0 -7 -5 -15h-252q-5 8 -5 15v34q17 2 32.5 4.5t23.5 7.5l-53 154q-33 15 -89 15h-164q-13 0 -24.5 -1t-21.5 -3q-7 -9 -14 -28t-13.5 -41.5t-11.5 -45.5t-8 -40
q9 -7 30.5 -13.5t47.5 -10.5v-32q0 -8 -7 -15h-233q-7 7 -7 15v26q0 8 3 16q61 13 91 43l184 581q-11 4 -25.5 7t-31.5 6q5 32 23 49zM405 653q-17 7 -33 12l-94 -309q-5 -14 -8 -28t-5 -26q18 -8 53 -8h142q32 0 49 12zM324 958q15 -3 21 -9l135 -120q-3 -8 -23 -25
q-72 29 -121.5 55t-57.5 51l46 48v0z" />
    <glyph glyph-name="Aacute" unicode="&#xc1;" horiz-adv-x="817" 
d="M267 743q28 0 58 -1.5t57.5 -3.5t51.5 -4.5t39 -4.5q15 -18 26 -52l199 -597q39 -19 93 -23q6 -9 6 -16v-26q0 -7 -5 -15h-252q-5 8 -5 15v34q17 2 32.5 4.5t23.5 7.5l-53 154q-33 15 -89 15h-164q-13 0 -24.5 -1t-21.5 -3q-7 -9 -14 -28t-13.5 -41.5t-11.5 -45.5t-8 -40
q9 -7 30.5 -13.5t47.5 -10.5v-32q0 -8 -7 -15h-233q-7 7 -7 15v26q0 8 3 16q61 13 91 43l184 581q-11 4 -25.5 7t-31.5 6q5 32 23 49zM405 653q-17 7 -33 12l-94 -309q-5 -14 -8 -28t-5 -26q18 -8 53 -8h142q32 0 49 12zM486 910q-8 -25 -57.5 -51t-121.5 -55q-20 16 -24 25
l137 120q6 6 20 9z" />
    <glyph glyph-name="Acircumflex" unicode="&#xc2;" horiz-adv-x="817" 
d="M267 743q28 0 58 -1.5t57.5 -3.5t51.5 -4.5t39 -4.5q15 -18 26 -52l199 -597q39 -19 93 -23q6 -9 6 -16v-26q0 -7 -5 -15h-252q-5 8 -5 15v34q17 2 32.5 4.5t23.5 7.5l-53 154q-33 15 -89 15h-164q-13 0 -24.5 -1t-21.5 -3q-7 -9 -14 -28t-13.5 -41.5t-11.5 -45.5t-8 -40
q9 -7 30.5 -13.5t47.5 -10.5v-32q0 -8 -7 -15h-233q-7 7 -7 15v26q0 8 3 16q61 13 91 43l184 581q-11 4 -25.5 7t-31.5 6q5 32 23 49zM405 653q-17 7 -33 12l-94 -309q-5 -14 -8 -28t-5 -26q18 -8 53 -8h142q32 0 49 12zM280 807q-22 14 -26 25l134 126l134 -124
q-12 -20 -36 -30q-21 5 -42.5 24t-55.5 50q-19 -18 -32.5 -30t-25.5 -20t-23.5 -12.5t-26.5 -8.5z" />
    <glyph glyph-name="Atilde" unicode="&#xc3;" horiz-adv-x="817" 
d="M267 743q28 0 58 -1.5t57.5 -3.5t51.5 -4.5t39 -4.5q15 -18 26 -52l199 -597q39 -19 93 -23q6 -9 6 -16v-26q0 -7 -5 -15h-252q-5 8 -5 15v34q17 2 32.5 4.5t23.5 7.5l-53 154q-33 15 -89 15h-164q-13 0 -24.5 -1t-21.5 -3q-7 -9 -14 -28t-13.5 -41.5t-11.5 -45.5t-8 -40
q9 -7 30.5 -13.5t47.5 -10.5v-32q0 -8 -7 -15h-233q-7 7 -7 15v26q0 8 3 16q61 13 91 43l184 581q-11 4 -25.5 7t-31.5 6q5 32 23 49zM405 653q-17 7 -33 12l-94 -309q-5 -14 -8 -28t-5 -26q18 -8 53 -8h142q32 0 49 12zM258 830q-8 2 -18.5 10t-15.5 16q3 19 12 35.5t22 29
t28.5 19.5t32.5 7q27 0 45.5 -9.5t34.5 -21t30.5 -21t33.5 -9.5q24 0 36.5 18.5t23.5 40.5q8 -4 18 -10.5t15 -13.5q0 -20 -8.5 -37t-22 -29.5t-30 -20t-32.5 -7.5q-23 0 -42 9.5t-36 20.5t-33 20.5t-33 9.5q-23 0 -37 -17.5t-24 -39.5z" />
    <glyph glyph-name="Adieresis" unicode="&#xc4;" horiz-adv-x="817" 
d="M267 743q28 0 58 -1.5t57.5 -3.5t51.5 -4.5t39 -4.5q15 -18 26 -52l199 -597q39 -19 93 -23q6 -9 6 -16v-26q0 -7 -5 -15h-252q-5 8 -5 15v34q17 2 32.5 4.5t23.5 7.5l-53 154q-33 15 -89 15h-164q-13 0 -24.5 -1t-21.5 -3q-7 -9 -14 -28t-13.5 -41.5t-11.5 -45.5t-8 -40
q9 -7 30.5 -13.5t47.5 -10.5v-32q0 -8 -7 -15h-233q-7 7 -7 15v26q0 8 3 16q61 13 91 43l184 581q-11 4 -25.5 7t-31.5 6q5 32 23 49zM405 653q-17 7 -33 12l-94 -309q-5 -14 -8 -28t-5 -26q18 -8 53 -8h142q32 0 49 12zM287 829q-27 0 -42.5 15t-15.5 41t15.5 41.5
t42.5 15.5q26 0 42 -15.5t16 -41.5t-16 -41t-42 -15zM495 829q-26 0 -42 15t-16 41t16 41.5t42 15.5q27 0 42.5 -15.5t15.5 -41.5t-15.5 -41t-42.5 -15z" />
    <glyph glyph-name="Aring" unicode="&#xc5;" horiz-adv-x="817" 
d="M267 743q28 0 58 -1.5t57.5 -3.5t51.5 -4.5t39 -4.5q15 -18 26 -52l199 -597q39 -19 93 -23q6 -9 6 -16v-26q0 -7 -5 -15h-252q-5 8 -5 15v34q17 2 32.5 4.5t23.5 7.5l-53 154q-33 15 -89 15h-164q-13 0 -24.5 -1t-21.5 -3q-7 -9 -14 -28t-13.5 -41.5t-11.5 -45.5t-8 -40
q9 -7 30.5 -13.5t47.5 -10.5v-32q0 -8 -7 -15h-233q-7 7 -7 15v26q0 8 3 16q61 13 91 43l184 581q-11 4 -25.5 7t-31.5 6q5 32 23 49zM405 653q-17 7 -33 12l-94 -309q-5 -14 -8 -28t-5 -26q18 -8 53 -8h142q32 0 49 12zM391 759q-48 0 -72.5 26t-24.5 74q0 46 24.5 72.5
t72.5 26.5t73.5 -27t25.5 -72q0 -48 -25.5 -74t-73.5 -26zM391 796q58 0 58 63q0 30 -14.5 47t-43.5 17q-30 0 -42.5 -17t-12.5 -47q0 -31 12.5 -47t42.5 -16z" />
    <glyph glyph-name="AE" unicode="&#xc6;" horiz-adv-x="950" 
d="M231 743q14 -2 39.5 -3.5t53.5 -3t54.5 -2t41.5 -0.5h416q43 0 66 6q1 -2 1.5 -8.5t0.5 -11.5l-4 -100q-1 -12 -3 -22t-4 -16h-53q-2 30 -10 50t-23 39h-152q-31 0 -62 -14v-221q25 -15 59 -15h79q30 13 39 60h41q1 -8 1.5 -18.5t0.5 -23.5l-6 -103q-2 -20 -4.5 -34
t-6.5 -22h-38q-5 43 -21 78h-85q-34 0 -59 -13v-275q25 -13 80 -13h117q35 18 51 50t30 71h52q3 -8 3 -20l-7 -131q-1 -12 -13 -27h-490q-7 4 -7 15v26q0 12 7 16q56 0 75 13v150q-3 4 -12.5 7t-20.5 3h-193q-13 0 -25 -1t-22 -3q-7 -9 -16 -28t-18 -41.5t-16.5 -45.5
t-11.5 -40q9 -7 31 -13.5t47 -10.5v-32q0 -8 -7 -15h-233q-7 7 -7 15v26q0 8 3 16q62 14 94 43l239 581q-8 1 -24.5 2.5t-34.5 3t-34.5 3.5t-24.5 4q4 16 9.5 28t16.5 21zM491 664q-15 5 -27 5q-17 0 -35.5 -4.5t-35.5 -11.5l-123 -297q-6 -14 -10.5 -28t-7.5 -26
q14 -8 52 -8h161q6 0 13.5 1.5t12.5 6.5v362z" />
    <glyph glyph-name="Ccedilla" unicode="&#xc7;" horiz-adv-x="721" 
d="M446 748q36 0 71.5 -5t67.5 -12.5t60.5 -17t50.5 -18.5l-6 -159q-7 -4 -14 -4h-26q-6 0 -13 3q-6 35 -14 58.5t-26 40.5q-11 10 -29.5 19t-41 16.5t-46 12t-44.5 4.5q-64 0 -115.5 -16t-88 -52t-56 -94.5t-19.5 -143.5q0 -91 22 -154t60 -102t90.5 -56.5t113.5 -17.5
q93 0 147.5 27t74.5 65q6 -2 11.5 -4.5t10.5 -4.5q3 -14 3.5 -30t0.5 -32q0 -13 -2 -24.5t-4 -21.5q-14 -6 -36.5 -12.5t-51 -12t-62 -9.5t-67.5 -5q19 -11 27 -24.5t8 -36.5q0 -20 -9.5 -42t-25.5 -42.5t-35.5 -36.5t-40.5 -24q-5 0 -14 11t-11 25q10 5 21 15t19.5 22.5
t14 25.5t5.5 24q0 23 -5.5 42t-19.5 42q-77 5 -141.5 32.5t-111.5 76t-73.5 118t-26.5 157.5q0 96 28 167t80 117.5t125.5 69.5t163.5 23z" />
    <glyph glyph-name="Egrave" unicode="&#xc8;" horiz-adv-x="595" 
d="M276 358q-35 0 -60 -13v-275q25 -13 81 -13h138q35 18 51 50t30 71h52q3 -8 3 -20l-7 -131q-2 -14 -12 -27h-512q-7 4 -7 15v26q0 12 7 16q56 0 75 13v594q-19 13 -75 13q-7 4 -7 17v26q0 10 7 14h441q43 0 66 6q2 -2 2.5 -8.5t0.5 -11.5l-5 -100q-1 -12 -3 -22t-4 -16
h-53q-2 30 -9.5 50t-23.5 39h-173q-32 0 -63 -14v-221q25 -15 60 -15h101q29 14 38 60h41q1 -8 1.5 -18.5t0.5 -23.5l-6 -103q-2 -20 -4.5 -34t-6.5 -22h-38q-4 40 -20 78h-107v0zM223 958q15 -3 21 -9l135 -120q-3 -8 -23 -25q-72 29 -121.5 55t-57.5 51l46 48v0z" />
    <glyph glyph-name="Eacute" unicode="&#xc9;" horiz-adv-x="595" 
d="M276 358q-35 0 -60 -13v-275q25 -13 81 -13h138q35 18 51 50t30 71h52q3 -8 3 -20l-7 -131q-2 -14 -12 -27h-512q-7 4 -7 15v26q0 12 7 16q56 0 75 13v594q-19 13 -75 13q-7 4 -7 17v26q0 10 7 14h441q43 0 66 6q2 -2 2.5 -8.5t0.5 -11.5l-5 -100q-1 -12 -3 -22t-4 -16
h-53q-2 30 -9.5 50t-23.5 39h-173q-32 0 -63 -14v-221q25 -15 60 -15h101q29 14 38 60h41q1 -8 1.5 -18.5t0.5 -23.5l-6 -103q-2 -20 -4.5 -34t-6.5 -22h-38q-4 40 -20 78h-107v0zM419 910q-8 -25 -57.5 -51t-121.5 -55q-20 16 -24 25l137 120q6 6 20 9z" />
    <glyph glyph-name="Ecircumflex" unicode="&#xca;" horiz-adv-x="595" 
d="M276 358q-35 0 -60 -13v-275q25 -13 81 -13h138q35 18 51 50t30 71h52q3 -8 3 -20l-7 -131q-2 -14 -12 -27h-512q-7 4 -7 15v26q0 12 7 16q56 0 75 13v594q-19 13 -75 13q-7 4 -7 17v26q0 10 7 14h441q43 0 66 6q2 -2 2.5 -8.5t0.5 -11.5l-5 -100q-1 -12 -3 -22t-4 -16
h-53q-2 30 -9.5 50t-23.5 39h-173q-32 0 -63 -14v-221q25 -15 60 -15h101q29 14 38 60h41q1 -8 1.5 -18.5t0.5 -23.5l-6 -103q-2 -20 -4.5 -34t-6.5 -22h-38q-4 40 -20 78h-107v0zM189 807q-22 14 -26 25l134 126l134 -124q-12 -20 -36 -30q-21 5 -42.5 24t-55.5 50
q-19 -18 -32.5 -30t-25.5 -20t-23.5 -12.5t-26.5 -8.5z" />
    <glyph glyph-name="Edieresis" unicode="&#xcb;" horiz-adv-x="595" 
d="M276 358q-35 0 -60 -13v-275q25 -13 81 -13h138q35 18 51 50t30 71h52q3 -8 3 -20l-7 -131q-2 -14 -12 -27h-512q-7 4 -7 15v26q0 12 7 16q56 0 75 13v594q-19 13 -75 13q-7 4 -7 17v26q0 10 7 14h441q43 0 66 6q2 -2 2.5 -8.5t0.5 -11.5l-5 -100q-1 -12 -3 -22t-4 -16
h-53q-2 30 -9.5 50t-23.5 39h-173q-32 0 -63 -14v-221q25 -15 60 -15h101q29 14 38 60h41q1 -8 1.5 -18.5t0.5 -23.5l-6 -103q-2 -20 -4.5 -34t-6.5 -22h-38q-4 40 -20 78h-107v0zM194 829q-27 0 -42.5 15t-15.5 41t15.5 41.5t42.5 15.5q26 0 42 -15.5t16 -41.5t-16 -41
t-42 -15zM402 829q-26 0 -42 15t-16 41t16 41.5t42 15.5q27 0 42.5 -15.5t15.5 -41.5t-15.5 -41t-42.5 -15z" />
    <glyph glyph-name="Igrave" unicode="&#xcc;" horiz-adv-x="353" 
d="M227 70q19 -13 75 -13q7 -4 7 -16v-26q0 -11 -7 -15h-252q-7 4 -7 15v26q0 12 7 16q57 0 76 13v594q-19 13 -76 13q-7 4 -7 17v26q0 10 7 14h252q7 -4 7 -14v-26q0 -13 -7 -17q-56 0 -75 -13v-594zM103 958q15 -3 21 -9l135 -120q-3 -8 -23 -25q-72 29 -121.5 55
t-57.5 51l46 48v0z" />
    <glyph glyph-name="Iacute" unicode="&#xcd;" horiz-adv-x="353" 
d="M227 70q19 -13 75 -13q7 -4 7 -16v-26q0 -11 -7 -15h-252q-7 4 -7 15v26q0 12 7 16q57 0 76 13v594q-19 13 -76 13q-7 4 -7 17v26q0 10 7 14h252q7 -4 7 -14v-26q0 -13 -7 -17q-56 0 -75 -13v-594zM297 910q-8 -25 -57.5 -51t-121.5 -55q-20 16 -24 25l137 120q6 6 20 9z
" />
    <glyph glyph-name="Icircumflex" unicode="&#xce;" horiz-adv-x="353" 
d="M227 70q19 -13 75 -13q7 -4 7 -16v-26q0 -11 -7 -15h-252q-7 4 -7 15v26q0 12 7 16q57 0 76 13v594q-19 13 -76 13q-7 4 -7 17v26q0 10 7 14h252q7 -4 7 -14v-26q0 -13 -7 -17q-56 0 -75 -13v-594zM68 807q-22 14 -26 25l134 126l134 -124q-12 -20 -36 -30
q-21 5 -42.5 24t-55.5 50q-19 -18 -32.5 -30t-25.5 -20t-23.5 -12.5t-26.5 -8.5z" />
    <glyph glyph-name="Idieresis" unicode="&#xcf;" horiz-adv-x="353" 
d="M227 70q19 -13 75 -13q7 -4 7 -16v-26q0 -11 -7 -15h-252q-7 4 -7 15v26q0 12 7 16q57 0 76 13v594q-19 13 -76 13q-7 4 -7 17v26q0 10 7 14h252q7 -4 7 -14v-26q0 -13 -7 -17q-56 0 -75 -13v-594zM73 829q-27 0 -42.5 15t-15.5 41t15.5 41.5t42.5 15.5q26 0 42 -15.5
t16 -41.5t-16 -41t-42 -15zM281 829q-26 0 -42 15t-16 41t16 41.5t42 15.5q27 0 42.5 -15.5t15.5 -41.5t-15.5 -41t-42.5 -15z" />
    <glyph glyph-name="Eth" unicode="&#xd0;" horiz-adv-x="804" 
d="M416 736q82 0 144.5 -21t105.5 -66t65 -115t22 -167q0 -107 -25.5 -177.5t-74.5 -112.5t-119 -59.5t-158 -17.5h-331q-6 4 -6 15v26q0 11 6 16q57 0 76 13v259h-20q-23 0 -37 7v67h57v261q-19 13 -76 13q-6 4 -6 17v26q0 9 6 14h205q29 0 50.5 0.5t40.5 0.5t36.5 0.5
t38.5 0.5zM432 329h-210v-259q17 -13 62 -13h134q54 0 96 14.5t71.5 50.5t44.5 95.5t15 149.5t-16.5 150t-47 95t-74.5 49.5t-99 14.5h-124q-16 0 -32 -2t-30 -10v-261h173q24 0 37 -7v-67z" />
    <glyph glyph-name="Ntilde" unicode="&#xd1;" horiz-adv-x="796" 
d="M179 70q10 -7 35.5 -10t53.5 -3q7 -4 7 -16v-26q0 -11 -7 -15h-238q-7 4 -7 15v26q0 12 7 16q56 0 75 13v594q-19 13 -75 13q-7 4 -7 17v26q0 10 7 14h208q11 -5 23 -16.5t18 -22.5l320 -593h18v562q-19 13 -94 13q-7 4 -7 17v26q0 10 7 14h239q7 -4 7 -14v-26
q0 -13 -7 -17q-56 0 -75 -13v-618q0 -12 -0.5 -23.5t-1.5 -22.5h-135q-15 11 -31 27.5t-25 34.5l-297 576h-18v-568zM266 830q-8 2 -18.5 10t-15.5 16q3 19 12 35.5t22 29t28.5 19.5t32.5 7q27 0 45.5 -9.5t34.5 -21t30.5 -21t33.5 -9.5q24 0 36.5 18.5t23.5 40.5
q8 -4 18 -10.5t15 -13.5q0 -20 -8.5 -37t-22 -29.5t-30 -20t-32.5 -7.5q-23 0 -42 9.5t-36 20.5t-33 20.5t-33 9.5q-23 0 -37 -17.5t-24 -39.5z" />
    <glyph glyph-name="Ograve" unicode="&#xd2;" horiz-adv-x="847" 
d="M421 -15q-180 0 -276 99.5t-96 283.5q0 90 26 160.5t74.5 119t117 74.5t154.5 26q81 0 150 -22t119.5 -68t79 -116t28.5 -167q0 -95 -27 -167.5t-76.5 -122t-119 -75t-154.5 -25.5zM433 46q60 0 107 17t80 54.5t50.5 97t17.5 144.5q0 92 -21 155t-58 102t-86.5 56
t-106.5 17t-104.5 -16t-81 -53t-52.5 -96t-19 -144q0 -88 20 -151t56 -103.5t86.5 -60t111.5 -19.5zM349 958q15 -3 21 -9l135 -120q-3 -8 -23 -25q-72 29 -121.5 55t-57.5 51l46 48v0z" />
    <glyph glyph-name="Oacute" unicode="&#xd3;" horiz-adv-x="847" 
d="M421 -15q-180 0 -276 99.5t-96 283.5q0 90 26 160.5t74.5 119t117 74.5t154.5 26q81 0 150 -22t119.5 -68t79 -116t28.5 -167q0 -95 -27 -167.5t-76.5 -122t-119 -75t-154.5 -25.5zM433 46q60 0 107 17t80 54.5t50.5 97t17.5 144.5q0 92 -21 155t-58 102t-86.5 56
t-106.5 17t-104.5 -16t-81 -53t-52.5 -96t-19 -144q0 -88 20 -151t56 -103.5t86.5 -60t111.5 -19.5zM544 910q-8 -25 -57.5 -51t-121.5 -55q-20 16 -24 25l137 120q6 6 20 9z" />
    <glyph glyph-name="Ocircumflex" unicode="&#xd4;" horiz-adv-x="847" 
d="M421 -15q-180 0 -276 99.5t-96 283.5q0 90 26 160.5t74.5 119t117 74.5t154.5 26q81 0 150 -22t119.5 -68t79 -116t28.5 -167q0 -95 -27 -167.5t-76.5 -122t-119 -75t-154.5 -25.5zM433 46q60 0 107 17t80 54.5t50.5 97t17.5 144.5q0 92 -21 155t-58 102t-86.5 56
t-106.5 17t-104.5 -16t-81 -53t-52.5 -96t-19 -144q0 -88 20 -151t56 -103.5t86.5 -60t111.5 -19.5zM315 807q-22 14 -26 25l134 126l134 -124q-12 -20 -36 -30q-21 5 -42.5 24t-55.5 50q-19 -18 -32.5 -30t-25.5 -20t-23.5 -12.5t-26.5 -8.5z" />
    <glyph glyph-name="Otilde" unicode="&#xd5;" horiz-adv-x="847" 
d="M421 -15q-180 0 -276 99.5t-96 283.5q0 90 26 160.5t74.5 119t117 74.5t154.5 26q81 0 150 -22t119.5 -68t79 -116t28.5 -167q0 -95 -27 -167.5t-76.5 -122t-119 -75t-154.5 -25.5zM433 46q60 0 107 17t80 54.5t50.5 97t17.5 144.5q0 92 -21 155t-58 102t-86.5 56
t-106.5 17t-104.5 -16t-81 -53t-52.5 -96t-19 -144q0 -88 20 -151t56 -103.5t86.5 -60t111.5 -19.5zM291 830q-8 2 -18.5 10t-15.5 16q3 19 12 35.5t22 29t28.5 19.5t32.5 7q27 0 45.5 -9.5t34.5 -21t30.5 -21t33.5 -9.5q24 0 36.5 18.5t23.5 40.5q8 -4 18 -10.5t15 -13.5
q0 -20 -8.5 -37t-22 -29.5t-30 -20t-32.5 -7.5q-23 0 -42 9.5t-36 20.5t-33 20.5t-33 9.5q-23 0 -37 -17.5t-24 -39.5z" />
    <glyph glyph-name="Odieresis" unicode="&#xd6;" horiz-adv-x="847" 
d="M421 -15q-180 0 -276 99.5t-96 283.5q0 90 26 160.5t74.5 119t117 74.5t154.5 26q81 0 150 -22t119.5 -68t79 -116t28.5 -167q0 -95 -27 -167.5t-76.5 -122t-119 -75t-154.5 -25.5zM433 46q60 0 107 17t80 54.5t50.5 97t17.5 144.5q0 92 -21 155t-58 102t-86.5 56
t-106.5 17t-104.5 -16t-81 -53t-52.5 -96t-19 -144q0 -88 20 -151t56 -103.5t86.5 -60t111.5 -19.5zM318 829q-27 0 -42.5 15t-15.5 41t15.5 41.5t42.5 15.5q26 0 42 -15.5t16 -41.5t-16 -41t-42 -15zM526 829q-26 0 -42 15t-16 41t16 41.5t42 15.5q27 0 42.5 -15.5
t15.5 -41.5t-15.5 -41t-42.5 -15z" />
    <glyph glyph-name="multiply" unicode="&#xd7;" horiz-adv-x="511" 
d="M68 189l135 134l-108 109q-9 7 -15.5 12t-6.5 19l50 49l133 -135l109 108q15 15 30 21l50 -49l-135 -134l109 -109q8 -8 12.5 -16.5t8.5 -13.5l-49 -49l-135 134l-109 -109q-8 -8 -15 -13.5t-15 -7.5z" />
    <glyph glyph-name="Oslash" unicode="&#xd8;" horiz-adv-x="848" 
d="M622 695q5 8 11 17.5t12.5 18.5t12.5 17t10 12l56 -38q-2 -6 -8 -14.5t-13.5 -17.5t-15 -17.5t-13.5 -15.5q60 -45 95.5 -114t35.5 -168q0 -98 -28 -171t-78 -121.5t-119.5 -73t-151.5 -24.5q-115 0 -191 52q-11 -17 -24 -38t-21 -30l-57 39q3 6 9 15t13.5 18.5
t15.5 18.5t14 16q-66 48 -98.5 121.5t-32.5 170.5q0 90 26 160.5t74 119.5t117 74.5t155 25.5q112 0 194 -53zM423 689q-57 0 -104.5 -16.5t-81.5 -53.5t-52.5 -95.5t-18.5 -143.5q0 -69 18.5 -131t49.5 -107q92 127 178.5 250.5t171.5 251.5q-32 26 -74 35.5t-87 9.5z
M440 46q60 0 107.5 17t80 54.5t50 97t17.5 144.5q0 154 -66 235q-88 -121 -174.5 -245.5t-176.5 -256.5q32 -28 74.5 -37t87.5 -9z" />
    <glyph glyph-name="Ugrave" unicode="&#xd9;" horiz-adv-x="804" 
d="M697 360q0 -79 -8 -147.5t-37 -119t-85 -79.5t-153 -29t-159.5 29.5t-94.5 86.5q-23 42 -30 102t-7 129v332q-10 7 -30.5 10t-48.5 3q-6 4 -6 17v26q0 9 6 14h257q6 -5 6 -14v-26q0 -13 -6 -17q-58 0 -77 -13v-358q0 -65 7 -114t28 -81.5t60 -48.5t103 -16
q61 0 100.5 15.5t62 51.5t31 94.5t8.5 145.5v311q-10 7 -36.5 10t-53.5 3q-7 4 -7 17v26q0 10 7 14h241q7 -4 7 -14v-26q0 -13 -7 -17q-28 0 -48 -3t-30 -10v-304zM363 958q15 -3 21 -9l135 -120q-3 -8 -23 -25q-72 29 -121.5 55t-57.5 51l46 48v0z" />
    <glyph glyph-name="Uacute" unicode="&#xda;" horiz-adv-x="804" 
d="M697 360q0 -79 -8 -147.5t-37 -119t-85 -79.5t-153 -29t-159.5 29.5t-94.5 86.5q-23 42 -30 102t-7 129v332q-10 7 -30.5 10t-48.5 3q-6 4 -6 17v26q0 9 6 14h257q6 -5 6 -14v-26q0 -13 -6 -17q-58 0 -77 -13v-358q0 -65 7 -114t28 -81.5t60 -48.5t103 -16
q61 0 100.5 15.5t62 51.5t31 94.5t8.5 145.5v311q-10 7 -36.5 10t-53.5 3q-7 4 -7 17v26q0 10 7 14h241q7 -4 7 -14v-26q0 -13 -7 -17q-28 0 -48 -3t-30 -10v-304zM539 910q-8 -25 -57.5 -51t-121.5 -55q-20 16 -24 25l137 120q6 6 20 9z" />
    <glyph glyph-name="Ucircumflex" unicode="&#xdb;" horiz-adv-x="804" 
d="M697 360q0 -79 -8 -147.5t-37 -119t-85 -79.5t-153 -29t-159.5 29.5t-94.5 86.5q-23 42 -30 102t-7 129v332q-10 7 -30.5 10t-48.5 3q-6 4 -6 17v26q0 9 6 14h257q6 -5 6 -14v-26q0 -13 -6 -17q-58 0 -77 -13v-358q0 -65 7 -114t28 -81.5t60 -48.5t103 -16
q61 0 100.5 15.5t62 51.5t31 94.5t8.5 145.5v311q-10 7 -36.5 10t-53.5 3q-7 4 -7 17v26q0 10 7 14h241q7 -4 7 -14v-26q0 -13 -7 -17q-28 0 -48 -3t-30 -10v-304zM315 807q-22 14 -26 25l134 126l134 -124q-12 -20 -36 -30q-21 5 -42.5 24t-55.5 50q-19 -18 -32.5 -30
t-25.5 -20t-23.5 -12.5t-26.5 -8.5z" />
    <glyph glyph-name="Udieresis" unicode="&#xdc;" horiz-adv-x="804" 
d="M697 360q0 -79 -8 -147.5t-37 -119t-85 -79.5t-153 -29t-159.5 29.5t-94.5 86.5q-23 42 -30 102t-7 129v332q-10 7 -30.5 10t-48.5 3q-6 4 -6 17v26q0 9 6 14h257q6 -5 6 -14v-26q0 -13 -6 -17q-58 0 -77 -13v-358q0 -65 7 -114t28 -81.5t60 -48.5t103 -16
q61 0 100.5 15.5t62 51.5t31 94.5t8.5 145.5v311q-10 7 -36.5 10t-53.5 3q-7 4 -7 17v26q0 10 7 14h241q7 -4 7 -14v-26q0 -13 -7 -17q-28 0 -48 -3t-30 -10v-304zM313 829q-27 0 -42.5 15t-15.5 41t15.5 41.5t42.5 15.5q26 0 42 -15.5t16 -41.5t-16 -41t-42 -15zM521 829
q-26 0 -42 15t-16 41t16 41.5t42 15.5q27 0 42.5 -15.5t15.5 -41.5t-15.5 -41t-42.5 -15z" />
    <glyph glyph-name="Yacute" unicode="&#xdd;" horiz-adv-x="741" 
d="M17 720q0 6 5 14h249q5 -5 5 -15v-42q-32 -9 -48 -25l153 -266l159 272q-25 19 -64 19v43q0 8 3 14h242q5 -8 5 -14v-26q0 -10 -3 -17q-61 -1 -103 -21l-181 -295q-9 -28 -12 -61t-3 -64v-166q19 -13 75 -13q7 -4 7 -16v-26q0 -11 -7 -15h-253q-7 4 -7 15v26q0 12 7 16
q56 0 75 13v181q0 32 -5.5 62.5t-22.5 62.5l-170 269q-39 27 -106 32v43v0zM505 910q-8 -25 -57.5 -51t-121.5 -55q-20 16 -24 25l137 120q6 6 20 9z" />
    <glyph glyph-name="Thorn" unicode="&#xde;" horiz-adv-x="599" 
d="M227 573h89q121 0 182 -44.5t61 -125.5q0 -51 -15.5 -92.5t-45 -70.5t-71.5 -45t-96 -16h-44q-35 0 -60 -13v-96q19 -13 75 -13q7 -4 7 -16v-26q0 -11 -7 -15h-252q-7 4 -7 15v26q0 12 7 16q57 0 76 13v594q-19 13 -76 13q-7 4 -7 17v26q0 10 7 14h252q7 -4 7 -14v-26
q0 -13 -7 -17q-56 0 -75 -13v-91zM458 373q0 39 -8.5 65.5t-23.5 42.5t-35 22.5t-42 6.5h-59q-32 0 -63 -14v-240q25 -15 60 -15h25q42 0 70.5 6.5t45 22t23.5 40.5t7 63z" />
    <glyph glyph-name="germandbls" unicode="&#xdf;" horiz-adv-x="630" 
d="M347 792q58 0 97.5 -12.5t64 -36.5t35.5 -60t11 -84q0 -31 -12 -58t-30.5 -48.5t-41 -37.5t-43.5 -25v-10q28 -12 58.5 -31.5t55.5 -49t41 -69.5t16 -94q0 -91 -46 -141t-128 -50q-23 0 -46.5 6.5t-43.5 16.5t-34 23t-18 26l24 29q16 -13 48 -22t67 -9q22 0 37.5 10.5
t25 27t13.5 37.5t4 41q0 38 -10 73.5t-28 63t-42 46t-52 23.5q-10 14 -16.5 33.5t-6.5 45.5q25 10 47 22.5t38.5 29t26 38.5t9.5 52q0 72 -30.5 101.5t-93.5 29.5q-65 0 -97 -31.5t-32 -111.5v-586h-177q-6 7 -6 16v25q0 8 6 16q54 4 82 26v453q0 130 53 193t174 63z" />
    <glyph glyph-name="agrave" unicode="&#xe0;" horiz-adv-x="545" 
d="M275 533q85 0 129.5 -40.5t44.5 -118.5v-203q0 -54 7 -77t36 -23q20 0 43 3q3 -8 3 -14v-24q0 -8 -3 -17q-17 -8 -41 -14.5t-55 -11.5q-30 0 -48.5 18t-26.5 47q-30 -38 -75 -54t-90 -16q-41 0 -70 11t-48 29t-28 41.5t-9 49.5q0 51 24 84t65.5 53.5t97.5 31.5t121 19v69
q0 90 -107 90q-23 0 -46 -4t-40 -15q-11 -26 -14 -49q-11 -11 -24 -19.5t-29 -15.5q-29 0 -29 32q0 16 1.5 31t3.5 29q6 13 27 27t50.5 25t63.5 18.5t66 7.5zM231 62q42 0 74.5 18.5t48.5 46.5v128q-44 -8 -83 -16t-68 -21.5t-46 -34t-17 -52.5t21 -50.5t70 -18.5zM198 744
q15 -3 21 -9l135 -120q-3 -8 -23 -25q-72 29 -121.5 55t-57.5 51l46 48v0z" />
    <glyph glyph-name="aacute" unicode="&#xe1;" horiz-adv-x="545" 
d="M275 533q85 0 129.5 -40.5t44.5 -118.5v-203q0 -54 7 -77t36 -23q20 0 43 3q3 -8 3 -14v-24q0 -8 -3 -17q-17 -8 -41 -14.5t-55 -11.5q-30 0 -48.5 18t-26.5 47q-30 -38 -75 -54t-90 -16q-41 0 -70 11t-48 29t-28 41.5t-9 49.5q0 51 24 84t65.5 53.5t97.5 31.5t121 19v69
q0 90 -107 90q-23 0 -46 -4t-40 -15q-11 -26 -14 -49q-11 -11 -24 -19.5t-29 -15.5q-29 0 -29 32q0 16 1.5 31t3.5 29q6 13 27 27t50.5 25t63.5 18.5t66 7.5zM231 62q42 0 74.5 18.5t48.5 46.5v128q-44 -8 -83 -16t-68 -21.5t-46 -34t-17 -52.5t21 -50.5t70 -18.5zM393 696
q-8 -25 -57.5 -51t-121.5 -55q-20 16 -24 25l137 120q6 6 20 9z" />
    <glyph glyph-name="acircumflex" unicode="&#xe2;" horiz-adv-x="545" 
d="M275 533q85 0 129.5 -40.5t44.5 -118.5v-203q0 -54 7 -77t36 -23q20 0 43 3q3 -8 3 -14v-24q0 -8 -3 -17q-17 -8 -41 -14.5t-55 -11.5q-30 0 -48.5 18t-26.5 47q-30 -38 -75 -54t-90 -16q-41 0 -70 11t-48 29t-28 41.5t-9 49.5q0 51 24 84t65.5 53.5t97.5 31.5t121 19v69
q0 90 -107 90q-23 0 -46 -4t-40 -15q-11 -26 -14 -49q-11 -11 -24 -19.5t-29 -15.5q-29 0 -29 32q0 16 1.5 31t3.5 29q6 13 27 27t50.5 25t63.5 18.5t66 7.5zM231 62q42 0 74.5 18.5t48.5 46.5v128q-44 -8 -83 -16t-68 -21.5t-46 -34t-17 -52.5t21 -50.5t70 -18.5zM157 593
q-22 14 -26 25l134 126l134 -124q-12 -20 -36 -30q-21 5 -42.5 24t-55.5 50q-19 -18 -32.5 -30t-25.5 -20t-23.5 -12.5t-26.5 -8.5z" />
    <glyph glyph-name="atilde" unicode="&#xe3;" horiz-adv-x="545" 
d="M275 533q85 0 129.5 -40.5t44.5 -118.5v-203q0 -54 7 -77t36 -23q20 0 43 3q3 -8 3 -14v-24q0 -8 -3 -17q-17 -8 -41 -14.5t-55 -11.5q-30 0 -48.5 18t-26.5 47q-30 -38 -75 -54t-90 -16q-41 0 -70 11t-48 29t-28 41.5t-9 49.5q0 51 24 84t65.5 53.5t97.5 31.5t121 19v69
q0 90 -107 90q-23 0 -46 -4t-40 -15q-11 -26 -14 -49q-11 -11 -24 -19.5t-29 -15.5q-29 0 -29 32q0 16 1.5 31t3.5 29q6 13 27 27t50.5 25t63.5 18.5t66 7.5zM231 62q42 0 74.5 18.5t48.5 46.5v128q-44 -8 -83 -16t-68 -21.5t-46 -34t-17 -52.5t21 -50.5t70 -18.5zM140 616
q-8 2 -18.5 10t-15.5 16q3 19 12 35.5t22 29t28.5 19.5t32.5 7q27 0 45.5 -9.5t34.5 -21t30.5 -21t33.5 -9.5q24 0 36.5 18.5t23.5 40.5q8 -4 18 -10.5t15 -13.5q0 -20 -8.5 -37t-22 -29.5t-30 -20t-32.5 -7.5q-23 0 -42 9.5t-36 20.5t-33 20.5t-33 9.5q-23 0 -37 -17.5
t-24 -39.5z" />
    <glyph glyph-name="adieresis" unicode="&#xe4;" horiz-adv-x="545" 
d="M275 533q85 0 129.5 -40.5t44.5 -118.5v-203q0 -54 7 -77t36 -23q20 0 43 3q3 -8 3 -14v-24q0 -8 -3 -17q-17 -8 -41 -14.5t-55 -11.5q-30 0 -48.5 18t-26.5 47q-30 -38 -75 -54t-90 -16q-41 0 -70 11t-48 29t-28 41.5t-9 49.5q0 51 24 84t65.5 53.5t97.5 31.5t121 19v69
q0 90 -107 90q-23 0 -46 -4t-40 -15q-11 -26 -14 -49q-11 -11 -24 -19.5t-29 -15.5q-29 0 -29 32q0 16 1.5 31t3.5 29q6 13 27 27t50.5 25t63.5 18.5t66 7.5zM231 62q42 0 74.5 18.5t48.5 46.5v128q-44 -8 -83 -16t-68 -21.5t-46 -34t-17 -52.5t21 -50.5t70 -18.5zM168 615
q-27 0 -42.5 15t-15.5 41t15.5 41.5t42.5 15.5q26 0 42 -15.5t16 -41.5t-16 -41t-42 -15zM376 615q-26 0 -42 15t-16 41t16 41.5t42 15.5q27 0 42.5 -15.5t15.5 -41.5t-15.5 -41t-42.5 -15z" />
    <glyph glyph-name="aring" unicode="&#xe5;" horiz-adv-x="545" 
d="M275 533q85 0 129.5 -40.5t44.5 -118.5v-203q0 -54 7 -77t36 -23q20 0 43 3q3 -8 3 -14v-24q0 -8 -3 -17q-17 -8 -41 -14.5t-55 -11.5q-30 0 -48.5 18t-26.5 47q-30 -38 -75 -54t-90 -16q-41 0 -70 11t-48 29t-28 41.5t-9 49.5q0 51 24 84t65.5 53.5t97.5 31.5t121 19v69
q0 90 -107 90q-23 0 -46 -4t-40 -15q-11 -26 -14 -49q-11 -11 -24 -19.5t-29 -15.5q-29 0 -29 32q0 16 1.5 31t3.5 29q6 13 27 27t50.5 25t63.5 18.5t66 7.5zM231 62q42 0 74.5 18.5t48.5 46.5v128q-44 -8 -83 -16t-68 -21.5t-46 -34t-17 -52.5t21 -50.5t70 -18.5zM271 588
q-48 0 -72.5 26t-24.5 74q0 46 24.5 72.5t72.5 26.5t73.5 -27t25.5 -72q0 -48 -25.5 -74t-73.5 -26zM271 625q58 0 58 63q0 30 -14.5 47t-43.5 17q-30 0 -42.5 -17t-12.5 -47q0 -31 12.5 -47t42.5 -16z" />
    <glyph glyph-name="ae" unicode="&#xe6;" horiz-adv-x="824" 
d="M588 533q43 0 81 -10t66 -34t44.5 -63.5t16.5 -97.5q0 -14 -2 -27.5t-7 -21.5h-344q1 -44 8.5 -82.5t27 -67.5t52.5 -46t86 -17q45 0 77.5 12t58.5 43q7 -1 14 -5l19 -14q7 -7 8 -10q-7 -29 -27.5 -48.5t-49.5 -32t-63.5 -18t-68.5 -5.5q-66 0 -111.5 22t-73.5 64
q-14 -15 -31 -30.5t-40 -27.5t-54.5 -20t-74.5 -8q-41 0 -70 11t-48 29t-28 41.5t-9 49.5q0 51 24 84t65.5 53.5t97.5 31.5t121 19v69q0 90 -107 90q-23 0 -46 -4t-40 -15q-11 -26 -14 -49q-11 -11 -24 -19.5t-29 -15.5q-29 0 -29 32q0 16 1.5 31t3.5 29q6 13 27 27t50.5 25
t63.5 18.5t66 7.5q101 0 139 -63q58 63 173 63zM232 62q42 0 74.5 18.5t48.5 46.5v128q-44 -8 -83 -16t-68 -21.5t-46 -34t-17 -52.5t21 -50.5t70 -18.5zM581 473q-26 0 -50 -7.5t-43 -24t-30.5 -43t-12.5 -63.5h213q23 0 32 5t9 31q0 53 -33.5 77.5t-84.5 24.5z" />
    <glyph glyph-name="ccedilla" unicode="&#xe7;" horiz-adv-x="498" 
d="M298 532q63 0 107 -14.5t61 -34.5q2 -7 3.5 -15.5t1.5 -20.5q0 -23 -5 -37.5t-22 -14.5q-25 0 -42 4q-5 13 -11 25t-18.5 22t-34 16t-57.5 6q-73 0 -106.5 -46t-33.5 -151q0 -63 10.5 -103t30.5 -62.5t50.5 -31t69.5 -8.5q45 0 78 12t59 43q7 -1 14 -5l19 -14
q2 -2 3.5 -4.5t3.5 -5.5q-6 -24 -22 -42t-39.5 -30.5t-52 -19.5t-58.5 -10q24 -11 34.5 -26t10.5 -39q0 -20 -9.5 -42t-25.5 -42.5t-35.5 -36.5t-40.5 -24q-6 0 -15 11t-11 25q11 5 22 15t19.5 22.5t14 25.5t5.5 24q0 35 -7 52.5t-22 33.5q-104 5 -154.5 68t-50.5 193
q0 73 18.5 126t52 87.5t80.5 51.5t105 17z" />
    <glyph glyph-name="egrave" unicode="&#xe8;" horiz-adv-x="520" 
d="M283 533q43 0 81 -10t66 -34t44.5 -63.5t16.5 -97.5q0 -14 -2 -27.5t-7 -21.5h-344q1 -44 8.5 -82.5t27 -67.5t52.5 -46t86 -17q45 0 78 12t59 43q7 -1 14 -5l18 -14q7 -7 8 -10q-6 -29 -26.5 -48.5t-49.5 -32t-64 -18t-69 -5.5q-60 0 -104.5 19t-74 54t-44.5 84.5
t-15 111.5q0 144 61.5 210t179.5 66zM276 473q-26 0 -50 -7.5t-43 -24t-30.5 -43t-12.5 -63.5h214q23 0 31.5 5t8.5 31q0 54 -33.5 78t-84.5 24zM199 744q15 -3 21 -9l135 -120q-3 -8 -23 -25q-72 29 -121.5 55t-57.5 51l46 48v0z" />
    <glyph glyph-name="eacute" unicode="&#xe9;" horiz-adv-x="520" 
d="M283 533q43 0 81 -10t66 -34t44.5 -63.5t16.5 -97.5q0 -14 -2 -27.5t-7 -21.5h-344q1 -44 8.5 -82.5t27 -67.5t52.5 -46t86 -17q45 0 78 12t59 43q7 -1 14 -5l18 -14q7 -7 8 -10q-6 -29 -26.5 -48.5t-49.5 -32t-64 -18t-69 -5.5q-60 0 -104.5 19t-74 54t-44.5 84.5
t-15 111.5q0 144 61.5 210t179.5 66zM276 473q-26 0 -50 -7.5t-43 -24t-30.5 -43t-12.5 -63.5h214q23 0 31.5 5t8.5 31q0 54 -33.5 78t-84.5 24zM391 696q-8 -25 -57.5 -51t-121.5 -55q-20 16 -24 25l137 120q6 6 20 9z" />
    <glyph glyph-name="ecircumflex" unicode="&#xea;" horiz-adv-x="520" 
d="M283 533q43 0 81 -10t66 -34t44.5 -63.5t16.5 -97.5q0 -14 -2 -27.5t-7 -21.5h-344q1 -44 8.5 -82.5t27 -67.5t52.5 -46t86 -17q45 0 78 12t59 43q7 -1 14 -5l18 -14q7 -7 8 -10q-6 -29 -26.5 -48.5t-49.5 -32t-64 -18t-69 -5.5q-60 0 -104.5 19t-74 54t-44.5 84.5
t-15 111.5q0 144 61.5 210t179.5 66zM276 473q-26 0 -50 -7.5t-43 -24t-30.5 -43t-12.5 -63.5h214q23 0 31.5 5t8.5 31q0 54 -33.5 78t-84.5 24zM165 593q-22 14 -26 25l134 126l134 -124q-12 -20 -36 -30q-21 5 -42.5 24t-55.5 50q-19 -18 -32.5 -30t-25.5 -20t-23.5 -12.5
t-26.5 -8.5z" />
    <glyph glyph-name="edieresis" unicode="&#xeb;" horiz-adv-x="520" 
d="M283 533q43 0 81 -10t66 -34t44.5 -63.5t16.5 -97.5q0 -14 -2 -27.5t-7 -21.5h-344q1 -44 8.5 -82.5t27 -67.5t52.5 -46t86 -17q45 0 78 12t59 43q7 -1 14 -5l18 -14q7 -7 8 -10q-6 -29 -26.5 -48.5t-49.5 -32t-64 -18t-69 -5.5q-60 0 -104.5 19t-74 54t-44.5 84.5
t-15 111.5q0 144 61.5 210t179.5 66zM276 473q-26 0 -50 -7.5t-43 -24t-30.5 -43t-12.5 -63.5h214q23 0 31.5 5t8.5 31q0 54 -33.5 78t-84.5 24zM174 615q-27 0 -42.5 15t-15.5 41t15.5 41.5t42.5 15.5q26 0 42 -15.5t16 -41.5t-16 -41t-42 -15zM382 615q-26 0 -42 15
t-16 41t16 41.5t42 15.5q27 0 42.5 -15.5t15.5 -41.5t-15.5 -41t-42.5 -15z" />
    <glyph glyph-name="igrave" unicode="&#xec;" horiz-adv-x="329" 
d="M221 83q23 -23 86 -27q5 -8 5 -15v-25q0 -8 -5 -16h-264q-5 8 -5 16v25q0 8 5 16q55 4 83 26v367q-14 7 -35 11t-50 5v32q0 12 1 13q42 11 88.5 15t88.5 4q1 -10 1.5 -20t0.5 -21v-406v0zM75 744q15 -3 21 -9l135 -120q-3 -8 -23 -25q-72 29 -121.5 55t-57.5 51l46 48v0z
" />
    <glyph glyph-name="iacute" unicode="&#xed;" horiz-adv-x="329" 
d="M221 83q23 -23 86 -27q5 -8 5 -15v-25q0 -8 -5 -16h-264q-5 8 -5 16v25q0 8 5 16q55 4 83 26v367q-14 7 -35 11t-50 5v32q0 12 1 13q42 11 88.5 15t88.5 4q1 -10 1.5 -20t0.5 -21v-406v0zM269 696q-8 -25 -57.5 -51t-121.5 -55q-20 16 -24 25l137 120q6 6 20 9z" />
    <glyph glyph-name="icircumflex" unicode="&#xee;" horiz-adv-x="329" 
d="M221 83q23 -23 86 -27q5 -8 5 -15v-25q0 -8 -5 -16h-264q-5 8 -5 16v25q0 8 5 16q55 4 83 26v367q-14 7 -35 11t-50 5v32q0 12 1 13q42 11 88.5 15t88.5 4q1 -10 1.5 -20t0.5 -21v-406v0zM58 593q-22 14 -26 25l134 126l134 -124q-12 -20 -36 -30q-21 5 -42.5 24
t-55.5 50q-19 -18 -32.5 -30t-25.5 -20t-23.5 -12.5t-26.5 -8.5z" />
    <glyph glyph-name="idieresis" unicode="&#xef;" horiz-adv-x="329" 
d="M221 83q23 -23 86 -27q5 -8 5 -15v-25q0 -8 -5 -16h-264q-5 8 -5 16v25q0 8 5 16q55 4 83 26v367q-14 7 -35 11t-50 5v32q0 12 1 13q42 11 88.5 15t88.5 4q1 -10 1.5 -20t0.5 -21v-406v0zM61 615q-27 0 -42.5 15t-15.5 41t15.5 41.5t42.5 15.5q26 0 42 -15.5t16 -41.5
t-16 -41t-42 -15zM269 615q-26 0 -42 15t-16 41t16 41.5t42 15.5q27 0 42.5 -15.5t15.5 -41.5t-15.5 -41t-42.5 -15z" />
    <glyph glyph-name="eth" unicode="&#xf0;" horiz-adv-x="574" 
d="M420 757q32 -20 43 -50l-56 -37q60 -72 92 -169t32 -212q0 -82 -15 -139.5t-46.5 -94t-80.5 -53.5t-116 -17q-116 0 -173 59t-57 188q0 127 65.5 191.5t186.5 64.5q29 0 60 -6t48 -17q-4 38 -19.5 82t-41.5 75l-94 -62q-8 1 -16 9l-23 29l100 71q-23 28 -73 50
q-14 -1 -25 -3.5t-19 -6.5q-26 10 -46 31q7 31 25 47q21 0 47.5 -4t53.5 -12.5t52.5 -22.5t44.5 -34zM291 431q-71 0 -110 -47t-39 -154q0 -87 34.5 -135.5t104.5 -48.5q152 0 152 202q0 83 -34 133t-108 50z" />
    <glyph glyph-name="ntilde" unicode="&#xf1;" horiz-adv-x="654" 
d="M216 83q23 -23 86 -27q5 -8 5 -15v-25q0 -8 -5 -16h-263q-6 7 -6 16v25q0 8 6 16q54 4 82 26v367q-14 7 -35 11t-50 5v32q0 12 1 13q42 11 84 15t84 4q1 -10 1.5 -20t0.5 -21v-33q48 42 95 59.5t95 17.5q47 0 76 -16.5t45 -46t21.5 -70t5.5 -88.5v-238q21 -14 79 -18
q5 -8 5 -15v-25q0 -8 -5 -16h-216q-6 7 -6 16v25q14 2 27 11t19 19v230q0 34 -2.5 63t-11 50.5t-24.5 33.5t-44 12q-38 0 -78 -20t-72 -58v-299v0zM196 616q-8 2 -18.5 10t-15.5 16q3 19 12 35.5t22 29t28.5 19.5t32.5 7q27 0 45.5 -9.5t34.5 -21t30.5 -21t33.5 -9.5
q24 0 36.5 18.5t23.5 40.5q8 -4 18 -10.5t15 -13.5q0 -20 -8.5 -37t-22 -29.5t-30 -20t-32.5 -7.5q-23 0 -42 9.5t-36 20.5t-33 20.5t-33 9.5q-23 0 -37 -17.5t-24 -39.5z" />
    <glyph glyph-name="ograve" unicode="&#xf2;" horiz-adv-x="582" 
d="M291 -18q-126 0 -187.5 68.5t-61.5 203.5q0 144 64.5 211.5t187.5 67.5q125 0 186 -69t61 -203q0 -144 -65 -211.5t-185 -67.5zM294 45q43 0 71.5 13t45 38t23.5 60t7 79q0 54 -7.5 97.5t-24.5 75t-46 48.5t-72 17t-72 -13.5t-46 -38.5t-24.5 -61t-7.5 -80
q0 -54 7.5 -97.5t25 -74t47 -47t73.5 -16.5zM216 744q15 -3 21 -9l135 -120q-3 -8 -23 -25q-72 29 -121.5 55t-57.5 51l46 48v0z" />
    <glyph glyph-name="oacute" unicode="&#xf3;" horiz-adv-x="582" 
d="M291 -18q-126 0 -187.5 68.5t-61.5 203.5q0 144 64.5 211.5t187.5 67.5q125 0 186 -69t61 -203q0 -144 -65 -211.5t-185 -67.5zM294 45q43 0 71.5 13t45 38t23.5 60t7 79q0 54 -7.5 97.5t-24.5 75t-46 48.5t-72 17t-72 -13.5t-46 -38.5t-24.5 -61t-7.5 -80
q0 -54 7.5 -97.5t25 -74t47 -47t73.5 -16.5zM412 696q-8 -25 -57.5 -51t-121.5 -55q-20 16 -24 25l137 120q6 6 20 9z" />
    <glyph glyph-name="ocircumflex" unicode="&#xf4;" horiz-adv-x="582" 
d="M291 -18q-126 0 -187.5 68.5t-61.5 203.5q0 144 64.5 211.5t187.5 67.5q125 0 186 -69t61 -203q0 -144 -65 -211.5t-185 -67.5zM294 45q43 0 71.5 13t45 38t23.5 60t7 79q0 54 -7.5 97.5t-24.5 75t-46 48.5t-72 17t-72 -13.5t-46 -38.5t-24.5 -61t-7.5 -80
q0 -54 7.5 -97.5t25 -74t47 -47t73.5 -16.5zM183 593q-22 14 -26 25l134 126l134 -124q-12 -20 -36 -30q-21 5 -42.5 24t-55.5 50q-19 -18 -32.5 -30t-25.5 -20t-23.5 -12.5t-26.5 -8.5z" />
    <glyph glyph-name="otilde" unicode="&#xf5;" horiz-adv-x="582" 
d="M291 -18q-126 0 -187.5 68.5t-61.5 203.5q0 144 64.5 211.5t187.5 67.5q125 0 186 -69t61 -203q0 -144 -65 -211.5t-185 -67.5zM294 45q43 0 71.5 13t45 38t23.5 60t7 79q0 54 -7.5 97.5t-24.5 75t-46 48.5t-72 17t-72 -13.5t-46 -38.5t-24.5 -61t-7.5 -80
q0 -54 7.5 -97.5t25 -74t47 -47t73.5 -16.5zM159 616q-8 2 -18.5 10t-15.5 16q3 19 12 35.5t22 29t28.5 19.5t32.5 7q27 0 45.5 -9.5t34.5 -21t30.5 -21t33.5 -9.5q24 0 36.5 18.5t23.5 40.5q8 -4 18 -10.5t15 -13.5q0 -20 -8.5 -37t-22 -29.5t-30 -20t-32.5 -7.5
q-23 0 -42 9.5t-36 20.5t-33 20.5t-33 9.5q-23 0 -37 -17.5t-24 -39.5z" />
    <glyph glyph-name="odieresis" unicode="&#xf6;" horiz-adv-x="582" 
d="M291 -18q-126 0 -187.5 68.5t-61.5 203.5q0 144 64.5 211.5t187.5 67.5q125 0 186 -69t61 -203q0 -144 -65 -211.5t-185 -67.5zM294 45q43 0 71.5 13t45 38t23.5 60t7 79q0 54 -7.5 97.5t-24.5 75t-46 48.5t-72 17t-72 -13.5t-46 -38.5t-24.5 -61t-7.5 -80
q0 -54 7.5 -97.5t25 -74t47 -47t73.5 -16.5zM187 615q-27 0 -42.5 15t-15.5 41t15.5 41.5t42.5 15.5q26 0 42 -15.5t16 -41.5t-16 -41t-42 -15zM395 615q-26 0 -42 15t-16 41t16 41.5t42 15.5q27 0 42.5 -15.5t15.5 -41.5t-15.5 -41t-42.5 -15z" />
    <glyph glyph-name="divide" unicode="&#xf7;" horiz-adv-x="572" 
d="M292 202q28 0 44.5 -16.5t16.5 -46.5q0 -29 -16.5 -46t-44.5 -17q-31 0 -48 17t-17 46q0 30 17 46.5t48 16.5zM292 572q28 0 44.5 -15.5t16.5 -46.5q0 -29 -16.5 -46t-44.5 -17q-31 0 -48 17t-17 46q0 31 17 46.5t48 15.5zM514 286h-420q-23 0 -37 7v69h420q24 0 37 -7
v-69z" />
    <glyph glyph-name="oslash" unicode="&#xf8;" horiz-adv-x="584" 
d="M294 533q26 0 50.5 -4.5t44.5 -11.5q8 15 17.5 33t17.5 28l58 -29q-5 -14 -15 -31t-18 -31q45 -33 69 -89t24 -137q0 -144 -65.5 -211t-184.5 -67q-30 0 -55 4.5t-47 12.5q-8 -16 -16.5 -32.5t-16.5 -24.5l-57 29q4 12 13.5 28.5t17.5 29.5q-89 69 -89 224
q0 144 64 211.5t188 67.5zM292 473q-44 0 -72.5 -14.5t-46 -42t-24.5 -68.5t-7 -94q0 -86 29 -147q51 87 97 173t91 179q-28 14 -67 14zM294 45q43 0 71.5 13t45.5 38t24 60t7 79q0 54 -7.5 101t-24.5 77q-52 -85 -98.5 -173t-91.5 -182q26 -13 74 -13z" />
    <glyph glyph-name="ugrave" unicode="&#xf9;" horiz-adv-x="635" 
d="M214 220q0 -29 1.5 -58t8.5 -51.5t22 -36.5t43 -14q24 0 46.5 8.5t42 21t34.5 26.5t25 25v309q-14 7 -35 11t-50 5v32q0 12 1 13q42 11 89 15t90 4q1 -10 1.5 -20t0.5 -21v-409q37 -18 86 -24v-26q0 -8 -3 -15q-32 -2 -69 -7.5t-85 -14.5q-3 4 -6 13.5t-5.5 21t-4.5 23.5
t-3 22q-14 -12 -32.5 -27t-42 -27.5t-51.5 -21.5t-60 -9q-76 0 -108 43.5t-32 146.5v272q-14 7 -35 11t-50 5v32q0 12 1 13q42 11 89 15t89 4q1 -10 1.5 -20t0.5 -21v-269zM241 744q15 -3 21 -9l135 -120q-3 -8 -23 -25q-72 29 -121.5 55t-57.5 51l46 48v0z" />
    <glyph glyph-name="uacute" unicode="&#xfa;" horiz-adv-x="635" 
d="M214 220q0 -29 1.5 -58t8.5 -51.5t22 -36.5t43 -14q24 0 46.5 8.5t42 21t34.5 26.5t25 25v309q-14 7 -35 11t-50 5v32q0 12 1 13q42 11 89 15t90 4q1 -10 1.5 -20t0.5 -21v-409q37 -18 86 -24v-26q0 -8 -3 -15q-32 -2 -69 -7.5t-85 -14.5q-3 4 -6 13.5t-5.5 21t-4.5 23.5
t-3 22q-14 -12 -32.5 -27t-42 -27.5t-51.5 -21.5t-60 -9q-76 0 -108 43.5t-32 146.5v272q-14 7 -35 11t-50 5v32q0 12 1 13q42 11 89 15t89 4q1 -10 1.5 -20t0.5 -21v-269zM439 696q-8 -25 -57.5 -51t-121.5 -55q-20 16 -24 25l137 120q6 6 20 9z" />
    <glyph glyph-name="ucircumflex" unicode="&#xfb;" horiz-adv-x="635" 
d="M214 220q0 -29 1.5 -58t8.5 -51.5t22 -36.5t43 -14q24 0 46.5 8.5t42 21t34.5 26.5t25 25v309q-14 7 -35 11t-50 5v32q0 12 1 13q42 11 89 15t90 4q1 -10 1.5 -20t0.5 -21v-409q37 -18 86 -24v-26q0 -8 -3 -15q-32 -2 -69 -7.5t-85 -14.5q-3 4 -6 13.5t-5.5 21t-4.5 23.5
t-3 22q-14 -12 -32.5 -27t-42 -27.5t-51.5 -21.5t-60 -9q-76 0 -108 43.5t-32 146.5v272q-14 7 -35 11t-50 5v32q0 12 1 13q42 11 89 15t89 4q1 -10 1.5 -20t0.5 -21v-269zM209 593q-22 14 -26 25l134 126l134 -124q-12 -20 -36 -30q-21 5 -42.5 24t-55.5 50
q-19 -18 -32.5 -30t-25.5 -20t-23.5 -12.5t-26.5 -8.5z" />
    <glyph glyph-name="udieresis" unicode="&#xfc;" horiz-adv-x="635" 
d="M214 220q0 -29 1.5 -58t8.5 -51.5t22 -36.5t43 -14q24 0 46.5 8.5t42 21t34.5 26.5t25 25v309q-14 7 -35 11t-50 5v32q0 12 1 13q42 11 89 15t90 4q1 -10 1.5 -20t0.5 -21v-409q37 -18 86 -24v-26q0 -8 -3 -15q-32 -2 -69 -7.5t-85 -14.5q-3 4 -6 13.5t-5.5 21t-4.5 23.5
t-3 22q-14 -12 -32.5 -27t-42 -27.5t-51.5 -21.5t-60 -9q-76 0 -108 43.5t-32 146.5v272q-14 7 -35 11t-50 5v32q0 12 1 13q42 11 89 15t89 4q1 -10 1.5 -20t0.5 -21v-269zM207 615q-27 0 -42.5 15t-15.5 41t15.5 41.5t42.5 15.5q26 0 42 -15.5t16 -41.5t-16 -41t-42 -15z
M415 615q-26 0 -42 15t-16 41t16 41.5t42 15.5q27 0 42.5 -15.5t15.5 -41.5t-15.5 -41t-42.5 -15z" />
    <glyph glyph-name="yacute" unicode="&#xfd;" horiz-adv-x="559" 
d="M87 451q-14 5 -36 9t-44 5q-5 8 -5 16v24q0 8 6 16h246q5 -8 5 -16v-34q-17 -4 -33.5 -8.5t-32.5 -11.5l111 -335l125 335q-21 7 -42 12t-38 8v34q0 8 5 16h223q3 -6 3 -16v-21q0 -12 -4 -19q-21 -2 -38.5 -8t-33.5 -15l-181 -442q-19 -46 -37.5 -89.5t-39.5 -77.5
t-45 -54.5t-53 -20.5q-38 0 -62 14.5t-33 34.5q1 9 4 20t7.5 22t9.5 19.5t11 12.5q8 -1 15 -2t14 -3q2 -11 8.5 -19.5t20.5 -8.5q16 0 30.5 7t27.5 24t26 45.5t27 71.5zM428 696q-8 -25 -57.5 -51t-121.5 -55q-20 16 -24 25l137 120q6 6 20 9z" />
    <glyph glyph-name="thorn" unicode="&#xfe;" horiz-adv-x="599" 
d="M190 -160q5 -6 17 -10.5t28 -7.5t33.5 -5.5t32.5 -3.5q5 -8 5 -15v-24q0 -8 -5 -16h-289q-6 7 -6 16v24q0 8 6 16q54 4 82 26v868q-14 7 -35 11t-50 5v32q0 3 2 13q42 11 88.5 15t89.5 4q1 -10 1.5 -20t0.5 -21v-255q25 19 67.5 30t90.5 11q107 0 157.5 -67.5
t50.5 -187.5q0 -78 -15 -132.5t-49.5 -88t-91 -49t-138.5 -15.5q-17 0 -35.5 0.5t-37.5 2.5v-156zM326 462q-39 0 -75 -22.5t-62 -57.5v-284q17 -21 46.5 -33t71.5 -12q35 0 63 10t47.5 34.5t30 66.5t10.5 106q0 103 -33 147.5t-99 44.5z" />
    <glyph glyph-name="ydieresis" unicode="&#xff;" horiz-adv-x="559" 
d="M87 451q-14 5 -36 9t-44 5q-5 8 -5 16v24q0 8 6 16h246q5 -8 5 -16v-34q-17 -4 -33.5 -8.5t-32.5 -11.5l111 -335l125 335q-21 7 -42 12t-38 8v34q0 8 5 16h223q3 -6 3 -16v-21q0 -12 -4 -19q-21 -2 -38.5 -8t-33.5 -15l-181 -442q-19 -46 -37.5 -89.5t-39.5 -77.5
t-45 -54.5t-53 -20.5q-38 0 -62 14.5t-33 34.5q1 9 4 20t7.5 22t9.5 19.5t11 12.5q8 -1 15 -2t14 -3q2 -11 8.5 -19.5t20.5 -8.5q16 0 30.5 7t27.5 24t26 45.5t27 71.5zM208 615q-27 0 -42.5 15t-15.5 41t15.5 41.5t42.5 15.5q26 0 42 -15.5t16 -41.5t-16 -41t-42 -15z
M416 615q-26 0 -42 15t-16 41t16 41.5t42 15.5q27 0 42.5 -15.5t15.5 -41.5t-15.5 -41t-42.5 -15z" />
    <glyph glyph-name="dotlessi" unicode="&#x131;" horiz-adv-x="329" 
d="M221 83q23 -23 86 -27q5 -8 5 -15v-25q0 -8 -5 -16h-264q-5 8 -5 16v25q0 8 5 16q55 4 83 26v367q-14 7 -35 11t-50 5v32q0 12 1 13q42 11 88.5 15t88.5 4q1 -10 1.5 -20t0.5 -21v-406v0z" />
    <glyph glyph-name="Lslash" unicode="&#x141;" horiz-adv-x="576" 
d="M47 0q-6 4 -6 15v26q0 11 6 16q57 0 76 13v263l-34 -15q-15 -7 -30 -8l-22 51l86 39v264q-19 13 -76 13q-6 4 -6 17v26q0 9 6 14h253q6 -5 6 -14v-26q0 -13 -6 -17q-57 0 -76 -13v-216l97 45q7 3 16 5t14 2l24 -49l-151 -70v-311q25 -13 80 -13h121q18 9 30 21.5t21 28
t16 33.5t14 38h53q1 -4 1.5 -8.5t0.5 -11.5l-6 -131q-2 -14 -13 -27h-495z" />
    <glyph glyph-name="lslash" unicode="&#x142;" horiz-adv-x="308" 
d="M201 442l31 15q7 3 16 5t14 2l24 -50l-85 -40v-291q21 -22 86 -27q5 -8 5 -15v-25q0 -8 -5 -16h-264q-6 7 -6 16v25q0 8 6 16q53 4 82 26v245l-42 -19q-8 -4 -15 -5.5t-14 -2.5l-23 51l94 44v312q-14 7 -35 11t-50 5v32q0 12 1 13q42 11 89 15t89 4q1 -10 1.5 -20
t0.5 -21v-305z" />
    <glyph glyph-name="OE" unicode="&#x152;" horiz-adv-x="1120" 
d="M817 358q-34 0 -59 -13v-275q25 -13 80 -13h121q34 18 50 50t30 71h52q3 -8 3 -20l-7 -131q-2 -13 -13 -27h-411q-7 13 -7 24v63q-36 -54 -96.5 -78t-141.5 -24q-186 0 -276.5 96t-90.5 287q0 90 23.5 160.5t69.5 119.5t112.5 74.5t152.5 25.5q172 0 247 -97v54
q0 19 7 29h341q43 0 66 6q2 -2 2.5 -8.5t0.5 -11.5l-5 -100q-1 -12 -3 -22t-4 -16h-53q-2 30 -10 50t-22 39h-156q-29 0 -62 -14v-221q25 -15 59 -15h86q30 13 39 60h41q1 -8 1.5 -18.5t0.5 -23.5l-6 -103q-2 -20 -4.5 -34t-6.5 -22h-38q-5 43 -21 78h-92zM404 689
q-57 0 -102.5 -16.5t-76.5 -53t-47.5 -95.5t-16.5 -144q0 -88 17.5 -151t51 -103.5t81.5 -60t110 -19.5q60 0 104.5 17t73.5 54.5t43 97t14 144.5q0 93 -18 156t-51 101.5t-79.5 55.5t-103.5 17z" />
    <glyph glyph-name="oe" unicode="&#x153;" horiz-adv-x="919" 
d="M682 533q43 0 81.5 -10t66.5 -34t44.5 -63.5t16.5 -97.5q0 -14 -2 -27.5t-7 -21.5h-344q1 -44 8.5 -82.5t27 -67.5t52.5 -46t86 -17q45 0 77.5 12t58.5 43q7 -1 14 -5l19 -14q7 -7 8 -10q-7 -29 -27.5 -48.5t-49.5 -32t-63.5 -18t-69.5 -5.5q-69 0 -114.5 23.5
t-73.5 68.5q-56 -98 -200 -98q-126 0 -187.5 68.5t-61.5 203.5q0 144 64.5 211.5t187.5 67.5q138 0 195 -92q56 92 193 92zM294 45q43 0 71.5 13t45 38t23.5 60t7 79q0 54 -7.5 97.5t-24.5 75t-46 48.5t-72 17t-72 -13.5t-46 -38.5t-24.5 -61t-7.5 -80q0 -54 7.5 -97.5
t25 -74t47 -47t73.5 -16.5zM675 473q-26 0 -50 -7.5t-42.5 -24t-30 -43t-12.5 -63.5h213q23 0 32 5t9 31q0 52 -34 77t-85 25z" />
    <glyph glyph-name="Scaron" unicode="&#x160;" horiz-adv-x="556" 
d="M296 748q71 0 113.5 -5.5t74.5 -17.5q4 -15 4 -33v-78q0 -20 -4 -31h-37q-4 0 -14 2q-9 31 -18 51t-24 32t-40 16.5t-65 4.5q-66 0 -100 -23t-34 -75q0 -20 3 -35t12 -28t25.5 -26t43.5 -29q62 -36 113.5 -64t88 -57.5t57 -66.5t20.5 -91q0 -42 -20 -79.5t-56 -66.5
t-85.5 -46t-107.5 -17q-69 0 -120 10t-80 33q0 18 0.5 41.5t2 47t3 43.5t4.5 30h53q3 -8 3 -16v-58q23 -42 61 -56t83 -14q32 0 62 9t53 25.5t37 40t14 53.5q0 41 -18 69t-58 51q-62 36 -114.5 64t-91 57t-60 66t-21.5 91q0 44 18.5 77t51 55t75.5 33t92 11zM386 955
q23 -14 26 -25l-133 -126l-135 124q12 19 36 30q21 -5 43 -24t56 -51q19 18 32.5 30t25 20t23 13t26.5 9z" />
    <glyph glyph-name="scaron" unicode="&#x161;" horiz-adv-x="470" 
d="M369 376q-3 0 -13 2q-11 34 -19.5 53.5t-20 29t-29 12t-46.5 2.5q-40 0 -66 -16.5t-26 -50.5q0 -24 21 -41t53 -32.5t69 -31t69 -36.5t53 -50t21 -70q0 -39 -19.5 -69t-50 -50t-69 -30t-77.5 -10q-17 0 -40.5 2.5t-47 6.5t-44 10t-29.5 13q-9 42 -10.5 78.5t-1.5 61.5
q7 3 13 3h24q9 0 17 -3q9 -33 18.5 -55t23.5 -35.5t34.5 -19t51.5 -5.5q16 0 36.5 5t38.5 15.5t30 26t12 35.5q0 33 -20.5 53t-52 35.5t-67.5 29t-67.5 32.5t-52 46.5t-20.5 70.5q0 34 13.5 60t38.5 43.5t59 26.5t75 9q31 0 58 -2t47 -8t31.5 -16t11.5 -25l6 -85
q0 -13 -4 -21h-32zM351 741q23 -14 26 -25l-133 -126l-135 124q12 19 36 30q21 -5 43 -24t56 -51q19 18 32.5 30t25 20t23 13t26.5 9z" />
    <glyph glyph-name="Ydieresis" unicode="&#x178;" horiz-adv-x="741" 
d="M17 720q0 6 5 14h249q5 -5 5 -15v-42q-32 -9 -48 -25l153 -266l159 272q-25 19 -64 19v43q0 8 3 14h242q5 -8 5 -14v-26q0 -10 -3 -17q-61 -1 -103 -21l-181 -295q-9 -28 -12 -61t-3 -64v-166q19 -13 75 -13q7 -4 7 -16v-26q0 -11 -7 -15h-253q-7 4 -7 15v26q0 12 7 16
q56 0 75 13v181q0 32 -5.5 62.5t-22.5 62.5l-170 269q-39 27 -106 32v43v0zM277 829q-27 0 -42.5 15t-15.5 41t15.5 41.5t42.5 15.5q26 0 42 -15.5t16 -41.5t-16 -41t-42 -15zM485 829q-26 0 -42 15t-16 41t16 41.5t42 15.5q27 0 42.5 -15.5t15.5 -41.5t-15.5 -41t-42.5 -15
z" />
    <glyph glyph-name="Zcaron" unicode="&#x17d;" horiz-adv-x="604" 
d="M159 58q31 3 145 3h139q25 7 41.5 19t26.5 28t15.5 34t9.5 38q8 5 17 5h22q7 0 15 -3q-1 -51 -5 -94.5t-11 -81.5q-21 -6 -61 -6h-476q-4 4 -4 15v34l415 624q-5 -2 -13 -2h-21h-45h-191q-15 -6 -29 -20t-26 -30.5t-21 -34t-14 -30.5q-6 -2 -8 -2l-25 5q-9 2 -10 4l7 131
q1 25 9 43q45 -3 89 -3h415q5 -5 6 -14l3 -32zM414 955q23 -14 26 -25l-133 -126l-135 124q12 19 36 30q21 -5 43 -24t56 -51q19 18 32.5 30t25 20t23 13t26.5 9z" />
    <glyph glyph-name="zcaron" unicode="&#x17e;" horiz-adv-x="482" 
d="M461 163q5 0 13 -2q-1 -40 -6.5 -80.5t-14.5 -75.5q-7 -2 -18.5 -3.5t-34.5 -1.5h-360q-4 7 -4 16v33l301 413q-26 -1 -51.5 -1.5t-52.5 -0.5h-58q-15 -6 -28.5 -17.5t-24.5 -26t-19.5 -30t-13.5 -28.5q-6 -2 -8 -2l-25 5q-8 3 -10 5l5 114q2 25 9 44q45 -3 89 -3h297
q7 -4 7 -13v-30l-303 -414q69 3 127 3h71q31 12 49.5 38.5t26.5 55.5q8 2 15 2h22zM359 741q23 -14 26 -25l-133 -126l-135 124q12 19 36 30q21 -5 43 -24t56 -51q19 18 32.5 30t25 20t23 13t26.5 9z" />
    <glyph glyph-name="circumflex" unicode="&#x2c6;" horiz-adv-x="334" 
d="M60 593q-22 14 -26 25l134 126l134 -124q-12 -20 -36 -30q-21 5 -42.5 24t-55.5 50q-19 -18 -32.5 -30t-25.5 -20t-23.5 -12.5t-26.5 -8.5z" />
    <glyph glyph-name="caron" unicode="&#x2c7;" horiz-adv-x="331" 
d="M276 741q23 -14 26 -25l-133 -126l-135 124q12 19 36 30q21 -5 43 -24t56 -51q19 18 32.5 30t25 20t23 13t26.5 9z" />
    <glyph glyph-name="ring" unicode="&#x2da;" horiz-adv-x="323" 
d="M161 545q-48 0 -72.5 26t-24.5 74q0 46 24.5 72.5t72.5 26.5t73.5 -27t25.5 -72q0 -48 -25.5 -74t-73.5 -26zM161 582q58 0 58 63q0 30 -14.5 47t-43.5 17q-30 0 -42.5 -17t-12.5 -47q0 -31 12.5 -47t42.5 -16z" />
    <glyph glyph-name="tilde" unicode="&#x2dc;" horiz-adv-x="401" 
d="M67 616q-8 2 -18.5 10t-15.5 16q3 19 12 35.5t22 29t28.5 19.5t32.5 7q27 0 45.5 -9.5t34.5 -21t30.5 -21t33.5 -9.5q24 0 36.5 18.5t23.5 40.5q8 -4 18 -10.5t15 -13.5q0 -20 -8.5 -37t-22 -29.5t-30 -20t-32.5 -7.5q-23 0 -42 9.5t-36 20.5t-33 20.5t-33 9.5
q-23 0 -37 -17.5t-24 -39.5z" />
    <glyph glyph-name="endash" unicode="&#x2013;" horiz-adv-x="602" 
d="M545 249h-452q-23 0 -37 7v67h452q24 0 37 -7v-67z" />
    <glyph glyph-name="emdash" unicode="&#x2014;" horiz-adv-x="996" 
d="M940 249h-847q-23 0 -37 7v67h847q24 0 37 -7v-67z" />
    <glyph glyph-name="quoteleft" unicode="&#x2018;" horiz-adv-x="205" 
d="M109 521q-19 5 -39 19t-23 35q2 23 9 52.5t17 58.5t22 53.5t24 37.5q10 -2 20 -8t15 -13q-5 -34 -9 -59t-4 -48q0 -44 17 -92q-5 -12 -17.5 -22.5t-31.5 -13.5z" />
    <glyph glyph-name="quoteright" unicode="&#x2019;" horiz-adv-x="241" 
d="M142 777q19 -5 35 -19t16 -35q-7 -24 -20 -53.5t-29.5 -58t-33.5 -53t-31 -37.5q-11 2 -19 8t-13 13q9 27 16.5 47t13 38.5t8.5 36.5t3 41q0 9 -0.5 18.5t-1.5 17.5q7 12 21.5 22.5t34.5 13.5z" />
    <glyph glyph-name="quotesinglbase" unicode="&#x201a;" horiz-adv-x="252" 
d="M150 128q19 -5 34.5 -19t15.5 -36q-7 -24 -20.5 -53.5t-29 -58t-32.5 -53t-31 -37.5q-11 2 -19 7.5t-13 12.5q9 27 16.5 47.5t13 39t8.5 36.5t3 41q0 9 -0.5 18.5t-1.5 18.5q7 12 21.5 22.5t34.5 13.5z" />
    <glyph glyph-name="quotedblleft" unicode="&#x201c;" horiz-adv-x="358" 
d="M262 521q-19 5 -38.5 19t-22.5 35q2 23 9 52.5t17 58.5t21.5 53.5t23.5 37.5q11 -2 20.5 -8t14.5 -13q-5 -34 -8.5 -59t-3.5 -48q0 -47 16 -92q-5 -12 -17 -22.5t-32 -13.5zM109 521q-19 5 -39 19t-23 35q2 23 9 52.5t17 58.5t22 53.5t24 37.5q10 -2 20 -8t15 -13
q-5 -34 -9 -59t-4 -48q0 -44 17 -92q-5 -12 -17.5 -22.5t-31.5 -13.5z" />
    <glyph glyph-name="quotedblright" unicode="&#x201d;" horiz-adv-x="393" 
d="M141 777q19 -5 35 -19t16 -35q-7 -24 -20 -53.5t-29.5 -58t-33.5 -53t-31 -37.5q-11 2 -19 8t-13 13q9 27 16.5 47t13 38.5t8.5 36.5t3 41q0 9 -0.5 18.5t-1.5 17.5q7 12 21.5 22.5t34.5 13.5zM295 777q18 -5 34 -19t16 -35q-7 -24 -20 -53.5t-29.5 -58t-33.5 -53
t-31 -37.5q-11 2 -18.5 8t-12.5 13q9 26 16.5 46.5t12.5 39t8 36.5t3 41q0 9 -0.5 18.5t-1.5 17.5q7 12 22 22.5t35 13.5z" />
    <glyph glyph-name="quotedblbase" unicode="&#x201e;" horiz-adv-x="412" 
d="M150 128q19 -5 34.5 -19t15.5 -36q-7 -24 -20.5 -53.5t-29 -58t-32.5 -53t-31 -37.5q-11 2 -19 7.5t-13 12.5q9 27 16.5 47.5t13 39t8.5 36.5t3 41q0 9 -0.5 18.5t-1.5 18.5q7 12 21.5 22.5t34.5 13.5zM303 128q19 -5 35 -19t16 -36q-7 -24 -20.5 -53.5t-29.5 -58
t-33 -53t-31 -37.5q-11 2 -18.5 7.5t-12.5 12.5q9 27 16.5 47.5t12.5 39t8 37t3 40.5q0 9 -0.5 18.5t-1.5 18.5q7 12 21.5 22.5t34.5 13.5z" />
    <glyph glyph-name="dagger" unicode="&#x2020;" horiz-adv-x="523" 
d="M302 655q0 -15 -0.5 -34t-1.5 -41q60 0 99.5 2t62.5 6q7 -10 7 -24v-22q0 -13 -7 -20q-23 3 -62.5 4.5t-97.5 2.5l-15 -451q-1 -19 -4 -38t-10 -40h-24q-7 21 -10 40t-4 38l-16 451q-57 -1 -96 -2.5t-62 -4.5q-7 7 -7 20v22q0 14 7 24q23 -4 63 -6t98 -2q-3 43 -3 75v46
q0 22 15 33h54q14 -11 14 -33v-46z" />
    <glyph glyph-name="daggerdbl" unicode="&#x2021;" horiz-adv-x="520" 
d="M302 34q0 -23 -14 -34h-54q-15 12 -15 34v45q0 32 3 76q-58 0 -98 -2t-63 -6q-7 10 -7 24v23q0 12 7 19q23 -3 62 -4.5t96 -2.5l19 161l-19 162q-57 -1 -96 -2.5t-62 -4.5q-7 7 -7 20v22q0 14 7 24q23 -4 63 -6t98 -2q-3 43 -3 75v46q0 22 15 33h54q14 -11 14 -33v-46
q0 -15 -0.5 -34t-1.5 -41q60 0 99.5 2t62.5 6q7 -10 7 -24v-22q0 -13 -7 -20q-23 3 -62.5 4.5t-97.5 2.5l-18 -162l18 -161q58 1 97.5 2.5t62.5 4.5q7 -7 7 -19v-23q0 -14 -7 -24q-23 4 -62.5 6t-99.5 2q1 -22 1.5 -41t0.5 -35v-45z" />
    <glyph glyph-name="bullet" unicode="&#x2022;" horiz-adv-x="424" 
d="M73 348q0 63 37.5 97.5t103.5 34.5q63 0 99.5 -34.5t36.5 -97.5q0 -60 -36.5 -96t-99.5 -36q-66 0 -103.5 36t-37.5 96z" />
    <glyph glyph-name="ellipsis" unicode="&#x2026;" horiz-adv-x="1268" 
d="M183 -12q-31 0 -47.5 17t-16.5 46q0 30 16.5 47t47.5 17q27 0 43.5 -17t16.5 -47q0 -29 -16.5 -46t-43.5 -17zM634 -12q-31 0 -47.5 17t-16.5 46q0 30 16.5 47t47.5 17q28 0 44.5 -17t16.5 -47q0 -29 -16.5 -46t-44.5 -17zM1085 -12q-30 0 -47 17t-17 46q0 30 17 47
t47 17q29 0 45.5 -17t16.5 -47q0 -29 -16.5 -46t-45.5 -17z" />
    <glyph glyph-name="perthousand" unicode="&#x2030;" horiz-adv-x="1057" 
d="M870 378q72 0 104.5 -51t32.5 -132q0 -97 -33.5 -150.5t-105.5 -53.5q-75 0 -111.5 51t-36.5 148q0 41 8 75.5t26 59.5t46.5 39t69.5 14zM873 326q-42 0 -59 -39t-17 -96q0 -69 17 -108t57 -39q39 0 57 38.5t18 110.5q0 28 -4 52t-12.5 42t-22.5 28.5t-34 10.5zM205 729
q72 0 105 -50.5t33 -132.5q0 -97 -34.5 -150.5t-106.5 -53.5q-73 0 -110 51t-37 148q0 41 8.5 75.5t26.5 59.5t46.5 39t68.5 14zM207 677q-21 0 -35.5 -10.5t-23.5 -29t-13 -43t-4 -52.5q0 -69 17.5 -107.5t57.5 -38.5q39 0 56.5 38t17.5 110q0 57 -16.5 95t-56.5 38z
M571 734q12 0 23 -6l-384 -728h-36q-19 0 -33 7l384 727h46zM535 378q72 0 104.5 -50.5t32.5 -132.5q0 -97 -33.5 -150.5t-105.5 -53.5q-75 0 -111.5 51t-36.5 148q0 41 8 75.5t26 59.5t46.5 39t69.5 14zM538 326q-42 0 -59 -39t-17 -96q0 -69 17 -108t57 -39
q39 0 56.5 38.5t17.5 110.5q0 28 -4 52t-12.5 42t-22.5 28.5t-33 10.5z" />
    <glyph glyph-name="guilsinglleft" unicode="&#x2039;" horiz-adv-x="290" 
d="M225 446q7 -6 9 -11l-99 -145l78 -107q6 -10 11 -21.5t5 -19.5l-28 -28q-5 5 -9.5 9t-7.5 7l-129 160l130 161q7 10 19 15z" />
    <glyph glyph-name="guilsinglright" unicode="&#x203a;" horiz-adv-x="290" 
d="M64 133q-7 6 -9 11l100 145l-78 107q-7 10 -12 21.5t-5 19.5l29 29q9 -7 18 -17l127 -160l-128 -160q-7 -10 -20 -15z" />
    <glyph glyph-name="fraction" unicode="&#x2044;" horiz-adv-x="276" 
d="M409 734q14 0 25 -6l-513 -728h-54q-15 0 -24 6l512 728h54z" />
    <glyph glyph-name="zerosuperior" unicode="&#x2070;" horiz-adv-x="389" 
d="M196 396q27 0 44 11t26 35t12.5 61t3.5 88q0 50 -3.5 90.5t-14 68.5t-30 43t-50.5 15q-48 0 -65 -48.5t-17 -148.5q0 -60 5 -101.5t16 -66.5t29 -36t44 -11zM189 345q-90 0 -128 63.5t-38 186.5q0 138 41.5 201.5t132.5 63.5q88 0 126.5 -64t38.5 -190q0 -131 -40 -196
t-133 -65z" />
    <glyph glyph-name="foursuperior" unicode="&#x2074;" horiz-adv-x="394" 
d="M185 401q17 1 28 2t17 5v75q0 14 -13 14h-168q-9 0 -16.5 0.5t-14.5 1.5q-6 19 -6 39l174 282q22 13 51 22.5t59 14.5q5 -5 6 -13.5t1 -18.5v-257q0 -8 5 -11h41q16 0 29 -7l-7 -44q-9 -9 -25 -9h-40q-3 -9 -3 -14v-75q3 -2 15.5 -5t38.5 -5q1 -2 1 -11v-17
q0 -11 -10 -15h-161q-10 4 -10 15v17q0 9 8 14zM230 778h-11l-132 -221h128q3 0 7.5 1t7.5 1v219z" />
    <glyph glyph-name="fivesuperior" unicode="&#x2075;" horiz-adv-x="379" 
d="M70 844q18 7 43 7h151q13 0 28 1t33 4q0 -29 -1 -49.5t-6 -33.5h-30q-2 19 -19 22t-46 3h-99l-9 -110q5 1 10.5 1.5t10.5 0.5q102 0 153.5 -42.5t51.5 -120.5q0 -41 -10 -74.5t-33.5 -57.5t-62 -37t-95.5 -13q-6 0 -21 2t-32 6.5t-32.5 11t-21.5 14.5v94q1 5 2 9.5t6 9.5
h17q5 0 9 -2t9 -4q8 -51 28.5 -71.5t51.5 -20.5q54 0 83 25t29 88q0 33 -9.5 55t-30.5 35.5t-55.5 19t-84.5 5.5h-20t-18 -1l18 218z" />
    <glyph glyph-name="sixsuperior" unicode="&#x2076;" horiz-adv-x="382" 
d="M267 859q10 -7 15 -16.5t9 -23.5q-39 -1 -69.5 -15.5t-52.5 -38t-36 -54t-20 -63.5q15 13 38.5 19.5t46.5 6.5q36 0 65 -9t50 -29t32.5 -51.5t11.5 -77.5q0 -162 -158 -162q-45 0 -78 10t-54.5 33.5t-32 62t-10.5 94.5q0 59 15.5 115.5t46.5 100.5t76 71t105 27zM189 628
q-48 0 -69 -28t-21 -82q0 -58 23.5 -92t72.5 -34q45 0 65.5 32.5t20.5 81.5q0 64 -23.5 93t-68.5 29z" />
    <glyph glyph-name="sevensuperior" unicode="&#x2077;" horiz-adv-x="377" 
d="M348 851q4 -8 6.5 -17.5t3.5 -20.5q-24 -48 -49 -102.5t-48.5 -111.5t-43 -115.5t-32.5 -113.5q-11 -8 -27.5 -13t-36.5 -9q-12 3 -19 13q3 19 14 52t26.5 73.5t34.5 84.5t37.5 85t36 75t30.5 55h-183q-7 -11 -13.5 -29t-11.5 -43q-2 -3 -10 -3h-19l-12 7q0 14 2 47.5
t6 81.5q9 2 21 3t24 1h263z" />
    <glyph glyph-name="eightsuperior" unicode="&#x2078;" horiz-adv-x="396" 
d="M31 484q0 26 8 46t21.5 36t32 29t38.5 24q-35 23 -57 50t-22 71q0 51 38.5 85.5t110.5 34.5q63 0 101.5 -27t38.5 -87q0 -42 -24 -71t-57 -48q45 -26 74 -56t29 -80q0 -67 -39.5 -106.5t-126.5 -39.5q-81 0 -123.5 35t-42.5 104zM288 484q0 19 -9.5 34.5t-24 28.5
t-32.5 23.5t-35 19.5q-16 -5 -32 -15t-29 -24t-21 -31t-8 -36q0 -48 26 -70t74 -22q42 0 66.5 24.5t24.5 67.5zM123 747q0 -16 7.5 -30.5t19.5 -27t27.5 -22.5t30.5 -17q31 17 50.5 37.5t19.5 51.5q0 38 -21 54t-58 16q-38 0 -57 -12.5t-19 -49.5z" />
    <glyph glyph-name="ninesuperior" unicode="&#x2079;" horiz-adv-x="388" 
d="M134 345q-8 8 -12 17.5t-6 23.5q34 2 62 22.5t49 50.5t35 64.5t20 64.5q-15 -13 -41 -22t-60 -9q-75 0 -115 40t-40 118q0 69 44 107t113 38q81 0 128 -41.5t47 -138.5q0 -62 -15 -122.5t-44 -107.5t-70.5 -76t-94.5 -29zM195 608q38 0 63 27t25 72q0 54 -29 80t-65 26
q-39 0 -63.5 -26t-24.5 -74q0 -54 24.5 -79.5t69.5 -25.5z" />
    <glyph glyph-name="parenleftsuperior" unicode="&#x207d;" horiz-adv-x="250" 
d="M191 876q6 -5 6 -15v-27q0 -3 -0.5 -7t-2.5 -6q-19 -21 -34 -51.5t-25 -67.5t-15 -77.5t-5 -80.5q0 -43 6.5 -85.5t19 -80.5t31 -69t43.5 -52l1 -12l-14 -27q-41 23 -70 58.5t-48 79t-27.5 92t-8.5 96.5t7 95.5t23.5 91t42.5 81t64 64.5h6z" />
    <glyph glyph-name="parenrightsuperior" unicode="&#x207e;" horiz-adv-x="251" 
d="M63 876q38 -27 64 -64.5t41.5 -81t22.5 -91t7 -95.5t-8.5 -96.5t-27 -91.5t-48 -79t-70.5 -59l-13 27l1 12q25 21 43.5 52t31 69t19 80.5t6.5 85.5q0 40 -5 80.5t-15 77t-24.5 67.5t-33.5 52q-3 2 -4 6t-1 7v27q0 9 8 15h6z" />
    <glyph glyph-name="nsuperior" unicode="&#x207f;" horiz-adv-x="442" 
d="M150 418q14 -15 55 -16q2 -5 4 -9t2 -6v-16q0 -6 -6 -16h-180q-6 7 -6 16v16q0 9 6 15q34 3 52 15v237q-18 7 -56 9v27q0 9 15.5 14.5t36 8t40.5 3t29 0.5q1 -7 1 -15v-17v-13q32 26 61.5 36t60.5 10q32 0 52 -11.5t31.5 -31.5t15.5 -47.5t4 -59.5v-157q13 -6 50 -8
q5 -13 5 -15v-16q0 -4 -6 -16h-147q-4 5 -5.5 8t-1.5 8v19q9 2 18 7t13 10v152q0 21 -1.5 39.5t-7 31.5t-15.5 20.5t-27 7.5q-23 0 -47.5 -12.5t-45.5 -35.5v-192z" />
    <glyph glyph-name="zeroinferior" unicode="&#x2080;" horiz-adv-x="389" 
d="M196 -77q27 0 44 11t26 34.5t12.5 60.5t3.5 89q0 50 -3.5 90t-14 68t-30 43t-50.5 15q-48 0 -65 -48t-17 -148q0 -61 5 -102t16 -66t29 -36t44 -11zM189 -129q-90 0 -128 63.5t-38 188.5q0 136 41.5 200t132.5 64q88 0 126.5 -64t38.5 -190q0 -132 -40 -197t-133 -65z
" />
    <glyph glyph-name="oneinferior" unicode="&#x2081;" horiz-adv-x="427" 
d="M236 390q9 0 17.5 -1.5t16.5 -2.5q-1 -10 -1.5 -24t-0.5 -28v-398q5 -2 14.5 -3.5t20.5 -2l22 -1t20 -0.5q8 -5 8 -16v-17q0 -10 -8 -15h-234q-8 5 -8 15v17q0 11 8 16q8 0 20 0.5t24.5 1t23 2t15.5 3.5v337q0 17 -4 26l-83 -41q-13 6 -14 9l-10 16q-2 5 -2.5 8.5
t-0.5 8.5l156 90v0z" />
    <glyph glyph-name="twoinferior" unicode="&#x2082;" horiz-adv-x="385" 
d="M184 386q82 0 115.5 -36t33.5 -99q0 -54 -26.5 -99.5t-71.5 -80.5q-18 -14 -36 -29.5t-34.5 -31.5t-30 -31.5t-21.5 -30.5h155q17 8 25 22.5t16 45.5q7 6 15 6h12q7 0 18 -8q-1 -35 -4.5 -67t-11.5 -61q-7 -3 -15 -4t-16 -1h-276q-10 16 -10 32q22 52 62.5 95.5t80 82.5
t69 76.5t29.5 77.5q0 50 -23.5 67t-66.5 17q-24 0 -44 -4t-35 -16q-3 -8 -3.5 -19t-1.5 -22t-4 -18.5t-12 -7.5h-17q-9 0 -12 16t-3 36v55q11 10 28 17t37 11.5t40.5 6.5t38.5 2z" />
    <glyph glyph-name="threeinferior" unicode="&#x2083;" horiz-adv-x="393" 
d="M172 387q75 0 116.5 -29.5t41.5 -92.5q0 -37 -16.5 -66t-46.5 -45q40 -14 61.5 -43.5t21.5 -75.5q0 -85 -45.5 -124.5t-147.5 -39.5q-45 0 -79.5 10.5t-46.5 29.5q0 44 3 104q6 6 17 6h12q9 0 14 -5q10 -45 26 -68.5t55 -23.5q54 0 85 21t31 79q0 38 -20 61.5t-49 30.5
h-55q-10 4 -10 18v20q0 9 7 16q55 0 82 18.5t27 64.5q0 42 -21.5 60.5t-69.5 18.5q-27 0 -46 -13.5t-22 -40.5q-1 -7 -7 -12.5t-15 -5.5h-10q-8 0 -18 6v36v27t2 25q15 11 31.5 17.5t33 10t31.5 4.5t27 1z" />
    <glyph glyph-name="fourinferior" unicode="&#x2084;" horiz-adv-x="394" 
d="M185 -72q17 1 28 2t17 5v75q0 14 -13 14h-168q-9 0 -16.5 0.5t-14.5 1.5q-6 19 -6 38l174 283q22 13 51 22.5t59 14.5q5 -5 6 -13.5t1 -18.5v-257q0 -7 5 -12h41q16 0 29 -7l-7 -43q-9 -9 -25 -9h-40q-3 -9 -3 -14v-75q3 -2 15.5 -5t38.5 -5q1 -2 1 -12v-17
q0 -11 -10 -15h-161q-10 4 -10 15v17q0 10 8 15zM230 304h-11l-132 -221h128q3 0 7.5 1t7.5 2v218z" />
    <glyph glyph-name="fiveinferior" unicode="&#x2085;" horiz-adv-x="379" 
d="M70 371q18 7 43 7h151q13 0 28 1t33 4q0 -29 -1 -50t-6 -33h-30q-2 18 -19 21t-46 3h-99l-9 -109q5 0 10.5 0.5t10.5 0.5q102 0 153.5 -42.5t51.5 -120.5q0 -41 -10 -74.5t-33.5 -57.5t-62 -37t-95.5 -13q-6 0 -21 2t-32 6.5t-32.5 11t-21.5 14.5v95q1 5 2 9.5t6 9.5h17
q5 0 9 -2t9 -4q8 -51 28.5 -71.5t51.5 -20.5q54 0 83 25t29 88q0 33 -9.5 55.5t-30.5 35.5t-55.5 18.5t-84.5 5.5h-20t-18 -1l18 218z" />
    <glyph glyph-name="sixinferior" unicode="&#x2086;" horiz-adv-x="382" 
d="M267 386q10 -7 15 -16.5t9 -23.5q-39 -2 -69.5 -16.5t-52.5 -37.5t-36 -53t-20 -63q15 13 38.5 19t46.5 6q36 0 65 -9t50 -29t32.5 -51.5t11.5 -77.5q0 -163 -158 -163q-90 0 -132.5 44.5t-42.5 155.5q0 59 15.5 115.5t46.5 101t76 71.5t105 27zM189 155q-48 0 -69 -28.5
t-21 -82.5q0 -58 23.5 -91.5t72.5 -33.5q45 0 65.5 31.5t20.5 82.5q0 66 -23.5 94t-68.5 28z" />
    <glyph glyph-name="seveninferior" unicode="&#x2087;" horiz-adv-x="377" 
d="M348 378q4 -8 6.5 -17.5t3.5 -21.5q-24 -48 -49 -102.5t-48.5 -111.5t-43 -115.5t-32.5 -113.5q-11 -8 -27.5 -13t-36.5 -9q-12 3 -19 13q3 19 14 52t26.5 73.5t34.5 84.5t37.5 85t36 75t30.5 55h-183q-7 -10 -13.5 -28t-11.5 -44q-2 -3 -10 -3h-19l-12 7q0 14 2 48t6 82
q9 2 21 3t24 1h263z" />
    <glyph glyph-name="eightinferior" unicode="&#x2088;" horiz-adv-x="396" 
d="M31 11q0 25 8 45.5t21.5 36.5t32 29t38.5 24q-17 12 -31.5 24t-25 26.5t-16.5 31.5t-6 39q0 25 10 47t28.5 38t46.5 25.5t64 9.5q63 0 101.5 -27t38.5 -87q0 -42 -24 -70.5t-57 -48.5q45 -25 74 -56t29 -80q0 -67 -39.5 -107t-126.5 -40q-81 0 -123.5 35.5t-42.5 104.5z
M288 11q0 19 -9.5 34.5t-24 28.5t-32.5 23.5t-35 19.5q-16 -5 -32 -15.5t-29 -24.5t-21 -31t-8 -35q0 -48 26 -70t74 -22q42 0 66.5 24.5t24.5 67.5zM123 274q0 -16 7.5 -30.5t19.5 -26.5t27.5 -22t30.5 -17q31 16 50.5 36t19.5 52q0 38 -21 53.5t-58 15.5q-38 0 -57 -12.5
t-19 -48.5z" />
    <glyph glyph-name="nineinferior" unicode="&#x2089;" horiz-adv-x="388" 
d="M134 -129q-8 8 -12 17.5t-6 23.5q34 3 62 23.5t49 50.5t35 64.5t20 64.5q-15 -13 -41 -22.5t-60 -9.5q-75 0 -115 41t-40 117q0 34 11.5 61t32.5 46t49.5 29t63.5 10q81 0 128 -42t47 -138q0 -62 -15 -122.5t-44 -108t-70.5 -76.5t-94.5 -29zM195 135q38 0 63 27.5
t25 70.5q0 54 -29 80t-65 26q-39 0 -63.5 -26t-24.5 -74q0 -54 24.5 -79t69.5 -25z" />
    <glyph glyph-name="parenleftinferior" unicode="&#x208d;" horiz-adv-x="250" 
d="M191 466q6 -5 6 -15v-27q0 -3 -0.5 -7t-2.5 -6q-19 -21 -34 -52t-25 -67.5t-15 -77t-5 -81.5q0 -42 6.5 -84.5t19 -80t31 -69t43.5 -52.5l1 -12l-14 -27q-41 23 -70 58.5t-48 79t-27.5 91.5t-8.5 96t7 95.5t23.5 91t42.5 81t64 65.5h6z" />
    <glyph glyph-name="parenrightinferior" unicode="&#x208e;" horiz-adv-x="251" 
d="M63 466q38 -28 64 -65.5t41.5 -81t22.5 -91t7 -95.5t-8.5 -96t-27 -91t-48 -79t-70.5 -59l-13 27l1 12q25 21 43.5 52.5t31 69t19 80t6.5 84.5q0 41 -5 81.5t-15 77.5t-24.5 67.5t-33.5 51.5q-3 2 -4 6t-1 7v27q0 9 8 15h6z" />
    <glyph glyph-name="Euro" unicode="&#x20ac;" horiz-adv-x="653" 
d="M501 337h-315q4 -67 22.5 -120t49.5 -90t72.5 -57t91.5 -20q72 0 114.5 27t62.5 65q6 -2 11.5 -4.5t10.5 -4.5q3 -14 3.5 -30t0.5 -32q0 -13 -2 -24.5t-4 -21.5q-29 -19 -76.5 -29.5t-119.5 -10.5q-154 0 -241.5 91t-95.5 261h-42q-9 0 -18.5 1.5t-17.5 5.5l20 69h58
q9 166 87.5 250.5t235.5 84.5q72 0 123 -9t81 -20l16 -17l-37 -82q-21 28 -69 47t-124 19q-40 0 -77 -15t-66.5 -48t-48.5 -85t-22 -125h299q24 0 37 -7z" />
    <glyph glyph-name="uni2117" unicode="&#x2117;" horiz-adv-x="828" 
d="M417 41q70 0 123.5 24t89 67t53.5 102.5t18 131.5q0 88 -25 150t-65.5 100t-91 55.5t-102.5 17.5q-60 0 -112.5 -19.5t-91.5 -59.5t-61.5 -101t-22.5 -143q0 -92 25.5 -154t66.5 -100t92.5 -54.5t103.5 -16.5zM416 746q82 0 148 -26t112 -75t70.5 -119.5t24.5 -160.5
q0 -89 -23.5 -159t-69 -119.5t-111.5 -75.5t-151 -26q-84 0 -151 26.5t-113 75.5t-70.5 119.5t-24.5 158.5q0 89 25.5 159.5t72.5 120t113.5 75.5t147.5 26zM596 461q0 -43 -10.5 -71t-29.5 -44.5t-46 -23t-61 -6.5h-27q-25 0 -44 -10v-99q13 -10 54 -10q6 -2 6 -11v-19
q0 -8 -6 -11h-184q-5 3 -5 11v19q0 9 5 11q42 0 55 10v306q-7 6 -20.5 8t-34.5 2q-5 5 -5 13v19q0 6 5 9h191q157 0 157 -103zM523 438q0 45 -16.5 63t-44.5 18h-39q-24 0 -45 -10v-136q17 -11 44 -11h13q42 0 65 17t23 59z" />
    <glyph glyph-name="trademark" unicode="&#x2122;" horiz-adv-x="1086" 
d="M141 365q40 0 56 11v274q0 25 -19 34h-67q-21 -24 -32 -65q-5 -3 -13 -3h-20q-12 0 -16 3l9 95q1 8 3 13.5t4 10.5q39 -3 86 -3h240q21 0 37.5 0.5t27.5 0.5q2 -5 2.5 -10t0.5 -11v-96q-2 -3 -12 -3h-18q-10 0 -14 3q-3 28 -12 40t-26 23h-45q-8 0 -15 -0.5t-15 -1.5
q-2 -5 -2 -8.5v-8.5v-13v-274q14 -11 58 -11q6 -3 6 -14v-21q0 -9 -6 -12h-198q-6 3 -6 12v21q0 11 6 14zM638 366q6 -5 6 -14v-21q0 -9 -6 -12h-166q-5 8 -5 12v21q0 7 4 14q44 6 59 21l17 302h-39q-3 4 -3 13v22q0 8 3 11h155q5 -4 13.5 -17.5t13.5 -28.5l68 -222h17
l64 222q5 16 12 27.5t13 18.5h144q5 -8 5 -11v-22q0 -7 -3 -13h-32l17 -307q22 -16 52 -16q10 0 10 -14v-21q0 -4 -5 -12h-180q-3 3 -3 12v21q0 8 3 14q14 1 23.5 5t16.5 11l-9 287h-18l-60 -228q-4 -15 -13.5 -32.5t-20.5 -31.5h-66q-27 34 -36 63l-70 230h-17l-10 -282
q16 -20 46 -22z" />
    <glyph glyph-name="onethird" unicode="&#x2153;" horiz-adv-x="1096" 
d="M236 766q16 0 34 -5q-1 -10 -1.5 -24t-0.5 -27v-399q5 -2 14.5 -3.5t20.5 -2l22 -1t20 -0.5q8 -5 8 -15v-17q0 -10 -8 -15h-234q-8 5 -8 15v17q0 10 8 15q8 0 20 0.5t24.5 1t23 2t15.5 3.5v337q0 17 -4 26l-83 -41q-13 6 -14 9l-10 16q-2 5 -2.5 8.5t-0.5 8.5l156 91v0z
M836 734q14 0 25 -6l-513 -728h-54q-15 0 -24 6l512 728h54zM875 486q75 0 116.5 -29.5t41.5 -92.5q0 -37 -16.5 -66t-46.5 -45q40 -14 61.5 -43.5t21.5 -75.5q0 -85 -45.5 -124.5t-147.5 -39.5q-45 0 -79.5 10.5t-46.5 29.5q0 44 3 104q6 6 17 6h12q9 0 14 -5
q10 -45 26 -68.5t55 -23.5q54 0 85 21t31 79q0 38 -20 61.5t-49 30.5h-55q-10 4 -10 18v20q0 9 7 16q55 0 82 18.5t27 64.5q0 42 -21.5 60.5t-69.5 18.5q-27 0 -46 -13.5t-22 -40.5q-1 -7 -7 -12.5t-15 -5.5h-10q-8 0 -18 6v36v27t2 25q15 11 31.5 17.5t33 10t31.5 4.5t27 1
z" />
    <glyph glyph-name="twothirds" unicode="&#x2154;" horiz-adv-x="1054" 
d="M184 761q82 0 115.5 -35.5t33.5 -98.5q0 -57 -26.5 -101t-71.5 -79q-18 -14 -36.5 -29.5t-35 -32t-30 -32.5t-20.5 -30h155q17 9 25 23.5t16 44.5q7 6 15 6h12q7 0 18 -8q-1 -35 -5 -66.5t-11 -60.5q-7 -3 -15 -4t-16 -1h-276q-10 16 -10 32q15 34 38.5 64.5t50.5 58.5
t54 54.5t49 52t35.5 50.5t13.5 52q0 50 -23.5 67t-66.5 17q-24 0 -44 -4t-35 -16q-3 -8 -3.5 -19.5t-1 -22t-4 -18t-12.5 -7.5h-17q-8 0 -11.5 13t-3.5 31v62q11 10 28 17t37 11.5t40.5 6.5t38.5 2zM794 734q14 0 25 -6l-513 -728h-54q-15 0 -24 6l512 728h54zM832 486
q75 0 116.5 -29.5t41.5 -92.5q0 -37 -16.5 -66t-46.5 -45q40 -14 61.5 -43.5t21.5 -75.5q0 -85 -45.5 -124.5t-147.5 -39.5q-45 0 -79.5 10.5t-46.5 29.5q0 44 3 104q6 6 17 6h12q9 0 14 -5q10 -45 26 -68.5t55 -23.5q54 0 85 21t31 79q0 38 -20 61.5t-49 30.5h-55
q-10 4 -10 18v20q0 9 7 16q55 0 82 18.5t27 64.5q0 42 -21.5 60.5t-69.5 18.5q-27 0 -46 -13.5t-22 -40.5q-1 -7 -7 -12.5t-15 -5.5h-10q-8 0 -18 6v36v27t2 25q15 11 31.5 17.5t33 10t31.5 4.5t27 1z" />
    <glyph glyph-name="oneeighth" unicode="&#x215b;" horiz-adv-x="1099" 
d="M236 766q16 0 34 -5q-1 -10 -1.5 -24t-0.5 -27v-399q5 -2 14.5 -3.5t20.5 -2l22 -1t20 -0.5q8 -5 8 -15v-17q0 -10 -8 -15h-234q-8 5 -8 15v17q0 10 8 15q8 0 20 0.5t24.5 1t23 2t15.5 3.5v337q0 17 -4 26l-83 -41q-13 6 -14 9l-10 16q-2 5 -2.5 8.5t-0.5 8.5l156 91v0z
M836 734q14 0 25 -6l-513 -728h-54q-15 0 -24 6l512 728h54zM734 110q0 25 8 45.5t21.5 36.5t32 29t38.5 24q-17 12 -31.5 24t-25 26.5t-16.5 31.5t-6 39q0 25 10 47t28.5 38t46.5 25.5t64 9.5q63 0 101.5 -27t38.5 -87q0 -42 -24 -70.5t-57 -48.5q45 -25 74 -56t29 -80
q0 -67 -39.5 -107t-126.5 -40q-81 0 -123.5 35.5t-42.5 104.5zM991 110q0 19 -9.5 34.5t-24 28.5t-32.5 23.5t-35 19.5q-16 -5 -32 -15.5t-29 -24.5t-21 -31t-8 -35q0 -48 26 -70t74 -22q42 0 66.5 24.5t24.5 67.5zM826 373q0 -16 7.5 -30.5t19.5 -26.5t27.5 -22t30.5 -17
q31 16 50.5 36t19.5 52q0 38 -21 53.5t-58 15.5q-38 0 -57 -12.5t-19 -48.5z" />
    <glyph glyph-name="threeeighths" unicode="&#x215c;" horiz-adv-x="1066" 
d="M172 762q75 0 116.5 -29.5t41.5 -92.5q0 -36 -16.5 -66t-46.5 -45q40 -14 61.5 -43.5t21.5 -75.5q0 -85 -45.5 -124t-147.5 -39q-45 0 -79.5 10.5t-46.5 29.5q0 44 3 103q6 6 17 6h12q9 0 14 -5q10 -45 26 -68.5t55 -23.5q54 0 85 21t31 79q0 39 -20 62t-49 30h-55
q-10 4 -10 18v20q0 9 7 16q55 0 82 18t27 66q0 42 -21.5 60.5t-69.5 18.5q-27 0 -46 -13.5t-22 -41.5q-1 -7 -7 -12.5t-15 -5.5h-10q-8 0 -18 6v36v27t2 25q15 11 31.5 17.5t33 10t31.5 4.5t27 1zM802 734q14 0 25 -6l-513 -728h-54q-15 0 -24 6l512 728h54zM700 110
q0 25 8 45.5t21.5 36.5t32 29t38.5 24q-17 12 -31.5 24t-25 26.5t-16.5 31.5t-6 39q0 25 10 47t28.5 38t46.5 25.5t64 9.5q63 0 101.5 -27t38.5 -87q0 -42 -24 -70.5t-57 -48.5q45 -25 74 -56t29 -80q0 -67 -39.5 -107t-126.5 -40q-81 0 -123.5 35.5t-42.5 104.5zM957 110
q0 19 -9.5 34.5t-24 28.5t-32.5 23.5t-35 19.5q-16 -5 -32 -15.5t-29 -24.5t-21 -31t-8 -35q0 -48 26 -70t74 -22q42 0 66.5 24.5t24.5 67.5zM792 373q0 -16 7.5 -30.5t19.5 -26.5t27.5 -22t30.5 -17q31 16 50.5 36t19.5 52q0 38 -21 53.5t-58 15.5q-38 0 -57 -12.5
t-19 -48.5z" />
    <glyph glyph-name="fiveeighths" unicode="&#x215d;" horiz-adv-x="1051" 
d="M70 746q18 7 43 7h151q13 0 28 1t33 4q0 -29 -1 -49.5t-6 -33.5h-30q-2 19 -19 22t-46 3h-99l-9 -110q5 1 10.5 1.5t10.5 0.5q102 0 153.5 -42.5t51.5 -120.5q0 -41 -10 -74.5t-33.5 -57.5t-62 -37t-95.5 -13q-6 0 -21 2t-32 6.5t-32.5 11t-21.5 14.5v94q1 5 2 9.5t6 9.5
h17q5 0 9 -2t9 -4q8 -51 28.5 -71.5t51.5 -20.5q54 0 83 25t29 88q0 33 -9.5 55t-30.5 35.5t-55.5 19t-84.5 5.5h-20t-18 -1l18 218zM788 734q14 0 25 -6l-513 -728h-54q-15 0 -24 6l512 728h54zM685 110q0 25 8 45.5t21.5 36.5t32 29t38.5 24q-17 12 -31.5 24t-25 26.5
t-16.5 31.5t-6 39q0 25 10 47t28.5 38t46.5 25.5t64 9.5q63 0 101.5 -27t38.5 -87q0 -42 -24 -70.5t-57 -48.5q45 -25 74 -56t29 -80q0 -67 -39.5 -107t-126.5 -40q-81 0 -123.5 35.5t-42.5 104.5zM942 110q0 19 -9.5 34.5t-24 28.5t-32.5 23.5t-35 19.5q-16 -5 -32 -15.5
t-29 -24.5t-21 -31t-8 -35q0 -48 26 -70t74 -22q42 0 66.5 24.5t24.5 67.5zM777 373q0 -16 7.5 -30.5t19.5 -26.5t27.5 -22t30.5 -17q31 16 50.5 36t19.5 52q0 38 -21 53.5t-58 15.5q-38 0 -57 -12.5t-19 -48.5z" />
    <glyph glyph-name="seveneighths" unicode="&#x215e;" horiz-adv-x="1049" 
d="M348 753q4 -8 6.5 -17.5t3.5 -20.5q-24 -48 -49 -102.5t-48.5 -111.5t-43 -115.5t-32.5 -113.5q-11 -8 -27.5 -13t-36.5 -9q-12 3 -19 13q3 19 14 52t26.5 73.5t34.5 84.5t37.5 85t36 75t30.5 55h-183q-7 -11 -13.5 -29t-11.5 -43q-2 -3 -10 -3h-19l-12 7q0 14 2 47.5
t6 81.5q9 2 21 3t24 1h263zM786 734q14 0 25 -6l-513 -728h-54q-15 0 -24 6l512 728h54zM683 110q0 25 8 45.5t21.5 36.5t32 29t38.5 24q-17 12 -31.5 24t-25 26.5t-16.5 31.5t-6 39q0 25 10 47t28.5 38t46.5 25.5t64 9.5q63 0 101.5 -27t38.5 -87q0 -42 -24 -70.5
t-57 -48.5q45 -25 74 -56t29 -80q0 -67 -39.5 -107t-126.5 -40q-81 0 -123.5 35.5t-42.5 104.5zM940 110q0 19 -9.5 34.5t-24 28.5t-32.5 23.5t-35 19.5q-16 -5 -32 -15.5t-29 -24.5t-21 -31t-8 -35q0 -48 26 -70t74 -22q42 0 66.5 24.5t24.5 67.5zM775 373q0 -16 7.5 -30.5
t19.5 -26.5t27.5 -22t30.5 -17q31 16 50.5 36t19.5 52q0 38 -21 53.5t-58 15.5q-38 0 -57 -12.5t-19 -48.5z" />
    <glyph glyph-name="minus" unicode="&#x2212;" horiz-adv-x="574" 
d="M516 286h-420q-23 0 -37 7v69h420q24 0 37 -7v-69z" />
    <glyph glyph-name="asuperior" unicode="&#xe000;" horiz-adv-x="368" 
d="M184 717q58 0 88.5 -28t30.5 -82v-134q0 -33 4 -47t21 -14h14t15 1q6 -9 6 -14v-16q0 -15 -21.5 -21.5t-47.5 -11.5q-21 0 -34 10.5t-20 27.5q-20 -21 -49 -31t-58 -10q-55 0 -80.5 27t-25.5 64q0 35 15.5 58t42.5 37.5t64 22.5t80 13v39q0 55 -64 55q-25 0 -40.5 -7
t-21.5 -34q-16 -18 -38 -28q-26 0 -26 28q0 26 4 41q4 10 18 19.5t34.5 17t43.5 12.5t45 5zM155 405q27 0 46.5 10.5t28.5 27.5v81q-25 -5 -48.5 -10.5t-42 -14t-29.5 -21t-11 -31.5q0 -42 56 -42z" />
    <glyph glyph-name="bsuperior" unicode="&#xe001;" horiz-adv-x="403" 
d="M231 717q75 0 109.5 -46t34.5 -127q0 -53 -10 -90t-33.5 -60t-62 -33.5t-94.5 -10.5q-14 0 -30.5 1t-32.5 3t-30 6t-22 10q-1 8 -1.5 15t-0.5 17v423q-10 4 -23.5 6.5t-32.5 2.5v26q0 7 11.5 12t28 8t35.5 4t34 1q11 0 16 -5.5t5 -25.5v-160q19 11 45.5 17t53.5 6z
M215 662q-23 0 -47 -6.5t-38 -16.5v-214q14 -9 34 -16.5t48 -7.5q24 0 41 6.5t28 21.5t16 40.5t5 63.5q0 60 -19.5 94.5t-67.5 34.5z" />
    <glyph glyph-name="dsuperior" unicode="&#xe002;" horiz-adv-x="410" 
d="M342 416q11 -5 27 -8.5t31 -5.5v-22q0 -4 -1 -8t-2 -7q-21 -2 -47.5 -5t-59.5 -11q-5 7 -8.5 17.5t-5.5 20.5q-19 -19 -47.5 -29.5t-60.5 -10.5q-67 0 -104 39t-37 134q0 103 46.5 150t134.5 47q16 0 32 -4t30 -10v121q-11 4 -25 7t-32 3v26q0 10 16 15.5t38 8t43 3
t32 0.5v-471zM188 405q27 0 49 15t33 33v179q-13 16 -35 25t-42 9q-51 0 -72 -29.5t-21 -99.5t21 -101t67 -31z" />
    <glyph glyph-name="esuperior" unicode="&#xe003;" horiz-adv-x="350" 
d="M189 717q30 0 56 -7t45 -23t30 -42.5t11 -66.5q0 -11 -1 -21t-6 -17h-226q1 -27 6.5 -51t17.5 -42t33 -28.5t54 -10.5q29 0 49.5 8t38.5 28l33 -23q-5 -20 -19 -34t-33.5 -23t-42.5 -13t-47 -4q-85 0 -124.5 48.5t-39.5 135.5q0 97 42 141.5t123 44.5zM185 668
q-32 0 -57.5 -18t-28.5 -63h136q13 0 18 2t5 16q0 32 -21 47.5t-52 15.5z" />
    <glyph glyph-name="isuperior" unicode="&#xe004;" horiz-adv-x="221" 
d="M109 883q23 0 35.5 -13.5t12.5 -35.5q0 -24 -13.5 -38t-36.5 -14q-22 0 -35.5 14t-13.5 38q0 22 14 35.5t37 13.5zM152 418q15 -15 57 -16q3 -8 3 -15v-16q0 -7 -3 -16h-182q-6 7 -6 16v16q0 9 6 15q34 3 52 15v237q-18 7 -56 9v27q0 9 16.5 14.5t38.5 8t42.5 3t29.5 0.5
q1 -7 1.5 -14.5t0.5 -17.5v-266z" />
    <glyph glyph-name="lsuperior" unicode="&#xe005;" horiz-adv-x="208" 
d="M139 417q8 -6 21.5 -10t33.5 -5q5 -8 5 -15v-16q0 -8 -5 -16h-181q-5 7 -5 16v16q0 7 5 15q35 1 52 15v408q-8 4 -22.5 6.5t-33.5 2.5v26q0 10 16 15.5t37.5 8t42.5 3t31 0.5l2 -18t1 -15v-437z" />
    <glyph glyph-name="msuperior" unicode="&#xe006;" horiz-adv-x="635" 
d="M150 418q13 -14 55 -16q5 -13 5 -15v-16q0 -4 -6 -16h-179q-6 7 -6 16v16q0 9 6 15q17 2 30.5 5.5t21.5 9.5v237q-20 7 -57 9v27q0 9 15.5 14.5t36 8t40 3t28.5 0.5l3 -45q31 25 55 35.5t53 10.5q38 0 59 -16t31 -41q34 34 59.5 45.5t55.5 11.5q33 0 53 -11.5t31 -31.5
t14.5 -47.5t3.5 -59.5v-157q16 -7 50 -8q5 -13 5 -15v-16q0 -4 -6 -16h-146q-4 5 -5.5 8t-1.5 8v19q11 2 18 7t12 11v151q0 43 -8 71t-41 28q-25 0 -43 -12.5t-41 -38.5q2 -6 2 -11.5v-11.5v-17v-157q18 -7 51 -8q2 -5 4 -9t2 -6v-16q0 -6 -6 -15h-149q-6 7 -6 15v19
q10 2 18.5 8t13.5 11v150q0 21 -1.5 39.5t-6.5 31.5t-15 20.5t-27 7.5q-23 0 -42 -12.5t-39 -35.5v-192z" />
    <glyph glyph-name="osuperior" unicode="&#xe007;" horiz-adv-x="392" 
d="M195 342q-171 0 -171 187q0 96 44 142t129 46q84 0 126 -47.5t42 -135.5q0 -100 -44.5 -146t-125.5 -46zM197 394q54 0 72.5 32.5t18.5 89.5q0 34 -4.5 62t-15 48t-28.5 31t-45 11q-54 0 -74.5 -32.5t-20.5 -89.5q0 -70 20.5 -111t76.5 -41z" />
    <glyph glyph-name="rsuperior" unicode="&#xe008;" horiz-adv-x="320" 
d="M153 418q19 -15 62 -16q3 -8 3 -15v-16q0 -6 -4 -15h-187q-6 7 -6 15v16q0 8 7 15q33 3 51 15v237q-18 8 -58 9v27q0 9 15.5 14.5t36.5 8t41.5 3t30.5 0.5q1 -7 1 -15v-17v-27q17 26 45 43.5t57 17.5q20 0 33 -7t20.5 -16.5t10.5 -20t3 -16.5q-2 -15 -10 -31t-18 -16
q-17 0 -24.5 6t-12.5 13t-11 13t-19 6q-17 0 -35.5 -16.5t-31.5 -51.5v-163z" />
    <glyph glyph-name="ssuperior" unicode="&#xe009;" horiz-adv-x="316" 
d="M250 603q-4 0 -8 0.5t-9 1.5q-6 22 -11 34.5t-12.5 19t-18.5 8.5t-29 2q-26 0 -41 -9.5t-15 -29.5q0 -14 14 -24.5t35 -20.5t45.5 -21t45.5 -25.5t35 -34t14 -46.5q0 -28 -13.5 -48.5t-35 -34.5t-48 -21t-51.5 -7q-11 0 -27.5 2t-33 5t-30.5 7t-20 9q-7 26 -8 52.5
t-1 45.5q7 4 14 4h15q7 0 15 -3q6 -21 12.5 -35.5t15.5 -23.5t22 -12.5t33 -3.5q9 0 21.5 3t23 9t18 15.5t7.5 21.5q0 21 -13.5 33.5t-34 22.5t-44.5 19t-44.5 22t-34 32t-13.5 49q0 48 35.5 72t92.5 24q39 0 60 -5t31.5 -16.5t12.5 -29.5t2 -43q0 -11 -4 -20h-20z" />
    <glyph glyph-name="tsuperior" unicode="&#xe00a;" horiz-adv-x="239" 
d="M11 658q-2 4 -2 9v5l1 23q2 11 9 14h38v78q7 12 16 16l37 18q14 -3 22 -14v-98h54h15.5t15.5 1q5 -8 5 -15v-18q0 -12 -4 -19h-86v-217q0 -23 8 -31t25 -8q22 0 32.5 2.5t18.5 7.5q9 -4 14.5 -15.5t5.5 -23.5q-4 -5 -13.5 -9.5t-22 -9t-26 -7t-24.5 -2.5q-49 0 -71 24.5
t-22 88.5v200h-46z" />
    <glyph glyph-name="Asmall" unicode="&#xe00b;" horiz-adv-x="655" 
d="M214 594q22 0 47.5 -1t49.5 -2.5t44.5 -3.5t32.5 -4q5 -7 10.5 -16.5t10.5 -23.5l157 -469q16 -8 34 -12.5t41 -6.5q4 -4 4 -12l1 -31q0 -6 -3 -12h-211q-4 4 -4 12l-2 37l26 4t19 6l-41 109q-27 12 -71 12h-132q-20 0 -35 -3q-5 -8 -10 -21.5t-10 -28.5t-9.5 -31
t-7.5 -29q8 -6 25.5 -11.5t36.5 -8.5l-2 -35q0 -3 -0.5 -6t-3.5 -6h-187q-6 6 -6 12l2 31q0 6 3 12q47 12 70 35l145 446q-8 2 -19 5t-25 5q2 12 7 26.5t13 21.5zM322 513q-15 7 -26 10l-74 -233q-5 -11 -6.5 -22.5t-3.5 -20.5q11 -8 42 -8h114q25 0 39 11z" />
    <glyph glyph-name="Bsmall" unicode="&#xe00c;" horiz-adv-x="517" 
d="M33 576q0 9 5 12h209q53 0 89.5 -7.5t59 -24.5t32.5 -45t10 -68q0 -21 -6.5 -39.5t-17.5 -33.5t-24.5 -26.5t-28.5 -18.5v-5q54 -8 89 -48t35 -100q0 -83 -43.5 -127.5t-145.5 -44.5h-258q-5 2 -5 12v31q0 9 5 12q43 0 60 11v456q-17 11 -60 11q-5 2 -5 13v30zM209 284
q-18 0 -19 -9v-189q0 -22 17 -26.5t43 -4.5h32q31 0 51 3t32 12.5t16.5 27t4.5 46.5q0 75 -24.5 107.5t-81.5 32.5h-71zM190 359q4 -18 28 -18q36 0 60 3.5t38.5 13t21 26.5t6.5 44q0 34 -4 55t-15 32t-30 14.5t-49 3.5q-26 0 -56 -11v-163z" />
    <glyph glyph-name="Csmall" unicode="&#xe00d;" horiz-adv-x="577" 
d="M357 598q57 0 111 -13.5t90 -27.5l-5 -129q-6 -3 -11 -3h-31q-5 0 -11 3q-6 33 -17 55t-29 34.5t-44 17.5t-61 5q-51 0 -91 -11.5t-67.5 -38.5t-41.5 -72.5t-14 -114.5q0 -72 16 -120.5t44.5 -78t69 -42t89.5 -12.5q75 0 113.5 16.5t55.5 47.5q5 -1 14 -3t14 -4
q2 -11 2.5 -24.5t0.5 -25.5q0 -19 -5 -37q-12 -5 -33 -11t-47 -10.5t-56 -7.5t-61 -3q-67 0 -124 20.5t-99 59.5t-65.5 96.5t-23.5 132.5q0 77 22.5 134t63.5 94t100 55t131 18z" />
    <glyph glyph-name="Dsmall" unicode="&#xe00e;" 
d="M333 590q130 0 199.5 -70t69.5 -226q0 -86 -20.5 -142.5t-59 -90t-94.5 -47.5t-127 -14h-264q-6 3 -6 12v31q0 9 6 12q43 0 60 11v456q-17 11 -60 11q-6 3 -6 13v30q0 9 6 12h163q23 0 40.5 0.5t32.5 0.5t29 0.5t31 0.5zM236 532q-12 0 -24 -1.5t-23 -8.5v-456
q14 -11 47 -11h98q43 0 75.5 10t54 37t32 73.5t10.5 118.5t-11.5 118.5t-34 73t-56.5 36.5t-78 10h-90z" />
    <glyph glyph-name="Esmall" unicode="&#xe00f;" horiz-adv-x="476" 
d="M230 281q-27 0 -46 -10v-205q20 -11 63 -11h101q28 15 40.5 40.5t23.5 56.5h43q2 -10 2 -16l-5 -114q-1 -12 -11 -22h-409q-6 3 -6 12v31q0 9 6 12q43 0 60 11v456q-17 11 -60 11q-6 3 -6 13v30q0 9 6 12h353q16 0 29.5 1t22.5 3q3 -3 3 -16l-4 -90q-2 -20 -6 -30h-42
q-2 24 -8 40.5t-19 31.5h-129q-24 0 -48 -11v-163q19 -12 46 -12h62q23 11 30 47h43v-3q0 -5 0.5 -11t0.5 -13l-5 -98q-2 -33 -8 -46h-41q-3 36 -16 63h-66v0z" />
    <glyph glyph-name="Fsmall" unicode="&#xe010;" horiz-adv-x="468" 
d="M42 55q43 0 60 11v456q-17 11 -60 11q-5 2 -5 13v30q0 9 5 12h339q16 0 29.5 1t22.5 3q3 -3 3 -16l-4 -80q-1 -10 -2.5 -21t-3.5 -16h-41q-2 24 -8.5 39t-19.5 30h-114q-14 0 -26 -3t-23 -8v-168q19 -12 46 -12h48q22 10 30 48h43v-4q0 -5 0.5 -11t0.5 -13l-5 -88
q-1 -17 -3.5 -28t-4.5 -18h-41q-2 17 -5.5 33t-10.5 30h-52q-27 0 -46 -10v-210q17 -11 59 -11q6 -3 6 -12v-31q0 -9 -6 -12h-211q-5 2 -5 12v31q0 9 5 12z" />
    <glyph glyph-name="Gsmall" unicode="&#xe011;" horiz-adv-x="642" 
d="M40 297q0 76 21.5 132.5t61.5 94t96.5 56t126.5 18.5q66 0 120.5 -13.5t90.5 -27.5l-5 -129q-6 -3 -11 -3h-31q-5 0 -11 3q-4 61 -46 86.5t-105 25.5q-51 0 -91 -10.5t-67 -37t-41.5 -71t-14.5 -112.5q0 -77 19.5 -127t53.5 -79.5t78.5 -41t95.5 -11.5q42 0 65 6.5
t37 17.5v166q-16 5 -41.5 7.5t-59.5 2.5q-3 4 -3 13v31q0 7 3 12h235q4 -4 4 -12v-31q0 -9 -4 -13q-36 0 -45 -10v-195q-11 -14 -33.5 -24.5t-52.5 -18t-67 -11t-76 -3.5q-66 0 -122 20.5t-96 59.5t-62.5 96.5t-22.5 132.5z" />
    <glyph glyph-name="Hsmall" unicode="&#xe012;" horiz-adv-x="664" 
d="M193 369q0 -24 25 -24h229q26 0 26 20v157q-17 11 -60 11q-6 3 -6 13v30q0 9 6 12h212q5 -3 5 -12v-30q0 -11 -5 -13q-43 0 -60 -11v-456q17 -11 60 -11q5 -3 5 -12v-31q0 -10 -5 -12h-212q-6 3 -6 12v31q0 9 6 12q43 0 60 11v191q0 28 -26 28h-229q-25 0 -25 -20v-199
q14 -11 59 -11q5 -3 5 -12v-31q0 -10 -5 -12h-211q-6 3 -6 12v31q0 9 6 12q43 0 60 11v456q-17 11 -60 11q-6 3 -6 13v30q0 9 6 12h211q5 -3 5 -12v-30q0 -11 -5 -13q-45 0 -59 -11v-153z" />
    <glyph glyph-name="Ismall" unicode="&#xe013;" horiz-adv-x="292" 
d="M193 66q14 -11 59 -11q5 -3 5 -12v-31q0 -10 -5 -12h-211q-6 3 -6 12v31q0 9 6 12q43 0 60 11v456q-17 11 -60 11q-6 3 -6 13v30q0 9 6 12h211q5 -3 5 -12v-30q0 -11 -5 -13q-45 0 -59 -11v-456z" />
    <glyph glyph-name="Jsmall" unicode="&#xe014;" horiz-adv-x="320" 
d="M298 588q3 -3 3 -13v-30q0 -10 -5 -12q-42 0 -59 -20v-354q0 -251 -209 -251q-21 0 -34.5 3t-23.5 9v35q0 3 2 9q29 0 60 1.5t51 10.5q13 12 24 27t19.5 42t13.5 70t5 111v285q-31 22 -96 22q-3 3 -3 12v30q0 6 4 13h248v0z" />
    <glyph glyph-name="Ksmall" unicode="&#xe015;" horiz-adv-x="585" 
d="M553 588q6 -5 6 -12v-31q0 -5 -4 -12q-28 -3 -50.5 -12.5t-45.5 -24.5l-165 -171l176 -205q26 -32 51 -49t42 -18q5 -8 5 -13v-28q0 -4 -5 -12h-180q-6 6 -6 12v31q8 5 14.5 12.5t8.5 18.5l-138 177q-11 12 -31 22t-36 11v-218q17 -11 59 -11q6 -3 6 -12v-31q0 -9 -6 -12
h-211q-5 2 -5 12v31q0 9 5 12q43 0 60 11v456q-17 11 -60 11q-5 2 -5 13v30q0 9 5 12h211q6 -3 6 -12v-30q0 -10 -6 -13q-42 0 -59 -11v-187q14 5 33 15.5t36 25.5l117 141q-4 8 -14 13.5t-21 8.5v37q0 7 6 12h201z" />
    <glyph glyph-name="Lsmall" unicode="&#xe016;" horiz-adv-x="461" 
d="M38 0q-5 2 -5 12v31q0 9 5 12q43 0 60 11v456q-17 11 -60 11q-5 2 -5 13v30q0 9 5 12h211q6 -3 6 -12v-30q0 -10 -6 -13q-42 0 -59 -11v-456q20 -11 63 -11h77q28 15 41 35.5t23 51.5h53q2 -10 2 -15l-5 -105q-1 -12 -11 -22h-395z" />
    <glyph glyph-name="Msmall" unicode="&#xe017;" horiz-adv-x="802" 
d="M223 55q6 -3 6 -12v-31q0 -9 -6 -12h-194q-5 8 -5 12v31q0 5 4 12q20 3 39.5 7t33.5 14l25 449q-24 8 -54 8q-2 3 -2.5 6.5t-0.5 6.5v30q0 9 3 12h179q5 -5 13 -22.5t13 -32.5l122 -393h17l121 393q5 16 11.5 31.5t11.5 23.5h172q5 -5 5 -12v-30q0 -7 -3 -13
q-13 -1 -25.5 -2t-23.5 -5l19 -455q13 -16 71 -16q5 -3 5 -12v-31q0 -7 -5 -12h-218q-3 3 -3 12v31q0 6 3 12q41 0 58 16l-13 442h-17l-119 -392q-5 -15 -14.5 -34t-20.5 -30h-74q-14 17 -22.5 32.5t-13.5 29.5l-124 395h-16l-17 -435q9 -12 22.5 -18t36.5 -6z" />
    <glyph glyph-name="Nsmall" unicode="&#xe018;" 
d="M143 66q8 -5 29 -8t43 -3q4 -3 4 -12v-31q0 -9 -4 -12h-191q-6 3 -6 12v31q0 9 6 12q43 0 60 11v456q-17 11 -60 11q-6 3 -6 13v30q0 9 6 12h177q8 -5 17 -18.5t14 -22.5l257 -466h15v441q-17 11 -76 11q-6 3 -6 13v30q0 9 6 12h191q6 -3 6 -12v-30q0 -10 -6 -13
q-42 0 -59 -11v-484q0 -11 -0.5 -20.5t-0.5 -17.5h-119q-11 8 -24 21t-21 28l-237 452h-15v-435z" />
    <glyph glyph-name="Osmall" unicode="&#xe019;" horiz-adv-x="677" 
d="M337 -12q-145 0 -221 79.5t-76 226.5q0 72 21 128.5t59.5 95.5t93.5 59.5t123 20.5q64 0 119.5 -17.5t95.5 -54t63 -92.5t23 -134q0 -76 -21.5 -134t-61 -97.5t-95 -60t-123.5 -20.5zM346 47q48 0 84.5 12t61 40t37 74t12.5 114q0 74 -15.5 123t-43 78.5t-65.5 41.5
t-84 12t-82 -11.5t-61.5 -39t-39 -73.5t-13.5 -115q0 -70 14 -118.5t41 -79t65.5 -44.5t88.5 -14z" />
    <glyph glyph-name="Psmall" unicode="&#xe01a;" horiz-adv-x="530" 
d="M496 436q0 -41 -16 -77.5t-43 -64t-63 -43.5t-76 -16h-58q-27 0 -46 -10v-159q17 -11 59 -11q6 -3 6 -12v-31q0 -9 -6 -12h-211q-5 2 -5 12v31q0 9 5 12q43 0 60 11v456q-17 11 -60 11q-5 2 -5 13v30q0 9 5 12h244q114 0 162 -35.5t48 -116.5zM405 412q0 36 -6 58.5
t-17.5 35.5t-29 17.5t-40.5 4.5h-69q-14 0 -26 -3t-23 -8v-210q20 -11 46 -11h43q34 0 57 5.5t37.5 18.5t21 35.5t6.5 56.5z" />
    <glyph glyph-name="Qsmall" unicode="&#xe01b;" horiz-adv-x="680" 
d="M343 -12q-62 0 -117 18t-96 55.5t-65.5 95t-24.5 137.5q0 72 21 128.5t59.5 95.5t93.5 59.5t123 20.5q64 0 119.5 -17.5t95.5 -54t63 -92.5t23 -134q0 -121 -51.5 -195t-142.5 -102q13 -50 36 -78.5t53.5 -43t66.5 -18.5t76 -5q3 -3 4 -5.5t2 -4.5l7 -31q-15 -12 -53 -12
q-46 0 -92 8.5t-85.5 29t-70 56t-45.5 89.5zM346 47q48 0 84.5 12t61 40t37 74t12.5 114q0 74 -15.5 123t-43 78.5t-65.5 41.5t-84 12t-82 -11.5t-61.5 -39t-39 -73.5t-13.5 -115q0 -70 14 -118.5t41 -79t65.5 -44.5t88.5 -14z" />
    <glyph glyph-name="Rsmall" unicode="&#xe01c;" horiz-adv-x="586" 
d="M291 251h-52q-30 0 -46 -10v-175q14 -11 59 -11q5 -3 5 -12v-31q0 -10 -5 -12h-211q-6 3 -6 12v31q0 9 6 12q43 0 60 11v456q-17 11 -60 11q-6 3 -6 13v30q0 9 6 12h248q114 0 162 -37t48 -107q0 -39 -9.5 -66.5t-26.5 -47t-39.5 -33t-47.5 -23.5l117 -154
q17 -23 38 -43.5t47 -21.5q4 -4 4 -12v-31q0 -8 -4 -12h-176q-7 7 -7 12v31q8 2 16.5 10.5t10.5 18.5zM407 420q0 33 -6 54t-17.5 33t-29 16.5t-40.5 4.5h-73q-24 0 -48 -11v-194q18 -12 46 -12h47q34 0 57 5t37 17.5t20.5 33.5t6.5 53z" />
    <glyph glyph-name="Ssmall" unicode="&#xe01d;" horiz-adv-x="444" 
d="M236 598q48 0 89.5 -5t61.5 -13q3 -15 3 -25v-64q0 -8 -1 -13.5t-2 -10.5h-40q-9 0 -11 1q-8 25 -16 41.5t-19 26t-28.5 13t-44.5 3.5q-51 0 -74 -18.5t-23 -60.5q0 -26 18.5 -46.5t58.5 -46.5t77 -47.5t66 -46t46.5 -55.5t17.5 -76q0 -38 -16.5 -69t-46 -52.5
t-69.5 -33.5t-86 -12q-54 0 -95 8t-64 26q0 15 0.5 33.5t1 37.5t2 34.5t3.5 24.5h52q2 -6 2 -13v-46q19 -34 45 -44.5t61 -10.5q52 0 84 26.5t32 74.5q0 33 -20.5 57t-74.5 56q-30 18 -62 36t-58 41t-42.5 54t-16.5 75q0 36 15 62t40.5 43.5t60 26t73.5 8.5z" />
    <glyph glyph-name="Tsmall" unicode="&#xe01e;" horiz-adv-x="547" 
d="M162 55q22 0 42 3t28 8v439q0 18 -3 30q-14 3 -30 3h-84q-13 -28 -31 -80q-8 -3 -13 -3h-29q-10 0 -16 3l8 108q2 9 4 14.5t4 10.5q39 -3 85 -3h330q20 0 36 0.5t30 1.5q0 -6 0.5 -11.5t0.5 -10.5v-110q-5 -3 -12 -3h-28q-9 0 -13 3q-5 56 -38 78h-76q-8 0 -15.5 -0.5
t-15.5 -1.5q-1 -7 -1.5 -14t-0.5 -15v-439q8 -5 30 -8t43 -3q6 -3 6 -12v-31q0 -9 -6 -12h-235q-6 3 -6 12v31q0 9 6 12z" />
    <glyph glyph-name="Usmall" unicode="&#xe01f;" 
d="M559 288q0 -63 -6.5 -118t-29.5 -95.5t-68.5 -63.5t-123.5 -23q-79 0 -127.5 24t-74.5 69q-20 34 -25.5 82t-5.5 103v256q-17 11 -62 11q-6 3 -6 13v30q0 9 6 12h214q6 -3 6 -12v-30q0 -10 -6 -13q-43 0 -60 -11v-277q0 -52 4 -91t18.5 -64.5t44 -38.5t80.5 -13
q49 0 80 12t48.5 40.5t24 75.5t6.5 116v240q-8 5 -29 8t-43 3q-6 3 -6 13v30q0 9 6 12h196q5 -3 5 -12v-30q0 -11 -5 -13q-22 0 -38 -3t-23 -8v-234z" />
    <glyph glyph-name="Vsmall" unicode="&#xe020;" horiz-adv-x="660" 
d="M408 26q-2 -5 -5 -11.5t-7 -14.5h-122q-5 7 -8.5 13.5t-5.5 13.5l-168 487q-14 7 -32.5 12t-41.5 7q-5 8 -5 13v30q0 5 4 12h211q4 -7 4 -12v-43q-13 -1 -23.5 -3t-16.5 -7l143 -450h34l118 357q8 23 13.5 43t8.5 40q-8 6 -24.5 11.5t-36.5 8.5v43q0 6 6 12h187
q4 -4 4 -12v-30q0 -10 -1 -13q-50 -12 -73 -35z" />
    <glyph glyph-name="Wsmall" unicode="&#xe021;" horiz-adv-x="884" 
d="M647 576q0 6 3 12h218q4 -4 4 -12v-30q0 -9 -4 -13q-38 0 -74 -16l-124 -505q0 -7 -4 -12h-98q-6 7 -6 12l-113 401h-16l-116 -401q-2 -6 -7 -12h-101q-5 6 -6 12l-112 505q-17 12 -75 16q-4 4 -4 12v30q0 9 4 13h245q2 -6 2 -12v-30q0 -11 -1 -13q-22 -2 -40 -6.5
t-32 -9.5l84 -430h16l94 371q5 17 10 34.5t14 34.5h100q7 -17 12 -34t10 -35l90 -371h15l95 430q-28 11 -78 16q-5 8 -5 13v30z" />
    <glyph glyph-name="Xsmall" unicode="&#xe022;" horiz-adv-x="573" 
d="M221 12q0 -5 -4 -12h-208q-4 4 -4 12v31q0 2 2 12q23 3 46 8.5t45 24.5l140 213l-138 214q-12 8 -27 11.5t-47 6.5q-5 5 -5 12v31q0 9 3 12h218q4 -4 4 -12v-30q-30 -7 -48 -22l98 -165l105 163q-18 16 -50 24v30q0 5 4 12h206q4 -4 4 -12v-31q0 -8 -3 -12
q-20 -2 -41 -5.5t-39 -11.5l-142 -202l165 -245q14 -8 31 -10.5t36 -3.5q4 -7 4 -12v-31q0 -6 -3 -12h-217q-2 6 -2 12v43q28 4 39 20l-108 175l-112 -174q18 -15 44 -21q1 -2 2 -5t2 -7v-31z" />
    <glyph glyph-name="Ysmall" unicode="&#xe023;" horiz-adv-x="602" 
d="M13 576q0 8 4 12h208q4 -4 4 -13v-42q-25 -7 -36 -20l120 -205l128 209q-22 16 -52 16v43q0 6 3 12h194q4 -7 4 -12v-30q0 -7 -3 -13q-48 -2 -82 -17l-145 -227q-8 -23 -10 -49.5t-2 -49.5v-124q17 -11 60 -11q5 -3 5 -12v-31q0 -10 -5 -12h-211q-6 3 -6 12v31q0 9 6 12
q42 0 59 11v135q0 25 -4.5 49.5t-18.5 50.5l-136 205q-32 22 -84 27v43v0z" />
    <glyph glyph-name="Zsmall" unicode="&#xe024;" horiz-adv-x="483" 
d="M142 46q25 3 116 3h86q20 6 33 15.5t21 21.5t12.5 27t7.5 31q7 4 14 4h28q6 0 12 -3q0 -40 -3.5 -75t-8.5 -65q-9 -2 -21 -3.5t-29 -1.5h-380q-4 3 -4 12v28l317 499q-7 -1 -20.5 -1h-42.5h-128q-11 -5 -22 -16t-21 -25t-17.5 -28t-11.5 -25q-1 0 -2.5 -0.5t-3.5 -0.5
l-30 4q-6 2 -7 4l5 105q0 10 0.5 18t6.5 16q18 -1 36 -1.5t36 -0.5h331q4 -4 5 -12l3 -25z" />
    <glyph glyph-name="Thornsmall" unicode="&#xe025;" horiz-adv-x="530" 
d="M194 473h92q114 0 162 -35.5t48 -116.5q0 -41 -16 -77t-43 -63t-63 -43t-76 -16h-58q-27 0 -46 -10v-46q17 -11 59 -11q6 -3 6 -12v-31q0 -9 -6 -12h-211q-5 2 -5 12v31q0 9 5 12q43 0 60 11v456q-17 11 -60 11q-6 3 -6 13v30q0 9 6 12h211q5 -3 5 -12v-30q0 -11 -5 -13
q-45 0 -59 -11v-49zM405 298q0 36 -6 58t-17.5 35t-29 17.5t-40.5 4.5h-69q-14 0 -26 -3t-23 -8v-208q19 -12 46 -12h43q34 0 57 5.5t37.5 18.5t21 35.5t6.5 56.5z" />
    <glyph glyph-name="Ethsmall" unicode="&#xe026;" 
d="M333 590q130 0 199.5 -70t69.5 -226q0 -86 -20.5 -142.5t-59 -90t-94.5 -47.5t-127 -14h-264q-6 3 -6 12v31q0 9 6 12q43 0 60 11v183h-10q-23 0 -37 7v67h47v199q-17 11 -60 11q-6 3 -6 13v30q0 9 6 12h163q23 0 40.5 0.5t32.5 0.5t29 0.5t31 0.5zM316 249h-127v-183
q14 -11 47 -11h98q43 0 75.5 10t54 37t32 73.5t10.5 118.5t-11.5 118.5t-34 73t-56.5 36.5t-78 10h-90q-12 0 -24 -1.5t-23 -8.5v-199h91q23 0 36 -7v-67z" />
    <glyph glyph-name="SSsmall" unicode="&#xe027;" horiz-adv-x="888" 
d="M236 598q48 0 89.5 -5t61.5 -13q3 -15 3 -25v-64q0 -8 -1 -13.5t-2 -10.5h-40q-9 0 -11 1q-8 25 -16 41.5t-19 26t-28.5 13t-44.5 3.5q-51 0 -74 -18.5t-23 -60.5q0 -26 18.5 -46.5t58.5 -46.5t77 -47.5t66 -46t46.5 -55.5t17.5 -76q0 -38 -16.5 -69t-46 -52.5
t-69.5 -33.5t-86 -12q-54 0 -95 8t-64 26q0 15 0.5 33.5t1 37.5t2 34.5t3.5 24.5h52q2 -6 2 -13v-46q19 -34 45 -44.5t61 -10.5q52 0 84 26.5t32 74.5q0 33 -20.5 57t-74.5 56q-30 18 -62 36t-58 41t-42.5 54t-16.5 75q0 36 15 62t40.5 43.5t60 26t73.5 8.5zM680 598
q48 0 89.5 -5t61.5 -13q3 -15 3 -25v-64q0 -8 -1 -13.5t-2 -10.5h-40q-9 0 -11 1q-8 25 -16 41.5t-19 26t-28.5 13t-44.5 3.5q-51 0 -74 -18.5t-23 -60.5q0 -26 18.5 -46.5t58.5 -46.5t77 -47.5t66 -46t46.5 -55.5t17.5 -76q0 -38 -16.5 -69t-46 -52.5t-69.5 -33.5t-86 -12
q-54 0 -95 8t-64 26q0 15 0.5 33.5t1 37.5t2 34.5t3.5 24.5h52q2 -6 2 -13v-46q19 -34 45 -44.5t61 -10.5q52 0 84 26.5t32 74.5q0 33 -20.5 57t-74.5 56q-30 18 -62 36t-58 41t-42.5 54t-16.5 75q0 36 15 62t40.5 43.5t60 26t73.5 8.5z" />
    <glyph glyph-name="Lslashsmall" unicode="&#xe028;" horiz-adv-x="461" 
d="M190 286v-220q20 -11 63 -11h77q28 15 41 35.5t23 51.5h53q2 -10 2 -15l-5 -105q-1 -12 -11 -22h-395q-5 2 -5 12v31q0 9 5 12q43 0 60 11v177l-23 -10q-15 -7 -30 -8l-22 51l75 34v212q-17 11 -60 11q-5 2 -5 13v30q0 9 5 12h211q6 -3 6 -12v-30q0 -10 -6 -13
q-42 0 -59 -11v-169l100 47q16 7 29 7l24 -49z" />
    <glyph glyph-name="Asmallgrave" unicode="&#xe029;" horiz-adv-x="655" 
d="M214 594q22 0 47.5 -1t49.5 -2.5t44.5 -3.5t32.5 -4q5 -7 10.5 -16.5t10.5 -23.5l157 -469q16 -8 34 -12.5t41 -6.5q4 -4 4 -12l1 -31q0 -6 -3 -12h-211q-4 4 -4 12l-2 37l26 4t19 6l-41 109q-27 12 -71 12h-132q-20 0 -35 -3q-5 -8 -10 -21.5t-10 -28.5t-9.5 -31
t-7.5 -29q8 -6 25.5 -11.5t36.5 -8.5l-2 -35q0 -3 -0.5 -6t-3.5 -6h-187q-6 6 -6 12l2 31q0 6 3 12q47 12 70 35l145 446q-8 2 -19 5t-25 5q2 12 7 26.5t13 21.5zM322 513q-15 7 -26 10l-74 -233q-5 -11 -6.5 -22.5t-3.5 -20.5q11 -8 42 -8h114q25 0 39 11zM247 803
q15 -3 21 -9l135 -120q-3 -8 -23 -25q-72 29 -121.5 55t-57.5 51l46 48v0z" />
    <glyph glyph-name="Asmallacute" unicode="&#xe02a;" horiz-adv-x="655" 
d="M214 594q22 0 47.5 -1t49.5 -2.5t44.5 -3.5t32.5 -4q5 -7 10.5 -16.5t10.5 -23.5l157 -469q16 -8 34 -12.5t41 -6.5q4 -4 4 -12l1 -31q0 -6 -3 -12h-211q-4 4 -4 12l-2 37l26 4t19 6l-41 109q-27 12 -71 12h-132q-20 0 -35 -3q-5 -8 -10 -21.5t-10 -28.5t-9.5 -31
t-7.5 -29q8 -6 25.5 -11.5t36.5 -8.5l-2 -35q0 -3 -0.5 -6t-3.5 -6h-187q-6 6 -6 12l2 31q0 6 3 12q47 12 70 35l145 446q-8 2 -19 5t-25 5q2 12 7 26.5t13 21.5zM322 513q-15 7 -26 10l-74 -233q-5 -11 -6.5 -22.5t-3.5 -20.5q11 -8 42 -8h114q25 0 39 11zM429 755
q-8 -25 -57.5 -51t-121.5 -55q-20 16 -24 25l137 120q6 6 20 9z" />
    <glyph glyph-name="Asmallcircumflex" unicode="&#xe02b;" horiz-adv-x="655" 
d="M214 594q22 0 47.5 -1t49.5 -2.5t44.5 -3.5t32.5 -4q5 -7 10.5 -16.5t10.5 -23.5l157 -469q16 -8 34 -12.5t41 -6.5q4 -4 4 -12l1 -31q0 -6 -3 -12h-211q-4 4 -4 12l-2 37l26 4t19 6l-41 109q-27 12 -71 12h-132q-20 0 -35 -3q-5 -8 -10 -21.5t-10 -28.5t-9.5 -31
t-7.5 -29q8 -6 25.5 -11.5t36.5 -8.5l-2 -35q0 -3 -0.5 -6t-3.5 -6h-187q-6 6 -6 12l2 31q0 6 3 12q47 12 70 35l145 446q-8 2 -19 5t-25 5q2 12 7 26.5t13 21.5zM322 513q-15 7 -26 10l-74 -233q-5 -11 -6.5 -22.5t-3.5 -20.5q11 -8 42 -8h114q25 0 39 11zM210 652
q-22 14 -26 25l134 126l134 -124q-12 -20 -36 -30q-21 5 -42.5 24t-55.5 50q-19 -18 -32.5 -30t-25.5 -20t-23.5 -12.5t-26.5 -8.5z" />
    <glyph glyph-name="Asmalldieresis" unicode="&#xe02c;" horiz-adv-x="655" 
d="M214 594q22 0 47.5 -1t49.5 -2.5t44.5 -3.5t32.5 -4q5 -7 10.5 -16.5t10.5 -23.5l157 -469q16 -8 34 -12.5t41 -6.5q4 -4 4 -12l1 -31q0 -6 -3 -12h-211q-4 4 -4 12l-2 37l26 4t19 6l-41 109q-27 12 -71 12h-132q-20 0 -35 -3q-5 -8 -10 -21.5t-10 -28.5t-9.5 -31
t-7.5 -29q8 -6 25.5 -11.5t36.5 -8.5l-2 -35q0 -3 -0.5 -6t-3.5 -6h-187q-6 6 -6 12l2 31q0 6 3 12q47 12 70 35l145 446q-8 2 -19 5t-25 5q2 12 7 26.5t13 21.5zM322 513q-15 7 -26 10l-74 -233q-5 -11 -6.5 -22.5t-3.5 -20.5q11 -8 42 -8h114q25 0 39 11zM212 674
q-27 0 -42.5 15t-15.5 41t15.5 41.5t42.5 15.5q26 0 42 -15.5t16 -41.5t-16 -41t-42 -15zM420 674q-26 0 -42 15t-16 41t16 41.5t42 15.5q27 0 42.5 -15.5t15.5 -41.5t-15.5 -41t-42.5 -15z" />
    <glyph glyph-name="Asmalltilde" unicode="&#xe02d;" horiz-adv-x="655" 
d="M214 594q22 0 47.5 -1t49.5 -2.5t44.5 -3.5t32.5 -4q5 -7 10.5 -16.5t10.5 -23.5l157 -469q16 -8 34 -12.5t41 -6.5q4 -4 4 -12l1 -31q0 -6 -3 -12h-211q-4 4 -4 12l-2 37l26 4t19 6l-41 109q-27 12 -71 12h-132q-20 0 -35 -3q-5 -8 -10 -21.5t-10 -28.5t-9.5 -31
t-7.5 -29q8 -6 25.5 -11.5t36.5 -8.5l-2 -35q0 -3 -0.5 -6t-3.5 -6h-187q-6 6 -6 12l2 31q0 6 3 12q47 12 70 35l145 446q-8 2 -19 5t-25 5q2 12 7 26.5t13 21.5zM322 513q-15 7 -26 10l-74 -233q-5 -11 -6.5 -22.5t-3.5 -20.5q11 -8 42 -8h114q25 0 39 11zM187 675
q-8 2 -18.5 10t-15.5 16q3 19 12 35.5t22 29t28.5 19.5t32.5 7q27 0 45.5 -9.5t34.5 -21t30.5 -21t33.5 -9.5q24 0 36.5 18.5t23.5 40.5q8 -4 18 -10.5t15 -13.5q0 -20 -8.5 -37t-22 -29.5t-30 -20t-32.5 -7.5q-23 0 -42 9.5t-36 20.5t-33 20.5t-33 9.5q-23 0 -37 -17.5
t-24 -39.5z" />
    <glyph glyph-name="Asmallring" unicode="&#xe02e;" horiz-adv-x="655" 
d="M214 594q22 0 47.5 -1t49.5 -2.5t44.5 -3.5t32.5 -4q5 -7 10.5 -16.5t10.5 -23.5l157 -469q16 -8 34 -12.5t41 -6.5q4 -4 4 -12l1 -31q0 -6 -3 -12h-211q-4 4 -4 12l-2 37l26 4t19 6l-41 109q-27 12 -71 12h-132q-20 0 -35 -3q-5 -8 -10 -21.5t-10 -28.5t-9.5 -31
t-7.5 -29q8 -6 25.5 -11.5t36.5 -8.5l-2 -35q0 -3 -0.5 -6t-3.5 -6h-187q-6 6 -6 12l2 31q0 6 3 12q47 12 70 35l145 446q-8 2 -19 5t-25 5q2 12 7 26.5t13 21.5zM322 513q-15 7 -26 10l-74 -233q-5 -11 -6.5 -22.5t-3.5 -20.5q11 -8 42 -8h114q25 0 39 11zM307 624
q-48 0 -72.5 26t-24.5 74q0 46 24.5 72.5t72.5 26.5t73.5 -27t25.5 -72q0 -48 -25.5 -74t-73.5 -26zM307 661q58 0 58 63q0 30 -14.5 47t-43.5 17q-30 0 -42.5 -17t-12.5 -47q0 -31 12.5 -47t42.5 -16z" />
    <glyph glyph-name="AEsmall" unicode="&#xe02f;" horiz-adv-x="764" 
d="M214 594q13 -1 39 -2t54 -2t53.5 -1.5t37.5 -0.5h274q37 0 53 4q3 -3 3 -16l-4 -90q-2 -20 -6 -30h-42q-2 24 -8.5 40.5t-19.5 31.5h-127q-25 0 -49 -11v-163q19 -12 47 -12h61q23 11 30 47h42q1 -5 1 -12v-21l-5 -92q-1 -17 -3 -28.5t-4 -17.5h-41q-3 36 -16 63h-65
q-28 0 -47 -10v-205q20 -11 64 -11h100q28 15 40.5 40.5t23.5 56.5h42q2 -10 2 -16l-5 -114q-1 -10 -10 -22h-410q-6 3 -6 12v31q0 9 6 12q44 0 61 11v110q-6 2 -12 2.5t-14 1.5h-127q-20 0 -35 -3q-5 -8 -10 -21.5t-10 -28.5t-9.5 -31t-7.5 -29q8 -6 25.5 -11.5t36.5 -8.5
l-2 -35q0 -3 -0.5 -6t-3.5 -6h-187q-6 6 -6 12l2 31q0 6 3 12q47 12 70 35l145 446q-8 2 -19 5t-25 5q2 12 7 26.5t13 21.5zM380 518q-11 1 -25 1.5t-27 1t-22 1t-10 1.5l-74 -233q-5 -11 -6.5 -22.5t-3.5 -20.5q11 -8 42 -8h102h13.5t10.5 1v278z" />
    <glyph glyph-name="Csmallcedilla" unicode="&#xe030;" horiz-adv-x="577" 
d="M357 598q57 0 111 -13.5t90 -27.5l-5 -129q-6 -3 -11 -3h-31q-5 0 -11 3q-6 33 -17 55t-29 34.5t-44 17.5t-61 5q-51 0 -91 -11.5t-67.5 -38.5t-41.5 -72.5t-14 -114.5q0 -72 16 -120.5t44.5 -78t69 -42t89.5 -12.5q75 0 113.5 16.5t55.5 47.5q5 -1 14 -3t14 -4
q2 -11 2.5 -24.5t0.5 -25.5q0 -19 -5 -37q-11 -5 -29.5 -10t-42.5 -9.5t-51.5 -8t-55.5 -4.5q21 -10 30.5 -24.5t9.5 -38.5q0 -20 -9.5 -42t-25 -42t-35.5 -36.5t-40 -24.5q-6 0 -15 11t-11 25q10 5 21 15t19.5 22.5t14 25.5t5.5 24q0 22 -7 43t-24 45q-58 7 -106 30.5
t-83 62t-54.5 92t-19.5 121.5q0 77 22.5 134t63.5 94t100 55t131 18z" />
    <glyph glyph-name="Esmallgrave" unicode="&#xe031;" horiz-adv-x="476" 
d="M230 281q-27 0 -46 -10v-205q20 -11 63 -11h101q28 15 40.5 40.5t23.5 56.5h43q2 -10 2 -16l-5 -114q-1 -12 -11 -22h-409q-6 3 -6 12v31q0 9 6 12q43 0 60 11v456q-17 11 -60 11q-6 3 -6 13v30q0 9 6 12h353q16 0 29.5 1t22.5 3q3 -3 3 -16l-4 -90q-2 -20 -6 -30h-42
q-2 24 -8 40.5t-19 31.5h-129q-24 0 -48 -11v-163q19 -12 46 -12h62q23 11 30 47h43v-3q0 -5 0.5 -11t0.5 -13l-5 -98q-2 -33 -8 -46h-41q-3 36 -16 63h-66v0zM187 803q15 -3 21 -9l135 -120q-3 -8 -23 -25q-72 29 -121.5 55t-57.5 51l46 48v0z" />
    <glyph glyph-name="Esmallacute" unicode="&#xe032;" horiz-adv-x="476" 
d="M230 281q-27 0 -46 -10v-205q20 -11 63 -11h101q28 15 40.5 40.5t23.5 56.5h43q2 -10 2 -16l-5 -114q-1 -12 -11 -22h-409q-6 3 -6 12v31q0 9 6 12q43 0 60 11v456q-17 11 -60 11q-6 3 -6 13v30q0 9 6 12h353q16 0 29.5 1t22.5 3q3 -3 3 -16l-4 -90q-2 -20 -6 -30h-42
q-2 24 -8 40.5t-19 31.5h-129q-24 0 -48 -11v-163q19 -12 46 -12h62q23 11 30 47h43v-3q0 -5 0.5 -11t0.5 -13l-5 -98q-2 -33 -8 -46h-41q-3 36 -16 63h-66v0zM358 755q-8 -25 -57.5 -51t-121.5 -55q-20 16 -24 25l137 120q6 6 20 9z" />
    <glyph glyph-name="Esmallcircumflex" unicode="&#xe033;" horiz-adv-x="476" 
d="M230 281q-27 0 -46 -10v-205q20 -11 63 -11h101q28 15 40.5 40.5t23.5 56.5h43q2 -10 2 -16l-5 -114q-1 -12 -11 -22h-409q-6 3 -6 12v31q0 9 6 12q43 0 60 11v456q-17 11 -60 11q-6 3 -6 13v30q0 9 6 12h353q16 0 29.5 1t22.5 3q3 -3 3 -16l-4 -90q-2 -20 -6 -30h-42
q-2 24 -8 40.5t-19 31.5h-129q-24 0 -48 -11v-163q19 -12 46 -12h62q23 11 30 47h43v-3q0 -5 0.5 -11t0.5 -13l-5 -98q-2 -33 -8 -46h-41q-3 36 -16 63h-66v0zM133 652q-22 14 -26 25l134 126l134 -124q-12 -20 -36 -30q-21 5 -42.5 24t-55.5 50q-19 -18 -32.5 -30
t-25.5 -20t-23.5 -12.5t-26.5 -8.5z" />
    <glyph glyph-name="Esmalldieresis" unicode="&#xe034;" horiz-adv-x="476" 
d="M230 281q-27 0 -46 -10v-205q20 -11 63 -11h101q28 15 40.5 40.5t23.5 56.5h43q2 -10 2 -16l-5 -114q-1 -12 -11 -22h-409q-6 3 -6 12v31q0 9 6 12q43 0 60 11v456q-17 11 -60 11q-6 3 -6 13v30q0 9 6 12h353q16 0 29.5 1t22.5 3q3 -3 3 -16l-4 -90q-2 -20 -6 -30h-42
q-2 24 -8 40.5t-19 31.5h-129q-24 0 -48 -11v-163q19 -12 46 -12h62q23 11 30 47h43v-3q0 -5 0.5 -11t0.5 -13l-5 -98q-2 -33 -8 -46h-41q-3 36 -16 63h-66v0zM142 674q-27 0 -42.5 15t-15.5 41t15.5 41.5t42.5 15.5q26 0 42 -15.5t16 -41.5t-16 -41t-42 -15zM350 674
q-26 0 -42 15t-16 41t16 41.5t42 15.5q27 0 42.5 -15.5t15.5 -41.5t-15.5 -41t-42.5 -15z" />
    <glyph glyph-name="Ismallgrave" unicode="&#xe035;" horiz-adv-x="292" 
d="M193 66q14 -11 59 -11q5 -3 5 -12v-31q0 -10 -5 -12h-211q-6 3 -6 12v31q0 9 6 12q43 0 60 11v456q-17 11 -60 11q-6 3 -6 13v30q0 9 6 12h211q5 -3 5 -12v-30q0 -11 -5 -13q-45 0 -59 -11v-456zM75 803q15 -3 21 -9l135 -120q-3 -8 -23 -25q-72 29 -121.5 55t-57.5 51
l46 48v0z" />
    <glyph glyph-name="Ismallacute" unicode="&#xe036;" horiz-adv-x="292" 
d="M193 66q14 -11 59 -11q5 -3 5 -12v-31q0 -10 -5 -12h-211q-6 3 -6 12v31q0 9 6 12q43 0 60 11v456q-17 11 -60 11q-6 3 -6 13v30q0 9 6 12h211q5 -3 5 -12v-30q0 -11 -5 -13q-45 0 -59 -11v-456zM267 755q-8 -25 -57.5 -51t-121.5 -55q-20 16 -24 25l137 120q6 6 20 9z
" />
    <glyph glyph-name="Ismallcircumflex" unicode="&#xe037;" horiz-adv-x="292" 
d="M193 66q14 -11 59 -11q5 -3 5 -12v-31q0 -10 -5 -12h-211q-6 3 -6 12v31q0 9 6 12q43 0 60 11v456q-17 11 -60 11q-6 3 -6 13v30q0 9 6 12h211q5 -3 5 -12v-30q0 -11 -5 -13q-45 0 -59 -11v-456zM39 652q-22 14 -26 25l134 126l134 -124q-12 -20 -36 -30q-21 5 -42.5 24
t-55.5 50q-19 -18 -32.5 -30t-25.5 -20t-23.5 -12.5t-26.5 -8.5z" />
    <glyph glyph-name="Ismalldieresis" unicode="&#xe038;" horiz-adv-x="292" 
d="M193 66q14 -11 59 -11q5 -3 5 -12v-31q0 -10 -5 -12h-211q-6 3 -6 12v31q0 9 6 12q43 0 60 11v456q-17 11 -60 11q-6 3 -6 13v30q0 9 6 12h211q5 -3 5 -12v-30q0 -11 -5 -13q-45 0 -59 -11v-456zM43 674q-27 0 -42.5 15t-15.5 41t15.5 41.5t42.5 15.5q26 0 42 -15.5
t16 -41.5t-16 -41t-42 -15zM251 674q-26 0 -42 15t-16 41t16 41.5t42 15.5q27 0 42.5 -15.5t15.5 -41.5t-15.5 -41t-42.5 -15z" />
    <glyph glyph-name="Nsmalltilde" unicode="&#xe039;" 
d="M143 66q8 -5 29 -8t43 -3q4 -3 4 -12v-31q0 -9 -4 -12h-191q-6 3 -6 12v31q0 9 6 12q43 0 60 11v456q-17 11 -60 11q-6 3 -6 13v30q0 9 6 12h177q8 -5 17 -18.5t14 -22.5l257 -466h15v441q-17 11 -76 11q-6 3 -6 13v30q0 9 6 12h191q6 -3 6 -12v-30q0 -10 -6 -13
q-42 0 -59 -11v-484q0 -11 -0.5 -20.5t-0.5 -17.5h-119q-11 8 -24 21t-21 28l-237 452h-15v-435zM190 675q-8 2 -18.5 10t-15.5 16q3 19 12 35.5t22 29t28.5 19.5t32.5 7q27 0 45.5 -9.5t34.5 -21t30.5 -21t33.5 -9.5q24 0 36.5 18.5t23.5 40.5q8 -4 18 -10.5t15 -13.5
q0 -20 -8.5 -37t-22 -29.5t-30 -20t-32.5 -7.5q-23 0 -42 9.5t-36 20.5t-33 20.5t-33 9.5q-23 0 -37 -17.5t-24 -39.5z" />
    <glyph glyph-name="Osmallgrave" unicode="&#xe03a;" horiz-adv-x="677" 
d="M337 -12q-145 0 -221 79.5t-76 226.5q0 72 21 128.5t59.5 95.5t93.5 59.5t123 20.5q64 0 119.5 -17.5t95.5 -54t63 -92.5t23 -134q0 -76 -21.5 -134t-61 -97.5t-95 -60t-123.5 -20.5zM346 47q48 0 84.5 12t61 40t37 74t12.5 114q0 74 -15.5 123t-43 78.5t-65.5 41.5
t-84 12t-82 -11.5t-61.5 -39t-39 -73.5t-13.5 -115q0 -70 14 -118.5t41 -79t65.5 -44.5t88.5 -14zM264 803q15 -3 21 -9l135 -120q-3 -8 -23 -25q-72 29 -121.5 55t-57.5 51l46 48v0z" />
    <glyph glyph-name="Osmallacute" unicode="&#xe03b;" horiz-adv-x="677" 
d="M337 -12q-145 0 -221 79.5t-76 226.5q0 72 21 128.5t59.5 95.5t93.5 59.5t123 20.5q64 0 119.5 -17.5t95.5 -54t63 -92.5t23 -134q0 -76 -21.5 -134t-61 -97.5t-95 -60t-123.5 -20.5zM346 47q48 0 84.5 12t61 40t37 74t12.5 114q0 74 -15.5 123t-43 78.5t-65.5 41.5
t-84 12t-82 -11.5t-61.5 -39t-39 -73.5t-13.5 -115q0 -70 14 -118.5t41 -79t65.5 -44.5t88.5 -14zM459 755q-8 -25 -57.5 -51t-121.5 -55q-20 16 -24 25l137 120q6 6 20 9z" />
    <glyph glyph-name="Osmallcircumflex" unicode="&#xe03c;" horiz-adv-x="677" 
d="M337 -12q-145 0 -221 79.5t-76 226.5q0 72 21 128.5t59.5 95.5t93.5 59.5t123 20.5q64 0 119.5 -17.5t95.5 -54t63 -92.5t23 -134q0 -76 -21.5 -134t-61 -97.5t-95 -60t-123.5 -20.5zM346 47q48 0 84.5 12t61 40t37 74t12.5 114q0 74 -15.5 123t-43 78.5t-65.5 41.5
t-84 12t-82 -11.5t-61.5 -39t-39 -73.5t-13.5 -115q0 -70 14 -118.5t41 -79t65.5 -44.5t88.5 -14zM231 652q-22 14 -26 25l134 126l134 -124q-12 -20 -36 -30q-21 5 -42.5 24t-55.5 50q-19 -18 -32.5 -30t-25.5 -20t-23.5 -12.5t-26.5 -8.5z" />
    <glyph glyph-name="Osmalldieresis" unicode="&#xe03d;" horiz-adv-x="677" 
d="M337 -12q-145 0 -221 79.5t-76 226.5q0 72 21 128.5t59.5 95.5t93.5 59.5t123 20.5q64 0 119.5 -17.5t95.5 -54t63 -92.5t23 -134q0 -76 -21.5 -134t-61 -97.5t-95 -60t-123.5 -20.5zM346 47q48 0 84.5 12t61 40t37 74t12.5 114q0 74 -15.5 123t-43 78.5t-65.5 41.5
t-84 12t-82 -11.5t-61.5 -39t-39 -73.5t-13.5 -115q0 -70 14 -118.5t41 -79t65.5 -44.5t88.5 -14zM234 674q-27 0 -42.5 15t-15.5 41t15.5 41.5t42.5 15.5q26 0 42 -15.5t16 -41.5t-16 -41t-42 -15zM442 674q-26 0 -42 15t-16 41t16 41.5t42 15.5q27 0 42.5 -15.5
t15.5 -41.5t-15.5 -41t-42.5 -15z" />
    <glyph glyph-name="Osmalltilde" unicode="&#xe03e;" horiz-adv-x="677" 
d="M337 -12q-145 0 -221 79.5t-76 226.5q0 72 21 128.5t59.5 95.5t93.5 59.5t123 20.5q64 0 119.5 -17.5t95.5 -54t63 -92.5t23 -134q0 -76 -21.5 -134t-61 -97.5t-95 -60t-123.5 -20.5zM346 47q48 0 84.5 12t61 40t37 74t12.5 114q0 74 -15.5 123t-43 78.5t-65.5 41.5
t-84 12t-82 -11.5t-61.5 -39t-39 -73.5t-13.5 -115q0 -70 14 -118.5t41 -79t65.5 -44.5t88.5 -14zM207 675q-8 2 -18.5 10t-15.5 16q3 19 12 35.5t22 29t28.5 19.5t32.5 7q27 0 45.5 -9.5t34.5 -21t30.5 -21t33.5 -9.5q24 0 36.5 18.5t23.5 40.5q8 -4 18 -10.5t15 -13.5
q0 -20 -8.5 -37t-22 -29.5t-30 -20t-32.5 -7.5q-23 0 -42 9.5t-36 20.5t-33 20.5t-33 9.5q-23 0 -37 -17.5t-24 -39.5z" />
    <glyph glyph-name="Osmallslash" unicode="&#xe03f;" horiz-adv-x="677" 
d="M337 -12q-64 0 -115 15l-16.5 -33t-8.5 -16.5t-5 -9t-6 -9.5l-63 32q2 7 3.5 11t5 10t9.5 16.5t17 29.5q-58 37 -88 102t-30 158q0 72 21 128.5t59.5 95.5t93.5 59.5t123 20.5q55 0 109 -14q11 20 20.5 36.5t12.5 23.5l65 -34q-4 -13 -11 -23t-20 -31q58 -35 91.5 -97.5
t33.5 -158.5q0 -76 -21.5 -134t-61 -97.5t-95 -60t-123.5 -20.5zM478 492q-63 -103 -116 -210t-110 -219q39 -16 94 -16q48 0 84.5 12t61 40t37 74t12.5 114q0 76 -17 126t-46 79zM137 303q0 -72 15 -121t44 -79q51 103 106.5 203t101.5 194l14 29q-36 13 -85 13
q-46 0 -82 -11.5t-61.5 -39t-39 -73.5t-13.5 -115z" />
    <glyph glyph-name="Usmallgrave" unicode="&#xe040;" 
d="M559 288q0 -63 -6.5 -118t-29.5 -95.5t-68.5 -63.5t-123.5 -23q-79 0 -127.5 24t-74.5 69q-20 34 -25.5 82t-5.5 103v256q-17 11 -62 11q-6 3 -6 13v30q0 9 6 12h214q6 -3 6 -12v-30q0 -10 -6 -13q-43 0 -60 -11v-277q0 -52 4 -91t18.5 -64.5t44 -38.5t80.5 -13
q49 0 80 12t48.5 40.5t24 75.5t6.5 116v240q-8 5 -29 8t-43 3q-6 3 -6 13v30q0 9 6 12h196q5 -3 5 -12v-30q0 -11 -5 -13q-22 0 -38 -3t-23 -8v-234zM247 803q15 -3 21 -9l135 -120q-3 -8 -23 -25q-72 29 -121.5 55t-57.5 51l46 48v0z" />
    <glyph glyph-name="Usmallacute" unicode="&#xe041;" 
d="M559 288q0 -63 -6.5 -118t-29.5 -95.5t-68.5 -63.5t-123.5 -23q-79 0 -127.5 24t-74.5 69q-20 34 -25.5 82t-5.5 103v256q-17 11 -62 11q-6 3 -6 13v30q0 9 6 12h214q6 -3 6 -12v-30q0 -10 -6 -13q-43 0 -60 -11v-277q0 -52 4 -91t18.5 -64.5t44 -38.5t80.5 -13
q49 0 80 12t48.5 40.5t24 75.5t6.5 116v240q-8 5 -29 8t-43 3q-6 3 -6 13v30q0 9 6 12h196q5 -3 5 -12v-30q0 -11 -5 -13q-22 0 -38 -3t-23 -8v-234zM443 755q-8 -25 -57.5 -51t-121.5 -55q-20 16 -24 25l137 120q6 6 20 9z" />
    <glyph glyph-name="Usmallcircumflex" unicode="&#xe042;" 
d="M559 288q0 -63 -6.5 -118t-29.5 -95.5t-68.5 -63.5t-123.5 -23q-79 0 -127.5 24t-74.5 69q-20 34 -25.5 82t-5.5 103v256q-17 11 -62 11q-6 3 -6 13v30q0 9 6 12h214q6 -3 6 -12v-30q0 -10 -6 -13q-43 0 -60 -11v-277q0 -52 4 -91t18.5 -64.5t44 -38.5t80.5 -13
q49 0 80 12t48.5 40.5t24 75.5t6.5 116v240q-8 5 -29 8t-43 3q-6 3 -6 13v30q0 9 6 12h196q5 -3 5 -12v-30q0 -11 -5 -13q-22 0 -38 -3t-23 -8v-234zM223 662q-22 14 -26 25l134 126l134 -124q-12 -20 -36 -30q-21 5 -42.5 24t-55.5 50q-19 -18 -32.5 -30t-25.5 -20
t-23.5 -12.5t-26.5 -8.5z" />
    <glyph glyph-name="Usmalldieresis" unicode="&#xe043;" 
d="M559 288q0 -63 -6.5 -118t-29.5 -95.5t-68.5 -63.5t-123.5 -23q-79 0 -127.5 24t-74.5 69q-20 34 -25.5 82t-5.5 103v256q-17 11 -62 11q-6 3 -6 13v30q0 9 6 12h214q6 -3 6 -12v-30q0 -10 -6 -13q-43 0 -60 -11v-277q0 -52 4 -91t18.5 -64.5t44 -38.5t80.5 -13
q49 0 80 12t48.5 40.5t24 75.5t6.5 116v240q-8 5 -29 8t-43 3q-6 3 -6 13v30q0 9 6 12h196q5 -3 5 -12v-30q0 -11 -5 -13q-22 0 -38 -3t-23 -8v-234zM227 674q-27 0 -42.5 15t-15.5 41t15.5 41.5t42.5 15.5q26 0 42 -15.5t16 -41.5t-16 -41t-42 -15zM435 674q-26 0 -42 15
t-16 41t16 41.5t42 15.5q27 0 42.5 -15.5t15.5 -41.5t-15.5 -41t-42.5 -15z" />
    <glyph glyph-name="Ysmallacute" unicode="&#xe044;" horiz-adv-x="602" 
d="M13 576q0 8 4 12h208q4 -4 4 -13v-42q-25 -7 -36 -20l120 -205l128 209q-22 16 -52 16v43q0 6 3 12h194q4 -7 4 -12v-30q0 -7 -3 -13q-48 -2 -82 -17l-145 -227q-8 -23 -10 -49.5t-2 -49.5v-124q17 -11 60 -11q5 -3 5 -12v-31q0 -10 -5 -12h-211q-6 3 -6 12v31q0 9 6 12
q42 0 59 11v135q0 25 -4.5 49.5t-18.5 50.5l-136 205q-32 22 -84 27v43v0zM422 755q-8 -25 -57.5 -51t-121.5 -55q-20 16 -24 25l137 120q6 6 20 9z" />
    <glyph glyph-name="OEsmall" unicode="&#xe045;" horiz-adv-x="932" 
d="M337 -12q-145 0 -221 79.5t-76 226.5q0 72 21 128.5t59.5 95.5t93.5 59.5t123 20.5q63 0 116 -16t95 -51v45q0 9 6 12h286q33 0 53 4q3 -3 3 -16l-4 -90q-2 -20 -6 -30h-42q-2 24 -8.5 40.5t-18.5 31.5h-129q-22 0 -49 -11v-163q19 -12 47 -12h61q24 11 31 47h41
q1 -8 1.5 -16t0.5 -17l-4 -92q-2 -33 -8 -46h-41q-3 30 -17 63h-65q-31 0 -47 -10v-205q25 -11 64 -11h101q29 15 41.5 39t22.5 58h42q1 -5 1.5 -9t0.5 -7l-5 -114q-1 -10 -10 -22h-343q-6 3 -6 12v48q-81 -72 -211 -72zM346 47q48 0 84.5 12t61 40t37 74t12.5 114
q0 74 -15.5 123t-43 78.5t-65.5 41.5t-84 12t-82 -11.5t-61.5 -39t-39 -73.5t-13.5 -115q0 -70 14 -118.5t41 -79t65.5 -44.5t88.5 -14z" />
    <glyph glyph-name="Ssmallcaron" unicode="&#xe046;" horiz-adv-x="444" 
d="M236 598q48 0 89.5 -5t61.5 -13q3 -15 3 -25v-64q0 -8 -1 -13.5t-2 -10.5h-40q-9 0 -11 1q-8 25 -16 41.5t-19 26t-28.5 13t-44.5 3.5q-51 0 -74 -18.5t-23 -60.5q0 -26 18.5 -46.5t58.5 -46.5t77 -47.5t66 -46t46.5 -55.5t17.5 -76q0 -38 -16.5 -69t-46 -52.5
t-69.5 -33.5t-86 -12q-54 0 -95 8t-64 26q0 15 0.5 33.5t1 37.5t2 34.5t3.5 24.5h52q2 -6 2 -13v-46q19 -34 45 -44.5t61 -10.5q52 0 84 26.5t32 74.5q0 33 -20.5 57t-74.5 56q-30 18 -62 36t-58 41t-42.5 54t-16.5 75q0 36 15 62t40.5 43.5t60 26t73.5 8.5zM329 800
q23 -14 26 -25l-133 -126l-135 124q12 19 36 30q21 -5 43 -24t56 -51q19 18 32.5 30t25 20t23 13t26.5 9z" />
    <glyph glyph-name="Zsmallcaron" unicode="&#xe047;" horiz-adv-x="483" 
d="M142 46q25 3 116 3h86q20 6 33 15.5t21 21.5t12.5 27t7.5 31q7 4 14 4h28q6 0 12 -3q0 -40 -3.5 -75t-8.5 -65q-9 -2 -21 -3.5t-29 -1.5h-380q-4 3 -4 12v28l317 499q-7 -1 -20.5 -1h-42.5h-128q-11 -5 -22 -16t-21 -25t-17.5 -28t-11.5 -25q-1 0 -2.5 -0.5t-3.5 -0.5
l-30 4q-6 2 -7 4l5 105q0 10 0.5 18t6.5 16q18 -1 36 -1.5t36 -0.5h331q4 -4 5 -12l3 -25zM349 800q23 -14 26 -25l-133 -126l-135 124q12 19 36 30q21 -5 43 -24t56 -51q19 18 32.5 30t25 20t23 13t26.5 9z" />
    <glyph glyph-name="Ysmalldieresis" unicode="&#xe048;" horiz-adv-x="602" 
d="M13 576q0 8 4 12h208q4 -4 4 -13v-42q-25 -7 -36 -20l120 -205l128 209q-22 16 -52 16v43q0 6 3 12h194q4 -7 4 -12v-30q0 -7 -3 -13q-48 -2 -82 -17l-145 -227q-8 -23 -10 -49.5t-2 -49.5v-124q17 -11 60 -11q5 -3 5 -12v-31q0 -10 -5 -12h-211q-6 3 -6 12v31q0 9 6 12
q42 0 59 11v135q0 25 -4.5 49.5t-18.5 50.5l-136 205q-32 22 -84 27v43v0zM208 674q-27 0 -42.5 15t-15.5 41t15.5 41.5t42.5 15.5q26 0 42 -15.5t16 -41.5t-16 -41t-42 -15zM416 674q-26 0 -42 15t-16 41t16 41.5t42 15.5q27 0 42.5 -15.5t15.5 -41.5t-15.5 -41t-42.5 -15z
" />
    <glyph glyph-name="ff" unicode="&#xfb00;" horiz-adv-x="677" 
d="M567 460q-5 -10 -6.5 -21.5t-1.5 -25.5v-330q21 -22 104 -27q5 -8 5 -15v-25q0 -8 -5 -16h-283q-6 7 -6 16v25q0 8 6 16q59 5 82 26v350q0 17 -10 27h-229q-5 -10 -6.5 -21.5t-1.5 -25.5v-330q21 -23 105 -27q5 -8 5 -15v-25q0 -8 -5 -16h-283q-6 7 -6 16v25q0 8 6 16
q59 5 82 26v350q0 17 -10 27h-46q-8 0 -13.5 3.5t-5.5 14.5v24q0 12 4 19h66q5 15 5 30q0 43 16.5 85t47.5 74t73.5 52t95.5 20q57 0 94 -19.5t61 -45.5q23 33 58.5 54t86.5 21q42 0 68 -15t43 -46q0 -8 -0.5 -19t-2.5 -21t-6.5 -17t-11.5 -7q-10 0 -22.5 1.5t-23.5 5.5
q-2 9 -5 17.5t-10.5 15.5t-20.5 11t-35 4q-20 0 -33 -11t-20.5 -31t-10 -48t-2.5 -61v-12q0 -28 8 -38h122q6 -6 6 -19v-24q0 -11 -6 -18h-122zM215 559q0 -28 8 -38h234q3 9 4.5 22.5t2.5 28.5t2.5 31t4.5 30q-6 10 -18.5 23.5t-31.5 26t-43 21t-54 8.5q-20 0 -39.5 -9.5
t-35 -27.5t-25 -44.5t-9.5 -59.5v-12z" />
    <glyph glyph-name="fi" unicode="&#xfb01;" horiz-adv-x="660" 
d="M553 83q21 -23 85 -27q5 -8 5 -15v-25q0 -8 -5 -16h-264q-6 7 -6 16v25q0 8 6 16q54 4 82 26v367q-6 2 -13.5 5t-17.5 5h-202q-5 -10 -6.5 -21.5t-1.5 -25.5v-330q21 -23 105 -27q5 -8 5 -15v-25q0 -8 -5 -16h-283q-6 7 -6 16v25q0 8 6 16q59 5 82 26v350q0 17 -10 27
h-46q-8 0 -13.5 3.5t-5.5 14.5v24q0 12 4 19h66q2 6 3.5 14.5t1.5 23.5q0 45 14.5 87t43 74.5t69 52t93.5 19.5q75 0 125.5 -26.5t67.5 -65.5q0 -8 -0.5 -19t-2.5 -21t-6.5 -17t-11.5 -7q-11 0 -31.5 1.5t-31.5 5.5q-4 14 -13 28t-24.5 25.5t-40 18.5t-59.5 7
q-42 0 -69 -34.5t-27 -103.5v-25q0 -28 8 -38h195q35 0 70.5 3.5t62.5 5.5q1 -10 1.5 -20t0.5 -21v-406v0z" />
    <glyph glyph-name="fl" unicode="&#xfb02;" horiz-adv-x="657" 
d="M551 83q21 -23 85 -27q5 -8 5 -15v-25q0 -8 -5 -16h-264q-6 7 -6 16v25q0 8 6 16q54 4 82 26v613q-16 11 -46.5 18.5t-85.5 7.5q-52 0 -79.5 -42t-27.5 -109v-12q0 -28 8 -38h163q5 -8 5 -19v-24q0 -10 -5 -18h-163q-5 -10 -6.5 -21.5t-1.5 -25.5v-330q21 -23 105 -27
q5 -8 5 -15v-25q0 -8 -5 -16h-283q-6 7 -6 16v25q0 8 6 16q59 5 82 26v350q0 17 -10 27h-46q-8 0 -13.5 3.5t-5.5 14.5v24q0 12 4 19h66q5 15 5 30q0 43 14 86.5t41.5 77.5t67.5 55.5t93 21.5q39 0 63 -5.5t39 -13.5q28 7 57 11t55 4q1 -10 1.5 -20t0.5 -21v-664z" />
    <glyph glyph-name="ffi" unicode="&#xfb03;" horiz-adv-x="1003" 
d="M896 83q21 -22 86 -27q4 -7 4 -15v-25q0 -9 -4 -16h-265q-6 7 -6 16v25q0 8 6 16q54 4 82 26v367q-6 2 -13.5 5t-17.5 5h-201q-5 -10 -6.5 -21.5t-1.5 -25.5v-330q21 -22 104 -27q5 -8 5 -15v-25q0 -8 -5 -16h-283q-6 7 -6 16v25q0 8 6 16q59 5 82 26v350q0 17 -10 27
h-229q-5 -10 -6.5 -21.5t-1.5 -25.5v-330q21 -23 105 -27q5 -8 5 -15v-25q0 -8 -5 -16h-283q-6 7 -6 16v25q0 8 6 16q59 5 82 26v350q0 17 -10 27h-46q-8 0 -13.5 3.5t-5.5 14.5v24q0 12 4 19h66q5 15 5 30q0 43 16.5 85t47.5 74t73.5 52t95.5 20q28 0 51.5 -7t42.5 -17.5
t34 -23.5t27 -26q23 36 70 60t105 24q75 0 125.5 -26.5t67.5 -65.5q0 -8 -0.5 -19t-2.5 -21t-6.5 -17t-11.5 -7q-11 0 -31.5 1.5t-31.5 5.5q-4 14 -13 28t-24.5 25.5t-40 18.5t-59.5 7q-42 0 -68.5 -34.5t-26.5 -103.5v-25q0 -28 8 -38h194q35 0 70.5 3.5t62.5 5.5
q1 -10 1.5 -20t0.5 -21v-406zM215 559q0 -28 8 -38h234q3 9 4.5 22.5t2.5 28.5t2.5 31t4.5 30q-14 34 -49 56.5t-98 22.5q-20 0 -39.5 -9.5t-35 -27.5t-25 -44.5t-9.5 -59.5v-12z" />
    <glyph glyph-name="ffl" unicode="&#xfb04;" horiz-adv-x="1000" 
d="M507 706q28 36 72.5 61t98.5 25q39 0 63 -5.5t39 -13.5q28 7 57 11t55 4q1 -10 1.5 -20t0.5 -21v-664q21 -22 86 -27q5 -8 5 -15v-25q0 -8 -5 -16h-265q-6 7 -6 16v25q0 8 6 16q54 4 82 26v613q-16 11 -46.5 18.5t-85.5 7.5q-52 0 -79 -42t-27 -109v-12q0 -28 8 -38h162
q5 -8 5 -19v-24q0 -10 -5 -18h-162q-5 -10 -6.5 -21.5t-1.5 -25.5v-330q21 -22 104 -27q5 -8 5 -15v-25q0 -8 -5 -16h-283q-6 7 -6 16v25q0 8 6 16q59 5 82 26v350q0 17 -10 27h-229q-5 -10 -6.5 -21.5t-1.5 -25.5v-330q21 -23 105 -27q5 -8 5 -15v-25q0 -8 -5 -16h-283
q-6 7 -6 16v25q0 8 6 16q59 5 82 26v350q0 17 -10 27h-46q-8 0 -13.5 3.5t-5.5 14.5v24q0 12 4 19h66q5 15 5 30q0 43 16.5 85t47.5 74t73.5 52t95.5 20q57 0 96 -24t59 -52zM215 559q0 -28 8 -38h234q3 9 4.5 22.5t2.5 28.5t2.5 31t4.5 30q-6 10 -18.5 23.5t-31.5 26
t-43 21t-54 8.5q-20 0 -39.5 -9.5t-35 -27.5t-25 -44.5t-9.5 -59.5v-12z" />
    </font>
</defs>
</svg>
