<?xml version="1.0" standalone="no"?>
<!DOCTYPE svg PUBLIC "-//W3C//DTD SVG 1.1//EN" "http://www.w3.org/Graphics/SVG/1.1/DTD/svg11.dtd" >
<svg>
<metadata>
Created by FontForge 20110222 at Fri Aug 22 06:30:31 2014
 By Orthosie Webhosting
Font software Copyright 1990, 1995, 2002 Adobe Systems Incorporated. All rights reserved. Typeface designs Copyright The Monotype Corporation. All rights reserved.
</metadata>
<defs>
<font id="PlantinMTProItalic" horiz-adv-x="333" >
  <font-face 
    font-family="PlantinMTProItalic"
    font-weight="400"
    font-style="italic"
    font-stretch="normal"
    units-per-em="1000"
    panose-1="2 2 5 3 5 4 5 9 3 4"
    ascent="695"
    descent="-305"
    x-height="444"
    cap-height="682"
    bbox="-148 -250 1123 920"
    underline-thickness="50"
    underline-position="-50"
    slope="-15.5"
    unicode-range="U+0020-FB04"
  />
<missing-glyph horiz-adv-x="640" 
d="M140 0v700h500v-700h-500zM390 395l170 255h-340zM420 350l170 -255v510zM220 50h340l-170 255zM190 605v-510l170 255z" />
    <glyph glyph-name="f_f" unicode="ff" horiz-adv-x="583" 
d="M238 390l-75 -300q-15 -57 -23.5 -85.5t-29.5 -70t-50 -72.5q-47 -51 -109 -51q-32 0 -50 18.5t-18 38.5q0 16 12 27t27 11q25 0 44 -33q10 -20 27 -20q14 0 26 15t22.5 46t15.5 50.5t14 57.5l88 368h-111l14 37h104l6 25q29 122 90 182t125 60q34 0 63 -18t29 -42
q0 -15 -11 -28t-27 -13q-23 0 -40 26q-21 33 -46 33q-33 0 -51 -34.5t-36 -107.5l-21 -83h218l9 34q6 22 13.5 44.5t25.5 59t38.5 63t53.5 46.5t70 20q25 0 42.5 -15.5t17.5 -37.5q0 -21 -13.5 -32t-27.5 -11q-17 0 -31 24q-12 25 -28 25q-23 0 -37 -32t-36 -118l-18 -70h86
l-9 -37h-86l-71 -285q-19 -79 -37 -129t-49 -89q-59 -76 -127 -76q-32 0 -55 16t-23 39q0 17 12 28.5t28 11.5q21 0 40 -30q15 -23 33 -23q42 0 70 113l100 424h-218z" />
    <glyph glyph-name="fi" unicode="fi" horiz-adv-x="573" 
d="M233 387l-85 -347q-27 -111 -83 -171t-116 -60q-32 0 -54.5 16.5t-22.5 40.5q0 15 11.5 26t27.5 11q23 0 41 -26t31 -26q41 0 67 108l105 428h-117l12 38h116q74 268 282 268q50 0 78 -16.5t28 -44.5q0 -17 -11.5 -28.5t-28.5 -11.5q-21 0 -53 31.5t-62 31.5
q-53 0 -92 -61.5t-62 -168.5h127q65 0 131 13h19l-94 -351q-4 -15 0 -24.5t15 -9.5q28 0 66 79h36q-29 -65 -68.5 -103.5t-76.5 -38.5q-32 0 -44 28t0 73l64 253q11 43 -27 43h-160z" />
    <glyph glyph-name="fl" unicode="fl" horiz-adv-x="573" 
d="M516 682l72 11l-158 -607q-8 -33 15 -33q27 0 66 79h37q-31 -66 -70.5 -104t-75.5 -38q-31 0 -44.5 25.5t-0.5 78.5l76 293h-201l-82 -339q-29 -117 -85.5 -178t-115.5 -61q-32 0 -54.5 16.5t-22.5 39.5q0 15 11 26.5t26 11.5q25 0 42 -26t32 -26q39 0 66 108l107 428
h-116l12 38h116q19 75 51 129.5t71 83.5t77.5 42t80.5 13q37 0 68 -11zM445 425l47 177q-10 7 -26.5 22.5t-30 23t-32.5 7.5q-108 0 -159 -230h201z" />
    <glyph glyph-name="f_f_i" unicode="ffi" horiz-adv-x="812" 
d="M232 387l-58 -233q-10 -41 -18.5 -69.5t-23.5 -73.5t-32.5 -76t-40 -61.5t-52 -46.5t-62.5 -16q-27 0 -47.5 14.5t-20.5 38.5q0 21 12.5 30.5t24.5 9.5q27 0 47 -34q12 -20 25 -20q39 0 82 185q17 75 27 116l59 236h-94l9 37h94l7 27q5 17 11 36t25.5 59.5t42 70.5
t60 53.5t80.5 23.5q32 0 57.5 -16t25.5 -41q0 -17 -12 -28t-27 -11q-28 0 -51 40q-10 14 -30 14q-33 0 -53.5 -40.5t-43.5 -132.5l-14 -55h188q10 36 20 63t32.5 69t49 69.5t70.5 48t96 20.5q44 0 72 -16.5t28 -42.5q0 -15 -9 -26.5t-29 -11.5q-24 0 -38 17l-12 14
q-24 29 -56 29q-56 0 -97 -78q-23 -45 -38 -111l-11 -44h117q77 0 148 15l-82 -305q-13 -46 -13 -61q0 -8 3.5 -13t6.5 -6t5 -1q19 0 63 75h34q-26 -57 -65.5 -97.5t-81.5 -40.5q-45 0 -45 57q0 20 10 60l65 242q3 11 3 17q0 10 -5.5 15t-11.5 5.5t-20 0.5h-141l-69 -280
q-14 -56 -22 -85.5t-24.5 -66.5t-37.5 -65q-59 -79 -133 -79q-39 0 -61 16.5t-22 40.5q0 18 11.5 27.5t27.5 9.5q26 0 36 -18q11 -17 15.5 -23t10.5 -10t14 -4q20 0 34 18t22 43t22 82l98 394h-187z" />
    <glyph glyph-name="f_f_l" unicode="ffl" horiz-adv-x="823" 
d="M682 387h-185l-70 -280q-15 -61 -22 -85.5t-23.5 -63.5t-37.5 -68q-59 -79 -134 -79q-38 0 -60 16.5t-22 40.5q0 18 11.5 27.5t26.5 9.5q24 0 37 -18q0 -1 3 -5.5t5.5 -8t3.5 -4.5q11 -19 28 -19q28 0 43 31t35 112l98 394h-187l-59 -233q-10 -41 -18 -69t-23.5 -73.5
t-32.5 -76t-39.5 -61.5t-52 -47t-62.5 -16q-27 0 -47.5 14.5t-20.5 38.5q0 21 12.5 30.5t24.5 9.5q27 0 46 -34q13 -20 25 -20q43 0 82 185q11 49 28 116l58 236h-94l10 37h94l6 27q3 14 10.5 36t26 60.5t42 69t61 54t80.5 23.5q31 0 57 -16t26 -41q0 -17 -12.5 -28
t-27.5 -11q-26 0 -51 40q-10 14 -30 14q-33 0 -54.5 -41.5t-42.5 -131.5l-13 -55h187q7 25 12 40.5t18 47t26 52.5t34.5 48t46 43t59 27.5t73.5 11.5t67 -14l74 13l-148 -559q-13 -48 -13 -61q0 -8 3.5 -13t6.5 -6t5 -1q22 0 63 75h34q-27 -56 -66 -97t-81 -41q-45 0 -45 57
q0 26 13 72zM692 424l47 178q-11 4 -18 12q-12 15 -20 23t-20.5 14t-28.5 6q-56 0 -97 -77q-17 -32 -38 -112l-11 -44h186z" />
    <glyph glyph-name=".notdef" horiz-adv-x="640" 
d="M140 0v700h500v-700h-500zM390 395l170 255h-340zM420 350l170 -255v510zM220 50h340l-170 255zM190 605v-510l170 255z" />
    <glyph glyph-name=".null" horiz-adv-x="0" 
 />
    <glyph glyph-name="nonmarkingreturn" 
 />
    <glyph glyph-name="space" unicode=" " horiz-adv-x="278" 
 />
    <glyph glyph-name="exclam" unicode="!" horiz-adv-x="311" 
d="M103 116q26 0 45 -18.5t19 -44.5t-19 -45t-45 -19t-44.5 19t-18.5 45t18.5 44.5t44.5 18.5zM168 197h-36l101 454q5 25 16 33.5t39 8.5q42 0 53.5 -11.5t-0.5 -37.5z" />
    <glyph glyph-name="quotedbl" unicode="&#x22;" horiz-adv-x="420" 
d="M193 396l-27 145l-9 49l-3 38q0 24 13.5 39t35.5 15t36 -15t14 -39l-4 -38l-9 -49l-26 -145h-21zM370 396l-26 145l-9 49l-4 38q0 24 14 39t36 15t35.5 -15t13.5 -39l-4 -38l-8 -49l-26 -145h-22z" />
    <glyph glyph-name="numbersign" unicode="#" horiz-adv-x="668" 
d="M41 488h157l42 194h69l-41 -194h195l41 194h70l-41 -194h93v-70h-107l-35 -171h142v-70h-156l-41 -193h-70l41 193h-197l-39 -193h-71l41 193h-93v70h107l36 171h-143v70zM254 418l-36 -170h196l36 170h-196z" />
    <glyph glyph-name="dollar" unicode="$" horiz-adv-x="490" 
d="M111 -100l27 102q-97 38 -97 131q0 22 13.5 37.5t32.5 15.5q16 0 28 -11.5t12 -26.5q0 -12 -8.5 -30t-8.5 -31q0 -16 9.5 -25.5t29.5 -19.5l83 310q-38 43 -51 71.5t-13 66.5q0 62 38.5 108t106.5 56l8 28h34l-7 -25q17 2 47 -2l8 27h34l-10 -37q41 -14 65 -44.5
t24 -69.5q0 -56 -43 -56q-16 0 -26.5 9t-10.5 26q0 10 8 26t8 24q0 32 -35 44l-69 -257q40 -48 57.5 -83.5t17.5 -73.5q0 -75 -47.5 -130t-124.5 -68l-24 -92h-34l24 90q-6 -2 -23.5 -1.5t-23.5 2.5l-25 -91h-34zM338 616l-53 -198l35 -40l65 238q-22 4 -47 0zM293 278
l-34 42l-78 -288q24 -4 48 1zM258 452l45 159q-70 -22 -70 -86q0 -31 25 -73zM320 245l-56 -204q85 31 85 119q0 44 -29 85z" />
    <glyph glyph-name="percent" unicode="%" horiz-adv-x="875" 
d="M178 432q0 -66 47 -66q37 0 65 48.5t38.5 99t10.5 84.5q0 29 -13.5 46.5t-35.5 17.5q-27 0 -50 -28.5t-35.5 -68.5t-19.5 -75.5t-7 -57.5zM113 474q0 48 17 96t58 85t98 37q54 0 86.5 -38.5t32.5 -101.5q0 -89 -52.5 -152t-125.5 -63q-52 0 -83 37.5t-31 99.5zM771 692
h52l-660 -727h-53zM544 118q0 48 17 96t58 85t98 37q54 0 86.5 -38.5t32.5 -101.5q0 -89 -52.5 -152t-125.5 -63q-52 0 -83 37.5t-31 99.5zM609 76q0 -66 47 -66q37 0 65 48.5t38.5 99t10.5 84.5q0 29 -13.5 46.5t-35.5 17.5q-27 0 -50 -28.5t-35.5 -68.5t-19.5 -75.5
t-7 -57.5z" />
    <glyph glyph-name="ampersand" unicode="&#x26;" horiz-adv-x="948" 
d="M407 447l-9 -31q-62 3 -108 -10t-71 -37.5t-37 -53.5t-12 -63q0 -81 74.5 -137t181.5 -56q151 0 232.5 57t81.5 141q0 61 -39 99.5t-101 38.5q-48 0 -78.5 -20t-30.5 -52q0 -16 13.5 -24t30 -11t30 -16.5t13.5 -38.5q0 -15 -13 -26.5t-31 -11.5q-34 0 -59.5 32.5
t-25.5 74.5q0 59 43 107.5t132 48.5q56 0 140 -46q4 -2 17.5 -9.5t18.5 -10l17 -8.5t18.5 -8t16 -5.5t18 -4.5t16.5 -1q23 0 38.5 14.5t15.5 36.5q0 20 -13.5 28t-29 8.5t-29 10t-13.5 31.5q0 17 13 29t32 12q33 0 55.5 -29t22.5 -71q0 -41 -30.5 -85t-86.5 -44
q-43 0 -103 30l-2 -2q21 -31 21 -79q0 -33 -11 -67.5t-38.5 -70.5t-68 -64t-105 -46t-144.5 -18q-88 0 -155 20.5t-104 55t-55 74.5t-18 85q0 66 44.5 121t129.5 87q-34 28 -34 78q0 76 68.5 129.5t165.5 53.5q65 0 115 -27.5t50 -63.5q0 -19 -15 -33t-35 -14
q-21 0 -31.5 10.5t-14.5 25t-9.5 29t-22.5 25t-48 10.5q-54 0 -96 -37.5t-42 -86.5q0 -34 24 -54t80 -30z" />
    <glyph glyph-name="quotesingle" unicode="'" horiz-adv-x="214" 
d="M183 396l-26 145l-9 49l-4 38q0 24 14 39t36 15t35.5 -15t13.5 -39l-4 -38l-8 -49l-27 -145h-21z" />
    <glyph glyph-name="parenleft" unicode="(" horiz-adv-x="448" 
d="M302 -153l-33 -36q-67 60 -104 146t-37 179q0 102 43 207t127 189q90 90 240 161l23 -43q-133 -68 -209 -144q-80 -80 -119 -182.5t-39 -203.5q0 -80 25.5 -145t82.5 -128z" />
    <glyph glyph-name="parenright" unicode=")" horiz-adv-x="436" 
d="M151 657l33 36q67 -60 104 -146t37 -179q0 -102 -43 -207t-127 -189q-90 -90 -240 -161l-23 43q133 68 209 144q80 80 119 182.5t39 203.5q0 80 -25.5 145t-82.5 128z" />
    <glyph glyph-name="asterisk" unicode="*" horiz-adv-x="521" 
d="M345 444l-155 -72l-14 30l117 114l-135 109l18 25l158 -44l69 142l28 -8v-151l154 -18v-29l-154 -54l37 -168l-27 -17z" />
    <glyph glyph-name="plus" unicode="+" horiz-adv-x="667" 
d="M109 364h229v229h77v-229h229v-77h-229v-229h-77v229h-229v77z" />
    <glyph glyph-name="comma" unicode="," horiz-adv-x="311" 
d="M-7 -152v37q71 -3 113.5 31t42.5 75q0 15 -12 24.5t-26.5 14.5t-26.5 19.5t-12 38.5q0 25 17 42.5t42 17.5q38 0 65 -33t27 -79q0 -71 -64 -131t-166 -57z" />
    <glyph glyph-name="hyphen" unicode="-" horiz-adv-x="365" 
d="M34 199l23 76h307l-23 -76h-307z" />
    <glyph glyph-name="period" unicode="." horiz-adv-x="311" 
d="M44 53q0 26 18.5 44.5t44.5 18.5t45 -18.5t19 -44.5t-19 -45t-45 -19t-44.5 19t-18.5 45z" />
    <glyph glyph-name="slash" unicode="/" horiz-adv-x="278" 
d="M323 693l-234 -704h-44l234 704h44z" />
    <glyph glyph-name="zero" unicode="0" horiz-adv-x="521" 
d="M534 438q-4 -117 -46 -222q-38 -96 -108.5 -161.5t-140.5 -65.5q-79 0 -122 76q-35 63 -35 170q0 62 22.5 148.5t73.5 154.5q31 41 59 67.5t52.5 39t41 16.5t38.5 6q77 6 122.5 -63t42.5 -166zM156 153q0 -59 23 -93t62 -34q53 0 97 71.5t86 226.5q32 115 32 187
q0 57 -25 88t-60 31q-75 0 -134 -142q-29 -71 -55 -169t-26 -166z" />
    <glyph glyph-name="one" unicode="1" horiz-adv-x="521" 
d="M443 667l-146 -546q-15 -54 -2.5 -70.5t67.5 -16.5l-9 -34h-258l9 34q53 0 73 19t39 91l94 351q8 29 -1 40t-51 11h-36l10 37q46 4 82 22t86 62h43z" />
    <glyph glyph-name="two" unicode="2" horiz-adv-x="521" 
d="M452 169l-38 -169h-376v20q22 30 54 66.5t50.5 55.5t61.5 61.5t48 47.5q167 167 167 250q0 44 -32.5 72.5t-82.5 28.5q-64 0 -150 -72l-28 25q44 53 101.5 82.5t118.5 29.5q74 0 120.5 -40t46.5 -104q0 -47 -24.5 -87.5t-80.5 -96.5q-31 -31 -134 -124.5t-134 -132.5h163
q55 0 78 17t32 70h39z" />
    <glyph glyph-name="three" unicode="3" horiz-adv-x="521" 
d="M168 327l6 37q120 0 184 45.5t64 107.5q0 38 -25 61.5t-66 23.5q-56 0 -131 -57l-28 23q34 47 83 73t103 26q68 0 111 -37t43 -97q0 -59 -44.5 -108t-144.5 -73v-2q114 -49 114 -160q0 -26 -7 -51.5t-26 -53t-48 -48.5t-77.5 -34.5t-109.5 -13.5q-65 0 -101.5 11.5
t-36.5 31.5q0 13 12.5 28.5t26.5 15.5q11 0 58.5 -25t87.5 -25q56 0 93.5 42.5t37.5 105.5t-40 108t-110 45h-29z" />
    <glyph glyph-name="four" unicode="4" horiz-adv-x="521" 
d="M413 254h105l-17 -65h-105l-54 -200h-87l54 200h-247l4 72l391 406h67zM326 254l83 309l-2 2l-296 -311h215z" />
    <glyph glyph-name="five" unicode="5" horiz-adv-x="521" 
d="M265 581l-43 -94q81 -15 138 -57.5t81.5 -93.5t24.5 -105q0 -41 -16.5 -82t-49 -77.5t-88.5 -59.5t-127 -23q-61 0 -102.5 11t-41.5 27q0 11 13.5 29.5t27.5 18.5q7 0 65 -20t92 -20q75 0 118 52t43 115q0 66 -63.5 130t-191.5 80l114 243h225l15 27l31 -17l-46 -84h-219
z" />
    <glyph glyph-name="six" unicode="6" horiz-adv-x="521" 
d="M519 667l26 -27q-131 -43 -203 -108.5t-127 -174.5l2 -2q71 53 136 53q73 0 113.5 -48t40.5 -116q0 -98 -67 -176.5t-166 -78.5q-85 0 -138.5 61.5t-53.5 159.5q0 103 62 205.5t163.5 171.5t211.5 80zM413 236q0 51 -26 82.5t-71 31.5q-62 0 -123 -55q-23 -69 -23 -127
q0 -63 28 -102.5t79 -39.5q55 0 95.5 62.5t40.5 147.5z" />
    <glyph glyph-name="seven" unicode="7" horiz-adv-x="521" 
d="M193 505h-38l45 150h381l-419 -666h-64l371 583h-201q-32 0 -49 -16t-26 -51z" />
    <glyph glyph-name="eight" unicode="8" horiz-adv-x="521" 
d="M485 173q0 -75 -59 -129.5t-158 -54.5q-93 0 -151.5 50t-58.5 115q0 59 54.5 110t151.5 85q-91 90 -91 159q0 66 57.5 112.5t137.5 46.5q75 0 124 -40.5t49 -103.5q0 -53 -36 -90.5t-127 -78.5q107 -110 107 -181zM471 529q0 43 -32 72t-79 29q-46 0 -78.5 -29t-32.5 -69
q0 -29 22.5 -60.5t76.5 -84.5q68 35 95.5 67t27.5 75zM405 140q0 71 -111 175q-85 -39 -124 -79.5t-39 -88.5q0 -52 39.5 -85.5t101.5 -35.5q44 3 66 13q31 15 49 42.5t18 58.5z" />
    <glyph glyph-name="nine" unicode="9" horiz-adv-x="521" 
d="M90 -11l-26 28q128 40 205 108t125 172l-2 2q-70 -51 -135 -51q-73 0 -113.5 48t-40.5 116q0 98 67 176.5t166 78.5q85 0 138.5 -61.5t53.5 -159.5q0 -103 -62.5 -205.5t-164 -171.5t-211.5 -80zM197 415q0 -50 28 -80t70 -30q60 0 122 56q23 66 23 130q0 56 -30 97
t-77 41q-58 0 -97 -64t-39 -150z" />
    <glyph glyph-name="colon" unicode=":" horiz-adv-x="311" 
d="M205 444q26 0 44 -18t18 -43t-18.5 -43.5t-43.5 -18.5t-43 18t-18 44q0 25 18 43t43 18zM107 114q26 0 44 -18t18 -43t-18.5 -43.5t-43.5 -18.5t-43 18t-18 44q0 25 18 43t43 18z" />
    <glyph glyph-name="semicolon" unicode=";" horiz-adv-x="311" 
d="M-7 -152v37q71 -1 113.5 31.5t42.5 72.5q0 19 -7.5 25.5t-24 12.5t-28.5 18q-17 17 -17 40q0 28 17.5 45.5t43.5 17.5q34 0 62 -32t28 -79q0 -77 -68 -135t-162 -54zM235 444q26 0 44 -18t18 -43t-18.5 -43.5t-43.5 -18.5t-43 18t-18 44q0 25 18 43t43 18z" />
    <glyph glyph-name="less" unicode="&#x3c;" horiz-adv-x="667" 
d="M643 67l-534 224v70l534 224v-83l-430 -176l430 -176v-83z" />
    <glyph glyph-name="equal" unicode="=" horiz-adv-x="667" 
d="M109 480h535v-77h-535v77zM109 249h535v-77h-535v77z" />
    <glyph glyph-name="greater" unicode="&#x3e;" horiz-adv-x="667" 
d="M109 585l534 -225v-69l-534 -224v83l430 175l-430 176v84z" />
    <glyph glyph-name="question" unicode="?" horiz-adv-x="406" 
d="M163 182h-43l28 157q4 27 36 27h32q42 0 73 17q31 18 49 49.5t18 67.5q0 49 -26 77.5t-66 28.5q-12 0 -32 -6t-27 -6q-16 0 -28 13t-12 30q0 23 20.5 39.5t49.5 16.5q72 0 120 -70t48 -166q0 -39 -14.5 -77.5t-37.5 -61.5q-17 -17 -41.5 -25t-46 -11t-42.5 -10t-36.5 -29
t-21.5 -61zM119 116q26 0 45 -18.5t19 -44.5t-19 -45t-45 -19t-44.5 19t-18.5 45t18.5 44.5t44.5 18.5z" />
    <glyph glyph-name="at" unicode="@" horiz-adv-x="920" 
d="M725 467l-95 -327q-12 -43 -3 -67t34 -24q69 0 136.5 93t67.5 225t-88.5 216.5t-227.5 84.5q-125 0 -222.5 -69t-147 -174t-49.5 -222q0 -172 107 -281t275 -109q133 0 235 70t158 200h28q-36 -128 -153.5 -214t-269.5 -86q-184 0 -305 123t-121 310q0 200 134 338.5
t328 138.5q156 0 252.5 -93t96.5 -242q0 -54 -16.5 -111.5t-48 -111t-85 -87.5t-118.5 -34q-76 0 -76 68q0 26 8 69l-2 2q-105 -139 -189 -139q-38 0 -63.5 33t-25.5 82q0 74 44.5 155.5t107.5 133.5t117 52q31 0 54 -17t29 -51h2l15 54zM356 144q0 -30 16.5 -50.5
t40.5 -20.5q63 0 132 98t69 204q0 32 -17 52t-43 20q-45 0 -93.5 -60.5t-76.5 -131t-28 -111.5z" />
    <glyph glyph-name="A" unicode="A" horiz-adv-x="729" 
d="M509 273h-247l-96 -114q-39 -46 -29 -83.5t65 -41.5l-9 -34h-245l9 34q52 8 136 110l463 549h90l-56 -537q-7 -69 9.5 -95.5t75.5 -26.5l-9 -34h-285l9 34q57 0 80.5 25.5t29.5 106.5zM513 318l32 293l-2 2l-247 -295h217z" />
    <glyph glyph-name="B" unicode="B" horiz-adv-x="698" 
d="M129 162l100 373q28 108 -70 113l10 34h328q98 0 148.5 -46t50.5 -108q0 -128 -195 -172v-2q72 -17 111.5 -59.5t39.5 -101.5q0 -79 -73 -136t-203 -57h-376l9 34q52 7 78 37.5t42 90.5zM285 375h115q97 0 142 45.5t45 102.5q0 50 -37 85.5t-109 35.5h-84zM275 337
l-49 -182q-16 -58 9 -87.5t84 -29.5h51q47 0 82.5 15.5t54 40.5t27.5 51t9 52q0 64 -44.5 102t-112.5 38h-111z" />
    <glyph glyph-name="C" unicode="C" horiz-adv-x="708" 
d="M735 622l-32 -157q-17 8 -35 10q4 80 -48.5 130t-134.5 50q-73 0 -136 -39t-103 -99t-62.5 -129t-22.5 -132q0 -103 56 -165.5t149 -62.5q81 0 138 51.5t99 162.5h54l-45 -166q-76 -46 -130.5 -66t-123.5 -20q-74 0 -134 25t-96.5 65t-56 88t-19.5 98q0 111 62 210.5
t162 158t208 58.5q133 0 251 -71z" />
    <glyph glyph-name="D" unicode="D" horiz-adv-x="781" 
d="M139 167l101 377q28 105 -62 105h-8l8 33h267q90 0 143.5 -18.5t96.5 -61.5q87 -87 87 -220q0 -96 -44.5 -182t-132.5 -143t-200 -57h-381l9 34q51 11 74.5 38t41.5 95zM367 644l-135 -490q-16 -56 13.5 -86t85.5 -30h25q134 0 202 68q53 53 79 127t26 149
q0 111 -59 186.5t-169 75.5h-68z" />
    <glyph glyph-name="E" unicode="E" horiz-adv-x="656" 
d="M595 164h40l-74 -164h-560l10 34q49 7 75.5 34t40.5 81l105 392q12 47 -7.5 77t-67.5 30l10 34h536l-42 -158q-19 5 -37 0q4 59 -16.5 89.5t-79.5 30.5h-169l-72 -267h101q77 0 112.5 18t65.5 71h33l-63 -236h-30q-8 62 -30.5 85.5t-73.5 23.5h-125l-51 -187
q-15 -55 4.5 -84.5t93.5 -29.5h29q77 0 133.5 29.5t108.5 96.5z" />
    <glyph glyph-name="F" unicode="F" horiz-adv-x="635" 
d="M280 341l-49 -183q-33 -124 81 -124l-9 -34h-305l9 34q53 5 81 35t43 85l101 379q31 115 -75 115l10 34h539l-35 -156h-38q-2 62 -23.5 90t-69.5 28h-179l-71 -265h119q56 0 89.5 20t65.5 68h38l-63 -238h-39q-3 62 -28.5 87t-92.5 25h-99z" />
    <glyph glyph-name="G" unicode="G" horiz-adv-x="792" 
d="M512 350h293l-9 -34q-53 -3 -76.5 -33t-38.5 -87l-41 -156q-51 -22 -122.5 -36t-131.5 -14q-130 0 -215.5 81t-85.5 204q0 73 35 147.5t95 134.5t149 98t187 38q66 0 119.5 -14.5t127.5 -46.5l-35 -157h-43q2 83 -43.5 131.5t-132.5 48.5q-104 0 -184.5 -59.5t-120 -150
t-39.5 -192.5q0 -104 53.5 -162t148.5 -58q84 0 148 43l29 108q10 38 10 65.5t-20.5 44.5t-65.5 22z" />
    <glyph glyph-name="H" unicode="H" horiz-adv-x="823" 
d="M280 328l-52 -195q-13 -48 4 -73.5t59 -25.5l-9 -34h-278l9 34q54 6 81.5 37.5t43.5 94.5l99 372q13 50 -3.5 80t-65.5 30l9 34h280l-9 -34q-43 -3 -71 -33t-40 -73l-44 -164h345l43 160q14 51 -2.5 80.5t-60.5 29.5h-6l9 34h281l-9 -34q-86 -12 -115 -118l-98 -364
q-9 -33 -11.5 -52t1 -38.5t20.5 -29t49 -12.5l-9 -34h-278l9 34q54 8 79 39t42 93l43 162h-345z" />
    <glyph glyph-name="I" unicode="I" horiz-adv-x="375" 
d="M180 682h270l-9 -34q-82 -13 -109 -117l-106 -397q-23 -87 75 -100l-9 -34h-288l9 34q52 7 79 36t44 96l98 364q28 107 -63 118z" />
    <glyph glyph-name="J" unicode="J" horiz-adv-x="479" 
d="M175 339l14 50h127q23 83 63 150q-33 -3 -66.5 18.5t-63.5 44.5t-52 23q-20 0 -34 -14.5t-14 -28.5q0 -16 28.5 -34t28.5 -42q0 -20 -15.5 -34.5t-37.5 -14.5q-26 0 -42.5 21.5t-16.5 54.5q0 54 43 107t110 53q39 0 65.5 -19t51 -43t50.5 -32q18 44 41.5 69t47.5 25
q39 0 39 -45q0 -53 -81 -91l-48 -168h80l-14 -50h-80q-67 -247 -97 -328t-80 -131q-71 -71 -189 -71q-53 0 -84.5 19t-31.5 51q0 19 11 31t28 12q20 0 35.5 -17t35.5 -34t51 -17q40 0 69 29q22 22 38 57.5t26.5 73.5t37 136.5t53.5 188.5h-127z" />
    <glyph glyph-name="K" unicode="K" horiz-adv-x="771" 
d="M173 682h285l-9 -34q-51 -6 -78 -35.5t-41 -81.5l-101 -375q-15 -56 3.5 -89t71.5 -33l-9 -34h-298l9 34q93 6 123 116l103 384q15 45 0.5 79.5t-59.5 34.5h-9zM291 352q285 169 325 209q24 24 24 44q0 39 -64 43l9 34h288l-10 -38q-54 -5 -104 -35t-151.5 -103
t-213.5 -137q19 -14 92 -100.5t104 -117.5q61 -61 98 -85t81 -28l-10 -38h-147q-31 21 -65 55q-39 39 -256 297z" />
    <glyph glyph-name="L" unicode="L" horiz-adv-x="646" 
d="M186 682h269l-9 -34q-45 -7 -75.5 -42.5t-44.5 -89.5l-100 -371q-15 -54 3 -80.5t76 -26.5h71q73 0 124 29.5t106 100.5h43l-75 -168h-561l9 32q79 16 105 114l105 393q12 46 -1 75.5t-54 33.5z" />
    <glyph glyph-name="M" unicode="M" horiz-adv-x="979" 
d="M889 486l-37 -337q-6 -59 8.5 -85.5t61.5 -29.5l-9 -34h-265l10 34q43 0 68.5 28.5t30.5 76.5l47 419l-2 2q-28 -48 -63.5 -103t-59.5 -89.5t-69 -100t-63 -92.5q-67 -99 -98 -175h-51q4 63 -16 179l-36 205q-21 126 -21 181h-2l-148 -369q-13 -33 -18.5 -58t-3 -48.5
t20.5 -37.5t51 -18l-9 -34h-235l10 34q48 11 77.5 50t72.5 144l118 286q3 8 8.5 21t7.5 18t4.5 13t3.5 14.5t1 14.5q0 24 -15 36t-50 17l9 34h198q-9 -41 -9 -80q0 -28 9 -113t17 -132l36 -217q37 61 51 81l197 284q76 109 82 177h206l-9 -34q-100 0 -117 -162z" />
    <glyph glyph-name="N" unicode="N" horiz-adv-x="813" 
d="M147 682h154q32 -41 98 -155l225 -391l99 368q18 68 -3.5 106t-83.5 38l9 34h248l-9 -34q-52 -5 -79.5 -42t-49.5 -117l-110 -398l55 -91h-113l-229 408q-54 96 -83 139l-92 -366q-37 -146 90 -147l-10 -34h-266l9 34q49 3 78 29.5t48 94.5l115 427q-22 39 -41.5 51
t-58.5 12h-9z" />
    <glyph glyph-name="O" unicode="O" horiz-adv-x="792" 
d="M789 397q0 -63 -31.5 -133.5t-85 -131.5t-134 -101.5t-168.5 -40.5q-132 0 -206.5 86t-74.5 199q0 72 36 148t94 135t136 97t156 38q119 0 198.5 -85.5t79.5 -210.5zM197 242q0 -99 50.5 -156.5t134.5 -57.5q61 0 113 30.5t85 77t57 102.5t34 105t10 87q0 97 -50.5 161
t-127.5 64q-89 0 -160.5 -62.5t-108.5 -156t-37 -194.5z" />
    <glyph glyph-name="P" unicode="P" horiz-adv-x="615" 
d="M361 644l-137 -491q-31 -113 85 -119l-9 -34h-296l9 34q47 5 74 34t41 83l105 390q13 48 -7 77.5t-69 29.5l10 34h284q121 0 180.5 -50t59.5 -122q0 -88 -73.5 -143.5t-189.5 -55.5q-78 0 -78 27q0 9 4.5 14.5t13.5 7t17 1.5t20 -1t17 -1q71 0 114 43.5t43 104.5
t-44.5 99t-115.5 38h-58z" />
    <glyph glyph-name="Q" unicode="Q" horiz-adv-x="792" 
d="M792 -67v-40q-151 -84 -272 -84q-55 0 -132 17.5t-110 17.5q-54 0 -125 -35l-36 22l219 159v2q-57 3 -112 34.5t-95 97t-40 148.5q0 98 59.5 196t158 161.5t202.5 63.5q120 0 200 -84.5t80 -213.5q0 -48 -19 -102.5t-55.5 -106t-83.5 -94.5t-109 -70.5t-127 -30.5
l-128 -96l2 -2q52 22 119 22q56 0 117 -13q68 -14 100 -14q94 0 187 45zM197 242q0 -99 50.5 -156.5t134.5 -57.5q61 0 113 30.5t85 77t57 102.5t34 105t10 87q0 97 -50.5 161t-127.5 64q-89 0 -160.5 -62.5t-108.5 -156t-37 -194.5z" />
    <glyph glyph-name="R" unicode="R" horiz-adv-x="698" 
d="M282 334l-47 -175q-33 -121 68 -125l-9 -34h-284l9 34q52 11 76.5 38t42.5 94l99 368q13 49 -4 81.5t-65 32.5l9 34h267q149 0 203 -54q48 -48 48 -111q0 -69 -61 -121t-178 -62q27 -43 56.5 -104t46 -96t48 -64.5t74.5 -35.5l-10 -34h-141q-27 30 -50 82.5t-53 123
t-67 128.5h-78zM290 372h63q112 0 171.5 37.5t59.5 107.5q0 48 -36 87.5t-107 39.5h-76z" />
    <glyph glyph-name="S" unicode="S" horiz-adv-x="604" 
d="M636 628l-33 -142l-35 7q0 66 -40 114t-123 48q-65 0 -98.5 -32t-33.5 -69q0 -25 16.5 -51t37 -45t58.5 -52.5t62 -57.5q58 -58 78 -97.5t20 -77.5q0 -80 -70 -131.5t-180 -51.5q-65 0 -120.5 17.5t-145.5 62.5l42 156l37 -6q-3 -93 45.5 -142.5t142.5 -49.5
q78 0 115.5 37.5t37.5 85.5q0 27 -17.5 56t-37.5 48.5t-59.5 55t-60.5 56.5q-54 54 -76.5 90.5t-22.5 70.5q0 72 64.5 118.5t164.5 46.5q122 0 232 -65z" />
    <glyph glyph-name="T" unicode="T" horiz-adv-x="667" 
d="M506 644l-138 -498q-16 -58 2 -85t77 -27l-9 -34h-310l9 34q56 0 87.5 28.5t48.5 89.5l136 492h-49q-86 0 -123 -22t-85 -103h-36l44 163h612l-44 -163h-32q-8 77 -29 101t-81 24h-80z" />
    <glyph glyph-name="U" unicode="U" horiz-adv-x="771" 
d="M740 513l-72 -304q-27 -115 -102.5 -167.5t-178.5 -52.5q-130 0 -206 76q-73 73 -43 188l77 291q13 50 -9.5 77t-65.5 27l9 34h291l-9 -34q-50 -3 -76.5 -27.5t-40.5 -77.5l-84 -313q-21 -78 24.5 -131t148.5 -53t152.5 44.5t76.5 153.5l59 242q8 41 8 77t-24.5 60.5
t-72.5 24.5l11 34h252l-11 -34q-49 -8 -74.5 -42.5t-39.5 -92.5z" />
    <glyph glyph-name="V" unicode="V" horiz-adv-x="719" 
d="M149 682h273l-9 -34q-52 0 -74 -31t-24 -97l-5 -404l2 -2l300 363q57 68 57 107q0 25 -20.5 44.5t-57.5 19.5l9 34h252l-9 -34q-30 -6 -55.5 -27.5t-68.5 -73.5l-390 -469q-64 -76 -68 -88h-58q13 40 17 238v311q1 59 -13 83t-67 26z" />
    <glyph glyph-name="W" unicode="W" horiz-adv-x="979" 
d="M593 367l27 -259l314 410q31 39 26 76.5t-48 53.5l10 34h201l-9 -34q-38 -13 -101 -95l-311 -402q-98 -126 -114 -161h-61q10 30 2 119l-16 166l-178 -202q-13 -15 -36 -45.5t-25 -37.5h-54q6 50 2 118l-23 446q-4 75 -56 94l10 34h215l-9 -34q-43 -7 -57 -41.5
t-11 -95.5l23 -403l195 217l-30 253q-4 34 -18 51t-44 19l10 34h210l-10 -34q-37 -7 -49.5 -29t-7.5 -65l18 -139l100 118q38 48 36 73t-39 42l10 34h179l-9 -34q-17 -5 -31.5 -15.5t-22.5 -19t-22 -25.5t-21 -25z" />
    <glyph glyph-name="X" unicode="X" horiz-adv-x="781" 
d="M392 554l83 -152l167 142q15 13 21.5 35.5t-6 44t-48.5 24.5l9 34h253l-9 -34q-64 -26 -108 -63l-263 -219l130 -249q26 -50 46 -65.5t68 -17.5l-10 -34h-296l10 34q58 3 72 29t-15 84l-82 155l-157 -131q-52 -43 -52 -81q0 -51 69 -56l-10 -34h-279l10 34q56 16 120 69
l281 234l-133 254q-17 34 -32 43.5t-59 13.5l9 34h294l-9 -34q-40 0 -62 -15t-22 -36t10 -43z" />
    <glyph glyph-name="Y" unicode="Y" horiz-adv-x="719" 
d="M431 255l-23 -89q-10 -37 -10 -58q0 -35 20.5 -54.5t57.5 -19.5h7l-9 -34h-300l9 34q53 4 80.5 32.5t41.5 80.5l29 108l-133 321q-16 39 -36 55.5t-50 16.5h-7l9 34h281l-9 -34h-5q-47 0 -65.5 -30.5t-0.5 -74.5l100 -247l179 210q42 48 42 83q0 53 -65 59l9 34h242
l-9 -34q-33 -1 -121 -99z" />
    <glyph glyph-name="Z" unicode="Z" horiz-adv-x="625" 
d="M596 175l-76 -175h-528v27l560 617h-182q-53 0 -91.5 -25t-93.5 -87h-37l50 150h494v-24l-566 -620h187q79 0 123.5 26t117.5 111h42z" />
    <glyph glyph-name="bracketleft" unicode="[" horiz-adv-x="375" 
d="M23 -188l266 870h215l-10 -34h-40q-52 0 -78 -22t-43 -79l-183 -597q-18 -53 -3.5 -78.5t66.5 -25.5h36l-11 -34h-215z" />
    <glyph glyph-name="backslash" unicode="\" horiz-adv-x="278" 
d="M45 693h44l234 -704h-44z" />
    <glyph glyph-name="bracketright" unicode="]" horiz-adv-x="375" 
d="M376 682l-266 -870h-215l10 34h40q52 0 78 22t43 79l183 597q18 53 3.5 78.5t-66.5 25.5h-36l11 34h215z" />
    <glyph glyph-name="asciicircum" unicode="^" horiz-adv-x="422" 
d="M274 682l205 -350h-62l-162 278l-163 -278h-62l207 350h37z" />
    <glyph glyph-name="underscore" unicode="_" horiz-adv-x="500" 
d="M506 -125h-512v50h512v-50z" />
    <glyph glyph-name="grave" unicode="`" 
d="M265 682l54 -165h-16l-146 165h108z" />
    <glyph glyph-name="a" unicode="a" horiz-adv-x="521" 
d="M453 438h44l-103 -334q-7 -19 -3 -35t18 -16t29.5 16.5t43.5 61.5h30q-30 -63 -68.5 -102t-73.5 -39q-25 0 -39.5 18.5t-14.5 50.5q0 31 10 70l-2 2q-69 -141 -169 -141q-51 0 -81 32.5t-30 87.5q0 119 136 255q79 79 151 79q57 0 103 -46zM121 139q0 -37 20 -59t55 -22
q41 0 86 55.5t72.5 121.5t27.5 103q0 31 -15.5 50t-44.5 19q-44 0 -92 -45.5t-78.5 -109t-30.5 -113.5z" />
    <glyph glyph-name="b" unicode="b" horiz-adv-x="469" 
d="M70 206l120 389q12 32 1 42.5t-65 10.5l10 34q102 0 147 11h11l-112 -363l2 -2q37 62 72 89t76 27q53 0 85.5 -38t32.5 -100q0 -117 -119 -236q-80 -80 -155 -80q-55 0 -90.5 31t-35.5 84q0 35 20 101zM376 280q0 43 -20.5 68t-55.5 25q-41 0 -75.5 -37t-53 -86.5
t-28.5 -87.5t-10 -50q0 -71 74 -71q40 0 80.5 41.5t64.5 97.5t24 100z" />
    <glyph glyph-name="c" unicode="c" horiz-adv-x="385" 
d="M330 139h36q-46 -78 -96 -113.5t-111 -35.5q-56 0 -90 34.5t-34 92.5q0 63 37 139t100.5 132t127.5 56q35 0 57 -19.5t22 -50.5q0 -22 -13 -37t-32 -15q-15 0 -25 10.5t-10 26.5q0 1 1 9t0.5 13t-2.5 12t-8.5 10.5t-16.5 3.5q-40 0 -78.5 -49t-59.5 -110t-21 -105
q0 -41 22.5 -64.5t61.5 -23.5q75 0 132 84z" />
    <glyph glyph-name="d" unicode="d" horiz-adv-x="500" 
d="M466 124h32q-24 -59 -62 -96.5t-72 -37.5q-42 0 -55.5 31t9.5 101l-2 2q-30 -62 -77.5 -98t-101.5 -36q-44 0 -73.5 33.5t-29.5 85.5q0 64 39 141.5t107.5 135.5t139.5 58q45 0 82 -20l49 181q7 27 -5.5 35t-73.5 8l11 34q119 0 156 11h12l-169 -610q-4 -14 0 -24t14 -10
q15 0 31 17.5t39 57.5zM114 141q0 -86 79 -86q39 0 81.5 52.5t68.5 116t26 103.5q0 39 -18.5 59t-49.5 20q-49 0 -94 -48.5t-69 -109t-24 -107.5z" />
    <glyph glyph-name="e" unicode="e" horiz-adv-x="385" 
d="M323 139h39q-36 -70 -89.5 -109.5t-112.5 -39.5q-57 0 -90.5 34t-33.5 93q0 71 43.5 149t105.5 128t115 50q35 0 56.5 -21t21.5 -56q0 -58 -62.5 -111t-202.5 -79q-8 -60 13 -89.5t63 -29.5q39 0 76.5 22.5t57.5 58.5zM315 346q0 21 -14 35.5t-34 14.5q-44 0 -82 -47.5
t-66 -136.5q96 15 146 53.5t50 80.5z" />
    <glyph glyph-name="f" unicode="f" horiz-adv-x="281" 
d="M233 387l-73 -294q-70 -284 -216 -284q-28 0 -50.5 14.5t-22.5 40.5q0 17 11 28t28 11q22 0 39 -26t33 -26q40 0 71 124l101 412h-105l12 38h106q29 127 81.5 197.5t123.5 70.5q26 0 45.5 -16t19.5 -38q0 -17 -11.5 -29t-28.5 -12q-21 0 -35 25t-30 25q-19 0 -32.5 -24
t-26.5 -79l-28 -120h87l-12 -38h-87z" />
    <glyph glyph-name="g" unicode="g" horiz-adv-x="448" 
d="M95 256q0 25 11.5 55.5t33 61t61 51t88.5 20.5q35 0 67 -14q35 9 51 11q21 3 32 3q50 0 50 -42q0 -23 -4 -31t-16 -8q-17 0 -33.5 21.5t-42.5 16.5q29 -32 29 -79q0 -69 -56.5 -122t-129.5 -53q-4 0 -17.5 1t-24.5 1q-68 -26 -68 -49q0 -15 24 -25t58.5 -17.5t69 -19
t58.5 -37.5t24 -65q0 -54 -50 -90.5t-162 -36.5q-92 0 -133 31t-41 68q0 30 26.5 56.5t85.5 55.5q-27 20 -27 48q0 59 96 95q-60 34 -60 93zM273 407q-45 0 -74 -47.5t-29 -100.5q0 -34 17.5 -54.5t46.5 -20.5q46 0 78.5 42.5t32.5 103.5q0 34 -20 55.5t-52 21.5zM123 0
q-50 -23 -70.5 -43t-20.5 -47q0 -32 34 -49.5t96 -17.5q134 0 134 67q0 25 -19.5 41.5t-42.5 22.5t-59.5 13.5t-51.5 12.5z" />
    <glyph glyph-name="h" unicode="h" horiz-adv-x="521" 
d="M472 319l-84 -234q-4 -13 -1.5 -21.5t10.5 -8.5q32 0 75 73h34q-23 -55 -71 -96.5t-89 -41.5q-29 0 -39.5 24.5t2.5 63.5l92 265q8 21 3.5 38t-19.5 17q-28 0 -76 -48q-61 -61 -123.5 -164t-81.5 -186h-75l184 601q10 31 -5 39t-78 8l11 34q121 0 164 11h10l-149 -484
l2 -2q73 126 131 181.5t117 55.5q30 0 49.5 -18.5t19.5 -47.5q0 -22 -13 -59z" />
    <glyph glyph-name="i" unicode="i" horiz-adv-x="271" 
d="M222 321l-82 -237q-5 -14 -2 -24t11 -10q32 0 83 81h33q-33 -65 -76 -103t-81 -38q-33 0 -45 31.5t3 72.5l80 234q19 57 -6 57q-38 0 -78 -79h-31q69 138 153 138q24 0 38 -14.5t14 -39.5t-14 -69zM209 642q0 21 15 36t36 15t36 -15t15 -36t-15 -36t-36 -15t-36 15
t-15 36z" />
    <glyph glyph-name="j" unicode="j" horiz-adv-x="240" 
d="M63 309h-32q27 59 67.5 97t76.5 38q75 0 43 -118l-78 -281q-16 -56 -31 -94t-38 -73t-55.5 -52t-75.5 -17q-32 0 -52.5 14.5t-20.5 37.5q0 16 12 27t30 11q17 0 26.5 -8.5t12.5 -18t10.5 -18t20.5 -8.5q17 0 30 22.5t28 76.5l111 397q5 16 2 28.5t-14 12.5
q-14 0 -34.5 -21t-38.5 -53zM192 642q0 21 15 36t36 15t36 -15t15 -36t-15 -36t-36 -15t-36 15t-15 36z" />
    <glyph glyph-name="k" unicode="k" horiz-adv-x="521" 
d="M164 190l-58 -190h-74l183 600q10 31 -4.5 39.5t-74.5 8.5l10 34q114 0 160 11h12l-110 -356l2 -2q97 109 185 109q42 0 68.5 -25t26.5 -64q0 -103 -179 -149l38 -86q17 -38 27 -51.5t21 -13.5q32 0 71 76h33q-29 -62 -65.5 -101.5t-65.5 -39.5q-22 0 -38 17t-35 61
l-57 128zM415 341q0 19 -16 32.5t-39 13.5q-53 0 -107.5 -45t-79.5 -123q109 4 175.5 38t66.5 84z" />
    <glyph glyph-name="l" unicode="l" horiz-adv-x="240" 
d="M37 101l152 499q5 16 5.5 23t-6 14t-24.5 9t-52 2l11 34q114 0 158 11h11l-184 -602q-6 -19 -2.5 -30t13.5 -11q16 0 40 24t44 53h34q-35 -59 -78 -98t-82 -39q-73 0 -40 111z" />
    <glyph glyph-name="m" unicode="m" horiz-adv-x="771" 
d="M42 0l106 344q5 11 4 26t-12 15q-26 0 -74 -69h-29q23 46 63 87t79 41q35 0 46.5 -30t-3.5 -70l-57 -167l2 -2q73 125 113 172q15 18 30 33q31 31 57 47.5t59 16.5q76 0 45 -101l-50 -162l2 -2q27 47 47.5 80t57 82t75 76t74.5 27q39 0 51.5 -32t-3.5 -75l-76 -216
q-6 -18 -9.5 -29.5t-4.5 -22.5t2.5 -16t11.5 -5q14 0 36 24t34 44h29q-25 -47 -62.5 -86.5t-74.5 -39.5q-25 0 -40 15t-15 41q0 34 22 93l76 205q7 17 3 32.5t-21 15.5q-38 0 -99.5 -80.5t-108 -170.5t-62.5 -141h-74l103 337q12 40 7 48q-4 7 -17 7q-32 0 -92 -73.5
t-111 -166.5t-66 -152h-74z" />
    <glyph glyph-name="n" unicode="n" horiz-adv-x="531" 
d="M481 313l-81 -228q-6 -19 -2.5 -28t13.5 -9q26 0 77 74h30q-38 -67 -73.5 -99.5t-76.5 -32.5q-26 0 -40.5 13t-14.5 35q0 24 16 70l85 248q7 19 0.5 32.5t-21.5 13.5q-29 0 -88.5 -68.5t-114 -165.5t-67.5 -168h-75l102 335q13 45 -15 45q-23 0 -69 -63h-35
q82 127 154 127q77 0 31 -133l-40 -114l2 -2q76 128 134 188.5t118 60.5q52 0 63 -40t-12 -91z" />
    <glyph glyph-name="o" unicode="o" horiz-adv-x="448" 
d="M35 132q0 112 86.5 212t186.5 100q58 0 90.5 -39.5t32.5 -107.5q0 -70 -37 -141.5t-99 -119t-127 -47.5q-60 0 -96.5 37t-36.5 106zM119 134q0 -107 75 -107q49 0 87 53t54 112t16 100q0 51 -21.5 82.5t-52.5 31.5q-47 0 -84.5 -48t-55.5 -109t-18 -115z" />
    <glyph glyph-name="p" unicode="p" horiz-adv-x="490" 
d="M131 -10l-14 -43q-21 -56 -9.5 -82t66.5 -26h9l-9 -30h-244l10 30q28 2 44.5 8.5t29 25t18.5 36t18 58.5l112 396q-52 -22 -103 -88h-39q76 104 156 136l34 109h74l-25 -82q92 19 157 -21t65 -125q0 -35 -11 -72.5t-37.5 -78t-65 -72.5t-100 -54t-136.5 -25zM241 381
l-100 -357q108 3 183.5 73t75.5 167q0 63 -43.5 96t-115.5 21z" />
    <glyph glyph-name="q" unicode="q" horiz-adv-x="448" 
d="M230 -66l48 157l-2 2q-59 -104 -137 -104q-47 0 -77.5 33.5t-30.5 91.5q0 69 40.5 146.5t105.5 130.5t128 53q53 0 89 -36l14 23q8 15 25 8.5t13 -22.5l-140 -487q-16 -50 -2.5 -70.5t68.5 -20.5l-9 -30h-258l9 30q59 0 79.5 20t36.5 75zM344 349q0 59 -61 59
q-55 0 -113.5 -93t-58.5 -170q0 -85 71 -85q43 0 82.5 64t59.5 130t20 95z" />
    <glyph glyph-name="r" unicode="r" horiz-adv-x="344" 
d="M67 315h-28q22 60 51.5 94.5t59.5 34.5q28 0 44 -26.5t6 -71.5l-26 -110l2 -2q51 108 91 159t80 51q43 0 43 -64q0 -29 -11.5 -48t-29.5 -19q-16 0 -23 10t-6 21.5t-0.5 21.5t-8.5 10q-15 0 -49.5 -46t-74.5 -138t-56 -192h-76l78 336q5 20 -0.5 36.5t-15.5 16.5t-24 -21
t-26 -53z" />
    <glyph glyph-name="s" unicode="s" 
d="M149 359q0 -18 19.5 -47t42.5 -56.5t42.5 -65.5t19.5 -71q0 -56 -42 -92.5t-107 -36.5q-46 0 -77 20.5t-31 51.5q0 18 10.5 30.5t26.5 12.5q17 0 28.5 -12t17 -27t18 -27t32.5 -12q25 0 45 16.5t20 36.5q0 22 -19 53t-41 57.5t-41 61.5t-19 65q0 61 38 94t97 33
q43 0 68.5 -17.5t25.5 -46.5q0 -19 -10 -30t-26 -11q-15 0 -25 10.5t-15.5 23.5t-18.5 23.5t-32 10.5q-21 0 -34 -13.5t-13 -34.5z" />
    <glyph glyph-name="t" unicode="t" horiz-adv-x="292" 
d="M224 385l-89 -293q-15 -49 20 -49q39 0 99 74h38q-91 -128 -185 -128q-36 0 -47.5 27.5t3.5 79.5l87 289h-84l13 40q93 12 138 78h43l-23 -78h91l-13 -40h-91z" />
    <glyph glyph-name="u" unicode="u" horiz-adv-x="531" 
d="M68 313h-34q35 57 78 94t74 37q28 0 42.5 -20.5t2.5 -62.5l-80 -264q-18 -58 12 -58q54 0 140 126t138 273h74l-106 -345q-5 -20 -1 -30.5t14 -10.5q13 0 32.5 20t36.5 49h33q-77 -131 -145 -131q-74 0 -40 112l40 130l-2 2q-65 -122 -129.5 -183t-120.5 -61
q-41 0 -55.5 31t4.5 93l78 231q14 41 -9 41q-28 0 -77 -73z" />
    <glyph glyph-name="v" unicode="v" horiz-adv-x="521" 
d="M323 441l-109 -240q-21 -45 -21 -79q0 -37 23.5 -57t51.5 -20q42 0 80 30.5t61 72.5t36.5 80t13.5 58q0 29 -22.5 59.5t-22.5 51.5q0 20 12.5 33.5t30.5 13.5q24 0 38 -23.5t14 -62.5q0 -79 -35 -163.5t-101 -144.5t-141 -60q-50 0 -85.5 34t-35.5 83q0 37 19.5 68.5
t58 83.5t66.5 110q-28 -3 -53 -1.5t-53 5t-30 3.5q-14 0 -25 -9.5t-11 -22.5q0 -9 10 -14.5t20 -14t10 -23.5q0 -18 -11.5 -30t-28.5 -12q-41 0 -41 53q0 56 38.5 96.5t106.5 40.5q27 0 59.5 -1.5t48 -1t28.5 3.5z" />
    <glyph glyph-name="w" unicode="w" horiz-adv-x="688" 
d="M674 337q0 -56 -26.5 -135.5t-77.5 -145.5t-107 -66q-48 0 -71 39.5t-17 114.5l-2 2q-57 -89 -99.5 -122.5t-96.5 -33.5q-45 0 -72 24t-27 72q0 40 24.5 79t69 95t71.5 105q-11 -2 -26 -0.5t-40.5 3.5t-37.5 2q-59 0 -59 -31q0 -7 19.5 -24.5t19.5 -35.5q0 -13 -12.5 -24
t-27.5 -11q-16 0 -27 13t-11 33q0 50 31.5 97.5t89.5 47.5q21 0 53.5 -0.5t44.5 0t29.5 1.5t34.5 4q-17 -30 -46.5 -78.5t-47.5 -79.5t-37.5 -67.5t-29 -63t-9.5 -45.5q0 -25 16.5 -43.5t38.5 -18.5q76 0 174 164q11 236 77 236q15 0 25 -11t10 -27q0 -58 -88 -207
q1 -66 23.5 -101t60.5 -35t70.5 45t47.5 94t15 77q0 26 -21.5 61t-21.5 60q0 20 9.5 32t25.5 12q26 0 42 -29.5t16 -77.5z" />
    <glyph glyph-name="x" unicode="x" horiz-adv-x="490" 
d="M289 239l59 -155q12 -30 27 -30q14 0 27 16.5t34 58.5h31q-26 -62 -62.5 -100.5t-69.5 -38.5t-53 55l-45 126q-73 -107 -107.5 -144t-72.5 -37q-45 0 -45 48q0 58 30 58q14 0 21.5 -10.5t12.5 -21t13 -10.5q32 0 138 152l-58 157q-8 24 -24 24q-26 0 -53 -68h-32
q21 55 54.5 90t65.5 35q34 0 49 -41l48 -130q54 91 90.5 131t70.5 40q24 0 37.5 -17t13.5 -43q0 -20 -9.5 -32.5t-24.5 -12.5q-17 0 -28.5 20.5t-17.5 20.5q-21 0 -67 -66z" />
    <glyph glyph-name="y" unicode="y" horiz-adv-x="479" 
d="M227 -26l-80 349q-13 57 -29 57t-33 -23.5t-28 -62.5h-31q16 65 53.5 107.5t76.5 42.5q21 0 34 -15.5t21 -52.5l76 -336q124 158 124 265q0 27 -14 56.5t-14 39.5q0 19 12 31t29 12q24 0 38.5 -21t14.5 -55q0 -81 -69.5 -204t-166.5 -220q-135 -135 -263 -135
q-33 0 -53 13.5t-20 35.5q0 18 11.5 29t30.5 11q20 0 45 -19.5t46 -19.5q31 0 83 32t106 83z" />
    <glyph glyph-name="z" unicode="z" horiz-adv-x="490" 
d="M100 324q0 50 41.5 85t99.5 35q41 0 94.5 -26.5t77.5 -26.5q14 0 23 6t9 15l-1 5q0 5 0.5 9t1.5 8.5t6 7t12 2.5q23 0 23 -22q0 -38 -60 -98q-41 -41 -157 -108t-167 -122l2 -2q78 17 147 -16q11 -5 30 -16.5t31.5 -16.5t24.5 -5q14 0 23.5 9t9.5 22q0 11 -14.5 24.5
t-14.5 28.5q0 16 12.5 27.5t27.5 11.5q19 0 31 -15t12 -39q0 -49 -41 -83.5t-98 -34.5q-43 0 -111 33q-66 32 -83 32q-9 0 -15 -3t-8.5 -7t-4 -10t-1.5 -10t1 -9v-5q0 -7 -7.5 -14t-16.5 -7q-22 0 -22 26q0 37 72 109q44 44 165.5 119t149.5 102l-2 2q-32 -14 -65 -8.5
t-54.5 17.5t-48.5 24.5t-47 12.5q-17 0 -28.5 -6t-11.5 -16q0 -6 17 -19.5t17 -32.5q0 -16 -11.5 -26.5t-29.5 -10.5t-29.5 11t-11.5 31z" />
    <glyph glyph-name="braceleft" unicode="{" horiz-adv-x="400" 
d="M103 243v22q49 7 80.5 36t31.5 68q0 20 -12 70q-11 46 -11 80q0 71 51.5 124.5t131.5 63.5v-13q-111 -27 -111 -116q0 -24 11 -74q12 -54 12 -80q0 -53 -39 -99t-105 -71q66 -25 105 -71t39 -99q0 -26 -12 -80q-11 -50 -11 -74q0 -89 111 -116v-13q-80 10 -131.5 63.5
t-51.5 124.5q0 35 11 81q12 50 12 69q0 39 -31.5 68t-80.5 36z" />
    <glyph glyph-name="bar" unicode="|" horiz-adv-x="527" 
d="M284 750h44v-1000h-44v1000z" />
    <glyph glyph-name="braceright" unicode="}" horiz-adv-x="400" 
d="M377 265v-22q-49 -7 -80.5 -36t-31.5 -68q0 -23 11 -69q12 -50 12 -81q0 -71 -51.5 -124.5t-131.5 -63.5v13q111 27 111 116q0 20 -12 74q-11 49 -11 80q0 53 39 99t105 71q-66 25 -105 71t-39 99q0 30 11 80q12 54 12 74q0 89 -111 116v13q80 -10 131.5 -63.5
t51.5 -124.5q0 -30 -12 -80q-11 -46 -11 -70q0 -39 31.5 -68t80.5 -36z" />
    <glyph glyph-name="asciitilde" unicode="~" horiz-adv-x="429" 
d="M495 405h28q-2 -73 -37.5 -115.5t-93.5 -42.5q-29 0 -60.5 10t-123.5 48q-71 30 -102 30q-72 0 -86 -87h-29q4 68 27 103q36 55 100 55q34 0 90 -20q63 -24 97 -39q68 -31 104 -31q37 0 59 23.5t27 65.5z" />
    <glyph glyph-name="uni00A0" unicode="&#xa0;" horiz-adv-x="278" 
 />
    <glyph glyph-name="exclamdown" unicode="&#xa1;" horiz-adv-x="311" 
d="M231 385q-26 0 -45 18.5t-19 44.5t19 45t45 19t44.5 -19t18.5 -45t-18.5 -44.5t-44.5 -18.5zM166 305h36l-101 -454q-5 -25 -16 -33.5t-39 -8.5q-42 0 -53.5 11.5t0.5 37.5z" />
    <glyph glyph-name="cent" unicode="&#xa2;" horiz-adv-x="385" 
d="M411 600l-70 -163q39 -23 39 -61q0 -22 -12.5 -37t-31.5 -15q-24 0 -33 23l-125 -291q88 -10 152 83l36 -4q-44 -78 -102 -114.5t-114 -29.5l-53 -130h-33l58 134q-87 25 -87 118q0 74 43.5 155t110 132.5t126.5 43.5l69 156h27zM152 65l142 333q-35 20 -78 -20.5
t-71.5 -108.5t-28.5 -123q0 -57 36 -81z" />
    <glyph glyph-name="sterling" unicode="&#xa3;" horiz-adv-x="646" 
d="M331 114h-129q-46 -78 -98 -140l2 -2q35 13 73 13q30 0 55 -11.5t41.5 -27.5t31 -32t32 -27.5t36.5 -11.5q22 0 41.5 13t19.5 43q0 11 -3 28t-3 27q0 20 15 37t35 17q16 0 27 -11.5t11 -28.5q0 -60 -64.5 -125.5t-145.5 -65.5q-29 0 -52.5 15t-40.5 34.5t-35.5 38t-47 27
t-64.5 0.5q-91 -115 -130 -115q-14 0 -23 9t-9 23q0 56 116 111l91 162h-122l19 44h127q100 188 153 275t114 148q63 63 116.5 87.5t115.5 24.5q45 0 74.5 -14.5t29.5 -39.5q0 -18 -16 -40t-35 -22q-18 0 -33 17t-33.5 34t-45.5 17q-46 0 -88 -42q-39 -39 -70 -91.5
t-84.5 -157t-107.5 -196.5h128z" />
    <glyph glyph-name="currency" unicode="&#xa4;" horiz-adv-x="667" 
d="M465 507l62 63l51 -52l-62 -63q42 -62 42 -130q0 -67 -42 -129l62 -62l-51 -52l-62 62q-63 -42 -129 -42q-67 0 -131 42l-63 -62l-52 52l63 62q-42 62 -42 130q0 67 42 130l-63 62l52 52l63 -63q64 42 129 42q67 0 131 -42zM184 326q0 -62 44.5 -106.5t106.5 -44.5
t106 44.5t44 106.5t-44.5 106t-105.5 44q-62 0 -106.5 -44t-44.5 -106z" />
    <glyph glyph-name="yen" unicode="&#xa5;" horiz-adv-x="648" 
d="M386 217l-13 -51q-10 -42 -10 -58q0 -35 20.5 -54.5t57.5 -19.5h7l-9 -34h-300l9 34h7q14 0 37 9.5t35 19.5q17 14 25.5 33.5t25.5 69.5l14 51h-237l10 38h237l-77 187h-143l10 38h117l-40 96q-30 72 -89 72h-7l9 34h281l-9 -34h-5q-72 0 -75 -66q2 -22 14 -51l21 -51
h231l22 26q42 48 42 83q0 53 -65 59l9 34h242l-9 -34q-29 -4 -77 -52q-84 -90 -106 -116h138l-9 -38h-163l-168 -187h278l-9 -38h-279zM507 442h-183l59 -146z" />
    <glyph glyph-name="brokenbar" unicode="&#xa6;" horiz-adv-x="527" 
d="M284 675h44v-350h-44v350zM284 175h44v-350h-44v350z" />
    <glyph glyph-name="section" unicode="&#xa7;" horiz-adv-x="458" 
d="M276 532q0 -37 22 -99t44 -134.5t22 -135.5q0 -156 -92 -255t-205 -99q-56 0 -96.5 22.5t-41.5 53.5q3 45 54 45q30 0 64 -37.5t66 -37.5q27 0 56 29t29 87q0 10 -1 20t-3.5 22t-4.5 20t-7 23l-7 21t-8.5 24t-8.5 23q-40 112 -40 197q0 82 36.5 167t106.5 145t153 60
q53 0 90.5 -20.5t37.5 -50.5q0 -23 -13.5 -35.5t-34.5 -12.5q-28 0 -63.5 37t-65.5 37q-37 0 -63 -34t-26 -82zM231 538h-2q-58 -105 -58 -215q0 -73 44 -203q3 -9 4 -13q13 -40 19 -66.5t6 -59.5t-10 -59l2 -2q35 41 56 108t21 127q0 80 -40.5 194t-41.5 189z" />
    <glyph glyph-name="dieresis" unicode="&#xa8;" 
d="M355 620q22 0 37.5 -15t15.5 -37t-15.5 -37.5t-37.5 -15.5t-37 15.5t-15 37.5t15 37t37 15zM182 620q22 0 37.5 -15t15.5 -37t-15.5 -37.5t-37.5 -15.5t-37 15.5t-15 37.5t15 37t37 15z" />
    <glyph glyph-name="copyright" unicode="&#xa9;" horiz-adv-x="760" 
d="M551 559l10 -137h-19q-35 115 -148 115q-73 0 -115 -51t-42 -139q0 -98 42.5 -149t121.5 -51q93 0 150 78l19 -9q-68 -100 -188 -100q-96 0 -161 62.5t-65 154.5q0 97 70 161.5t174 64.5q34 0 69 -11t40 -11q14 0 23 22h19zM380 682q143 0 244.5 -101.5t101.5 -244.5
t-101.5 -244.5t-244.5 -101.5t-244.5 101.5t-101.5 244.5t101.5 244.5t244.5 101.5zM380 652q-131 0 -223.5 -92.5t-92.5 -223.5t92.5 -223.5t223.5 -92.5t223.5 92.5t92.5 223.5t-92.5 223.5t-223.5 92.5z" />
    <glyph glyph-name="ordfeminine" unicode="&#xaa;" horiz-adv-x="344" 
d="M357 663h30l-68 -200q-4 -11 -1.5 -21t11.5 -10q15 0 47 46h19q-20 -38 -45 -61t-47 -23q-35 0 -35 41q0 20 7 41l-2 2q-19 -39 -48.5 -61.5t-61.5 -22.5q-29 0 -50.5 18t-21.5 54q0 59 63 130t126 71q36 0 65 -28zM273 642q-50 0 -91 -58.5t-41 -100.5q0 -21 13 -34.5
t34 -13.5q43 0 82.5 66.5t39.5 103.5t-37 37z" />
    <glyph glyph-name="guillemotleft" unicode="&#xab;" horiz-adv-x="396" 
d="M164 256l70 -204h-27l-120 204l183 200h28zM308 78l-88 178l156 173h29l-116 -173l46 -178h-27z" />
    <glyph glyph-name="logicalnot" unicode="&#xac;" horiz-adv-x="667" 
d="M109 480h535v-308h-77v231h-458v77z" />
    <glyph glyph-name="uni00AD" unicode="&#xad;" horiz-adv-x="365" 
d="M34 199l23 76h307l-23 -76h-307z" />
    <glyph glyph-name="registered" unicode="&#xae;" horiz-adv-x="760" 
d="M189 549h188q66 0 106 -30t40 -80q0 -80 -109 -108l102 -145q17 -25 29 -33.5t30 -9.5v-17h-90l-144 198h-36v-145q0 -21 13 -29t44 -7v-17h-179v17q28 -1 39.5 9.5t11.5 34.5v299q0 23 -9.5 34t-35.5 12v17zM305 345h16q57 0 90 23t33 66q0 40 -28 66.5t-71 26.5
q-20 0 -40 -7v-175zM380 682q143 0 244.5 -101.5t101.5 -244.5t-101.5 -244.5t-244.5 -101.5t-244.5 101.5t-101.5 244.5t101.5 244.5t244.5 101.5zM380 652q-131 0 -223.5 -92.5t-92.5 -223.5t92.5 -223.5t223.5 -92.5t223.5 92.5t92.5 223.5t-92.5 223.5t-223.5 92.5z" />
    <glyph glyph-name="macron" unicode="&#xaf;" 
d="M138 620h293l-19 -63h-293z" />
    <glyph glyph-name="degree" unicode="&#xb0;" horiz-adv-x="399" 
d="M124 532q0 62 44 106t106 44t106 -44t44 -106t-44 -106t-106 -44t-106 44t-44 106zM172 532q0 -42 30 -72t72 -30t72 30t30 72t-30 72t-72 30t-72 -30t-30 -72z" />
    <glyph glyph-name="plusminus" unicode="&#xb1;" horiz-adv-x="667" 
d="M109 468h229v225h77v-225h229v-77h-229v-225h-77v225h-229v77zM109 77h535v-77h-535v77z" />
    <glyph glyph-name="two.superior" unicode="&#xb2;" horiz-adv-x="323" 
d="M336 413l-25 -93h-232v14q28 32 88.5 84.5t98.5 92.5t38 69q0 22 -17 35.5t-45 13.5q-37 0 -90 -40l-21 18q55 60 135 60q49 0 77 -22t28 -55q0 -19 -7 -34t-26.5 -34.5t-40 -36t-63 -50.5t-79.5 -66h86q31 0 43.5 9t16.5 35h35z" />
    <glyph glyph-name="three.superior" unicode="&#xb3;" horiz-adv-x="323" 
d="M162 488l7 24q65 0 105 20t40 57q0 19 -13 29.5t-34 10.5q-34 0 -76 -33l-26 17q47 54 116 54q43 0 69.5 -20t26.5 -52t-22.5 -53t-76.5 -40q24 -12 40.5 -33.5t16.5 -44.5q0 -50 -45.5 -80t-121.5 -30q-86 0 -86 26q0 9 9.5 17.5t20.5 8.5q10 0 35.5 -13t48.5 -13
q31 0 51 20.5t20 51.5q0 76 -105 76z" />
    <glyph glyph-name="acute" unicode="&#xb4;" 
d="M252 682h108l-146 -165h-16z" />
    <glyph glyph-name="mu" unicode="&#xb5;" horiz-adv-x="500" 
d="M140 430h74l-83 -288q-15 -51 -4.5 -79.5t44.5 -28.5q44 0 89.5 51t72.5 140l62 205h71l-93 -323q-9 -29 -2.5 -50t26.5 -21q35 0 65 69h19q-14 -55 -49.5 -85.5t-73.5 -30.5q-35 0 -54 27t-10 81l-2 2q-34 -54 -77 -82t-77 -28q-29 0 -47.5 12t-31.5 40
q-17 -45 -23 -115t-16.5 -105.5t-43.5 -35.5q-16 0 -26.5 11t-10.5 28q0 16 12.5 39.5t36 75t43.5 117.5z" />
    <glyph glyph-name="paragraph" unicode="&#xb6;" horiz-adv-x="453" 
d="M437 655v-846h-36v846h-91v-846h-36v505q-233 0 -233 186q0 87 57.5 134.5t161.5 47.5h241v-27h-64z" />
    <glyph glyph-name="periodcentered" unicode="&#xb7;" horiz-adv-x="313" 
d="M203 399q26 0 44 -18t18 -43q0 -26 -18.5 -44t-43.5 -18t-43 18t-18 44t18 43.5t43 17.5z" />
    <glyph glyph-name="cedilla" unicode="&#xb8;" 
d="M144 16l-29 -41q80 -14 80 -79q0 -43 -47.5 -70t-107.5 -27q-32 0 -88 12l6 18q35 -7 56 -7q40 0 64.5 16t24.5 42q0 41 -68 42l71 94h38z" />
    <glyph glyph-name="one.superior" unicode="&#xb9;" horiz-adv-x="323" 
d="M332 667l-83 -270q-10 -33 -7.5 -43t22.5 -10h22l-11 -24h-161l6 24h7q27 0 37.5 9.5t20.5 43.5l55 176q6 17 1.5 21.5t-25.5 4.5h-27l6 25q30 1 50.5 10t51.5 33h35z" />
    <glyph glyph-name="ordmasculine" unicode="&#xba;" horiz-adv-x="292" 
d="M103 478q0 63 55.5 126t121.5 63q79 0 79 -88q0 -70 -53 -127.5t-116 -57.5q-40 0 -63.5 23.5t-23.5 60.5zM260 642q-46 0 -74.5 -54.5t-28.5 -107.5q0 -62 49 -62q44 0 73 56t29 108q0 26 -14 43t-34 17z" />
    <glyph glyph-name="guillemotright" unicode="&#xbb;" horiz-adv-x="396" 
d="M282 252l-70 204h27l120 -204l-183 -200h-28zM138 430l88 -178l-156 -173h-29l116 173l-46 178h27z" />
    <glyph glyph-name="onequarter" unicode="&#xbc;" horiz-adv-x="875" 
d="M716 134h61l-10 -38h-62l-33 -102h-63l34 102h-154l9 38l234 212h50zM653 134l43 140l-2 2l-153 -142h112zM726 693h56l-617 -704h-56zM316 667l-83 -270q-10 -33 -7.5 -43t22.5 -10h22l-11 -24h-161l6 24h7q27 0 37.5 9.5t20.5 43.5l55 176q6 17 1.5 21.5t-25.5 4.5h-27
l6 25q30 1 50.5 10t51.5 33h35z" />
    <glyph glyph-name="onehalf" unicode="&#xbd;" horiz-adv-x="875" 
d="M762 93l-25 -93h-235l3 14q14 18 73 69t105.5 99.5t46.5 77.5q0 22 -17 35.5t-45 13.5q-37 0 -90 -40l-21 18q55 60 135 60q49 0 77 -22t28 -55q0 -19 -7 -34t-26.5 -34.5t-40 -36t-63 -50.5t-79.5 -66h86q31 0 42.5 8.5t20.5 35.5h32zM726 693h56l-617 -704h-56z
M316 667l-83 -270q-10 -33 -7.5 -43t22.5 -10h22l-11 -24h-161l6 24h7q27 0 37.5 9.5t20.5 43.5l55 176q6 17 1.5 21.5t-25.5 4.5h-27l6 25q30 1 50.5 10t51.5 33h35z" />
    <glyph glyph-name="threequarters" unicode="&#xbe;" horiz-adv-x="875" 
d="M758 134h61l-10 -38h-62l-33 -102h-63l34 102h-154l9 38l234 212h50zM695 134l43 140l-2 2l-153 -142h112zM824 693l-617 -704h-56l617 704h56zM150 488l7 24q65 0 105 20t40 57q0 19 -13 29.5t-34 10.5q-34 0 -76 -33l-26 17q47 54 116 54q43 0 69.5 -20t26.5 -52
t-22.5 -53t-76.5 -40q24 -12 40.5 -33.5t16.5 -44.5q0 -50 -45.5 -80t-121.5 -30q-86 0 -86 26q0 9 9.5 17.5t20.5 8.5q10 0 35.5 -13t48.5 -13q31 0 51 20.5t20 51.5q0 76 -105 76z" />
    <glyph glyph-name="questiondown" unicode="&#xbf;" horiz-adv-x="406" 
d="M263 319h43l-28 -157q-4 -27 -36 -27h-32q-42 0 -73 -17q-31 -18 -49 -49.5t-18 -67.5q0 -49 26 -77t66 -28q12 0 32 6t27 6q16 0 28 -13t12 -30q0 -23 -20.5 -39.5t-49.5 -16.5q-72 0 -120 69.5t-48 165.5q0 39 14.5 77.5t37.5 61.5q17 17 41.5 25t46 11t42.5 10
t36.5 29t21.5 61zM307 385q-26 0 -45 18.5t-19 44.5t19 45t45 19t44.5 -19t18.5 -45t-18.5 -44.5t-44.5 -18.5z" />
    <glyph glyph-name="Agrave" unicode="&#xc0;" horiz-adv-x="729" 
d="M509 273h-247l-96 -114q-39 -46 -29 -83.5t65 -41.5l-9 -34h-245l9 34q52 8 136 110l463 549h90l-56 -537q-7 -69 9.5 -95.5t75.5 -26.5l-9 -34h-285l9 34q57 0 80.5 25.5t29.5 106.5zM513 318l32 293l-2 2l-247 -295h217zM616 920l54 -165h-16l-146 165h108z" />
    <glyph glyph-name="Aacute" unicode="&#xc1;" horiz-adv-x="729" 
d="M509 273h-247l-96 -114q-39 -46 -29 -83.5t65 -41.5l-9 -34h-245l9 34q52 8 136 110l463 549h90l-56 -537q-7 -69 9.5 -95.5t75.5 -26.5l-9 -34h-285l9 34q57 0 80.5 25.5t29.5 106.5zM513 318l32 293l-2 2l-247 -295h217zM603 920h108l-146 -165h-16z" />
    <glyph glyph-name="Acircumflex" unicode="&#xc2;" horiz-adv-x="729" 
d="M509 273h-247l-96 -114q-39 -46 -29 -83.5t65 -41.5l-9 -34h-245l9 34q52 8 136 110l463 549h90l-56 -537q-7 -69 9.5 -95.5t75.5 -26.5l-9 -34h-285l9 34q57 0 80.5 25.5t29.5 106.5zM513 318l32 293l-2 2l-247 -295h217zM700 905l37 -155h-11l-82 99l-156 -99h-13
l152 155h73z" />
    <glyph glyph-name="Atilde" unicode="&#xc3;" horiz-adv-x="729" 
d="M509 273h-247l-96 -114q-39 -46 -29 -83.5t65 -41.5l-9 -34h-245l9 34q52 8 136 110l463 549h90l-56 -537q-7 -69 9.5 -95.5t75.5 -26.5l-9 -34h-285l9 34q57 0 80.5 25.5t29.5 106.5zM513 318l32 293l-2 2l-247 -295h217zM744 890h15q0 -58 -25 -93.5t-66 -35.5
q-36 0 -88.5 34t-69.5 34q-20 0 -30 -14t-17 -52h-15q0 58 26 93t66 35q30 0 87 -34.5t70 -34.5q40 0 47 68z" />
    <glyph glyph-name="Adieresis" unicode="&#xc4;" horiz-adv-x="729" 
d="M509 273h-247l-96 -114q-39 -46 -29 -83.5t65 -41.5l-9 -34h-245l9 34q52 8 136 110l463 549h90l-56 -537q-7 -69 9.5 -95.5t75.5 -26.5l-9 -34h-285l9 34q57 0 80.5 25.5t29.5 106.5zM513 318l32 293l-2 2l-247 -295h217zM706 858q22 0 37.5 -15t15.5 -37t-15.5 -37.5
t-37.5 -15.5t-37 15.5t-15 37.5t15 37t37 15zM533 858q22 0 37.5 -15t15.5 -37t-15.5 -37.5t-37.5 -15.5t-37 15.5t-15 37.5t15 37t37 15z" />
    <glyph glyph-name="Aring" unicode="&#xc5;" horiz-adv-x="729" 
d="M509 273h-247l-96 -114q-39 -46 -29 -83.5t65 -41.5l-9 -34h-245l9 34q52 8 136 110l463 549h90l-56 -537q-7 -69 9.5 -95.5t75.5 -26.5l-9 -34h-285l9 34q57 0 80.5 25.5t29.5 106.5zM513 318l32 293l-2 2l-247 -295h217zM629 735q-38 0 -65 27.5t-27 65.5t27 65t65 27
t65.5 -27t27.5 -65t-27.5 -65.5t-65.5 -27.5zM629 767q25 0 43 17.5t18 42.5t-18 43t-43 18t-42.5 -18t-17.5 -43t17.5 -42.5t42.5 -17.5z" />
    <glyph glyph-name="AE" unicode="&#xc6;" horiz-adv-x="927" 
d="M880 171h43l-73 -171h-537l9 34q50 7 76 33.5t41 81.5l52 191h-198l-145 -183q-36 -44 -22.5 -83.5t68.5 -39.5l-9 -34h-244l9 34q32 12 53.5 27t34 29t42.5 52l325 406q32 40 18.5 70t-66.5 30l10 34h620l-43 -160h-33q0 65 -22 93.5t-66 28.5h-155l-71 -266h72
q76 0 108.5 16.5t62.5 69.5h35l-62 -232h-35q0 108 -94 108h-97l-46 -172q-21 -77 -2 -103.5t98 -26.5q90 0 133.5 23t109.5 110zM322 378h179l57 213q6 17 2 33.5t-18 16.5q-16 0 -39 -31z" />
    <glyph glyph-name="Ccedilla" unicode="&#xc7;" horiz-adv-x="708" 
d="M657 242l-45 -166q-78 -48 -132 -67t-134 -19l-11 -15q80 -14 80 -79q0 -43 -47.5 -70t-107.5 -27q-32 0 -88 12l6 18q35 -7 56 -7q40 0 64.5 16t24.5 42q0 41 -68 42l54 72q-121 15 -189 95t-68 177q0 111 62 210.5t162 158t208 58.5q133 0 251 -71l-32 -157
q-17 8 -35 10q4 80 -48.5 130t-134.5 50q-73 0 -136 -39t-103 -99t-62.5 -129t-22.5 -132q0 -103 56 -165.5t149 -62.5q81 0 138 51.5t99 162.5h54z" />
    <glyph glyph-name="Egrave" unicode="&#xc8;" horiz-adv-x="656" 
d="M595 164h40l-74 -164h-560l10 34q49 7 75.5 34t40.5 81l105 392q12 47 -7.5 77t-67.5 30l10 34h536l-42 -158q-19 5 -37 0q4 59 -16.5 89.5t-79.5 30.5h-169l-72 -267h101q77 0 112.5 18t65.5 71h33l-63 -236h-30q-8 62 -30.5 85.5t-73.5 23.5h-125l-51 -187
q-15 -55 4.5 -84.5t93.5 -29.5h29q77 0 133.5 29.5t108.5 96.5zM486 920l54 -165h-16l-146 165h108z" />
    <glyph glyph-name="Eacute" unicode="&#xc9;" horiz-adv-x="656" 
d="M595 164h40l-74 -164h-560l10 34q49 7 75.5 34t40.5 81l105 392q12 47 -7.5 77t-67.5 30l10 34h536l-42 -158q-19 5 -37 0q4 59 -16.5 89.5t-79.5 30.5h-169l-72 -267h101q77 0 112.5 18t65.5 71h33l-63 -236h-30q-8 62 -30.5 85.5t-73.5 23.5h-125l-51 -187
q-15 -55 4.5 -84.5t93.5 -29.5h29q77 0 133.5 29.5t108.5 96.5zM473 920h108l-146 -165h-16z" />
    <glyph glyph-name="Ecircumflex" unicode="&#xca;" horiz-adv-x="656" 
d="M595 164h40l-74 -164h-560l10 34q49 7 75.5 34t40.5 81l105 392q12 47 -7.5 77t-67.5 30l10 34h536l-42 -158q-19 5 -37 0q4 59 -16.5 89.5t-79.5 30.5h-169l-72 -267h101q77 0 112.5 18t65.5 71h33l-63 -236h-30q-8 62 -30.5 85.5t-73.5 23.5h-125l-51 -187
q-15 -55 4.5 -84.5t93.5 -29.5h29q77 0 133.5 29.5t108.5 96.5zM570 905l37 -155h-11l-82 99l-156 -99h-13l152 155h73z" />
    <glyph glyph-name="Edieresis" unicode="&#xcb;" horiz-adv-x="656" 
d="M595 164h40l-74 -164h-560l10 34q49 7 75.5 34t40.5 81l105 392q12 47 -7.5 77t-67.5 30l10 34h536l-42 -158q-19 5 -37 0q4 59 -16.5 89.5t-79.5 30.5h-169l-72 -267h101q77 0 112.5 18t65.5 71h33l-63 -236h-30q-8 62 -30.5 85.5t-73.5 23.5h-125l-51 -187
q-15 -55 4.5 -84.5t93.5 -29.5h29q77 0 133.5 29.5t108.5 96.5zM576 858q22 0 37.5 -15t15.5 -37t-15.5 -37.5t-37.5 -15.5t-37 15.5t-15 37.5t15 37t37 15zM403 858q22 0 37.5 -15t15.5 -37t-15.5 -37.5t-37.5 -15.5t-37 15.5t-15 37.5t15 37t37 15z" />
    <glyph glyph-name="Igrave" unicode="&#xcc;" horiz-adv-x="375" 
d="M180 682h270l-9 -34q-82 -13 -109 -117l-106 -397q-23 -87 75 -100l-9 -34h-288l9 34q52 7 79 36t44 96l98 364q28 107 -63 118zM345 920l54 -165h-16l-146 165h108z" />
    <glyph glyph-name="Iacute" unicode="&#xcd;" horiz-adv-x="375" 
d="M180 682h270l-9 -34q-82 -13 -109 -117l-106 -397q-23 -87 75 -100l-9 -34h-288l9 34q52 7 79 36t44 96l98 364q28 107 -63 118zM332 920h108l-146 -165h-16z" />
    <glyph glyph-name="Icircumflex" unicode="&#xce;" horiz-adv-x="375" 
d="M180 682h270l-9 -34q-82 -13 -109 -117l-106 -397q-23 -87 75 -100l-9 -34h-288l9 34q52 7 79 36t44 96l98 364q28 107 -63 118zM429 905l37 -155h-11l-82 99l-156 -99h-13l152 155h73z" />
    <glyph glyph-name="Idieresis" unicode="&#xcf;" horiz-adv-x="375" 
d="M180 682h270l-9 -34q-82 -13 -109 -117l-106 -397q-23 -87 75 -100l-9 -34h-288l9 34q52 7 79 36t44 96l98 364q28 107 -63 118zM435 858q22 0 37.5 -15t15.5 -37t-15.5 -37.5t-37.5 -15.5t-37 15.5t-15 37.5t15 37t37 15zM262 858q22 0 37.5 -15t15.5 -37t-15.5 -37.5
t-37.5 -15.5t-37 15.5t-15 37.5t15 37t37 15z" />
    <glyph glyph-name="Eth" unicode="&#xd0;" horiz-adv-x="781" 
d="M178 682h267q90 0 143.5 -18.5t96.5 -61.5q87 -87 87 -220q0 -96 -44.5 -182t-132.5 -143t-200 -57h-381l9 34q50 11 73.5 38t42.5 95l47 168h-90l9 40h90l45 169q28 105 -62 105h-8zM367 644l-74 -269h168l-9 -40h-168l-52 -181q-16 -57 13.5 -86.5t85.5 -29.5h25
q134 0 202 68q53 53 79 127t26 149q0 111 -59 186.5t-169 75.5h-68z" />
    <glyph glyph-name="Ntilde" unicode="&#xd1;" horiz-adv-x="813" 
d="M147 682h154q32 -41 98 -155l225 -391l99 368q18 68 -3.5 106t-83.5 38l9 34h248l-9 -34q-52 -5 -79.5 -42t-49.5 -117l-110 -398l55 -91h-113l-229 408q-54 96 -83 139l-92 -366q-37 -146 90 -147l-10 -34h-266l9 34q49 3 78 29.5t48 94.5l115 427q-22 39 -41.5 51
t-58.5 12h-9zM692 890h15q0 -58 -25 -93.5t-66 -35.5q-36 0 -88.5 34t-69.5 34q-20 0 -30 -14t-17 -52h-15q0 58 26 93t66 35q30 0 87 -34.5t70 -34.5q40 0 47 68z" />
    <glyph glyph-name="Ograve" unicode="&#xd2;" horiz-adv-x="792" 
d="M789 397q0 -63 -31.5 -133.5t-85 -131.5t-134 -101.5t-168.5 -40.5q-132 0 -206.5 86t-74.5 199q0 72 36 148t94 135t136 97t156 38q119 0 198.5 -85.5t79.5 -210.5zM197 242q0 -99 50.5 -156.5t134.5 -57.5q61 0 113 30.5t85 77t57 102.5t34 105t10 87q0 97 -50.5 161
t-127.5 64q-89 0 -160.5 -62.5t-108.5 -156t-37 -194.5zM554 920l54 -165h-16l-146 165h108z" />
    <glyph glyph-name="Oacute" unicode="&#xd3;" horiz-adv-x="792" 
d="M789 397q0 -63 -31.5 -133.5t-85 -131.5t-134 -101.5t-168.5 -40.5q-132 0 -206.5 86t-74.5 199q0 72 36 148t94 135t136 97t156 38q119 0 198.5 -85.5t79.5 -210.5zM197 242q0 -99 50.5 -156.5t134.5 -57.5q61 0 113 30.5t85 77t57 102.5t34 105t10 87q0 97 -50.5 161
t-127.5 64q-89 0 -160.5 -62.5t-108.5 -156t-37 -194.5zM541 920h108l-146 -165h-16z" />
    <glyph glyph-name="Ocircumflex" unicode="&#xd4;" horiz-adv-x="792" 
d="M789 397q0 -63 -31.5 -133.5t-85 -131.5t-134 -101.5t-168.5 -40.5q-132 0 -206.5 86t-74.5 199q0 72 36 148t94 135t136 97t156 38q119 0 198.5 -85.5t79.5 -210.5zM197 242q0 -99 50.5 -156.5t134.5 -57.5q61 0 113 30.5t85 77t57 102.5t34 105t10 87q0 97 -50.5 161
t-127.5 64q-89 0 -160.5 -62.5t-108.5 -156t-37 -194.5zM638 905l37 -155h-11l-82 99l-156 -99h-13l152 155h73z" />
    <glyph glyph-name="Otilde" unicode="&#xd5;" horiz-adv-x="792" 
d="M789 397q0 -63 -31.5 -133.5t-85 -131.5t-134 -101.5t-168.5 -40.5q-132 0 -206.5 86t-74.5 199q0 72 36 148t94 135t136 97t156 38q119 0 198.5 -85.5t79.5 -210.5zM197 242q0 -99 50.5 -156.5t134.5 -57.5q61 0 113 30.5t85 77t57 102.5t34 105t10 87q0 97 -50.5 161
t-127.5 64q-89 0 -160.5 -62.5t-108.5 -156t-37 -194.5zM682 890h15q0 -58 -25 -93.5t-66 -35.5q-36 0 -88.5 34t-69.5 34q-20 0 -30 -14t-17 -52h-15q0 58 26 93t66 35q31 0 87.5 -34.5t69.5 -34.5q40 0 47 68z" />
    <glyph glyph-name="Odieresis" unicode="&#xd6;" horiz-adv-x="792" 
d="M789 397q0 -63 -31.5 -133.5t-85 -131.5t-134 -101.5t-168.5 -40.5q-132 0 -206.5 86t-74.5 199q0 72 36 148t94 135t136 97t156 38q119 0 198.5 -85.5t79.5 -210.5zM197 242q0 -99 50.5 -156.5t134.5 -57.5q61 0 113 30.5t85 77t57 102.5t34 105t10 87q0 97 -50.5 161
t-127.5 64q-89 0 -160.5 -62.5t-108.5 -156t-37 -194.5zM644 858q22 0 37.5 -15t15.5 -37t-15.5 -37.5t-37.5 -15.5t-37 15.5t-15 37.5t15 37t37 15zM471 858q22 0 37.5 -15t15.5 -37t-15.5 -37.5t-37.5 -15.5t-37 15.5t-15 37.5t15 37t37 15z" />
    <glyph glyph-name="multiply" unicode="&#xd7;" horiz-adv-x="668" 
d="M129 519l54 54l194 -194l194 194l54 -54l-194 -194l194 -194l-54 -54l-194 194l-193 -193l-54 54l193 193z" />
    <glyph glyph-name="Oslash" unicode="&#xd8;" horiz-adv-x="792" 
d="M652 560l-402 -476q47 -56 132 -56q61 0 113 30.5t85 77t57 102.5t34 105t10 87q0 63 -29 130zM669 643l52 60l31 -24l-52 -62q89 -89 89 -220q0 -63 -31.5 -133.5t-85 -131.5t-134 -101.5t-168.5 -40.5q-90 0 -161 47l-48 -58l-32 24l49 59q-89 82 -89 213q0 72 36 148
t94 135t136 97t156 38q89 0 158 -50zM225 117l402 478q-49 60 -124 60q-89 0 -160.5 -62.5t-108.5 -156t-37 -194.5q0 -76 28 -125z" />
    <glyph glyph-name="Ugrave" unicode="&#xd9;" horiz-adv-x="771" 
d="M740 513l-72 -304q-27 -115 -102.5 -167.5t-178.5 -52.5q-130 0 -206 76q-73 73 -43 188l77 291q13 50 -9.5 77t-65.5 27l9 34h291l-9 -34q-50 -3 -76.5 -27.5t-40.5 -77.5l-84 -313q-21 -78 24.5 -131t148.5 -53t152.5 44.5t76.5 153.5l59 242q8 41 8 77t-24.5 60.5
t-72.5 24.5l11 34h252l-11 -34q-49 -8 -74.5 -42.5t-39.5 -92.5zM543 920l54 -165h-16l-146 165h108z" />
    <glyph glyph-name="Uacute" unicode="&#xda;" horiz-adv-x="771" 
d="M740 513l-72 -304q-27 -115 -102.5 -167.5t-178.5 -52.5q-130 0 -206 76q-73 73 -43 188l77 291q13 50 -9.5 77t-65.5 27l9 34h291l-9 -34q-50 -3 -76.5 -27.5t-40.5 -77.5l-84 -313q-21 -78 24.5 -131t148.5 -53t152.5 44.5t76.5 153.5l59 242q8 41 8 77t-24.5 60.5
t-72.5 24.5l11 34h252l-11 -34q-49 -8 -74.5 -42.5t-39.5 -92.5zM530 920h108l-146 -165h-16z" />
    <glyph glyph-name="Ucircumflex" unicode="&#xdb;" horiz-adv-x="771" 
d="M740 513l-72 -304q-27 -115 -102.5 -167.5t-178.5 -52.5q-130 0 -206 76q-73 73 -43 188l77 291q13 50 -9.5 77t-65.5 27l9 34h291l-9 -34q-50 -3 -76.5 -27.5t-40.5 -77.5l-84 -313q-21 -78 24.5 -131t148.5 -53t152.5 44.5t76.5 153.5l59 242q8 41 8 77t-24.5 60.5
t-72.5 24.5l11 34h252l-11 -34q-49 -8 -74.5 -42.5t-39.5 -92.5zM627 905l37 -155h-11l-82 99l-156 -99h-13l152 155h73z" />
    <glyph glyph-name="Udieresis" unicode="&#xdc;" horiz-adv-x="771" 
d="M740 513l-72 -304q-27 -115 -102.5 -167.5t-178.5 -52.5q-130 0 -206 76q-73 73 -43 188l77 291q13 50 -9.5 77t-65.5 27l9 34h291l-9 -34q-50 -3 -76.5 -27.5t-40.5 -77.5l-84 -313q-21 -78 24.5 -131t148.5 -53t152.5 44.5t76.5 153.5l59 242q8 41 8 77t-24.5 60.5
t-72.5 24.5l11 34h252l-11 -34q-49 -8 -74.5 -42.5t-39.5 -92.5zM633 858q22 0 37.5 -15t15.5 -37t-15.5 -37.5t-37.5 -15.5t-37 15.5t-15 37.5t15 37t37 15zM460 858q22 0 37.5 -15t15.5 -37t-15.5 -37.5t-37.5 -15.5t-37 15.5t-15 37.5t15 37t37 15z" />
    <glyph glyph-name="Yacute" unicode="&#xdd;" horiz-adv-x="719" 
d="M431 255l-23 -89q-10 -37 -10 -58q0 -35 20.5 -54.5t57.5 -19.5h7l-9 -34h-300l9 34q53 4 80.5 32.5t41.5 80.5l29 108l-133 321q-16 39 -36 55.5t-50 16.5h-7l9 34h281l-9 -34h-5q-47 0 -65.5 -30.5t-0.5 -74.5l100 -247l179 210q42 48 42 83q0 53 -65 59l9 34h242
l-9 -34q-33 -1 -121 -99zM504 920h108l-146 -165h-16z" />
    <glyph glyph-name="Thorn" unicode="&#xde;" horiz-adv-x="615" 
d="M132 166l100 372q14 53 -7 81.5t-60 28.5h-8l10 34h284l-10 -34q-45 -8 -71.5 -32t-38.5 -70l-5 -19h90q122 0 180.5 -51t58.5 -122q0 -33 -13.5 -65.5t-44 -64.5t-93 -52t-148.5 -20h-130q-33 -109 83 -118l-9 -34h-296l9 34q54 9 78.5 40t40.5 92zM316 489l-80 -299
h134q89 0 131 43.5t42 111.5q0 66 -43.5 105t-116.5 39h-67z" />
    <glyph glyph-name="germandbls" unicode="&#xdf;" horiz-adv-x="531" 
d="M293 372l11 35q47 0 69.5 8t50.5 36q42 42 42 103q0 46 -26 74t-68 28q-52 0 -82.5 -44t-55.5 -143l-98 -392q-31 -124 -85.5 -196t-123.5 -72q-32 0 -52 15t-20 39q0 18 10.5 29.5t27.5 11.5q15 0 26 -8.5t16 -18t12.5 -18t17.5 -8.5q27 0 42.5 37.5t44.5 153.5l98 392
q64 259 229 259q77 0 120 -37t43 -100q0 -104 -135 -154v-2q44 -13 68 -51.5t24 -96.5q0 -112 -77 -187.5t-153 -75.5q-38 0 -62.5 17.5t-24.5 45.5q0 18 10.5 29t28.5 11q14 0 23.5 -9t14.5 -19t17 -19t30 -9q54 0 83.5 56.5t29.5 135.5q0 60 -33.5 100t-92.5 44z" />
    <glyph glyph-name="agrave" unicode="&#xe0;" horiz-adv-x="521" 
d="M453 438h44l-103 -334q-7 -19 -3 -35t18 -16t29.5 16.5t43.5 61.5h30q-30 -63 -68.5 -102t-73.5 -39q-25 0 -39.5 18.5t-14.5 50.5q0 31 10 70l-2 2q-69 -141 -169 -141q-51 0 -81 32.5t-30 87.5q0 119 136 255q79 79 151 79q57 0 103 -46zM121 139q0 -37 20 -59t55 -22
q41 0 86 55.5t72.5 121.5t27.5 103q0 31 -15.5 50t-44.5 19q-44 0 -92 -45.5t-78.5 -109t-30.5 -113.5zM359 682l54 -165h-16l-146 165h108z" />
    <glyph glyph-name="aacute" unicode="&#xe1;" horiz-adv-x="521" 
d="M453 438h44l-103 -334q-7 -19 -3 -35t18 -16t29.5 16.5t43.5 61.5h30q-30 -63 -68.5 -102t-73.5 -39q-25 0 -39.5 18.5t-14.5 50.5q0 31 10 70l-2 2q-69 -141 -169 -141q-51 0 -81 32.5t-30 87.5q0 119 136 255q79 79 151 79q57 0 103 -46zM121 139q0 -37 20 -59t55 -22
q41 0 86 55.5t72.5 121.5t27.5 103q0 31 -15.5 50t-44.5 19q-44 0 -92 -45.5t-78.5 -109t-30.5 -113.5zM346 682h108l-146 -165h-16z" />
    <glyph glyph-name="acircumflex" unicode="&#xe2;" horiz-adv-x="521" 
d="M453 438h44l-103 -334q-7 -19 -3 -35t18 -16t29.5 16.5t43.5 61.5h30q-30 -63 -68.5 -102t-73.5 -39q-25 0 -39.5 18.5t-14.5 50.5q0 31 10 70l-2 2q-69 -141 -169 -141q-51 0 -81 32.5t-30 87.5q0 119 136 255q79 79 151 79q57 0 103 -46zM121 139q0 -37 20 -59t55 -22
q41 0 86 55.5t72.5 121.5t27.5 103q0 31 -15.5 50t-44.5 19q-44 0 -92 -45.5t-78.5 -109t-30.5 -113.5zM443 667l37 -155h-11l-82 99l-156 -99h-13l152 155h73z" />
    <glyph glyph-name="atilde" unicode="&#xe3;" horiz-adv-x="521" 
d="M453 438h44l-103 -334q-7 -19 -3 -35t18 -16t29.5 16.5t43.5 61.5h30q-30 -63 -68.5 -102t-73.5 -39q-25 0 -39.5 18.5t-14.5 50.5q0 31 10 70l-2 2q-69 -141 -169 -141q-51 0 -81 32.5t-30 87.5q0 119 136 255q79 79 151 79q57 0 103 -46zM121 139q0 -37 20 -59t55 -22
q41 0 86 55.5t72.5 121.5t27.5 103q0 31 -15.5 50t-44.5 19q-44 0 -92 -45.5t-78.5 -109t-30.5 -113.5zM487 652h15q0 -58 -25 -93.5t-66 -35.5q-36 0 -88.5 34t-69.5 34q-20 0 -30 -14t-17 -52h-15q0 58 26 93t66 35q31 0 88 -34.5t69 -34.5q40 0 47 68z" />
    <glyph glyph-name="adieresis" unicode="&#xe4;" horiz-adv-x="521" 
d="M453 438h44l-103 -334q-7 -19 -3 -35t18 -16t29.5 16.5t43.5 61.5h30q-30 -63 -68.5 -102t-73.5 -39q-25 0 -39.5 18.5t-14.5 50.5q0 31 10 70l-2 2q-69 -141 -169 -141q-51 0 -81 32.5t-30 87.5q0 119 136 255q79 79 151 79q57 0 103 -46zM121 139q0 -37 20 -59t55 -22
q41 0 86 55.5t72.5 121.5t27.5 103q0 31 -15.5 50t-44.5 19q-44 0 -92 -45.5t-78.5 -109t-30.5 -113.5zM449 620q22 0 37.5 -15t15.5 -37t-15.5 -37.5t-37.5 -15.5t-37 15.5t-15 37.5t15 37t37 15zM276 620q22 0 37.5 -15t15.5 -37t-15.5 -37.5t-37.5 -15.5t-37 15.5
t-15 37.5t15 37t37 15z" />
    <glyph glyph-name="aring" unicode="&#xe5;" horiz-adv-x="521" 
d="M453 438h44l-103 -334q-7 -19 -3 -35t18 -16t29.5 16.5t43.5 61.5h30q-30 -63 -68.5 -102t-73.5 -39q-25 0 -39.5 18.5t-14.5 50.5q0 31 10 70l-2 2q-69 -141 -169 -141q-51 0 -81 32.5t-30 87.5q0 119 136 255q79 79 151 79q57 0 103 -46zM121 139q0 -37 20 -59t55 -22
q41 0 86 55.5t72.5 121.5t27.5 103q0 31 -15.5 50t-44.5 19q-44 0 -92 -45.5t-78.5 -109t-30.5 -113.5zM372 497q-38 0 -65 27.5t-27 65.5t27 65t65 27t65.5 -27t27.5 -65t-27.5 -65.5t-65.5 -27.5zM372 529q25 0 43 17.5t18 42.5t-18 43t-43 18t-42.5 -18t-17.5 -43
t17.5 -42.5t42.5 -17.5z" />
    <glyph glyph-name="ae" unicode="&#xe6;" horiz-adv-x="677" 
d="M605 137h37q-32 -61 -87.5 -104t-123.5 -43q-115 0 -116 130h-2q-83 -130 -187 -130q-45 0 -74 30.5t-29 78.5q0 77 71 148q80 80 219 130q186 67 266 67q41 0 64.5 -22t23.5 -60q0 -131 -277 -182q-11 -61 12 -94t67 -33q68 0 136 84zM599 352q0 20 -13 33t-34 13
q-44 0 -87.5 -53t-64.5 -134q92 26 145.5 63.5t53.5 77.5zM107 104q0 -28 15 -44.5t40 -16.5q91 0 150 128q39 85 68.5 131.5t84.5 95.5l-2 2q-161 -44 -258.5 -129t-97.5 -167z" />
    <glyph glyph-name="ccedilla" unicode="&#xe7;" horiz-adv-x="385" 
d="M70 -78l55 72q-42 10 -66 42.5t-24 80.5q0 63 37 139t100.5 132t127.5 56q35 0 57 -19.5t22 -50.5q0 -22 -13 -37t-32 -15q-15 0 -25 10.5t-10 26.5q0 1 1 9t0.5 13t-2.5 12t-8.5 10.5t-16.5 3.5q-40 0 -78.5 -49t-59.5 -110t-21 -105q0 -41 22.5 -64.5t61.5 -23.5
q75 0 132 84h36q-87 -148 -205 -149l-11 -15q80 -14 80 -79q0 -43 -47.5 -70t-107.5 -27q-32 0 -88 12l6 18q35 -7 56 -7q40 0 64.5 16t24.5 42q0 41 -68 42z" />
    <glyph glyph-name="egrave" unicode="&#xe8;" horiz-adv-x="385" 
d="M323 139h39q-36 -70 -89.5 -109.5t-112.5 -39.5q-57 0 -90.5 34t-33.5 93q0 71 43.5 149t105.5 128t115 50q35 0 56.5 -21t21.5 -56q0 -58 -62.5 -111t-202.5 -79q-8 -60 13 -89.5t63 -29.5q39 0 76.5 22.5t57.5 58.5zM315 346q0 21 -14 35.5t-34 14.5q-44 0 -82 -47.5
t-66 -136.5q96 15 146 53.5t50 80.5zM291 682l54 -165h-16l-146 165h108z" />
    <glyph glyph-name="eacute" unicode="&#xe9;" horiz-adv-x="385" 
d="M323 139h39q-36 -70 -89.5 -109.5t-112.5 -39.5q-57 0 -90.5 34t-33.5 93q0 71 43.5 149t105.5 128t115 50q35 0 56.5 -21t21.5 -56q0 -58 -62.5 -111t-202.5 -79q-8 -60 13 -89.5t63 -29.5q39 0 76.5 22.5t57.5 58.5zM315 346q0 21 -14 35.5t-34 14.5q-44 0 -82 -47.5
t-66 -136.5q96 15 146 53.5t50 80.5zM278 682h108l-146 -165h-16z" />
    <glyph glyph-name="ecircumflex" unicode="&#xea;" horiz-adv-x="385" 
d="M323 139h39q-36 -70 -89.5 -109.5t-112.5 -39.5q-57 0 -90.5 34t-33.5 93q0 71 43.5 149t105.5 128t115 50q35 0 56.5 -21t21.5 -56q0 -58 -62.5 -111t-202.5 -79q-8 -60 13 -89.5t63 -29.5q39 0 76.5 22.5t57.5 58.5zM315 346q0 21 -14 35.5t-34 14.5q-44 0 -82 -47.5
t-66 -136.5q96 15 146 53.5t50 80.5zM375 667l37 -155h-11l-82 99l-156 -99h-13l152 155h73z" />
    <glyph glyph-name="edieresis" unicode="&#xeb;" horiz-adv-x="385" 
d="M323 139h39q-36 -70 -89.5 -109.5t-112.5 -39.5q-57 0 -90.5 34t-33.5 93q0 71 43.5 149t105.5 128t115 50q35 0 56.5 -21t21.5 -56q0 -58 -62.5 -111t-202.5 -79q-8 -60 13 -89.5t63 -29.5q39 0 76.5 22.5t57.5 58.5zM315 346q0 21 -14 35.5t-34 14.5q-44 0 -82 -47.5
t-66 -136.5q96 15 146 53.5t50 80.5zM381 620q22 0 37.5 -15t15.5 -37t-15.5 -37.5t-37.5 -15.5t-37 15.5t-15 37.5t15 37t37 15zM208 620q22 0 37.5 -15t15.5 -37t-15.5 -37.5t-37.5 -15.5t-37 15.5t-15 37.5t15 37t37 15z" />
    <glyph glyph-name="igrave" unicode="&#xec;" horiz-adv-x="271" 
d="M222 321l-82 -237q-5 -14 -2 -24t11 -10q32 0 83 81h33q-33 -65 -76 -103t-81 -38q-33 0 -45 31.5t3 72.5l80 234q19 57 -6 57q-38 0 -78 -79h-31q69 138 153 138q24 0 38 -14.5t14 -39.5t-14 -69zM234 682l54 -165h-16l-146 165h108z" />
    <glyph glyph-name="iacute" unicode="&#xed;" horiz-adv-x="271" 
d="M222 321l-82 -237q-5 -14 -2 -24t11 -10q32 0 83 81h33q-33 -65 -76 -103t-81 -38q-33 0 -45 31.5t3 72.5l80 234q19 57 -6 57q-38 0 -78 -79h-31q69 138 153 138q24 0 38 -14.5t14 -39.5t-14 -69zM221 682h108l-146 -165h-16z" />
    <glyph glyph-name="icircumflex" unicode="&#xee;" horiz-adv-x="271" 
d="M222 321l-82 -237q-5 -14 -2 -24t11 -10q32 0 83 81h33q-33 -65 -76 -103t-81 -38q-33 0 -45 31.5t3 72.5l80 234q19 57 -6 57q-38 0 -78 -79h-31q69 138 153 138q24 0 38 -14.5t14 -39.5t-14 -69zM318 667l37 -155h-11l-82 99l-156 -99h-13l152 155h73z" />
    <glyph glyph-name="idieresis" unicode="&#xef;" horiz-adv-x="271" 
d="M222 321l-82 -237q-5 -14 -2 -24t11 -10q32 0 83 81h33q-33 -65 -76 -103t-81 -38q-33 0 -45 31.5t3 72.5l80 234q19 57 -6 57q-38 0 -78 -79h-31q69 138 153 138q24 0 38 -14.5t14 -39.5t-14 -69zM324 620q22 0 37.5 -15t15.5 -37t-15.5 -37.5t-37.5 -15.5t-37 15.5
t-15 37.5t15 37t37 15zM151 620q22 0 37.5 -15t15.5 -37t-15.5 -37.5t-37.5 -15.5t-37 15.5t-15 37.5t15 37t37 15z" />
    <glyph glyph-name="eth" unicode="&#xf0;" horiz-adv-x="500" 
d="M143 125q0 -45 20 -71t54 -26q72 0 114 93t42 251q-29 42 -69 42q-41 0 -74.5 -36.5t-51 -88t-26.5 -95t-9 -69.5zM492 648l-113 -52q37 -66 56 -141.5t19 -130.5q0 -76 -25 -141t-64.5 -106t-85.5 -63.5t-91 -22.5q-55 0 -91 39.5t-36 99.5q0 68 40 142.5t97.5 123
t105.5 48.5q41 0 65 -28h2q-10 97 -37 160l-115 -53l-12 30l113 52q-15 35 -42 75l26 13q33 -29 58 -69l115 53z" />
    <glyph glyph-name="ntilde" unicode="&#xf1;" horiz-adv-x="531" 
d="M481 313l-81 -228q-6 -19 -2.5 -28t13.5 -9q26 0 77 74h30q-38 -67 -73.5 -99.5t-76.5 -32.5q-26 0 -40.5 13t-14.5 35q0 24 16 70l85 248q7 19 0.5 32.5t-21.5 13.5q-29 0 -88.5 -68.5t-114 -165.5t-67.5 -168h-75l102 335q13 45 -15 45q-23 0 -69 -63h-35
q82 127 154 127q77 0 31 -133l-40 -114l2 -2q76 128 134 188.5t118 60.5q52 0 63 -40t-12 -91zM492 652h15q0 -58 -25 -93.5t-66 -35.5q-36 0 -88.5 34t-69.5 34q-20 0 -30 -14t-17 -52h-15q0 58 26 93t66 35q30 0 87 -34.5t70 -34.5q40 0 47 68z" />
    <glyph glyph-name="ograve" unicode="&#xf2;" horiz-adv-x="448" 
d="M35 132q0 112 86.5 212t186.5 100q58 0 90.5 -39.5t32.5 -107.5q0 -70 -37 -141.5t-99 -119t-127 -47.5q-60 0 -96.5 37t-36.5 106zM119 134q0 -107 75 -107q49 0 87 53t54 112t16 100q0 51 -21.5 82.5t-52.5 31.5q-47 0 -84.5 -48t-55.5 -109t-18 -115zM323 682l54 -165
h-16l-146 165h108z" />
    <glyph glyph-name="oacute" unicode="&#xf3;" horiz-adv-x="448" 
d="M35 132q0 112 86.5 212t186.5 100q58 0 90.5 -39.5t32.5 -107.5q0 -70 -37 -141.5t-99 -119t-127 -47.5q-60 0 -96.5 37t-36.5 106zM119 134q0 -107 75 -107q49 0 87 53t54 112t16 100q0 51 -21.5 82.5t-52.5 31.5q-47 0 -84.5 -48t-55.5 -109t-18 -115zM310 682h108
l-146 -165h-16z" />
    <glyph glyph-name="ocircumflex" unicode="&#xf4;" horiz-adv-x="448" 
d="M35 132q0 112 86.5 212t186.5 100q58 0 90.5 -39.5t32.5 -107.5q0 -70 -37 -141.5t-99 -119t-127 -47.5q-60 0 -96.5 37t-36.5 106zM119 134q0 -107 75 -107q49 0 87 53t54 112t16 100q0 51 -21.5 82.5t-52.5 31.5q-47 0 -84.5 -48t-55.5 -109t-18 -115zM407 667l37 -155
h-11l-82 99l-156 -99h-13l152 155h73z" />
    <glyph glyph-name="otilde" unicode="&#xf5;" horiz-adv-x="448" 
d="M35 132q0 112 86.5 212t186.5 100q58 0 90.5 -39.5t32.5 -107.5q0 -70 -37 -141.5t-99 -119t-127 -47.5q-60 0 -96.5 37t-36.5 106zM119 134q0 -107 75 -107q49 0 87 53t54 112t16 100q0 51 -21.5 82.5t-52.5 31.5q-47 0 -84.5 -48t-55.5 -109t-18 -115zM451 652h15
q0 -58 -25 -93.5t-66 -35.5q-36 0 -88.5 34t-69.5 34q-20 0 -30 -14t-17 -52h-15q0 58 26 93t66 35q31 0 88 -34.5t69 -34.5q40 0 47 68z" />
    <glyph glyph-name="odieresis" unicode="&#xf6;" horiz-adv-x="448" 
d="M35 132q0 112 86.5 212t186.5 100q58 0 90.5 -39.5t32.5 -107.5q0 -70 -37 -141.5t-99 -119t-127 -47.5q-60 0 -96.5 37t-36.5 106zM119 134q0 -107 75 -107q49 0 87 53t54 112t16 100q0 51 -21.5 82.5t-52.5 31.5q-47 0 -84.5 -48t-55.5 -109t-18 -115zM413 620
q22 0 37.5 -15t15.5 -37t-15.5 -37.5t-37.5 -15.5t-37 15.5t-15 37.5t15 37t37 15zM240 620q22 0 37.5 -15t15.5 -37t-15.5 -37.5t-37.5 -15.5t-37 15.5t-15 37.5t15 37t37 15z" />
    <glyph glyph-name="divide" unicode="&#xf7;" horiz-adv-x="668" 
d="M109 364h535v-77h-535v77zM376 74q-20 0 -33.5 14t-13.5 33q0 20 14 34t33 14q20 0 34 -14.5t14 -33.5t-14 -33t-34 -14zM376 482q-20 0 -33.5 14t-13.5 33q0 20 14 34t33 14q20 0 34 -14.5t14 -33.5t-14 -33t-34 -14z" />
    <glyph glyph-name="oslash" unicode="&#xf8;" horiz-adv-x="448" 
d="M349 322l-216 -258q6 -16 23.5 -26.5t37.5 -10.5q49 0 87 53t54 112t16 100q0 6 -2 30zM382 420l32 36l30 -25l-35 -42q22 -35 22 -92q0 -69 -37 -141t-99 -119.5t-127 -47.5q-44 0 -78 22l-32 -37l-29 30l32 36q-26 32 -26 92q0 112 86.5 212t186.5 100q45 0 74 -24z
M120 111l215 254q-21 41 -58 41q-47 0 -84.5 -48t-55.5 -109t-18 -115q0 -16 1 -23z" />
    <glyph glyph-name="ugrave" unicode="&#xf9;" horiz-adv-x="531" 
d="M68 313h-34q35 57 78 94t74 37q28 0 42.5 -20.5t2.5 -62.5l-80 -264q-18 -58 12 -58q54 0 140 126t138 273h74l-106 -345q-5 -20 -1 -30.5t14 -10.5q13 0 32.5 20t36.5 49h33q-77 -131 -145 -131q-74 0 -40 112l40 130l-2 2q-65 -122 -129.5 -183t-120.5 -61
q-41 0 -55.5 31t4.5 93l78 231q14 41 -9 41q-28 0 -77 -73zM364 682l54 -165h-16l-146 165h108z" />
    <glyph glyph-name="uacute" unicode="&#xfa;" horiz-adv-x="531" 
d="M68 313h-34q35 57 78 94t74 37q28 0 42.5 -20.5t2.5 -62.5l-80 -264q-18 -58 12 -58q54 0 140 126t138 273h74l-106 -345q-5 -20 -1 -30.5t14 -10.5q13 0 32.5 20t36.5 49h33q-77 -131 -145 -131q-74 0 -40 112l40 130l-2 2q-65 -122 -129.5 -183t-120.5 -61
q-41 0 -55.5 31t4.5 93l78 231q14 41 -9 41q-28 0 -77 -73zM351 682h108l-146 -165h-16z" />
    <glyph glyph-name="ucircumflex" unicode="&#xfb;" horiz-adv-x="531" 
d="M68 313h-34q35 57 78 94t74 37q28 0 42.5 -20.5t2.5 -62.5l-80 -264q-18 -58 12 -58q54 0 140 126t138 273h74l-106 -345q-5 -20 -1 -30.5t14 -10.5q13 0 32.5 20t36.5 49h33q-77 -131 -145 -131q-74 0 -40 112l40 130l-2 2q-65 -122 -129.5 -183t-120.5 -61
q-41 0 -55.5 31t4.5 93l78 231q14 41 -9 41q-28 0 -77 -73zM448 667l37 -155h-11l-82 99l-156 -99h-13l152 155h73z" />
    <glyph glyph-name="udieresis" unicode="&#xfc;" horiz-adv-x="531" 
d="M68 313h-34q35 57 78 94t74 37q28 0 42.5 -20.5t2.5 -62.5l-80 -264q-18 -58 12 -58q54 0 140 126t138 273h74l-106 -345q-5 -20 -1 -30.5t14 -10.5q13 0 32.5 20t36.5 49h33q-77 -131 -145 -131q-74 0 -40 112l40 130l-2 2q-65 -122 -129.5 -183t-120.5 -61
q-41 0 -55.5 31t4.5 93l78 231q14 41 -9 41q-28 0 -77 -73zM454 620q22 0 37.5 -15t15.5 -37t-15.5 -37.5t-37.5 -15.5t-37 15.5t-15 37.5t15 37t37 15zM281 620q22 0 37.5 -15t15.5 -37t-15.5 -37.5t-37.5 -15.5t-37 15.5t-15 37.5t15 37t37 15z" />
    <glyph glyph-name="yacute" unicode="&#xfd;" horiz-adv-x="479" 
d="M227 -26l-80 349q-13 57 -29 57t-33 -23.5t-28 -62.5h-31q16 65 53.5 107.5t76.5 42.5q21 0 34 -15.5t21 -52.5l76 -336q124 158 124 265q0 27 -14 56.5t-14 39.5q0 19 12 31t29 12q24 0 38.5 -21t14.5 -55q0 -81 -69.5 -204t-166.5 -220q-135 -135 -263 -135
q-33 0 -53 13.5t-20 35.5q0 18 11.5 29t30.5 11q20 0 45 -19.5t46 -19.5q31 0 83 32t106 83zM325 682h108l-146 -165h-16z" />
    <glyph glyph-name="thorn" unicode="&#xfe;" horiz-adv-x="490" 
d="M241 381l-100 -357q108 3 183.5 73t75.5 167q0 63 -43.5 96t-115.5 21zM50 -33l172 602q6 20 8.5 32.5t0.5 22t-5.5 14t-15 7t-23.5 3t-36 0.5l10 34q116 0 161 11h11l-74 -255q92 19 157 -21t65 -125q0 -35 -11 -72.5t-37.5 -78t-65 -72.5t-100 -54t-136.5 -25l-14 -43
q-21 -56 -9.5 -82t66.5 -26h9l-9 -30h-244l10 30q28 2 44.5 8.5t29 25t18.5 36t18 58.5z" />
    <glyph glyph-name="ydieresis" unicode="&#xff;" horiz-adv-x="479" 
d="M227 -26l-80 349q-13 57 -29 57t-33 -23.5t-28 -62.5h-31q16 65 53.5 107.5t76.5 42.5q21 0 34 -15.5t21 -52.5l76 -336q124 158 124 265q0 27 -14 56.5t-14 39.5q0 19 12 31t29 12q24 0 38.5 -21t14.5 -55q0 -81 -69.5 -204t-166.5 -220q-135 -135 -263 -135
q-33 0 -53 13.5t-20 35.5q0 18 11.5 29t30.5 11q20 0 45 -19.5t46 -19.5q31 0 83 32t106 83zM428 620q22 0 37.5 -15t15.5 -37t-15.5 -37.5t-37.5 -15.5t-37 15.5t-15 37.5t15 37t37 15zM255 620q22 0 37.5 -15t15.5 -37t-15.5 -37.5t-37.5 -15.5t-37 15.5t-15 37.5t15 37
t37 15z" />
    <glyph glyph-name="Amacron" unicode="&#x100;" horiz-adv-x="729" 
d="M509 273h-247l-96 -114q-39 -46 -29 -83.5t65 -41.5l-9 -34h-245l9 34q52 8 136 110l463 549h90l-56 -537q-7 -69 9.5 -95.5t75.5 -26.5l-9 -34h-285l9 34q57 0 80.5 25.5t29.5 106.5zM513 318l32 293l-2 2l-247 -295h217zM458 858h293l-19 -63h-293z" />
    <glyph glyph-name="amacron" unicode="&#x101;" horiz-adv-x="521" 
d="M453 438h44l-103 -334q-7 -19 -3 -35t18 -16t29.5 16.5t43.5 61.5h30q-30 -63 -68.5 -102t-73.5 -39q-25 0 -39.5 18.5t-14.5 50.5q0 31 10 70l-2 2q-69 -141 -169 -141q-51 0 -81 32.5t-30 87.5q0 119 136 255q79 79 151 79q57 0 103 -46zM121 139q0 -37 20 -59t55 -22
q41 0 86 55.5t72.5 121.5t27.5 103q0 31 -15.5 50t-44.5 19q-44 0 -92 -45.5t-78.5 -109t-30.5 -113.5zM253 620h293l-19 -63h-293z" />
    <glyph glyph-name="Abreve" unicode="&#x102;" horiz-adv-x="729" 
d="M509 273h-247l-96 -114q-39 -46 -29 -83.5t65 -41.5l-9 -34h-245l9 34q52 8 136 110l463 549h90l-56 -537q-7 -69 9.5 -95.5t75.5 -26.5l-9 -34h-285l9 34q57 0 80.5 25.5t29.5 106.5zM513 318l32 293l-2 2l-247 -295h217zM748 902h14q-29 -66 -75 -105t-94 -39
q-50 0 -78.5 38t-29.5 106h15q15 -73 97 -73t151 73z" />
    <glyph glyph-name="abreve" unicode="&#x103;" horiz-adv-x="521" 
d="M453 438h44l-103 -334q-7 -19 -3 -35t18 -16t29.5 16.5t43.5 61.5h30q-30 -63 -68.5 -102t-73.5 -39q-25 0 -39.5 18.5t-14.5 50.5q0 31 10 70l-2 2q-69 -141 -169 -141q-51 0 -81 32.5t-30 87.5q0 119 136 255q79 79 151 79q57 0 103 -46zM121 139q0 -37 20 -59t55 -22
q41 0 86 55.5t72.5 121.5t27.5 103q0 31 -15.5 50t-44.5 19q-44 0 -92 -45.5t-78.5 -109t-30.5 -113.5zM510 664h14q-29 -66 -75 -105t-94 -39q-50 0 -78.5 38t-29.5 106h15q15 -73 97 -73t151 73z" />
    <glyph glyph-name="Aogonek" unicode="&#x104;" horiz-adv-x="729" 
d="M518 0h-137l9 34q57 0 80.5 25.5t29.5 106.5l9 107h-247l-96 -114q-39 -46 -29 -83.5t65 -41.5l-9 -34h-245l9 34q52 8 136 110l463 549h90l-56 -537q-7 -69 9.5 -95.5t75.5 -26.5l-9 -34h-123q-13 -31 -13 -51q0 -39 29 -65t73 -26q24 0 60 12l10 -14q-63 -40 -111 -40
q-50 0 -81.5 27t-31.5 70q0 46 40 87zM513 318l32 293l-2 2l-247 -295h217z" />
    <glyph glyph-name="aogonek" unicode="&#x105;" horiz-adv-x="521" 
d="M453 438h44l-103 -334q-7 -19 -3 -35t18 -16t29.5 16.5t43.5 61.5h30q-27 -58 -62 -95.5t-69 -44.5q-9 -23 -9 -42q0 -39 29 -65t73 -26q24 0 60 12l10 -14q-63 -40 -111 -40q-50 0 -81.5 27t-31.5 70t33 80q-37 11 -37 66q0 31 10 70l-2 2q-69 -141 -169 -141
q-51 0 -81 32.5t-30 87.5q0 119 136 255q79 79 151 79q57 0 103 -46zM121 139q0 -37 20 -59t55 -22q41 0 86 55.5t72.5 121.5t27.5 103q0 31 -15.5 50t-44.5 19q-44 0 -92 -45.5t-78.5 -109t-30.5 -113.5z" />
    <glyph glyph-name="Cacute" unicode="&#x106;" horiz-adv-x="708" 
d="M735 622l-32 -157q-17 8 -35 10q4 80 -48.5 130t-134.5 50q-73 0 -136 -39t-103 -99t-62.5 -129t-22.5 -132q0 -103 56 -165.5t149 -62.5q81 0 138 51.5t99 162.5h54l-45 -166q-76 -46 -130.5 -66t-123.5 -20q-74 0 -134 25t-96.5 65t-56 88t-19.5 98q0 111 62 210.5
t162 158t208 58.5q133 0 251 -71zM535 920h108l-146 -165h-16z" />
    <glyph glyph-name="cacute" unicode="&#x107;" horiz-adv-x="385" 
d="M330 139h36q-46 -78 -96 -113.5t-111 -35.5q-56 0 -90 34.5t-34 92.5q0 63 37 139t100.5 132t127.5 56q35 0 57 -19.5t22 -50.5q0 -22 -13 -37t-32 -15q-15 0 -25 10.5t-10 26.5q0 1 1 9t0.5 13t-2.5 12t-8.5 10.5t-16.5 3.5q-40 0 -78.5 -49t-59.5 -110t-21 -105
q0 -41 22.5 -64.5t61.5 -23.5q75 0 132 84zM331 682h108l-146 -165h-16z" />
    <glyph glyph-name="Ccircumflex" unicode="&#x108;" horiz-adv-x="708" 
d="M735 622l-32 -157q-17 8 -35 10q4 80 -48.5 130t-134.5 50q-73 0 -136 -39t-103 -99t-62.5 -129t-22.5 -132q0 -103 56 -165.5t149 -62.5q81 0 138 51.5t99 162.5h54l-45 -166q-76 -46 -130.5 -66t-123.5 -20q-74 0 -134 25t-96.5 65t-56 88t-19.5 98q0 111 62 210.5
t162 158t208 58.5q133 0 251 -71zM630 905l37 -155h-11l-82 99l-156 -99h-13l152 155h73z" />
    <glyph glyph-name="ccircumflex" unicode="&#x109;" horiz-adv-x="385" 
d="M330 139h36q-46 -78 -96 -113.5t-111 -35.5q-56 0 -90 34.5t-34 92.5q0 63 37 139t100.5 132t127.5 56q35 0 57 -19.5t22 -50.5q0 -22 -13 -37t-32 -15q-15 0 -25 10.5t-10 26.5q0 1 1 9t0.5 13t-2.5 12t-8.5 10.5t-16.5 3.5q-40 0 -78.5 -49t-59.5 -110t-21 -105
q0 -41 22.5 -64.5t61.5 -23.5q75 0 132 84zM393 667l37 -155h-11l-82 99l-156 -99h-13l152 155h73z" />
    <glyph glyph-name="Cdotaccent" unicode="&#x10a;" horiz-adv-x="708" 
d="M735 622l-32 -157q-17 8 -35 10q4 80 -48.5 130t-134.5 50q-73 0 -136 -39t-103 -99t-62.5 -129t-22.5 -132q0 -103 56 -165.5t149 -62.5q81 0 138 51.5t99 162.5h54l-45 -166q-76 -46 -130.5 -66t-123.5 -20q-74 0 -134 25t-96.5 65t-56 88t-19.5 98q0 111 62 210.5
t162 158t208 58.5q133 0 251 -71zM551 858q22 0 37.5 -15t15.5 -37t-15.5 -37.5t-37.5 -15.5t-37 15.5t-15 37.5t15 37t37 15z" />
    <glyph glyph-name="cdotaccent" unicode="&#x10b;" horiz-adv-x="385" 
d="M330 139h36q-46 -78 -96 -113.5t-111 -35.5q-56 0 -90 34.5t-34 92.5q0 63 37 139t100.5 132t127.5 56q35 0 57 -19.5t22 -50.5q0 -22 -13 -37t-32 -15q-15 0 -25 10.5t-10 26.5q0 1 1 9t0.5 13t-2.5 12t-8.5 10.5t-16.5 3.5q-40 0 -78.5 -49t-59.5 -110t-21 -105
q0 -41 22.5 -64.5t61.5 -23.5q75 0 132 84zM313 620q22 0 37.5 -15t15.5 -37t-15.5 -37.5t-37.5 -15.5t-37 15.5t-15 37.5t15 37t37 15z" />
    <glyph glyph-name="Ccaron" unicode="&#x10c;" horiz-adv-x="708" 
d="M735 622l-32 -157q-17 8 -35 10q4 80 -48.5 130t-134.5 50q-73 0 -136 -39t-103 -99t-62.5 -129t-22.5 -132q0 -103 56 -165.5t149 -62.5q81 0 138 51.5t99 162.5h54l-45 -166q-76 -46 -130.5 -66t-123.5 -20q-74 0 -134 25t-96.5 65t-56 88t-19.5 98q0 111 62 210.5
t162 158t208 58.5q133 0 251 -71zM471 751l-37 155h11l82 -99l156 99h13l-152 -155h-73z" />
    <glyph glyph-name="ccaron" unicode="&#x10d;" horiz-adv-x="385" 
d="M330 139h36q-46 -78 -96 -113.5t-111 -35.5q-56 0 -90 34.5t-34 92.5q0 63 37 139t100.5 132t127.5 56q35 0 57 -19.5t22 -50.5q0 -22 -13 -37t-32 -15q-15 0 -25 10.5t-10 26.5q0 1 1 9t0.5 13t-2.5 12t-8.5 10.5t-16.5 3.5q-40 0 -78.5 -49t-59.5 -110t-21 -105
q0 -41 22.5 -64.5t61.5 -23.5q75 0 132 84zM270 513l-37 155h11l82 -99l156 99h13l-152 -155h-73z" />
    <glyph glyph-name="Dcaron" unicode="&#x10e;" horiz-adv-x="781" 
d="M139 167l101 377q28 105 -62 105h-8l8 33h267q90 0 143.5 -18.5t96.5 -61.5q87 -87 87 -220q0 -96 -44.5 -182t-132.5 -143t-200 -57h-381l9 34q51 11 74.5 38t41.5 95zM367 644l-135 -490q-16 -56 13.5 -86t85.5 -30h25q134 0 202 68q53 53 79 127t26 149
q0 111 -59 186.5t-169 75.5h-68zM453 751l-37 155h11l82 -99l156 99h13l-152 -155h-73z" />
    <glyph glyph-name="dcaron" unicode="&#x10f;" horiz-adv-x="520" 
d="M466 124h32q-24 -59 -62 -96.5t-72 -37.5q-42 0 -55.5 31t9.5 101l-2 2q-30 -62 -77.5 -98t-101.5 -36q-44 0 -73.5 33.5t-29.5 85.5q0 64 39 141.5t107.5 135.5t139.5 58q45 0 82 -20l49 181q7 27 -5.5 35t-73.5 8l11 34q119 0 156 11h12l-169 -610q-4 -14 0 -24t14 -10
q15 0 31 17.5t39 57.5zM114 141q0 -86 79 -86q39 0 81.5 52.5t68.5 116t26 103.5q0 39 -18.5 59t-49.5 20q-49 0 -94 -48.5t-69 -109t-24 -107.5zM550 453v29q56 5 85.5 31t29.5 59q0 14 -10.5 23t-22.5 13.5t-22.5 15t-10.5 26.5q0 21 15.5 33t38.5 12q31 0 53 -26t22 -61
q0 -57 -47.5 -101t-130.5 -54z" />
    <glyph glyph-name="Dcroat" unicode="&#x110;" horiz-adv-x="781" 
d="M178 682h267q90 0 143.5 -18.5t96.5 -61.5q87 -87 87 -220q0 -96 -44.5 -182t-132.5 -143t-200 -57h-381l9 34q50 11 73.5 38t42.5 95l47 168h-90l9 40h90l45 169q28 105 -62 105h-8zM367 644l-74 -269h168l-9 -40h-168l-52 -181q-16 -57 13.5 -86.5t85.5 -29.5h25
q134 0 202 68q53 53 79 127t26 149q0 111 -59 186.5t-169 75.5h-68z" />
    <glyph glyph-name="dcroat" unicode="&#x111;" horiz-adv-x="500" 
d="M262 521l11 40h166l12 44q7 27 -5.5 35t-73.5 8l11 34q119 0 156 11h12l-37 -132h54l-11 -40h-54l-121 -438q-4 -14 0 -24t14 -10q15 0 31 17.5t39 57.5h32q-24 -59 -62 -96.5t-72 -37.5q-42 0 -55.5 31t9.5 101l-2 2q-30 -62 -77.5 -98t-101.5 -36q-44 0 -73.5 33.5
t-29.5 85.5q0 64 39 141.5t107.5 135.5t139.5 58q45 0 82 -20l26 97h-166zM114 141q0 -86 79 -86q39 0 81.5 52.5t68.5 116t26 103.5q0 39 -18.5 59t-49.5 20q-49 0 -94 -48.5t-69 -109t-24 -107.5z" />
    <glyph glyph-name="Emacron" unicode="&#x112;" horiz-adv-x="656" 
d="M595 164h40l-74 -164h-560l10 34q49 7 75.5 34t40.5 81l105 392q12 47 -7.5 77t-67.5 30l10 34h536l-42 -158q-19 5 -37 0q4 59 -16.5 89.5t-79.5 30.5h-169l-72 -267h101q77 0 112.5 18t65.5 71h33l-63 -236h-30q-8 62 -30.5 85.5t-73.5 23.5h-125l-51 -187
q-15 -55 4.5 -84.5t93.5 -29.5h29q77 0 133.5 29.5t108.5 96.5zM360 858h293l-19 -63h-293z" />
    <glyph glyph-name="emacron" unicode="&#x113;" horiz-adv-x="385" 
d="M323 139h39q-36 -70 -89.5 -109.5t-112.5 -39.5q-57 0 -90.5 34t-33.5 93q0 71 43.5 149t105.5 128t115 50q35 0 56.5 -21t21.5 -56q0 -58 -62.5 -111t-202.5 -79q-8 -60 13 -89.5t63 -29.5q39 0 76.5 22.5t57.5 58.5zM315 346q0 21 -14 35.5t-34 14.5q-44 0 -82 -47.5
t-66 -136.5q96 15 146 53.5t50 80.5zM160 620h293l-19 -63h-293z" />
    <glyph glyph-name="Ebreve" unicode="&#x114;" horiz-adv-x="656" 
d="M595 164h40l-74 -164h-560l10 34q49 7 75.5 34t40.5 81l105 392q12 47 -7.5 77t-67.5 30l10 34h536l-42 -158q-19 5 -37 0q4 59 -16.5 89.5t-79.5 30.5h-169l-72 -267h101q77 0 112.5 18t65.5 71h33l-63 -236h-30q-8 62 -30.5 85.5t-73.5 23.5h-125l-51 -187
q-15 -55 4.5 -84.5t93.5 -29.5h29q77 0 133.5 29.5t108.5 96.5zM642 902h14q-29 -66 -75 -105t-94 -39q-50 0 -78.5 38t-29.5 106h15q15 -73 97 -73t151 73z" />
    <glyph glyph-name="ebreve" unicode="&#x115;" horiz-adv-x="385" 
d="M323 139h39q-36 -70 -89.5 -109.5t-112.5 -39.5q-57 0 -90.5 34t-33.5 93q0 71 43.5 149t105.5 128t115 50q35 0 56.5 -21t21.5 -56q0 -58 -62.5 -111t-202.5 -79q-8 -60 13 -89.5t63 -29.5q39 0 76.5 22.5t57.5 58.5zM315 346q0 21 -14 35.5t-34 14.5q-44 0 -82 -47.5
t-66 -136.5q96 15 146 53.5t50 80.5zM442 664h14q-29 -66 -75 -105t-94 -39q-50 0 -78.5 38t-29.5 106h15q15 -73 97 -73t151 73z" />
    <glyph glyph-name="Edotaccent" unicode="&#x116;" horiz-adv-x="656" 
d="M595 164h40l-74 -164h-560l10 34q49 7 75.5 34t40.5 81l105 392q12 47 -7.5 77t-67.5 30l10 34h536l-42 -158q-19 5 -37 0q4 59 -16.5 89.5t-79.5 30.5h-169l-72 -267h101q77 0 112.5 18t65.5 71h33l-63 -236h-30q-8 62 -30.5 85.5t-73.5 23.5h-125l-51 -187
q-15 -55 4.5 -84.5t93.5 -29.5h29q77 0 133.5 29.5t108.5 96.5zM491 858q22 0 37.5 -15t15.5 -37t-15.5 -37.5t-37.5 -15.5t-37 15.5t-15 37.5t15 37t37 15z" />
    <glyph glyph-name="edotaccent" unicode="&#x117;" horiz-adv-x="385" 
d="M323 139h39q-36 -70 -89.5 -109.5t-112.5 -39.5q-57 0 -90.5 34t-33.5 93q0 71 43.5 149t105.5 128t115 50q35 0 56.5 -21t21.5 -56q0 -58 -62.5 -111t-202.5 -79q-8 -60 13 -89.5t63 -29.5q39 0 76.5 22.5t57.5 58.5zM315 346q0 21 -14 35.5t-34 14.5q-44 0 -82 -47.5
t-66 -136.5q96 15 146 53.5t50 80.5zM315 620q22 0 37.5 -15t15.5 -37t-15.5 -37.5t-37.5 -15.5t-37 15.5t-15 37.5t15 37t37 15z" />
    <glyph glyph-name="Eogonek" unicode="&#x118;" horiz-adv-x="656" 
d="M484 0h-483l10 34q49 7 75.5 34t40.5 81l105 392q12 47 -7.5 77t-67.5 30l10 34h536l-42 -158q-19 5 -37 0q4 59 -16.5 89.5t-79.5 30.5h-169l-72 -267h101q77 0 112.5 18t65.5 71h33l-63 -236h-30q-8 62 -30.5 85.5t-73.5 23.5h-125l-51 -187q-15 -55 4.5 -84.5
t93.5 -29.5h29q77 0 133.5 29.5t108.5 96.5h40l-74 -164h-52q-13 -31 -13 -51q0 -39 29 -65t73 -26q24 0 60 12l10 -14q-63 -40 -111 -40q-50 0 -81.5 27t-31.5 70q0 46 40 87z" />
    <glyph glyph-name="eogonek" unicode="&#x119;" horiz-adv-x="385" 
d="M323 139h39q-33 -64 -81 -102.5t-102 -45.5q-9 -23 -9 -42q0 -39 29 -65t73 -26q24 0 60 12l10 -14q-63 -40 -111 -40q-50 0 -81.5 27t-31.5 70q0 41 31 78q-53 3 -83 36.5t-30 89.5q0 71 43.5 149t105.5 128t115 50q35 0 56.5 -21t21.5 -56q0 -58 -62.5 -111t-202.5 -79
q-8 -60 13 -89.5t63 -29.5q39 0 76.5 22.5t57.5 58.5zM315 346q0 21 -14 35.5t-34 14.5q-44 0 -82 -47.5t-66 -136.5q96 15 146 53.5t50 80.5z" />
    <glyph glyph-name="Ecaron" unicode="&#x11a;" horiz-adv-x="656" 
d="M595 164h40l-74 -164h-560l10 34q49 7 75.5 34t40.5 81l105 392q12 47 -7.5 77t-67.5 30l10 34h536l-42 -158q-19 5 -37 0q4 59 -16.5 89.5t-79.5 30.5h-169l-72 -267h101q77 0 112.5 18t65.5 71h33l-63 -236h-30q-8 62 -30.5 85.5t-73.5 23.5h-125l-51 -187
q-15 -55 4.5 -84.5t93.5 -29.5h29q77 0 133.5 29.5t108.5 96.5zM424 751l-37 155h11l82 -99l156 99h13l-152 -155h-73z" />
    <glyph glyph-name="ecaron" unicode="&#x11b;" horiz-adv-x="385" 
d="M323 139h39q-36 -70 -89.5 -109.5t-112.5 -39.5q-57 0 -90.5 34t-33.5 93q0 71 43.5 149t105.5 128t115 50q35 0 56.5 -21t21.5 -56q0 -58 -62.5 -111t-202.5 -79q-8 -60 13 -89.5t63 -29.5q39 0 76.5 22.5t57.5 58.5zM315 346q0 21 -14 35.5t-34 14.5q-44 0 -82 -47.5
t-66 -136.5q96 15 146 53.5t50 80.5zM268 513l-37 155h11l82 -99l156 99h13l-152 -155h-73z" />
    <glyph glyph-name="Gcircumflex" unicode="&#x11c;" horiz-adv-x="792" 
d="M512 350h293l-9 -34q-53 -3 -76.5 -33t-38.5 -87l-41 -156q-51 -22 -122.5 -36t-131.5 -14q-130 0 -215.5 81t-85.5 204q0 73 35 147.5t95 134.5t149 98t187 38q66 0 119.5 -14.5t127.5 -46.5l-35 -157h-43q2 83 -43.5 131.5t-132.5 48.5q-104 0 -184.5 -59.5t-120 -150
t-39.5 -192.5q0 -104 53.5 -162t148.5 -58q84 0 148 43l29 108q10 38 10 65.5t-20.5 44.5t-65.5 22zM638 905l37 -155h-11l-82 99l-156 -99h-13l152 155h73z" />
    <glyph glyph-name="gcircumflex" unicode="&#x11d;" horiz-adv-x="448" 
d="M95 256q0 25 11.5 55.5t33 61t61 51t88.5 20.5q35 0 67 -14q35 9 51 11q21 3 32 3q50 0 50 -42q0 -23 -4 -31t-16 -8q-17 0 -33.5 21.5t-42.5 16.5q29 -32 29 -79q0 -69 -56.5 -122t-129.5 -53q-4 0 -17.5 1t-24.5 1q-68 -26 -68 -49q0 -15 24 -25t58.5 -17.5t69 -19
t58.5 -37.5t24 -65q0 -54 -50 -90.5t-162 -36.5q-92 0 -133 31t-41 68q0 30 26.5 56.5t85.5 55.5q-27 20 -27 48q0 59 96 95q-60 34 -60 93zM273 407q-45 0 -74 -47.5t-29 -100.5q0 -34 17.5 -54.5t46.5 -20.5q46 0 78.5 42.5t32.5 103.5q0 34 -20 55.5t-52 21.5zM123 0
q-50 -23 -70.5 -43t-20.5 -47q0 -32 34 -49.5t96 -17.5q134 0 134 67q0 25 -19.5 41.5t-42.5 22.5t-59.5 13.5t-51.5 12.5zM412 667l37 -155h-11l-82 99l-156 -99h-13l152 155h73z" />
    <glyph glyph-name="Gbreve" unicode="&#x11e;" horiz-adv-x="792" 
d="M512 350h293l-9 -34q-53 -3 -76.5 -33t-38.5 -87l-41 -156q-51 -22 -122.5 -36t-131.5 -14q-130 0 -215.5 81t-85.5 204q0 73 35 147.5t95 134.5t149 98t187 38q66 0 119.5 -14.5t127.5 -46.5l-35 -157h-43q2 83 -43.5 131.5t-132.5 48.5q-104 0 -184.5 -59.5t-120 -150
t-39.5 -192.5q0 -104 53.5 -162t148.5 -58q84 0 148 43l29 108q10 38 10 65.5t-20.5 44.5t-65.5 22zM714 902h14q-29 -66 -75 -105t-94 -39q-50 0 -78.5 38t-29.5 106h15q15 -73 97 -73t151 73z" />
    <glyph glyph-name="gbreve" unicode="&#x11f;" horiz-adv-x="448" 
d="M95 256q0 25 11.5 55.5t33 61t61 51t88.5 20.5q35 0 67 -14q35 9 51 11q21 3 32 3q50 0 50 -42q0 -23 -4 -31t-16 -8q-17 0 -33.5 21.5t-42.5 16.5q29 -32 29 -79q0 -69 -56.5 -122t-129.5 -53q-4 0 -17.5 1t-24.5 1q-68 -26 -68 -49q0 -15 24 -25t58.5 -17.5t69 -19
t58.5 -37.5t24 -65q0 -54 -50 -90.5t-162 -36.5q-92 0 -133 31t-41 68q0 30 26.5 56.5t85.5 55.5q-27 20 -27 48q0 59 96 95q-60 34 -60 93zM273 407q-45 0 -74 -47.5t-29 -100.5q0 -34 17.5 -54.5t46.5 -20.5q46 0 78.5 42.5t32.5 103.5q0 34 -20 55.5t-52 21.5zM123 0
q-50 -23 -70.5 -43t-20.5 -47q0 -32 34 -49.5t96 -17.5q134 0 134 67q0 25 -19.5 41.5t-42.5 22.5t-59.5 13.5t-51.5 12.5zM474 664h14q-29 -66 -75 -105t-94 -39q-50 0 -78.5 38t-29.5 106h15q15 -73 97 -73t151 73z" />
    <glyph glyph-name="Gdotaccent" unicode="&#x120;" horiz-adv-x="792" 
d="M512 350h293l-9 -34q-53 -3 -76.5 -33t-38.5 -87l-41 -156q-51 -22 -122.5 -36t-131.5 -14q-130 0 -215.5 81t-85.5 204q0 73 35 147.5t95 134.5t149 98t187 38q66 0 119.5 -14.5t127.5 -46.5l-35 -157h-43q2 83 -43.5 131.5t-132.5 48.5q-104 0 -184.5 -59.5t-120 -150
t-39.5 -192.5q0 -104 53.5 -162t148.5 -58q84 0 148 43l29 108q10 38 10 65.5t-20.5 44.5t-65.5 22zM559 858q22 0 37.5 -15t15.5 -37t-15.5 -37.5t-37.5 -15.5t-37 15.5t-15 37.5t15 37t37 15z" />
    <glyph glyph-name="gdotaccent" unicode="&#x121;" horiz-adv-x="448" 
d="M95 256q0 25 11.5 55.5t33 61t61 51t88.5 20.5q35 0 67 -14q35 9 51 11q21 3 32 3q50 0 50 -42q0 -23 -4 -31t-16 -8q-17 0 -33.5 21.5t-42.5 16.5q29 -32 29 -79q0 -69 -56.5 -122t-129.5 -53q-4 0 -17.5 1t-24.5 1q-68 -26 -68 -49q0 -15 24 -25t58.5 -17.5t69 -19
t58.5 -37.5t24 -65q0 -54 -50 -90.5t-162 -36.5q-92 0 -133 31t-41 68q0 30 26.5 56.5t85.5 55.5q-27 20 -27 48q0 59 96 95q-60 34 -60 93zM273 407q-45 0 -74 -47.5t-29 -100.5q0 -34 17.5 -54.5t46.5 -20.5q46 0 78.5 42.5t32.5 103.5q0 34 -20 55.5t-52 21.5zM123 0
q-50 -23 -70.5 -43t-20.5 -47q0 -32 34 -49.5t96 -17.5q134 0 134 67q0 25 -19.5 41.5t-42.5 22.5t-59.5 13.5t-51.5 12.5zM323 620q22 0 37.5 -15t15.5 -37t-15.5 -37.5t-37.5 -15.5t-37 15.5t-15 37.5t15 37t37 15z" />
    <glyph glyph-name="Gcommaaccent" unicode="&#x122;" horiz-adv-x="792" 
d="M512 350h293l-9 -34q-53 -3 -76.5 -33t-38.5 -87l-41 -156q-51 -22 -122.5 -36t-131.5 -14q-130 0 -215.5 81t-85.5 204q0 73 35 147.5t95 134.5t149 98t187 38q66 0 119.5 -14.5t127.5 -46.5l-35 -157h-43q2 83 -43.5 131.5t-132.5 48.5q-104 0 -184.5 -59.5t-120 -150
t-39.5 -192.5q0 -104 53.5 -162t148.5 -58q84 0 148 43l29 108q10 38 10 65.5t-20.5 44.5t-65.5 22zM226 -199v28q40 -1 69 14t29 44q0 13 -14 18q-31 14 -34 33q-1 4 -1 8q0 16 13 27t31 11q25 0 44.5 -20t19.5 -48q0 -39 -38 -77.5t-119 -37.5z" />
    <glyph glyph-name="gcommaaccent" unicode="&#x123;" horiz-adv-x="448" 
d="M95 256q0 25 11.5 55.5t33 61t61 51t88.5 20.5q35 0 67 -14q35 9 51 11q21 3 32 3q50 0 50 -42q0 -23 -4 -31t-16 -8q-17 0 -33.5 21.5t-42.5 16.5q29 -32 29 -79q0 -69 -56.5 -122t-129.5 -53q-4 0 -17.5 1t-24.5 1q-68 -26 -68 -49q0 -15 24 -25t58.5 -17.5t69 -19
t58.5 -37.5t24 -65q0 -54 -50 -90.5t-162 -36.5q-92 0 -133 31t-41 68q0 30 26.5 56.5t85.5 55.5q-27 20 -27 48q0 59 96 95q-60 34 -60 93zM273 407q-45 0 -74 -47.5t-29 -100.5q0 -34 17.5 -54.5t46.5 -20.5q46 0 78.5 42.5t32.5 103.5q0 34 -20 55.5t-52 21.5zM123 0
q-50 -23 -70.5 -43t-20.5 -47q0 -32 34 -49.5t96 -17.5q134 0 134 67q0 25 -19.5 41.5t-42.5 22.5t-59.5 13.5t-51.5 12.5zM414 690v-28q-40 1 -69 -14t-29 -44q0 -13 14 -18q31 -14 34 -33q1 -4 1 -8q0 -16 -13 -27t-31 -11q-25 0 -44.5 20t-19.5 48q0 39 38 77.5t119 37.5
z" />
    <glyph glyph-name="Hcircumflex" unicode="&#x124;" horiz-adv-x="823" 
d="M280 328l-52 -195q-13 -48 4 -73.5t59 -25.5l-9 -34h-278l9 34q54 6 81.5 37.5t43.5 94.5l99 372q13 50 -3.5 80t-65.5 30l9 34h280l-9 -34q-43 -3 -71 -33t-40 -73l-44 -164h345l43 160q14 51 -2.5 80.5t-60.5 29.5h-6l9 34h281l-9 -34q-86 -12 -115 -118l-98 -364
q-9 -33 -11.5 -52t1 -38.5t20.5 -29t49 -12.5l-9 -34h-278l9 34q54 8 79 39t42 93l43 162h-345zM654 905l37 -155h-11l-82 99l-156 -99h-13l152 155h73z" />
    <glyph glyph-name="hcircumflex" unicode="&#x125;" horiz-adv-x="521" 
d="M472 319l-84 -234q-4 -13 -1.5 -21.5t10.5 -8.5q32 0 75 73h34q-23 -55 -71 -96.5t-89 -41.5q-29 0 -39.5 24.5t2.5 63.5l92 265q8 21 3.5 38t-19.5 17q-28 0 -76 -48q-61 -61 -123.5 -164t-81.5 -186h-75l184 601q10 31 -5 39t-78 8l11 34q121 0 164 11h10l-149 -484
l2 -2q73 126 131 181.5t117 55.5q30 0 49.5 -18.5t19.5 -47.5q0 -22 -13 -59zM354 884l37 -155h-11l-82 99l-156 -99h-13l152 155h73z" />
    <glyph glyph-name="Hbar" unicode="&#x126;" horiz-adv-x="823" 
d="M166 499h60l11 39q13 50 -3.5 80t-65.5 30l9 34h280l-9 -34q-43 -3 -71 -33t-40 -73l-12 -43h345l11 39q14 51 -2.5 80.5t-60.5 29.5h-6l9 34h281l-9 -34q-86 -12 -115 -118l-9 -31h59l-13 -41h-57l-78 -292q-9 -33 -11.5 -52t1 -38.5t20.5 -29t49 -12.5l-9 -34h-278
l9 34q54 8 79 39t42 93l43 162h-345l-52 -195q-13 -48 4 -73.5t59 -25.5l-9 -34h-278l9 34q54 6 81.5 37.5t43.5 94.5l77 292h-62zM293 378h345l21 80h-345z" />
    <glyph glyph-name="hbar" unicode="&#x127;" horiz-adv-x="521" 
d="M128 557h71l14 44q10 31 -5 39t-78 8l11 34q121 0 164 11h10l-42 -136h148l-14 -41h-147l-94 -307l2 -2q73 126 131 181.5t117 55.5q30 0 49.5 -18.5t19.5 -47.5q0 -22 -13 -59l-84 -234q-4 -13 -1.5 -21.5t10.5 -8.5q32 0 75 73h34q-23 -55 -71 -96.5t-89 -41.5
q-29 0 -39.5 24.5t2.5 63.5l92 265q8 21 3.5 38t-19.5 17q-28 0 -76 -48q-61 -61 -123.5 -164t-81.5 -186h-75l158 516h-73z" />
    <glyph glyph-name="Itilde" unicode="&#x128;" horiz-adv-x="375" 
d="M180 682h270l-9 -34q-82 -13 -109 -117l-106 -397q-23 -87 75 -100l-9 -34h-288l9 34q52 7 79 36t44 96l98 364q28 107 -63 118zM471 890h15q0 -58 -25 -93.5t-66 -35.5q-36 0 -88.5 34t-69.5 34q-20 0 -30 -14t-17 -52h-15q0 58 26 93t66 35q31 0 88 -34.5t69 -34.5
q40 0 47 68z" />
    <glyph glyph-name="itilde" unicode="&#x129;" horiz-adv-x="271" 
d="M222 321l-82 -237q-5 -14 -2 -24t11 -10q32 0 83 81h33q-33 -65 -76 -103t-81 -38q-33 0 -45 31.5t3 72.5l80 234q19 57 -6 57q-38 0 -78 -79h-31q69 138 153 138q24 0 38 -14.5t14 -39.5t-14 -69zM341 652h15q0 -58 -25 -93.5t-66 -35.5q-36 0 -88.5 34t-69.5 34
q-20 0 -30 -14t-17 -52h-15q0 58 26 93t66 35q30 0 87.5 -34.5t69.5 -34.5q40 0 47 68z" />
    <glyph glyph-name="Imacron" unicode="&#x12a;" horiz-adv-x="375" 
d="M180 682h270l-9 -34q-82 -13 -109 -117l-106 -397q-23 -87 75 -100l-9 -34h-288l9 34q52 7 79 36t44 96l98 364q28 107 -63 118zM219 858h293l-19 -63h-293z" />
    <glyph glyph-name="imacron" unicode="&#x12b;" horiz-adv-x="271" 
d="M222 321l-82 -237q-5 -14 -2 -24t11 -10q32 0 83 81h33q-33 -65 -76 -103t-81 -38q-33 0 -45 31.5t3 72.5l80 234q19 57 -6 57q-38 0 -78 -79h-31q69 138 153 138q24 0 38 -14.5t14 -39.5t-14 -69zM70 620h293l-19 -63h-293z" />
    <glyph glyph-name="Ibreve" unicode="&#x12c;" horiz-adv-x="375" 
d="M180 682h270l-9 -34q-82 -13 -109 -117l-106 -397q-23 -87 75 -100l-9 -34h-288l9 34q52 7 79 36t44 96l98 364q28 107 -63 118zM501 902h14q-29 -66 -75 -105t-94 -39q-50 0 -78.5 38t-29.5 106h15q15 -73 97 -73t151 73z" />
    <glyph glyph-name="ibreve" unicode="&#x12d;" horiz-adv-x="271" 
d="M222 321l-82 -237q-5 -14 -2 -24t11 -10q32 0 83 81h33q-33 -65 -76 -103t-81 -38q-33 0 -45 31.5t3 72.5l80 234q19 57 -6 57q-38 0 -78 -79h-31q69 138 153 138q24 0 38 -14.5t14 -39.5t-14 -69zM357 664h14q-29 -66 -75 -105t-94 -39q-50 0 -78.5 38t-29.5 106h15
q15 -73 97 -73t151 73z" />
    <glyph glyph-name="Iogonek" unicode="&#x12e;" horiz-adv-x="375" 
d="M136 0h-132l9 34q52 7 79 36t44 96l98 364q28 107 -63 118l9 34h270l-9 -34q-82 -13 -109 -117l-106 -397q-23 -87 75 -100l-9 -34h-131q-13 -31 -13 -51q0 -39 29 -65t73 -26q24 0 60 12l10 -14q-63 -40 -111 -40q-50 0 -81.5 27t-31.5 70q0 46 40 87z" />
    <glyph glyph-name="iogonek" unicode="&#x12f;" horiz-adv-x="271" 
d="M222 321l-82 -237q-5 -14 -2 -24t11 -10q32 0 83 81h33q-30 -58 -67.5 -94.5t-73.5 -44.5q-9 -23 -9 -43q0 -39 29 -65t73 -26q24 0 60 12l10 -14q-63 -40 -111 -40q-50 0 -81.5 27t-31.5 70t32 79q-25 6 -33.5 35.5t4.5 66.5l80 234q19 57 -6 57q-38 0 -78 -79h-31
q69 138 153 138q24 0 38 -14.5t14 -39.5t-14 -69zM209 642q0 21 15 36t36 15t36 -15t15 -36t-15 -36t-36 -15t-36 15t-15 36z" />
    <glyph glyph-name="Idotaccent" unicode="&#x130;" horiz-adv-x="375" 
d="M180 682h270l-9 -34q-82 -13 -109 -117l-106 -397q-23 -87 75 -100l-9 -34h-288l9 34q52 7 79 36t44 96l98 364q28 107 -63 118zM343 858q22 0 37.5 -15t15.5 -37t-15.5 -37.5t-37.5 -15.5t-37 15.5t-15 37.5t15 37t37 15z" />
    <glyph glyph-name="dotlessi" unicode="&#x131;" horiz-adv-x="271" 
d="M222 321l-82 -237q-5 -14 -2 -24t11 -10q32 0 83 81h33q-33 -65 -76 -103t-81 -38q-33 0 -45 31.5t3 72.5l80 234q19 57 -6 57q-38 0 -78 -79h-31q69 138 153 138q24 0 38 -14.5t14 -39.5t-14 -69z" />
    <glyph glyph-name="IJ" unicode="&#x132;" horiz-adv-x="854" 
d="M180 682h270l-9 -34q-82 -13 -109 -117l-106 -397q-23 -87 75 -100l-9 -34h-288l9 34q52 7 79 36t44 96l98 364q28 107 -63 118zM550 339l14 50h127q14 50 26 79.5t37 70.5q-33 -3 -66.5 18.5t-63.5 44.5t-52 23q-20 0 -34 -14.5t-14 -28.5q0 -16 28.5 -34t28.5 -42
q0 -20 -15.5 -34.5t-37.5 -14.5q-26 0 -42.5 21.5t-16.5 54.5q0 54 43 107t110 53q39 0 65.5 -19t51 -43t50.5 -32q18 44 41.5 69t47.5 25q39 0 39 -45q0 -53 -81 -91l-48 -168h80l-14 -50h-80q-67 -247 -97 -328t-80 -131q-71 -71 -189 -71q-53 0 -84.5 19t-31.5 51
q0 19 11 31t28 12q20 0 35.5 -17t35.5 -34t51 -17q40 0 69 29q22 22 38 57.5t26.5 73.5t37 136.5t53.5 188.5h-127z" />
    <glyph glyph-name="ij" unicode="&#x133;" horiz-adv-x="511" 
d="M222 321l-82 -237q-5 -14 -2 -24t11 -10q32 0 83 81h33q-33 -65 -76 -103t-81 -38q-33 0 -45 31.5t3 72.5l80 234q19 57 -6 57q-38 0 -78 -79h-31q69 138 153 138q24 0 38 -14.5t14 -39.5t-14 -69zM209 642q0 21 15 36t36 15t36 -15t15 -36t-15 -36t-36 -15t-36 15
t-15 36zM333 309h-32q27 59 67.5 97t76.5 38q75 0 43 -118l-78 -281q-16 -56 -31 -94t-38 -73t-55.5 -52t-75.5 -17q-32 0 -52.5 14.5t-20.5 37.5q0 16 12 27t30 11q17 0 26.5 -8.5t12.5 -18t10.5 -18t20.5 -8.5q31 0 58 99l111 397q5 16 2 28.5t-14 12.5q-14 0 -34.5 -21
t-38.5 -53zM462 642q0 21 15 36t36 15t36 -15t15 -36t-15 -36t-36 -15t-36 15t-15 36z" />
    <glyph glyph-name="Jcircumflex" unicode="&#x134;" horiz-adv-x="479" 
d="M175 339l14 50h127q23 83 63 150q-33 -3 -66.5 18.5t-63.5 44.5t-52 23q-20 0 -34 -14.5t-14 -28.5q0 -16 28.5 -34t28.5 -42q0 -20 -15.5 -34.5t-37.5 -14.5q-26 0 -42.5 21.5t-16.5 54.5q0 54 43 107t110 53q39 0 65.5 -19t51 -43t50.5 -32q18 44 41.5 69t47.5 25
q39 0 39 -45q0 -53 -81 -91l-48 -168h80l-14 -50h-80q-67 -247 -97 -328t-80 -131q-71 -71 -189 -71q-53 0 -84.5 19t-31.5 51q0 19 11 31t28 12q20 0 35.5 -17t35.5 -34t51 -17q40 0 69 29q22 22 38 57.5t26.5 73.5t37 136.5t53.5 188.5h-127zM482 905l37 -155h-11l-82 99
l-156 -99h-13l152 155h73z" />
    <glyph glyph-name="jcircumflex" unicode="&#x135;" horiz-adv-x="240" 
d="M63 309h-32q27 59 67.5 97t76.5 38q75 0 43 -118l-78 -281q-16 -56 -31 -94t-38 -73t-55.5 -52t-75.5 -17q-32 0 -52.5 14.5t-20.5 37.5q0 16 12 27t30 11q17 0 26.5 -8.5t12.5 -18t10.5 -18t20.5 -8.5q17 0 30 22.5t28 76.5l111 397q5 16 2 28.5t-14 12.5
q-14 0 -34.5 -21t-38.5 -53zM275 667l37 -155h-11l-82 99l-156 -99h-13l152 155h73z" />
    <glyph glyph-name="Kcommaaccent" unicode="&#x136;" horiz-adv-x="771" 
d="M173 682h285l-9 -34q-51 -6 -78 -35.5t-41 -81.5l-101 -375q-15 -56 3.5 -89t71.5 -33l-9 -34h-298l9 34q93 6 123 116l103 384q15 45 0.5 79.5t-59.5 34.5h-9zM291 352q285 169 325 209q24 24 24 44q0 39 -64 43l9 34h288l-10 -38q-54 -5 -104 -35t-151.5 -103
t-213.5 -137q19 -14 92 -100.5t104 -117.5q61 -61 98 -85t81 -28l-10 -38h-147q-31 21 -65 55q-39 39 -256 297zM288 -199v28q40 -1 69 14t29 44q0 13 -14 18q-31 14 -34 33q-1 4 -1 8q0 16 13 27t31 11q25 0 44.5 -20t19.5 -48q0 -39 -38 -77.5t-119 -37.5z" />
    <glyph glyph-name="kcommaaccent" unicode="&#x137;" horiz-adv-x="521" 
d="M164 190l-58 -190h-74l183 600q10 31 -4.5 39.5t-74.5 8.5l10 34q114 0 160 11h12l-110 -356l2 -2q97 109 185 109q42 0 68.5 -25t26.5 -64q0 -103 -179 -149l38 -86q17 -38 27 -51.5t21 -13.5q32 0 71 76h33q-29 -62 -65.5 -101.5t-65.5 -39.5q-22 0 -38 17t-35 61
l-57 128zM415 341q0 19 -16 32.5t-39 13.5q-53 0 -107.5 -45t-79.5 -123q109 4 175.5 38t66.5 84zM91 -199v28q40 -1 69 14t29 44q0 13 -14 18q-31 14 -34 33q-1 4 -1 8q0 16 13 27t31 11q25 0 44.5 -20t19.5 -48q0 -39 -38 -77.5t-119 -37.5z" />
    <glyph glyph-name="kgreenlandic" unicode="&#x138;" horiz-adv-x="521" 
d="M164 190l-58 -190h-74l105 351q10 31 -4.5 39.5t-74.5 8.5l10 34q114 0 160 11h13l-33 -107l2 -2q97 109 185 109q42 0 68.5 -25t26.5 -64q0 -103 -179 -149l38 -86q17 -38 27 -51.5t21 -13.5q32 0 71 76h33q-29 -62 -65.5 -101.5t-65.5 -39.5q-22 0 -38 17t-35 61
l-57 128zM415 341q0 19 -16 32.5t-39 13.5q-53 0 -107.5 -45t-79.5 -123q109 4 175.5 38t66.5 84z" />
    <glyph glyph-name="Lacute" unicode="&#x139;" horiz-adv-x="646" 
d="M186 682h269l-9 -34q-45 -7 -75.5 -42.5t-44.5 -89.5l-100 -371q-15 -54 3 -80.5t76 -26.5h71q73 0 124 29.5t106 100.5h43l-75 -168h-561l9 32q79 16 105 114l105 393q12 46 -1 75.5t-54 33.5zM487 920h108l-146 -165h-16z" />
    <glyph glyph-name="lacute" unicode="&#x13a;" horiz-adv-x="240" 
d="M37 101l152 499q5 16 5.5 23t-6 14t-24.5 9t-52 2l11 34q114 0 158 11h11l-184 -602q-6 -19 -2.5 -30t13.5 -11q16 0 40 24t44 53h34q-35 -59 -78 -98t-82 -39q-73 0 -40 111zM288 909h108l-146 -165h-16z" />
    <glyph glyph-name="Lcommaaccent" unicode="&#x13b;" horiz-adv-x="646" 
d="M186 682h269l-9 -34q-45 -7 -75.5 -42.5t-44.5 -89.5l-100 -371q-15 -54 3 -80.5t76 -26.5h71q73 0 124 29.5t106 100.5h43l-75 -168h-561l9 32q79 16 105 114l105 393q12 46 -1 75.5t-54 33.5zM201 -199v28q40 -1 69 14t29 44q0 13 -14 18q-31 14 -34 33q-1 4 -1 8
q0 16 13 27t31 11q25 0 44.5 -20t19.5 -48q0 -39 -38 -77.5t-119 -37.5z" />
    <glyph glyph-name="lcommaaccent" unicode="&#x13c;" horiz-adv-x="240" 
d="M37 101l152 499q5 16 5.5 23t-6 14t-24.5 9t-52 2l11 34q114 0 158 11h11l-184 -602q-6 -19 -2.5 -30t13.5 -11q16 0 40 24t44 53h34q-35 -59 -78 -98t-82 -39q-73 0 -40 111zM-50 -199v28q40 -1 69 14t29 44q0 13 -14 18q-31 14 -34 33q-1 4 -1 8q0 16 13 27t31 11
q25 0 44.5 -20t19.5 -48q0 -39 -38 -77.5t-119 -37.5z" />
    <glyph glyph-name="Lcaron" unicode="&#x13d;" horiz-adv-x="646" 
d="M186 682h269l-9 -34q-45 -7 -75.5 -42.5t-44.5 -89.5l-100 -371q-15 -54 3 -80.5t76 -26.5h71q73 0 124 29.5t106 100.5h43l-75 -168h-561l9 32q79 16 105 114l105 393q12 46 -1 75.5t-54 33.5zM469 440v29q56 5 85.5 31t29.5 59q0 14 -10.5 23t-22.5 13.5t-22.5 15
t-10.5 26.5q0 21 15.5 33t38.5 12q31 0 53 -26t22 -61q0 -57 -47.5 -101t-130.5 -54z" />
    <glyph glyph-name="lcaron" unicode="&#x13e;" horiz-adv-x="260" 
d="M37 101l152 499q5 16 5.5 23t-6 14t-24.5 9t-52 2l11 34q114 0 158 11h11l-184 -602q-6 -19 -2.5 -30t13.5 -11q16 0 40 24t44 53h34q-35 -59 -78 -98t-82 -39q-73 0 -40 111zM290 453v29q56 5 85.5 31t29.5 59q0 14 -10.5 23t-22.5 13.5t-22.5 15t-10.5 26.5
q0 21 15.5 33t38.5 12q31 0 53 -26t22 -61q0 -57 -47.5 -101t-130.5 -54z" />
    <glyph glyph-name="Ldot" unicode="&#x13f;" horiz-adv-x="646" 
d="M186 682h269l-9 -34q-45 -7 -75.5 -42.5t-44.5 -89.5l-100 -371q-15 -54 3 -80.5t76 -26.5h71q73 0 124 29.5t106 100.5h43l-75 -168h-561l9 32q79 16 105 114l105 393q12 46 -1 75.5t-54 33.5zM436 407q22 0 37.5 -15t15.5 -37t-15.5 -37.5t-37.5 -15.5t-37 15.5
t-15 37.5t15 37t37 15z" />
    <glyph glyph-name="ldot" unicode="&#x140;" horiz-adv-x="285" 
d="M37 101l152 499q5 16 5.5 23t-6 14t-24.5 9t-52 2l11 34q114 0 158 11h11l-184 -602q-6 -19 -2.5 -30t13.5 -11q16 0 40 24t44 53h34q-35 -59 -78 -98t-82 -39q-73 0 -40 111zM302 418q22 0 37.5 -15t15.5 -37t-15.5 -37.5t-37.5 -15.5t-37 15.5t-15 37.5t15 37t37 15z
" />
    <glyph glyph-name="Lslash" unicode="&#x141;" horiz-adv-x="646" 
d="M649 168l-75 -168h-561l9 32q79 16 105 114l34 129l-107 -73l18 68l107 73l53 196q12 46 -1 75.5t-54 33.5l9 34h269l-9 -34q-45 -7 -75.5 -42.5t-44.5 -89.5l-29 -107l141 95l-18 -67l-141 -96l-53 -196q-15 -54 3 -80.5t76 -26.5h71q73 0 124 29.5t106 100.5h43z" />
    <glyph glyph-name="lslash" unicode="&#x142;" horiz-adv-x="240" 
d="M182 333l-74 -242q-6 -19 -2.5 -30t13.5 -11q16 0 40 24t44 53h34q-35 -59 -78 -98t-82 -39q-73 0 -40 111l56 182l-2 2l-79 -55l19 64l82 55l76 251q5 16 5.5 23t-6 14t-24.5 9t-52 2l11 34q114 0 158 11h11l-90 -294l2 -2l105 73l-19 -64z" />
    <glyph glyph-name="Nacute" unicode="&#x143;" horiz-adv-x="813" 
d="M147 682h154q32 -41 98 -155l225 -391l99 368q18 68 -3.5 106t-83.5 38l9 34h248l-9 -34q-52 -5 -79.5 -42t-49.5 -117l-110 -398l55 -91h-113l-229 408q-54 96 -83 139l-92 -366q-37 -146 90 -147l-10 -34h-266l9 34q49 3 78 29.5t48 94.5l115 427q-22 39 -41.5 51
t-58.5 12h-9zM557 920h108l-146 -165h-16z" />
    <glyph glyph-name="nacute" unicode="&#x144;" horiz-adv-x="531" 
d="M481 313l-81 -228q-6 -19 -2.5 -28t13.5 -9q26 0 77 74h30q-38 -67 -73.5 -99.5t-76.5 -32.5q-26 0 -40.5 13t-14.5 35q0 24 16 70l85 248q7 19 0.5 32.5t-21.5 13.5q-29 0 -88.5 -68.5t-114 -165.5t-67.5 -168h-75l102 335q13 45 -15 45q-23 0 -69 -63h-35
q82 127 154 127q77 0 31 -133l-40 -114l2 -2q76 128 134 188.5t118 60.5q52 0 63 -40t-12 -91zM382 682h108l-146 -165h-16z" />
    <glyph glyph-name="Ncommaaccent" unicode="&#x145;" horiz-adv-x="813" 
d="M147 682h154q32 -41 98 -155l225 -391l99 368q18 68 -3.5 106t-83.5 38l9 34h248l-9 -34q-52 -5 -79.5 -42t-49.5 -117l-110 -398l55 -91h-113l-229 408q-54 96 -83 139l-92 -366q-37 -146 90 -147l-10 -34h-266l9 34q49 3 78 29.5t48 94.5l115 427q-22 39 -41.5 51
t-58.5 12h-9zM287 -199v28q40 -1 69 14t29 44q0 13 -14 18q-31 14 -34 33q-1 4 -1 8q0 16 13 27t31 11q25 0 44.5 -20t19.5 -48q0 -39 -38 -77.5t-119 -37.5z" />
    <glyph glyph-name="ncommaaccent" unicode="&#x146;" horiz-adv-x="531" 
d="M481 313l-81 -228q-6 -19 -2.5 -28t13.5 -9q26 0 77 74h30q-38 -67 -73.5 -99.5t-76.5 -32.5q-26 0 -40.5 13t-14.5 35q0 24 16 70l85 248q7 19 0.5 32.5t-21.5 13.5q-29 0 -88.5 -68.5t-114 -165.5t-67.5 -168h-75l102 335q13 45 -15 45q-23 0 -69 -63h-35
q82 127 154 127q77 0 31 -133l-40 -114l2 -2q76 128 134 188.5t118 60.5q52 0 63 -40t-12 -91zM96 -199v28q40 -1 69 14t29 44q0 13 -14 18q-31 14 -34 33q-1 4 -1 8q0 16 13 27t31 11q25 0 44.5 -20t19.5 -48q0 -39 -38 -77.5t-119 -37.5z" />
    <glyph glyph-name="Ncaron" unicode="&#x147;" horiz-adv-x="813" 
d="M147 682h154q32 -41 98 -155l225 -391l99 368q18 68 -3.5 106t-83.5 38l9 34h248l-9 -34q-52 -5 -79.5 -42t-49.5 -117l-110 -398l55 -91h-113l-229 408q-54 96 -83 139l-92 -366q-37 -146 90 -147l-10 -34h-266l9 34q49 3 78 29.5t48 94.5l115 427q-22 39 -41.5 51
t-58.5 12h-9zM503 751l-37 155h11l82 -99l156 99h13l-152 -155h-73z" />
    <glyph glyph-name="ncaron" unicode="&#x148;" horiz-adv-x="531" 
d="M481 313l-81 -228q-6 -19 -2.5 -28t13.5 -9q26 0 77 74h30q-38 -67 -73.5 -99.5t-76.5 -32.5q-26 0 -40.5 13t-14.5 35q0 24 16 70l85 248q7 19 0.5 32.5t-21.5 13.5q-29 0 -88.5 -68.5t-114 -165.5t-67.5 -168h-75l102 335q13 45 -15 45q-23 0 -69 -63h-35
q82 127 154 127q77 0 31 -133l-40 -114l2 -2q76 128 134 188.5t118 60.5q52 0 63 -40t-12 -91zM298 513l-37 155h11l82 -99l156 99h13l-152 -155h-73z" />
    <glyph glyph-name="napostrophe" unicode="&#x149;" horiz-adv-x="531" 
d="M481 313l-81 -228q-6 -19 -2.5 -28t13.5 -9q26 0 77 74h30q-38 -67 -73.5 -99.5t-76.5 -32.5q-26 0 -40.5 13t-14.5 35q0 24 16 70l85 248q7 19 0.5 32.5t-21.5 13.5q-29 0 -88.5 -68.5t-114 -165.5t-67.5 -168h-75l102 335q13 45 -15 45q-23 0 -69 -63h-35
q82 127 154 127q77 0 31 -133l-40 -114l2 -2q76 128 134 188.5t118 60.5q52 0 63 -40t-12 -91zM39 512v28q40 -1 69 14t29 44q0 13 -14 18q-31 14 -34 33q-1 4 -1 8q0 16 13 27t31 11q25 0 44.5 -20t19.5 -48q0 -39 -38 -77.5t-119 -37.5z" />
    <glyph glyph-name="Eng" unicode="&#x14a;" horiz-adv-x="813" 
d="M147 682h154q32 -41 98 -155l225 -391l99 368q18 68 -3.5 106t-83.5 38l9 34h248l-9 -34q-52 -5 -79.5 -42t-49.5 -117l-110 -398l55 -91h-79q-22 -94 -74.5 -142.5t-148.5 -48.5q-49 0 -75 22.5t-26 52.5q0 15 12 26.5t27 11.5q17 0 30.5 -10.5t22 -23.5t26.5 -23.5
t43 -10.5q44 0 77.5 40t51.5 106l-229 408q-54 96 -83 139l-92 -366q-37 -146 90 -147l-10 -34h-266l9 34q49 3 78 29.5t48 94.5l115 427q-22 39 -41.5 51t-58.5 12h-9z" />
    <glyph glyph-name="eng" unicode="&#x14b;" horiz-adv-x="531" 
d="M481 313l-77 -275q-60 -229 -192 -229q-79 0 -79 52q0 6 2 13.5t12.5 16t27.5 8.5q14 0 23.5 -6t12 -11t6.5 -15q6 -21 28 -21q8 0 16 6.5t14.5 19t12.5 25.5t11 31t8.5 30t7.5 28l5 20l93 339q5 21 -0.5 39t-19.5 18q-29 0 -88.5 -68.5t-114 -165.5t-67.5 -168h-75
l102 335q13 45 -15 45q-23 0 -69 -63h-35q82 127 154 127q77 0 31 -133l-40 -114l2 -2q76 128 134 188.5t118 60.5q52 0 63 -40t-12 -91z" />
    <glyph glyph-name="Omacron" unicode="&#x14c;" horiz-adv-x="792" 
d="M789 397q0 -63 -31.5 -133.5t-85 -131.5t-134 -101.5t-168.5 -40.5q-132 0 -206.5 86t-74.5 199q0 72 36 148t94 135t136 97t156 38q119 0 198.5 -85.5t79.5 -210.5zM197 242q0 -99 50.5 -156.5t134.5 -57.5q61 0 113 30.5t85 77t57 102.5t34 105t10 87q0 97 -50.5 161
t-127.5 64q-89 0 -160.5 -62.5t-108.5 -156t-37 -194.5zM428 858h293l-19 -63h-293z" />
    <glyph glyph-name="omacron" unicode="&#x14d;" horiz-adv-x="448" 
d="M35 132q0 112 86.5 212t186.5 100q58 0 90.5 -39.5t32.5 -107.5q0 -70 -37 -141.5t-99 -119t-127 -47.5q-60 0 -96.5 37t-36.5 106zM119 134q0 -107 75 -107q49 0 87 53t54 112t16 100q0 51 -21.5 82.5t-52.5 31.5q-47 0 -84.5 -48t-55.5 -109t-18 -115zM192 620h293
l-19 -63h-293z" />
    <glyph glyph-name="Obreve" unicode="&#x14e;" horiz-adv-x="792" 
d="M789 397q0 -63 -31.5 -133.5t-85 -131.5t-134 -101.5t-168.5 -40.5q-132 0 -206.5 86t-74.5 199q0 72 36 148t94 135t136 97t156 38q119 0 198.5 -85.5t79.5 -210.5zM197 242q0 -99 50.5 -156.5t134.5 -57.5q61 0 113 30.5t85 77t57 102.5t34 105t10 87q0 97 -50.5 161
t-127.5 64q-89 0 -160.5 -62.5t-108.5 -156t-37 -194.5zM710 902h14q-29 -66 -75 -105t-94 -39q-50 0 -78.5 38t-29.5 106h15q15 -73 97 -73t151 73z" />
    <glyph glyph-name="obreve" unicode="&#x14f;" horiz-adv-x="448" 
d="M35 132q0 112 86.5 212t186.5 100q58 0 90.5 -39.5t32.5 -107.5q0 -70 -37 -141.5t-99 -119t-127 -47.5q-60 0 -96.5 37t-36.5 106zM119 134q0 -107 75 -107q49 0 87 53t54 112t16 100q0 51 -21.5 82.5t-52.5 31.5q-47 0 -84.5 -48t-55.5 -109t-18 -115zM474 664h14
q-29 -66 -75 -105t-94 -39q-50 0 -78.5 38t-29.5 106h15q15 -73 97 -73t151 73z" />
    <glyph glyph-name="Ohungarumlaut" unicode="&#x150;" horiz-adv-x="792" 
d="M789 397q0 -63 -31.5 -133.5t-85 -131.5t-134 -101.5t-168.5 -40.5q-132 0 -206.5 86t-74.5 199q0 72 36 148t94 135t136 97t156 38q119 0 198.5 -85.5t79.5 -210.5zM197 242q0 -99 50.5 -156.5t134.5 -57.5q61 0 113 30.5t85 77t57 102.5t34 105t10 87q0 97 -50.5 161
t-127.5 64q-89 0 -160.5 -62.5t-108.5 -156t-37 -194.5zM643 920h108l-146 -165h-16zM508 920h108l-146 -165h-16z" />
    <glyph glyph-name="ohungarumlaut" unicode="&#x151;" horiz-adv-x="448" 
d="M35 132q0 112 86.5 212t186.5 100q58 0 90.5 -39.5t32.5 -107.5q0 -70 -37 -141.5t-99 -119t-127 -47.5q-60 0 -96.5 37t-36.5 106zM119 134q0 -107 75 -107q49 0 87 53t54 112t16 100q0 51 -21.5 82.5t-52.5 31.5q-47 0 -84.5 -48t-55.5 -109t-18 -115zM408 682h108
l-146 -165h-16zM273 682h108l-146 -165h-16z" />
    <glyph glyph-name="OE" unicode="&#x152;" horiz-adv-x="1021" 
d="M971 171h43l-73 -171h-606q-95 0 -170.5 77t-75.5 191q0 105 57.5 202.5t143 154.5t168.5 57h620l-43 -160h-33q0 65 -22 93.5t-66 28.5h-305v-2q69 -52 95.5 -110.5t21.5 -153.5h34q76 0 108.5 16.5t62.5 69.5h35l-62 -232h-35q0 108 -94 108h-57q-14 -87 -76 -171.5
t-153 -128.5v-2h239q90 0 133.5 23t109.5 110zM188 231q0 -87 46.5 -139.5t125.5 -52.5q64 0 118 46.5t85.5 113.5t49 133t17.5 114q0 90 -45.5 142t-121.5 52q-63 0 -118 -46.5t-87.5 -113.5t-51 -134t-18.5 -115z" />
    <glyph glyph-name="oe" unicode="&#x153;" horiz-adv-x="677" 
d="M616 135h36q-36 -68 -91.5 -107t-117.5 -39q-88 0 -113 77q-51 -43 -88 -60t-80 -17q-56 0 -89.5 36t-33.5 96q0 42 19 96.5t51.5 105.5t83.5 86t108 35q91 0 129 -87q65 87 151 87q41 0 65.5 -21t24.5 -55q0 -70 -75 -118t-194 -71q-15 -59 7.5 -92t71.5 -33
q80 0 135 81zM608 347q0 21 -15 35.5t-36 14.5q-49 0 -88 -49t-56 -132q64 9 129.5 50t65.5 81zM122 120q0 -90 68 -90q41 0 74.5 29.5t52.5 72.5t29 85.5t10 76.5q0 113 -73 113q-44 0 -77.5 -34.5t-50.5 -84.5t-25 -94t-8 -74z" />
    <glyph glyph-name="Racute" unicode="&#x154;" horiz-adv-x="698" 
d="M282 334l-47 -175q-33 -121 68 -125l-9 -34h-284l9 34q52 11 76.5 38t42.5 94l99 368q13 49 -4 81.5t-65 32.5l9 34h267q149 0 203 -54q48 -48 48 -111q0 -69 -61 -121t-178 -62q27 -43 56.5 -104t46 -96t48 -64.5t74.5 -35.5l-10 -34h-141q-27 30 -50 82.5t-53 123
t-67 128.5h-78zM290 372h63q112 0 171.5 37.5t59.5 107.5q0 48 -36 87.5t-107 39.5h-76zM471 920h108l-146 -165h-16z" />
    <glyph glyph-name="racute" unicode="&#x155;" horiz-adv-x="344" 
d="M67 315h-28q22 60 51.5 94.5t59.5 34.5q28 0 44 -26.5t6 -71.5l-26 -110l2 -2q51 108 91 159t80 51q43 0 43 -64q0 -29 -11.5 -48t-29.5 -19q-16 0 -23 10t-6 21.5t-0.5 21.5t-8.5 10q-15 0 -49.5 -46t-74.5 -138t-56 -192h-76l78 336q5 20 -0.5 36.5t-15.5 16.5t-24 -21
t-26 -53zM257 682h108l-146 -165h-16z" />
    <glyph glyph-name="Rcommaaccent" unicode="&#x156;" horiz-adv-x="698" 
d="M282 334l-47 -175q-33 -121 68 -125l-9 -34h-284l9 34q52 11 76.5 38t42.5 94l99 368q13 49 -4 81.5t-65 32.5l9 34h267q149 0 203 -54q48 -48 48 -111q0 -69 -61 -121t-178 -62q27 -43 56.5 -104t46 -96t48 -64.5t74.5 -35.5l-10 -34h-141q-27 30 -50 82.5t-53 123
t-67 128.5h-78zM290 372h63q112 0 171.5 37.5t59.5 107.5q0 48 -36 87.5t-107 39.5h-76zM263 -199v28q40 -1 69 14t29 44q0 13 -14 18q-31 14 -34 33q-1 4 -1 8q0 16 13 27t31 11q25 0 44.5 -20t19.5 -48q0 -39 -38 -77.5t-119 -37.5z" />
    <glyph glyph-name="rcommaaccent" unicode="&#x157;" horiz-adv-x="344" 
d="M67 315h-28q22 60 51.5 94.5t59.5 34.5q28 0 44 -26.5t6 -71.5l-26 -110l2 -2q51 108 91 159t80 51q43 0 43 -64q0 -29 -11.5 -48t-29.5 -19q-16 0 -23 10t-6 21.5t-0.5 21.5t-8.5 10q-15 0 -49.5 -46t-74.5 -138t-56 -192h-76l78 336q5 20 -0.5 36.5t-15.5 16.5t-24 -21
t-26 -53zM-8 -199v28q40 -1 69 14t29 44q0 13 -14 18q-31 14 -34 33q-1 4 -1 8q0 16 13 27t31 11q25 0 44.5 -20t19.5 -48q0 -39 -38 -77.5t-119 -37.5z" />
    <glyph glyph-name="Rcaron" unicode="&#x158;" horiz-adv-x="698" 
d="M282 334l-47 -175q-33 -121 68 -125l-9 -34h-284l9 34q52 11 76.5 38t42.5 94l99 368q13 49 -4 81.5t-65 32.5l9 34h267q149 0 203 -54q48 -48 48 -111q0 -69 -61 -121t-178 -62q27 -43 56.5 -104t46 -96t48 -64.5t74.5 -35.5l-10 -34h-141q-27 30 -50 82.5t-53 123
t-67 128.5h-78zM290 372h63q112 0 171.5 37.5t59.5 107.5q0 48 -36 87.5t-107 39.5h-76zM411 751l-37 155h11l82 -99l156 99h13l-152 -155h-73z" />
    <glyph glyph-name="rcaron" unicode="&#x159;" horiz-adv-x="344" 
d="M67 315h-28q22 60 51.5 94.5t59.5 34.5q28 0 44 -26.5t6 -71.5l-26 -110l2 -2q51 108 91 159t80 51q43 0 43 -64q0 -29 -11.5 -48t-29.5 -19q-16 0 -23 10t-6 21.5t-0.5 21.5t-8.5 10q-15 0 -49.5 -46t-74.5 -138t-56 -192h-76l78 336q5 20 -0.5 36.5t-15.5 16.5t-24 -21
t-26 -53zM204 513l-37 155h11l82 -99l156 99h13l-152 -155h-73z" />
    <glyph glyph-name="Sacute" unicode="&#x15a;" horiz-adv-x="604" 
d="M636 628l-33 -142l-35 7q0 66 -40 114t-123 48q-65 0 -98.5 -32t-33.5 -69q0 -25 16.5 -51t37 -45t58.5 -52.5t62 -57.5q58 -58 78 -97.5t20 -77.5q0 -80 -70 -131.5t-180 -51.5q-65 0 -120.5 17.5t-145.5 62.5l42 156l37 -6q-3 -93 45.5 -142.5t142.5 -49.5
q78 0 115.5 37.5t37.5 85.5q0 27 -17.5 56t-37.5 48.5t-59.5 55t-60.5 56.5q-54 54 -76.5 90.5t-22.5 70.5q0 72 64.5 118.5t164.5 46.5q122 0 232 -65zM444 920h108l-146 -165h-16z" />
    <glyph glyph-name="sacute" unicode="&#x15b;" 
d="M149 359q0 -18 19.5 -47t42.5 -56.5t42.5 -65.5t19.5 -71q0 -56 -42 -92.5t-107 -36.5q-46 0 -77 20.5t-31 51.5q0 18 10.5 30.5t26.5 12.5q17 0 28.5 -12t17 -27t18 -27t32.5 -12q25 0 45 16.5t20 36.5q0 22 -19 53t-41 57.5t-41 61.5t-19 65q0 61 38 94t97 33
q43 0 68.5 -17.5t25.5 -46.5q0 -19 -10 -30t-26 -11q-15 0 -25 10.5t-15.5 23.5t-18.5 23.5t-32 10.5q-21 0 -34 -13.5t-13 -34.5zM283 682h108l-146 -165h-16z" />
    <glyph glyph-name="Scircumflex" unicode="&#x15c;" horiz-adv-x="604" 
d="M636 628l-33 -142l-35 7q0 66 -40 114t-123 48q-65 0 -98.5 -32t-33.5 -69q0 -25 16.5 -51t37 -45t58.5 -52.5t62 -57.5q58 -58 78 -97.5t20 -77.5q0 -80 -70 -131.5t-180 -51.5q-65 0 -120.5 17.5t-145.5 62.5l42 156l37 -6q-3 -93 45.5 -142.5t142.5 -49.5
q78 0 115.5 37.5t37.5 85.5q0 27 -17.5 56t-37.5 48.5t-59.5 55t-60.5 56.5q-54 54 -76.5 90.5t-22.5 70.5q0 72 64.5 118.5t164.5 46.5q122 0 232 -65zM544 905l37 -155h-11l-82 99l-156 -99h-13l152 155h73z" />
    <glyph glyph-name="scircumflex" unicode="&#x15d;" 
d="M149 359q0 -18 19.5 -47t42.5 -56.5t42.5 -65.5t19.5 -71q0 -56 -42 -92.5t-107 -36.5q-46 0 -77 20.5t-31 51.5q0 18 10.5 30.5t26.5 12.5q17 0 28.5 -12t17 -27t18 -27t32.5 -12q25 0 45 16.5t20 36.5q0 22 -19 53t-41 57.5t-41 61.5t-19 65q0 61 38 94t97 33
q43 0 68.5 -17.5t25.5 -46.5q0 -19 -10 -30t-26 -11q-15 0 -25 10.5t-15.5 23.5t-18.5 23.5t-32 10.5q-21 0 -34 -13.5t-13 -34.5zM345 667l37 -155h-11l-82 99l-156 -99h-13l152 155h73z" />
    <glyph glyph-name="uni015E" unicode="&#x15e;" horiz-adv-x="604" 
d="M636 628l-33 -142l-35 7q0 66 -40 114t-123 48q-65 0 -98.5 -32t-33.5 -69q0 -25 16.5 -51t37 -45t58.5 -52.5t62 -57.5q58 -58 78 -97.5t20 -77.5q0 -79 -69.5 -130.5t-177.5 -52.5l-10 -15q80 -14 80 -79q0 -43 -47.5 -70t-107.5 -27q-32 0 -88 12l6 18q35 -7 56 -7
q40 0 64.5 16t24.5 42q0 41 -68 42l52 69q-89 7 -231 79l42 156l37 -6q-3 -93 45.5 -142.5t142.5 -49.5q78 0 115.5 37.5t37.5 85.5q0 27 -17.5 56t-37.5 48.5t-59.5 55t-60.5 56.5q-54 54 -76.5 90.5t-22.5 70.5q0 72 64.5 118.5t164.5 46.5q122 0 232 -65z" />
    <glyph glyph-name="uni015F" unicode="&#x15f;" 
d="M149 359q0 -18 19.5 -47t42.5 -56.5t42.5 -65.5t19.5 -71q0 -51 -35.5 -86.5t-92.5 -41.5l-11 -16q80 -14 80 -79q0 -43 -47.5 -70t-107.5 -27q-32 0 -88 12l6 18q35 -7 56 -7q40 0 64.5 16t24.5 42q0 41 -68 42l52 69q-40 5 -65 24.5t-25 46.5q0 18 10.5 30.5t26.5 12.5
q17 0 28.5 -12t17 -27t18 -27t32.5 -12q25 0 45 16.5t20 36.5q0 22 -19 53t-41 57.5t-41 61.5t-19 65q0 61 38 94t97 33q43 0 68.5 -17.5t25.5 -46.5q0 -19 -10 -30t-26 -11q-15 0 -25 10.5t-15.5 23.5t-18.5 23.5t-32 10.5q-21 0 -34 -13.5t-13 -34.5z" />
    <glyph glyph-name="Scaron" unicode="&#x160;" horiz-adv-x="604" 
d="M636 628l-33 -142l-35 7q0 66 -40 114t-123 48q-65 0 -98.5 -32t-33.5 -69q0 -25 16.5 -51t37 -45t58.5 -52.5t62 -57.5q58 -58 78 -97.5t20 -77.5q0 -80 -70 -131.5t-180 -51.5q-65 0 -120.5 17.5t-145.5 62.5l42 156l37 -6q-3 -93 45.5 -142.5t142.5 -49.5
q78 0 115.5 37.5t37.5 85.5q0 27 -17.5 56t-37.5 48.5t-59.5 55t-60.5 56.5q-54 54 -76.5 90.5t-22.5 70.5q0 72 64.5 118.5t164.5 46.5q122 0 232 -65zM404 751l-37 155h11l82 -99l156 99h13l-152 -155h-73z" />
    <glyph glyph-name="scaron" unicode="&#x161;" 
d="M149 359q0 -18 19.5 -47t42.5 -56.5t42.5 -65.5t19.5 -71q0 -56 -42 -92.5t-107 -36.5q-46 0 -77 20.5t-31 51.5q0 18 10.5 30.5t26.5 12.5q17 0 28.5 -12t17 -27t18 -27t32.5 -12q25 0 45 16.5t20 36.5q0 22 -19 53t-41 57.5t-41 61.5t-19 65q0 61 38 94t97 33
q43 0 68.5 -17.5t25.5 -46.5q0 -19 -10 -30t-26 -11q-15 0 -25 10.5t-15.5 23.5t-18.5 23.5t-32 10.5q-21 0 -34 -13.5t-13 -34.5zM209 513l-37 155h11l82 -99l156 99h13l-152 -155h-73z" />
    <glyph glyph-name="Tcommaaccent" unicode="&#x162;" horiz-adv-x="667" 
d="M506 644l-138 -498q-16 -58 2 -85t77 -27l-9 -34h-310l9 34q56 0 87.5 28.5t48.5 89.5l136 492h-49q-86 0 -123 -22t-85 -103h-36l44 163h612l-44 -163h-32q-8 77 -29 101t-81 24h-80zM164 -199v28q40 -1 69 14t29 44q0 13 -14 18q-31 14 -34 33q-1 4 -1 8q0 16 13 27
t31 11q25 0 44.5 -20t19.5 -48q0 -39 -38 -77.5t-119 -37.5z" />
    <glyph glyph-name="tcommaaccent" unicode="&#x163;" horiz-adv-x="292" 
d="M224 385l-89 -293q-15 -49 20 -49q39 0 99 74h38q-91 -128 -185 -128q-36 0 -47.5 27.5t3.5 79.5l87 289h-84l13 40q93 12 138 78h43l-23 -78h91l-13 -40h-91zM-24 -199v28q40 -1 69 14t29 44q0 13 -14 18q-31 14 -34 33q-1 4 -1 8q0 16 13 27t31 11q25 0 44.5 -20
t19.5 -48q0 -39 -38 -77.5t-119 -37.5z" />
    <glyph glyph-name="Tcaron" unicode="&#x164;" horiz-adv-x="667" 
d="M506 644l-138 -498q-16 -58 2 -85t77 -27l-9 -34h-310l9 34q56 0 87.5 28.5t48.5 89.5l136 492h-49q-86 0 -123 -22t-85 -103h-36l44 163h612l-44 -163h-32q-8 77 -29 101t-81 24h-80zM430 751l-37 155h11l82 -99l156 99h13l-152 -155h-73z" />
    <glyph glyph-name="tcaron" unicode="&#x165;" horiz-adv-x="292" 
d="M224 385l-89 -293q-15 -49 20 -49q39 0 99 74h38q-91 -128 -185 -128q-36 0 -47.5 27.5t3.5 79.5l87 289h-84l13 40q93 12 138 78h43l-23 -78h91l-13 -40h-91zM312 453v29q56 5 85.5 31t29.5 59q0 14 -10.5 23t-22.5 13.5t-22.5 15t-10.5 26.5q0 21 15.5 33t38.5 12
q31 0 53 -26t22 -61q0 -57 -47.5 -101t-130.5 -54z" />
    <glyph glyph-name="Tbar" unicode="&#x166;" horiz-adv-x="667" 
d="M191 380h145l73 264h-49q-86 0 -123 -22t-85 -103h-36l44 163h612l-44 -163h-32q-8 77 -29 101t-81 24h-80l-74 -264h153l-11 -42h-153l-53 -192q-16 -58 2 -85t77 -27l-9 -34h-310l9 34q56 0 87.5 28.5t48.5 89.5l51 186h-144z" />
    <glyph glyph-name="tbar" unicode="&#x167;" horiz-adv-x="292" 
d="M46 267h68l36 118h-84l13 40q93 12 138 78h43l-23 -78h91l-13 -40h-91l-36 -118h114l-13 -41h-114l-40 -134q-15 -49 20 -49q39 0 99 74h38q-91 -128 -185 -128q-36 0 -47.5 27.5t3.5 79.5l39 130h-69z" />
    <glyph glyph-name="Utilde" unicode="&#x168;" horiz-adv-x="771" 
d="M740 513l-72 -304q-27 -115 -102.5 -167.5t-178.5 -52.5q-130 0 -206 76q-73 73 -43 188l77 291q13 50 -9.5 77t-65.5 27l9 34h291l-9 -34q-50 -3 -76.5 -27.5t-40.5 -77.5l-84 -313q-21 -78 24.5 -131t148.5 -53t152.5 44.5t76.5 153.5l59 242q8 41 8 77t-24.5 60.5
t-72.5 24.5l11 34h252l-11 -34q-49 -8 -74.5 -42.5t-39.5 -92.5zM694 890h15q0 -58 -25 -93.5t-66 -35.5q-36 0 -88.5 34t-69.5 34q-20 0 -30 -14t-17 -52h-15q0 58 26 93t66 35q30 0 87 -34.5t70 -34.5q40 0 47 68z" />
    <glyph glyph-name="utilde" unicode="&#x169;" horiz-adv-x="531" 
d="M68 313h-34q35 57 78 94t74 37q28 0 42.5 -20.5t2.5 -62.5l-80 -264q-18 -58 12 -58q54 0 140 126t138 273h74l-106 -345q-5 -20 -1 -30.5t14 -10.5q13 0 32.5 20t36.5 49h33q-77 -131 -145 -131q-74 0 -40 112l40 130l-2 2q-65 -122 -129.5 -183t-120.5 -61
q-41 0 -55.5 31t4.5 93l78 231q14 41 -9 41q-28 0 -77 -73zM511 652h15q0 -58 -25 -93.5t-66 -35.5q-36 0 -88.5 34t-69.5 34q-20 0 -30 -14t-17 -52h-15q0 58 26 93t66 35q31 0 87.5 -34.5t69.5 -34.5q40 0 47 68z" />
    <glyph glyph-name="Umacron" unicode="&#x16a;" horiz-adv-x="771" 
d="M740 513l-72 -304q-27 -115 -102.5 -167.5t-178.5 -52.5q-130 0 -206 76q-73 73 -43 188l77 291q13 50 -9.5 77t-65.5 27l9 34h291l-9 -34q-50 -3 -76.5 -27.5t-40.5 -77.5l-84 -313q-21 -78 24.5 -131t148.5 -53t152.5 44.5t76.5 153.5l59 242q8 41 8 77t-24.5 60.5
t-72.5 24.5l11 34h252l-11 -34q-49 -8 -74.5 -42.5t-39.5 -92.5zM417 858h293l-19 -63h-293z" />
    <glyph glyph-name="umacron" unicode="&#x16b;" horiz-adv-x="531" 
d="M68 313h-34q35 57 78 94t74 37q28 0 42.5 -20.5t2.5 -62.5l-80 -264q-18 -58 12 -58q54 0 140 126t138 273h74l-106 -345q-5 -20 -1 -30.5t14 -10.5q13 0 32.5 20t36.5 49h33q-77 -131 -145 -131q-74 0 -40 112l40 130l-2 2q-65 -122 -129.5 -183t-120.5 -61
q-41 0 -55.5 31t4.5 93l78 231q14 41 -9 41q-28 0 -77 -73zM233 620h293l-19 -63h-293z" />
    <glyph glyph-name="Ubreve" unicode="&#x16c;" horiz-adv-x="771" 
d="M740 513l-72 -304q-27 -115 -102.5 -167.5t-178.5 -52.5q-130 0 -206 76q-73 73 -43 188l77 291q13 50 -9.5 77t-65.5 27l9 34h291l-9 -34q-50 -3 -76.5 -27.5t-40.5 -77.5l-84 -313q-21 -78 24.5 -131t148.5 -53t152.5 44.5t76.5 153.5l59 242q8 41 8 77t-24.5 60.5
t-72.5 24.5l11 34h252l-11 -34q-49 -8 -74.5 -42.5t-39.5 -92.5zM699 902h14q-29 -66 -75 -105t-94 -39q-50 0 -78.5 38t-29.5 106h15q15 -73 97 -73t151 73z" />
    <glyph glyph-name="ubreve" unicode="&#x16d;" horiz-adv-x="531" 
d="M68 313h-34q35 57 78 94t74 37q28 0 42.5 -20.5t2.5 -62.5l-80 -264q-18 -58 12 -58q54 0 140 126t138 273h74l-106 -345q-5 -20 -1 -30.5t14 -10.5q13 0 32.5 20t36.5 49h33q-77 -131 -145 -131q-74 0 -40 112l40 130l-2 2q-65 -122 -129.5 -183t-120.5 -61
q-41 0 -55.5 31t4.5 93l78 231q14 41 -9 41q-28 0 -77 -73zM515 664h14q-29 -66 -75 -105t-94 -39q-50 0 -78.5 38t-29.5 106h15q15 -73 97 -73t151 73z" />
    <glyph glyph-name="Uring" unicode="&#x16e;" horiz-adv-x="771" 
d="M740 513l-72 -304q-27 -115 -102.5 -167.5t-178.5 -52.5q-130 0 -206 76q-73 73 -43 188l77 291q13 50 -9.5 77t-65.5 27l9 34h291l-9 -34q-50 -3 -76.5 -27.5t-40.5 -77.5l-84 -313q-21 -78 24.5 -131t148.5 -53t152.5 44.5t76.5 153.5l59 242q8 41 8 77t-24.5 60.5
t-72.5 24.5l11 34h252l-11 -34q-49 -8 -74.5 -42.5t-39.5 -92.5zM554 735q-38 0 -65 27.5t-27 65.5t27 65t65 27t65.5 -27t27.5 -65t-27.5 -65.5t-65.5 -27.5zM554 767q25 0 43 17.5t18 42.5t-18 43t-43 18t-42.5 -18t-17.5 -43t17.5 -42.5t42.5 -17.5z" />
    <glyph glyph-name="uring" unicode="&#x16f;" horiz-adv-x="531" 
d="M68 313h-34q35 57 78 94t74 37q28 0 42.5 -20.5t2.5 -62.5l-80 -264q-18 -58 12 -58q54 0 140 126t138 273h74l-106 -345q-5 -20 -1 -30.5t14 -10.5q13 0 32.5 20t36.5 49h33q-77 -131 -145 -131q-74 0 -40 112l40 130l-2 2q-65 -122 -129.5 -183t-120.5 -61
q-41 0 -55.5 31t4.5 93l78 231q14 41 -9 41q-28 0 -77 -73zM370 497q-38 0 -65 27.5t-27 65.5t27 65t65 27t65.5 -27t27.5 -65t-27.5 -65.5t-65.5 -27.5zM370 529q25 0 43 17.5t18 42.5t-18 43t-43 18t-42.5 -18t-17.5 -43t17.5 -42.5t42.5 -17.5z" />
    <glyph glyph-name="Uhungarumlaut" unicode="&#x170;" horiz-adv-x="771" 
d="M740 513l-72 -304q-27 -115 -102.5 -167.5t-178.5 -52.5q-130 0 -206 76q-73 73 -43 188l77 291q13 50 -9.5 77t-65.5 27l9 34h291l-9 -34q-50 -3 -76.5 -27.5t-40.5 -77.5l-84 -313q-21 -78 24.5 -131t148.5 -53t152.5 44.5t76.5 153.5l59 242q8 41 8 77t-24.5 60.5
t-72.5 24.5l11 34h252l-11 -34q-49 -8 -74.5 -42.5t-39.5 -92.5zM633 920h108l-146 -165h-16zM498 920h108l-146 -165h-16z" />
    <glyph glyph-name="uhungarumlaut" unicode="&#x171;" horiz-adv-x="531" 
d="M68 313h-34q35 57 78 94t74 37q28 0 42.5 -20.5t2.5 -62.5l-80 -264q-18 -58 12 -58q54 0 140 126t138 273h74l-106 -345q-5 -20 -1 -30.5t14 -10.5q13 0 32.5 20t36.5 49h33q-77 -131 -145 -131q-74 0 -40 112l40 130l-2 2q-65 -122 -129.5 -183t-120.5 -61
q-41 0 -55.5 31t4.5 93l78 231q14 41 -9 41q-28 0 -77 -73zM449 682h108l-146 -165h-16zM314 682h108l-146 -165h-16z" />
    <glyph glyph-name="Uogonek" unicode="&#x172;" horiz-adv-x="771" 
d="M740 513l-72 -304q-51 -210 -265 -219q-8 -23 -8 -41q0 -39 29 -65t73 -26q24 0 60 12l10 -14q-63 -40 -111 -40q-50 0 -81.5 27t-31.5 70q0 42 30 76q-122 4 -192 76q-73 73 -43 188l77 291q13 50 -9.5 77t-65.5 27l9 34h291l-9 -34q-50 -3 -76.5 -27.5t-40.5 -77.5
l-84 -313q-21 -78 24.5 -131t148.5 -53t152.5 44.5t76.5 153.5l59 242q8 41 8 77t-24.5 60.5t-72.5 24.5l11 34h252l-11 -34q-49 -8 -74.5 -42.5t-39.5 -92.5z" />
    <glyph glyph-name="uogonek" unicode="&#x173;" horiz-adv-x="531" 
d="M68 313h-34q35 57 78 94t74 37q28 0 42.5 -20.5t2.5 -62.5l-80 -264q-18 -58 12 -58q54 0 140 126t138 273h74l-106 -345q-5 -20 -1 -30.5t14 -10.5q13 0 32.5 20t36.5 49h33q-68 -117 -131 -129q-9 -24 -9 -43q0 -39 29 -65t73 -26q24 0 60 12l10 -14q-63 -40 -111 -40
q-50 0 -81.5 27t-31.5 70q0 42 32 78q-56 11 -25 111l40 130l-2 2q-65 -122 -129.5 -183t-120.5 -61q-41 0 -55.5 31t4.5 93l78 231q14 41 -9 41q-28 0 -77 -73z" />
    <glyph glyph-name="Wcircumflex" unicode="&#x174;" horiz-adv-x="979" 
d="M593 367l27 -259l314 410q31 39 26 76.5t-48 53.5l10 34h201l-9 -34q-38 -13 -101 -95l-311 -402q-98 -126 -114 -161h-61q10 30 2 119l-16 166l-178 -202q-13 -15 -36 -45.5t-25 -37.5h-54q6 50 2 118l-23 446q-4 75 -56 94l10 34h215l-9 -34q-43 -7 -57 -41.5
t-11 -95.5l23 -403l195 217l-30 253q-4 34 -18 51t-44 19l10 34h210l-10 -34q-37 -7 -49.5 -29t-7.5 -65l18 -139l100 118q38 48 36 73t-39 42l10 34h179l-9 -34q-17 -5 -31.5 -15.5t-22.5 -19t-22 -25.5t-21 -25zM732 905l37 -155h-11l-82 99l-156 -99h-13l152 155h73z" />
    <glyph glyph-name="wcircumflex" unicode="&#x175;" horiz-adv-x="688" 
d="M674 337q0 -56 -26.5 -135.5t-77.5 -145.5t-107 -66q-48 0 -71 39.5t-17 114.5l-2 2q-57 -89 -99.5 -122.5t-96.5 -33.5q-45 0 -72 24t-27 72q0 40 24.5 79t69 95t71.5 105q-11 -2 -26 -0.5t-40.5 3.5t-37.5 2q-59 0 -59 -31q0 -7 19.5 -24.5t19.5 -35.5q0 -13 -12.5 -24
t-27.5 -11q-16 0 -27 13t-11 33q0 50 31.5 97.5t89.5 47.5q21 0 53.5 -0.5t44.5 0t29.5 1.5t34.5 4q-17 -30 -46.5 -78.5t-47.5 -79.5t-37.5 -67.5t-29 -63t-9.5 -45.5q0 -25 16.5 -43.5t38.5 -18.5q76 0 174 164q11 236 77 236q15 0 25 -11t10 -27q0 -58 -88 -207
q1 -66 23.5 -101t60.5 -35t70.5 45t47.5 94t15 77q0 26 -21.5 61t-21.5 60q0 20 9.5 32t25.5 12q26 0 42 -29.5t16 -77.5zM522 667l37 -155h-11l-82 99l-156 -99h-13l152 155h73z" />
    <glyph glyph-name="Ycircumflex" unicode="&#x176;" horiz-adv-x="719" 
d="M431 255l-23 -89q-10 -37 -10 -58q0 -35 20.5 -54.5t57.5 -19.5h7l-9 -34h-300l9 34q53 4 80.5 32.5t41.5 80.5l29 108l-133 321q-16 39 -36 55.5t-50 16.5h-7l9 34h281l-9 -34h-5q-47 0 -65.5 -30.5t-0.5 -74.5l100 -247l179 210q42 48 42 83q0 53 -65 59l9 34h242
l-9 -34q-33 -1 -121 -99zM602 905l37 -155h-11l-82 99l-156 -99h-13l152 155h73z" />
    <glyph glyph-name="ycircumflex" unicode="&#x177;" horiz-adv-x="479" 
d="M227 -26l-80 349q-13 57 -29 57t-33 -23.5t-28 -62.5h-31q16 65 53.5 107.5t76.5 42.5q21 0 34 -15.5t21 -52.5l76 -336q124 158 124 265q0 27 -14 56.5t-14 39.5q0 19 12 31t29 12q24 0 38.5 -21t14.5 -55q0 -81 -69.5 -204t-166.5 -220q-135 -135 -263 -135
q-33 0 -53 13.5t-20 35.5q0 18 11.5 29t30.5 11q20 0 45 -19.5t46 -19.5q31 0 83 32t106 83zM418 667l37 -155h-11l-82 99l-156 -99h-13l152 155h73z" />
    <glyph glyph-name="Ydieresis" unicode="&#x178;" horiz-adv-x="719" 
d="M431 255l-23 -89q-10 -37 -10 -58q0 -35 20.5 -54.5t57.5 -19.5h7l-9 -34h-300l9 34q53 4 80.5 32.5t41.5 80.5l29 108l-133 321q-16 39 -36 55.5t-50 16.5h-7l9 34h281l-9 -34h-5q-47 0 -65.5 -30.5t-0.5 -74.5l100 -247l179 210q42 48 42 83q0 53 -65 59l9 34h242
l-9 -34q-33 -1 -121 -99zM607 858q22 0 37.5 -15t15.5 -37t-15.5 -37.5t-37.5 -15.5t-37 15.5t-15 37.5t15 37t37 15zM434 858q22 0 37.5 -15t15.5 -37t-15.5 -37.5t-37.5 -15.5t-37 15.5t-15 37.5t15 37t37 15z" />
    <glyph glyph-name="Zacute" unicode="&#x179;" horiz-adv-x="625" 
d="M596 175l-76 -175h-528v27l560 617h-182q-53 0 -91.5 -25t-93.5 -87h-37l50 150h494v-24l-566 -620h187q79 0 123.5 26t117.5 111h42zM492 920h108l-146 -165h-16z" />
    <glyph glyph-name="zacute" unicode="&#x17a;" horiz-adv-x="490" 
d="M100 324q0 50 41.5 85t99.5 35q41 0 94.5 -26.5t77.5 -26.5q14 0 23 6t9 15l-1 5q0 5 0.5 9t1.5 8.5t6 7t12 2.5q23 0 23 -22q0 -38 -60 -98q-41 -41 -157 -108t-167 -122l2 -2q78 17 147 -16q11 -5 30 -16.5t31.5 -16.5t24.5 -5q14 0 23.5 9t9.5 22q0 11 -14.5 24.5
t-14.5 28.5q0 16 12.5 27.5t27.5 11.5q19 0 31 -15t12 -39q0 -49 -41 -83.5t-98 -34.5q-43 0 -111 33q-66 32 -83 32q-9 0 -15 -3t-8.5 -7t-4 -10t-1.5 -10t1 -9v-5q0 -7 -7.5 -14t-16.5 -7q-22 0 -22 26q0 37 72 109q44 44 165.5 119t149.5 102l-2 2q-32 -14 -65 -8.5
t-54.5 17.5t-48.5 24.5t-47 12.5q-17 0 -28.5 -6t-11.5 -16q0 -6 17 -19.5t17 -32.5q0 -16 -11.5 -26.5t-29.5 -10.5t-29.5 11t-11.5 31zM361 682h108l-146 -165h-16z" />
    <glyph glyph-name="Zdotaccent" unicode="&#x17b;" horiz-adv-x="625" 
d="M596 175l-76 -175h-528v27l560 617h-182q-53 0 -91.5 -25t-93.5 -87h-37l50 150h494v-24l-566 -620h187q79 0 123.5 26t117.5 111h42zM475 858q22 0 37.5 -15t15.5 -37t-15.5 -37.5t-37.5 -15.5t-37 15.5t-15 37.5t15 37t37 15z" />
    <glyph glyph-name="zdotaccent" unicode="&#x17c;" horiz-adv-x="490" 
d="M100 324q0 50 41.5 85t99.5 35q41 0 94.5 -26.5t77.5 -26.5q14 0 23 6t9 15l-1 5q0 5 0.5 9t1.5 8.5t6 7t12 2.5q23 0 23 -22q0 -38 -60 -98q-41 -41 -157 -108t-167 -122l2 -2q78 17 147 -16q11 -5 30 -16.5t31.5 -16.5t24.5 -5q14 0 23.5 9t9.5 22q0 11 -14.5 24.5
t-14.5 28.5q0 16 12.5 27.5t27.5 11.5q19 0 31 -15t12 -39q0 -49 -41 -83.5t-98 -34.5q-43 0 -111 33q-66 32 -83 32q-9 0 -15 -3t-8.5 -7t-4 -10t-1.5 -10t1 -9v-5q0 -7 -7.5 -14t-16.5 -7q-22 0 -22 26q0 37 72 109q44 44 165.5 119t149.5 102l-2 2q-32 -14 -65 -8.5
t-54.5 17.5t-48.5 24.5t-47 12.5q-17 0 -28.5 -6t-11.5 -16q0 -6 17 -19.5t17 -32.5q0 -16 -11.5 -26.5t-29.5 -10.5t-29.5 11t-11.5 31zM344 620q22 0 37.5 -15t15.5 -37t-15.5 -37.5t-37.5 -15.5t-37 15.5t-15 37.5t15 37t37 15z" />
    <glyph glyph-name="Zcaron" unicode="&#x17d;" horiz-adv-x="625" 
d="M596 175l-76 -175h-528v27l560 617h-182q-53 0 -91.5 -25t-93.5 -87h-37l50 150h494v-24l-566 -620h187q79 0 123.5 26t117.5 111h42zM414 751l-37 155h11l82 -99l156 99h13l-152 -155h-73z" />
    <glyph glyph-name="zcaron" unicode="&#x17e;" horiz-adv-x="490" 
d="M100 324q0 50 41.5 85t99.5 35q41 0 94.5 -26.5t77.5 -26.5q14 0 23 6t9 15l-1 5q0 5 0.5 9t1.5 8.5t6 7t12 2.5q23 0 23 -22q0 -38 -60 -98q-41 -41 -157 -108t-167 -122l2 -2q78 17 147 -16q11 -5 30 -16.5t31.5 -16.5t24.5 -5q14 0 23.5 9t9.5 22q0 11 -14.5 24.5
t-14.5 28.5q0 16 12.5 27.5t27.5 11.5q19 0 31 -15t12 -39q0 -49 -41 -83.5t-98 -34.5q-43 0 -111 33q-66 32 -83 32q-9 0 -15 -3t-8.5 -7t-4 -10t-1.5 -10t1 -9v-5q0 -7 -7.5 -14t-16.5 -7q-22 0 -22 26q0 37 72 109q44 44 165.5 119t149.5 102l-2 2q-32 -14 -65 -8.5
t-54.5 17.5t-48.5 24.5t-47 12.5q-17 0 -28.5 -6t-11.5 -16q0 -6 17 -19.5t17 -32.5q0 -16 -11.5 -26.5t-29.5 -10.5t-29.5 11t-11.5 31zM288 513l-37 155h11l82 -99l156 99h13l-152 -155h-73z" />
    <glyph glyph-name="florin" unicode="&#x192;" horiz-adv-x="579" 
d="M315 426q68 267 206 267q26 0 45.5 -16t19.5 -38q0 -17 -11.5 -29t-28.5 -12q-14 0 -23 8t-12 17t-10.5 17t-19.5 8q-22 0 -35 -27.5t-26 -83.5l-26 -111h87l-12 -38h-87l-77 -312q-30 -122 -83 -194.5t-127 -72.5q-34 0 -54.5 14.5t-20.5 39.5q0 17 11 28t28 11
q21 0 39 -26t33 -26t27 12t21.5 38.5t13.5 41t12 45.5l98 401h-105l12 38h105z" />
    <glyph glyph-name="AEacute" unicode="&#x1fc;" horiz-adv-x="927" 
d="M880 171h43l-73 -171h-537l9 34q50 7 76 33.5t41 81.5l52 191h-198l-145 -183q-36 -44 -22.5 -83.5t68.5 -39.5l-9 -34h-244l9 34q32 12 53.5 27t34 29t42.5 52l325 406q32 40 18.5 70t-66.5 30l10 34h620l-43 -160h-33q0 65 -22 93.5t-66 28.5h-155l-71 -266h72
q76 0 108.5 16.5t62.5 69.5h35l-62 -232h-35q0 108 -94 108h-97l-46 -172q-21 -77 -2 -103.5t98 -26.5q90 0 133.5 23t109.5 110zM322 378h179l57 213q6 17 2 33.5t-18 16.5q-16 0 -39 -31zM662 920h108l-146 -165h-16z" />
    <glyph glyph-name="aeacute" unicode="&#x1fd;" horiz-adv-x="677" 
d="M605 137h37q-32 -61 -87.5 -104t-123.5 -43q-115 0 -116 130h-2q-83 -130 -187 -130q-45 0 -74 30.5t-29 78.5q0 77 71 148q80 80 219 130q186 67 266 67q41 0 64.5 -22t23.5 -60q0 -131 -277 -182q-11 -61 12 -94t67 -33q68 0 136 84zM599 352q0 20 -13 33t-34 13
q-44 0 -87.5 -53t-64.5 -134q92 26 145.5 63.5t53.5 77.5zM107 104q0 -28 15 -44.5t40 -16.5q91 0 150 128q39 85 68.5 131.5t84.5 95.5l-2 2q-161 -44 -258.5 -129t-97.5 -167zM537 682h108l-146 -165h-16z" />
    <glyph glyph-name="Oslashacute" unicode="&#x1fe;" horiz-adv-x="792" 
d="M652 560l-402 -476q47 -56 132 -56q61 0 113 30.5t85 77t57 102.5t34 105t10 87q0 63 -29 130zM669 643l52 60l31 -24l-52 -62q89 -89 89 -220q0 -63 -31.5 -133.5t-85 -131.5t-134 -101.5t-168.5 -40.5q-90 0 -161 47l-48 -58l-32 24l49 59q-89 82 -89 213q0 72 36 148
t94 135t136 97t156 38q89 0 158 -50zM225 117l402 478q-49 60 -124 60q-89 0 -160.5 -62.5t-108.5 -156t-37 -194.5q0 -76 28 -125zM554 920h108l-146 -165h-16z" />
    <glyph glyph-name="oslashacute" unicode="&#x1ff;" horiz-adv-x="448" 
d="M349 322l-216 -258q6 -16 23.5 -26.5t37.5 -10.5q49 0 87 53t54 112t16 100q0 6 -2 30zM382 420l32 36l30 -25l-35 -42q22 -35 22 -92q0 -69 -37 -141t-99 -119.5t-127 -47.5q-44 0 -78 22l-32 -37l-29 30l32 36q-26 32 -26 92q0 112 86.5 212t186.5 100q45 0 74 -24z
M120 111l215 254q-21 41 -58 41q-47 0 -84.5 -48t-55.5 -109t-18 -115q0 -16 1 -23zM340 682h108l-146 -165h-16z" />
    <glyph glyph-name="uni0218" unicode="&#x218;" horiz-adv-x="604" 
d="M636 628l-33 -142l-35 7q0 66 -40 114t-123 48q-65 0 -98.5 -32t-33.5 -69q0 -25 16.5 -51t37 -45t58.5 -52.5t62 -57.5q58 -58 78 -97.5t20 -77.5q0 -80 -70 -131.5t-180 -51.5q-65 0 -120.5 17.5t-145.5 62.5l42 156l37 -6q-3 -93 45.5 -142.5t142.5 -49.5
q78 0 115.5 37.5t37.5 85.5q0 27 -17.5 56t-37.5 48.5t-59.5 55t-60.5 56.5q-54 54 -76.5 90.5t-22.5 70.5q0 72 64.5 118.5t164.5 46.5q122 0 232 -65zM163 -199v28q40 -1 69 14t29 44q0 13 -14 18q-31 14 -34 33q-1 4 -1 8q0 16 13 27t31 11q25 0 44.5 -20t19.5 -48
q0 -39 -38 -77.5t-119 -37.5z" />
    <glyph glyph-name="uni0219" unicode="&#x219;" 
d="M149 359q0 -18 19.5 -47t42.5 -56.5t42.5 -65.5t19.5 -71q0 -56 -42 -92.5t-107 -36.5q-46 0 -77 20.5t-31 51.5q0 18 10.5 30.5t26.5 12.5q17 0 28.5 -12t17 -27t18 -27t32.5 -12q25 0 45 16.5t20 36.5q0 22 -19 53t-41 57.5t-41 61.5t-19 65q0 61 38 94t97 33
q43 0 68.5 -17.5t25.5 -46.5q0 -19 -10 -30t-26 -11q-15 0 -25 10.5t-15.5 23.5t-18.5 23.5t-32 10.5q-21 0 -34 -13.5t-13 -34.5zM20 -199v28q40 -1 69 14t29 44q0 13 -14 18q-31 14 -34 33q-1 4 -1 8q0 16 13 27t31 11q25 0 44.5 -20t19.5 -48q0 -39 -38 -77.5t-119 -37.5
z" />
    <glyph glyph-name="uni021A" unicode="&#x21a;" horiz-adv-x="667" 
d="M506 644l-138 -498q-16 -58 2 -85t77 -27l-9 -34h-310l9 34q56 0 87.5 28.5t48.5 89.5l136 492h-49q-86 0 -123 -22t-85 -103h-36l44 163h612l-44 -163h-32q-8 77 -29 101t-81 24h-80zM164 -199v28q40 -1 69 14t29 44q0 13 -14 18q-31 14 -34 33q-1 4 -1 8q0 16 13 27
t31 11q25 0 44.5 -20t19.5 -48q0 -39 -38 -77.5t-119 -37.5z" />
    <glyph glyph-name="uni021B" unicode="&#x21b;" horiz-adv-x="292" 
d="M224 385l-89 -293q-15 -49 20 -49q39 0 99 74h38q-91 -128 -185 -128q-36 0 -47.5 27.5t3.5 79.5l87 289h-84l13 40q93 12 138 78h43l-23 -78h91l-13 -40h-91zM-24 -199v28q40 -1 69 14t29 44q0 13 -14 18q-31 14 -34 33q-1 4 -1 8q0 16 13 27t31 11q25 0 44.5 -20
t19.5 -48q0 -39 -38 -77.5t-119 -37.5z" />
    <glyph glyph-name="circumflex" unicode="&#x2c6;" 
d="M349 667l37 -155h-11l-82 99l-156 -99h-13l152 155h73z" />
    <glyph glyph-name="caron" unicode="&#x2c7;" 
d="M209 513l-37 155h11l82 -99l156 99h13l-152 -155h-73z" />
    <glyph glyph-name="uni02C9" unicode="&#x2c9;" 
d="M138 620h293l-19 -63h-293z" />
    <glyph glyph-name="breve" unicode="&#x2d8;" 
d="M407 664h14q-29 -66 -75 -105t-94 -39q-50 0 -78.5 38t-29.5 106h15q15 -73 97 -73t151 73z" />
    <glyph glyph-name="dotaccent" unicode="&#x2d9;" 
d="M271 620q22 0 37.5 -15t15.5 -37t-15.5 -37.5t-37.5 -15.5t-37 15.5t-15 37.5t15 37t37 15z" />
    <glyph glyph-name="ring" unicode="&#x2da;" 
d="M278 497q-38 0 -65 27.5t-27 65.5t27 65t65 27t65.5 -27t27.5 -65t-27.5 -65.5t-65.5 -27.5zM278 529q25 0 43 17.5t18 42.5t-18 43t-43 18t-42.5 -18t-17.5 -43t17.5 -42.5t42.5 -17.5z" />
    <glyph glyph-name="ogonek" unicode="&#x2db;" 
d="M78 0h25q-13 -31 -13 -51q0 -39 29 -65t73 -26q24 0 60 12l10 -14q-63 -40 -111 -40q-50 0 -81.5 27t-31.5 70q0 46 40 87z" />
    <glyph glyph-name="tilde" unicode="&#x2dc;" 
d="M393 652h15q0 -58 -25 -93.5t-66 -35.5q-36 0 -88.5 34t-69.5 34q-20 0 -30 -14t-17 -52h-15q0 58 26 93t66 35q31 0 88 -34.5t69 -34.5q40 0 47 68z" />
    <glyph glyph-name="hungarumlaut" unicode="&#x2dd;" 
d="M335 682h108l-146 -165h-16zM200 682h108l-146 -165h-16z" />
    <glyph glyph-name="uni03A9" unicode="&#x3a9;" horiz-adv-x="682" 
d="M639 127l-57 -127h-216l-1 17q7 8 42 48.5t54 65t48 65.5t48 81.5t30 81.5q39 142 2 210t-117 68q-85 0 -157.5 -69t-112.5 -214q-7 -25 -10.5 -51.5t-5 -46.5t1.5 -47t5 -41.5t9 -42.5t9.5 -37t12 -38t10.5 -33l-12 -17h-214l14 127l21 1q2 -46 12.5 -59.5t38.5 -13.5
h102q-17 20 -29 37t-27 48t-22 61t-6.5 72.5t12.5 86.5q38 137 139 220t218 83q119 0 172 -79.5t15 -215.5q-41 -149 -246 -313h105q31 0 46.5 12.5t43.5 60.5z" />
    <glyph glyph-name="uni03BC" unicode="&#x3bc;" horiz-adv-x="500" 
d="M140 430h74l-83 -288q-15 -51 -4.5 -79.5t44.5 -28.5q44 0 89.5 51t72.5 140l62 205h71l-93 -323q-9 -29 -2.5 -50t26.5 -21q35 0 65 69h19q-14 -55 -49.5 -85.5t-73.5 -30.5q-35 0 -54 27t-10 81l-2 2q-34 -54 -77 -82t-77 -28q-29 0 -47.5 12t-31.5 40
q-17 -45 -23 -115t-16.5 -105.5t-43.5 -35.5q-16 0 -26.5 11t-10.5 28q0 16 12.5 39.5t36 75t43.5 117.5z" />
    <glyph glyph-name="pi" unicode="&#x3c0;" horiz-adv-x="524" 
d="M554 447l19 -9q-26 -48 -54 -75q-16 -4 -66 -4q-23 -61 -69 -234q-24 -88 18 -88q23 0 57 31l8 -17q-51 -62 -110 -62q-38 0 -50 24t5 95q24 88 80 253q-114 2 -156 2l-5 -20q-27 -98 -63 -179t-58 -115t-35 -44q-33 -14 -57 -16l-1 14q63 58 112 161t76 200
q-31 0 -56.5 -6.5t-39 -14t-39.5 -24.5l-7 18l11 11q12 10 15 12t14.5 11.5t17.5 12.5t18 10.5t22 10.5t23.5 7t27.5 5.5t29 1.5q1 0 97 -2t151 -2q22 0 35 6t30 26z" />
    <glyph glyph-name="Wgrave" unicode="&#x1e80;" horiz-adv-x="979" 
d="M593 367l27 -259l314 410q31 39 26 76.5t-48 53.5l10 34h201l-9 -34q-38 -13 -101 -95l-311 -402q-98 -126 -114 -161h-61q10 30 2 119l-16 166l-178 -202q-13 -15 -36 -45.5t-25 -37.5h-54q6 50 2 118l-23 446q-4 75 -56 94l10 34h215l-9 -34q-43 -7 -57 -41.5
t-11 -95.5l23 -403l195 217l-30 253q-4 34 -18 51t-44 19l10 34h210l-10 -34q-37 -7 -49.5 -29t-7.5 -65l18 -139l100 118q38 48 36 73t-39 42l10 34h179l-9 -34q-17 -5 -31.5 -15.5t-22.5 -19t-22 -25.5t-21 -25zM653 920l54 -165h-16l-146 165h108z" />
    <glyph glyph-name="wgrave" unicode="&#x1e81;" horiz-adv-x="688" 
d="M674 337q0 -56 -26.5 -135.5t-77.5 -145.5t-107 -66q-48 0 -71 39.5t-17 114.5l-2 2q-57 -89 -99.5 -122.5t-96.5 -33.5q-45 0 -72 24t-27 72q0 40 24.5 79t69 95t71.5 105q-11 -2 -26 -0.5t-40.5 3.5t-37.5 2q-59 0 -59 -31q0 -7 19.5 -24.5t19.5 -35.5q0 -13 -12.5 -24
t-27.5 -11q-16 0 -27 13t-11 33q0 50 31.5 97.5t89.5 47.5q21 0 53.5 -0.5t44.5 0t29.5 1.5t34.5 4q-17 -30 -46.5 -78.5t-47.5 -79.5t-37.5 -67.5t-29 -63t-9.5 -45.5q0 -25 16.5 -43.5t38.5 -18.5q76 0 174 164q11 236 77 236q15 0 25 -11t10 -27q0 -58 -88 -207
q1 -66 23.5 -101t60.5 -35t70.5 45t47.5 94t15 77q0 26 -21.5 61t-21.5 60q0 20 9.5 32t25.5 12q26 0 42 -29.5t16 -77.5zM444 682l54 -165h-16l-146 165h108z" />
    <glyph glyph-name="Wacute" unicode="&#x1e82;" horiz-adv-x="979" 
d="M593 367l27 -259l314 410q31 39 26 76.5t-48 53.5l10 34h201l-9 -34q-38 -13 -101 -95l-311 -402q-98 -126 -114 -161h-61q10 30 2 119l-16 166l-178 -202q-13 -15 -36 -45.5t-25 -37.5h-54q6 50 2 118l-23 446q-4 75 -56 94l10 34h215l-9 -34q-43 -7 -57 -41.5
t-11 -95.5l23 -403l195 217l-30 253q-4 34 -18 51t-44 19l10 34h210l-10 -34q-37 -7 -49.5 -29t-7.5 -65l18 -139l100 118q38 48 36 73t-39 42l10 34h179l-9 -34q-17 -5 -31.5 -15.5t-22.5 -19t-22 -25.5t-21 -25zM669 920h108l-146 -165h-16z" />
    <glyph glyph-name="wacute" unicode="&#x1e83;" horiz-adv-x="688" 
d="M674 337q0 -56 -26.5 -135.5t-77.5 -145.5t-107 -66q-48 0 -71 39.5t-17 114.5l-2 2q-57 -89 -99.5 -122.5t-96.5 -33.5q-45 0 -72 24t-27 72q0 40 24.5 79t69 95t71.5 105q-11 -2 -26 -0.5t-40.5 3.5t-37.5 2q-59 0 -59 -31q0 -7 19.5 -24.5t19.5 -35.5q0 -13 -12.5 -24
t-27.5 -11q-16 0 -27 13t-11 33q0 50 31.5 97.5t89.5 47.5q21 0 53.5 -0.5t44.5 0t29.5 1.5t34.5 4q-17 -30 -46.5 -78.5t-47.5 -79.5t-37.5 -67.5t-29 -63t-9.5 -45.5q0 -25 16.5 -43.5t38.5 -18.5q76 0 174 164q11 236 77 236q15 0 25 -11t10 -27q0 -58 -88 -207
q1 -66 23.5 -101t60.5 -35t70.5 45t47.5 94t15 77q0 26 -21.5 61t-21.5 60q0 20 9.5 32t25.5 12q26 0 42 -29.5t16 -77.5zM460 682h108l-146 -165h-16z" />
    <glyph glyph-name="Wdieresis" unicode="&#x1e84;" horiz-adv-x="979" 
d="M593 367l27 -259l314 410q31 39 26 76.5t-48 53.5l10 34h201l-9 -34q-38 -13 -101 -95l-311 -402q-98 -126 -114 -161h-61q10 30 2 119l-16 166l-178 -202q-13 -15 -36 -45.5t-25 -37.5h-54q6 50 2 118l-23 446q-4 75 -56 94l10 34h215l-9 -34q-43 -7 -57 -41.5
t-11 -95.5l23 -403l195 217l-30 253q-4 34 -18 51t-44 19l10 34h210l-10 -34q-37 -7 -49.5 -29t-7.5 -65l18 -139l100 118q38 48 36 73t-39 42l10 34h179l-9 -34q-17 -5 -31.5 -15.5t-22.5 -19t-22 -25.5t-21 -25zM739 858q22 0 37.5 -15t15.5 -37t-15.5 -37.5t-37.5 -15.5
t-37 15.5t-15 37.5t15 37t37 15zM566 858q22 0 37.5 -15t15.5 -37t-15.5 -37.5t-37.5 -15.5t-37 15.5t-15 37.5t15 37t37 15z" />
    <glyph glyph-name="wdieresis" unicode="&#x1e85;" horiz-adv-x="688" 
d="M674 337q0 -56 -26.5 -135.5t-77.5 -145.5t-107 -66q-48 0 -71 39.5t-17 114.5l-2 2q-57 -89 -99.5 -122.5t-96.5 -33.5q-45 0 -72 24t-27 72q0 40 24.5 79t69 95t71.5 105q-11 -2 -26 -0.5t-40.5 3.5t-37.5 2q-59 0 -59 -31q0 -7 19.5 -24.5t19.5 -35.5q0 -13 -12.5 -24
t-27.5 -11q-16 0 -27 13t-11 33q0 50 31.5 97.5t89.5 47.5q21 0 53.5 -0.5t44.5 0t29.5 1.5t34.5 4q-17 -30 -46.5 -78.5t-47.5 -79.5t-37.5 -67.5t-29 -63t-9.5 -45.5q0 -25 16.5 -43.5t38.5 -18.5q76 0 174 164q11 236 77 236q15 0 25 -11t10 -27q0 -58 -88 -207
q1 -66 23.5 -101t60.5 -35t70.5 45t47.5 94t15 77q0 26 -21.5 61t-21.5 60q0 20 9.5 32t25.5 12q26 0 42 -29.5t16 -77.5zM529 620q22 0 37.5 -15t15.5 -37t-15.5 -37.5t-37.5 -15.5t-37 15.5t-15 37.5t15 37t37 15zM356 620q22 0 37.5 -15t15.5 -37t-15.5 -37.5
t-37.5 -15.5t-37 15.5t-15 37.5t15 37t37 15z" />
    <glyph glyph-name="Ygrave" unicode="&#x1ef2;" horiz-adv-x="719" 
d="M431 255l-23 -89q-10 -37 -10 -58q0 -35 20.5 -54.5t57.5 -19.5h7l-9 -34h-300l9 34q53 4 80.5 32.5t41.5 80.5l29 108l-133 321q-16 39 -36 55.5t-50 16.5h-7l9 34h281l-9 -34h-5q-47 0 -65.5 -30.5t-0.5 -74.5l100 -247l179 210q42 48 42 83q0 53 -65 59l9 34h242
l-9 -34q-33 -1 -121 -99zM523 920l54 -165h-16l-146 165h108z" />
    <glyph glyph-name="ygrave" unicode="&#x1ef3;" horiz-adv-x="479" 
d="M227 -26l-80 349q-13 57 -29 57t-33 -23.5t-28 -62.5h-31q16 65 53.5 107.5t76.5 42.5q21 0 34 -15.5t21 -52.5l76 -336q124 158 124 265q0 27 -14 56.5t-14 39.5q0 19 12 31t29 12q24 0 38.5 -21t14.5 -55q0 -81 -69.5 -204t-166.5 -220q-135 -135 -263 -135
q-33 0 -53 13.5t-20 35.5q0 18 11.5 29t30.5 11q20 0 45 -19.5t46 -19.5q31 0 83 32t106 83zM340 682l54 -165h-16l-146 165h108z" />
    <glyph glyph-name="figuredash" unicode="&#x2012;" horiz-adv-x="521" 
d="M-6 273h564v-46h-564v46z" />
    <glyph glyph-name="endash" unicode="&#x2013;" horiz-adv-x="500" 
d="M14 270h512v-43h-512v43z" />
    <glyph glyph-name="emdash" unicode="&#x2014;" horiz-adv-x="1000" 
d="M14 270h1012v-43h-1012v43z" />
    <glyph glyph-name="quoteleft" unicode="&#x2018;" horiz-adv-x="311" 
d="M373 693v-34q-62 -6 -95 -36.5t-33 -69.5q0 -17 11.5 -27.5t25.5 -15.5t25.5 -17.5t11.5 -31.5q0 -25 -17 -39t-43 -14q-34 0 -58.5 30t-24.5 72q0 67 52 119t145 64z" />
    <glyph glyph-name="quoteright" unicode="&#x2019;" horiz-adv-x="311" 
d="M140 408v34q62 6 95 36.5t33 69.5q0 17 -11.5 27.5t-25.5 15.5t-25.5 17.5t-11.5 31.5q0 25 17 39t43 14q34 0 58.5 -30t24.5 -72q0 -67 -52 -119t-145 -64z" />
    <glyph glyph-name="quotesinglbase" unicode="&#x201a;" 
d="M36 -137v34q62 6 95 36t33 69q0 17 -11.5 27.5t-26 15.5t-26 17.5t-11.5 31.5q0 25 17 39.5t43 14.5q33 0 58.5 -30.5t25.5 -69.5q0 -70 -51.5 -121.5t-145.5 -63.5z" />
    <glyph glyph-name="quotedblleft" unicode="&#x201c;" horiz-adv-x="542" 
d="M610 693v-34q-62 -6 -95 -36.5t-33 -69.5q0 -17 11.5 -27.5t25.5 -15.5t25.5 -17.5t11.5 -31.5q0 -25 -17 -39t-43 -14q-34 0 -58.5 30t-24.5 72q0 67 52 119t145 64zM379 693v-34q-62 -6 -95 -36.5t-33 -69.5q0 -17 11.5 -27.5t25.5 -15.5t25.5 -17.5t11.5 -31.5
q0 -25 -17 -39t-43 -14q-34 0 -58.5 30t-24.5 72q0 67 52 119t145 64z" />
    <glyph glyph-name="quotedblright" unicode="&#x201d;" horiz-adv-x="542" 
d="M365 409v34q62 6 95 36.5t33 69.5q0 17 -11.5 27.5t-25.5 15.5t-25.5 17.5t-11.5 31.5q0 25 17 39t43 14q34 0 58.5 -30t24.5 -72q0 -67 -52 -119t-145 -64zM134 409v34q62 6 95 36.5t33 69.5q0 17 -11.5 27.5t-25.5 15.5t-25.5 17.5t-11.5 31.5q0 25 17 39t43 14
q34 0 58.5 -30t24.5 -72q0 -67 -52 -119t-145 -64z" />
    <glyph glyph-name="quotedblbase" unicode="&#x201e;" horiz-adv-x="542" 
d="M254 -147v34q62 6 95 36t33 69q0 17 -11.5 27.5t-26 15.5t-26 17.5t-11.5 31.5q0 25 17 39.5t43 14.5q33 0 58.5 -30.5t25.5 -69.5q0 -70 -51.5 -121.5t-145.5 -63.5zM24 -147v34q62 6 95 36t33 69q0 17 -11.5 27.5t-26 15.5t-26 17.5t-11.5 31.5q0 25 17 39.5t43 14.5
q33 0 58.5 -30.5t25.5 -69.5q0 -70 -51.5 -121.5t-145.5 -63.5z" />
    <glyph glyph-name="dagger" unicode="&#x2020;" horiz-adv-x="521" 
d="M313 424l43 234q6 35 24 35h58q37 0 19 -42l-101 -227l166 30q57 10 57 -33q0 -46 -13 -57t-50 -5l-171 29l-133 -541q-5 -20 -11.5 -27.5t-23.5 -7.5h-51q-20 0 -24.5 9.5t4.5 33.5l196 533l-167 -30q-28 -5 -39.5 1.5t-11.5 32.5q0 43 14.5 55t53.5 5z" />
    <glyph glyph-name="daggerdbl" unicode="&#x2021;" horiz-adv-x="542" 
d="M264 253l69 167l-149 -33q-27 -6 -37 -1.5t-10 19.5q0 47 23 70q18 18 59 10l126 -27l26 185q3 27 17.5 39t55.5 12q47 0 27 -45l-86 -191l146 28q45 8 45 -17q0 -13 -7 -37.5t-21 -38.5q-17 -17 -65 -4l-109 31l-35 -167l-67 -166l144 34q44 10 44 -24q0 -16 -8 -39
t-19 -34q-13 -13 -45 -6l-129 28l-18 -149q-5 -45 -19.5 -65t-52.5 -20q-32 0 -41.5 11t0.5 29l91 194l-153 -28q-25 -4 -32 0t-7 23q0 14 9.5 39t17.5 33q11 11 22 11.5t31 -5.5l124 -32z" />
    <glyph glyph-name="bullet" unicode="&#x2022;" horiz-adv-x="281" 
d="M66 331q0 51 35.5 86.5t86.5 35.5t87 -35.5t36 -86.5t-36 -87t-87 -36t-86.5 36t-35.5 87z" />
    <glyph glyph-name="onedotenleader" unicode="&#x2024;" horiz-adv-x="500" 
d="M164 52q0 26 18 44t44 18t44 -18t18 -44t-18 -44t-44 -18t-44 18t-18 44z" />
    <glyph glyph-name="twodotenleader" unicode="&#x2025;" horiz-adv-x="500" 
d="M313 52q0 26 18.5 44t43.5 18t43.5 -18t18.5 -44t-18 -44t-44 -18t-44 18t-18 44zM63 52q0 26 18.5 44t43.5 18t43.5 -18t18.5 -44t-18 -44t-44 -18t-44 18t-18 44z" />
    <glyph glyph-name="ellipsis" unicode="&#x2026;" horiz-adv-x="1031" 
d="M848 116q26 0 45 -18.5t19 -44.5t-19 -45t-45 -19t-44.5 19t-18.5 45t18.5 44.5t44.5 18.5zM515 116q26 0 45 -18.5t19 -44.5t-19 -45t-45 -19t-44.5 19t-18.5 45t18.5 44.5t44.5 18.5zM182 116q26 0 45 -18.5t19 -44.5t-19 -45t-45 -19t-44.5 19t-18.5 45t18.5 44.5
t44.5 18.5z" />
    <glyph glyph-name="perthousand" unicode="&#x2030;" horiz-adv-x="1052" 
d="M172 367q28 0 51.5 28.5t36 68.5t19.5 76t7 58q0 32 -14 48.5t-35 16.5q-26 0 -49 -28t-36 -67t-20.5 -75.5t-7.5 -58.5q0 -67 48 -67zM59 475q0 87 48 152.5t125 65.5q54 0 86.5 -38t32.5 -102q0 -89 -52.5 -152t-125.5 -63q-52 0 -83 37.5t-31 99.5zM656 693h56
l-621 -727h-56zM791 118q0 87 48 152.5t125 65.5q54 0 86.5 -38t32.5 -102q0 -89 -52.5 -152t-125.5 -63q-52 0 -83 37.5t-31 99.5zM904 10q28 0 51.5 28.5t36 68.5t19.5 76t7 58q0 32 -14 48.5t-35 16.5q-26 0 -49 -28t-36 -67t-20.5 -75.5t-7.5 -58.5q0 -67 48 -67z
M379 118q0 87 48 152.5t125 65.5q54 0 86.5 -38t32.5 -102q0 -89 -52.5 -152t-125.5 -63q-52 0 -83 37.5t-31 99.5zM492 10q28 0 51.5 28.5t36 68.5t19.5 76t7 58q0 32 -14 48.5t-35 16.5q-26 0 -49 -28t-36 -67t-20.5 -75.5t-7.5 -58.5q0 -67 48 -67z" />
    <glyph glyph-name="guilsinglleft" unicode="&#x2039;" horiz-adv-x="311" 
d="M175 256l70 -204h-27l-120 204l183 200h28z" />
    <glyph glyph-name="guilsinglright" unicode="&#x203a;" horiz-adv-x="311" 
d="M186 252l-70 204h27l120 -204l-183 -200h-28z" />
    <glyph glyph-name="fraction" unicode="&#x2044;" horiz-adv-x="250" 
d="M469 693h56l-617 -704h-56z" />
    <glyph glyph-name="zero.superior" unicode="&#x2070;" 
d="M282 667q46 0 74 -32.5t28 -88.5q0 -89 -56.5 -160.5t-123.5 -71.5q-47 0 -73.5 36t-26.5 90q0 81 55 154t123 73zM287 641q-12 0 -19 -1.5t-21 -13.5t-28 -36q-20 -33 -39 -97t-19 -91q0 -29 12 -45.5t32 -16.5q47 0 84.5 95.5t37.5 148.5q0 28 -13.5 42.5t-26.5 14.5z
" />
    <glyph glyph-name="four.superior" unicode="&#x2074;" 
d="M316 456h62l-12 -39h-62l-32 -103h-63l32 103h-145l2 40l234 210h49zM141 456h112l43 138l-2 2z" />
    <glyph glyph-name="five.superior" unicode="&#x2075;" 
d="M214 661h133l10 16l28 -14l-30 -46h-129l-23 -43q61 -11 102 -47t41 -87q0 -46 -44 -86t-129 -40q-32 0 -60.5 6t-28.5 18q0 5 9 16t21 11q9 0 42 -10q31 -10 51 -10q41 0 64.5 24.5t23.5 56.5q0 35 -33 64q-28 26 -117 43z" />
    <glyph glyph-name="six.superior" unicode="&#x2076;" 
d="M368 667l21 -19q-2 -2 -7 -2q-121 -30 -174 -115l-9 -12l2 -2q15 9 26 12q17 6 40 6q47 0 72 -27t25 -60q0 -48 -39.5 -91t-104.5 -43q-55 0 -86.5 34.5t-31.5 81.5q0 82 81 154.5t175 81.5zM178 472q-13 -36 -13 -60q0 -31 15.5 -51.5t41.5 -20.5q31 0 53 31t22 73
q0 18 -6 30t-16 16.5t-16.5 6t-13.5 1.5q-33 0 -67 -26z" />
    <glyph glyph-name="seven.superior" unicode="&#x2077;" 
d="M190 661h238l-252 -347h-50l219 298h-103q-14 0 -20.5 -1t-13.5 -9t-12 -24h-35z" />
    <glyph glyph-name="eight.superior" unicode="&#x2078;" 
d="M299 503l10 -10q51 -45 51 -82t-35.5 -67t-97.5 -30q-63 0 -97 28.5t-34 59.5q0 9 2.5 17.5t8 16t11 13.5t15 12t15.5 10t18 9.5t17.5 8t17.5 7.5t15 6q-1 1 -10 9t-12 11t-10 11.5t-10 15t-6 15.5t-3 18q0 35 36 60t84 25q47 0 78 -21.5t31 -55.5q0 -50 -95 -87z
M275 525l4 2q62 28 62 65q0 21 -17 35t-42 14q-26 0 -43 -14.5t-17 -32.5q0 -13 9 -25t31 -32q5 -4 8 -7zM240 480q-25 -11 -39.5 -18.5t-31 -25t-16.5 -38.5q0 -24 22 -41t54 -17q30 0 51 16t21 40q0 33 -61 84z" />
    <glyph glyph-name="nine.superior" unicode="&#x2079;" 
d="M120 313l-24 21q142 36 191 128l-2 2q-34 -17 -66 -17q-48 0 -72.5 26.5t-24.5 59.5q0 47 39.5 90.5t103.5 43.5q56 0 87.5 -34.5t31.5 -81.5q0 -80 -79 -154.5t-185 -83.5zM307 510q14 23 14 58q0 32 -15.5 52.5t-41.5 20.5q-28 0 -51.5 -28.5t-23.5 -74.5q0 -18 6 -30
t16 -16.5t16.5 -6t13.5 -1.5q37 0 66 26z" />
    <glyph glyph-name="parenleft.superior" unicode="&#x207d;" horiz-adv-x="271" 
d="M201 194l-26 -27q-96 80 -96 198q0 26 5.5 57t31.5 82.5t69 92.5q37 35 71 56t90 45l18 -31l-9 -5q-2 -1 -15.5 -8.5t-16.5 -9.5t-15.5 -9t-17 -10t-15.5 -10t-16.5 -12t-15 -12.5t-16 -14l-14.5 -14.5t-15 -17q-33 -41 -49.5 -93t-16.5 -97q0 -40 12.5 -74t24 -49.5
t32.5 -37.5z" />
    <glyph glyph-name="parenright.superior" unicode="&#x207e;" horiz-adv-x="271" 
d="M156 671l26 27q96 -80 96 -198q0 -26 -5.5 -57t-31.5 -82.5t-69 -92.5q-37 -35 -71 -56t-90 -45l-18 31l9 5q2 1 15.5 8.5t16.5 9.5t15.5 9t17 10t15.5 10t16.5 11.5t15 12.5t16 14.5l14.5 14.5t15 17q33 41 49.5 93t16.5 97q0 40 -12.5 74t-24 49.5t-32.5 37.5z" />
    <glyph glyph-name="n.superior" unicode="&#x207f;" 
d="M51 506q56 81 101 81q36 0 31 -35q-5 -38 -30 -103q85 138 153 138q29 0 39 -19t-3 -54l-51 -133q-11 -27 5 -27q8 0 17 6.5t14 13.5t11 16l5 8h23q-48 -84 -98 -84q-36 0 -36 33q0 13 10 40l51 137q4 10 5 16t-2.5 11t-12.5 5q-32 0 -86 -74t-74 -131l-11 -31h-49
l53 157q2 7 6.5 18.5t7 18.5t3.5 14.5t-2 11t-10 3.5q-15 0 -45 -37h-25z" />
    <glyph glyph-name="zero.inferior" unicode="&#x2080;" 
d="M232 346q46 0 74 -32.5t28 -88.5q0 -89 -56.5 -160.5t-123.5 -71.5q-47 0 -73.5 36t-26.5 90q0 81 55 154t123 73zM237 320q-12 0 -19 -1.5t-21 -13.5t-28 -36q-20 -33 -39 -97t-19 -91q0 -29 12 -45.5t32 -16.5q47 0 84.5 95.5t37.5 148.5q0 28 -13.5 42.5t-26.5 14.5z
" />
    <glyph glyph-name="one.inferior" unicode="&#x2081;" 
d="M281 347l-84 -272q-8 -21 -8 -35q0 -11 7 -13.5t24 -2.5h15l-11 -24h-162l7 24q34 0 44.5 9t21.5 46l54 175l4 16q0 10 -28 10h-28l8 24q29 2 49.5 10.5t51.5 32.5h35z" />
    <glyph glyph-name="two.inferior" unicode="&#x2082;" 
d="M279 93l-24 -93h-233v14q33 38 85 82q66 55 103 94.5t37 68.5q0 23 -18.5 36t-42.5 13q-34 0 -89 -39l-23 18q56 60 135 60q46 0 75.5 -21.5t29.5 -55.5q0 -19 -6 -32.5t-47 -52.5t-124 -101q-20 -17 -21 -19l-18 -16h86q32 0 42.5 7.5t18.5 36.5h34z" />
    <glyph glyph-name="three.inferior" unicode="&#x2083;" 
d="M106 166l4 26q146 5 146 76q0 15 -11 27.5t-37 12.5q-29 0 -72 -28l-6 -4l-22 17q46 54 116 54q40 0 68 -19t28 -52q0 -36 -30 -60t-75 -33v-2q62 -26 62 -81q0 -38 -38.5 -72t-127.5 -34q-86 0 -86 26q0 8 9.5 17t20.5 9q7 0 28 -9q40 -17 56 -17q32 0 51.5 22t19.5 51
q0 41 -32 60q-24 15 -72 13z" />
    <glyph glyph-name="four.inferior" unicode="&#x2084;" 
d="M263 135h62l-12 -39h-62l-32 -103h-63l32 103h-145l2 40l234 210h49zM88 135h112l43 138l-2 2z" />
    <glyph glyph-name="five.inferior" unicode="&#x2085;" 
d="M161 340h133l10 16l28 -14l-30 -46h-129l-23 -43q61 -11 102 -47t41 -87q0 -46 -44 -86t-129 -40q-32 0 -60.5 6t-28.5 18q0 5 9 16t21 11q9 0 42 -10q31 -10 51 -10q41 0 64.5 24.5t23.5 56.5q0 35 -33 64q-28 26 -117 43z" />
    <glyph glyph-name="six.inferior" unicode="&#x2086;" 
d="M321 346l21 -19q-2 -2 -7 -2q-121 -30 -174 -115l-9 -12l2 -2q15 9 26 12q16 6 40 6q47 0 72 -27t25 -60q0 -48 -39.5 -91t-104.5 -43q-55 0 -86.5 34.5t-31.5 81.5q0 82 81 154.5t175 81.5zM131 151q-13 -36 -13 -60q0 -31 15.5 -51.5t41.5 -20.5q31 0 53 31t22 73
q0 18 -6 30t-16 16.5t-16.5 6t-13.5 1.5q-33 0 -67 -26z" />
    <glyph glyph-name="seven.inferior" unicode="&#x2087;" 
d="M119 340h238l-252 -347h-50l219 298h-103q-14 0 -20.5 -1t-13.5 -9t-12 -24h-35z" />
    <glyph glyph-name="eight.inferior" unicode="&#x2088;" 
d="M240 182l10 -10q51 -45 51 -82t-35.5 -67t-97.5 -30q-63 0 -97 28.5t-34 59.5t30 53.5t90 46.5q-1 1 -10 9t-12 11t-10 11.5t-10 15t-6 15.5t-3 18q0 35 36 60t84 25q47 0 78 -21.5t31 -55.5q0 -50 -95 -87zM216 204l4 2q62 28 62 65q0 21 -17 35t-42 14q-26 0 -43 -14.5
t-17 -32.5q0 -13 9 -25t31 -32q5 -4 8 -7zM181 159q-25 -11 -39.5 -18.5t-31 -25t-16.5 -38.5q0 -24 22 -41t54 -17q30 0 51 16t21 40q0 33 -61 84z" />
    <glyph glyph-name="nine.inferior" unicode="&#x2089;" 
d="M67 -8l-24 21q142 36 191 128l-2 2q-34 -17 -66 -17q-48 0 -72.5 26.5t-24.5 59.5q0 47 39.5 90.5t103.5 43.5q56 0 87.5 -34.5t31.5 -81.5q0 -80 -79 -154.5t-185 -83.5zM254 189q14 23 14 58q0 32 -15.5 52.5t-41.5 20.5q-28 0 -51.5 -28.5t-23.5 -74.5q0 -18 6 -30
t16 -16.5t16.5 -6t13.5 -1.5q37 0 66 26z" />
    <glyph glyph-name="parenleft.inferior" unicode="&#x208d;" horiz-adv-x="271" 
d="M168 -84l-26 -27q-96 80 -96 198q0 26 5.5 57t31.5 82.5t69 92.5q37 35 71 56t90 45l18 -31l-9 -5q-2 -1 -15.5 -8.5t-16.5 -9.5t-15.5 -9t-17 -10t-15.5 -10t-16.5 -12t-15 -12.5t-16 -14l-14.5 -14.5t-15 -17q-33 -41 -49.5 -93t-16.5 -97q0 -40 12.5 -74t24 -49.5
t32.5 -37.5z" />
    <glyph glyph-name="parenright.inferior" unicode="&#x208e;" horiz-adv-x="271" 
d="M99 393l26 27q96 -80 96 -198q0 -26 -5.5 -57t-31.5 -82.5t-69 -92.5q-37 -35 -71 -56t-90 -45l-18 31l9 5q2 1 15.5 8.5t16.5 9.5t15.5 9t17 10t15.5 10t16.5 11.5t15 12.5t16 14.5l14.5 14.5t15 17q33 41 49.5 93t16.5 97q0 40 -12.5 74t-24 49.5t-32.5 37.5z" />
    <glyph glyph-name="colonmonetary" unicode="&#x20a1;" horiz-adv-x="708" 
d="M264 -2l-35 -116h-51l41 133q-75 34 -121.5 103t-46.5 152q0 143 111 268.5t262 150.5l24 81h51l-23 -76q34 1 69 -5l24 81h51l-28 -90l6 -2q76 -19 137 -56l-32 -155q-16 7 -37 10q3 111 -87 159l-185 -608q35 4 65 19.5t48.5 32.5t39 49t29.5 50t26 55q0 4 4 8h51
l-45 -164q-56 -41 -121 -63.5t-109 -26.5l-33 -106h-50l32 106q-35 2 -67 10zM464 656l-185 -610q25 -12 65 -18l189 624q-34 8 -69 4zM237 73l174 573q-77 -25 -135.5 -93t-85.5 -145.5t-27 -148.5q0 -120 74 -186z" />
    <glyph glyph-name="Euro" unicode="&#x20ac;" horiz-adv-x="521" 
d="M475 302l-24 -44h-255v-13q0 -98 34 -157t90 -59q18 0 36.5 4.5t32.5 10t29.5 14t23 14t18.5 13.5l10 8l28 -30q-74 -74 -189 -74q-99 0 -155.5 81.5t-56.5 184.5v3h-66l19 44h49q3 28 9 55h-65l19 44h57q35 116 112.5 191t164.5 75q47 0 95.5 -12t73.5 -36l-17 -134h-39
v13q0 132 -113 132q-69 0 -114.5 -64.5t-68.5 -164.5h302l-24 -44h-286q-3 -16 -7 -55h277z" />
    <glyph glyph-name="afii61289" unicode="&#x2113;" horiz-adv-x="374" 
d="M325 105l12 -15q-81 -99 -176 -99q-61 0 -80 37q-21 39 6 136l23 83l-69 -44l-6 20l84 56l33 119q34 123 57 173.5t63 84.5q44 41 85 41q39 0 50 -36.5t-4 -86.5q-39 -140 -216 -284l-26 -92q-23 -95 -12 -128t54 -33q57 0 122 68zM233 456l-35 -126q57 52 101 117
t61 126q26 97 -19 97q-27 0 -51.5 -49t-56.5 -165z" />
    <glyph glyph-name="trademark" unicode="&#x2122;" horiz-adv-x="980" 
d="M25 664h356l10 -98h-16q-7 38 -27.5 53.5t-66.5 15.5h-35v-284q0 -40 8.5 -51t40.5 -13v-17h-183v17q34 4 42 14t8 50v284h-38q-45 0 -65.5 -15t-27.5 -54h-16zM565 664l133 -280l128 280h138v-18q-35 -1 -44.5 -12.5t-9.5 -54.5v-228q0 -41 8.5 -51.5t45.5 -12.5v-17
h-195v17q37 1 47 12t10 52v240h-2l-146 -321h-16l-149 317h-2v-236q0 -40 9 -52t38 -12h17v-17h-150v17q36 0 45.5 11.5t9.5 52.5v228q0 45 -9 56t-46 11v18h140z" />
    <glyph glyph-name="Omega" unicode="&#x2126;" horiz-adv-x="682" 
d="M639 127l-57 -127h-216l-1 17q7 8 42 48.5t54 65t48 65.5t48 81.5t30 81.5q39 142 2 210t-117 68q-85 0 -157.5 -69t-112.5 -214q-7 -25 -10.5 -51.5t-5 -46.5t1.5 -47t5 -41.5t9 -42.5t9.5 -37t12 -38t10.5 -33l-12 -17h-214l14 127l21 1q2 -46 12.5 -59.5t38.5 -13.5
h102q-17 20 -29 37t-27 48t-22 61t-6.5 72.5t12.5 86.5q38 137 139 220t218 83q119 0 172 -79.5t15 -215.5q-41 -149 -246 -313h105q31 0 46.5 12.5t43.5 60.5z" />
    <glyph glyph-name="estimated" unicode="&#x212e;" horiz-adv-x="956" 
d="M924 318h-609q-5 0 -5 -4v-184q0 -11 8 -21q97 -100 230 -100q145 0 242 112h54q-51 -60 -129.5 -95.5t-167.5 -35.5q-155 0 -265.5 99t-110.5 238q0 140 110.5 239.5t265.5 99.5q156 0 266.5 -99.5t110.5 -239.5v-9zM785 342v185q0 13 -9 22q-99 97 -228 97
q-131 0 -229 -100q-9 -9 -9 -23v-181q0 -6 5 -6h466q4 0 4 6z" />
    <glyph glyph-name="onethird" unicode="&#x2153;" horiz-adv-x="875" 
d="M607 166l4 26q146 5 146 76q0 15 -11 27.5t-37 12.5q-29 0 -72 -28l-6 -4l-22 17q46 54 116 54q40 0 68 -19t28 -52q0 -36 -30 -60t-75 -33v-2q62 -26 62 -81q0 -38 -38.5 -72t-127.5 -34q-86 0 -86 26q0 8 9.5 17t20.5 9q7 0 28 -9q40 -17 56 -17q32 0 51.5 22t19.5 51
q0 41 -32 60q-24 15 -72 13zM763 693h56l-621 -709h-56zM337 667l-84 -272q-8 -21 -8 -35q0 -11 7 -13.5t24 -2.5h15l-11 -24h-162l7 24q34 0 44.5 9t21.5 46l54 175l4 16q0 10 -28 10h-28l8 24q29 2 49.5 10.5t51.5 32.5h35z" />
    <glyph glyph-name="twothirds" unicode="&#x2154;" horiz-adv-x="875" 
d="M607 166l4 26q146 5 146 76q0 15 -11 27.5t-37 12.5q-29 0 -72 -28l-6 -4l-22 17q46 54 116 54q40 0 68 -19t28 -52q0 -36 -30 -60t-75 -33v-2q62 -26 62 -81q0 -38 -38.5 -72t-127.5 -34q-86 0 -86 26q0 8 9.5 17t20.5 9q7 0 28 -9q40 -17 56 -17q32 0 51.5 22t19.5 51
q0 41 -32 60q-24 15 -72 13zM779 693h56l-621 -709h-56zM333 413l-24 -93h-233v14q33 38 85 82q66 55 103 94.5t37 68.5q0 23 -18.5 36t-42.5 13q-34 0 -89 -39l-23 18q56 60 135 60q46 0 75.5 -21.5t29.5 -55.5q0 -19 -6 -32.5t-47 -52.5t-124 -101q-20 -18 -21 -19
l-18 -16h86q32 0 42.5 7.5t18.5 36.5h34z" />
    <glyph glyph-name="oneeighth" unicode="&#x215b;" horiz-adv-x="875" 
d="M761 182l10 -10q51 -45 51 -82t-35.5 -67t-97.5 -30q-63 0 -97 28.5t-34 59.5t30 53.5t90 46.5q-1 1 -10 9t-12 11t-10 11.5t-10 15t-6 15.5t-3 18q0 35 36 60t84 25q47 0 78 -21.5t31 -55.5q0 -50 -95 -87zM737 204l4 2q62 28 62 65q0 21 -17 35t-42 14q-26 0 -43 -14.5
t-17 -32.5q0 -13 9 -25t31 -32q5 -4 8 -7zM702 159q-25 -11 -39.5 -18.5t-31 -25t-16.5 -38.5q0 -24 22 -41t54 -17q30 0 51 16t21 40q0 33 -61 84zM337 667l-84 -272q-8 -21 -8 -35q0 -11 7 -13.5t24 -2.5h15l-11 -24h-162l7 24q34 0 44.5 9t21.5 46l54 175l4 16
q0 10 -28 10h-28l8 24q29 2 49.5 10.5t51.5 32.5h35zM764 693h56l-621 -709h-56z" />
    <glyph glyph-name="threeeighths" unicode="&#x215c;" horiz-adv-x="875" 
d="M761 182l10 -10q51 -45 51 -82t-35.5 -67t-97.5 -30q-63 0 -97 28.5t-34 59.5t30 53.5t90 46.5q-1 1 -10 9t-12 11t-10 11.5t-10 15t-6 15.5t-3 18q0 35 36 60t84 25q47 0 78 -21.5t31 -55.5q0 -50 -95 -87zM737 204l4 2q62 28 62 65q0 21 -17 35t-42 14q-26 0 -43 -14.5
t-17 -32.5q0 -13 9 -25t31 -32q5 -4 8 -7zM702 159q-25 -11 -39.5 -18.5t-31 -25t-16.5 -38.5q0 -24 22 -41t54 -17q30 0 51 16t21 40q0 33 -61 84zM160 486l4 26q146 5 146 76q0 15 -11 27.5t-37 12.5q-29 0 -72 -28l-6 -4l-22 17q46 54 116 54q40 0 68 -19t28 -52
q0 -36 -30 -60t-75 -33v-2q62 -26 62 -81q0 -38 -38.5 -72t-127.5 -34q-86 0 -86 26q0 8 9.5 17t20.5 9q7 0 28 -9q40 -17 56 -17q32 0 51.5 22t19.5 51q0 41 -32 60q-24 15 -72 13zM764 693h56l-621 -709h-56z" />
    <glyph glyph-name="fiveeighths" unicode="&#x215d;" horiz-adv-x="875" 
d="M761 182l10 -10q51 -45 51 -82t-35.5 -67t-97.5 -30q-63 0 -97 28.5t-34 59.5t30 53.5t90 46.5q-1 1 -10 9t-12 11t-10 11.5t-10 15t-6 15.5t-3 18q0 35 36 60t84 25q47 0 78 -21.5t31 -55.5q0 -50 -95 -87zM737 204l4 2q62 28 62 65q0 21 -17 35t-42 14q-26 0 -43 -14.5
t-17 -32.5q0 -13 9 -25t31 -32q5 -4 8 -7zM702 159q-25 -11 -39.5 -18.5t-31 -25t-16.5 -38.5q0 -24 22 -41t54 -17q30 0 51 16t21 40q0 33 -61 84zM215 661h133l10 16l28 -14l-30 -46h-129l-23 -43q61 -11 102 -47t41 -87q0 -46 -44 -86t-129 -40q-32 0 -60.5 6t-28.5 18
q0 5 9 16t21 11q9 0 42 -10q31 -10 51 -10q41 0 64.5 24.5t23.5 56.5q0 35 -33 64q-28 26 -117 43zM764 693h56l-621 -709h-56z" />
    <glyph glyph-name="seveneighths" unicode="&#x215e;" horiz-adv-x="875" 
d="M761 182l10 -10q51 -45 51 -82t-35.5 -67t-97.5 -30q-63 0 -97 28.5t-34 59.5t30 53.5t90 46.5q-1 1 -10 9t-12 11t-10 11.5t-10 15t-6 15.5t-3 18q0 35 36 60t84 25q47 0 78 -21.5t31 -55.5q0 -50 -95 -87zM737 204l4 2q62 28 62 65q0 21 -17 35t-42 14q-26 0 -43 -14.5
t-17 -32.5q0 -13 9 -25t31 -32q5 -4 8 -7zM702 159q-25 -11 -39.5 -18.5t-31 -25t-16.5 -38.5q0 -24 22 -41t54 -17q30 0 51 16t21 40q0 33 -61 84zM200 661h238l-252 -347h-50l219 298h-103q-14 0 -20.5 -1t-13.5 -9t-12 -24h-35zM764 693h56l-621 -709h-56z" />
    <glyph glyph-name="partialdiff" unicode="&#x2202;" horiz-adv-x="490" 
d="M312 409h1q36 0 67.5 -18t44.5 -52q27 76 34 99q24 79 17 153q-5 39 -32 69.5t-70 30.5q-64 0 -140 -52q-7 -1 -12.5 7.5t-5.5 21.5t7 22q70 40 141 40q121 0 151 -134q21 -87 -15 -218q-42 -147 -111 -242q-106 -145 -227 -145q-76 0 -108 51t-7 140t97 156
q35 31 80.5 51t87.5 20zM320 374h-1q-66 0 -123 -56q-61 -66 -89 -169q-16 -55 0.5 -93t61.5 -38q69 0 141 100q48 65 98 183q-5 25 -28.5 49t-59.5 24z" />
    <glyph glyph-name="Delta" unicode="&#x2206;" horiz-adv-x="588" 
d="M509 0h-520l5 20l417 633l33 10l70 -643zM435 39l-54 518l-336 -518h390z" />
    <glyph glyph-name="product" unicode="&#x220f;" horiz-adv-x="766" 
d="M740 654v-22q-59 -4 -71.5 -13t-12.5 -46v-564q0 -43 13 -54t69 -15v-22h-229v22q56 4 68 14t12 55v587q0 19 -6 24t-27 5h-211q-20 0 -25.5 -4t-5.5 -21v-591q0 -44 10 -54.5t63 -14.5v-22h-222v22q57 5 69.5 15.5t12.5 53.5v564q0 36 -13 45.5t-72 13.5v22h578z" />
    <glyph glyph-name="summation" unicode="&#x2211;" horiz-adv-x="648" 
d="M627 83l-39 -167h-425v20l213 336l-207 362v20h419q0 -7 4.5 -60.5t6.5 -86.5l-23 -5q-9 62 -29 96q-9 16 -27.5 22t-69.5 6h-194l181 -311l-211 -339h249q61 0 81 17t48 97z" />
    <glyph glyph-name="minus" unicode="&#x2212;" horiz-adv-x="667" 
d="M109 364h535v-77h-535v77z" />
    <glyph glyph-name="uni2215" unicode="&#x2215;" horiz-adv-x="250" 
d="M469 693h56l-617 -704h-56z" />
    <glyph glyph-name="uni2219" unicode="&#x2219;" horiz-adv-x="313" 
d="M203 399q26 0 44 -18t18 -43q0 -26 -18.5 -44t-43.5 -18t-43 18t-18 44t18 43.5t43 17.5z" />
    <glyph glyph-name="radical" unicode="&#x221a;" horiz-adv-x="650" 
d="M633 843l-153 -977l-16 -10l-205 522l-81 -40l-10 28l137 66l164 -431h2l129 851z" />
    <glyph glyph-name="infinity" unicode="&#x221e;" horiz-adv-x="774" 
d="M729 272v-1q0 -65 -41.5 -105.5t-97.5 -40.5q-41 0 -79 25.5t-88 82.5q-30 -35 -50 -54t-53 -36.5t-68 -17.5q-57 0 -97 41t-40 102q0 62 40.5 103t102.5 41q46 0 85.5 -28.5t82.5 -79.5q3 3 9 10q29 33 46.5 49.5t49 32.5t65.5 16q59 0 96 -39t37 -101zM257 169h2
q12 0 23.5 3t23 10t19.5 12t21 17.5t18 17.5t18.5 20t15.5 17q-24 29 -32.5 38.5t-29.5 30t-41 28t-43 7.5q-41 0 -65.5 -30t-24.5 -74q0 -40 27 -68.5t68 -28.5zM591 370h-1q-17 0 -33.5 -6.5t-33.5 -20.5t-26.5 -23t-26.5 -28t-20 -22q49 -56 79 -78.5t64 -22.5
q40 0 64.5 30t24.5 69q0 47 -25.5 74.5t-65.5 27.5z" />
    <glyph glyph-name="integral" unicode="&#x222b;" horiz-adv-x="480" 
d="M291 21l-18 393q-5 114 3.5 193t29 119.5t45.5 57t57 16.5q19 0 35 -10t17 -29q0 -17 -10.5 -26.5t-25.5 -9.5t-26.5 19t-21.5 19q-12 0 -22 -12t-17.5 -50.5t-4.5 -100.5l17 -368q5 -100 -0.5 -175.5t-17.5 -120t-31.5 -72t-40 -37t-45.5 -9.5q-23 0 -37.5 12t-14.5 29
q-1 16 11.5 27t30.5 11q12 0 23.5 -20t21.5 -20q23 0 34.5 45t7.5 119z" />
    <glyph glyph-name="approxequal" unicode="&#x2248;" horiz-adv-x="573" 
d="M503 400l29 -25q-44 -87 -117 -87q-40 0 -105 37q-54 31 -84 31q-49 0 -89 -68l-31 25q21 41 54 64.5t72 23.5q15 0 31.5 -4.5t25 -8.5t25 -13t19.5 -11q4 -2 13 -7.5t12.5 -7t11 -5.5t11.5 -5.5t10.5 -3.5t12.5 -2.5t13 -0.5q46 0 86 68zM503 245l29 -25
q-44 -87 -117 -87q-25 0 -46 8t-59 29q-51 31 -84 31q-28 0 -48.5 -18t-40.5 -50l-31 25q21 41 54 64.5t72 23.5q13 0 25 -2t24 -7t18 -8.5t19 -11t15 -8.5q4 -2 13.5 -7.5t14 -8t12.5 -6.5t14 -5.5t14 -3t16 -1.5q26 0 45.5 16.5t40.5 51.5z" />
    <glyph glyph-name="notequal" unicode="&#x2260;" horiz-adv-x="595" 
d="M450 465l-40 -88h139v-46h-158l-60 -132h218v-45h-237l-48 -107l-36 17l40 90h-134v45h154l59 132h-213v46h231l48 105z" />
    <glyph glyph-name="lessequal" unicode="&#x2264;" horiz-adv-x="616" 
d="M567 94l-407 206v48l407 205v-54l-358 -173v-2l358 -175v-55zM570 10h-415v47h415v-47z" />
    <glyph glyph-name="greaterequal" unicode="&#x2265;" horiz-adv-x="615" 
d="M160 553l408 -205v-48l-408 -206v55l358 174v2l-358 174v54zM569 10h-414v47h414v-47z" />
    <glyph glyph-name="lozenge" unicode="&#x25ca;" horiz-adv-x="656" 
d="M611 316l-186 -381h-53l-186 381l187 383h53zM559 316l-158 331h-3l-159 -330l159 -332h3z" />
    <glyph glyph-name="caronalt" unicode="&#xe000;" horiz-adv-x="237" 
d="M36 453v29q56 5 85.5 31t29.5 59q0 14 -10.5 23t-22.5 13.5t-22.5 15t-10.5 26.5q0 21 15.5 33t38.5 12q31 0 53 -26t22 -61q0 -57 -47.5 -101t-130.5 -54z" />
    <glyph glyph-name="commaaccentalt" unicode="&#xe001;" horiz-adv-x="188" 
d="M215 690v-28q-40 1 -69 -14t-29 -44q0 -13 14 -18q31 -14 34 -33q1 -4 1 -8q0 -16 -13 -27t-31 -11q-25 0 -44.5 20t-19.5 48q0 39 38 77.5t119 37.5z" />
    <glyph glyph-name="uni2014.alt" unicode="&#xe002;" horiz-adv-x="750" 
d="M-5 273h760v-46h-760v46z" />
    <glyph glyph-name="h.superior" unicode="&#xf637;" 
d="M132 708l7 22h48q17 0 56 6h7q-74 -226 -97 -287q85 138 153 138q29 0 39 -19t-3 -54l-51 -133q-11 -27 5 -27q8 0 17 6.5t14 13.5t11 16l5 8h23q-48 -84 -98 -84q-36 0 -36 33q0 13 10 40l51 137q4 10 5 16t-2.5 11t-12.5 5q-32 0 -86 -74t-74 -131l-11 -31h-49l53 157
l60 178q10 35 10 40q0 13 -27 13h-27z" />
    <glyph glyph-name="zero.denominator" unicode="&#xf655;" 
d="M232 346q46 0 74 -32.5t28 -88.5q0 -89 -56.5 -160.5t-123.5 -71.5q-47 0 -73.5 36t-26.5 90q0 81 55 154t123 73zM237 320q-12 0 -19 -1.5t-21 -13.5t-28 -36q-20 -33 -39 -97t-19 -91q0 -29 12 -45.5t32 -16.5q47 0 84.5 95.5t37.5 148.5q0 28 -13.5 42.5t-26.5 14.5z
" />
    <glyph glyph-name="one.denominator" unicode="&#xf656;" 
d="M281 347l-84 -272q-8 -21 -8 -35q0 -11 7 -13.5t24 -2.5h15l-11 -24h-162l7 24q34 0 44.5 9t21.5 46l54 175l4 16q0 10 -28 10h-28l8 24q29 2 49.5 10.5t51.5 32.5h35z" />
    <glyph glyph-name="two.denominator" unicode="&#xf657;" 
d="M279 93l-24 -93h-233v14q33 38 85 82q66 55 103 94.5t37 68.5q0 23 -18.5 36t-42.5 13q-34 0 -89 -39l-23 18q56 60 135 60q46 0 75.5 -21.5t29.5 -55.5q0 -19 -6 -32.5t-47 -52.5t-124 -101q-20 -17 -21 -19l-18 -16h86q32 0 42.5 7.5t18.5 36.5h34z" />
    <glyph glyph-name="three.denominator" unicode="&#xf658;" 
d="M106 166l4 26q146 5 146 76q0 15 -11 27.5t-37 12.5q-29 0 -72 -28l-6 -4l-22 17q46 54 116 54q40 0 68 -19t28 -52q0 -36 -30 -60t-75 -33v-2q62 -26 62 -81q0 -38 -38.5 -72t-127.5 -34q-86 0 -86 26q0 8 9.5 17t20.5 9q7 0 28 -9q40 -17 56 -17q32 0 51.5 22t19.5 51
q0 41 -32 60q-24 15 -72 13z" />
    <glyph glyph-name="four.denominator" unicode="&#xf659;" 
d="M263 135h62l-12 -39h-62l-32 -103h-63l32 103h-145l2 40l234 210h49zM88 135h112l43 138l-2 2z" />
    <glyph glyph-name="five.denominator" unicode="&#xf65a;" 
d="M161 340h133l10 16l28 -14l-30 -46h-129l-23 -43q61 -11 102 -47t41 -87q0 -46 -44 -86t-129 -40q-32 0 -60.5 6t-28.5 18q0 5 9 16t21 11q9 0 42 -10q31 -10 51 -10q41 0 64.5 24.5t23.5 56.5q0 35 -33 64q-28 26 -117 43z" />
    <glyph glyph-name="six.denominator" unicode="&#xf65b;" 
d="M321 346l21 -19q-2 -2 -7 -2q-121 -30 -174 -115l-9 -12l2 -2q15 9 26 12q16 6 40 6q47 0 72 -27t25 -60q0 -48 -39.5 -91t-104.5 -43q-55 0 -86.5 34.5t-31.5 81.5q0 82 81 154.5t175 81.5zM131 151q-13 -36 -13 -60q0 -31 15.5 -51.5t41.5 -20.5q31 0 53 31t22 73
q0 18 -6 30t-16 16.5t-16.5 6t-13.5 1.5q-33 0 -67 -26z" />
    <glyph glyph-name="seven.denominator" unicode="&#xf65c;" 
d="M119 340h238l-252 -347h-50l219 298h-103q-14 0 -20.5 -1t-13.5 -9t-12 -24h-35z" />
    <glyph glyph-name="eight.denominator" unicode="&#xf65d;" 
d="M240 182l10 -10q51 -45 51 -82t-35.5 -67t-97.5 -30q-63 0 -97 28.5t-34 59.5t30 53.5t90 46.5q-1 1 -10 9t-12 11t-10 11.5t-10 15t-6 15.5t-3 18q0 35 36 60t84 25q47 0 78 -21.5t31 -55.5q0 -50 -95 -87zM216 204l4 2q62 28 62 65q0 21 -17 35t-42 14q-26 0 -43 -14.5
t-17 -32.5q0 -13 9 -25t31 -32q5 -4 8 -7zM181 159q-25 -11 -39.5 -18.5t-31 -25t-16.5 -38.5q0 -24 22 -41t54 -17q30 0 51 16t21 40q0 33 -61 84z" />
    <glyph glyph-name="nine.denominator" unicode="&#xf65e;" 
d="M67 -8l-24 21q142 36 191 128l-2 2q-34 -17 -66 -17q-48 0 -72.5 26.5t-24.5 59.5q0 47 39.5 90.5t103.5 43.5q56 0 87.5 -34.5t31.5 -81.5q0 -80 -79 -154.5t-185 -83.5zM254 189q14 23 14 58q0 32 -15.5 52.5t-41.5 20.5q-28 0 -51.5 -28.5t-23.5 -74.5q0 -18 6 -30
t16 -16.5t16.5 -6t13.5 -1.5q37 0 66 26z" />
    <glyph glyph-name="zero.numerator" unicode="&#xf661;" 
d="M282 667q46 0 74 -32.5t28 -88.5q0 -89 -56.5 -160.5t-123.5 -71.5q-47 0 -73.5 36t-26.5 90q0 81 55 154t123 73zM287 641q-12 0 -19 -1.5t-21 -13.5t-28 -36q-20 -33 -39 -97t-19 -91q0 -29 12 -45.5t32 -16.5q47 0 84.5 95.5t37.5 148.5q0 28 -13.5 42.5t-26.5 14.5z
" />
    <glyph glyph-name="one.numerator" unicode="&#xf662;" horiz-adv-x="323" 
d="M332 667l-83 -270q-10 -33 -7.5 -43t22.5 -10h22l-11 -24h-161l6 24h7q27 0 37.5 9.5t20.5 43.5l55 176q6 17 1.5 21.5t-25.5 4.5h-27l6 25q30 1 50.5 10t51.5 33h35z" />
    <glyph glyph-name="two.numerator" unicode="&#xf663;" horiz-adv-x="323" 
d="M336 413l-25 -93h-232v14q28 32 88.5 84.5t98.5 92.5t38 69q0 22 -17 35.5t-45 13.5q-37 0 -90 -40l-21 18q55 60 135 60q49 0 77 -22t28 -55q0 -19 -7 -34t-26.5 -34.5t-40 -36t-63 -50.5t-79.5 -66h86q31 0 43.5 9t16.5 35h35z" />
    <glyph glyph-name="three.numerator" unicode="&#xf664;" horiz-adv-x="323" 
d="M162 488l7 24q65 0 105 20t40 57q0 19 -13 29.5t-34 10.5q-34 0 -76 -33l-26 17q47 54 116 54q43 0 69.5 -20t26.5 -52t-22.5 -53t-76.5 -40q24 -12 40.5 -33.5t16.5 -44.5q0 -50 -45.5 -80t-121.5 -30q-86 0 -86 26q0 9 9.5 17.5t20.5 8.5q10 0 35.5 -13t48.5 -13
q31 0 51 20.5t20 51.5q0 76 -105 76z" />
    <glyph glyph-name="four.numerator" unicode="&#xf665;" 
d="M316 456h62l-12 -39h-62l-32 -103h-63l32 103h-145l2 40l234 210h49zM141 456h112l43 138l-2 2z" />
    <glyph glyph-name="five.numerator" unicode="&#xf666;" 
d="M214 661h133l10 16l28 -14l-30 -46h-129l-23 -43q61 -11 102 -47t41 -87q0 -46 -44 -86t-129 -40q-32 0 -60.5 6t-28.5 18q0 5 9 16t21 11q9 0 42 -10q31 -10 51 -10q41 0 64.5 24.5t23.5 56.5q0 35 -33 64q-28 26 -117 43z" />
    <glyph glyph-name="six.numerator" unicode="&#xf667;" 
d="M368 667l21 -19q-2 -2 -7 -2q-121 -30 -174 -115l-9 -12l2 -2q15 9 26 12q17 6 40 6q47 0 72 -27t25 -60q0 -48 -39.5 -91t-104.5 -43q-55 0 -86.5 34.5t-31.5 81.5q0 82 81 154.5t175 81.5zM178 472q-13 -36 -13 -60q0 -31 15.5 -51.5t41.5 -20.5q31 0 53 31t22 73
q0 18 -6 30t-16 16.5t-16.5 6t-13.5 1.5q-33 0 -67 -26z" />
    <glyph glyph-name="seven.numerator" unicode="&#xf668;" 
d="M190 661h238l-252 -347h-50l219 298h-103q-14 0 -20.5 -1t-13.5 -9t-12 -24h-35z" />
    <glyph glyph-name="eight.numerator" unicode="&#xf669;" 
d="M299 503l10 -10q51 -45 51 -82t-35.5 -67t-97.5 -30q-63 0 -97 28.5t-34 59.5q0 9 2.5 17.5t8 16t11 13.5t15 12t15.5 10t18 9.5t17.5 8t17.5 7.5t15 6q-1 1 -10 9t-12 11t-10 11.5t-10 15t-6 15.5t-3 18q0 35 36 60t84 25q47 0 78 -21.5t31 -55.5q0 -50 -95 -87z
M275 525l4 2q62 28 62 65q0 21 -17 35t-42 14q-26 0 -43 -14.5t-17 -32.5q0 -13 9 -25t31 -32q5 -4 8 -7zM240 480q-25 -11 -39.5 -18.5t-31 -25t-16.5 -38.5q0 -24 22 -41t54 -17q30 0 51 16t21 40q0 33 -61 84z" />
    <glyph glyph-name="nine.numerator" unicode="&#xf66a;" 
d="M120 313l-24 21q142 36 191 128l-2 2q-34 -17 -66 -17q-48 0 -72.5 26.5t-24.5 59.5q0 47 39.5 90.5t103.5 43.5q56 0 87.5 -34.5t31.5 -81.5q0 -80 -79 -154.5t-185 -83.5zM307 510q14 23 14 58q0 32 -15.5 52.5t-41.5 20.5q-28 0 -51.5 -28.5t-23.5 -74.5q0 -18 6 -30
t16 -16.5t16.5 -6t13.5 -1.5q37 0 66 26z" />
    <glyph glyph-name="commaaccent" unicode="&#xf6c3;" horiz-adv-x="188" 
d="M-8 -199v28q40 -1 69 14t29 44q0 13 -14 18q-31 14 -34 33q-1 4 -1 8q0 16 13 27t31 11q25 0 44.5 -20t19.5 -48q0 -39 -38 -77.5t-119 -37.5z" />
    <glyph glyph-name="one.fitted" unicode="&#xf6dc;" horiz-adv-x="427" 
d="M432 667l-140 -523q-14 -50 -14 -70q0 -19 10.5 -27.5t22.5 -10t40 -1.5l-10 -35h-258l10 35q55 0 74 20.5t37 88.5l94 351q5 15 5 23q0 28 -56 28h-36l10 37q48 4 84.5 23t82.5 61h44z" />
    <glyph glyph-name="R_p" unicode="&#xf6dd;" horiz-adv-x="1094" 
d="M674 39l93 324q-53 -23 -104 -88h-39q73 102 157 136l31 109h75l-23 -82q33 7 55 7q72 0 119 -39t47 -113q0 -66 -39.5 -137t-109.5 -112q-36 -21 -77 -33.5t-62.5 -15t-61.5 -6.5l-14 -51q-1 -3 -2.5 -7t-1.5 -5q-8 -30 -8 -45q0 -42 78 -42l-10 -30h-243l10 30
q50 0 69 26t38 91l12 44h-133q-28 28 -63 109q-19 47 -32 76q-12 30 -37 78.5t-40 68.5h-78l-46 -166q-10 -33 -10 -58q0 -36 21.5 -55t58.5 -19l-10 -34h-283l9 34q55 12 77.5 41.5t38.5 90.5l97 350q12 30 12 61q0 34 -22.5 52.5t-54.5 18.5l10 34h277q79 0 132 -17
q46 -15 77.5 -56.5t31.5 -90.5q0 -18 -5 -37t-20.5 -43.5t-40.5 -44.5t-70 -36t-103 -21q22 -32 69 -132q18 -39 28 -57t29 -46t41 -42.5t50 -19.5zM366 644l-76 -275h49q246 0 246 146q0 62 -46 98q-38 31 -115 31h-58zM848 381l-103 -358q111 4 185.5 75.5t74.5 165.5
q0 53 -33 86.5t-91 33.5q-21 0 -33 -3z" />
    <glyph glyph-name="cent.inferior" unicode="&#xf6df;" 
d="M257 170l-68 -136q43 -2 76 39l3 4l33 -3l-4 -5q-55 -77 -127 -75l-33 -66h-30l35 70q-50 15 -50 62q0 57 53.5 115.5t113.5 57.5l39 79h29l-42 -86q22 -11 22 -31q0 -13 -9 -22t-24 -9q-9 0 -17 6zM164 42l81 163q-27 10 -60.5 -38t-33.5 -90q0 -22 13 -35z" />
    <glyph glyph-name="cent.superior" unicode="&#xf6e0;" 
d="M268 490l-68 -136q43 -2 76 39l3 4l33 -3l-4 -5q-55 -77 -127 -75l-33 -66h-30l35 70q-50 15 -50 62q0 57 53.5 115.5t113.5 57.5l39 79h29l-42 -86q22 -11 22 -31q0 -13 -9 -22t-24 -9q-9 0 -17 6zM175 362l81 163q-27 10 -60.5 -38t-33.5 -90q0 -22 13 -35z" />
    <glyph glyph-name="comma.inferior" unicode="&#xf6e1;" horiz-adv-x="198" 
d="M29 -89v28q40 -1 69 14t29 44q0 13 -14 18q-31 14 -34 33q-1 4 -1 8q0 16 13 27t31 11q25 0 44.5 -20t19.5 -48q0 -39 -38 -77.5t-119 -37.5z" />
    <glyph glyph-name="comma.superior" unicode="&#xf6e2;" horiz-adv-x="198" 
d="M47 232v28q40 -1 69 14t29 44q0 13 -14 18q-31 14 -34 33q-1 4 -1 8q0 16 13 27t31 11q25 0 44.5 -20t19.5 -48q0 -39 -38 -77.5t-119 -37.5z" />
    <glyph glyph-name="dollar.inferior" unicode="&#xf6e3;" 
d="M262 341l7 21h16l-8 -24q59 -21 59 -63q0 -33 -31 -33q-28 0 -28 22q0 5 4 13q5 8 5 12q0 11 -17 20l-40 -126q20 -20 28.5 -29t17 -24t8.5 -29q0 -39 -30.5 -68.5t-80.5 -37.5l-14 -46h-16l13 45q-24 0 -31 1l-15 -46h-16l15 49q-27 9 -42.5 26.5t-18 28t-2.5 18.5
q0 13 9 22t23 9q12 0 20.5 -7t8.5 -17q0 -3 -3 -9.5t-3 -7.5q-4 -4 -4 -10q0 -13 21 -24l46 148q-44 47 -44 78q0 29 23 54.5t73 34.5l6 20h16l-6 -18q13 0 31 -3zM218 200l36 113q-13 4 -31 2l-29 -90zM182 237l24 76q-36 -7 -36 -42q0 -10 12 -34zM212 126l-31 -98
q19 6 32 21t13 36q0 16 -14 41zM199 138l-23 24l-44 -139q16 -2 32 0z" />
    <glyph glyph-name="dollar.superior" unicode="&#xf6e4;" 
d="M303 661l7 21h16l-8 -24q59 -21 59 -63q0 -33 -31 -33q-28 0 -28 22q0 5 4 13q5 8 5 12q0 11 -17 20l-40 -126q20 -20 28.5 -29t17 -24t8.5 -29q0 -39 -30.5 -68.5t-80.5 -37.5l-14 -46h-16l13 45q-24 0 -31 1l-15 -46h-16l15 49q-27 9 -42.5 26.5t-18 28t-2.5 18.5
q0 13 9 22t23 9q12 0 20.5 -7t8.5 -17q0 -3 -3 -9.5t-3 -7.5q-4 -4 -4 -10q0 -13 21 -24l46 148q-44 47 -44 78q0 29 23 54.5t73 34.5l6 20h16l-6 -18q13 0 31 -3zM259 520l36 113q-13 4 -31 2l-29 -90zM223 557l24 76q-36 -7 -36 -42q0 -10 12 -34zM253 446l-31 -98
q19 6 32 21t13 36q0 16 -14 41zM240 458l-23 24l-44 -139q16 -2 32 0z" />
    <glyph glyph-name="hyphen.inferior" unicode="&#xf6e5;" horiz-adv-x="229" 
d="M24 117l15 51h205l-15 -51h-205z" />
    <glyph glyph-name="hyphen.superior" unicode="&#xf6e6;" horiz-adv-x="229" 
d="M48 395l15 51h205l-15 -51h-205z" />
    <glyph glyph-name="period.inferior" unicode="&#xf6e7;" horiz-adv-x="198" 
d="M62 34q0 16 13.5 27.5t31.5 11.5q19 0 32 -11.5t13 -27.5q0 -17 -13 -28.5t-32 -11.5q-18 0 -31.5 12t-13.5 28z" />
    <glyph glyph-name="period.superior" unicode="&#xf6e8;" horiz-adv-x="198" 
d="M108 354q0 16 13.5 27.5t31.5 11.5q19 0 32 -11.5t13 -27.5q0 -17 -13 -28.5t-32 -11.5q-18 0 -31.5 12t-13.5 28z" />
    <glyph glyph-name="a.superior" unicode="&#xf6e9;" horiz-adv-x="344" 
d="M328 583h28q-7 -16 -12 -33l-47 -144q-11 -33 -11 -41q0 -14 13 -14q15 0 47 47h20q-16 -30 -41.5 -57t-50.5 -27q-14 0 -25.5 9.5t-11.5 31.5q0 17 8 41l-2 2q-4 -9 -11.5 -21t-21 -27t-34 -25.5t-42.5 -10.5q-37 0 -55.5 21.5t-18.5 50.5q0 60 65 130.5t125 70.5
q35 0 65 -28zM244 565q-51 0 -95 -64q-38 -55 -38 -98q0 -22 13 -35.5t34 -13.5q43 0 85 72q38 66 38 100q0 19 -10.5 29t-26.5 10z" />
    <glyph glyph-name="b.superior" unicode="&#xf6ea;" horiz-adv-x="292" 
d="M200 736l-69 -209l2 -2q25 37 51 52q17 10 38 10q33 0 54 -23t21 -62q0 -63 -59 -125.5t-114 -62.5q-36 0 -58 20t-22 53q0 21 14 63l69 214q8 21 8 28q0 12 -46 12l8 26q47 0 64 1q30 5 39 5zM138 349q45 0 80 56q30 47 30 85q0 51 -47 51q-45 0 -79 -71
q-25 -53 -25 -83q0 -18 11.5 -28t29.5 -10z" />
    <glyph glyph-name="d.superior" unicode="&#xf6eb;" horiz-adv-x="313" 
d="M369 736l-102 -349q-6 -20 -6 -24q0 -7 10 -7q17 0 44 45h22q-15 -36 -39.5 -61.5t-47.5 -25.5q-40 0 -40 41q0 13 7 32l-2 2q-43 -74 -109 -74q-28 0 -47 20.5t-19 53.5q0 62 58 130t123 68q29 0 52 -12l27 90q7 23 7 27q0 11 -29 11h-25l8 27q53 0 70 1q30 5 38 5z
M137 359q42 0 78 60t36 99q0 22 -12 32.5t-29 10.5q-46 0 -84 -58q-33 -52 -33 -96q0 -48 44 -48z" />
    <glyph glyph-name="e.superior" unicode="&#xf6ec;" horiz-adv-x="250" 
d="M240 403h25q-26 -45 -61.5 -67t-69.5 -22t-57.5 18.5t-23.5 57.5q0 65 58.5 131t113.5 66q26 0 38 -14t12 -32q0 -40 -45.5 -70.5t-125.5 -43.5q-2 -14 -2 -21q0 -28 15.5 -40t33.5 -12q20 0 46 11t43 38zM107 447q35 6 60 15.5t38 18.5t20 19.5t8.5 16t1.5 11.5
q0 14 -10 22t-22 8q-56 0 -96 -111z" />
    <glyph glyph-name="i.superior" unicode="&#xf6ed;" horiz-adv-x="177" 
d="M71 503h-20q45 84 98 84q35 0 35 -33q0 -20 -9 -42l-49 -131q-6 -12 -6 -21t7 -9q21 0 54 48h22q-25 -42 -52.5 -63.5t-49.5 -21.5q-17 0 -24.5 11.5t-7.5 24.5q0 9 9 38l47 128q6 15 6 23q0 11 -10 11q-15 0 -29.5 -17t-20.5 -30zM167 706q0 12 9.5 21t23.5 9
q13 0 22 -9t9 -21q0 -13 -9.5 -21.5t-22.5 -8.5t-22.5 8.5t-9.5 21.5z" />
    <glyph glyph-name="l.superior" unicode="&#xf6ee;" horiz-adv-x="177" 
d="M243 736l-112 -339q-10 -27 -10 -35q0 -11 10 -11q18 0 51 42q3 3 3 4h22q-59 -83 -104 -83q-33 0 -33 31q0 18 12 52l89 267q8 26 8 31q0 13 -40 13h-14l7 22q57 0 74 1q25 5 37 5z" />
    <glyph glyph-name="m.superior" unicode="&#xf6ef;" horiz-adv-x="500" 
d="M57 320l68 205q3 6 3 14q0 11 -8 11q-18 0 -47 -41h-19q18 33 43.5 55.5t48.5 22.5q33 0 33 -35q0 -10 -6 -26l-37 -101l2 -2l10 19q17 27 30 44.5t35.5 44.5t46.5 41.5t46 14.5q37 0 37 -32q0 -5 -5 -28l-35 -98l2 -2q93 160 167 160q16 0 26.5 -9.5t10.5 -25.5
q0 -17 -8 -36l-49 -123q-10 -26 -10 -35q0 -10 9 -10q15 0 46 41h19q-46 -75 -89 -75q-15 0 -25.5 8.5t-10.5 25.5q0 22 15 56l49 122q3 6 3 16q0 13 -14 13q-33 0 -88 -75q-48 -66 -87 -160h-51l68 203q6 18 6 23q0 12 -12 12q-23 0 -62 -46q-28 -33 -48 -66
q-44 -70 -65 -126h-48z" />
    <glyph glyph-name="o.superior" unicode="&#xf6f0;" horiz-adv-x="292" 
d="M53 403q0 56 55.5 120t122.5 64q41 0 60.5 -26t19.5 -63q0 -64 -53.5 -124t-117.5 -60q-34 0 -60.5 19t-26.5 70zM209 565q-44 0 -73.5 -56t-29.5 -109q0 -12 2.5 -24.5t15 -26t32.5 -13.5q31 0 56 32t35.5 69t10.5 65q0 23 -12.5 43t-36.5 20z" />
    <glyph glyph-name="r.superior" unicode="&#xf6f1;" horiz-adv-x="219" 
d="M72 509h-18q14 38 33.5 58t37.5 20q15 0 25 -11t10 -28q0 -8 -4 -28l-15 -57l2 -2q21 40 35 63t35 43t40 20q29 0 29 -39q0 -40 -27 -40q-20 0 -20 22q0 2 0.5 5t1 5t-1 4t-5.5 2q-23 0 -63.5 -78t-54.5 -148h-49l49 195q3 7 3 20q0 19 -12 19q-8 0 -17.5 -16.5
t-13.5 -28.5z" />
    <glyph glyph-name="s.superior" unicode="&#xf6f2;" horiz-adv-x="219" 
d="M146 497l23 -30q22 -29 29 -43t7 -31q0 -40 -31 -59.5t-66 -19.5q-29 0 -49.5 12t-20.5 32q0 11 7 18t17 7q17 0 30 -26q12 -21 32 -21q15 0 28.5 9.5t13.5 22.5q0 20 -44 73q-33 41 -33 67q0 33 19 52t35.5 23t32.5 4q25 0 43.5 -10t18.5 -30q0 -24 -24 -24
q-14 0 -24 18q-14 24 -36 24q-13 0 -21 -9.5t-8 -20.5q0 -10 21 -38z" />
    <glyph glyph-name="t.superior" unicode="&#xf6f3;" horiz-adv-x="188" 
d="M176 559l-57 -172q-7 -21 -7 -29q0 -13 16 -13q25 0 64 45h24q-59 -76 -119 -76q-36 0 -36 36q0 11 7 34l59 175h-55l8 24q61 7 90 47h29l-15 -47h58l-4 -24h-62z" />
    <glyph glyph-name="dollar.oldstyle" unicode="&#xf724;" horiz-adv-x="365" 
d="M273 482l9 31h28l-10 -38q65 -27 65 -90q0 -45 -38 -45q-14 0 -22 8.5t-8 22.5q0 9 2 15q7 17 7 23q0 12 -17 25l-47 -173q57 -68 57 -120q0 -34 -17.5 -67.5t-48.5 -55.5q-23 -16 -62 -24l-18 -66h-28l17 63q-12 0 -30 2l-18 -65h-28l19 71q-25 9 -41.5 24.5t-22 33
t-7 26.5t-1.5 16q0 19 11 32.5t27 13.5q14 0 24 -9t10 -25q0 -10 -2 -16q-8 -18 -8 -25q0 -18 22 -28l56 210q-16 19 -25 31.5t-17 33t-8 41.5q0 14 4.5 30t15 36t34.5 36t58 22l8 31h28l-8 -28q22 -2 30 -3zM221 285l42 156q-8 2 -31 2l-35 -131q2 -2 12.5 -14t11.5 -13z
M198 200l-23 28l-52 -194q19 -2 30 0zM177 340l25 96q-39 -17 -39 -54q0 -20 14 -42zM218 171l-34 -128q50 23 50 79q0 24 -16 49z" />
    <glyph glyph-name="zero.oldstyle" unicode="&#xf730;" horiz-adv-x="500" 
d="M56 189q0 114 80 199.5t167 85.5q83 0 130 -59t47 -141q0 -63 -31 -127t-90.5 -109t-131.5 -45q-78 0 -124.5 53.5t-46.5 142.5zM130 163q0 -66 26 -95t66 -29q44 0 81 30t58 75.5t32.5 91.5t11.5 83q0 59 -28.5 86t-67.5 27q-49 0 -92 -50.5t-65 -112t-22 -106.5z" />
    <glyph glyph-name="one.oldstyle" unicode="&#xf731;" horiz-adv-x="396" 
d="M134 464h261l-9 -37q-28 0 -47.5 -7t-30 -20.5t-15 -23.5t-8.5 -25l-59 -207q-12 -40 -12 -64q0 -18 10.5 -27t21.5 -11t39 -5l-10 -37h-253l10 37q22 3 36 6t25.5 11t17.5 14t13.5 23.5t11 30t12.5 42.5l49 177q9 31 9 47q0 18 -15.5 27.5t-29 10.5t-37.5 1z" />
    <glyph glyph-name="two.oldstyle" unicode="&#xf732;" horiz-adv-x="480" 
d="M383 133l-37 -133h-335v31q36 33 236 192q35 28 52 43.5t34 40t17 45.5q0 27 -22 43t-51 16q-72 0 -139 -56l-26 23q94 101 198 101q63 0 97 -35t34 -77q0 -76 -115 -150l-96 -64q-29 -18 -79 -55q-29 -23 -39 -25v-2h118q58 0 78 10.5t35 51.5h40z" />
    <glyph glyph-name="three.oldstyle" unicode="&#xf733;" horiz-adv-x="438" 
d="M244 185q78 -47 78 -140q0 -31 -12 -64t-38.5 -67t-79 -55.5t-122.5 -21.5q-110 0 -110 51q0 16 12 26.5t29 10.5q15 0 68 -27q34 -17 59 -17q40 0 71 53t31 107q0 53 -32 85.5t-90 32.5q-7 0 -9.5 0.5t-4.5 2.5t-2 7q0 25 18 27q71 10 104.5 21.5t62.5 36.5q40 36 40 83
q0 32 -18.5 55.5t-56.5 23.5q-50 0 -100 -44q-6 -6 -10 -6q-6 0 -13 9t-7 13q0 6 11 20t29.5 30.5t49.5 28.5t66 12q68 0 101 -39.5t33 -87.5q0 -73 -69 -127q-30 -24 -89 -40z" />
    <glyph glyph-name="four.oldstyle" unicode="&#xf734;" horiz-adv-x="480" 
d="M454 479l-113 -400h103l-17 -61h-104l-62 -220h-84l62 220h-230l9 70l373 391h63zM257 79l84 293l-2 2l-279 -295h197z" />
    <glyph glyph-name="five.oldstyle" unicode="&#xf735;" horiz-adv-x="396" 
d="M91 224l72 242q22 -2 41 -2h106q22 0 32.5 4t22.5 23q5 7 10 7q24 0 24 -15q0 -6 -4 -16l-16 -44q-10 -28 -22.5 -34.5t-38.5 -6.5h-99l-35 1l-29 -96q158 -56 158 -218q0 -61 -25 -112t-64.5 -82.5t-84.5 -48.5t-87 -17q-8 0 -18.5 1t-31 4.5t-34 13.5t-13.5 26
q0 13 10.5 24t28.5 11q13 0 49.5 -11t53.5 -11q73 0 112 42.5t39 113.5q0 37 -12 69t-26.5 51t-40.5 37.5t-39.5 25.5t-38.5 18z" />
    <glyph glyph-name="six.oldstyle" unicode="&#xf736;" horiz-adv-x="470" 
d="M193 358l2 -2q66 38 107 38q64 0 104 -49.5t40 -111.5q0 -91 -64.5 -165.5t-161.5 -74.5q-55 0 -94 32.5t-53.5 73t-14.5 81.5q0 26 7 62t27 94t68.5 120.5t119.5 112.5q37 26 80.5 46t68.5 27.5t31 7.5q5 0 14 -11t9 -16q0 -4 -6 -7q-34 -10 -82 -38t-88 -67
q-63 -61 -114 -153zM171 300q-38 -95 -38 -150q0 -48 25.5 -84t69.5 -36q56 0 93.5 60.5t37.5 130.5q0 17 -2.5 33t-10.5 38t-27 35.5t-48 13.5q-45 0 -100 -41z" />
    <glyph glyph-name="seven.oldstyle" unicode="&#xf737;" horiz-adv-x="428" 
d="M119 464h347l-372 -649q-6 -11 -10.5 -14t-18.5 -3q-23 -1 -28 0t-5 5q0 1 7 15l326 557h-162q-37 0 -52 -7t-30 -41q-5 -9 -11 -9q-32 0 -32 7q0 4 3 10z" />
    <glyph glyph-name="eight.oldstyle" unicode="&#xf738;" horiz-adv-x="458" 
d="M336 347q44 -49 63 -83t19 -83q0 -85 -54.5 -136.5t-142.5 -51.5q-84 0 -132 48.5t-48 108.5q0 32 14.5 61t33.5 48t48.5 37.5t46.5 26.5t41 18q-73 73 -73 144q0 59 47.5 111t127.5 52q36 0 64.5 -10t45 -25t27 -34.5t14 -35.5t3.5 -30q0 -33 -12 -59t-38 -47t-43.5 -32
t-51.5 -28zM304 378q23 11 36.5 19.5t34 26t31 42t10.5 55.5q0 41 -26 65.5t-67 24.5q-47 0 -73 -29t-26 -62q0 -62 80 -142zM250 310q-21 -10 -32 -16t-35.5 -23t-38 -33t-25 -42.5t-11.5 -55.5q0 -38 21 -63.5t45.5 -33.5t50.5 -8q55 0 86.5 35.5t31.5 82.5q0 76 -93 157z
" />
    <glyph glyph-name="nine.oldstyle" unicode="&#xf739;" horiz-adv-x="470" 
d="M300 87l-2 2q-58 -29 -96 -29q-55 0 -100 44t-45 123q0 106 66 176.5t159 70.5q45 0 79 -20.5t51 -51.5t25 -61.5t8 -57.5q0 -204 -213 -383q-39 -32 -84 -57.5t-71.5 -35t-33.5 -9.5q-8 0 -20 18q0 2 -2 4q-7 10 -7 13q0 4 5 5q32 8 89 45q56 37 97 81.5t95 122.5z
M326 146q44 114 44 175q0 49 -27.5 80t-66.5 31q-62 0 -97 -61t-35 -137q0 -61 27.5 -90.5t63.5 -29.5q38 0 91 32z" />
    <glyph glyph-name="cent.oldstyle" unicode="&#xf7a2;" horiz-adv-x="281" 
d="M224 244l-82 -193q54 -1 98 62l39 -4q-71 -121 -162 -116l-41 -94h-35l43 100q-26 8 -43 31t-17 58q0 81 65.5 165t138.5 81l49 113h34l-52 -122q26 -16 26 -46q0 -20 -11.5 -32.5t-26.5 -12.5q-11 0 -23 10zM112 62l98 230q-1 0 -3.5 0.5t-4.5 0.5q-39 0 -74 -65
t-35 -118q0 -30 19 -48z" />
    </font>
</defs>
</svg>
